%TF.GenerationSoftware,KiCad,Pcbnew,(5.1.9)-1*%
%TF.CreationDate,2021-09-18T16:00:30+02:00*%
%TF.ProjectId,DDS_mount,4444535f-6d6f-4756-9e74-2e6b69636164,1.1*%
%TF.SameCoordinates,Original*%
%TF.FileFunction,Soldermask,Top*%
%TF.FilePolarity,Negative*%
%FSLAX46Y46*%
G04 Gerber Fmt 4.6, Leading zero omitted, Abs format (unit mm)*
G04 Created by KiCad (PCBNEW (5.1.9)-1) date 2021-09-18 16:00:30*
%MOMM*%
%LPD*%
G01*
G04 APERTURE LIST*
%ADD10C,11.500000*%
%ADD11C,5.600000*%
%ADD12O,1.700000X1.700000*%
%ADD13R,1.700000X1.700000*%
G04 APERTURE END LIST*
D10*
%TO.C,J2*%
X157750000Y-78550000D03*
X157750000Y-65550000D03*
X68250000Y-78550000D03*
X68250000Y-65550000D03*
D11*
X159000000Y-125800000D03*
X159000000Y-56800000D03*
X67000000Y-56800000D03*
X67000000Y-125800000D03*
D12*
X84940000Y-118760000D03*
X84940000Y-121300000D03*
X87480000Y-118760000D03*
X87480000Y-121300000D03*
X90020000Y-118760000D03*
X90020000Y-121300000D03*
X92560000Y-118760000D03*
X92560000Y-121300000D03*
X95100000Y-118760000D03*
X95100000Y-121300000D03*
X97640000Y-118760000D03*
X97640000Y-121300000D03*
X100180000Y-118760000D03*
X100180000Y-121300000D03*
X102720000Y-118760000D03*
X102720000Y-121300000D03*
X105260000Y-118760000D03*
X105260000Y-121300000D03*
X107800000Y-118760000D03*
D13*
X107800000Y-121300000D03*
%TD*%
D11*
%TO.C,J1*%
X206500000Y-90000000D03*
X149500000Y-90000000D03*
X206500000Y-139000000D03*
X149500000Y-139000000D03*
D12*
X164790000Y-138440000D03*
X164790000Y-135900000D03*
X167330000Y-138440000D03*
X167330000Y-135900000D03*
X169870000Y-138440000D03*
X169870000Y-135900000D03*
X172410000Y-138440000D03*
X172410000Y-135900000D03*
X174950000Y-138440000D03*
X174950000Y-135900000D03*
X177490000Y-138440000D03*
X177490000Y-135900000D03*
X180030000Y-138440000D03*
X180030000Y-135900000D03*
X182570000Y-138440000D03*
X182570000Y-135900000D03*
X185110000Y-138440000D03*
X185110000Y-135900000D03*
X187650000Y-138440000D03*
D13*
X187650000Y-135900000D03*
%TD*%
%TO.C,J3*%
G36*
G01*
X116725000Y-142025001D02*
X116725000Y-139974999D01*
G75*
G02*
X116974999Y-139725000I249999J0D01*
G01*
X119025001Y-139725000D01*
G75*
G02*
X119275000Y-139974999I0J-249999D01*
G01*
X119275000Y-142025001D01*
G75*
G02*
X119025001Y-142275000I-249999J0D01*
G01*
X116974999Y-142275000D01*
G75*
G02*
X116725000Y-142025001I0J249999D01*
G01*
G37*
%TD*%
M02*
