%TF.GenerationSoftware,KiCad,Pcbnew,(5.1.9)-1*%
%TF.CreationDate,2021-09-18T16:00:30+02:00*%
%TF.ProjectId,DDS_mount,4444535f-6d6f-4756-9e74-2e6b69636164,1.1*%
%TF.SameCoordinates,Original*%
%TF.FileFunction,Copper,L2,Bot*%
%TF.FilePolarity,Positive*%
%FSLAX46Y46*%
G04 Gerber Fmt 4.6, Leading zero omitted, Abs format (unit mm)*
G04 Created by KiCad (PCBNEW (5.1.9)-1) date 2021-09-18 16:00:30*
%MOMM*%
%LPD*%
G01*
G04 APERTURE LIST*
%TA.AperFunction,ComponentPad*%
%ADD10C,11.500000*%
%TD*%
%TA.AperFunction,ComponentPad*%
%ADD11C,5.600000*%
%TD*%
%TA.AperFunction,ComponentPad*%
%ADD12O,1.700000X1.700000*%
%TD*%
%TA.AperFunction,ComponentPad*%
%ADD13R,1.700000X1.700000*%
%TD*%
%TA.AperFunction,Conductor*%
%ADD14C,0.250000*%
%TD*%
%TA.AperFunction,Conductor*%
%ADD15C,0.254000*%
%TD*%
%TA.AperFunction,Conductor*%
%ADD16C,0.100000*%
%TD*%
G04 APERTURE END LIST*
D10*
%TO.P,J2,~*%
%TO.N,N/C*%
X157750000Y-78550000D03*
X157750000Y-65550000D03*
X68250000Y-78550000D03*
X68250000Y-65550000D03*
D11*
X159000000Y-125800000D03*
X159000000Y-56800000D03*
X67000000Y-56800000D03*
X67000000Y-125800000D03*
D12*
%TO.P,J2,20*%
%TO.N,Net-(J1-Pad20)*%
X84940000Y-118760000D03*
%TO.P,J2,19*%
%TO.N,Net-(J1-Pad19)*%
X84940000Y-121300000D03*
%TO.P,J2,18*%
%TO.N,Net-(J1-Pad18)*%
X87480000Y-118760000D03*
%TO.P,J2,17*%
%TO.N,Net-(J1-Pad17)*%
X87480000Y-121300000D03*
%TO.P,J2,16*%
%TO.N,Net-(J1-Pad16)*%
X90020000Y-118760000D03*
%TO.P,J2,15*%
%TO.N,Net-(J1-Pad15)*%
X90020000Y-121300000D03*
%TO.P,J2,14*%
%TO.N,Net-(J1-Pad14)*%
X92560000Y-118760000D03*
%TO.P,J2,13*%
%TO.N,Net-(J1-Pad13)*%
X92560000Y-121300000D03*
%TO.P,J2,12*%
%TO.N,Net-(J1-Pad12)*%
X95100000Y-118760000D03*
%TO.P,J2,11*%
%TO.N,Net-(J1-Pad11)*%
X95100000Y-121300000D03*
%TO.P,J2,10*%
%TO.N,Net-(J1-Pad10)*%
X97640000Y-118760000D03*
%TO.P,J2,9*%
%TO.N,Net-(J1-Pad9)*%
X97640000Y-121300000D03*
%TO.P,J2,8*%
%TO.N,Net-(J1-Pad8)*%
X100180000Y-118760000D03*
%TO.P,J2,7*%
%TO.N,Net-(J1-Pad7)*%
X100180000Y-121300000D03*
%TO.P,J2,6*%
%TO.N,Net-(J1-Pad6)*%
X102720000Y-118760000D03*
%TO.P,J2,5*%
%TO.N,Net-(J1-Pad5)*%
X102720000Y-121300000D03*
%TO.P,J2,4*%
%TO.N,Net-(J1-Pad4)*%
X105260000Y-118760000D03*
%TO.P,J2,3*%
%TO.N,Net-(J1-Pad3)*%
X105260000Y-121300000D03*
%TO.P,J2,2*%
%TO.N,Net-(J1-Pad2)*%
X107800000Y-118760000D03*
D13*
%TO.P,J2,1*%
%TO.N,Net-(J1-Pad1)*%
X107800000Y-121300000D03*
%TD*%
D11*
%TO.P,J1,~*%
%TO.N,N/C*%
X206500000Y-90000000D03*
X149500000Y-90000000D03*
X206500000Y-139000000D03*
X149500000Y-139000000D03*
D12*
%TO.P,J1,20*%
%TO.N,Net-(J1-Pad20)*%
X164790000Y-138440000D03*
%TO.P,J1,19*%
%TO.N,Net-(J1-Pad19)*%
X164790000Y-135900000D03*
%TO.P,J1,18*%
%TO.N,Net-(J1-Pad18)*%
X167330000Y-138440000D03*
%TO.P,J1,17*%
%TO.N,Net-(J1-Pad17)*%
X167330000Y-135900000D03*
%TO.P,J1,16*%
%TO.N,Net-(J1-Pad16)*%
X169870000Y-138440000D03*
%TO.P,J1,15*%
%TO.N,Net-(J1-Pad15)*%
X169870000Y-135900000D03*
%TO.P,J1,14*%
%TO.N,Net-(J1-Pad14)*%
X172410000Y-138440000D03*
%TO.P,J1,13*%
%TO.N,Net-(J1-Pad13)*%
X172410000Y-135900000D03*
%TO.P,J1,12*%
%TO.N,Net-(J1-Pad12)*%
X174950000Y-138440000D03*
%TO.P,J1,11*%
%TO.N,Net-(J1-Pad11)*%
X174950000Y-135900000D03*
%TO.P,J1,10*%
%TO.N,Net-(J1-Pad10)*%
X177490000Y-138440000D03*
%TO.P,J1,9*%
%TO.N,Net-(J1-Pad9)*%
X177490000Y-135900000D03*
%TO.P,J1,8*%
%TO.N,Net-(J1-Pad8)*%
X180030000Y-138440000D03*
%TO.P,J1,7*%
%TO.N,Net-(J1-Pad7)*%
X180030000Y-135900000D03*
%TO.P,J1,6*%
%TO.N,Net-(J1-Pad6)*%
X182570000Y-138440000D03*
%TO.P,J1,5*%
%TO.N,Net-(J1-Pad5)*%
X182570000Y-135900000D03*
%TO.P,J1,4*%
%TO.N,Net-(J1-Pad4)*%
X185110000Y-138440000D03*
%TO.P,J1,3*%
%TO.N,Net-(J1-Pad3)*%
X185110000Y-135900000D03*
%TO.P,J1,2*%
%TO.N,Net-(J1-Pad2)*%
X187650000Y-138440000D03*
D13*
%TO.P,J1,1*%
%TO.N,Net-(J1-Pad1)*%
X187650000Y-135900000D03*
%TD*%
%TO.P,J3,1*%
%TO.N,GND*%
%TA.AperFunction,ComponentPad*%
G36*
G01*
X116725000Y-142025001D02*
X116725000Y-139974999D01*
G75*
G02*
X116974999Y-139725000I249999J0D01*
G01*
X119025001Y-139725000D01*
G75*
G02*
X119275000Y-139974999I0J-249999D01*
G01*
X119275000Y-142025001D01*
G75*
G02*
X119025001Y-142275000I-249999J0D01*
G01*
X116974999Y-142275000D01*
G75*
G02*
X116725000Y-142025001I0J249999D01*
G01*
G37*
%TD.AperFunction*%
%TD*%
D14*
%TO.N,Net-(J1-Pad2)*%
X106435001Y-122220003D02*
X114514998Y-130300000D01*
X106435001Y-120124999D02*
X106435001Y-122220003D01*
X107800000Y-118760000D02*
X106435001Y-120124999D01*
X186474999Y-137264999D02*
X187650000Y-138440000D01*
X186474999Y-135525997D02*
X186474999Y-137264999D01*
X181249002Y-130300000D02*
X186474999Y-135525997D01*
X114514998Y-130300000D02*
X181249002Y-130300000D01*
%TO.N,Net-(J1-Pad4)*%
X104084999Y-119935001D02*
X105260000Y-118760000D01*
X104084999Y-122053999D02*
X104084999Y-119935001D01*
X112781010Y-130750010D02*
X104084999Y-122053999D01*
X180750010Y-130750010D02*
X112781010Y-130750010D01*
X183934999Y-133934999D02*
X180750010Y-130750010D01*
X183934999Y-137264999D02*
X183934999Y-133934999D01*
X185110000Y-138440000D02*
X183934999Y-137264999D01*
%TO.N,Net-(J1-Pad6)*%
X101355001Y-121674003D02*
X110881018Y-131200020D01*
X101355001Y-120124999D02*
X101355001Y-121674003D01*
X102720000Y-118760000D02*
X101355001Y-120124999D01*
X110881018Y-131200020D02*
X178500020Y-131200020D01*
X181394999Y-137264999D02*
X182570000Y-138440000D01*
X181394999Y-134094999D02*
X181394999Y-137264999D01*
X178500020Y-131200020D02*
X181394999Y-134094999D01*
%TO.N,Net-(J1-Pad8)*%
X178854999Y-132854999D02*
X177650030Y-131650030D01*
X178854999Y-137264999D02*
X178854999Y-132854999D01*
X180030000Y-138440000D02*
X178854999Y-137264999D01*
X99004999Y-119935001D02*
X100180000Y-118760000D01*
X99004999Y-121864001D02*
X99004999Y-119935001D01*
X108791028Y-131650030D02*
X99004999Y-121864001D01*
X177650030Y-131650030D02*
X108791028Y-131650030D01*
%TO.N,Net-(J1-Pad10)*%
X96464999Y-121864001D02*
X106701038Y-132100040D01*
X96464999Y-119935001D02*
X96464999Y-121864001D01*
X97640000Y-118760000D02*
X96464999Y-119935001D01*
X106701038Y-132100040D02*
X174000040Y-132100040D01*
X176314999Y-137264999D02*
X177490000Y-138440000D01*
X176314999Y-134414999D02*
X176314999Y-137264999D01*
X174000040Y-132100040D02*
X176314999Y-134414999D01*
%TO.N,Net-(J1-Pad12)*%
X173774999Y-133474999D02*
X172850050Y-132550050D01*
X173774999Y-137264999D02*
X173774999Y-133474999D01*
X174950000Y-138440000D02*
X173774999Y-137264999D01*
X172850050Y-132550050D02*
X103450050Y-132550050D01*
X93735001Y-120124999D02*
X95100000Y-118760000D01*
X93735001Y-122835001D02*
X93735001Y-120124999D01*
X103450050Y-132550050D02*
X93735001Y-122835001D01*
%TO.N,Net-(J1-Pad14)*%
X91384999Y-119935001D02*
X91384999Y-121864001D01*
X91384999Y-121864001D02*
X102521058Y-133000060D01*
X92560000Y-118760000D02*
X91384999Y-119935001D01*
X102521058Y-133000060D02*
X169400060Y-133000060D01*
X171234999Y-137264999D02*
X172410000Y-138440000D01*
X171234999Y-134834999D02*
X171234999Y-137264999D01*
X169400060Y-133000060D02*
X171234999Y-134834999D01*
%TO.N,Net-(J1-Pad16)*%
X168694999Y-134794999D02*
X167350070Y-133450070D01*
X168694999Y-137264999D02*
X168694999Y-134794999D01*
X169870000Y-138440000D02*
X168694999Y-137264999D01*
X167350070Y-133450070D02*
X99250070Y-133450070D01*
X88844999Y-119935001D02*
X90020000Y-118760000D01*
X88844999Y-123044999D02*
X88844999Y-119935001D01*
X99250070Y-133450070D02*
X88844999Y-123044999D01*
%TO.N,Net-(J1-Pad18)*%
X86304999Y-121864001D02*
X98341078Y-133900080D01*
X86304999Y-119935001D02*
X86304999Y-121864001D01*
X87480000Y-118760000D02*
X86304999Y-119935001D01*
X98341078Y-133900080D02*
X165100080Y-133900080D01*
X166154999Y-137264999D02*
X167330000Y-138440000D01*
X166154999Y-134954999D02*
X166154999Y-137264999D01*
X165100080Y-133900080D02*
X166154999Y-134954999D01*
%TO.N,Net-(J1-Pad20)*%
X83764999Y-121864001D02*
X96251088Y-134350090D01*
X83764999Y-119935001D02*
X83764999Y-121864001D01*
X84940000Y-118760000D02*
X83764999Y-119935001D01*
X160700090Y-134350090D02*
X164790000Y-138440000D01*
X96251088Y-134350090D02*
X160700090Y-134350090D01*
%TD*%
D15*
%TO.N,GND*%
X209340001Y-88067526D02*
X209168138Y-87810315D01*
X208689685Y-87331862D01*
X208127082Y-86955943D01*
X207501952Y-86697006D01*
X206838318Y-86565000D01*
X206161682Y-86565000D01*
X205498048Y-86697006D01*
X204872918Y-86955943D01*
X204310315Y-87331862D01*
X203831862Y-87810315D01*
X203455943Y-88372918D01*
X203197006Y-88998048D01*
X203065000Y-89661682D01*
X203065000Y-90338318D01*
X203197006Y-91001952D01*
X203455943Y-91627082D01*
X203831862Y-92189685D01*
X204310315Y-92668138D01*
X204872918Y-93044057D01*
X205498048Y-93302994D01*
X206161682Y-93435000D01*
X206838318Y-93435000D01*
X207501952Y-93302994D01*
X208127082Y-93044057D01*
X208689685Y-92668138D01*
X209168138Y-92189685D01*
X209340001Y-91932474D01*
X209340001Y-103340000D01*
X192967581Y-103340000D01*
X192939326Y-103342783D01*
X192933199Y-103342740D01*
X192924028Y-103343640D01*
X192729931Y-103364041D01*
X192671348Y-103376066D01*
X192612577Y-103387277D01*
X192603755Y-103389941D01*
X192417317Y-103447653D01*
X192362162Y-103470838D01*
X192306709Y-103493242D01*
X192298573Y-103497568D01*
X192126896Y-103590393D01*
X192077278Y-103623861D01*
X192027247Y-103656600D01*
X192020106Y-103662424D01*
X191869728Y-103786828D01*
X191827589Y-103829263D01*
X191784839Y-103871126D01*
X191778966Y-103878227D01*
X191655616Y-104029469D01*
X191622534Y-104079262D01*
X191588716Y-104128651D01*
X191584333Y-104136757D01*
X191492708Y-104309079D01*
X191469909Y-104364394D01*
X191446348Y-104419366D01*
X191443623Y-104428169D01*
X191387214Y-104615005D01*
X191375594Y-104673693D01*
X191363158Y-104732196D01*
X191362195Y-104741361D01*
X191343150Y-104935595D01*
X191340000Y-104967582D01*
X191340001Y-118032419D01*
X191342783Y-118060664D01*
X191342740Y-118066801D01*
X191343640Y-118075972D01*
X191364041Y-118270069D01*
X191376068Y-118328658D01*
X191387277Y-118387423D01*
X191389941Y-118396245D01*
X191447653Y-118582683D01*
X191470838Y-118637838D01*
X191493242Y-118693291D01*
X191497568Y-118701427D01*
X191590393Y-118873104D01*
X191623846Y-118922699D01*
X191656600Y-118972753D01*
X191662424Y-118979894D01*
X191786828Y-119130272D01*
X191829263Y-119172411D01*
X191871126Y-119215161D01*
X191878227Y-119221034D01*
X192029469Y-119344384D01*
X192079277Y-119377477D01*
X192128651Y-119411284D01*
X192136757Y-119415667D01*
X192309080Y-119507292D01*
X192364392Y-119530090D01*
X192419366Y-119553652D01*
X192428169Y-119556377D01*
X192615006Y-119612786D01*
X192673686Y-119624405D01*
X192732196Y-119636842D01*
X192741361Y-119637805D01*
X192935594Y-119656850D01*
X192935598Y-119656850D01*
X192967581Y-119660000D01*
X209340000Y-119660000D01*
X209340001Y-137067526D01*
X209168138Y-136810315D01*
X208689685Y-136331862D01*
X208127082Y-135955943D01*
X207501952Y-135697006D01*
X206838318Y-135565000D01*
X206161682Y-135565000D01*
X205498048Y-135697006D01*
X204872918Y-135955943D01*
X204310315Y-136331862D01*
X203831862Y-136810315D01*
X203455943Y-137372918D01*
X203197006Y-137998048D01*
X203065000Y-138661682D01*
X203065000Y-139338318D01*
X203197006Y-140001952D01*
X203455943Y-140627082D01*
X203831862Y-141189685D01*
X204310315Y-141668138D01*
X204872918Y-142044057D01*
X205498048Y-142302994D01*
X206161682Y-142435000D01*
X206838318Y-142435000D01*
X207501952Y-142302994D01*
X208127082Y-142044057D01*
X208689685Y-141668138D01*
X209168138Y-141189685D01*
X209340001Y-140932474D01*
X209340001Y-149340000D01*
X144660000Y-149340000D01*
X144660000Y-145067581D01*
X144657217Y-145039326D01*
X144657260Y-145033199D01*
X144656360Y-145024028D01*
X144635959Y-144829931D01*
X144623934Y-144771348D01*
X144612723Y-144712577D01*
X144610059Y-144703755D01*
X144552347Y-144517317D01*
X144529162Y-144462162D01*
X144506758Y-144406709D01*
X144502432Y-144398573D01*
X144409607Y-144226896D01*
X144376139Y-144177278D01*
X144343400Y-144127247D01*
X144337576Y-144120106D01*
X144213172Y-143969728D01*
X144170737Y-143927589D01*
X144128874Y-143884839D01*
X144121773Y-143878966D01*
X143970531Y-143755616D01*
X143920738Y-143722534D01*
X143871349Y-143688716D01*
X143863243Y-143684333D01*
X143690921Y-143592708D01*
X143635606Y-143569909D01*
X143580634Y-143546348D01*
X143571831Y-143543623D01*
X143384995Y-143487214D01*
X143326307Y-143475594D01*
X143267804Y-143463158D01*
X143258639Y-143462195D01*
X143064405Y-143443150D01*
X143064402Y-143443150D01*
X143032419Y-143440000D01*
X127967581Y-143440000D01*
X127939326Y-143442783D01*
X127933199Y-143442740D01*
X127924028Y-143443640D01*
X127729931Y-143464041D01*
X127671348Y-143476066D01*
X127612577Y-143487277D01*
X127603755Y-143489941D01*
X127417317Y-143547653D01*
X127362162Y-143570838D01*
X127306709Y-143593242D01*
X127298573Y-143597568D01*
X127126896Y-143690393D01*
X127077278Y-143723861D01*
X127027247Y-143756600D01*
X127020106Y-143762424D01*
X126869728Y-143886828D01*
X126827589Y-143929263D01*
X126784839Y-143971126D01*
X126778966Y-143978227D01*
X126655616Y-144129469D01*
X126622534Y-144179262D01*
X126588716Y-144228651D01*
X126584333Y-144236757D01*
X126492708Y-144409079D01*
X126469909Y-144464394D01*
X126446348Y-144519366D01*
X126443623Y-144528169D01*
X126387214Y-144715005D01*
X126375594Y-144773693D01*
X126363158Y-144832196D01*
X126362195Y-144841361D01*
X126343150Y-145035595D01*
X126340000Y-145067582D01*
X126340001Y-149340000D01*
X50660000Y-149340000D01*
X50660000Y-142275000D01*
X116086928Y-142275000D01*
X116099188Y-142399482D01*
X116135498Y-142519180D01*
X116194463Y-142629494D01*
X116273815Y-142726185D01*
X116370506Y-142805537D01*
X116480820Y-142864502D01*
X116600518Y-142900812D01*
X116725000Y-142913072D01*
X117714250Y-142910000D01*
X117873000Y-142751250D01*
X117873000Y-141127000D01*
X118127000Y-141127000D01*
X118127000Y-142751250D01*
X118285750Y-142910000D01*
X119275000Y-142913072D01*
X119399482Y-142900812D01*
X119519180Y-142864502D01*
X119629494Y-142805537D01*
X119726185Y-142726185D01*
X119805537Y-142629494D01*
X119864502Y-142519180D01*
X119900812Y-142399482D01*
X119913072Y-142275000D01*
X119910000Y-141285750D01*
X119751250Y-141127000D01*
X118127000Y-141127000D01*
X117873000Y-141127000D01*
X116248750Y-141127000D01*
X116090000Y-141285750D01*
X116086928Y-142275000D01*
X50660000Y-142275000D01*
X50660000Y-139725000D01*
X116086928Y-139725000D01*
X116090000Y-140714250D01*
X116248750Y-140873000D01*
X117873000Y-140873000D01*
X117873000Y-139248750D01*
X118127000Y-139248750D01*
X118127000Y-140873000D01*
X119751250Y-140873000D01*
X119910000Y-140714250D01*
X119913072Y-139725000D01*
X119900812Y-139600518D01*
X119864502Y-139480820D01*
X119805537Y-139370506D01*
X119726185Y-139273815D01*
X119629494Y-139194463D01*
X119519180Y-139135498D01*
X119399482Y-139099188D01*
X119275000Y-139086928D01*
X118285750Y-139090000D01*
X118127000Y-139248750D01*
X117873000Y-139248750D01*
X117714250Y-139090000D01*
X116725000Y-139086928D01*
X116600518Y-139099188D01*
X116480820Y-139135498D01*
X116370506Y-139194463D01*
X116273815Y-139273815D01*
X116194463Y-139370506D01*
X116135498Y-139480820D01*
X116099188Y-139600518D01*
X116086928Y-139725000D01*
X50660000Y-139725000D01*
X50660000Y-138661682D01*
X146065000Y-138661682D01*
X146065000Y-139338318D01*
X146197006Y-140001952D01*
X146455943Y-140627082D01*
X146831862Y-141189685D01*
X147310315Y-141668138D01*
X147872918Y-142044057D01*
X148498048Y-142302994D01*
X149161682Y-142435000D01*
X149838318Y-142435000D01*
X150501952Y-142302994D01*
X151127082Y-142044057D01*
X151689685Y-141668138D01*
X152168138Y-141189685D01*
X152544057Y-140627082D01*
X152802994Y-140001952D01*
X152935000Y-139338318D01*
X152935000Y-138661682D01*
X152802994Y-137998048D01*
X152544057Y-137372918D01*
X152168138Y-136810315D01*
X151689685Y-136331862D01*
X151127082Y-135955943D01*
X150501952Y-135697006D01*
X149838318Y-135565000D01*
X149161682Y-135565000D01*
X148498048Y-135697006D01*
X147872918Y-135955943D01*
X147310315Y-136331862D01*
X146831862Y-136810315D01*
X146455943Y-137372918D01*
X146197006Y-137998048D01*
X146065000Y-138661682D01*
X50660000Y-138661682D01*
X50660000Y-125461682D01*
X63565000Y-125461682D01*
X63565000Y-126138318D01*
X63697006Y-126801952D01*
X63955943Y-127427082D01*
X64331862Y-127989685D01*
X64810315Y-128468138D01*
X65372918Y-128844057D01*
X65998048Y-129102994D01*
X66661682Y-129235000D01*
X67338318Y-129235000D01*
X68001952Y-129102994D01*
X68627082Y-128844057D01*
X69189685Y-128468138D01*
X69668138Y-127989685D01*
X70044057Y-127427082D01*
X70302994Y-126801952D01*
X70435000Y-126138318D01*
X70435000Y-125461682D01*
X70302994Y-124798048D01*
X70044057Y-124172918D01*
X69668138Y-123610315D01*
X69189685Y-123131862D01*
X68627082Y-122755943D01*
X68001952Y-122497006D01*
X67338318Y-122365000D01*
X66661682Y-122365000D01*
X65998048Y-122497006D01*
X65372918Y-122755943D01*
X64810315Y-123131862D01*
X64331862Y-123610315D01*
X63955943Y-124172918D01*
X63697006Y-124798048D01*
X63565000Y-125461682D01*
X50660000Y-125461682D01*
X50660000Y-119935001D01*
X83001323Y-119935001D01*
X83004999Y-119972324D01*
X83005000Y-121826669D01*
X83001323Y-121864001D01*
X83005000Y-121901333D01*
X83005000Y-121901334D01*
X83007603Y-121927757D01*
X83015997Y-122012986D01*
X83059453Y-122156247D01*
X83130025Y-122288277D01*
X83201200Y-122375003D01*
X83224999Y-122404002D01*
X83253997Y-122427800D01*
X95687293Y-134861098D01*
X95711087Y-134890091D01*
X95740080Y-134913885D01*
X95740084Y-134913889D01*
X95810773Y-134971901D01*
X95826812Y-134985064D01*
X95958841Y-135055636D01*
X96102102Y-135099093D01*
X96213755Y-135110090D01*
X96213764Y-135110090D01*
X96251087Y-135113766D01*
X96288410Y-135110090D01*
X160385289Y-135110090D01*
X163348790Y-138073592D01*
X163305000Y-138293740D01*
X163305000Y-138586260D01*
X163362068Y-138873158D01*
X163474010Y-139143411D01*
X163636525Y-139386632D01*
X163843368Y-139593475D01*
X164086589Y-139755990D01*
X164356842Y-139867932D01*
X164643740Y-139925000D01*
X164936260Y-139925000D01*
X165223158Y-139867932D01*
X165493411Y-139755990D01*
X165736632Y-139593475D01*
X165943475Y-139386632D01*
X166060000Y-139212240D01*
X166176525Y-139386632D01*
X166383368Y-139593475D01*
X166626589Y-139755990D01*
X166896842Y-139867932D01*
X167183740Y-139925000D01*
X167476260Y-139925000D01*
X167763158Y-139867932D01*
X168033411Y-139755990D01*
X168276632Y-139593475D01*
X168483475Y-139386632D01*
X168600000Y-139212240D01*
X168716525Y-139386632D01*
X168923368Y-139593475D01*
X169166589Y-139755990D01*
X169436842Y-139867932D01*
X169723740Y-139925000D01*
X170016260Y-139925000D01*
X170303158Y-139867932D01*
X170573411Y-139755990D01*
X170816632Y-139593475D01*
X171023475Y-139386632D01*
X171140000Y-139212240D01*
X171256525Y-139386632D01*
X171463368Y-139593475D01*
X171706589Y-139755990D01*
X171976842Y-139867932D01*
X172263740Y-139925000D01*
X172556260Y-139925000D01*
X172843158Y-139867932D01*
X173113411Y-139755990D01*
X173356632Y-139593475D01*
X173563475Y-139386632D01*
X173680000Y-139212240D01*
X173796525Y-139386632D01*
X174003368Y-139593475D01*
X174246589Y-139755990D01*
X174516842Y-139867932D01*
X174803740Y-139925000D01*
X175096260Y-139925000D01*
X175383158Y-139867932D01*
X175653411Y-139755990D01*
X175896632Y-139593475D01*
X176103475Y-139386632D01*
X176220000Y-139212240D01*
X176336525Y-139386632D01*
X176543368Y-139593475D01*
X176786589Y-139755990D01*
X177056842Y-139867932D01*
X177343740Y-139925000D01*
X177636260Y-139925000D01*
X177923158Y-139867932D01*
X178193411Y-139755990D01*
X178436632Y-139593475D01*
X178643475Y-139386632D01*
X178760000Y-139212240D01*
X178876525Y-139386632D01*
X179083368Y-139593475D01*
X179326589Y-139755990D01*
X179596842Y-139867932D01*
X179883740Y-139925000D01*
X180176260Y-139925000D01*
X180463158Y-139867932D01*
X180733411Y-139755990D01*
X180976632Y-139593475D01*
X181183475Y-139386632D01*
X181300000Y-139212240D01*
X181416525Y-139386632D01*
X181623368Y-139593475D01*
X181866589Y-139755990D01*
X182136842Y-139867932D01*
X182423740Y-139925000D01*
X182716260Y-139925000D01*
X183003158Y-139867932D01*
X183273411Y-139755990D01*
X183516632Y-139593475D01*
X183723475Y-139386632D01*
X183840000Y-139212240D01*
X183956525Y-139386632D01*
X184163368Y-139593475D01*
X184406589Y-139755990D01*
X184676842Y-139867932D01*
X184963740Y-139925000D01*
X185256260Y-139925000D01*
X185543158Y-139867932D01*
X185813411Y-139755990D01*
X186056632Y-139593475D01*
X186263475Y-139386632D01*
X186380000Y-139212240D01*
X186496525Y-139386632D01*
X186703368Y-139593475D01*
X186946589Y-139755990D01*
X187216842Y-139867932D01*
X187503740Y-139925000D01*
X187796260Y-139925000D01*
X188083158Y-139867932D01*
X188353411Y-139755990D01*
X188596632Y-139593475D01*
X188803475Y-139386632D01*
X188965990Y-139143411D01*
X189077932Y-138873158D01*
X189135000Y-138586260D01*
X189135000Y-138293740D01*
X189077932Y-138006842D01*
X188965990Y-137736589D01*
X188803475Y-137493368D01*
X188671620Y-137361513D01*
X188744180Y-137339502D01*
X188854494Y-137280537D01*
X188951185Y-137201185D01*
X189030537Y-137104494D01*
X189089502Y-136994180D01*
X189125812Y-136874482D01*
X189138072Y-136750000D01*
X189138072Y-135050000D01*
X189125812Y-134925518D01*
X189089502Y-134805820D01*
X189030537Y-134695506D01*
X188951185Y-134598815D01*
X188854494Y-134519463D01*
X188744180Y-134460498D01*
X188624482Y-134424188D01*
X188500000Y-134411928D01*
X186800000Y-134411928D01*
X186675518Y-134424188D01*
X186555820Y-134460498D01*
X186509214Y-134485410D01*
X181812806Y-129789003D01*
X181789003Y-129759999D01*
X181673278Y-129665026D01*
X181541249Y-129594454D01*
X181397988Y-129550997D01*
X181286335Y-129540000D01*
X181286324Y-129540000D01*
X181249002Y-129536324D01*
X181211680Y-129540000D01*
X114829800Y-129540000D01*
X110751482Y-125461682D01*
X155565000Y-125461682D01*
X155565000Y-126138318D01*
X155697006Y-126801952D01*
X155955943Y-127427082D01*
X156331862Y-127989685D01*
X156810315Y-128468138D01*
X157372918Y-128844057D01*
X157998048Y-129102994D01*
X158661682Y-129235000D01*
X159338318Y-129235000D01*
X160001952Y-129102994D01*
X160627082Y-128844057D01*
X161189685Y-128468138D01*
X161668138Y-127989685D01*
X162044057Y-127427082D01*
X162302994Y-126801952D01*
X162435000Y-126138318D01*
X162435000Y-125461682D01*
X162302994Y-124798048D01*
X162044057Y-124172918D01*
X161668138Y-123610315D01*
X161189685Y-123131862D01*
X160627082Y-122755943D01*
X160001952Y-122497006D01*
X159338318Y-122365000D01*
X158661682Y-122365000D01*
X157998048Y-122497006D01*
X157372918Y-122755943D01*
X156810315Y-123131862D01*
X156331862Y-123610315D01*
X155955943Y-124172918D01*
X155697006Y-124798048D01*
X155565000Y-125461682D01*
X110751482Y-125461682D01*
X108077871Y-122788072D01*
X108650000Y-122788072D01*
X108774482Y-122775812D01*
X108894180Y-122739502D01*
X109004494Y-122680537D01*
X109101185Y-122601185D01*
X109180537Y-122504494D01*
X109239502Y-122394180D01*
X109275812Y-122274482D01*
X109288072Y-122150000D01*
X109288072Y-120450000D01*
X109275812Y-120325518D01*
X109239502Y-120205820D01*
X109180537Y-120095506D01*
X109101185Y-119998815D01*
X109004494Y-119919463D01*
X108894180Y-119860498D01*
X108821620Y-119838487D01*
X108953475Y-119706632D01*
X109115990Y-119463411D01*
X109227932Y-119193158D01*
X109285000Y-118906260D01*
X109285000Y-118613740D01*
X109227932Y-118326842D01*
X109115990Y-118056589D01*
X108953475Y-117813368D01*
X108746632Y-117606525D01*
X108503411Y-117444010D01*
X108233158Y-117332068D01*
X107946260Y-117275000D01*
X107653740Y-117275000D01*
X107366842Y-117332068D01*
X107096589Y-117444010D01*
X106853368Y-117606525D01*
X106646525Y-117813368D01*
X106530000Y-117987760D01*
X106413475Y-117813368D01*
X106206632Y-117606525D01*
X105963411Y-117444010D01*
X105693158Y-117332068D01*
X105406260Y-117275000D01*
X105113740Y-117275000D01*
X104826842Y-117332068D01*
X104556589Y-117444010D01*
X104313368Y-117606525D01*
X104106525Y-117813368D01*
X103990000Y-117987760D01*
X103873475Y-117813368D01*
X103666632Y-117606525D01*
X103423411Y-117444010D01*
X103153158Y-117332068D01*
X102866260Y-117275000D01*
X102573740Y-117275000D01*
X102286842Y-117332068D01*
X102016589Y-117444010D01*
X101773368Y-117606525D01*
X101566525Y-117813368D01*
X101450000Y-117987760D01*
X101333475Y-117813368D01*
X101126632Y-117606525D01*
X100883411Y-117444010D01*
X100613158Y-117332068D01*
X100326260Y-117275000D01*
X100033740Y-117275000D01*
X99746842Y-117332068D01*
X99476589Y-117444010D01*
X99233368Y-117606525D01*
X99026525Y-117813368D01*
X98910000Y-117987760D01*
X98793475Y-117813368D01*
X98586632Y-117606525D01*
X98343411Y-117444010D01*
X98073158Y-117332068D01*
X97786260Y-117275000D01*
X97493740Y-117275000D01*
X97206842Y-117332068D01*
X96936589Y-117444010D01*
X96693368Y-117606525D01*
X96486525Y-117813368D01*
X96370000Y-117987760D01*
X96253475Y-117813368D01*
X96046632Y-117606525D01*
X95803411Y-117444010D01*
X95533158Y-117332068D01*
X95246260Y-117275000D01*
X94953740Y-117275000D01*
X94666842Y-117332068D01*
X94396589Y-117444010D01*
X94153368Y-117606525D01*
X93946525Y-117813368D01*
X93830000Y-117987760D01*
X93713475Y-117813368D01*
X93506632Y-117606525D01*
X93263411Y-117444010D01*
X92993158Y-117332068D01*
X92706260Y-117275000D01*
X92413740Y-117275000D01*
X92126842Y-117332068D01*
X91856589Y-117444010D01*
X91613368Y-117606525D01*
X91406525Y-117813368D01*
X91290000Y-117987760D01*
X91173475Y-117813368D01*
X90966632Y-117606525D01*
X90723411Y-117444010D01*
X90453158Y-117332068D01*
X90166260Y-117275000D01*
X89873740Y-117275000D01*
X89586842Y-117332068D01*
X89316589Y-117444010D01*
X89073368Y-117606525D01*
X88866525Y-117813368D01*
X88750000Y-117987760D01*
X88633475Y-117813368D01*
X88426632Y-117606525D01*
X88183411Y-117444010D01*
X87913158Y-117332068D01*
X87626260Y-117275000D01*
X87333740Y-117275000D01*
X87046842Y-117332068D01*
X86776589Y-117444010D01*
X86533368Y-117606525D01*
X86326525Y-117813368D01*
X86210000Y-117987760D01*
X86093475Y-117813368D01*
X85886632Y-117606525D01*
X85643411Y-117444010D01*
X85373158Y-117332068D01*
X85086260Y-117275000D01*
X84793740Y-117275000D01*
X84506842Y-117332068D01*
X84236589Y-117444010D01*
X83993368Y-117606525D01*
X83786525Y-117813368D01*
X83624010Y-118056589D01*
X83512068Y-118326842D01*
X83455000Y-118613740D01*
X83455000Y-118906260D01*
X83498791Y-119126408D01*
X83254002Y-119371197D01*
X83224998Y-119395000D01*
X83169870Y-119462175D01*
X83130025Y-119510725D01*
X83075472Y-119612786D01*
X83059453Y-119642755D01*
X83015996Y-119786016D01*
X83004999Y-119897669D01*
X83004999Y-119897679D01*
X83001323Y-119935001D01*
X50660000Y-119935001D01*
X50660000Y-89661682D01*
X146065000Y-89661682D01*
X146065000Y-90338318D01*
X146197006Y-91001952D01*
X146455943Y-91627082D01*
X146831862Y-92189685D01*
X147310315Y-92668138D01*
X147872918Y-93044057D01*
X148498048Y-93302994D01*
X149161682Y-93435000D01*
X149838318Y-93435000D01*
X150501952Y-93302994D01*
X151127082Y-93044057D01*
X151689685Y-92668138D01*
X152168138Y-92189685D01*
X152544057Y-91627082D01*
X152802994Y-91001952D01*
X152935000Y-90338318D01*
X152935000Y-89661682D01*
X152802994Y-88998048D01*
X152544057Y-88372918D01*
X152168138Y-87810315D01*
X151689685Y-87331862D01*
X151127082Y-86955943D01*
X150501952Y-86697006D01*
X149838318Y-86565000D01*
X149161682Y-86565000D01*
X148498048Y-86697006D01*
X147872918Y-86955943D01*
X147310315Y-87331862D01*
X146831862Y-87810315D01*
X146455943Y-88372918D01*
X146197006Y-88998048D01*
X146065000Y-89661682D01*
X50660000Y-89661682D01*
X50660000Y-77921132D01*
X61865000Y-77921132D01*
X61865000Y-79178868D01*
X62110372Y-80412436D01*
X62591687Y-81574431D01*
X63290447Y-82620200D01*
X64179800Y-83509553D01*
X65225569Y-84208313D01*
X66387564Y-84689628D01*
X67621132Y-84935000D01*
X68878868Y-84935000D01*
X70112436Y-84689628D01*
X71274431Y-84208313D01*
X72320200Y-83509553D01*
X73209553Y-82620200D01*
X73908313Y-81574431D01*
X74389628Y-80412436D01*
X74635000Y-79178868D01*
X74635000Y-77921132D01*
X151365000Y-77921132D01*
X151365000Y-79178868D01*
X151610372Y-80412436D01*
X152091687Y-81574431D01*
X152790447Y-82620200D01*
X153679800Y-83509553D01*
X154725569Y-84208313D01*
X155887564Y-84689628D01*
X157121132Y-84935000D01*
X158378868Y-84935000D01*
X159612436Y-84689628D01*
X160774431Y-84208313D01*
X161820200Y-83509553D01*
X162709553Y-82620200D01*
X163408313Y-81574431D01*
X163889628Y-80412436D01*
X164135000Y-79178868D01*
X164135000Y-77921132D01*
X163889628Y-76687564D01*
X163408313Y-75525569D01*
X162709553Y-74479800D01*
X161820200Y-73590447D01*
X160774431Y-72891687D01*
X159612436Y-72410372D01*
X158378868Y-72165000D01*
X157121132Y-72165000D01*
X155887564Y-72410372D01*
X154725569Y-72891687D01*
X153679800Y-73590447D01*
X152790447Y-74479800D01*
X152091687Y-75525569D01*
X151610372Y-76687564D01*
X151365000Y-77921132D01*
X74635000Y-77921132D01*
X74389628Y-76687564D01*
X73908313Y-75525569D01*
X73209553Y-74479800D01*
X72320200Y-73590447D01*
X71274431Y-72891687D01*
X70112436Y-72410372D01*
X68878868Y-72165000D01*
X67621132Y-72165000D01*
X66387564Y-72410372D01*
X65225569Y-72891687D01*
X64179800Y-73590447D01*
X63290447Y-74479800D01*
X62591687Y-75525569D01*
X62110372Y-76687564D01*
X61865000Y-77921132D01*
X50660000Y-77921132D01*
X50660000Y-64921132D01*
X61865000Y-64921132D01*
X61865000Y-66178868D01*
X62110372Y-67412436D01*
X62591687Y-68574431D01*
X63290447Y-69620200D01*
X64179800Y-70509553D01*
X65225569Y-71208313D01*
X66387564Y-71689628D01*
X67621132Y-71935000D01*
X68878868Y-71935000D01*
X70112436Y-71689628D01*
X71274431Y-71208313D01*
X72320200Y-70509553D01*
X73209553Y-69620200D01*
X73908313Y-68574431D01*
X74389628Y-67412436D01*
X74635000Y-66178868D01*
X74635000Y-64921132D01*
X151365000Y-64921132D01*
X151365000Y-66178868D01*
X151610372Y-67412436D01*
X152091687Y-68574431D01*
X152790447Y-69620200D01*
X153679800Y-70509553D01*
X154725569Y-71208313D01*
X155887564Y-71689628D01*
X157121132Y-71935000D01*
X158378868Y-71935000D01*
X159612436Y-71689628D01*
X160774431Y-71208313D01*
X161820200Y-70509553D01*
X162709553Y-69620200D01*
X163408313Y-68574431D01*
X163889628Y-67412436D01*
X164135000Y-66178868D01*
X164135000Y-64921132D01*
X163889628Y-63687564D01*
X163408313Y-62525569D01*
X162709553Y-61479800D01*
X161820200Y-60590447D01*
X160774431Y-59891687D01*
X160639466Y-59835782D01*
X161189685Y-59468138D01*
X161668138Y-58989685D01*
X162044057Y-58427082D01*
X162302994Y-57801952D01*
X162435000Y-57138318D01*
X162435000Y-56461682D01*
X162302994Y-55798048D01*
X162044057Y-55172918D01*
X161668138Y-54610315D01*
X161189685Y-54131862D01*
X160627082Y-53755943D01*
X160001952Y-53497006D01*
X159338318Y-53365000D01*
X158661682Y-53365000D01*
X157998048Y-53497006D01*
X157372918Y-53755943D01*
X156810315Y-54131862D01*
X156331862Y-54610315D01*
X155955943Y-55172918D01*
X155697006Y-55798048D01*
X155565000Y-56461682D01*
X155565000Y-57138318D01*
X155697006Y-57801952D01*
X155955943Y-58427082D01*
X156331862Y-58989685D01*
X156609039Y-59266862D01*
X155887564Y-59410372D01*
X154725569Y-59891687D01*
X153679800Y-60590447D01*
X152790447Y-61479800D01*
X152091687Y-62525569D01*
X151610372Y-63687564D01*
X151365000Y-64921132D01*
X74635000Y-64921132D01*
X74389628Y-63687564D01*
X73908313Y-62525569D01*
X73209553Y-61479800D01*
X72320200Y-60590447D01*
X71274431Y-59891687D01*
X70112436Y-59410372D01*
X69390961Y-59266862D01*
X69668138Y-58989685D01*
X70044057Y-58427082D01*
X70302994Y-57801952D01*
X70435000Y-57138318D01*
X70435000Y-56461682D01*
X70302994Y-55798048D01*
X70044057Y-55172918D01*
X69668138Y-54610315D01*
X69189685Y-54131862D01*
X68627082Y-53755943D01*
X68001952Y-53497006D01*
X67338318Y-53365000D01*
X66661682Y-53365000D01*
X65998048Y-53497006D01*
X65372918Y-53755943D01*
X64810315Y-54131862D01*
X64331862Y-54610315D01*
X63955943Y-55172918D01*
X63697006Y-55798048D01*
X63565000Y-56461682D01*
X63565000Y-57138318D01*
X63697006Y-57801952D01*
X63955943Y-58427082D01*
X64331862Y-58989685D01*
X64810315Y-59468138D01*
X65360534Y-59835782D01*
X65225569Y-59891687D01*
X64179800Y-60590447D01*
X63290447Y-61479800D01*
X62591687Y-62525569D01*
X62110372Y-63687564D01*
X61865000Y-64921132D01*
X50660000Y-64921132D01*
X50660000Y-50660000D01*
X209340000Y-50660000D01*
X209340001Y-88067526D01*
%TA.AperFunction,Conductor*%
D16*
G36*
X209340001Y-88067526D02*
G01*
X209168138Y-87810315D01*
X208689685Y-87331862D01*
X208127082Y-86955943D01*
X207501952Y-86697006D01*
X206838318Y-86565000D01*
X206161682Y-86565000D01*
X205498048Y-86697006D01*
X204872918Y-86955943D01*
X204310315Y-87331862D01*
X203831862Y-87810315D01*
X203455943Y-88372918D01*
X203197006Y-88998048D01*
X203065000Y-89661682D01*
X203065000Y-90338318D01*
X203197006Y-91001952D01*
X203455943Y-91627082D01*
X203831862Y-92189685D01*
X204310315Y-92668138D01*
X204872918Y-93044057D01*
X205498048Y-93302994D01*
X206161682Y-93435000D01*
X206838318Y-93435000D01*
X207501952Y-93302994D01*
X208127082Y-93044057D01*
X208689685Y-92668138D01*
X209168138Y-92189685D01*
X209340001Y-91932474D01*
X209340001Y-103340000D01*
X192967581Y-103340000D01*
X192939326Y-103342783D01*
X192933199Y-103342740D01*
X192924028Y-103343640D01*
X192729931Y-103364041D01*
X192671348Y-103376066D01*
X192612577Y-103387277D01*
X192603755Y-103389941D01*
X192417317Y-103447653D01*
X192362162Y-103470838D01*
X192306709Y-103493242D01*
X192298573Y-103497568D01*
X192126896Y-103590393D01*
X192077278Y-103623861D01*
X192027247Y-103656600D01*
X192020106Y-103662424D01*
X191869728Y-103786828D01*
X191827589Y-103829263D01*
X191784839Y-103871126D01*
X191778966Y-103878227D01*
X191655616Y-104029469D01*
X191622534Y-104079262D01*
X191588716Y-104128651D01*
X191584333Y-104136757D01*
X191492708Y-104309079D01*
X191469909Y-104364394D01*
X191446348Y-104419366D01*
X191443623Y-104428169D01*
X191387214Y-104615005D01*
X191375594Y-104673693D01*
X191363158Y-104732196D01*
X191362195Y-104741361D01*
X191343150Y-104935595D01*
X191340000Y-104967582D01*
X191340001Y-118032419D01*
X191342783Y-118060664D01*
X191342740Y-118066801D01*
X191343640Y-118075972D01*
X191364041Y-118270069D01*
X191376068Y-118328658D01*
X191387277Y-118387423D01*
X191389941Y-118396245D01*
X191447653Y-118582683D01*
X191470838Y-118637838D01*
X191493242Y-118693291D01*
X191497568Y-118701427D01*
X191590393Y-118873104D01*
X191623846Y-118922699D01*
X191656600Y-118972753D01*
X191662424Y-118979894D01*
X191786828Y-119130272D01*
X191829263Y-119172411D01*
X191871126Y-119215161D01*
X191878227Y-119221034D01*
X192029469Y-119344384D01*
X192079277Y-119377477D01*
X192128651Y-119411284D01*
X192136757Y-119415667D01*
X192309080Y-119507292D01*
X192364392Y-119530090D01*
X192419366Y-119553652D01*
X192428169Y-119556377D01*
X192615006Y-119612786D01*
X192673686Y-119624405D01*
X192732196Y-119636842D01*
X192741361Y-119637805D01*
X192935594Y-119656850D01*
X192935598Y-119656850D01*
X192967581Y-119660000D01*
X209340000Y-119660000D01*
X209340001Y-137067526D01*
X209168138Y-136810315D01*
X208689685Y-136331862D01*
X208127082Y-135955943D01*
X207501952Y-135697006D01*
X206838318Y-135565000D01*
X206161682Y-135565000D01*
X205498048Y-135697006D01*
X204872918Y-135955943D01*
X204310315Y-136331862D01*
X203831862Y-136810315D01*
X203455943Y-137372918D01*
X203197006Y-137998048D01*
X203065000Y-138661682D01*
X203065000Y-139338318D01*
X203197006Y-140001952D01*
X203455943Y-140627082D01*
X203831862Y-141189685D01*
X204310315Y-141668138D01*
X204872918Y-142044057D01*
X205498048Y-142302994D01*
X206161682Y-142435000D01*
X206838318Y-142435000D01*
X207501952Y-142302994D01*
X208127082Y-142044057D01*
X208689685Y-141668138D01*
X209168138Y-141189685D01*
X209340001Y-140932474D01*
X209340001Y-149340000D01*
X144660000Y-149340000D01*
X144660000Y-145067581D01*
X144657217Y-145039326D01*
X144657260Y-145033199D01*
X144656360Y-145024028D01*
X144635959Y-144829931D01*
X144623934Y-144771348D01*
X144612723Y-144712577D01*
X144610059Y-144703755D01*
X144552347Y-144517317D01*
X144529162Y-144462162D01*
X144506758Y-144406709D01*
X144502432Y-144398573D01*
X144409607Y-144226896D01*
X144376139Y-144177278D01*
X144343400Y-144127247D01*
X144337576Y-144120106D01*
X144213172Y-143969728D01*
X144170737Y-143927589D01*
X144128874Y-143884839D01*
X144121773Y-143878966D01*
X143970531Y-143755616D01*
X143920738Y-143722534D01*
X143871349Y-143688716D01*
X143863243Y-143684333D01*
X143690921Y-143592708D01*
X143635606Y-143569909D01*
X143580634Y-143546348D01*
X143571831Y-143543623D01*
X143384995Y-143487214D01*
X143326307Y-143475594D01*
X143267804Y-143463158D01*
X143258639Y-143462195D01*
X143064405Y-143443150D01*
X143064402Y-143443150D01*
X143032419Y-143440000D01*
X127967581Y-143440000D01*
X127939326Y-143442783D01*
X127933199Y-143442740D01*
X127924028Y-143443640D01*
X127729931Y-143464041D01*
X127671348Y-143476066D01*
X127612577Y-143487277D01*
X127603755Y-143489941D01*
X127417317Y-143547653D01*
X127362162Y-143570838D01*
X127306709Y-143593242D01*
X127298573Y-143597568D01*
X127126896Y-143690393D01*
X127077278Y-143723861D01*
X127027247Y-143756600D01*
X127020106Y-143762424D01*
X126869728Y-143886828D01*
X126827589Y-143929263D01*
X126784839Y-143971126D01*
X126778966Y-143978227D01*
X126655616Y-144129469D01*
X126622534Y-144179262D01*
X126588716Y-144228651D01*
X126584333Y-144236757D01*
X126492708Y-144409079D01*
X126469909Y-144464394D01*
X126446348Y-144519366D01*
X126443623Y-144528169D01*
X126387214Y-144715005D01*
X126375594Y-144773693D01*
X126363158Y-144832196D01*
X126362195Y-144841361D01*
X126343150Y-145035595D01*
X126340000Y-145067582D01*
X126340001Y-149340000D01*
X50660000Y-149340000D01*
X50660000Y-142275000D01*
X116086928Y-142275000D01*
X116099188Y-142399482D01*
X116135498Y-142519180D01*
X116194463Y-142629494D01*
X116273815Y-142726185D01*
X116370506Y-142805537D01*
X116480820Y-142864502D01*
X116600518Y-142900812D01*
X116725000Y-142913072D01*
X117714250Y-142910000D01*
X117873000Y-142751250D01*
X117873000Y-141127000D01*
X118127000Y-141127000D01*
X118127000Y-142751250D01*
X118285750Y-142910000D01*
X119275000Y-142913072D01*
X119399482Y-142900812D01*
X119519180Y-142864502D01*
X119629494Y-142805537D01*
X119726185Y-142726185D01*
X119805537Y-142629494D01*
X119864502Y-142519180D01*
X119900812Y-142399482D01*
X119913072Y-142275000D01*
X119910000Y-141285750D01*
X119751250Y-141127000D01*
X118127000Y-141127000D01*
X117873000Y-141127000D01*
X116248750Y-141127000D01*
X116090000Y-141285750D01*
X116086928Y-142275000D01*
X50660000Y-142275000D01*
X50660000Y-139725000D01*
X116086928Y-139725000D01*
X116090000Y-140714250D01*
X116248750Y-140873000D01*
X117873000Y-140873000D01*
X117873000Y-139248750D01*
X118127000Y-139248750D01*
X118127000Y-140873000D01*
X119751250Y-140873000D01*
X119910000Y-140714250D01*
X119913072Y-139725000D01*
X119900812Y-139600518D01*
X119864502Y-139480820D01*
X119805537Y-139370506D01*
X119726185Y-139273815D01*
X119629494Y-139194463D01*
X119519180Y-139135498D01*
X119399482Y-139099188D01*
X119275000Y-139086928D01*
X118285750Y-139090000D01*
X118127000Y-139248750D01*
X117873000Y-139248750D01*
X117714250Y-139090000D01*
X116725000Y-139086928D01*
X116600518Y-139099188D01*
X116480820Y-139135498D01*
X116370506Y-139194463D01*
X116273815Y-139273815D01*
X116194463Y-139370506D01*
X116135498Y-139480820D01*
X116099188Y-139600518D01*
X116086928Y-139725000D01*
X50660000Y-139725000D01*
X50660000Y-138661682D01*
X146065000Y-138661682D01*
X146065000Y-139338318D01*
X146197006Y-140001952D01*
X146455943Y-140627082D01*
X146831862Y-141189685D01*
X147310315Y-141668138D01*
X147872918Y-142044057D01*
X148498048Y-142302994D01*
X149161682Y-142435000D01*
X149838318Y-142435000D01*
X150501952Y-142302994D01*
X151127082Y-142044057D01*
X151689685Y-141668138D01*
X152168138Y-141189685D01*
X152544057Y-140627082D01*
X152802994Y-140001952D01*
X152935000Y-139338318D01*
X152935000Y-138661682D01*
X152802994Y-137998048D01*
X152544057Y-137372918D01*
X152168138Y-136810315D01*
X151689685Y-136331862D01*
X151127082Y-135955943D01*
X150501952Y-135697006D01*
X149838318Y-135565000D01*
X149161682Y-135565000D01*
X148498048Y-135697006D01*
X147872918Y-135955943D01*
X147310315Y-136331862D01*
X146831862Y-136810315D01*
X146455943Y-137372918D01*
X146197006Y-137998048D01*
X146065000Y-138661682D01*
X50660000Y-138661682D01*
X50660000Y-125461682D01*
X63565000Y-125461682D01*
X63565000Y-126138318D01*
X63697006Y-126801952D01*
X63955943Y-127427082D01*
X64331862Y-127989685D01*
X64810315Y-128468138D01*
X65372918Y-128844057D01*
X65998048Y-129102994D01*
X66661682Y-129235000D01*
X67338318Y-129235000D01*
X68001952Y-129102994D01*
X68627082Y-128844057D01*
X69189685Y-128468138D01*
X69668138Y-127989685D01*
X70044057Y-127427082D01*
X70302994Y-126801952D01*
X70435000Y-126138318D01*
X70435000Y-125461682D01*
X70302994Y-124798048D01*
X70044057Y-124172918D01*
X69668138Y-123610315D01*
X69189685Y-123131862D01*
X68627082Y-122755943D01*
X68001952Y-122497006D01*
X67338318Y-122365000D01*
X66661682Y-122365000D01*
X65998048Y-122497006D01*
X65372918Y-122755943D01*
X64810315Y-123131862D01*
X64331862Y-123610315D01*
X63955943Y-124172918D01*
X63697006Y-124798048D01*
X63565000Y-125461682D01*
X50660000Y-125461682D01*
X50660000Y-119935001D01*
X83001323Y-119935001D01*
X83004999Y-119972324D01*
X83005000Y-121826669D01*
X83001323Y-121864001D01*
X83005000Y-121901333D01*
X83005000Y-121901334D01*
X83007603Y-121927757D01*
X83015997Y-122012986D01*
X83059453Y-122156247D01*
X83130025Y-122288277D01*
X83201200Y-122375003D01*
X83224999Y-122404002D01*
X83253997Y-122427800D01*
X95687293Y-134861098D01*
X95711087Y-134890091D01*
X95740080Y-134913885D01*
X95740084Y-134913889D01*
X95810773Y-134971901D01*
X95826812Y-134985064D01*
X95958841Y-135055636D01*
X96102102Y-135099093D01*
X96213755Y-135110090D01*
X96213764Y-135110090D01*
X96251087Y-135113766D01*
X96288410Y-135110090D01*
X160385289Y-135110090D01*
X163348790Y-138073592D01*
X163305000Y-138293740D01*
X163305000Y-138586260D01*
X163362068Y-138873158D01*
X163474010Y-139143411D01*
X163636525Y-139386632D01*
X163843368Y-139593475D01*
X164086589Y-139755990D01*
X164356842Y-139867932D01*
X164643740Y-139925000D01*
X164936260Y-139925000D01*
X165223158Y-139867932D01*
X165493411Y-139755990D01*
X165736632Y-139593475D01*
X165943475Y-139386632D01*
X166060000Y-139212240D01*
X166176525Y-139386632D01*
X166383368Y-139593475D01*
X166626589Y-139755990D01*
X166896842Y-139867932D01*
X167183740Y-139925000D01*
X167476260Y-139925000D01*
X167763158Y-139867932D01*
X168033411Y-139755990D01*
X168276632Y-139593475D01*
X168483475Y-139386632D01*
X168600000Y-139212240D01*
X168716525Y-139386632D01*
X168923368Y-139593475D01*
X169166589Y-139755990D01*
X169436842Y-139867932D01*
X169723740Y-139925000D01*
X170016260Y-139925000D01*
X170303158Y-139867932D01*
X170573411Y-139755990D01*
X170816632Y-139593475D01*
X171023475Y-139386632D01*
X171140000Y-139212240D01*
X171256525Y-139386632D01*
X171463368Y-139593475D01*
X171706589Y-139755990D01*
X171976842Y-139867932D01*
X172263740Y-139925000D01*
X172556260Y-139925000D01*
X172843158Y-139867932D01*
X173113411Y-139755990D01*
X173356632Y-139593475D01*
X173563475Y-139386632D01*
X173680000Y-139212240D01*
X173796525Y-139386632D01*
X174003368Y-139593475D01*
X174246589Y-139755990D01*
X174516842Y-139867932D01*
X174803740Y-139925000D01*
X175096260Y-139925000D01*
X175383158Y-139867932D01*
X175653411Y-139755990D01*
X175896632Y-139593475D01*
X176103475Y-139386632D01*
X176220000Y-139212240D01*
X176336525Y-139386632D01*
X176543368Y-139593475D01*
X176786589Y-139755990D01*
X177056842Y-139867932D01*
X177343740Y-139925000D01*
X177636260Y-139925000D01*
X177923158Y-139867932D01*
X178193411Y-139755990D01*
X178436632Y-139593475D01*
X178643475Y-139386632D01*
X178760000Y-139212240D01*
X178876525Y-139386632D01*
X179083368Y-139593475D01*
X179326589Y-139755990D01*
X179596842Y-139867932D01*
X179883740Y-139925000D01*
X180176260Y-139925000D01*
X180463158Y-139867932D01*
X180733411Y-139755990D01*
X180976632Y-139593475D01*
X181183475Y-139386632D01*
X181300000Y-139212240D01*
X181416525Y-139386632D01*
X181623368Y-139593475D01*
X181866589Y-139755990D01*
X182136842Y-139867932D01*
X182423740Y-139925000D01*
X182716260Y-139925000D01*
X183003158Y-139867932D01*
X183273411Y-139755990D01*
X183516632Y-139593475D01*
X183723475Y-139386632D01*
X183840000Y-139212240D01*
X183956525Y-139386632D01*
X184163368Y-139593475D01*
X184406589Y-139755990D01*
X184676842Y-139867932D01*
X184963740Y-139925000D01*
X185256260Y-139925000D01*
X185543158Y-139867932D01*
X185813411Y-139755990D01*
X186056632Y-139593475D01*
X186263475Y-139386632D01*
X186380000Y-139212240D01*
X186496525Y-139386632D01*
X186703368Y-139593475D01*
X186946589Y-139755990D01*
X187216842Y-139867932D01*
X187503740Y-139925000D01*
X187796260Y-139925000D01*
X188083158Y-139867932D01*
X188353411Y-139755990D01*
X188596632Y-139593475D01*
X188803475Y-139386632D01*
X188965990Y-139143411D01*
X189077932Y-138873158D01*
X189135000Y-138586260D01*
X189135000Y-138293740D01*
X189077932Y-138006842D01*
X188965990Y-137736589D01*
X188803475Y-137493368D01*
X188671620Y-137361513D01*
X188744180Y-137339502D01*
X188854494Y-137280537D01*
X188951185Y-137201185D01*
X189030537Y-137104494D01*
X189089502Y-136994180D01*
X189125812Y-136874482D01*
X189138072Y-136750000D01*
X189138072Y-135050000D01*
X189125812Y-134925518D01*
X189089502Y-134805820D01*
X189030537Y-134695506D01*
X188951185Y-134598815D01*
X188854494Y-134519463D01*
X188744180Y-134460498D01*
X188624482Y-134424188D01*
X188500000Y-134411928D01*
X186800000Y-134411928D01*
X186675518Y-134424188D01*
X186555820Y-134460498D01*
X186509214Y-134485410D01*
X181812806Y-129789003D01*
X181789003Y-129759999D01*
X181673278Y-129665026D01*
X181541249Y-129594454D01*
X181397988Y-129550997D01*
X181286335Y-129540000D01*
X181286324Y-129540000D01*
X181249002Y-129536324D01*
X181211680Y-129540000D01*
X114829800Y-129540000D01*
X110751482Y-125461682D01*
X155565000Y-125461682D01*
X155565000Y-126138318D01*
X155697006Y-126801952D01*
X155955943Y-127427082D01*
X156331862Y-127989685D01*
X156810315Y-128468138D01*
X157372918Y-128844057D01*
X157998048Y-129102994D01*
X158661682Y-129235000D01*
X159338318Y-129235000D01*
X160001952Y-129102994D01*
X160627082Y-128844057D01*
X161189685Y-128468138D01*
X161668138Y-127989685D01*
X162044057Y-127427082D01*
X162302994Y-126801952D01*
X162435000Y-126138318D01*
X162435000Y-125461682D01*
X162302994Y-124798048D01*
X162044057Y-124172918D01*
X161668138Y-123610315D01*
X161189685Y-123131862D01*
X160627082Y-122755943D01*
X160001952Y-122497006D01*
X159338318Y-122365000D01*
X158661682Y-122365000D01*
X157998048Y-122497006D01*
X157372918Y-122755943D01*
X156810315Y-123131862D01*
X156331862Y-123610315D01*
X155955943Y-124172918D01*
X155697006Y-124798048D01*
X155565000Y-125461682D01*
X110751482Y-125461682D01*
X108077871Y-122788072D01*
X108650000Y-122788072D01*
X108774482Y-122775812D01*
X108894180Y-122739502D01*
X109004494Y-122680537D01*
X109101185Y-122601185D01*
X109180537Y-122504494D01*
X109239502Y-122394180D01*
X109275812Y-122274482D01*
X109288072Y-122150000D01*
X109288072Y-120450000D01*
X109275812Y-120325518D01*
X109239502Y-120205820D01*
X109180537Y-120095506D01*
X109101185Y-119998815D01*
X109004494Y-119919463D01*
X108894180Y-119860498D01*
X108821620Y-119838487D01*
X108953475Y-119706632D01*
X109115990Y-119463411D01*
X109227932Y-119193158D01*
X109285000Y-118906260D01*
X109285000Y-118613740D01*
X109227932Y-118326842D01*
X109115990Y-118056589D01*
X108953475Y-117813368D01*
X108746632Y-117606525D01*
X108503411Y-117444010D01*
X108233158Y-117332068D01*
X107946260Y-117275000D01*
X107653740Y-117275000D01*
X107366842Y-117332068D01*
X107096589Y-117444010D01*
X106853368Y-117606525D01*
X106646525Y-117813368D01*
X106530000Y-117987760D01*
X106413475Y-117813368D01*
X106206632Y-117606525D01*
X105963411Y-117444010D01*
X105693158Y-117332068D01*
X105406260Y-117275000D01*
X105113740Y-117275000D01*
X104826842Y-117332068D01*
X104556589Y-117444010D01*
X104313368Y-117606525D01*
X104106525Y-117813368D01*
X103990000Y-117987760D01*
X103873475Y-117813368D01*
X103666632Y-117606525D01*
X103423411Y-117444010D01*
X103153158Y-117332068D01*
X102866260Y-117275000D01*
X102573740Y-117275000D01*
X102286842Y-117332068D01*
X102016589Y-117444010D01*
X101773368Y-117606525D01*
X101566525Y-117813368D01*
X101450000Y-117987760D01*
X101333475Y-117813368D01*
X101126632Y-117606525D01*
X100883411Y-117444010D01*
X100613158Y-117332068D01*
X100326260Y-117275000D01*
X100033740Y-117275000D01*
X99746842Y-117332068D01*
X99476589Y-117444010D01*
X99233368Y-117606525D01*
X99026525Y-117813368D01*
X98910000Y-117987760D01*
X98793475Y-117813368D01*
X98586632Y-117606525D01*
X98343411Y-117444010D01*
X98073158Y-117332068D01*
X97786260Y-117275000D01*
X97493740Y-117275000D01*
X97206842Y-117332068D01*
X96936589Y-117444010D01*
X96693368Y-117606525D01*
X96486525Y-117813368D01*
X96370000Y-117987760D01*
X96253475Y-117813368D01*
X96046632Y-117606525D01*
X95803411Y-117444010D01*
X95533158Y-117332068D01*
X95246260Y-117275000D01*
X94953740Y-117275000D01*
X94666842Y-117332068D01*
X94396589Y-117444010D01*
X94153368Y-117606525D01*
X93946525Y-117813368D01*
X93830000Y-117987760D01*
X93713475Y-117813368D01*
X93506632Y-117606525D01*
X93263411Y-117444010D01*
X92993158Y-117332068D01*
X92706260Y-117275000D01*
X92413740Y-117275000D01*
X92126842Y-117332068D01*
X91856589Y-117444010D01*
X91613368Y-117606525D01*
X91406525Y-117813368D01*
X91290000Y-117987760D01*
X91173475Y-117813368D01*
X90966632Y-117606525D01*
X90723411Y-117444010D01*
X90453158Y-117332068D01*
X90166260Y-117275000D01*
X89873740Y-117275000D01*
X89586842Y-117332068D01*
X89316589Y-117444010D01*
X89073368Y-117606525D01*
X88866525Y-117813368D01*
X88750000Y-117987760D01*
X88633475Y-117813368D01*
X88426632Y-117606525D01*
X88183411Y-117444010D01*
X87913158Y-117332068D01*
X87626260Y-117275000D01*
X87333740Y-117275000D01*
X87046842Y-117332068D01*
X86776589Y-117444010D01*
X86533368Y-117606525D01*
X86326525Y-117813368D01*
X86210000Y-117987760D01*
X86093475Y-117813368D01*
X85886632Y-117606525D01*
X85643411Y-117444010D01*
X85373158Y-117332068D01*
X85086260Y-117275000D01*
X84793740Y-117275000D01*
X84506842Y-117332068D01*
X84236589Y-117444010D01*
X83993368Y-117606525D01*
X83786525Y-117813368D01*
X83624010Y-118056589D01*
X83512068Y-118326842D01*
X83455000Y-118613740D01*
X83455000Y-118906260D01*
X83498791Y-119126408D01*
X83254002Y-119371197D01*
X83224998Y-119395000D01*
X83169870Y-119462175D01*
X83130025Y-119510725D01*
X83075472Y-119612786D01*
X83059453Y-119642755D01*
X83015996Y-119786016D01*
X83004999Y-119897669D01*
X83004999Y-119897679D01*
X83001323Y-119935001D01*
X50660000Y-119935001D01*
X50660000Y-89661682D01*
X146065000Y-89661682D01*
X146065000Y-90338318D01*
X146197006Y-91001952D01*
X146455943Y-91627082D01*
X146831862Y-92189685D01*
X147310315Y-92668138D01*
X147872918Y-93044057D01*
X148498048Y-93302994D01*
X149161682Y-93435000D01*
X149838318Y-93435000D01*
X150501952Y-93302994D01*
X151127082Y-93044057D01*
X151689685Y-92668138D01*
X152168138Y-92189685D01*
X152544057Y-91627082D01*
X152802994Y-91001952D01*
X152935000Y-90338318D01*
X152935000Y-89661682D01*
X152802994Y-88998048D01*
X152544057Y-88372918D01*
X152168138Y-87810315D01*
X151689685Y-87331862D01*
X151127082Y-86955943D01*
X150501952Y-86697006D01*
X149838318Y-86565000D01*
X149161682Y-86565000D01*
X148498048Y-86697006D01*
X147872918Y-86955943D01*
X147310315Y-87331862D01*
X146831862Y-87810315D01*
X146455943Y-88372918D01*
X146197006Y-88998048D01*
X146065000Y-89661682D01*
X50660000Y-89661682D01*
X50660000Y-77921132D01*
X61865000Y-77921132D01*
X61865000Y-79178868D01*
X62110372Y-80412436D01*
X62591687Y-81574431D01*
X63290447Y-82620200D01*
X64179800Y-83509553D01*
X65225569Y-84208313D01*
X66387564Y-84689628D01*
X67621132Y-84935000D01*
X68878868Y-84935000D01*
X70112436Y-84689628D01*
X71274431Y-84208313D01*
X72320200Y-83509553D01*
X73209553Y-82620200D01*
X73908313Y-81574431D01*
X74389628Y-80412436D01*
X74635000Y-79178868D01*
X74635000Y-77921132D01*
X151365000Y-77921132D01*
X151365000Y-79178868D01*
X151610372Y-80412436D01*
X152091687Y-81574431D01*
X152790447Y-82620200D01*
X153679800Y-83509553D01*
X154725569Y-84208313D01*
X155887564Y-84689628D01*
X157121132Y-84935000D01*
X158378868Y-84935000D01*
X159612436Y-84689628D01*
X160774431Y-84208313D01*
X161820200Y-83509553D01*
X162709553Y-82620200D01*
X163408313Y-81574431D01*
X163889628Y-80412436D01*
X164135000Y-79178868D01*
X164135000Y-77921132D01*
X163889628Y-76687564D01*
X163408313Y-75525569D01*
X162709553Y-74479800D01*
X161820200Y-73590447D01*
X160774431Y-72891687D01*
X159612436Y-72410372D01*
X158378868Y-72165000D01*
X157121132Y-72165000D01*
X155887564Y-72410372D01*
X154725569Y-72891687D01*
X153679800Y-73590447D01*
X152790447Y-74479800D01*
X152091687Y-75525569D01*
X151610372Y-76687564D01*
X151365000Y-77921132D01*
X74635000Y-77921132D01*
X74389628Y-76687564D01*
X73908313Y-75525569D01*
X73209553Y-74479800D01*
X72320200Y-73590447D01*
X71274431Y-72891687D01*
X70112436Y-72410372D01*
X68878868Y-72165000D01*
X67621132Y-72165000D01*
X66387564Y-72410372D01*
X65225569Y-72891687D01*
X64179800Y-73590447D01*
X63290447Y-74479800D01*
X62591687Y-75525569D01*
X62110372Y-76687564D01*
X61865000Y-77921132D01*
X50660000Y-77921132D01*
X50660000Y-64921132D01*
X61865000Y-64921132D01*
X61865000Y-66178868D01*
X62110372Y-67412436D01*
X62591687Y-68574431D01*
X63290447Y-69620200D01*
X64179800Y-70509553D01*
X65225569Y-71208313D01*
X66387564Y-71689628D01*
X67621132Y-71935000D01*
X68878868Y-71935000D01*
X70112436Y-71689628D01*
X71274431Y-71208313D01*
X72320200Y-70509553D01*
X73209553Y-69620200D01*
X73908313Y-68574431D01*
X74389628Y-67412436D01*
X74635000Y-66178868D01*
X74635000Y-64921132D01*
X151365000Y-64921132D01*
X151365000Y-66178868D01*
X151610372Y-67412436D01*
X152091687Y-68574431D01*
X152790447Y-69620200D01*
X153679800Y-70509553D01*
X154725569Y-71208313D01*
X155887564Y-71689628D01*
X157121132Y-71935000D01*
X158378868Y-71935000D01*
X159612436Y-71689628D01*
X160774431Y-71208313D01*
X161820200Y-70509553D01*
X162709553Y-69620200D01*
X163408313Y-68574431D01*
X163889628Y-67412436D01*
X164135000Y-66178868D01*
X164135000Y-64921132D01*
X163889628Y-63687564D01*
X163408313Y-62525569D01*
X162709553Y-61479800D01*
X161820200Y-60590447D01*
X160774431Y-59891687D01*
X160639466Y-59835782D01*
X161189685Y-59468138D01*
X161668138Y-58989685D01*
X162044057Y-58427082D01*
X162302994Y-57801952D01*
X162435000Y-57138318D01*
X162435000Y-56461682D01*
X162302994Y-55798048D01*
X162044057Y-55172918D01*
X161668138Y-54610315D01*
X161189685Y-54131862D01*
X160627082Y-53755943D01*
X160001952Y-53497006D01*
X159338318Y-53365000D01*
X158661682Y-53365000D01*
X157998048Y-53497006D01*
X157372918Y-53755943D01*
X156810315Y-54131862D01*
X156331862Y-54610315D01*
X155955943Y-55172918D01*
X155697006Y-55798048D01*
X155565000Y-56461682D01*
X155565000Y-57138318D01*
X155697006Y-57801952D01*
X155955943Y-58427082D01*
X156331862Y-58989685D01*
X156609039Y-59266862D01*
X155887564Y-59410372D01*
X154725569Y-59891687D01*
X153679800Y-60590447D01*
X152790447Y-61479800D01*
X152091687Y-62525569D01*
X151610372Y-63687564D01*
X151365000Y-64921132D01*
X74635000Y-64921132D01*
X74389628Y-63687564D01*
X73908313Y-62525569D01*
X73209553Y-61479800D01*
X72320200Y-60590447D01*
X71274431Y-59891687D01*
X70112436Y-59410372D01*
X69390961Y-59266862D01*
X69668138Y-58989685D01*
X70044057Y-58427082D01*
X70302994Y-57801952D01*
X70435000Y-57138318D01*
X70435000Y-56461682D01*
X70302994Y-55798048D01*
X70044057Y-55172918D01*
X69668138Y-54610315D01*
X69189685Y-54131862D01*
X68627082Y-53755943D01*
X68001952Y-53497006D01*
X67338318Y-53365000D01*
X66661682Y-53365000D01*
X65998048Y-53497006D01*
X65372918Y-53755943D01*
X64810315Y-54131862D01*
X64331862Y-54610315D01*
X63955943Y-55172918D01*
X63697006Y-55798048D01*
X63565000Y-56461682D01*
X63565000Y-57138318D01*
X63697006Y-57801952D01*
X63955943Y-58427082D01*
X64331862Y-58989685D01*
X64810315Y-59468138D01*
X65360534Y-59835782D01*
X65225569Y-59891687D01*
X64179800Y-60590447D01*
X63290447Y-61479800D01*
X62591687Y-62525569D01*
X62110372Y-63687564D01*
X61865000Y-64921132D01*
X50660000Y-64921132D01*
X50660000Y-50660000D01*
X209340000Y-50660000D01*
X209340001Y-88067526D01*
G37*
%TD.AperFunction*%
%TD*%
M02*
