M48
; DRILL file {KiCad (5.1.9)-1} date 09/18/21 16:00:31
; FORMAT={-:-/ absolute / metric / decimal}
; #@! TF.CreationDate,2021-09-18T16:00:31+02:00
; #@! TF.GenerationSoftware,Kicad,Pcbnew,(5.1.9)-1
; #@! TF.FileFunction,Plated,1,2,PTH
FMAT,2
METRIC
T1C1.000
T2C1.550
T3C3.200
T4C11.500
%
G90
G05
T1
X84.94Y-118.76
X84.94Y-121.3
X87.48Y-118.76
X87.48Y-121.3
X90.02Y-118.76
X90.02Y-121.3
X92.56Y-118.76
X92.56Y-121.3
X95.1Y-118.76
X95.1Y-121.3
X97.64Y-118.76
X97.64Y-121.3
X100.18Y-118.76
X100.18Y-121.3
X102.72Y-118.76
X102.72Y-121.3
X105.26Y-118.76
X105.26Y-121.3
X107.8Y-118.76
X107.8Y-121.3
X164.79Y-135.9
X164.79Y-138.44
X167.33Y-135.9
X167.33Y-138.44
X169.87Y-135.9
X169.87Y-138.44
X172.41Y-135.9
X172.41Y-138.44
X174.95Y-135.9
X174.95Y-138.44
X177.49Y-135.9
X177.49Y-138.44
X180.03Y-135.9
X180.03Y-138.44
X182.57Y-135.9
X182.57Y-138.44
X185.11Y-135.9
X185.11Y-138.44
X187.65Y-135.9
X187.65Y-138.44
T2
X118.0Y-141.0
T3
X67.0Y-56.8
X67.0Y-125.8
X149.5Y-90.0
X149.5Y-139.0
X159.0Y-56.8
X159.0Y-125.8
X206.5Y-90.0
X206.5Y-139.0
T4
X68.25Y-65.55
X68.25Y-78.55
X157.75Y-65.55
X157.75Y-78.55
T0
M30
