%TF.GenerationSoftware,KiCad,Pcbnew,(5.1.9)-1*%
%TF.CreationDate,2021-09-18T16:00:30+02:00*%
%TF.ProjectId,DDS_mount,4444535f-6d6f-4756-9e74-2e6b69636164,1.1*%
%TF.SameCoordinates,Original*%
%TF.FileFunction,Legend,Top*%
%TF.FilePolarity,Positive*%
%FSLAX46Y46*%
G04 Gerber Fmt 4.6, Leading zero omitted, Abs format (unit mm)*
G04 Created by KiCad (PCBNEW (5.1.9)-1) date 2021-09-18 16:00:30*
%MOMM*%
%LPD*%
G01*
G04 APERTURE LIST*
%ADD10C,0.300000*%
%ADD11C,0.150000*%
%ADD12C,0.120000*%
%ADD13C,0.010000*%
%ADD14C,1.000000*%
%ADD15C,0.600000*%
G04 APERTURE END LIST*
D10*
X77504523Y-140338095D02*
X77504523Y-139038095D01*
X77814047Y-139038095D01*
X77999761Y-139100000D01*
X78123571Y-139223809D01*
X78185476Y-139347619D01*
X78247380Y-139595238D01*
X78247380Y-139780952D01*
X78185476Y-140028571D01*
X78123571Y-140152380D01*
X77999761Y-140276190D01*
X77814047Y-140338095D01*
X77504523Y-140338095D01*
X78804523Y-140338095D02*
X78804523Y-139038095D01*
X79114047Y-139038095D01*
X79299761Y-139100000D01*
X79423571Y-139223809D01*
X79485476Y-139347619D01*
X79547380Y-139595238D01*
X79547380Y-139780952D01*
X79485476Y-140028571D01*
X79423571Y-140152380D01*
X79299761Y-140276190D01*
X79114047Y-140338095D01*
X78804523Y-140338095D01*
X80042619Y-140276190D02*
X80228333Y-140338095D01*
X80537857Y-140338095D01*
X80661666Y-140276190D01*
X80723571Y-140214285D01*
X80785476Y-140090476D01*
X80785476Y-139966666D01*
X80723571Y-139842857D01*
X80661666Y-139780952D01*
X80537857Y-139719047D01*
X80290238Y-139657142D01*
X80166428Y-139595238D01*
X80104523Y-139533333D01*
X80042619Y-139409523D01*
X80042619Y-139285714D01*
X80104523Y-139161904D01*
X80166428Y-139100000D01*
X80290238Y-139038095D01*
X80599761Y-139038095D01*
X80785476Y-139100000D01*
X82333095Y-140338095D02*
X82333095Y-139038095D01*
X82766428Y-139966666D01*
X83199761Y-139038095D01*
X83199761Y-140338095D01*
X84004523Y-140338095D02*
X83880714Y-140276190D01*
X83818809Y-140214285D01*
X83756904Y-140090476D01*
X83756904Y-139719047D01*
X83818809Y-139595238D01*
X83880714Y-139533333D01*
X84004523Y-139471428D01*
X84190238Y-139471428D01*
X84314047Y-139533333D01*
X84375952Y-139595238D01*
X84437857Y-139719047D01*
X84437857Y-140090476D01*
X84375952Y-140214285D01*
X84314047Y-140276190D01*
X84190238Y-140338095D01*
X84004523Y-140338095D01*
X85552142Y-139471428D02*
X85552142Y-140338095D01*
X84995000Y-139471428D02*
X84995000Y-140152380D01*
X85056904Y-140276190D01*
X85180714Y-140338095D01*
X85366428Y-140338095D01*
X85490238Y-140276190D01*
X85552142Y-140214285D01*
X86171190Y-139471428D02*
X86171190Y-140338095D01*
X86171190Y-139595238D02*
X86233095Y-139533333D01*
X86356904Y-139471428D01*
X86542619Y-139471428D01*
X86666428Y-139533333D01*
X86728333Y-139657142D01*
X86728333Y-140338095D01*
X87161666Y-139471428D02*
X87656904Y-139471428D01*
X87347380Y-139038095D02*
X87347380Y-140152380D01*
X87409285Y-140276190D01*
X87533095Y-140338095D01*
X87656904Y-140338095D01*
X89452142Y-140833333D02*
X89390238Y-140771428D01*
X89266428Y-140585714D01*
X89204523Y-140461904D01*
X89142619Y-140276190D01*
X89080714Y-139966666D01*
X89080714Y-139719047D01*
X89142619Y-139409523D01*
X89204523Y-139223809D01*
X89266428Y-139100000D01*
X89390238Y-138914285D01*
X89452142Y-138852380D01*
X90380714Y-139657142D02*
X90566428Y-139719047D01*
X90628333Y-139780952D01*
X90690238Y-139904761D01*
X90690238Y-140090476D01*
X90628333Y-140214285D01*
X90566428Y-140276190D01*
X90442619Y-140338095D01*
X89947380Y-140338095D01*
X89947380Y-139038095D01*
X90380714Y-139038095D01*
X90504523Y-139100000D01*
X90566428Y-139161904D01*
X90628333Y-139285714D01*
X90628333Y-139409523D01*
X90566428Y-139533333D01*
X90504523Y-139595238D01*
X90380714Y-139657142D01*
X89947380Y-139657142D01*
X91804523Y-139471428D02*
X91804523Y-140338095D01*
X91247380Y-139471428D02*
X91247380Y-140152380D01*
X91309285Y-140276190D01*
X91433095Y-140338095D01*
X91618809Y-140338095D01*
X91742619Y-140276190D01*
X91804523Y-140214285D01*
X92237857Y-139471428D02*
X92733095Y-139471428D01*
X92423571Y-140338095D02*
X92423571Y-139223809D01*
X92485476Y-139100000D01*
X92609285Y-139038095D01*
X92733095Y-139038095D01*
X92980714Y-139471428D02*
X93475952Y-139471428D01*
X93166428Y-140338095D02*
X93166428Y-139223809D01*
X93228333Y-139100000D01*
X93352142Y-139038095D01*
X93475952Y-139038095D01*
X94404523Y-140276190D02*
X94280714Y-140338095D01*
X94033095Y-140338095D01*
X93909285Y-140276190D01*
X93847380Y-140152380D01*
X93847380Y-139657142D01*
X93909285Y-139533333D01*
X94033095Y-139471428D01*
X94280714Y-139471428D01*
X94404523Y-139533333D01*
X94466428Y-139657142D01*
X94466428Y-139780952D01*
X93847380Y-139904761D01*
X95023571Y-140338095D02*
X95023571Y-139471428D01*
X95023571Y-139719047D02*
X95085476Y-139595238D01*
X95147380Y-139533333D01*
X95271190Y-139471428D01*
X95395000Y-139471428D01*
X96323571Y-140276190D02*
X96199761Y-140338095D01*
X95952142Y-140338095D01*
X95828333Y-140276190D01*
X95766428Y-140152380D01*
X95766428Y-139657142D01*
X95828333Y-139533333D01*
X95952142Y-139471428D01*
X96199761Y-139471428D01*
X96323571Y-139533333D01*
X96385476Y-139657142D01*
X96385476Y-139780952D01*
X95766428Y-139904761D01*
X97499761Y-140338095D02*
X97499761Y-139038095D01*
X97499761Y-140276190D02*
X97375952Y-140338095D01*
X97128333Y-140338095D01*
X97004523Y-140276190D01*
X96942619Y-140214285D01*
X96880714Y-140090476D01*
X96880714Y-139719047D01*
X96942619Y-139595238D01*
X97004523Y-139533333D01*
X97128333Y-139471428D01*
X97375952Y-139471428D01*
X97499761Y-139533333D01*
X99047380Y-139966666D02*
X99666428Y-139966666D01*
X98923571Y-140338095D02*
X99356904Y-139038095D01*
X99790238Y-140338095D01*
X100223571Y-140338095D02*
X100223571Y-139038095D01*
X100533095Y-139038095D01*
X100718809Y-139100000D01*
X100842619Y-139223809D01*
X100904523Y-139347619D01*
X100966428Y-139595238D01*
X100966428Y-139780952D01*
X100904523Y-140028571D01*
X100842619Y-140152380D01*
X100718809Y-140276190D01*
X100533095Y-140338095D01*
X100223571Y-140338095D01*
X101585476Y-140338095D02*
X101833095Y-140338095D01*
X101956904Y-140276190D01*
X102018809Y-140214285D01*
X102142619Y-140028571D01*
X102204523Y-139780952D01*
X102204523Y-139285714D01*
X102142619Y-139161904D01*
X102080714Y-139100000D01*
X101956904Y-139038095D01*
X101709285Y-139038095D01*
X101585476Y-139100000D01*
X101523571Y-139161904D01*
X101461666Y-139285714D01*
X101461666Y-139595238D01*
X101523571Y-139719047D01*
X101585476Y-139780952D01*
X101709285Y-139842857D01*
X101956904Y-139842857D01*
X102080714Y-139780952D01*
X102142619Y-139719047D01*
X102204523Y-139595238D01*
X102823571Y-140338095D02*
X103071190Y-140338095D01*
X103195000Y-140276190D01*
X103256904Y-140214285D01*
X103380714Y-140028571D01*
X103442619Y-139780952D01*
X103442619Y-139285714D01*
X103380714Y-139161904D01*
X103318809Y-139100000D01*
X103195000Y-139038095D01*
X102947380Y-139038095D01*
X102823571Y-139100000D01*
X102761666Y-139161904D01*
X102699761Y-139285714D01*
X102699761Y-139595238D01*
X102761666Y-139719047D01*
X102823571Y-139780952D01*
X102947380Y-139842857D01*
X103195000Y-139842857D01*
X103318809Y-139780952D01*
X103380714Y-139719047D01*
X103442619Y-139595238D01*
X104618809Y-139038095D02*
X103999761Y-139038095D01*
X103937857Y-139657142D01*
X103999761Y-139595238D01*
X104123571Y-139533333D01*
X104433095Y-139533333D01*
X104556904Y-139595238D01*
X104618809Y-139657142D01*
X104680714Y-139780952D01*
X104680714Y-140090476D01*
X104618809Y-140214285D01*
X104556904Y-140276190D01*
X104433095Y-140338095D01*
X104123571Y-140338095D01*
X103999761Y-140276190D01*
X103937857Y-140214285D01*
X105299761Y-140338095D02*
X105547380Y-140338095D01*
X105671190Y-140276190D01*
X105733095Y-140214285D01*
X105856904Y-140028571D01*
X105918809Y-139780952D01*
X105918809Y-139285714D01*
X105856904Y-139161904D01*
X105795000Y-139100000D01*
X105671190Y-139038095D01*
X105423571Y-139038095D01*
X105299761Y-139100000D01*
X105237857Y-139161904D01*
X105175952Y-139285714D01*
X105175952Y-139595238D01*
X105237857Y-139719047D01*
X105299761Y-139780952D01*
X105423571Y-139842857D01*
X105671190Y-139842857D01*
X105795000Y-139780952D01*
X105856904Y-139719047D01*
X105918809Y-139595238D01*
X106352142Y-140833333D02*
X106414047Y-140771428D01*
X106537857Y-140585714D01*
X106599761Y-140461904D01*
X106661666Y-140276190D01*
X106723571Y-139966666D01*
X106723571Y-139719047D01*
X106661666Y-139409523D01*
X106599761Y-139223809D01*
X106537857Y-139100000D01*
X106414047Y-138914285D01*
X106352142Y-138852380D01*
X77752142Y-141288095D02*
X77875952Y-141288095D01*
X77999761Y-141350000D01*
X78061666Y-141411904D01*
X78123571Y-141535714D01*
X78185476Y-141783333D01*
X78185476Y-142092857D01*
X78123571Y-142340476D01*
X78061666Y-142464285D01*
X77999761Y-142526190D01*
X77875952Y-142588095D01*
X77752142Y-142588095D01*
X77628333Y-142526190D01*
X77566428Y-142464285D01*
X77504523Y-142340476D01*
X77442619Y-142092857D01*
X77442619Y-141783333D01*
X77504523Y-141535714D01*
X77566428Y-141411904D01*
X77628333Y-141350000D01*
X77752142Y-141288095D01*
X78804523Y-142588095D02*
X79052142Y-142588095D01*
X79175952Y-142526190D01*
X79237857Y-142464285D01*
X79361666Y-142278571D01*
X79423571Y-142030952D01*
X79423571Y-141535714D01*
X79361666Y-141411904D01*
X79299761Y-141350000D01*
X79175952Y-141288095D01*
X78928333Y-141288095D01*
X78804523Y-141350000D01*
X78742619Y-141411904D01*
X78680714Y-141535714D01*
X78680714Y-141845238D01*
X78742619Y-141969047D01*
X78804523Y-142030952D01*
X78928333Y-142092857D01*
X79175952Y-142092857D01*
X79299761Y-142030952D01*
X79361666Y-141969047D01*
X79423571Y-141845238D01*
X80909285Y-141226190D02*
X79795000Y-142897619D01*
X81280714Y-141411904D02*
X81342619Y-141350000D01*
X81466428Y-141288095D01*
X81775952Y-141288095D01*
X81899761Y-141350000D01*
X81961666Y-141411904D01*
X82023571Y-141535714D01*
X82023571Y-141659523D01*
X81961666Y-141845238D01*
X81218809Y-142588095D01*
X82023571Y-142588095D01*
X82828333Y-141288095D02*
X82952142Y-141288095D01*
X83075952Y-141350000D01*
X83137857Y-141411904D01*
X83199761Y-141535714D01*
X83261666Y-141783333D01*
X83261666Y-142092857D01*
X83199761Y-142340476D01*
X83137857Y-142464285D01*
X83075952Y-142526190D01*
X82952142Y-142588095D01*
X82828333Y-142588095D01*
X82704523Y-142526190D01*
X82642619Y-142464285D01*
X82580714Y-142340476D01*
X82518809Y-142092857D01*
X82518809Y-141783333D01*
X82580714Y-141535714D01*
X82642619Y-141411904D01*
X82704523Y-141350000D01*
X82828333Y-141288095D01*
X83756904Y-141411904D02*
X83818809Y-141350000D01*
X83942619Y-141288095D01*
X84252142Y-141288095D01*
X84375952Y-141350000D01*
X84437857Y-141411904D01*
X84499761Y-141535714D01*
X84499761Y-141659523D01*
X84437857Y-141845238D01*
X83695000Y-142588095D01*
X84499761Y-142588095D01*
X85737857Y-142588095D02*
X84995000Y-142588095D01*
X85366428Y-142588095D02*
X85366428Y-141288095D01*
X85242619Y-141473809D01*
X85118809Y-141597619D01*
X84995000Y-141659523D01*
X88028333Y-142588095D02*
X87595000Y-141969047D01*
X87285476Y-142588095D02*
X87285476Y-141288095D01*
X87780714Y-141288095D01*
X87904523Y-141350000D01*
X87966428Y-141411904D01*
X88028333Y-141535714D01*
X88028333Y-141721428D01*
X87966428Y-141845238D01*
X87904523Y-141907142D01*
X87780714Y-141969047D01*
X87285476Y-141969047D01*
X89080714Y-142526190D02*
X88956904Y-142588095D01*
X88709285Y-142588095D01*
X88585476Y-142526190D01*
X88523571Y-142402380D01*
X88523571Y-141907142D01*
X88585476Y-141783333D01*
X88709285Y-141721428D01*
X88956904Y-141721428D01*
X89080714Y-141783333D01*
X89142619Y-141907142D01*
X89142619Y-142030952D01*
X88523571Y-142154761D01*
X89575952Y-141721428D02*
X89885476Y-142588095D01*
X90195000Y-141721428D01*
X90690238Y-142464285D02*
X90752142Y-142526190D01*
X90690238Y-142588095D01*
X90628333Y-142526190D01*
X90690238Y-142464285D01*
X90690238Y-142588095D01*
X92980714Y-142588095D02*
X92237857Y-142588095D01*
X92609285Y-142588095D02*
X92609285Y-141288095D01*
X92485476Y-141473809D01*
X92361666Y-141597619D01*
X92237857Y-141659523D01*
X93537857Y-142464285D02*
X93599761Y-142526190D01*
X93537857Y-142588095D01*
X93475952Y-142526190D01*
X93537857Y-142464285D01*
X93537857Y-142588095D01*
X94837857Y-142588095D02*
X94095000Y-142588095D01*
X94466428Y-142588095D02*
X94466428Y-141288095D01*
X94342619Y-141473809D01*
X94218809Y-141597619D01*
X94095000Y-141659523D01*
X77504523Y-144838095D02*
X77504523Y-143538095D01*
X77814047Y-143538095D01*
X77999761Y-143600000D01*
X78123571Y-143723809D01*
X78185476Y-143847619D01*
X78247380Y-144095238D01*
X78247380Y-144280952D01*
X78185476Y-144528571D01*
X78123571Y-144652380D01*
X77999761Y-144776190D01*
X77814047Y-144838095D01*
X77504523Y-144838095D01*
X79299761Y-144776190D02*
X79175952Y-144838095D01*
X78928333Y-144838095D01*
X78804523Y-144776190D01*
X78742619Y-144652380D01*
X78742619Y-144157142D01*
X78804523Y-144033333D01*
X78928333Y-143971428D01*
X79175952Y-143971428D01*
X79299761Y-144033333D01*
X79361666Y-144157142D01*
X79361666Y-144280952D01*
X78742619Y-144404761D01*
X79856904Y-144776190D02*
X79980714Y-144838095D01*
X80228333Y-144838095D01*
X80352142Y-144776190D01*
X80414047Y-144652380D01*
X80414047Y-144590476D01*
X80352142Y-144466666D01*
X80228333Y-144404761D01*
X80042619Y-144404761D01*
X79918809Y-144342857D01*
X79856904Y-144219047D01*
X79856904Y-144157142D01*
X79918809Y-144033333D01*
X80042619Y-143971428D01*
X80228333Y-143971428D01*
X80352142Y-144033333D01*
X80971190Y-144838095D02*
X80971190Y-143971428D01*
X80971190Y-143538095D02*
X80909285Y-143600000D01*
X80971190Y-143661904D01*
X81033095Y-143600000D01*
X80971190Y-143538095D01*
X80971190Y-143661904D01*
X82147380Y-143971428D02*
X82147380Y-145023809D01*
X82085476Y-145147619D01*
X82023571Y-145209523D01*
X81899761Y-145271428D01*
X81714047Y-145271428D01*
X81590238Y-145209523D01*
X82147380Y-144776190D02*
X82023571Y-144838095D01*
X81775952Y-144838095D01*
X81652142Y-144776190D01*
X81590238Y-144714285D01*
X81528333Y-144590476D01*
X81528333Y-144219047D01*
X81590238Y-144095238D01*
X81652142Y-144033333D01*
X81775952Y-143971428D01*
X82023571Y-143971428D01*
X82147380Y-144033333D01*
X82766428Y-143971428D02*
X82766428Y-144838095D01*
X82766428Y-144095238D02*
X82828333Y-144033333D01*
X82952142Y-143971428D01*
X83137857Y-143971428D01*
X83261666Y-144033333D01*
X83323571Y-144157142D01*
X83323571Y-144838095D01*
X83942619Y-144714285D02*
X84004523Y-144776190D01*
X83942619Y-144838095D01*
X83880714Y-144776190D01*
X83942619Y-144714285D01*
X83942619Y-144838095D01*
X83942619Y-144033333D02*
X84004523Y-144095238D01*
X83942619Y-144157142D01*
X83880714Y-144095238D01*
X83942619Y-144033333D01*
X83942619Y-144157142D01*
X85366428Y-143538095D02*
X86109285Y-143538095D01*
X85737857Y-144838095D02*
X85737857Y-143538095D01*
X86542619Y-144838095D02*
X86542619Y-143971428D01*
X86542619Y-143538095D02*
X86480714Y-143600000D01*
X86542619Y-143661904D01*
X86604523Y-143600000D01*
X86542619Y-143538095D01*
X86542619Y-143661904D01*
X87347380Y-144838095D02*
X87223571Y-144776190D01*
X87161666Y-144652380D01*
X87161666Y-143538095D01*
X87842619Y-144838095D02*
X87842619Y-143971428D01*
X87842619Y-144095238D02*
X87904523Y-144033333D01*
X88028333Y-143971428D01*
X88214047Y-143971428D01*
X88337857Y-144033333D01*
X88399761Y-144157142D01*
X88399761Y-144838095D01*
X88399761Y-144157142D02*
X88461666Y-144033333D01*
X88585476Y-143971428D01*
X88771190Y-143971428D01*
X88895000Y-144033333D01*
X88956904Y-144157142D01*
X88956904Y-144838095D01*
X90133095Y-144838095D02*
X90133095Y-144157142D01*
X90071190Y-144033333D01*
X89947380Y-143971428D01*
X89699761Y-143971428D01*
X89575952Y-144033333D01*
X90133095Y-144776190D02*
X90009285Y-144838095D01*
X89699761Y-144838095D01*
X89575952Y-144776190D01*
X89514047Y-144652380D01*
X89514047Y-144528571D01*
X89575952Y-144404761D01*
X89699761Y-144342857D01*
X90009285Y-144342857D01*
X90133095Y-144280952D01*
X90752142Y-143971428D02*
X90752142Y-144838095D01*
X90752142Y-144095238D02*
X90814047Y-144033333D01*
X90937857Y-143971428D01*
X91123571Y-143971428D01*
X91247380Y-144033333D01*
X91309285Y-144157142D01*
X91309285Y-144838095D01*
X92918809Y-144838095D02*
X92918809Y-143538095D01*
X93414047Y-143538095D01*
X93537857Y-143600000D01*
X93599761Y-143661904D01*
X93661666Y-143785714D01*
X93661666Y-143971428D01*
X93599761Y-144095238D01*
X93537857Y-144157142D01*
X93414047Y-144219047D01*
X92918809Y-144219047D01*
X94218809Y-144838095D02*
X94218809Y-143971428D01*
X94218809Y-144219047D02*
X94280714Y-144095238D01*
X94342619Y-144033333D01*
X94466428Y-143971428D01*
X94590238Y-143971428D01*
X95518809Y-144776190D02*
X95395000Y-144838095D01*
X95147380Y-144838095D01*
X95023571Y-144776190D01*
X94961666Y-144652380D01*
X94961666Y-144157142D01*
X95023571Y-144033333D01*
X95147380Y-143971428D01*
X95395000Y-143971428D01*
X95518809Y-144033333D01*
X95580714Y-144157142D01*
X95580714Y-144280952D01*
X94961666Y-144404761D01*
X96695000Y-143971428D02*
X96695000Y-144838095D01*
X96137857Y-143971428D02*
X96137857Y-144652380D01*
X96199761Y-144776190D01*
X96323571Y-144838095D01*
X96509285Y-144838095D01*
X96633095Y-144776190D01*
X96695000Y-144714285D01*
X97252142Y-144776190D02*
X97375952Y-144838095D01*
X97623571Y-144838095D01*
X97747380Y-144776190D01*
X97809285Y-144652380D01*
X97809285Y-144590476D01*
X97747380Y-144466666D01*
X97623571Y-144404761D01*
X97437857Y-144404761D01*
X97314047Y-144342857D01*
X97252142Y-144219047D01*
X97252142Y-144157142D01*
X97314047Y-144033333D01*
X97437857Y-143971428D01*
X97623571Y-143971428D01*
X97747380Y-144033333D01*
X98923571Y-144776190D02*
X98799761Y-144838095D01*
X98552142Y-144838095D01*
X98428333Y-144776190D01*
X98366428Y-144714285D01*
X98304523Y-144590476D01*
X98304523Y-144219047D01*
X98366428Y-144095238D01*
X98428333Y-144033333D01*
X98552142Y-143971428D01*
X98799761Y-143971428D01*
X98923571Y-144033333D01*
X99480714Y-144838095D02*
X99480714Y-143538095D01*
X100037857Y-144838095D02*
X100037857Y-144157142D01*
X99975952Y-144033333D01*
X99852142Y-143971428D01*
X99666428Y-143971428D01*
X99542619Y-144033333D01*
X99480714Y-144095238D01*
X100842619Y-144838095D02*
X100718809Y-144776190D01*
X100656904Y-144714285D01*
X100595000Y-144590476D01*
X100595000Y-144219047D01*
X100656904Y-144095238D01*
X100718809Y-144033333D01*
X100842619Y-143971428D01*
X101028333Y-143971428D01*
X101152142Y-144033333D01*
X101214047Y-144095238D01*
X101275952Y-144219047D01*
X101275952Y-144590476D01*
X101214047Y-144714285D01*
X101152142Y-144776190D01*
X101028333Y-144838095D01*
X100842619Y-144838095D01*
X101647380Y-143971428D02*
X102142619Y-143971428D01*
X101833095Y-144838095D02*
X101833095Y-143723809D01*
X101895000Y-143600000D01*
X102018809Y-143538095D01*
X102142619Y-143538095D01*
X102390238Y-143971428D02*
X102885476Y-143971428D01*
X102575952Y-144838095D02*
X102575952Y-143723809D01*
X102637857Y-143600000D01*
X102761666Y-143538095D01*
X102885476Y-143538095D01*
D11*
%TO.C,J2*%
X144000000Y-143800000D02*
X144000000Y-128800000D01*
X127000000Y-143800000D02*
X144000000Y-143800000D01*
X127000000Y-128800000D02*
X127000000Y-143800000D01*
D12*
X83610000Y-122630000D02*
X83610000Y-117430000D01*
X106530000Y-122630000D02*
X83610000Y-122630000D01*
X109130000Y-117430000D02*
X83610000Y-117430000D01*
X106530000Y-122630000D02*
X106530000Y-120030000D01*
X106530000Y-120030000D02*
X109130000Y-120030000D01*
X109130000Y-120030000D02*
X109130000Y-117430000D01*
X107800000Y-122630000D02*
X109130000Y-122630000D01*
X109130000Y-122630000D02*
X109130000Y-121300000D01*
D11*
X162000000Y-128800000D02*
X64000000Y-128800000D01*
X64000000Y-128800000D02*
X64000000Y-53800000D01*
X64000000Y-53800000D02*
X162000000Y-53800000D01*
X162000000Y-53800000D02*
X162000000Y-128800000D01*
D13*
%TO.C,REF\u002A\u002A*%
G36*
X111376964Y-139290018D02*
G01*
X111433812Y-139591570D01*
X111853338Y-139764512D01*
X112104984Y-139593395D01*
X112175458Y-139545750D01*
X112239163Y-139503210D01*
X112293126Y-139467715D01*
X112334373Y-139441210D01*
X112359934Y-139425636D01*
X112366895Y-139422278D01*
X112379435Y-139430914D01*
X112406231Y-139454792D01*
X112444280Y-139490859D01*
X112490579Y-139536067D01*
X112542123Y-139587364D01*
X112595909Y-139641701D01*
X112648935Y-139696028D01*
X112698195Y-139747295D01*
X112740687Y-139792451D01*
X112773407Y-139828446D01*
X112793351Y-139852230D01*
X112798119Y-139860190D01*
X112791257Y-139874865D01*
X112772020Y-139907014D01*
X112742430Y-139953492D01*
X112704510Y-140011156D01*
X112660282Y-140076860D01*
X112634654Y-140114336D01*
X112587941Y-140182768D01*
X112546432Y-140244520D01*
X112512140Y-140296519D01*
X112487080Y-140335692D01*
X112473264Y-140358965D01*
X112471188Y-140363855D01*
X112475895Y-140377755D01*
X112488723Y-140410150D01*
X112507738Y-140456485D01*
X112531003Y-140512206D01*
X112556584Y-140572758D01*
X112582545Y-140633586D01*
X112606950Y-140690136D01*
X112627863Y-140737852D01*
X112643349Y-140772181D01*
X112651472Y-140788568D01*
X112651952Y-140789212D01*
X112664707Y-140792341D01*
X112698677Y-140799321D01*
X112750340Y-140809467D01*
X112816176Y-140822092D01*
X112892664Y-140836509D01*
X112937290Y-140844823D01*
X113019021Y-140860384D01*
X113092843Y-140875192D01*
X113155021Y-140888436D01*
X113201822Y-140899305D01*
X113229509Y-140906989D01*
X113235074Y-140909427D01*
X113240526Y-140925930D01*
X113244924Y-140963200D01*
X113248272Y-141016880D01*
X113250574Y-141082612D01*
X113251832Y-141156037D01*
X113252048Y-141232796D01*
X113251227Y-141308532D01*
X113249371Y-141378886D01*
X113246482Y-141439500D01*
X113242565Y-141486016D01*
X113237622Y-141514075D01*
X113234657Y-141519916D01*
X113216934Y-141526917D01*
X113179381Y-141536927D01*
X113126964Y-141548769D01*
X113064652Y-141561267D01*
X113042900Y-141565310D01*
X112938024Y-141584520D01*
X112855180Y-141599991D01*
X112791630Y-141612337D01*
X112744637Y-141622173D01*
X112711463Y-141630114D01*
X112689371Y-141636776D01*
X112675624Y-141642773D01*
X112667484Y-141648719D01*
X112666345Y-141649894D01*
X112654977Y-141668826D01*
X112637635Y-141705669D01*
X112616050Y-141755913D01*
X112591954Y-141815046D01*
X112567079Y-141878556D01*
X112543157Y-141941932D01*
X112521919Y-142000662D01*
X112505097Y-142050235D01*
X112494422Y-142086139D01*
X112491627Y-142103862D01*
X112491860Y-142104483D01*
X112501331Y-142118970D01*
X112522818Y-142150844D01*
X112554063Y-142196789D01*
X112592807Y-142253485D01*
X112636793Y-142317617D01*
X112649319Y-142335842D01*
X112693984Y-142401914D01*
X112733288Y-142462200D01*
X112765088Y-142513235D01*
X112787245Y-142551560D01*
X112797617Y-142573711D01*
X112798119Y-142576432D01*
X112789405Y-142590736D01*
X112765325Y-142619072D01*
X112728976Y-142658396D01*
X112683453Y-142705661D01*
X112631852Y-142757823D01*
X112577267Y-142811835D01*
X112522794Y-142864653D01*
X112471529Y-142913231D01*
X112426567Y-142954523D01*
X112391004Y-142985485D01*
X112367935Y-143003070D01*
X112361554Y-143005941D01*
X112346699Y-142999178D01*
X112316286Y-142980939D01*
X112275268Y-142954297D01*
X112243709Y-142932852D01*
X112186525Y-142893503D01*
X112118806Y-142847171D01*
X112050880Y-142800913D01*
X112014361Y-142776155D01*
X111890752Y-142692547D01*
X111786991Y-142748650D01*
X111739720Y-142773228D01*
X111699523Y-142792331D01*
X111672326Y-142803227D01*
X111665402Y-142804743D01*
X111657077Y-142793549D01*
X111640654Y-142761917D01*
X111617357Y-142712765D01*
X111588414Y-142649010D01*
X111555050Y-142573571D01*
X111518491Y-142489364D01*
X111479964Y-142399308D01*
X111440694Y-142306321D01*
X111401908Y-142213320D01*
X111364830Y-142123223D01*
X111330689Y-142038948D01*
X111300708Y-141963413D01*
X111276116Y-141899534D01*
X111258136Y-141850231D01*
X111247997Y-141818421D01*
X111246366Y-141807496D01*
X111259291Y-141793561D01*
X111287589Y-141770940D01*
X111325346Y-141744333D01*
X111328515Y-141742228D01*
X111426100Y-141664114D01*
X111504786Y-141572982D01*
X111563891Y-141471745D01*
X111602732Y-141363318D01*
X111620628Y-141250614D01*
X111616897Y-141136548D01*
X111590857Y-141024034D01*
X111541825Y-140915985D01*
X111527400Y-140892345D01*
X111452369Y-140796887D01*
X111363730Y-140720232D01*
X111264549Y-140662780D01*
X111157895Y-140624929D01*
X111046836Y-140607078D01*
X110934439Y-140609625D01*
X110823773Y-140632970D01*
X110717906Y-140677510D01*
X110619905Y-140743645D01*
X110589590Y-140770487D01*
X110512438Y-140854512D01*
X110456218Y-140942966D01*
X110417653Y-141042115D01*
X110396174Y-141140303D01*
X110390872Y-141250697D01*
X110408552Y-141361640D01*
X110447419Y-141469381D01*
X110505677Y-141570169D01*
X110581531Y-141660256D01*
X110673183Y-141735892D01*
X110685228Y-141743864D01*
X110723389Y-141769974D01*
X110752399Y-141792595D01*
X110766268Y-141807039D01*
X110766469Y-141807496D01*
X110763492Y-141823121D01*
X110751689Y-141858582D01*
X110732286Y-141910962D01*
X110706512Y-141977345D01*
X110675591Y-142054814D01*
X110640751Y-142140450D01*
X110603217Y-142231337D01*
X110564217Y-142324559D01*
X110524977Y-142417197D01*
X110486724Y-142506335D01*
X110450683Y-142589055D01*
X110418083Y-142662441D01*
X110390148Y-142723575D01*
X110368105Y-142769541D01*
X110353182Y-142797421D01*
X110347172Y-142804743D01*
X110328809Y-142799041D01*
X110294448Y-142783749D01*
X110250016Y-142761599D01*
X110225583Y-142748650D01*
X110121822Y-142692547D01*
X109998213Y-142776155D01*
X109935114Y-142818987D01*
X109866030Y-142866122D01*
X109801293Y-142910503D01*
X109768866Y-142932852D01*
X109723259Y-142963477D01*
X109684640Y-142987747D01*
X109658048Y-143002587D01*
X109649410Y-143005724D01*
X109636839Y-142997261D01*
X109609016Y-142973636D01*
X109568639Y-142937302D01*
X109518405Y-142890711D01*
X109461012Y-142836317D01*
X109424714Y-142801392D01*
X109361210Y-142738996D01*
X109306327Y-142683188D01*
X109262286Y-142636354D01*
X109231305Y-142600882D01*
X109215602Y-142579161D01*
X109214095Y-142574752D01*
X109221086Y-142557985D01*
X109240406Y-142524082D01*
X109269909Y-142476476D01*
X109307455Y-142418599D01*
X109350900Y-142353884D01*
X109363255Y-142335842D01*
X109408273Y-142270267D01*
X109448660Y-142211228D01*
X109482160Y-142162042D01*
X109506514Y-142126028D01*
X109519464Y-142106502D01*
X109520715Y-142104483D01*
X109518844Y-142088922D01*
X109508913Y-142054709D01*
X109492653Y-142006355D01*
X109471795Y-141948371D01*
X109448073Y-141885270D01*
X109423216Y-141821563D01*
X109398958Y-141761761D01*
X109377029Y-141710376D01*
X109359162Y-141671919D01*
X109347087Y-141650902D01*
X109346229Y-141649894D01*
X109338846Y-141643888D01*
X109326375Y-141637948D01*
X109306080Y-141631460D01*
X109275222Y-141623809D01*
X109231066Y-141614380D01*
X109170874Y-141602559D01*
X109091907Y-141587729D01*
X108991430Y-141569277D01*
X108969675Y-141565310D01*
X108905198Y-141552853D01*
X108848989Y-141540666D01*
X108806013Y-141529926D01*
X108781240Y-141521809D01*
X108777918Y-141519916D01*
X108772444Y-141503138D01*
X108767994Y-141465645D01*
X108764572Y-141411794D01*
X108762181Y-141345944D01*
X108760823Y-141272453D01*
X108760501Y-141195680D01*
X108761219Y-141119983D01*
X108762979Y-141049720D01*
X108765784Y-140989250D01*
X108769638Y-140942930D01*
X108774543Y-140915119D01*
X108777500Y-140909427D01*
X108793963Y-140903686D01*
X108831449Y-140894345D01*
X108886225Y-140882215D01*
X108954555Y-140868107D01*
X109032706Y-140852830D01*
X109075284Y-140844823D01*
X109156071Y-140829721D01*
X109228113Y-140816040D01*
X109287889Y-140804467D01*
X109331879Y-140795687D01*
X109356561Y-140790387D01*
X109360623Y-140789212D01*
X109367489Y-140775965D01*
X109382002Y-140744057D01*
X109402229Y-140698047D01*
X109426234Y-140642492D01*
X109452082Y-140581953D01*
X109477840Y-140520986D01*
X109501573Y-140464151D01*
X109521346Y-140416006D01*
X109535224Y-140381110D01*
X109541274Y-140364021D01*
X109541386Y-140363274D01*
X109534528Y-140349793D01*
X109515302Y-140318770D01*
X109485728Y-140273289D01*
X109447827Y-140216432D01*
X109403620Y-140151283D01*
X109377921Y-140113862D01*
X109331093Y-140045247D01*
X109289501Y-139982952D01*
X109255175Y-139930129D01*
X109230143Y-139889927D01*
X109216435Y-139865500D01*
X109214456Y-139860024D01*
X109222966Y-139847278D01*
X109246493Y-139820063D01*
X109282032Y-139781428D01*
X109326577Y-139734423D01*
X109377123Y-139682095D01*
X109430664Y-139627495D01*
X109484195Y-139573670D01*
X109534711Y-139523670D01*
X109579206Y-139480543D01*
X109614675Y-139447339D01*
X109638113Y-139427106D01*
X109645954Y-139422278D01*
X109658720Y-139429067D01*
X109689256Y-139448142D01*
X109734590Y-139477561D01*
X109791756Y-139515381D01*
X109857784Y-139559661D01*
X109907590Y-139593395D01*
X110159236Y-139764512D01*
X110368999Y-139678041D01*
X110578763Y-139591570D01*
X110635611Y-139290018D01*
X110692460Y-138988466D01*
X111320115Y-138988466D01*
X111376964Y-139290018D01*
G37*
X111376964Y-139290018D02*
X111433812Y-139591570D01*
X111853338Y-139764512D01*
X112104984Y-139593395D01*
X112175458Y-139545750D01*
X112239163Y-139503210D01*
X112293126Y-139467715D01*
X112334373Y-139441210D01*
X112359934Y-139425636D01*
X112366895Y-139422278D01*
X112379435Y-139430914D01*
X112406231Y-139454792D01*
X112444280Y-139490859D01*
X112490579Y-139536067D01*
X112542123Y-139587364D01*
X112595909Y-139641701D01*
X112648935Y-139696028D01*
X112698195Y-139747295D01*
X112740687Y-139792451D01*
X112773407Y-139828446D01*
X112793351Y-139852230D01*
X112798119Y-139860190D01*
X112791257Y-139874865D01*
X112772020Y-139907014D01*
X112742430Y-139953492D01*
X112704510Y-140011156D01*
X112660282Y-140076860D01*
X112634654Y-140114336D01*
X112587941Y-140182768D01*
X112546432Y-140244520D01*
X112512140Y-140296519D01*
X112487080Y-140335692D01*
X112473264Y-140358965D01*
X112471188Y-140363855D01*
X112475895Y-140377755D01*
X112488723Y-140410150D01*
X112507738Y-140456485D01*
X112531003Y-140512206D01*
X112556584Y-140572758D01*
X112582545Y-140633586D01*
X112606950Y-140690136D01*
X112627863Y-140737852D01*
X112643349Y-140772181D01*
X112651472Y-140788568D01*
X112651952Y-140789212D01*
X112664707Y-140792341D01*
X112698677Y-140799321D01*
X112750340Y-140809467D01*
X112816176Y-140822092D01*
X112892664Y-140836509D01*
X112937290Y-140844823D01*
X113019021Y-140860384D01*
X113092843Y-140875192D01*
X113155021Y-140888436D01*
X113201822Y-140899305D01*
X113229509Y-140906989D01*
X113235074Y-140909427D01*
X113240526Y-140925930D01*
X113244924Y-140963200D01*
X113248272Y-141016880D01*
X113250574Y-141082612D01*
X113251832Y-141156037D01*
X113252048Y-141232796D01*
X113251227Y-141308532D01*
X113249371Y-141378886D01*
X113246482Y-141439500D01*
X113242565Y-141486016D01*
X113237622Y-141514075D01*
X113234657Y-141519916D01*
X113216934Y-141526917D01*
X113179381Y-141536927D01*
X113126964Y-141548769D01*
X113064652Y-141561267D01*
X113042900Y-141565310D01*
X112938024Y-141584520D01*
X112855180Y-141599991D01*
X112791630Y-141612337D01*
X112744637Y-141622173D01*
X112711463Y-141630114D01*
X112689371Y-141636776D01*
X112675624Y-141642773D01*
X112667484Y-141648719D01*
X112666345Y-141649894D01*
X112654977Y-141668826D01*
X112637635Y-141705669D01*
X112616050Y-141755913D01*
X112591954Y-141815046D01*
X112567079Y-141878556D01*
X112543157Y-141941932D01*
X112521919Y-142000662D01*
X112505097Y-142050235D01*
X112494422Y-142086139D01*
X112491627Y-142103862D01*
X112491860Y-142104483D01*
X112501331Y-142118970D01*
X112522818Y-142150844D01*
X112554063Y-142196789D01*
X112592807Y-142253485D01*
X112636793Y-142317617D01*
X112649319Y-142335842D01*
X112693984Y-142401914D01*
X112733288Y-142462200D01*
X112765088Y-142513235D01*
X112787245Y-142551560D01*
X112797617Y-142573711D01*
X112798119Y-142576432D01*
X112789405Y-142590736D01*
X112765325Y-142619072D01*
X112728976Y-142658396D01*
X112683453Y-142705661D01*
X112631852Y-142757823D01*
X112577267Y-142811835D01*
X112522794Y-142864653D01*
X112471529Y-142913231D01*
X112426567Y-142954523D01*
X112391004Y-142985485D01*
X112367935Y-143003070D01*
X112361554Y-143005941D01*
X112346699Y-142999178D01*
X112316286Y-142980939D01*
X112275268Y-142954297D01*
X112243709Y-142932852D01*
X112186525Y-142893503D01*
X112118806Y-142847171D01*
X112050880Y-142800913D01*
X112014361Y-142776155D01*
X111890752Y-142692547D01*
X111786991Y-142748650D01*
X111739720Y-142773228D01*
X111699523Y-142792331D01*
X111672326Y-142803227D01*
X111665402Y-142804743D01*
X111657077Y-142793549D01*
X111640654Y-142761917D01*
X111617357Y-142712765D01*
X111588414Y-142649010D01*
X111555050Y-142573571D01*
X111518491Y-142489364D01*
X111479964Y-142399308D01*
X111440694Y-142306321D01*
X111401908Y-142213320D01*
X111364830Y-142123223D01*
X111330689Y-142038948D01*
X111300708Y-141963413D01*
X111276116Y-141899534D01*
X111258136Y-141850231D01*
X111247997Y-141818421D01*
X111246366Y-141807496D01*
X111259291Y-141793561D01*
X111287589Y-141770940D01*
X111325346Y-141744333D01*
X111328515Y-141742228D01*
X111426100Y-141664114D01*
X111504786Y-141572982D01*
X111563891Y-141471745D01*
X111602732Y-141363318D01*
X111620628Y-141250614D01*
X111616897Y-141136548D01*
X111590857Y-141024034D01*
X111541825Y-140915985D01*
X111527400Y-140892345D01*
X111452369Y-140796887D01*
X111363730Y-140720232D01*
X111264549Y-140662780D01*
X111157895Y-140624929D01*
X111046836Y-140607078D01*
X110934439Y-140609625D01*
X110823773Y-140632970D01*
X110717906Y-140677510D01*
X110619905Y-140743645D01*
X110589590Y-140770487D01*
X110512438Y-140854512D01*
X110456218Y-140942966D01*
X110417653Y-141042115D01*
X110396174Y-141140303D01*
X110390872Y-141250697D01*
X110408552Y-141361640D01*
X110447419Y-141469381D01*
X110505677Y-141570169D01*
X110581531Y-141660256D01*
X110673183Y-141735892D01*
X110685228Y-141743864D01*
X110723389Y-141769974D01*
X110752399Y-141792595D01*
X110766268Y-141807039D01*
X110766469Y-141807496D01*
X110763492Y-141823121D01*
X110751689Y-141858582D01*
X110732286Y-141910962D01*
X110706512Y-141977345D01*
X110675591Y-142054814D01*
X110640751Y-142140450D01*
X110603217Y-142231337D01*
X110564217Y-142324559D01*
X110524977Y-142417197D01*
X110486724Y-142506335D01*
X110450683Y-142589055D01*
X110418083Y-142662441D01*
X110390148Y-142723575D01*
X110368105Y-142769541D01*
X110353182Y-142797421D01*
X110347172Y-142804743D01*
X110328809Y-142799041D01*
X110294448Y-142783749D01*
X110250016Y-142761599D01*
X110225583Y-142748650D01*
X110121822Y-142692547D01*
X109998213Y-142776155D01*
X109935114Y-142818987D01*
X109866030Y-142866122D01*
X109801293Y-142910503D01*
X109768866Y-142932852D01*
X109723259Y-142963477D01*
X109684640Y-142987747D01*
X109658048Y-143002587D01*
X109649410Y-143005724D01*
X109636839Y-142997261D01*
X109609016Y-142973636D01*
X109568639Y-142937302D01*
X109518405Y-142890711D01*
X109461012Y-142836317D01*
X109424714Y-142801392D01*
X109361210Y-142738996D01*
X109306327Y-142683188D01*
X109262286Y-142636354D01*
X109231305Y-142600882D01*
X109215602Y-142579161D01*
X109214095Y-142574752D01*
X109221086Y-142557985D01*
X109240406Y-142524082D01*
X109269909Y-142476476D01*
X109307455Y-142418599D01*
X109350900Y-142353884D01*
X109363255Y-142335842D01*
X109408273Y-142270267D01*
X109448660Y-142211228D01*
X109482160Y-142162042D01*
X109506514Y-142126028D01*
X109519464Y-142106502D01*
X109520715Y-142104483D01*
X109518844Y-142088922D01*
X109508913Y-142054709D01*
X109492653Y-142006355D01*
X109471795Y-141948371D01*
X109448073Y-141885270D01*
X109423216Y-141821563D01*
X109398958Y-141761761D01*
X109377029Y-141710376D01*
X109359162Y-141671919D01*
X109347087Y-141650902D01*
X109346229Y-141649894D01*
X109338846Y-141643888D01*
X109326375Y-141637948D01*
X109306080Y-141631460D01*
X109275222Y-141623809D01*
X109231066Y-141614380D01*
X109170874Y-141602559D01*
X109091907Y-141587729D01*
X108991430Y-141569277D01*
X108969675Y-141565310D01*
X108905198Y-141552853D01*
X108848989Y-141540666D01*
X108806013Y-141529926D01*
X108781240Y-141521809D01*
X108777918Y-141519916D01*
X108772444Y-141503138D01*
X108767994Y-141465645D01*
X108764572Y-141411794D01*
X108762181Y-141345944D01*
X108760823Y-141272453D01*
X108760501Y-141195680D01*
X108761219Y-141119983D01*
X108762979Y-141049720D01*
X108765784Y-140989250D01*
X108769638Y-140942930D01*
X108774543Y-140915119D01*
X108777500Y-140909427D01*
X108793963Y-140903686D01*
X108831449Y-140894345D01*
X108886225Y-140882215D01*
X108954555Y-140868107D01*
X109032706Y-140852830D01*
X109075284Y-140844823D01*
X109156071Y-140829721D01*
X109228113Y-140816040D01*
X109287889Y-140804467D01*
X109331879Y-140795687D01*
X109356561Y-140790387D01*
X109360623Y-140789212D01*
X109367489Y-140775965D01*
X109382002Y-140744057D01*
X109402229Y-140698047D01*
X109426234Y-140642492D01*
X109452082Y-140581953D01*
X109477840Y-140520986D01*
X109501573Y-140464151D01*
X109521346Y-140416006D01*
X109535224Y-140381110D01*
X109541274Y-140364021D01*
X109541386Y-140363274D01*
X109534528Y-140349793D01*
X109515302Y-140318770D01*
X109485728Y-140273289D01*
X109447827Y-140216432D01*
X109403620Y-140151283D01*
X109377921Y-140113862D01*
X109331093Y-140045247D01*
X109289501Y-139982952D01*
X109255175Y-139930129D01*
X109230143Y-139889927D01*
X109216435Y-139865500D01*
X109214456Y-139860024D01*
X109222966Y-139847278D01*
X109246493Y-139820063D01*
X109282032Y-139781428D01*
X109326577Y-139734423D01*
X109377123Y-139682095D01*
X109430664Y-139627495D01*
X109484195Y-139573670D01*
X109534711Y-139523670D01*
X109579206Y-139480543D01*
X109614675Y-139447339D01*
X109638113Y-139427106D01*
X109645954Y-139422278D01*
X109658720Y-139429067D01*
X109689256Y-139448142D01*
X109734590Y-139477561D01*
X109791756Y-139515381D01*
X109857784Y-139559661D01*
X109907590Y-139593395D01*
X110159236Y-139764512D01*
X110368999Y-139678041D01*
X110578763Y-139591570D01*
X110635611Y-139290018D01*
X110692460Y-138988466D01*
X111320115Y-138988466D01*
X111376964Y-139290018D01*
G36*
X112799460Y-143458030D02*
G01*
X112842711Y-143471245D01*
X112870558Y-143487941D01*
X112879629Y-143501145D01*
X112877132Y-143516797D01*
X112860931Y-143541385D01*
X112847232Y-143558800D01*
X112818992Y-143590283D01*
X112797775Y-143603529D01*
X112779688Y-143602664D01*
X112726035Y-143589010D01*
X112686630Y-143589630D01*
X112654632Y-143605104D01*
X112643890Y-143614161D01*
X112609505Y-143646027D01*
X112609505Y-144062179D01*
X112471188Y-144062179D01*
X112471188Y-143458614D01*
X112540347Y-143458614D01*
X112581869Y-143460256D01*
X112603291Y-143466087D01*
X112609502Y-143477461D01*
X112609505Y-143477798D01*
X112612439Y-143489713D01*
X112625704Y-143488159D01*
X112644084Y-143479563D01*
X112682046Y-143463568D01*
X112712872Y-143453945D01*
X112752536Y-143451478D01*
X112799460Y-143458030D01*
G37*
X112799460Y-143458030D02*
X112842711Y-143471245D01*
X112870558Y-143487941D01*
X112879629Y-143501145D01*
X112877132Y-143516797D01*
X112860931Y-143541385D01*
X112847232Y-143558800D01*
X112818992Y-143590283D01*
X112797775Y-143603529D01*
X112779688Y-143602664D01*
X112726035Y-143589010D01*
X112686630Y-143589630D01*
X112654632Y-143605104D01*
X112643890Y-143614161D01*
X112609505Y-143646027D01*
X112609505Y-144062179D01*
X112471188Y-144062179D01*
X112471188Y-143458614D01*
X112540347Y-143458614D01*
X112581869Y-143460256D01*
X112603291Y-143466087D01*
X112609502Y-143477461D01*
X112609505Y-143477798D01*
X112612439Y-143489713D01*
X112625704Y-143488159D01*
X112644084Y-143479563D01*
X112682046Y-143463568D01*
X112712872Y-143453945D01*
X112752536Y-143451478D01*
X112799460Y-143458030D01*
G36*
X110245988Y-143469002D02*
G01*
X110277283Y-143483950D01*
X110307591Y-143505541D01*
X110330682Y-143530391D01*
X110347500Y-143562087D01*
X110358994Y-143604214D01*
X110366109Y-143660358D01*
X110369793Y-143734106D01*
X110370992Y-143829044D01*
X110371011Y-143838985D01*
X110371287Y-144062179D01*
X110232970Y-144062179D01*
X110232970Y-143856418D01*
X110232872Y-143780189D01*
X110232191Y-143724939D01*
X110230349Y-143686501D01*
X110226767Y-143660706D01*
X110220868Y-143643384D01*
X110212073Y-143630368D01*
X110199820Y-143617507D01*
X110156953Y-143589873D01*
X110110157Y-143584745D01*
X110065576Y-143602217D01*
X110050072Y-143615221D01*
X110038690Y-143627447D01*
X110030519Y-143640540D01*
X110025026Y-143658615D01*
X110021680Y-143685787D01*
X110019949Y-143726170D01*
X110019303Y-143783879D01*
X110019208Y-143854132D01*
X110019208Y-144062179D01*
X109880891Y-144062179D01*
X109880891Y-143458614D01*
X109950050Y-143458614D01*
X109991572Y-143460256D01*
X110012994Y-143466087D01*
X110019205Y-143477461D01*
X110019208Y-143477798D01*
X110022090Y-143488938D01*
X110034801Y-143487674D01*
X110060074Y-143475434D01*
X110117395Y-143457424D01*
X110182963Y-143455421D01*
X110245988Y-143469002D01*
G37*
X110245988Y-143469002D02*
X110277283Y-143483950D01*
X110307591Y-143505541D01*
X110330682Y-143530391D01*
X110347500Y-143562087D01*
X110358994Y-143604214D01*
X110366109Y-143660358D01*
X110369793Y-143734106D01*
X110370992Y-143829044D01*
X110371011Y-143838985D01*
X110371287Y-144062179D01*
X110232970Y-144062179D01*
X110232970Y-143856418D01*
X110232872Y-143780189D01*
X110232191Y-143724939D01*
X110230349Y-143686501D01*
X110226767Y-143660706D01*
X110220868Y-143643384D01*
X110212073Y-143630368D01*
X110199820Y-143617507D01*
X110156953Y-143589873D01*
X110110157Y-143584745D01*
X110065576Y-143602217D01*
X110050072Y-143615221D01*
X110038690Y-143627447D01*
X110030519Y-143640540D01*
X110025026Y-143658615D01*
X110021680Y-143685787D01*
X110019949Y-143726170D01*
X110019303Y-143783879D01*
X110019208Y-143854132D01*
X110019208Y-144062179D01*
X109880891Y-144062179D01*
X109880891Y-143458614D01*
X109950050Y-143458614D01*
X109991572Y-143460256D01*
X110012994Y-143466087D01*
X110019205Y-143477461D01*
X110019208Y-143477798D01*
X110022090Y-143488938D01*
X110034801Y-143487674D01*
X110060074Y-143475434D01*
X110117395Y-143457424D01*
X110182963Y-143455421D01*
X110245988Y-143469002D01*
G36*
X113677898Y-143456457D02*
G01*
X113710096Y-143464279D01*
X113771825Y-143492921D01*
X113824610Y-143536667D01*
X113861141Y-143589117D01*
X113866160Y-143600893D01*
X113873045Y-143631740D01*
X113877864Y-143677371D01*
X113879505Y-143723492D01*
X113879505Y-143810693D01*
X113697178Y-143810693D01*
X113621979Y-143810978D01*
X113569003Y-143812704D01*
X113535325Y-143817181D01*
X113518020Y-143825720D01*
X113514163Y-143839630D01*
X113520829Y-143860222D01*
X113532770Y-143884315D01*
X113566080Y-143924525D01*
X113612368Y-143944558D01*
X113668944Y-143943905D01*
X113733031Y-143922101D01*
X113788417Y-143895193D01*
X113834375Y-143931532D01*
X113880333Y-143967872D01*
X113837096Y-144007819D01*
X113779374Y-144045563D01*
X113708386Y-144068320D01*
X113632029Y-144074688D01*
X113558199Y-144063268D01*
X113546287Y-144059393D01*
X113481399Y-144025506D01*
X113433130Y-143974986D01*
X113400465Y-143906325D01*
X113382385Y-143818014D01*
X113382175Y-143816121D01*
X113380556Y-143719878D01*
X113387100Y-143685542D01*
X113514852Y-143685542D01*
X113526584Y-143690822D01*
X113558438Y-143694867D01*
X113605397Y-143697176D01*
X113635154Y-143697525D01*
X113690648Y-143697306D01*
X113725346Y-143695916D01*
X113743601Y-143692251D01*
X113749766Y-143685210D01*
X113748195Y-143673690D01*
X113746878Y-143669233D01*
X113724382Y-143627355D01*
X113689003Y-143593604D01*
X113657780Y-143578773D01*
X113616301Y-143579668D01*
X113574269Y-143598164D01*
X113539012Y-143628786D01*
X113517854Y-143666062D01*
X113514852Y-143685542D01*
X113387100Y-143685542D01*
X113396690Y-143635229D01*
X113428698Y-143564191D01*
X113474701Y-143508779D01*
X113532821Y-143471009D01*
X113601180Y-143452896D01*
X113677898Y-143456457D01*
G37*
X113677898Y-143456457D02*
X113710096Y-143464279D01*
X113771825Y-143492921D01*
X113824610Y-143536667D01*
X113861141Y-143589117D01*
X113866160Y-143600893D01*
X113873045Y-143631740D01*
X113877864Y-143677371D01*
X113879505Y-143723492D01*
X113879505Y-143810693D01*
X113697178Y-143810693D01*
X113621979Y-143810978D01*
X113569003Y-143812704D01*
X113535325Y-143817181D01*
X113518020Y-143825720D01*
X113514163Y-143839630D01*
X113520829Y-143860222D01*
X113532770Y-143884315D01*
X113566080Y-143924525D01*
X113612368Y-143944558D01*
X113668944Y-143943905D01*
X113733031Y-143922101D01*
X113788417Y-143895193D01*
X113834375Y-143931532D01*
X113880333Y-143967872D01*
X113837096Y-144007819D01*
X113779374Y-144045563D01*
X113708386Y-144068320D01*
X113632029Y-144074688D01*
X113558199Y-144063268D01*
X113546287Y-144059393D01*
X113481399Y-144025506D01*
X113433130Y-143974986D01*
X113400465Y-143906325D01*
X113382385Y-143818014D01*
X113382175Y-143816121D01*
X113380556Y-143719878D01*
X113387100Y-143685542D01*
X113514852Y-143685542D01*
X113526584Y-143690822D01*
X113558438Y-143694867D01*
X113605397Y-143697176D01*
X113635154Y-143697525D01*
X113690648Y-143697306D01*
X113725346Y-143695916D01*
X113743601Y-143692251D01*
X113749766Y-143685210D01*
X113748195Y-143673690D01*
X113746878Y-143669233D01*
X113724382Y-143627355D01*
X113689003Y-143593604D01*
X113657780Y-143578773D01*
X113616301Y-143579668D01*
X113574269Y-143598164D01*
X113539012Y-143628786D01*
X113517854Y-143666062D01*
X113514852Y-143685542D01*
X113387100Y-143685542D01*
X113396690Y-143635229D01*
X113428698Y-143564191D01*
X113474701Y-143508779D01*
X113532821Y-143471009D01*
X113601180Y-143452896D01*
X113677898Y-143456457D01*
G36*
X113217226Y-143463880D02*
G01*
X113290080Y-143494830D01*
X113313027Y-143509895D01*
X113342354Y-143533048D01*
X113360764Y-143551253D01*
X113363961Y-143557183D01*
X113354935Y-143570340D01*
X113331837Y-143592667D01*
X113313344Y-143608250D01*
X113262728Y-143648926D01*
X113222760Y-143615295D01*
X113191874Y-143593584D01*
X113161759Y-143586090D01*
X113127292Y-143587920D01*
X113072561Y-143601528D01*
X113034886Y-143629772D01*
X113011991Y-143675433D01*
X113001597Y-143741289D01*
X113001595Y-143741331D01*
X113002494Y-143814939D01*
X113016463Y-143868946D01*
X113044328Y-143905716D01*
X113063325Y-143918168D01*
X113113776Y-143933673D01*
X113167663Y-143933683D01*
X113214546Y-143918638D01*
X113225644Y-143911287D01*
X113253476Y-143892511D01*
X113275236Y-143889434D01*
X113298704Y-143903409D01*
X113324649Y-143928510D01*
X113365716Y-143970880D01*
X113320121Y-144008464D01*
X113249674Y-144050882D01*
X113170233Y-144071785D01*
X113087215Y-144070272D01*
X113032694Y-144056411D01*
X112968970Y-144022135D01*
X112918005Y-143968212D01*
X112894851Y-143930149D01*
X112876099Y-143875536D01*
X112866715Y-143806369D01*
X112866643Y-143731407D01*
X112875824Y-143659409D01*
X112894199Y-143599137D01*
X112897093Y-143592958D01*
X112939952Y-143532351D01*
X112997979Y-143488224D01*
X113066591Y-143461493D01*
X113141201Y-143453073D01*
X113217226Y-143463880D01*
G37*
X113217226Y-143463880D02*
X113290080Y-143494830D01*
X113313027Y-143509895D01*
X113342354Y-143533048D01*
X113360764Y-143551253D01*
X113363961Y-143557183D01*
X113354935Y-143570340D01*
X113331837Y-143592667D01*
X113313344Y-143608250D01*
X113262728Y-143648926D01*
X113222760Y-143615295D01*
X113191874Y-143593584D01*
X113161759Y-143586090D01*
X113127292Y-143587920D01*
X113072561Y-143601528D01*
X113034886Y-143629772D01*
X113011991Y-143675433D01*
X113001597Y-143741289D01*
X113001595Y-143741331D01*
X113002494Y-143814939D01*
X113016463Y-143868946D01*
X113044328Y-143905716D01*
X113063325Y-143918168D01*
X113113776Y-143933673D01*
X113167663Y-143933683D01*
X113214546Y-143918638D01*
X113225644Y-143911287D01*
X113253476Y-143892511D01*
X113275236Y-143889434D01*
X113298704Y-143903409D01*
X113324649Y-143928510D01*
X113365716Y-143970880D01*
X113320121Y-144008464D01*
X113249674Y-144050882D01*
X113170233Y-144071785D01*
X113087215Y-144070272D01*
X113032694Y-144056411D01*
X112968970Y-144022135D01*
X112918005Y-143968212D01*
X112894851Y-143930149D01*
X112876099Y-143875536D01*
X112866715Y-143806369D01*
X112866643Y-143731407D01*
X112875824Y-143659409D01*
X112894199Y-143599137D01*
X112897093Y-143592958D01*
X112939952Y-143532351D01*
X112997979Y-143488224D01*
X113066591Y-143461493D01*
X113141201Y-143453073D01*
X113217226Y-143463880D01*
G36*
X111993367Y-143654342D02*
G01*
X111994555Y-143746563D01*
X111998897Y-143816610D01*
X112007558Y-143867381D01*
X112021704Y-143901772D01*
X112042500Y-143922679D01*
X112071110Y-143933000D01*
X112106535Y-143935636D01*
X112143636Y-143932682D01*
X112171818Y-143921889D01*
X112192243Y-143900360D01*
X112206079Y-143865199D01*
X112214491Y-143813510D01*
X112218643Y-143742394D01*
X112219703Y-143654342D01*
X112219703Y-143458614D01*
X112358020Y-143458614D01*
X112358020Y-144062179D01*
X112288862Y-144062179D01*
X112247170Y-144060489D01*
X112225701Y-144054556D01*
X112219703Y-144043293D01*
X112216091Y-144033261D01*
X112201714Y-144035383D01*
X112172736Y-144049580D01*
X112106319Y-144071480D01*
X112035875Y-144069928D01*
X111968377Y-144046147D01*
X111936233Y-144027362D01*
X111911715Y-144007022D01*
X111893804Y-143981573D01*
X111881479Y-143947458D01*
X111873723Y-143901121D01*
X111869516Y-143839007D01*
X111867840Y-143757561D01*
X111867624Y-143694578D01*
X111867624Y-143458614D01*
X111993367Y-143458614D01*
X111993367Y-143654342D01*
G37*
X111993367Y-143654342D02*
X111994555Y-143746563D01*
X111998897Y-143816610D01*
X112007558Y-143867381D01*
X112021704Y-143901772D01*
X112042500Y-143922679D01*
X112071110Y-143933000D01*
X112106535Y-143935636D01*
X112143636Y-143932682D01*
X112171818Y-143921889D01*
X112192243Y-143900360D01*
X112206079Y-143865199D01*
X112214491Y-143813510D01*
X112218643Y-143742394D01*
X112219703Y-143654342D01*
X112219703Y-143458614D01*
X112358020Y-143458614D01*
X112358020Y-144062179D01*
X112288862Y-144062179D01*
X112247170Y-144060489D01*
X112225701Y-144054556D01*
X112219703Y-144043293D01*
X112216091Y-144033261D01*
X112201714Y-144035383D01*
X112172736Y-144049580D01*
X112106319Y-144071480D01*
X112035875Y-144069928D01*
X111968377Y-144046147D01*
X111936233Y-144027362D01*
X111911715Y-144007022D01*
X111893804Y-143981573D01*
X111881479Y-143947458D01*
X111873723Y-143901121D01*
X111869516Y-143839007D01*
X111867840Y-143757561D01*
X111867624Y-143694578D01*
X111867624Y-143458614D01*
X111993367Y-143458614D01*
X111993367Y-143654342D01*
G36*
X111610762Y-143466055D02*
G01*
X111674363Y-143500692D01*
X111724123Y-143555372D01*
X111747568Y-143599842D01*
X111757634Y-143639121D01*
X111764156Y-143695116D01*
X111766951Y-143759621D01*
X111765836Y-143824429D01*
X111760626Y-143881334D01*
X111754541Y-143911727D01*
X111734014Y-143953306D01*
X111698463Y-143997468D01*
X111655619Y-144036087D01*
X111613211Y-144061034D01*
X111612177Y-144061430D01*
X111559553Y-144072331D01*
X111497188Y-144072601D01*
X111437924Y-144062676D01*
X111415040Y-144054722D01*
X111356102Y-144021300D01*
X111313890Y-143977511D01*
X111286156Y-143919538D01*
X111270651Y-143843565D01*
X111267143Y-143803771D01*
X111267590Y-143753766D01*
X111402376Y-143753766D01*
X111406917Y-143826732D01*
X111419986Y-143882334D01*
X111440756Y-143917861D01*
X111455552Y-143928020D01*
X111493464Y-143935104D01*
X111538527Y-143933007D01*
X111577487Y-143922812D01*
X111587704Y-143917204D01*
X111614659Y-143884538D01*
X111632451Y-143834545D01*
X111640024Y-143773705D01*
X111636325Y-143708497D01*
X111628057Y-143669253D01*
X111604320Y-143623805D01*
X111566849Y-143595396D01*
X111521720Y-143585573D01*
X111475011Y-143595887D01*
X111439132Y-143621112D01*
X111420277Y-143641925D01*
X111409272Y-143662439D01*
X111404026Y-143690203D01*
X111402449Y-143732762D01*
X111402376Y-143753766D01*
X111267590Y-143753766D01*
X111268094Y-143697580D01*
X111285388Y-143610501D01*
X111319029Y-143542530D01*
X111369018Y-143493664D01*
X111435356Y-143463899D01*
X111449601Y-143460448D01*
X111535210Y-143452345D01*
X111610762Y-143466055D01*
G37*
X111610762Y-143466055D02*
X111674363Y-143500692D01*
X111724123Y-143555372D01*
X111747568Y-143599842D01*
X111757634Y-143639121D01*
X111764156Y-143695116D01*
X111766951Y-143759621D01*
X111765836Y-143824429D01*
X111760626Y-143881334D01*
X111754541Y-143911727D01*
X111734014Y-143953306D01*
X111698463Y-143997468D01*
X111655619Y-144036087D01*
X111613211Y-144061034D01*
X111612177Y-144061430D01*
X111559553Y-144072331D01*
X111497188Y-144072601D01*
X111437924Y-144062676D01*
X111415040Y-144054722D01*
X111356102Y-144021300D01*
X111313890Y-143977511D01*
X111286156Y-143919538D01*
X111270651Y-143843565D01*
X111267143Y-143803771D01*
X111267590Y-143753766D01*
X111402376Y-143753766D01*
X111406917Y-143826732D01*
X111419986Y-143882334D01*
X111440756Y-143917861D01*
X111455552Y-143928020D01*
X111493464Y-143935104D01*
X111538527Y-143933007D01*
X111577487Y-143922812D01*
X111587704Y-143917204D01*
X111614659Y-143884538D01*
X111632451Y-143834545D01*
X111640024Y-143773705D01*
X111636325Y-143708497D01*
X111628057Y-143669253D01*
X111604320Y-143623805D01*
X111566849Y-143595396D01*
X111521720Y-143585573D01*
X111475011Y-143595887D01*
X111439132Y-143621112D01*
X111420277Y-143641925D01*
X111409272Y-143662439D01*
X111404026Y-143690203D01*
X111402449Y-143732762D01*
X111402376Y-143753766D01*
X111267590Y-143753766D01*
X111268094Y-143697580D01*
X111285388Y-143610501D01*
X111319029Y-143542530D01*
X111369018Y-143493664D01*
X111435356Y-143463899D01*
X111449601Y-143460448D01*
X111535210Y-143452345D01*
X111610762Y-143466055D01*
G36*
X111014017Y-143456452D02*
G01*
X111061634Y-143465482D01*
X111111034Y-143484370D01*
X111116312Y-143486777D01*
X111153774Y-143506476D01*
X111179717Y-143524781D01*
X111188103Y-143536508D01*
X111180117Y-143555632D01*
X111160720Y-143583850D01*
X111152110Y-143594384D01*
X111116628Y-143635847D01*
X111070885Y-143608858D01*
X111027350Y-143590878D01*
X110977050Y-143581267D01*
X110928812Y-143580660D01*
X110891467Y-143589691D01*
X110882505Y-143595327D01*
X110865437Y-143621171D01*
X110863363Y-143650941D01*
X110876134Y-143674197D01*
X110883688Y-143678708D01*
X110906325Y-143684309D01*
X110946115Y-143690892D01*
X110995166Y-143697183D01*
X111004215Y-143698170D01*
X111082996Y-143711798D01*
X111140136Y-143734946D01*
X111178030Y-143769752D01*
X111199079Y-143818354D01*
X111205635Y-143877718D01*
X111196577Y-143945198D01*
X111167164Y-143998188D01*
X111117278Y-144036783D01*
X111046800Y-144061081D01*
X110968565Y-144070667D01*
X110904766Y-144070552D01*
X110853016Y-144061845D01*
X110817673Y-144049825D01*
X110773017Y-144028880D01*
X110731747Y-144004574D01*
X110717079Y-143993876D01*
X110679357Y-143963084D01*
X110724852Y-143917049D01*
X110770347Y-143871013D01*
X110822072Y-143905243D01*
X110873952Y-143930952D01*
X110929351Y-143944399D01*
X110982605Y-143945818D01*
X111028049Y-143935443D01*
X111060016Y-143913507D01*
X111070338Y-143894998D01*
X111068789Y-143865314D01*
X111043140Y-143842615D01*
X110993460Y-143826940D01*
X110939031Y-143819695D01*
X110855264Y-143805873D01*
X110793033Y-143779796D01*
X110751507Y-143740699D01*
X110729853Y-143687820D01*
X110726853Y-143625126D01*
X110741671Y-143559642D01*
X110775454Y-143510144D01*
X110828505Y-143476408D01*
X110901126Y-143458207D01*
X110954928Y-143454639D01*
X111014017Y-143456452D01*
G37*
X111014017Y-143456452D02*
X111061634Y-143465482D01*
X111111034Y-143484370D01*
X111116312Y-143486777D01*
X111153774Y-143506476D01*
X111179717Y-143524781D01*
X111188103Y-143536508D01*
X111180117Y-143555632D01*
X111160720Y-143583850D01*
X111152110Y-143594384D01*
X111116628Y-143635847D01*
X111070885Y-143608858D01*
X111027350Y-143590878D01*
X110977050Y-143581267D01*
X110928812Y-143580660D01*
X110891467Y-143589691D01*
X110882505Y-143595327D01*
X110865437Y-143621171D01*
X110863363Y-143650941D01*
X110876134Y-143674197D01*
X110883688Y-143678708D01*
X110906325Y-143684309D01*
X110946115Y-143690892D01*
X110995166Y-143697183D01*
X111004215Y-143698170D01*
X111082996Y-143711798D01*
X111140136Y-143734946D01*
X111178030Y-143769752D01*
X111199079Y-143818354D01*
X111205635Y-143877718D01*
X111196577Y-143945198D01*
X111167164Y-143998188D01*
X111117278Y-144036783D01*
X111046800Y-144061081D01*
X110968565Y-144070667D01*
X110904766Y-144070552D01*
X110853016Y-144061845D01*
X110817673Y-144049825D01*
X110773017Y-144028880D01*
X110731747Y-144004574D01*
X110717079Y-143993876D01*
X110679357Y-143963084D01*
X110724852Y-143917049D01*
X110770347Y-143871013D01*
X110822072Y-143905243D01*
X110873952Y-143930952D01*
X110929351Y-143944399D01*
X110982605Y-143945818D01*
X111028049Y-143935443D01*
X111060016Y-143913507D01*
X111070338Y-143894998D01*
X111068789Y-143865314D01*
X111043140Y-143842615D01*
X110993460Y-143826940D01*
X110939031Y-143819695D01*
X110855264Y-143805873D01*
X110793033Y-143779796D01*
X110751507Y-143740699D01*
X110729853Y-143687820D01*
X110726853Y-143625126D01*
X110741671Y-143559642D01*
X110775454Y-143510144D01*
X110828505Y-143476408D01*
X110901126Y-143458207D01*
X110954928Y-143454639D01*
X111014017Y-143456452D01*
G36*
X109643301Y-143472614D02*
G01*
X109655832Y-143478514D01*
X109699201Y-143510283D01*
X109740210Y-143556646D01*
X109770832Y-143607696D01*
X109779541Y-143631166D01*
X109787488Y-143673091D01*
X109792226Y-143723757D01*
X109792801Y-143744679D01*
X109792871Y-143810693D01*
X109412917Y-143810693D01*
X109421017Y-143845273D01*
X109440896Y-143886170D01*
X109475653Y-143921514D01*
X109517002Y-143944282D01*
X109543351Y-143949010D01*
X109579084Y-143943273D01*
X109621718Y-143928882D01*
X109636201Y-143922262D01*
X109689760Y-143895513D01*
X109735467Y-143930376D01*
X109761842Y-143953955D01*
X109775876Y-143973417D01*
X109776586Y-143979129D01*
X109764049Y-143992973D01*
X109736572Y-144014012D01*
X109711634Y-144030425D01*
X109644336Y-144059930D01*
X109568890Y-144073284D01*
X109494112Y-144069812D01*
X109434505Y-144051663D01*
X109373059Y-144012784D01*
X109329392Y-143961595D01*
X109302074Y-143895367D01*
X109289678Y-143811371D01*
X109288579Y-143772936D01*
X109292978Y-143684861D01*
X109293518Y-143682299D01*
X109419418Y-143682299D01*
X109422885Y-143690558D01*
X109437137Y-143695113D01*
X109466530Y-143697065D01*
X109515425Y-143697517D01*
X109534252Y-143697525D01*
X109591533Y-143696843D01*
X109627859Y-143694364D01*
X109647396Y-143689443D01*
X109654310Y-143681434D01*
X109654555Y-143678862D01*
X109646664Y-143658423D01*
X109626915Y-143629789D01*
X109618425Y-143619763D01*
X109586906Y-143591408D01*
X109554051Y-143580259D01*
X109536349Y-143579327D01*
X109488461Y-143590981D01*
X109448301Y-143622285D01*
X109422827Y-143667752D01*
X109422375Y-143669233D01*
X109419418Y-143682299D01*
X109293518Y-143682299D01*
X109307608Y-143615510D01*
X109333962Y-143560025D01*
X109366193Y-143520639D01*
X109425783Y-143477931D01*
X109495832Y-143455109D01*
X109570339Y-143453046D01*
X109643301Y-143472614D01*
G37*
X109643301Y-143472614D02*
X109655832Y-143478514D01*
X109699201Y-143510283D01*
X109740210Y-143556646D01*
X109770832Y-143607696D01*
X109779541Y-143631166D01*
X109787488Y-143673091D01*
X109792226Y-143723757D01*
X109792801Y-143744679D01*
X109792871Y-143810693D01*
X109412917Y-143810693D01*
X109421017Y-143845273D01*
X109440896Y-143886170D01*
X109475653Y-143921514D01*
X109517002Y-143944282D01*
X109543351Y-143949010D01*
X109579084Y-143943273D01*
X109621718Y-143928882D01*
X109636201Y-143922262D01*
X109689760Y-143895513D01*
X109735467Y-143930376D01*
X109761842Y-143953955D01*
X109775876Y-143973417D01*
X109776586Y-143979129D01*
X109764049Y-143992973D01*
X109736572Y-144014012D01*
X109711634Y-144030425D01*
X109644336Y-144059930D01*
X109568890Y-144073284D01*
X109494112Y-144069812D01*
X109434505Y-144051663D01*
X109373059Y-144012784D01*
X109329392Y-143961595D01*
X109302074Y-143895367D01*
X109289678Y-143811371D01*
X109288579Y-143772936D01*
X109292978Y-143684861D01*
X109293518Y-143682299D01*
X109419418Y-143682299D01*
X109422885Y-143690558D01*
X109437137Y-143695113D01*
X109466530Y-143697065D01*
X109515425Y-143697517D01*
X109534252Y-143697525D01*
X109591533Y-143696843D01*
X109627859Y-143694364D01*
X109647396Y-143689443D01*
X109654310Y-143681434D01*
X109654555Y-143678862D01*
X109646664Y-143658423D01*
X109626915Y-143629789D01*
X109618425Y-143619763D01*
X109586906Y-143591408D01*
X109554051Y-143580259D01*
X109536349Y-143579327D01*
X109488461Y-143590981D01*
X109448301Y-143622285D01*
X109422827Y-143667752D01*
X109422375Y-143669233D01*
X109419418Y-143682299D01*
X109293518Y-143682299D01*
X109307608Y-143615510D01*
X109333962Y-143560025D01*
X109366193Y-143520639D01*
X109425783Y-143477931D01*
X109495832Y-143455109D01*
X109570339Y-143453046D01*
X109643301Y-143472614D01*
G36*
X108461739Y-143465148D02*
G01*
X108527521Y-143494231D01*
X108577460Y-143542793D01*
X108611626Y-143610908D01*
X108630093Y-143698651D01*
X108631417Y-143712351D01*
X108632454Y-143808939D01*
X108619007Y-143893602D01*
X108591892Y-143962221D01*
X108577373Y-143984294D01*
X108526799Y-144031011D01*
X108462391Y-144061268D01*
X108390334Y-144073824D01*
X108316815Y-144067439D01*
X108260928Y-144047772D01*
X108212868Y-144014629D01*
X108173588Y-143971175D01*
X108172908Y-143970158D01*
X108156956Y-143943338D01*
X108146590Y-143916368D01*
X108140312Y-143882332D01*
X108136627Y-143834310D01*
X108135003Y-143794931D01*
X108134328Y-143759219D01*
X108260045Y-143759219D01*
X108261274Y-143794770D01*
X108265734Y-143842094D01*
X108273603Y-143872465D01*
X108287793Y-143894072D01*
X108301083Y-143906694D01*
X108348198Y-143933122D01*
X108397495Y-143936653D01*
X108443407Y-143917639D01*
X108466362Y-143896331D01*
X108482904Y-143874859D01*
X108492579Y-143854313D01*
X108496826Y-143827574D01*
X108497080Y-143787523D01*
X108495772Y-143750638D01*
X108492957Y-143697947D01*
X108488495Y-143663772D01*
X108480452Y-143641480D01*
X108466897Y-143624442D01*
X108456155Y-143614703D01*
X108411223Y-143589123D01*
X108362751Y-143587847D01*
X108322106Y-143602999D01*
X108287433Y-143634642D01*
X108266776Y-143686620D01*
X108260045Y-143759219D01*
X108134328Y-143759219D01*
X108133521Y-143716621D01*
X108136052Y-143658056D01*
X108143638Y-143614007D01*
X108157319Y-143579248D01*
X108178135Y-143548551D01*
X108185853Y-143539436D01*
X108234111Y-143494021D01*
X108285872Y-143467493D01*
X108349172Y-143456379D01*
X108380039Y-143455471D01*
X108461739Y-143465148D01*
G37*
X108461739Y-143465148D02*
X108527521Y-143494231D01*
X108577460Y-143542793D01*
X108611626Y-143610908D01*
X108630093Y-143698651D01*
X108631417Y-143712351D01*
X108632454Y-143808939D01*
X108619007Y-143893602D01*
X108591892Y-143962221D01*
X108577373Y-143984294D01*
X108526799Y-144031011D01*
X108462391Y-144061268D01*
X108390334Y-144073824D01*
X108316815Y-144067439D01*
X108260928Y-144047772D01*
X108212868Y-144014629D01*
X108173588Y-143971175D01*
X108172908Y-143970158D01*
X108156956Y-143943338D01*
X108146590Y-143916368D01*
X108140312Y-143882332D01*
X108136627Y-143834310D01*
X108135003Y-143794931D01*
X108134328Y-143759219D01*
X108260045Y-143759219D01*
X108261274Y-143794770D01*
X108265734Y-143842094D01*
X108273603Y-143872465D01*
X108287793Y-143894072D01*
X108301083Y-143906694D01*
X108348198Y-143933122D01*
X108397495Y-143936653D01*
X108443407Y-143917639D01*
X108466362Y-143896331D01*
X108482904Y-143874859D01*
X108492579Y-143854313D01*
X108496826Y-143827574D01*
X108497080Y-143787523D01*
X108495772Y-143750638D01*
X108492957Y-143697947D01*
X108488495Y-143663772D01*
X108480452Y-143641480D01*
X108466897Y-143624442D01*
X108456155Y-143614703D01*
X108411223Y-143589123D01*
X108362751Y-143587847D01*
X108322106Y-143602999D01*
X108287433Y-143634642D01*
X108266776Y-143686620D01*
X108260045Y-143759219D01*
X108134328Y-143759219D01*
X108133521Y-143716621D01*
X108136052Y-143658056D01*
X108143638Y-143614007D01*
X108157319Y-143579248D01*
X108178135Y-143548551D01*
X108185853Y-143539436D01*
X108234111Y-143494021D01*
X108285872Y-143467493D01*
X108349172Y-143456379D01*
X108380039Y-143455471D01*
X108461739Y-143465148D01*
G36*
X113032581Y-144404970D02*
G01*
X113092685Y-144420597D01*
X113143021Y-144452848D01*
X113167393Y-144476940D01*
X113207345Y-144533895D01*
X113230242Y-144599965D01*
X113238108Y-144681182D01*
X113238148Y-144687748D01*
X113238218Y-144753763D01*
X112858264Y-144753763D01*
X112866363Y-144788342D01*
X112880987Y-144819659D01*
X112906581Y-144852291D01*
X112911935Y-144857500D01*
X112957943Y-144885694D01*
X113010410Y-144890475D01*
X113070803Y-144871926D01*
X113081040Y-144866931D01*
X113112439Y-144851745D01*
X113133470Y-144843094D01*
X113137139Y-144842293D01*
X113149948Y-144850063D01*
X113174378Y-144869072D01*
X113186779Y-144879460D01*
X113212476Y-144903321D01*
X113220915Y-144919077D01*
X113215058Y-144933571D01*
X113211928Y-144937534D01*
X113190725Y-144954879D01*
X113155738Y-144975959D01*
X113131337Y-144988265D01*
X113062072Y-145009946D01*
X112985388Y-145016971D01*
X112912765Y-145008647D01*
X112892426Y-145002686D01*
X112829476Y-144968952D01*
X112782815Y-144917045D01*
X112752173Y-144846459D01*
X112737282Y-144756692D01*
X112735647Y-144709753D01*
X112740421Y-144641413D01*
X112860990Y-144641413D01*
X112872652Y-144646465D01*
X112903998Y-144650429D01*
X112949571Y-144652768D01*
X112980446Y-144653169D01*
X113035981Y-144652783D01*
X113071033Y-144650975D01*
X113090262Y-144646773D01*
X113098330Y-144639203D01*
X113099901Y-144628218D01*
X113089121Y-144594381D01*
X113061980Y-144560940D01*
X113026277Y-144535272D01*
X112990560Y-144524772D01*
X112942048Y-144534086D01*
X112900053Y-144561013D01*
X112870936Y-144599827D01*
X112860990Y-144641413D01*
X112740421Y-144641413D01*
X112742599Y-144610236D01*
X112764055Y-144530949D01*
X112800470Y-144471263D01*
X112852297Y-144430549D01*
X112919990Y-144408179D01*
X112956662Y-144403871D01*
X113032581Y-144404970D01*
G37*
X113032581Y-144404970D02*
X113092685Y-144420597D01*
X113143021Y-144452848D01*
X113167393Y-144476940D01*
X113207345Y-144533895D01*
X113230242Y-144599965D01*
X113238108Y-144681182D01*
X113238148Y-144687748D01*
X113238218Y-144753763D01*
X112858264Y-144753763D01*
X112866363Y-144788342D01*
X112880987Y-144819659D01*
X112906581Y-144852291D01*
X112911935Y-144857500D01*
X112957943Y-144885694D01*
X113010410Y-144890475D01*
X113070803Y-144871926D01*
X113081040Y-144866931D01*
X113112439Y-144851745D01*
X113133470Y-144843094D01*
X113137139Y-144842293D01*
X113149948Y-144850063D01*
X113174378Y-144869072D01*
X113186779Y-144879460D01*
X113212476Y-144903321D01*
X113220915Y-144919077D01*
X113215058Y-144933571D01*
X113211928Y-144937534D01*
X113190725Y-144954879D01*
X113155738Y-144975959D01*
X113131337Y-144988265D01*
X113062072Y-145009946D01*
X112985388Y-145016971D01*
X112912765Y-145008647D01*
X112892426Y-145002686D01*
X112829476Y-144968952D01*
X112782815Y-144917045D01*
X112752173Y-144846459D01*
X112737282Y-144756692D01*
X112735647Y-144709753D01*
X112740421Y-144641413D01*
X112860990Y-144641413D01*
X112872652Y-144646465D01*
X112903998Y-144650429D01*
X112949571Y-144652768D01*
X112980446Y-144653169D01*
X113035981Y-144652783D01*
X113071033Y-144650975D01*
X113090262Y-144646773D01*
X113098330Y-144639203D01*
X113099901Y-144628218D01*
X113089121Y-144594381D01*
X113061980Y-144560940D01*
X113026277Y-144535272D01*
X112990560Y-144524772D01*
X112942048Y-144534086D01*
X112900053Y-144561013D01*
X112870936Y-144599827D01*
X112860990Y-144641413D01*
X112740421Y-144641413D01*
X112742599Y-144610236D01*
X112764055Y-144530949D01*
X112800470Y-144471263D01*
X112852297Y-144430549D01*
X112919990Y-144408179D01*
X112956662Y-144403871D01*
X113032581Y-144404970D01*
G36*
X112635255Y-144401486D02*
G01*
X112683595Y-144411015D01*
X112711114Y-144425125D01*
X112740064Y-144448568D01*
X112698876Y-144500571D01*
X112673482Y-144532064D01*
X112656238Y-144547428D01*
X112639102Y-144549776D01*
X112614027Y-144542217D01*
X112602257Y-144537941D01*
X112554270Y-144531631D01*
X112510324Y-144545156D01*
X112478060Y-144575710D01*
X112472819Y-144585452D01*
X112467112Y-144611258D01*
X112462706Y-144658817D01*
X112459811Y-144724758D01*
X112458631Y-144805710D01*
X112458614Y-144817226D01*
X112458614Y-145017822D01*
X112320297Y-145017822D01*
X112320297Y-144401683D01*
X112389456Y-144401683D01*
X112429333Y-144402725D01*
X112450107Y-144407358D01*
X112457789Y-144417849D01*
X112458614Y-144427745D01*
X112458614Y-144453806D01*
X112491745Y-144427745D01*
X112529735Y-144409965D01*
X112580770Y-144401174D01*
X112635255Y-144401486D01*
G37*
X112635255Y-144401486D02*
X112683595Y-144411015D01*
X112711114Y-144425125D01*
X112740064Y-144448568D01*
X112698876Y-144500571D01*
X112673482Y-144532064D01*
X112656238Y-144547428D01*
X112639102Y-144549776D01*
X112614027Y-144542217D01*
X112602257Y-144537941D01*
X112554270Y-144531631D01*
X112510324Y-144545156D01*
X112478060Y-144575710D01*
X112472819Y-144585452D01*
X112467112Y-144611258D01*
X112462706Y-144658817D01*
X112459811Y-144724758D01*
X112458631Y-144805710D01*
X112458614Y-144817226D01*
X112458614Y-145017822D01*
X112320297Y-145017822D01*
X112320297Y-144401683D01*
X112389456Y-144401683D01*
X112429333Y-144402725D01*
X112450107Y-144407358D01*
X112457789Y-144417849D01*
X112458614Y-144427745D01*
X112458614Y-144453806D01*
X112491745Y-144427745D01*
X112529735Y-144409965D01*
X112580770Y-144401174D01*
X112635255Y-144401486D01*
G36*
X112038411Y-144405417D02*
G01*
X112091411Y-144418290D01*
X112106731Y-144425110D01*
X112136428Y-144442974D01*
X112159220Y-144463093D01*
X112176083Y-144488962D01*
X112187998Y-144524073D01*
X112195942Y-144571920D01*
X112200894Y-144635996D01*
X112203831Y-144719794D01*
X112204947Y-144775768D01*
X112209052Y-145017822D01*
X112138932Y-145017822D01*
X112096393Y-145016038D01*
X112074476Y-145009942D01*
X112068812Y-144999706D01*
X112065821Y-144988637D01*
X112052451Y-144990754D01*
X112034233Y-144999629D01*
X111988624Y-145013233D01*
X111930007Y-145016899D01*
X111868354Y-145010903D01*
X111813638Y-144995521D01*
X111808730Y-144993386D01*
X111758723Y-144958255D01*
X111725756Y-144909419D01*
X111710587Y-144852333D01*
X111711746Y-144831824D01*
X111835508Y-144831824D01*
X111846413Y-144859425D01*
X111878745Y-144879204D01*
X111930910Y-144889819D01*
X111958787Y-144891228D01*
X112005247Y-144887620D01*
X112036129Y-144873597D01*
X112043664Y-144866931D01*
X112064076Y-144830666D01*
X112068812Y-144797773D01*
X112068812Y-144753763D01*
X112007513Y-144753763D01*
X111936256Y-144757395D01*
X111886276Y-144768818D01*
X111854696Y-144788824D01*
X111847626Y-144797743D01*
X111835508Y-144831824D01*
X111711746Y-144831824D01*
X111713971Y-144792456D01*
X111736663Y-144735244D01*
X111767624Y-144696580D01*
X111786376Y-144679864D01*
X111804733Y-144668878D01*
X111828619Y-144662180D01*
X111863957Y-144658326D01*
X111916669Y-144655873D01*
X111937577Y-144655168D01*
X112068812Y-144650879D01*
X112068620Y-144611158D01*
X112063537Y-144569405D01*
X112045162Y-144544158D01*
X112008039Y-144528030D01*
X112007043Y-144527742D01*
X111954410Y-144521400D01*
X111902906Y-144529684D01*
X111864630Y-144549827D01*
X111849272Y-144559773D01*
X111832730Y-144558397D01*
X111807275Y-144543987D01*
X111792328Y-144533817D01*
X111763091Y-144512088D01*
X111744980Y-144495800D01*
X111742074Y-144491137D01*
X111754040Y-144467005D01*
X111789396Y-144438185D01*
X111804753Y-144428461D01*
X111848901Y-144411714D01*
X111908398Y-144402227D01*
X111974487Y-144400095D01*
X112038411Y-144405417D01*
G37*
X112038411Y-144405417D02*
X112091411Y-144418290D01*
X112106731Y-144425110D01*
X112136428Y-144442974D01*
X112159220Y-144463093D01*
X112176083Y-144488962D01*
X112187998Y-144524073D01*
X112195942Y-144571920D01*
X112200894Y-144635996D01*
X112203831Y-144719794D01*
X112204947Y-144775768D01*
X112209052Y-145017822D01*
X112138932Y-145017822D01*
X112096393Y-145016038D01*
X112074476Y-145009942D01*
X112068812Y-144999706D01*
X112065821Y-144988637D01*
X112052451Y-144990754D01*
X112034233Y-144999629D01*
X111988624Y-145013233D01*
X111930007Y-145016899D01*
X111868354Y-145010903D01*
X111813638Y-144995521D01*
X111808730Y-144993386D01*
X111758723Y-144958255D01*
X111725756Y-144909419D01*
X111710587Y-144852333D01*
X111711746Y-144831824D01*
X111835508Y-144831824D01*
X111846413Y-144859425D01*
X111878745Y-144879204D01*
X111930910Y-144889819D01*
X111958787Y-144891228D01*
X112005247Y-144887620D01*
X112036129Y-144873597D01*
X112043664Y-144866931D01*
X112064076Y-144830666D01*
X112068812Y-144797773D01*
X112068812Y-144753763D01*
X112007513Y-144753763D01*
X111936256Y-144757395D01*
X111886276Y-144768818D01*
X111854696Y-144788824D01*
X111847626Y-144797743D01*
X111835508Y-144831824D01*
X111711746Y-144831824D01*
X111713971Y-144792456D01*
X111736663Y-144735244D01*
X111767624Y-144696580D01*
X111786376Y-144679864D01*
X111804733Y-144668878D01*
X111828619Y-144662180D01*
X111863957Y-144658326D01*
X111916669Y-144655873D01*
X111937577Y-144655168D01*
X112068812Y-144650879D01*
X112068620Y-144611158D01*
X112063537Y-144569405D01*
X112045162Y-144544158D01*
X112008039Y-144528030D01*
X112007043Y-144527742D01*
X111954410Y-144521400D01*
X111902906Y-144529684D01*
X111864630Y-144549827D01*
X111849272Y-144559773D01*
X111832730Y-144558397D01*
X111807275Y-144543987D01*
X111792328Y-144533817D01*
X111763091Y-144512088D01*
X111744980Y-144495800D01*
X111742074Y-144491137D01*
X111754040Y-144467005D01*
X111789396Y-144438185D01*
X111804753Y-144428461D01*
X111848901Y-144411714D01*
X111908398Y-144402227D01*
X111974487Y-144400095D01*
X112038411Y-144405417D01*
G36*
X111281524Y-144404237D02*
G01*
X111331255Y-144407971D01*
X111461291Y-144797773D01*
X111481678Y-144728614D01*
X111493946Y-144685874D01*
X111510085Y-144628115D01*
X111527512Y-144564625D01*
X111536726Y-144530570D01*
X111571388Y-144401683D01*
X111714391Y-144401683D01*
X111671646Y-144536857D01*
X111650596Y-144603342D01*
X111625167Y-144683539D01*
X111598610Y-144767193D01*
X111574902Y-144841782D01*
X111520902Y-145011535D01*
X111462598Y-145015328D01*
X111404295Y-145019122D01*
X111372679Y-144914734D01*
X111353182Y-144849889D01*
X111331904Y-144778400D01*
X111313308Y-144715263D01*
X111312574Y-144712750D01*
X111298684Y-144669969D01*
X111286429Y-144640779D01*
X111277846Y-144629741D01*
X111276082Y-144631018D01*
X111269891Y-144648130D01*
X111258128Y-144684787D01*
X111242225Y-144736378D01*
X111223614Y-144798294D01*
X111213543Y-144832352D01*
X111159007Y-145017822D01*
X111043264Y-145017822D01*
X110950737Y-144725471D01*
X110924744Y-144643462D01*
X110901066Y-144568987D01*
X110880820Y-144505544D01*
X110865126Y-144456632D01*
X110855102Y-144425749D01*
X110852055Y-144416726D01*
X110854467Y-144407487D01*
X110873408Y-144403441D01*
X110912823Y-144403846D01*
X110918993Y-144404152D01*
X110992086Y-144407971D01*
X111039957Y-144584010D01*
X111057553Y-144648211D01*
X111073277Y-144704649D01*
X111085746Y-144748422D01*
X111093574Y-144774630D01*
X111095020Y-144778903D01*
X111101014Y-144773990D01*
X111113101Y-144748532D01*
X111129893Y-144705997D01*
X111150003Y-144649850D01*
X111167003Y-144599130D01*
X111231794Y-144400504D01*
X111281524Y-144404237D01*
G37*
X111281524Y-144404237D02*
X111331255Y-144407971D01*
X111461291Y-144797773D01*
X111481678Y-144728614D01*
X111493946Y-144685874D01*
X111510085Y-144628115D01*
X111527512Y-144564625D01*
X111536726Y-144530570D01*
X111571388Y-144401683D01*
X111714391Y-144401683D01*
X111671646Y-144536857D01*
X111650596Y-144603342D01*
X111625167Y-144683539D01*
X111598610Y-144767193D01*
X111574902Y-144841782D01*
X111520902Y-145011535D01*
X111462598Y-145015328D01*
X111404295Y-145019122D01*
X111372679Y-144914734D01*
X111353182Y-144849889D01*
X111331904Y-144778400D01*
X111313308Y-144715263D01*
X111312574Y-144712750D01*
X111298684Y-144669969D01*
X111286429Y-144640779D01*
X111277846Y-144629741D01*
X111276082Y-144631018D01*
X111269891Y-144648130D01*
X111258128Y-144684787D01*
X111242225Y-144736378D01*
X111223614Y-144798294D01*
X111213543Y-144832352D01*
X111159007Y-145017822D01*
X111043264Y-145017822D01*
X110950737Y-144725471D01*
X110924744Y-144643462D01*
X110901066Y-144568987D01*
X110880820Y-144505544D01*
X110865126Y-144456632D01*
X110855102Y-144425749D01*
X110852055Y-144416726D01*
X110854467Y-144407487D01*
X110873408Y-144403441D01*
X110912823Y-144403846D01*
X110918993Y-144404152D01*
X110992086Y-144407971D01*
X111039957Y-144584010D01*
X111057553Y-144648211D01*
X111073277Y-144704649D01*
X111085746Y-144748422D01*
X111093574Y-144774630D01*
X111095020Y-144778903D01*
X111101014Y-144773990D01*
X111113101Y-144748532D01*
X111129893Y-144705997D01*
X111150003Y-144649850D01*
X111167003Y-144599130D01*
X111231794Y-144400504D01*
X111281524Y-144404237D01*
G36*
X110798812Y-145017822D02*
G01*
X110729654Y-145017822D01*
X110689512Y-145016645D01*
X110668606Y-145011772D01*
X110661078Y-145001186D01*
X110660495Y-144994029D01*
X110659226Y-144979676D01*
X110651221Y-144976923D01*
X110630185Y-144985771D01*
X110613827Y-144994029D01*
X110551023Y-145013597D01*
X110482752Y-145014729D01*
X110427248Y-145000135D01*
X110375562Y-144964877D01*
X110336162Y-144912835D01*
X110314587Y-144851450D01*
X110314038Y-144848018D01*
X110310833Y-144810571D01*
X110309239Y-144756813D01*
X110309367Y-144716155D01*
X110446721Y-144716155D01*
X110449903Y-144770194D01*
X110457141Y-144814735D01*
X110466940Y-144839888D01*
X110504011Y-144874260D01*
X110548026Y-144886582D01*
X110593416Y-144876618D01*
X110632203Y-144846895D01*
X110646892Y-144826905D01*
X110655481Y-144803050D01*
X110659504Y-144768230D01*
X110660495Y-144715930D01*
X110658722Y-144664139D01*
X110654037Y-144618634D01*
X110647397Y-144588181D01*
X110646290Y-144585452D01*
X110619509Y-144553000D01*
X110580421Y-144535183D01*
X110536685Y-144532306D01*
X110495962Y-144544674D01*
X110465913Y-144572593D01*
X110462796Y-144578148D01*
X110453039Y-144612022D01*
X110447723Y-144660728D01*
X110446721Y-144716155D01*
X110309367Y-144716155D01*
X110309432Y-144695540D01*
X110310336Y-144662563D01*
X110316486Y-144580981D01*
X110329267Y-144519730D01*
X110350529Y-144474449D01*
X110382122Y-144440779D01*
X110412793Y-144421014D01*
X110455646Y-144407120D01*
X110508944Y-144402354D01*
X110563520Y-144406236D01*
X110610208Y-144418282D01*
X110634876Y-144432693D01*
X110660495Y-144455878D01*
X110660495Y-144162773D01*
X110798812Y-144162773D01*
X110798812Y-145017822D01*
G37*
X110798812Y-145017822D02*
X110729654Y-145017822D01*
X110689512Y-145016645D01*
X110668606Y-145011772D01*
X110661078Y-145001186D01*
X110660495Y-144994029D01*
X110659226Y-144979676D01*
X110651221Y-144976923D01*
X110630185Y-144985771D01*
X110613827Y-144994029D01*
X110551023Y-145013597D01*
X110482752Y-145014729D01*
X110427248Y-145000135D01*
X110375562Y-144964877D01*
X110336162Y-144912835D01*
X110314587Y-144851450D01*
X110314038Y-144848018D01*
X110310833Y-144810571D01*
X110309239Y-144756813D01*
X110309367Y-144716155D01*
X110446721Y-144716155D01*
X110449903Y-144770194D01*
X110457141Y-144814735D01*
X110466940Y-144839888D01*
X110504011Y-144874260D01*
X110548026Y-144886582D01*
X110593416Y-144876618D01*
X110632203Y-144846895D01*
X110646892Y-144826905D01*
X110655481Y-144803050D01*
X110659504Y-144768230D01*
X110660495Y-144715930D01*
X110658722Y-144664139D01*
X110654037Y-144618634D01*
X110647397Y-144588181D01*
X110646290Y-144585452D01*
X110619509Y-144553000D01*
X110580421Y-144535183D01*
X110536685Y-144532306D01*
X110495962Y-144544674D01*
X110465913Y-144572593D01*
X110462796Y-144578148D01*
X110453039Y-144612022D01*
X110447723Y-144660728D01*
X110446721Y-144716155D01*
X110309367Y-144716155D01*
X110309432Y-144695540D01*
X110310336Y-144662563D01*
X110316486Y-144580981D01*
X110329267Y-144519730D01*
X110350529Y-144474449D01*
X110382122Y-144440779D01*
X110412793Y-144421014D01*
X110455646Y-144407120D01*
X110508944Y-144402354D01*
X110563520Y-144406236D01*
X110610208Y-144418282D01*
X110634876Y-144432693D01*
X110660495Y-144455878D01*
X110660495Y-144162773D01*
X110798812Y-144162773D01*
X110798812Y-145017822D01*
G36*
X110006644Y-144403020D02*
G01*
X110025461Y-144408660D01*
X110031527Y-144421053D01*
X110031782Y-144426647D01*
X110032871Y-144442230D01*
X110040368Y-144444676D01*
X110060619Y-144433993D01*
X110072649Y-144426694D01*
X110110600Y-144411063D01*
X110155928Y-144403334D01*
X110203456Y-144402740D01*
X110248005Y-144408513D01*
X110284398Y-144419884D01*
X110307457Y-144436088D01*
X110312004Y-144456355D01*
X110309709Y-144461843D01*
X110292980Y-144484626D01*
X110267037Y-144512647D01*
X110262345Y-144517177D01*
X110237617Y-144538005D01*
X110216282Y-144544735D01*
X110186445Y-144540038D01*
X110174492Y-144536917D01*
X110137295Y-144529421D01*
X110111141Y-144532792D01*
X110089054Y-144544681D01*
X110068822Y-144560635D01*
X110053921Y-144580700D01*
X110043566Y-144608702D01*
X110036971Y-144648467D01*
X110033351Y-144703823D01*
X110031922Y-144778594D01*
X110031782Y-144823740D01*
X110031782Y-145017822D01*
X109906040Y-145017822D01*
X109906040Y-144401683D01*
X109968911Y-144401683D01*
X110006644Y-144403020D01*
G37*
X110006644Y-144403020D02*
X110025461Y-144408660D01*
X110031527Y-144421053D01*
X110031782Y-144426647D01*
X110032871Y-144442230D01*
X110040368Y-144444676D01*
X110060619Y-144433993D01*
X110072649Y-144426694D01*
X110110600Y-144411063D01*
X110155928Y-144403334D01*
X110203456Y-144402740D01*
X110248005Y-144408513D01*
X110284398Y-144419884D01*
X110307457Y-144436088D01*
X110312004Y-144456355D01*
X110309709Y-144461843D01*
X110292980Y-144484626D01*
X110267037Y-144512647D01*
X110262345Y-144517177D01*
X110237617Y-144538005D01*
X110216282Y-144544735D01*
X110186445Y-144540038D01*
X110174492Y-144536917D01*
X110137295Y-144529421D01*
X110111141Y-144532792D01*
X110089054Y-144544681D01*
X110068822Y-144560635D01*
X110053921Y-144580700D01*
X110043566Y-144608702D01*
X110036971Y-144648467D01*
X110033351Y-144703823D01*
X110031922Y-144778594D01*
X110031782Y-144823740D01*
X110031782Y-145017822D01*
X109906040Y-145017822D01*
X109906040Y-144401683D01*
X109968911Y-144401683D01*
X110006644Y-144403020D01*
G36*
X109615790Y-144406555D02*
G01*
X109674945Y-144422339D01*
X109719977Y-144450948D01*
X109751754Y-144488419D01*
X109761634Y-144504411D01*
X109768927Y-144521163D01*
X109774026Y-144542592D01*
X109777321Y-144572616D01*
X109779203Y-144615154D01*
X109780063Y-144674122D01*
X109780293Y-144753440D01*
X109780297Y-144774484D01*
X109780297Y-145017822D01*
X109719941Y-145017822D01*
X109681443Y-145015126D01*
X109652977Y-145008295D01*
X109645845Y-145004083D01*
X109626348Y-144996813D01*
X109606434Y-145004083D01*
X109573647Y-145013160D01*
X109526022Y-145016813D01*
X109473236Y-145015228D01*
X109424964Y-145008589D01*
X109396782Y-145000072D01*
X109342247Y-144965063D01*
X109308165Y-144916479D01*
X109292843Y-144851882D01*
X109292701Y-144850223D01*
X109294045Y-144821566D01*
X109415644Y-144821566D01*
X109426274Y-144854161D01*
X109443590Y-144872505D01*
X109478348Y-144886379D01*
X109524227Y-144891917D01*
X109571012Y-144889191D01*
X109608486Y-144878274D01*
X109618985Y-144871269D01*
X109637332Y-144838904D01*
X109641980Y-144802111D01*
X109641980Y-144753763D01*
X109572418Y-144753763D01*
X109506333Y-144758850D01*
X109456236Y-144773263D01*
X109425071Y-144795729D01*
X109415644Y-144821566D01*
X109294045Y-144821566D01*
X109296013Y-144779647D01*
X109319290Y-144723845D01*
X109363052Y-144681647D01*
X109369101Y-144677808D01*
X109395093Y-144665309D01*
X109427265Y-144657740D01*
X109472240Y-144654061D01*
X109525669Y-144653216D01*
X109641980Y-144653169D01*
X109641980Y-144604411D01*
X109637047Y-144566581D01*
X109624457Y-144541236D01*
X109622983Y-144539887D01*
X109594966Y-144528800D01*
X109552674Y-144524503D01*
X109505936Y-144526615D01*
X109464582Y-144534756D01*
X109440043Y-144546965D01*
X109426747Y-144556746D01*
X109412706Y-144558613D01*
X109393329Y-144550600D01*
X109364024Y-144530739D01*
X109320197Y-144497063D01*
X109316175Y-144493909D01*
X109318236Y-144482236D01*
X109335432Y-144462822D01*
X109361567Y-144441248D01*
X109390448Y-144423096D01*
X109399522Y-144418809D01*
X109432620Y-144410256D01*
X109481120Y-144404155D01*
X109535305Y-144401708D01*
X109537839Y-144401703D01*
X109615790Y-144406555D01*
G37*
X109615790Y-144406555D02*
X109674945Y-144422339D01*
X109719977Y-144450948D01*
X109751754Y-144488419D01*
X109761634Y-144504411D01*
X109768927Y-144521163D01*
X109774026Y-144542592D01*
X109777321Y-144572616D01*
X109779203Y-144615154D01*
X109780063Y-144674122D01*
X109780293Y-144753440D01*
X109780297Y-144774484D01*
X109780297Y-145017822D01*
X109719941Y-145017822D01*
X109681443Y-145015126D01*
X109652977Y-145008295D01*
X109645845Y-145004083D01*
X109626348Y-144996813D01*
X109606434Y-145004083D01*
X109573647Y-145013160D01*
X109526022Y-145016813D01*
X109473236Y-145015228D01*
X109424964Y-145008589D01*
X109396782Y-145000072D01*
X109342247Y-144965063D01*
X109308165Y-144916479D01*
X109292843Y-144851882D01*
X109292701Y-144850223D01*
X109294045Y-144821566D01*
X109415644Y-144821566D01*
X109426274Y-144854161D01*
X109443590Y-144872505D01*
X109478348Y-144886379D01*
X109524227Y-144891917D01*
X109571012Y-144889191D01*
X109608486Y-144878274D01*
X109618985Y-144871269D01*
X109637332Y-144838904D01*
X109641980Y-144802111D01*
X109641980Y-144753763D01*
X109572418Y-144753763D01*
X109506333Y-144758850D01*
X109456236Y-144773263D01*
X109425071Y-144795729D01*
X109415644Y-144821566D01*
X109294045Y-144821566D01*
X109296013Y-144779647D01*
X109319290Y-144723845D01*
X109363052Y-144681647D01*
X109369101Y-144677808D01*
X109395093Y-144665309D01*
X109427265Y-144657740D01*
X109472240Y-144654061D01*
X109525669Y-144653216D01*
X109641980Y-144653169D01*
X109641980Y-144604411D01*
X109637047Y-144566581D01*
X109624457Y-144541236D01*
X109622983Y-144539887D01*
X109594966Y-144528800D01*
X109552674Y-144524503D01*
X109505936Y-144526615D01*
X109464582Y-144534756D01*
X109440043Y-144546965D01*
X109426747Y-144556746D01*
X109412706Y-144558613D01*
X109393329Y-144550600D01*
X109364024Y-144530739D01*
X109320197Y-144497063D01*
X109316175Y-144493909D01*
X109318236Y-144482236D01*
X109335432Y-144462822D01*
X109361567Y-144441248D01*
X109390448Y-144423096D01*
X109399522Y-144418809D01*
X109432620Y-144410256D01*
X109481120Y-144404155D01*
X109535305Y-144401708D01*
X109537839Y-144401703D01*
X109615790Y-144406555D01*
G36*
X109091241Y-143469184D02*
G01*
X109117753Y-143482282D01*
X109150447Y-143505106D01*
X109174275Y-143529996D01*
X109190594Y-143561249D01*
X109200760Y-143603166D01*
X109206128Y-143660044D01*
X109208056Y-143736184D01*
X109208169Y-143768917D01*
X109207839Y-143840656D01*
X109206473Y-143891927D01*
X109203500Y-143927404D01*
X109198351Y-143951763D01*
X109190457Y-143969680D01*
X109182243Y-143981902D01*
X109129813Y-144033905D01*
X109068070Y-144065184D01*
X109001464Y-144074592D01*
X108934442Y-144060980D01*
X108913208Y-144051354D01*
X108862376Y-144024859D01*
X108862376Y-144440052D01*
X108899475Y-144420868D01*
X108948357Y-144406025D01*
X109008439Y-144402222D01*
X109068436Y-144409243D01*
X109113744Y-144425013D01*
X109151325Y-144455047D01*
X109183436Y-144498024D01*
X109185850Y-144502436D01*
X109196033Y-144523221D01*
X109203470Y-144544170D01*
X109208589Y-144569548D01*
X109211819Y-144603618D01*
X109213587Y-144650641D01*
X109214323Y-144714882D01*
X109214456Y-144787176D01*
X109214456Y-145017822D01*
X109076139Y-145017822D01*
X109076139Y-144592533D01*
X109037451Y-144559979D01*
X108997262Y-144533940D01*
X108959203Y-144529205D01*
X108920934Y-144541389D01*
X108900538Y-144553320D01*
X108885358Y-144570313D01*
X108874562Y-144595995D01*
X108867317Y-144633991D01*
X108862792Y-144687926D01*
X108860156Y-144761425D01*
X108859228Y-144810347D01*
X108856089Y-145011535D01*
X108790074Y-145015336D01*
X108724060Y-145019136D01*
X108724060Y-143770650D01*
X108862376Y-143770650D01*
X108865903Y-143840254D01*
X108877785Y-143888569D01*
X108899980Y-143918631D01*
X108934441Y-143933471D01*
X108969258Y-143936436D01*
X109008671Y-143933028D01*
X109034829Y-143919617D01*
X109051186Y-143901896D01*
X109064063Y-143882835D01*
X109071728Y-143861601D01*
X109075139Y-143831849D01*
X109075251Y-143787236D01*
X109074103Y-143749880D01*
X109071468Y-143693604D01*
X109067544Y-143656658D01*
X109060937Y-143633223D01*
X109050251Y-143617480D01*
X109040167Y-143608380D01*
X108998030Y-143588537D01*
X108948160Y-143585332D01*
X108919524Y-143592168D01*
X108891172Y-143616464D01*
X108872391Y-143663728D01*
X108863288Y-143733624D01*
X108862376Y-143770650D01*
X108724060Y-143770650D01*
X108724060Y-143458614D01*
X108793218Y-143458614D01*
X108834740Y-143460256D01*
X108856162Y-143466087D01*
X108862374Y-143477461D01*
X108862376Y-143477798D01*
X108865258Y-143488938D01*
X108877970Y-143487673D01*
X108903243Y-143475433D01*
X108962131Y-143456707D01*
X109028385Y-143454739D01*
X109091241Y-143469184D01*
G37*
X109091241Y-143469184D02*
X109117753Y-143482282D01*
X109150447Y-143505106D01*
X109174275Y-143529996D01*
X109190594Y-143561249D01*
X109200760Y-143603166D01*
X109206128Y-143660044D01*
X109208056Y-143736184D01*
X109208169Y-143768917D01*
X109207839Y-143840656D01*
X109206473Y-143891927D01*
X109203500Y-143927404D01*
X109198351Y-143951763D01*
X109190457Y-143969680D01*
X109182243Y-143981902D01*
X109129813Y-144033905D01*
X109068070Y-144065184D01*
X109001464Y-144074592D01*
X108934442Y-144060980D01*
X108913208Y-144051354D01*
X108862376Y-144024859D01*
X108862376Y-144440052D01*
X108899475Y-144420868D01*
X108948357Y-144406025D01*
X109008439Y-144402222D01*
X109068436Y-144409243D01*
X109113744Y-144425013D01*
X109151325Y-144455047D01*
X109183436Y-144498024D01*
X109185850Y-144502436D01*
X109196033Y-144523221D01*
X109203470Y-144544170D01*
X109208589Y-144569548D01*
X109211819Y-144603618D01*
X109213587Y-144650641D01*
X109214323Y-144714882D01*
X109214456Y-144787176D01*
X109214456Y-145017822D01*
X109076139Y-145017822D01*
X109076139Y-144592533D01*
X109037451Y-144559979D01*
X108997262Y-144533940D01*
X108959203Y-144529205D01*
X108920934Y-144541389D01*
X108900538Y-144553320D01*
X108885358Y-144570313D01*
X108874562Y-144595995D01*
X108867317Y-144633991D01*
X108862792Y-144687926D01*
X108860156Y-144761425D01*
X108859228Y-144810347D01*
X108856089Y-145011535D01*
X108790074Y-145015336D01*
X108724060Y-145019136D01*
X108724060Y-143770650D01*
X108862376Y-143770650D01*
X108865903Y-143840254D01*
X108877785Y-143888569D01*
X108899980Y-143918631D01*
X108934441Y-143933471D01*
X108969258Y-143936436D01*
X109008671Y-143933028D01*
X109034829Y-143919617D01*
X109051186Y-143901896D01*
X109064063Y-143882835D01*
X109071728Y-143861601D01*
X109075139Y-143831849D01*
X109075251Y-143787236D01*
X109074103Y-143749880D01*
X109071468Y-143693604D01*
X109067544Y-143656658D01*
X109060937Y-143633223D01*
X109050251Y-143617480D01*
X109040167Y-143608380D01*
X108998030Y-143588537D01*
X108948160Y-143585332D01*
X108919524Y-143592168D01*
X108891172Y-143616464D01*
X108872391Y-143663728D01*
X108863288Y-143733624D01*
X108862376Y-143770650D01*
X108724060Y-143770650D01*
X108724060Y-143458614D01*
X108793218Y-143458614D01*
X108834740Y-143460256D01*
X108856162Y-143466087D01*
X108862374Y-143477461D01*
X108862376Y-143477798D01*
X108865258Y-143488938D01*
X108877970Y-143487673D01*
X108903243Y-143475433D01*
X108962131Y-143456707D01*
X109028385Y-143454739D01*
X109091241Y-143469184D01*
D14*
X57504000Y-143500000D02*
G75*
G03*
X57504000Y-143500000I-254000J0D01*
G01*
X59504000Y-143500000D02*
G75*
G03*
X59504000Y-143500000I-254000J0D01*
G01*
X61504000Y-143500000D02*
G75*
G03*
X61504000Y-143500000I-254000J0D01*
G01*
X61504000Y-141500000D02*
G75*
G03*
X61504000Y-141500000I-254000J0D01*
G01*
X59504000Y-141500000D02*
G75*
G03*
X59504000Y-141500000I-254000J0D01*
G01*
X57504000Y-141500000D02*
G75*
G03*
X57504000Y-141500000I-254000J0D01*
G01*
X59504000Y-139500000D02*
G75*
G03*
X59504000Y-139500000I-254000J0D01*
G01*
X57504000Y-139500000D02*
G75*
G03*
X57504000Y-139500000I-254000J0D01*
G01*
X61504000Y-139500000D02*
G75*
G03*
X61504000Y-139500000I-254000J0D01*
G01*
%TO.C,J2*%
D11*
X82122380Y-117863333D02*
X82836666Y-117863333D01*
X82979523Y-117910952D01*
X83074761Y-118006190D01*
X83122380Y-118149047D01*
X83122380Y-118244285D01*
X82217619Y-117434761D02*
X82170000Y-117387142D01*
X82122380Y-117291904D01*
X82122380Y-117053809D01*
X82170000Y-116958571D01*
X82217619Y-116910952D01*
X82312857Y-116863333D01*
X82408095Y-116863333D01*
X82550952Y-116910952D01*
X83122380Y-117482380D01*
X83122380Y-116863333D01*
%TO.C,REF\u002A\u002A*%
D15*
X63357619Y-142393333D02*
X65452857Y-142393333D01*
X62938571Y-143650476D02*
X64405238Y-139250476D01*
X65871904Y-143650476D01*
X67338571Y-143650476D02*
X67338571Y-139250476D01*
X69014761Y-139250476D01*
X69433809Y-139460000D01*
X69643333Y-139669523D01*
X69852857Y-140088571D01*
X69852857Y-140717142D01*
X69643333Y-141136190D01*
X69433809Y-141345714D01*
X69014761Y-141555238D01*
X67338571Y-141555238D01*
X74671904Y-144069523D02*
X74252857Y-143860000D01*
X73833809Y-143440952D01*
X73205238Y-142812380D01*
X72786190Y-142602857D01*
X72367142Y-142602857D01*
X72576666Y-143650476D02*
X72157619Y-143440952D01*
X71738571Y-143021904D01*
X71529047Y-142183809D01*
X71529047Y-140717142D01*
X71738571Y-139879047D01*
X72157619Y-139460000D01*
X72576666Y-139250476D01*
X73414761Y-139250476D01*
X73833809Y-139460000D01*
X74252857Y-139879047D01*
X74462380Y-140717142D01*
X74462380Y-142183809D01*
X74252857Y-143021904D01*
X73833809Y-143440952D01*
X73414761Y-143650476D01*
X72576666Y-143650476D01*
%TO.C,J3*%
D11*
X117666666Y-137982380D02*
X117666666Y-138696666D01*
X117619047Y-138839523D01*
X117523809Y-138934761D01*
X117380952Y-138982380D01*
X117285714Y-138982380D01*
X118047619Y-137982380D02*
X118666666Y-137982380D01*
X118333333Y-138363333D01*
X118476190Y-138363333D01*
X118571428Y-138410952D01*
X118619047Y-138458571D01*
X118666666Y-138553809D01*
X118666666Y-138791904D01*
X118619047Y-138887142D01*
X118571428Y-138934761D01*
X118476190Y-138982380D01*
X118190476Y-138982380D01*
X118095238Y-138934761D01*
X118047619Y-138887142D01*
%TD*%
M02*
