M48
; DRILL file {KiCad (6.0.7)} date Tue Mar 14 09:32:55 2023
; FORMAT={-:-/ absolute / inch / decimal}
; #@! TF.CreationDate,2023-03-14T09:32:55+01:00
; #@! TF.GenerationSoftware,Kicad,Pcbnew,(6.0.7)
; #@! TF.FileFunction,Plated,1,2,PTH
FMAT,2
INCH
; #@! TA.AperFunction,Plated,PTH,ViaDrill
T1C0.0118
; #@! TA.AperFunction,Plated,PTH,ViaDrill
T2C0.0157
; #@! TA.AperFunction,Plated,PTH,ComponentDrill
T3C0.0200
; #@! TA.AperFunction,Plated,PTH,ComponentDrill
T4C0.0315
; #@! TA.AperFunction,Plated,PTH,ComponentDrill
T5C0.0354
; #@! TA.AperFunction,Plated,PTH,ComponentDrill
T6C0.0394
; #@! TA.AperFunction,Plated,PTH,ComponentDrill
T7C0.0400
; #@! TA.AperFunction,Plated,PTH,ComponentDrill
T8C0.0433
; #@! TA.AperFunction,Plated,PTH,ComponentDrill
T9C0.0591
; #@! TA.AperFunction,Plated,PTH,ComponentDrill
T10C0.0669
%
G90
G05
T1
X3.7598Y-2.437
X3.7598Y-2.5
X3.7598Y-2.563
X3.7913Y-5.0118
X3.7913Y-5.0551
X3.7953Y-4.9646
X4.2717Y-4.6063
X4.2717Y-4.6457
X4.2717Y-4.685
X4.2717Y-5.1181
X4.2717Y-5.1575
X4.2717Y-5.1969
X4.2756Y-3.4331
X4.2756Y-3.4685
X4.3504Y-3.7598
X4.6575Y-5.2717
X4.6969Y-4.752
X4.8583Y-3.3228
X4.8583Y-3.7874
X4.8661Y-3.1142
X4.9685Y-3.6535
X5.189Y-4.0669
X5.1969Y-3.7795
X5.4331Y-3.7795
X6.0787Y-4.2047
X6.3228Y-4.5118
X6.3898Y-4.1614
X6.4759Y-4.2643
X6.4764Y-3.6929
X6.9252Y-4.9764
X6.9439Y-4.5207
X6.9803Y-4.9291
X6.9803Y-5.0709
X7.0276Y-4.874
X7.2953Y-3.6299
X7.2992Y-3.5591
X7.3031Y-1.8701
X7.3031Y-1.9685
X7.3031Y-2.1654
X7.3031Y-2.4016
X7.3031Y-2.6378
X7.3031Y-2.874
X7.3031Y-3.1102
X7.3031Y-3.3465
X7.4213Y-1.811
X7.4606Y-4.7835
X7.5157Y-2.5315
X7.5236Y-3.563
X7.5748Y-2.3819
X7.5984Y-2.8543
X7.6417Y-3.3819
X7.6457Y-3.5
X7.6496Y-3.5669
X7.6575Y-1.811
X7.6969Y-2.9724
X7.7244Y-3.1142
X7.7362Y-2.5492
X7.7657Y-2.8445
X7.7677Y-3.0394
X7.8327Y-2.5118
X7.8937Y-1.811
X7.9173Y-3.6969
X7.9232Y-2.3917
X7.9567Y-3.0591
X8.061Y-2.5787
X8.063Y-4.0394
X8.0807Y-2.8445
X8.1102Y-2.8937
X8.122Y-3.6929
X8.1299Y-1.811
X8.1693Y-2.5098
X8.3661Y-1.811
X8.3661Y-2.8839
X8.3701Y-3.6969
X8.4055Y-4.2008
X8.435Y-2.8937
X8.437Y-2.4094
X8.4882Y-2.5354
X8.5Y-4.4409
X8.5039Y-2.7323
X8.5315Y-3.7835
X8.5433Y-2.6673
X8.5591Y-3.4567
X8.5827Y-2.7362
X8.5827Y-2.8445
X8.6024Y-1.811
X8.6024Y-3.685
X8.6378Y-4.6378
X8.6417Y-2.5354
X8.658Y-4.5438
X8.669Y-3.4915
X8.685Y-3.1929
X8.7795Y-5.0039
X8.8346Y-3.6929
X8.8386Y-1.811
X8.8504Y-3.0512
X8.874Y-3.3268
X8.9882Y-4.5433
X9.0472Y-3.6929
X9.0551Y-1.811
X9.0709Y-3.4409
X9.0945Y-5.311
X9.0984Y-5.189
X9.1457Y-5.1417
X9.1496Y-5.2874
X9.1614Y-3.6772
X9.1732Y-2.1654
X9.1732Y-2.4016
X9.1732Y-2.5394
X9.1732Y-2.6378
X9.1732Y-2.874
X9.1772Y-3.1181
X9.1772Y-3.3504
X9.1772Y-3.5591
X9.1811Y-3.0236
X9.1929Y-1.811
X9.1929Y-1.9488
X9.1929Y-5.0945
X9.1929Y-5.315
X9.1929Y-5.374
X9.1969Y-5.248
X9.2126Y-4.8622
X9.2126Y-4.9409
X9.2126Y-5.0197
X9.2323Y-5.2165
X9.2323Y-5.374
X9.2717Y-2.9803
X9.2913Y-3.1575
X9.2913Y-4.8622
X9.2913Y-5.0197
X9.2913Y-5.2165
X9.2913Y-5.374
X9.2953Y-3.3228
X9.2953Y-3.4961
X9.3307Y-2.0866
X9.3307Y-2.2638
X9.3307Y-2.4409
X9.3307Y-2.6378
X9.3504Y-4.8622
X9.3504Y-5.0197
X9.3504Y-5.2165
X9.3504Y-5.374
X9.3819Y-2.9764
X9.3858Y-3.1535
X9.3937Y-3.3228
X9.3937Y-3.4961
X9.4094Y-5.2165
X9.4094Y-5.374
T2
X4.0354Y-4.7598
X4.0394Y-3.5906
X4.0551Y-5.2795
X4.122Y-3.5591
X4.3504Y-4.8937
X4.3504Y-5.4331
X4.5Y-3.5827
X4.5079Y-5.2835
X4.5197Y-4.7598
X4.8504Y-2.6417
X4.8583Y-3.2087
X4.9134Y-4.4094
X4.9252Y-4.248
X4.9488Y-5.4606
X4.9567Y-5.1142
X4.9803Y-3.3071
X5.0039Y-4.4528
X5.0079Y-4.6102
X5.0079Y-4.7913
X5.0394Y-4.1299
X5.1024Y-5.1181
X5.1102Y-4.2165
X5.1575Y-2.815
X5.1969Y-3.3071
X5.2913Y-4.1732
X5.2913Y-4.252
X5.2913Y-4.3307
X5.2913Y-4.4055
X5.2913Y-4.5748
X5.2913Y-4.626
X5.2913Y-4.7244
X5.2913Y-4.8031
X5.2913Y-4.8819
X5.2913Y-4.9606
X5.2913Y-5.0394
X5.2913Y-5.1181
X5.3031Y-4.0827
X5.3228Y-5.4606
X5.3346Y-3.811
X5.3583Y-3.563
X5.3701Y-5.1969
X5.3819Y-4.0827
X5.3858Y-2.8189
X5.4488Y-5.1969
X5.4606Y-4.0827
X5.5187Y-2.6093
X5.5276Y-5.1969
X5.5394Y-4.0827
X5.6063Y-5.1969
X5.6181Y-4.0827
X5.685Y-5.1969
X5.6969Y-4.0827
X5.7638Y-5.1969
X5.7756Y-4.0827
X5.7756Y-4.3307
X5.7756Y-4.4311
X5.815Y-4.3307
X5.815Y-4.4311
X5.8425Y-5.1969
X5.8465Y-4.4764
X5.8543Y-4.0827
X5.8543Y-4.3307
X5.8543Y-4.4311
X5.8937Y-4.3307
X5.8937Y-4.4311
X5.9213Y-5.1969
X5.9331Y-4.0827
X5.9331Y-4.3307
X5.9331Y-4.4311
X5.9724Y-4.3307
X5.9724Y-4.4311
X6.0Y-5.1969
X6.0118Y-4.0827
X6.0118Y-4.3307
X6.0118Y-4.4311
X6.0512Y-4.3307
X6.0512Y-4.4311
X6.0787Y-5.1969
X6.0906Y-4.0827
X6.0906Y-4.3307
X6.0906Y-4.4311
X6.1299Y-4.3307
X6.1299Y-4.4311
X6.1575Y-5.1969
X6.1693Y-4.0827
X6.1929Y-5.3661
X6.2205Y-5.1969
X6.2598Y-4.0827
X6.2992Y-5.1969
X6.3386Y-4.0827
X6.378Y-5.1969
X6.4252Y-4.0827
X6.4567Y-5.1969
X6.4882Y-4.3307
X6.4882Y-4.4311
X6.5157Y-5.1969
X6.5236Y-4.0866
X6.5276Y-4.3307
X6.5276Y-4.4311
X6.5669Y-4.3307
X6.5669Y-4.4311
X6.5945Y-5.1969
X6.6024Y-4.0866
X6.6063Y-4.3307
X6.6063Y-4.4311
X6.6339Y-4.4882
X6.6339Y-4.5472
X6.6457Y-4.3307
X6.6457Y-4.4311
X6.6732Y-5.1969
X6.6929Y-4.5472
X6.7008Y-4.0866
X6.752Y-4.5472
X6.752Y-5.1969
X6.7795Y-4.0866
X6.7795Y-4.4409
X6.7874Y-3.622
X6.811Y-4.1339
X6.8307Y-5.1969
X6.8504Y-4.1732
X6.8504Y-4.5472
X6.874Y-4.3071
X6.8898Y-4.2126
X6.9094Y-5.1969
X6.9291Y-4.252
X6.9606Y-4.2874
X6.9685Y-4.4577
X6.9803Y-4.5906
X6.9882Y-5.1969
X6.9882Y-5.3661
X7.0079Y-4.4577
X7.0182Y-4.3489
X7.0472Y-4.4577
X7.0576Y-4.3489
X7.0669Y-5.1969
X7.0866Y-4.4577
X7.097Y-4.3489
X7.0984Y-4.3071
X7.1063Y-4.0669
X7.1457Y-5.1969
X7.1811Y-5.3661
X7.2047Y-4.9409
X7.2047Y-5.0197
X7.2047Y-5.0984
X7.2047Y-5.1772
X7.2835Y-4.4577
X7.2874Y-4.315
X7.2938Y-4.3489
X7.3228Y-4.4577
X7.3332Y-4.3489
X7.3622Y-4.4577
X7.3725Y-4.3489
X7.374Y-4.9213
X7.4016Y-4.4577
X7.4094Y-4.5709
X7.4119Y-4.3489
X7.4134Y-4.6496
X7.4134Y-4.9606
X7.4409Y-4.4577
X7.4513Y-4.3489
X7.4528Y-4.8425
X7.4528Y-5.0
X7.4803Y-4.4577
X7.4907Y-4.3489
X7.4921Y-4.8819
X7.4921Y-5.0394
X7.5118Y-4.1043
X7.5276Y-4.4685
X7.53Y-4.3489
X7.5315Y-4.3031
X7.5315Y-4.9213
X7.5315Y-5.0787
X7.5669Y-4.5079
X7.5709Y-4.9606
X7.5709Y-5.1181
X7.5773Y-4.3725
X7.5787Y-3.7254
X7.5945Y-3.878
X7.6063Y-4.5472
X7.6102Y-5.0
X7.6102Y-5.1575
X7.6166Y-4.4134
X7.6457Y-4.2677
X7.6457Y-4.5866
X7.6496Y-5.0394
X7.6496Y-5.1969
X7.656Y-4.4528
X7.685Y-4.626
X7.689Y-5.0787
X7.689Y-5.2362
X7.6954Y-4.4921
X7.7244Y-4.6654
X7.7283Y-5.1181
X7.7283Y-5.2756
X7.7348Y-4.5315
X7.7638Y-4.7047
X7.7677Y-5.1575
X7.7677Y-5.3071
X7.7741Y-4.5709
X7.8031Y-4.7441
X7.8071Y-5.185
X7.8071Y-5.3071
X7.8135Y-4.6102
X7.8346Y-4.8228
X7.8346Y-4.8898
X7.8346Y-4.9606
X7.8346Y-5.0669
X7.8465Y-5.2047
X7.8465Y-5.3071
X7.8529Y-4.6496
X7.8543Y-4.7638
X7.8622Y-4.0945
X7.8858Y-5.2047
X7.8858Y-5.3071
X7.9252Y-5.2047
X7.9252Y-5.3071
X7.9331Y-5.1378
X7.9646Y-5.2047
X7.9646Y-5.3071
X7.9921Y-4.4724
X7.9921Y-4.5866
X7.9921Y-4.6654
X7.9921Y-4.7441
X7.9921Y-4.8228
X7.9921Y-4.9055
X7.9921Y-4.9803
X7.9921Y-5.0591
X8.0039Y-5.2047
X8.0039Y-5.3071
X8.0079Y-4.2913
X8.0118Y-5.1378
X8.0433Y-5.2047
X8.0433Y-5.3071
X8.0472Y-2.7559
X8.0512Y-2.6614
X8.0827Y-5.2047
X8.0827Y-5.3071
X8.0906Y-4.4724
X8.1063Y-4.5866
X8.1102Y-4.6654
X8.1102Y-4.7441
X8.1102Y-4.8228
X8.1102Y-4.9016
X8.1102Y-4.9803
X8.1102Y-5.0591
X8.122Y-5.2047
X8.122Y-5.3071
X8.1614Y-5.2047
X8.1614Y-5.3071
X8.185Y-4.5866
X8.189Y-4.6654
X8.189Y-4.7441
X8.189Y-4.8228
X8.189Y-4.9016
X8.189Y-4.9803
X8.189Y-5.0591
X8.2008Y-5.2047
X8.2008Y-5.3071
X8.2087Y-4.1614
X8.2283Y-4.3898
X8.2323Y-2.7677
X8.2402Y-5.2047
X8.2402Y-5.3071
X8.2795Y-5.2047
X8.2795Y-5.3071
X8.2874Y-4.5472
X8.3071Y-4.3898
X8.3189Y-5.2047
X8.3189Y-5.3071
X8.3307Y-4.315
X8.3583Y-5.2047
X8.3583Y-5.3071
X8.3858Y-4.3898
X8.3858Y-4.4882
X8.3858Y-4.6457
X8.3858Y-4.7441
X8.3858Y-4.8425
X8.3858Y-4.9409
X8.3976Y-5.2047
X8.3976Y-5.3071
X8.437Y-5.2047
X8.437Y-5.3071
X8.4528Y-3.6969
X8.4528Y-3.7362
X8.4528Y-3.7756
X8.4528Y-3.815
X8.4528Y-3.8543
X8.4528Y-3.8937
X8.4528Y-3.9331
X8.4528Y-3.9724
X8.4567Y-4.2795
X8.4764Y-5.2047
X8.4764Y-5.3071
X8.4882Y-4.3583
X8.4921Y-3.9724
X8.5157Y-5.2047
X8.5157Y-5.3071
X8.5236Y-4.5118
X8.5236Y-4.5906
X8.5236Y-4.6693
X8.5236Y-4.748
X8.5236Y-4.8268
X8.5236Y-4.9055
X8.5236Y-4.9843
X8.5236Y-5.063
X8.5236Y-5.1417
X8.5315Y-3.9724
X8.5551Y-5.2047
X8.5551Y-5.3071
X8.5709Y-3.9724
X8.5945Y-5.2047
X8.5945Y-5.3071
X8.6102Y-3.9724
X8.6339Y-5.2047
X8.6339Y-5.3071
X8.6496Y-3.9724
X8.6732Y-5.2047
X8.6732Y-5.3071
X8.689Y-3.9724
X8.7126Y-5.2047
X8.7126Y-5.3071
X8.7283Y-3.9724
X8.752Y-5.1969
X8.752Y-5.315
X8.7677Y-3.9724
X8.7913Y-5.1969
X8.7913Y-5.315
X8.8071Y-3.9724
X8.8307Y-5.1969
X8.8307Y-5.315
X8.8465Y-3.9724
X8.8701Y-5.1969
X8.8701Y-5.315
X8.8858Y-3.9724
X8.9252Y-3.9724
X8.9646Y-3.9724
X9.0039Y-3.9724
X9.0433Y-3.9724
X9.0827Y-3.9724
X9.122Y-3.9724
X9.1614Y-3.9724
X9.2008Y-3.9724
X9.2402Y-3.9724
X9.2795Y-3.9724
X9.3189Y-3.9724
X9.3583Y-3.9724
X9.3976Y-3.9724
T3
X7.9605Y-3.1615
X7.9605Y-3.2115
X7.9605Y-3.4115
X7.9605Y-3.4615
X7.9955Y-3.1115
X8.0205Y-3.5115
X8.0955Y-3.1115
X8.0955Y-3.2865
X8.0955Y-3.3365
X8.0955Y-3.5115
X8.1705Y-3.5115
X8.1955Y-3.2615
X8.1955Y-3.4115
X8.2455Y-3.2615
X8.2455Y-3.4115
X8.2705Y-3.5115
X8.3455Y-3.1115
X8.3455Y-3.2865
X8.3455Y-3.3365
X8.3455Y-3.5115
X8.4205Y-3.5115
X8.4455Y-3.1115
X8.4805Y-3.1615
X8.4805Y-3.2115
X8.4805Y-3.4115
X8.4805Y-3.4615
T4
X4.4843Y-3.1496
X4.4843Y-3.2283
X4.4882Y-2.4331
X4.4882Y-2.5118
X5.8071Y-5.4331
X5.8071Y-5.5118
X6.5866Y-5.4331
X6.5866Y-5.5118
X7.2677Y-3.8543
X7.2677Y-4.0512
X7.3819Y-5.4331
X7.3819Y-5.5118
T5
X9.2913Y-4.5063
X9.2913Y-4.6063
T6
X3.3622Y-2.1874
X3.3622Y-2.2874
X3.3622Y-2.3874
X3.3622Y-2.4874
X3.3622Y-2.5874
X3.3622Y-2.6874
X3.3622Y-2.7874
X3.3622Y-2.8874
X3.3622Y-2.9874
X3.3622Y-3.0874
X3.3622Y-3.1874
X3.3622Y-3.2874
X3.3622Y-3.3874
X3.3622Y-3.4874
X3.3622Y-3.5874
X3.3622Y-3.6874
X3.3622Y-3.7874
X3.3622Y-3.8874
X3.3622Y-3.9874
X3.3622Y-4.0874
X3.3622Y-4.1874
X3.3622Y-4.2874
X3.3622Y-4.3874
X3.3622Y-4.4874
X3.3622Y-4.5874
X3.3622Y-4.6874
X3.3622Y-4.7874
X3.3622Y-4.8874
X3.3622Y-4.9874
X3.3622Y-5.0874
X3.3622Y-5.1874
X3.3622Y-5.2874
X3.5622Y-2.1874
X3.5622Y-2.2874
X3.5622Y-2.3874
X3.5622Y-2.4874
X3.5622Y-2.5874
X3.5622Y-2.6874
X3.5622Y-2.7874
X3.5622Y-2.8874
X3.5622Y-2.9874
X3.5622Y-3.0874
X3.5622Y-3.1874
X3.5622Y-3.2874
X3.5622Y-3.3874
X3.5622Y-3.4874
X3.5622Y-3.5874
X3.5622Y-3.6874
X3.5622Y-3.7874
X3.5622Y-3.8874
X3.5622Y-3.9874
X3.5622Y-4.0874
X3.5622Y-4.1874
X3.5622Y-4.2874
X3.5622Y-4.3874
X3.5622Y-4.4874
X3.5622Y-4.5874
X3.5622Y-4.6874
X3.5622Y-4.7874
X3.5622Y-4.8874
X3.5622Y-4.9874
X3.5622Y-5.0874
X3.5622Y-5.1874
X3.5622Y-5.2874
X4.4449Y-5.4291
X8.874Y-3.7835
X9.174Y-3.8835
X9.374Y-3.7835
T7
X3.7953Y-3.6504
X3.7953Y-3.7504
X3.7953Y-3.8504
X5.1772Y-2.4039
X5.1772Y-2.5039
X5.1772Y-2.6039
X6.0315Y-2.4118
X6.0315Y-2.5118
X6.0315Y-2.6118
T8
X4.563Y-2.7213
X4.563Y-2.8213
X4.563Y-2.9213
X6.0795Y-5.5315
X6.1795Y-5.5315
X6.2795Y-5.5315
X6.8669Y-5.5315
X6.9669Y-5.5315
X7.0669Y-5.5315
T9
X5.5866Y-4.3819
X6.7441Y-3.8858
X7.0591Y-2.9961
X8.8425Y-4.311
T10
X5.4866Y-4.2819
X5.4866Y-4.4819
X5.6866Y-4.2819
X5.6866Y-4.4819
X6.6441Y-3.7858
X6.6441Y-3.9858
X6.8441Y-3.7858
X6.8441Y-3.9858
X6.9591Y-2.8961
X6.9591Y-3.0961
X7.1591Y-2.8961
X7.1591Y-3.0961
X8.7425Y-4.211
X8.7425Y-4.411
X8.9425Y-4.211
X8.9425Y-4.411
T0
M30
