G04 #@! TF.GenerationSoftware,KiCad,Pcbnew,(6.0.7)*
G04 #@! TF.CreationDate,2023-06-07T16:59:13+02:00*
G04 #@! TF.ProjectId,MTS_module,4d54535f-6d6f-4647-956c-652e6b696361,1.3.3*
G04 #@! TF.SameCoordinates,Original*
G04 #@! TF.FileFunction,Legend,Bot*
G04 #@! TF.FilePolarity,Positive*
%FSLAX46Y46*%
G04 Gerber Fmt 4.6, Leading zero omitted, Abs format (unit mm)*
G04 Created by KiCad (PCBNEW (6.0.7)) date 2023-06-07 16:59:13*
%MOMM*%
%LPD*%
G01*
G04 APERTURE LIST*
%ADD10C,0.250000*%
%ADD11C,0.010000*%
G04 APERTURE END LIST*
D10*
X193980357Y-54771071D02*
X193980357Y-53271071D01*
X193623214Y-53271071D01*
X193408928Y-53342500D01*
X193266071Y-53485357D01*
X193194642Y-53628214D01*
X193123214Y-53913928D01*
X193123214Y-54128214D01*
X193194642Y-54413928D01*
X193266071Y-54556785D01*
X193408928Y-54699642D01*
X193623214Y-54771071D01*
X193980357Y-54771071D01*
X191908928Y-54699642D02*
X192051785Y-54771071D01*
X192337500Y-54771071D01*
X192480357Y-54699642D01*
X192551785Y-54556785D01*
X192551785Y-53985357D01*
X192480357Y-53842500D01*
X192337500Y-53771071D01*
X192051785Y-53771071D01*
X191908928Y-53842500D01*
X191837500Y-53985357D01*
X191837500Y-54128214D01*
X192551785Y-54271071D01*
X191266071Y-54699642D02*
X191123214Y-54771071D01*
X190837500Y-54771071D01*
X190694642Y-54699642D01*
X190623214Y-54556785D01*
X190623214Y-54485357D01*
X190694642Y-54342500D01*
X190837500Y-54271071D01*
X191051785Y-54271071D01*
X191194642Y-54199642D01*
X191266071Y-54056785D01*
X191266071Y-53985357D01*
X191194642Y-53842500D01*
X191051785Y-53771071D01*
X190837500Y-53771071D01*
X190694642Y-53842500D01*
X189980357Y-54771071D02*
X189980357Y-53771071D01*
X189980357Y-53271071D02*
X190051785Y-53342500D01*
X189980357Y-53413928D01*
X189908928Y-53342500D01*
X189980357Y-53271071D01*
X189980357Y-53413928D01*
X188623214Y-53771071D02*
X188623214Y-54985357D01*
X188694642Y-55128214D01*
X188766071Y-55199642D01*
X188908928Y-55271071D01*
X189123214Y-55271071D01*
X189266071Y-55199642D01*
X188623214Y-54699642D02*
X188766071Y-54771071D01*
X189051785Y-54771071D01*
X189194642Y-54699642D01*
X189266071Y-54628214D01*
X189337500Y-54485357D01*
X189337500Y-54056785D01*
X189266071Y-53913928D01*
X189194642Y-53842500D01*
X189051785Y-53771071D01*
X188766071Y-53771071D01*
X188623214Y-53842500D01*
X187908928Y-53771071D02*
X187908928Y-54771071D01*
X187908928Y-53913928D02*
X187837500Y-53842500D01*
X187694642Y-53771071D01*
X187480357Y-53771071D01*
X187337500Y-53842500D01*
X187266071Y-53985357D01*
X187266071Y-54771071D01*
X185408928Y-54771071D02*
X185408928Y-53271071D01*
X185408928Y-53842500D02*
X185266071Y-53771071D01*
X184980357Y-53771071D01*
X184837500Y-53842500D01*
X184766071Y-53913928D01*
X184694642Y-54056785D01*
X184694642Y-54485357D01*
X184766071Y-54628214D01*
X184837500Y-54699642D01*
X184980357Y-54771071D01*
X185266071Y-54771071D01*
X185408928Y-54699642D01*
X184194642Y-53771071D02*
X183837500Y-54771071D01*
X183480357Y-53771071D02*
X183837500Y-54771071D01*
X183980357Y-55128214D01*
X184051785Y-55199642D01*
X184194642Y-55271071D01*
X182908928Y-54628214D02*
X182837500Y-54699642D01*
X182908928Y-54771071D01*
X182980357Y-54699642D01*
X182908928Y-54628214D01*
X182908928Y-54771071D01*
X182908928Y-53842500D02*
X182837500Y-53913928D01*
X182908928Y-53985357D01*
X182980357Y-53913928D01*
X182908928Y-53842500D01*
X182908928Y-53985357D01*
X181266071Y-53271071D02*
X180408928Y-53271071D01*
X180837500Y-54771071D02*
X180837500Y-53271071D01*
X179908928Y-54771071D02*
X179908928Y-53771071D01*
X179908928Y-53271071D02*
X179980357Y-53342500D01*
X179908928Y-53413928D01*
X179837500Y-53342500D01*
X179908928Y-53271071D01*
X179908928Y-53413928D01*
X178980357Y-54771071D02*
X179123214Y-54699642D01*
X179194642Y-54556785D01*
X179194642Y-53271071D01*
X178408928Y-54771071D02*
X178408928Y-53771071D01*
X178408928Y-53913928D02*
X178337500Y-53842500D01*
X178194642Y-53771071D01*
X177980357Y-53771071D01*
X177837500Y-53842500D01*
X177766071Y-53985357D01*
X177766071Y-54771071D01*
X177766071Y-53985357D02*
X177694642Y-53842500D01*
X177551785Y-53771071D01*
X177337500Y-53771071D01*
X177194642Y-53842500D01*
X177123214Y-53985357D01*
X177123214Y-54771071D01*
X175766071Y-54771071D02*
X175766071Y-53985357D01*
X175837500Y-53842500D01*
X175980357Y-53771071D01*
X176266071Y-53771071D01*
X176408928Y-53842500D01*
X175766071Y-54699642D02*
X175908928Y-54771071D01*
X176266071Y-54771071D01*
X176408928Y-54699642D01*
X176480357Y-54556785D01*
X176480357Y-54413928D01*
X176408928Y-54271071D01*
X176266071Y-54199642D01*
X175908928Y-54199642D01*
X175766071Y-54128214D01*
X175051785Y-53771071D02*
X175051785Y-54771071D01*
X175051785Y-53913928D02*
X174980357Y-53842500D01*
X174837500Y-53771071D01*
X174623214Y-53771071D01*
X174480357Y-53842500D01*
X174408928Y-53985357D01*
X174408928Y-54771071D01*
X172551785Y-54771071D02*
X172551785Y-53271071D01*
X171980357Y-53271071D01*
X171837500Y-53342500D01*
X171766071Y-53413928D01*
X171694642Y-53556785D01*
X171694642Y-53771071D01*
X171766071Y-53913928D01*
X171837500Y-53985357D01*
X171980357Y-54056785D01*
X172551785Y-54056785D01*
X171051785Y-54771071D02*
X171051785Y-53771071D01*
X171051785Y-54056785D02*
X170980357Y-53913928D01*
X170908928Y-53842500D01*
X170766071Y-53771071D01*
X170623214Y-53771071D01*
X169551785Y-54699642D02*
X169694642Y-54771071D01*
X169980357Y-54771071D01*
X170123214Y-54699642D01*
X170194642Y-54556785D01*
X170194642Y-53985357D01*
X170123214Y-53842500D01*
X169980357Y-53771071D01*
X169694642Y-53771071D01*
X169551785Y-53842500D01*
X169480357Y-53985357D01*
X169480357Y-54128214D01*
X170194642Y-54271071D01*
X168194642Y-53771071D02*
X168194642Y-54771071D01*
X168837500Y-53771071D02*
X168837500Y-54556785D01*
X168766071Y-54699642D01*
X168623214Y-54771071D01*
X168408928Y-54771071D01*
X168266071Y-54699642D01*
X168194642Y-54628214D01*
X167551785Y-54699642D02*
X167408928Y-54771071D01*
X167123214Y-54771071D01*
X166980357Y-54699642D01*
X166908928Y-54556785D01*
X166908928Y-54485357D01*
X166980357Y-54342500D01*
X167123214Y-54271071D01*
X167337500Y-54271071D01*
X167480357Y-54199642D01*
X167551785Y-54056785D01*
X167551785Y-53985357D01*
X167480357Y-53842500D01*
X167337500Y-53771071D01*
X167123214Y-53771071D01*
X166980357Y-53842500D01*
X165623214Y-54699642D02*
X165766071Y-54771071D01*
X166051785Y-54771071D01*
X166194642Y-54699642D01*
X166266071Y-54628214D01*
X166337500Y-54485357D01*
X166337500Y-54056785D01*
X166266071Y-53913928D01*
X166194642Y-53842500D01*
X166051785Y-53771071D01*
X165766071Y-53771071D01*
X165623214Y-53842500D01*
X164980357Y-54771071D02*
X164980357Y-53271071D01*
X164337500Y-54771071D02*
X164337500Y-53985357D01*
X164408928Y-53842500D01*
X164551785Y-53771071D01*
X164766071Y-53771071D01*
X164908928Y-53842500D01*
X164980357Y-53913928D01*
X163408928Y-54771071D02*
X163551785Y-54699642D01*
X163623214Y-54628214D01*
X163694642Y-54485357D01*
X163694642Y-54056785D01*
X163623214Y-53913928D01*
X163551785Y-53842500D01*
X163408928Y-53771071D01*
X163194642Y-53771071D01*
X163051785Y-53842500D01*
X162980357Y-53913928D01*
X162908928Y-54056785D01*
X162908928Y-54485357D01*
X162980357Y-54628214D01*
X163051785Y-54699642D01*
X163194642Y-54771071D01*
X163408928Y-54771071D01*
X162480357Y-53771071D02*
X161908928Y-53771071D01*
X162266071Y-54771071D02*
X162266071Y-53485357D01*
X162194642Y-53342500D01*
X162051785Y-53271071D01*
X161908928Y-53271071D01*
X161623214Y-53771071D02*
X161051785Y-53771071D01*
X161408928Y-54771071D02*
X161408928Y-53485357D01*
X161337500Y-53342500D01*
X161194642Y-53271071D01*
X161051785Y-53271071D01*
X193980357Y-57186071D02*
X193980357Y-55686071D01*
X193337500Y-57186071D02*
X193337500Y-56400357D01*
X193408928Y-56257500D01*
X193551785Y-56186071D01*
X193766071Y-56186071D01*
X193908928Y-56257500D01*
X193980357Y-56328928D01*
X192837500Y-56186071D02*
X192266071Y-56186071D01*
X192623214Y-55686071D02*
X192623214Y-56971785D01*
X192551785Y-57114642D01*
X192408928Y-57186071D01*
X192266071Y-57186071D01*
X191980357Y-56186071D02*
X191408928Y-56186071D01*
X191766071Y-55686071D02*
X191766071Y-56971785D01*
X191694642Y-57114642D01*
X191551785Y-57186071D01*
X191408928Y-57186071D01*
X190908928Y-56186071D02*
X190908928Y-57686071D01*
X190908928Y-56257500D02*
X190766071Y-56186071D01*
X190480357Y-56186071D01*
X190337500Y-56257500D01*
X190266071Y-56328928D01*
X190194642Y-56471785D01*
X190194642Y-56900357D01*
X190266071Y-57043214D01*
X190337500Y-57114642D01*
X190480357Y-57186071D01*
X190766071Y-57186071D01*
X190908928Y-57114642D01*
X189623214Y-57114642D02*
X189480357Y-57186071D01*
X189194642Y-57186071D01*
X189051785Y-57114642D01*
X188980357Y-56971785D01*
X188980357Y-56900357D01*
X189051785Y-56757500D01*
X189194642Y-56686071D01*
X189408928Y-56686071D01*
X189551785Y-56614642D01*
X189623214Y-56471785D01*
X189623214Y-56400357D01*
X189551785Y-56257500D01*
X189408928Y-56186071D01*
X189194642Y-56186071D01*
X189051785Y-56257500D01*
X188337500Y-57043214D02*
X188266071Y-57114642D01*
X188337500Y-57186071D01*
X188408928Y-57114642D01*
X188337500Y-57043214D01*
X188337500Y-57186071D01*
X188337500Y-56257500D02*
X188266071Y-56328928D01*
X188337500Y-56400357D01*
X188408928Y-56328928D01*
X188337500Y-56257500D01*
X188337500Y-56400357D01*
X186551785Y-55614642D02*
X187837500Y-57543214D01*
X184980357Y-55614642D02*
X186266071Y-57543214D01*
X183837500Y-56186071D02*
X183837500Y-57400357D01*
X183908928Y-57543214D01*
X183980357Y-57614642D01*
X184123214Y-57686071D01*
X184337500Y-57686071D01*
X184480357Y-57614642D01*
X183837500Y-57114642D02*
X183980357Y-57186071D01*
X184266071Y-57186071D01*
X184408928Y-57114642D01*
X184480357Y-57043214D01*
X184551785Y-56900357D01*
X184551785Y-56471785D01*
X184480357Y-56328928D01*
X184408928Y-56257500D01*
X184266071Y-56186071D01*
X183980357Y-56186071D01*
X183837500Y-56257500D01*
X183123214Y-57186071D02*
X183123214Y-56186071D01*
X183123214Y-55686071D02*
X183194642Y-55757500D01*
X183123214Y-55828928D01*
X183051785Y-55757500D01*
X183123214Y-55686071D01*
X183123214Y-55828928D01*
X182623214Y-56186071D02*
X182051785Y-56186071D01*
X182408928Y-55686071D02*
X182408928Y-56971785D01*
X182337500Y-57114642D01*
X182194642Y-57186071D01*
X182051785Y-57186071D01*
X181551785Y-57186071D02*
X181551785Y-55686071D01*
X180908928Y-57186071D02*
X180908928Y-56400357D01*
X180980357Y-56257500D01*
X181123214Y-56186071D01*
X181337500Y-56186071D01*
X181480357Y-56257500D01*
X181551785Y-56328928D01*
X179551785Y-56186071D02*
X179551785Y-57186071D01*
X180194642Y-56186071D02*
X180194642Y-56971785D01*
X180123214Y-57114642D01*
X179980357Y-57186071D01*
X179766071Y-57186071D01*
X179623214Y-57114642D01*
X179551785Y-57043214D01*
X178837500Y-57186071D02*
X178837500Y-55686071D01*
X178837500Y-56257500D02*
X178694642Y-56186071D01*
X178408928Y-56186071D01*
X178266071Y-56257500D01*
X178194642Y-56328928D01*
X178123214Y-56471785D01*
X178123214Y-56900357D01*
X178194642Y-57043214D01*
X178266071Y-57114642D01*
X178408928Y-57186071D01*
X178694642Y-57186071D01*
X178837500Y-57114642D01*
X177480357Y-57043214D02*
X177408928Y-57114642D01*
X177480357Y-57186071D01*
X177551785Y-57114642D01*
X177480357Y-57043214D01*
X177480357Y-57186071D01*
X176123214Y-57114642D02*
X176266071Y-57186071D01*
X176551785Y-57186071D01*
X176694642Y-57114642D01*
X176766071Y-57043214D01*
X176837500Y-56900357D01*
X176837500Y-56471785D01*
X176766071Y-56328928D01*
X176694642Y-56257500D01*
X176551785Y-56186071D01*
X176266071Y-56186071D01*
X176123214Y-56257500D01*
X175266071Y-57186071D02*
X175408928Y-57114642D01*
X175480357Y-57043214D01*
X175551785Y-56900357D01*
X175551785Y-56471785D01*
X175480357Y-56328928D01*
X175408928Y-56257500D01*
X175266071Y-56186071D01*
X175051785Y-56186071D01*
X174908928Y-56257500D01*
X174837500Y-56328928D01*
X174766071Y-56471785D01*
X174766071Y-56900357D01*
X174837500Y-57043214D01*
X174908928Y-57114642D01*
X175051785Y-57186071D01*
X175266071Y-57186071D01*
X174123214Y-57186071D02*
X174123214Y-56186071D01*
X174123214Y-56328928D02*
X174051785Y-56257500D01*
X173908928Y-56186071D01*
X173694642Y-56186071D01*
X173551785Y-56257500D01*
X173480357Y-56400357D01*
X173480357Y-57186071D01*
X173480357Y-56400357D02*
X173408928Y-56257500D01*
X173266071Y-56186071D01*
X173051785Y-56186071D01*
X172908928Y-56257500D01*
X172837500Y-56400357D01*
X172837500Y-57186071D01*
X171051785Y-55614642D02*
X172337500Y-57543214D01*
X170766071Y-55686071D02*
X169908928Y-55686071D01*
X170337500Y-57186071D02*
X170337500Y-55686071D01*
X169408928Y-55686071D02*
X169408928Y-56900357D01*
X169337500Y-57043214D01*
X169266071Y-57114642D01*
X169123214Y-57186071D01*
X168837500Y-57186071D01*
X168694642Y-57114642D01*
X168623214Y-57043214D01*
X168551785Y-56900357D01*
X168551785Y-55686071D01*
X167837500Y-56614642D02*
X166694642Y-56614642D01*
X165980357Y-57186071D02*
X165980357Y-55686071D01*
X165623214Y-55686071D01*
X165408928Y-55757500D01*
X165266071Y-55900357D01*
X165194642Y-56043214D01*
X165123214Y-56328928D01*
X165123214Y-56543214D01*
X165194642Y-56828928D01*
X165266071Y-56971785D01*
X165408928Y-57114642D01*
X165623214Y-57186071D01*
X165980357Y-57186071D01*
X163837500Y-57186071D02*
X163837500Y-56400357D01*
X163908928Y-56257500D01*
X164051785Y-56186071D01*
X164337500Y-56186071D01*
X164480357Y-56257500D01*
X163837500Y-57114642D02*
X163980357Y-57186071D01*
X164337500Y-57186071D01*
X164480357Y-57114642D01*
X164551785Y-56971785D01*
X164551785Y-56828928D01*
X164480357Y-56686071D01*
X164337500Y-56614642D01*
X163980357Y-56614642D01*
X163837500Y-56543214D01*
X163123214Y-57186071D02*
X163123214Y-56186071D01*
X163123214Y-56471785D02*
X163051785Y-56328928D01*
X162980357Y-56257500D01*
X162837500Y-56186071D01*
X162694642Y-56186071D01*
X162194642Y-57186071D02*
X162194642Y-56186071D01*
X162194642Y-56328928D02*
X162123214Y-56257500D01*
X161980357Y-56186071D01*
X161766071Y-56186071D01*
X161623214Y-56257500D01*
X161551785Y-56400357D01*
X161551785Y-57186071D01*
X161551785Y-56400357D02*
X161480357Y-56257500D01*
X161337500Y-56186071D01*
X161123214Y-56186071D01*
X160980357Y-56257500D01*
X160908928Y-56400357D01*
X160908928Y-57186071D01*
X160266071Y-57114642D02*
X160123214Y-57186071D01*
X159837500Y-57186071D01*
X159694642Y-57114642D01*
X159623214Y-56971785D01*
X159623214Y-56900357D01*
X159694642Y-56757500D01*
X159837500Y-56686071D01*
X160051785Y-56686071D01*
X160194642Y-56614642D01*
X160266071Y-56471785D01*
X160266071Y-56400357D01*
X160194642Y-56257500D01*
X160051785Y-56186071D01*
X159837500Y-56186071D01*
X159694642Y-56257500D01*
X159194642Y-56186071D02*
X158623214Y-56186071D01*
X158980357Y-55686071D02*
X158980357Y-56971785D01*
X158908928Y-57114642D01*
X158766071Y-57186071D01*
X158623214Y-57186071D01*
X157480357Y-57186071D02*
X157480357Y-56400357D01*
X157551785Y-56257500D01*
X157694642Y-56186071D01*
X157980357Y-56186071D01*
X158123214Y-56257500D01*
X157480357Y-57114642D02*
X157623214Y-57186071D01*
X157980357Y-57186071D01*
X158123214Y-57114642D01*
X158194642Y-56971785D01*
X158194642Y-56828928D01*
X158123214Y-56686071D01*
X157980357Y-56614642D01*
X157623214Y-56614642D01*
X157480357Y-56543214D01*
X156123214Y-57186071D02*
X156123214Y-55686071D01*
X156123214Y-57114642D02*
X156266071Y-57186071D01*
X156551785Y-57186071D01*
X156694642Y-57114642D01*
X156766071Y-57043214D01*
X156837500Y-56900357D01*
X156837500Y-56471785D01*
X156766071Y-56328928D01*
X156694642Y-56257500D01*
X156551785Y-56186071D01*
X156266071Y-56186071D01*
X156123214Y-56257500D01*
X155623214Y-56186071D02*
X155051785Y-56186071D01*
X155408928Y-55686071D02*
X155408928Y-56971785D01*
X155337500Y-57114642D01*
X155194642Y-57186071D01*
X155051785Y-57186071D01*
X154551785Y-56614642D02*
X153408928Y-56614642D01*
X152766071Y-56757500D02*
X152051785Y-56757500D01*
X152908928Y-57186071D02*
X152408928Y-55686071D01*
X151908928Y-57186071D01*
X151408928Y-57186071D02*
X151408928Y-55686071D01*
X150837500Y-55686071D01*
X150694642Y-55757500D01*
X150623214Y-55828928D01*
X150551785Y-55971785D01*
X150551785Y-56186071D01*
X150623214Y-56328928D01*
X150694642Y-56400357D01*
X150837500Y-56471785D01*
X151408928Y-56471785D01*
X148908928Y-57328928D02*
X149051785Y-57257500D01*
X149194642Y-57114642D01*
X149408928Y-56900357D01*
X149551785Y-56828928D01*
X149694642Y-56828928D01*
X149623214Y-57186071D02*
X149766071Y-57114642D01*
X149908928Y-56971785D01*
X149980357Y-56686071D01*
X149980357Y-56186071D01*
X149908928Y-55900357D01*
X149766071Y-55757500D01*
X149623214Y-55686071D01*
X149337500Y-55686071D01*
X149194642Y-55757500D01*
X149051785Y-55900357D01*
X148980357Y-56186071D01*
X148980357Y-56686071D01*
X149051785Y-56971785D01*
X149194642Y-57114642D01*
X149337500Y-57186071D01*
X149623214Y-57186071D01*
X147266071Y-55614642D02*
X148551785Y-57543214D01*
X145908928Y-57186071D02*
X146408928Y-56471785D01*
X146766071Y-57186071D02*
X146766071Y-55686071D01*
X146194642Y-55686071D01*
X146051785Y-55757500D01*
X145980357Y-55828928D01*
X145908928Y-55971785D01*
X145908928Y-56186071D01*
X145980357Y-56328928D01*
X146051785Y-56400357D01*
X146194642Y-56471785D01*
X146766071Y-56471785D01*
X144766071Y-56400357D02*
X145266071Y-56400357D01*
X145266071Y-57186071D02*
X145266071Y-55686071D01*
X144551785Y-55686071D01*
X144337500Y-57328928D02*
X143194642Y-57328928D01*
X143051785Y-56186071D02*
X142480357Y-56186071D01*
X142837500Y-57186071D02*
X142837500Y-55900357D01*
X142766071Y-55757500D01*
X142623214Y-55686071D01*
X142480357Y-55686071D01*
X141980357Y-57186071D02*
X141980357Y-56186071D01*
X141980357Y-56471785D02*
X141908928Y-56328928D01*
X141837500Y-56257500D01*
X141694642Y-56186071D01*
X141551785Y-56186071D01*
X140480357Y-57114642D02*
X140623214Y-57186071D01*
X140908928Y-57186071D01*
X141051785Y-57114642D01*
X141123214Y-56971785D01*
X141123214Y-56400357D01*
X141051785Y-56257500D01*
X140908928Y-56186071D01*
X140623214Y-56186071D01*
X140480357Y-56257500D01*
X140408928Y-56400357D01*
X140408928Y-56543214D01*
X141123214Y-56686071D01*
X139123214Y-56186071D02*
X139123214Y-57686071D01*
X139123214Y-57114642D02*
X139266071Y-57186071D01*
X139551785Y-57186071D01*
X139694642Y-57114642D01*
X139766071Y-57043214D01*
X139837500Y-56900357D01*
X139837500Y-56471785D01*
X139766071Y-56328928D01*
X139694642Y-56257500D01*
X139551785Y-56186071D01*
X139266071Y-56186071D01*
X139123214Y-56257500D01*
X137766071Y-56186071D02*
X137766071Y-57186071D01*
X138408928Y-56186071D02*
X138408928Y-56971785D01*
X138337500Y-57114642D01*
X138194642Y-57186071D01*
X137980357Y-57186071D01*
X137837500Y-57114642D01*
X137766071Y-57043214D01*
X136480357Y-57114642D02*
X136623214Y-57186071D01*
X136908928Y-57186071D01*
X137051785Y-57114642D01*
X137123214Y-56971785D01*
X137123214Y-56400357D01*
X137051785Y-56257500D01*
X136908928Y-56186071D01*
X136623214Y-56186071D01*
X136480357Y-56257500D01*
X136408928Y-56400357D01*
X136408928Y-56543214D01*
X137123214Y-56686071D01*
X135766071Y-56186071D02*
X135766071Y-57186071D01*
X135766071Y-56328928D02*
X135694642Y-56257500D01*
X135551785Y-56186071D01*
X135337500Y-56186071D01*
X135194642Y-56257500D01*
X135123214Y-56400357D01*
X135123214Y-57186071D01*
X133766071Y-57114642D02*
X133908928Y-57186071D01*
X134194642Y-57186071D01*
X134337500Y-57114642D01*
X134408928Y-57043214D01*
X134480357Y-56900357D01*
X134480357Y-56471785D01*
X134408928Y-56328928D01*
X134337500Y-56257500D01*
X134194642Y-56186071D01*
X133908928Y-56186071D01*
X133766071Y-56257500D01*
X133266071Y-56186071D02*
X132908928Y-57186071D01*
X132551785Y-56186071D02*
X132908928Y-57186071D01*
X133051785Y-57543214D01*
X133123214Y-57614642D01*
X133266071Y-57686071D01*
X132337499Y-57328928D02*
X131194642Y-57328928D01*
X130837499Y-57186071D02*
X130837499Y-56186071D01*
X130837499Y-56328928D02*
X130766071Y-56257500D01*
X130623214Y-56186071D01*
X130408928Y-56186071D01*
X130266071Y-56257500D01*
X130194642Y-56400357D01*
X130194642Y-57186071D01*
X130194642Y-56400357D02*
X130123214Y-56257500D01*
X129980357Y-56186071D01*
X129766071Y-56186071D01*
X129623214Y-56257500D01*
X129551785Y-56400357D01*
X129551785Y-57186071D01*
X128623214Y-57186071D02*
X128766071Y-57114642D01*
X128837499Y-57043214D01*
X128908928Y-56900357D01*
X128908928Y-56471785D01*
X128837499Y-56328928D01*
X128766071Y-56257500D01*
X128623214Y-56186071D01*
X128408928Y-56186071D01*
X128266071Y-56257500D01*
X128194642Y-56328928D01*
X128123214Y-56471785D01*
X128123214Y-56900357D01*
X128194642Y-57043214D01*
X128266071Y-57114642D01*
X128408928Y-57186071D01*
X128623214Y-57186071D01*
X126837499Y-57186071D02*
X126837499Y-55686071D01*
X126837499Y-57114642D02*
X126980357Y-57186071D01*
X127266071Y-57186071D01*
X127408928Y-57114642D01*
X127480357Y-57043214D01*
X127551785Y-56900357D01*
X127551785Y-56471785D01*
X127480357Y-56328928D01*
X127408928Y-56257500D01*
X127266071Y-56186071D01*
X126980357Y-56186071D01*
X126837499Y-56257500D01*
X125480357Y-56186071D02*
X125480357Y-57186071D01*
X126123214Y-56186071D02*
X126123214Y-56971785D01*
X126051785Y-57114642D01*
X125908928Y-57186071D01*
X125694642Y-57186071D01*
X125551785Y-57114642D01*
X125480357Y-57043214D01*
X124551785Y-57186071D02*
X124694642Y-57114642D01*
X124766071Y-56971785D01*
X124766071Y-55686071D01*
X123337499Y-57186071D02*
X123337499Y-56400357D01*
X123408928Y-56257500D01*
X123551785Y-56186071D01*
X123837499Y-56186071D01*
X123980357Y-56257500D01*
X123337499Y-57114642D02*
X123480357Y-57186071D01*
X123837499Y-57186071D01*
X123980357Y-57114642D01*
X124051785Y-56971785D01*
X124051785Y-56828928D01*
X123980357Y-56686071D01*
X123837499Y-56614642D01*
X123480357Y-56614642D01*
X123337499Y-56543214D01*
X122837499Y-56186071D02*
X122266071Y-56186071D01*
X122623214Y-55686071D02*
X122623214Y-56971785D01*
X122551785Y-57114642D01*
X122408928Y-57186071D01*
X122266071Y-57186071D01*
X121551785Y-57186071D02*
X121694642Y-57114642D01*
X121766071Y-57043214D01*
X121837499Y-56900357D01*
X121837499Y-56471785D01*
X121766071Y-56328928D01*
X121694642Y-56257500D01*
X121551785Y-56186071D01*
X121337499Y-56186071D01*
X121194642Y-56257500D01*
X121123214Y-56328928D01*
X121051785Y-56471785D01*
X121051785Y-56900357D01*
X121123214Y-57043214D01*
X121194642Y-57114642D01*
X121337499Y-57186071D01*
X121551785Y-57186071D01*
X120408928Y-57186071D02*
X120408928Y-56186071D01*
X120408928Y-56471785D02*
X120337499Y-56328928D01*
X120266071Y-56257500D01*
X120123214Y-56186071D01*
X119980357Y-56186071D01*
G36*
X202363373Y-56134310D02*
G01*
X202359688Y-56182332D01*
X202353410Y-56216368D01*
X202343044Y-56243338D01*
X202327092Y-56270158D01*
X202326412Y-56271175D01*
X202287132Y-56314629D01*
X202239072Y-56347772D01*
X202183185Y-56367439D01*
X202109666Y-56373824D01*
X202037609Y-56361268D01*
X201973201Y-56331011D01*
X201922627Y-56284294D01*
X201908108Y-56262221D01*
X201880993Y-56193602D01*
X201867546Y-56108939D01*
X201867776Y-56087523D01*
X202002920Y-56087523D01*
X202003174Y-56127574D01*
X202007421Y-56154313D01*
X202017096Y-56174859D01*
X202033638Y-56196331D01*
X202056593Y-56217639D01*
X202102505Y-56236653D01*
X202151802Y-56233122D01*
X202198917Y-56206694D01*
X202212207Y-56194072D01*
X202226397Y-56172465D01*
X202234266Y-56142094D01*
X202238726Y-56094770D01*
X202239955Y-56059219D01*
X202233224Y-55986620D01*
X202212567Y-55934642D01*
X202177894Y-55902999D01*
X202137249Y-55887847D01*
X202088777Y-55889123D01*
X202043845Y-55914703D01*
X202033103Y-55924442D01*
X202019548Y-55941480D01*
X202011505Y-55963772D01*
X202007043Y-55997947D01*
X202004228Y-56050638D01*
X202002920Y-56087523D01*
X201867776Y-56087523D01*
X201868583Y-56012351D01*
X201869907Y-55998651D01*
X201888374Y-55910908D01*
X201922540Y-55842793D01*
X201972479Y-55794231D01*
X202038261Y-55765148D01*
X202119961Y-55755471D01*
X202150828Y-55756379D01*
X202214128Y-55767493D01*
X202265889Y-55794021D01*
X202314147Y-55839436D01*
X202321865Y-55848551D01*
X202342681Y-55879248D01*
X202356362Y-55914007D01*
X202363948Y-55958056D01*
X202366479Y-56016621D01*
X202365672Y-56059219D01*
X202364997Y-56094931D01*
X202363373Y-56134310D01*
G37*
D11*
X202363373Y-56134310D02*
X202359688Y-56182332D01*
X202353410Y-56216368D01*
X202343044Y-56243338D01*
X202327092Y-56270158D01*
X202326412Y-56271175D01*
X202287132Y-56314629D01*
X202239072Y-56347772D01*
X202183185Y-56367439D01*
X202109666Y-56373824D01*
X202037609Y-56361268D01*
X201973201Y-56331011D01*
X201922627Y-56284294D01*
X201908108Y-56262221D01*
X201880993Y-56193602D01*
X201867546Y-56108939D01*
X201867776Y-56087523D01*
X202002920Y-56087523D01*
X202003174Y-56127574D01*
X202007421Y-56154313D01*
X202017096Y-56174859D01*
X202033638Y-56196331D01*
X202056593Y-56217639D01*
X202102505Y-56236653D01*
X202151802Y-56233122D01*
X202198917Y-56206694D01*
X202212207Y-56194072D01*
X202226397Y-56172465D01*
X202234266Y-56142094D01*
X202238726Y-56094770D01*
X202239955Y-56059219D01*
X202233224Y-55986620D01*
X202212567Y-55934642D01*
X202177894Y-55902999D01*
X202137249Y-55887847D01*
X202088777Y-55889123D01*
X202043845Y-55914703D01*
X202033103Y-55924442D01*
X202019548Y-55941480D01*
X202011505Y-55963772D01*
X202007043Y-55997947D01*
X202004228Y-56050638D01*
X202002920Y-56087523D01*
X201867776Y-56087523D01*
X201868583Y-56012351D01*
X201869907Y-55998651D01*
X201888374Y-55910908D01*
X201922540Y-55842793D01*
X201972479Y-55794231D01*
X202038261Y-55765148D01*
X202119961Y-55755471D01*
X202150828Y-55756379D01*
X202214128Y-55767493D01*
X202265889Y-55794021D01*
X202314147Y-55839436D01*
X202321865Y-55848551D01*
X202342681Y-55879248D01*
X202356362Y-55914007D01*
X202363948Y-55958056D01*
X202366479Y-56016621D01*
X202365672Y-56059219D01*
X202364997Y-56094931D01*
X202363373Y-56134310D01*
G36*
X198280297Y-55954342D02*
G01*
X198281357Y-56042394D01*
X198285509Y-56113510D01*
X198293921Y-56165199D01*
X198307757Y-56200360D01*
X198328182Y-56221889D01*
X198356364Y-56232682D01*
X198393465Y-56235636D01*
X198428890Y-56233000D01*
X198457500Y-56222679D01*
X198478296Y-56201772D01*
X198492442Y-56167381D01*
X198501103Y-56116610D01*
X198505445Y-56046563D01*
X198506633Y-55954342D01*
X198506633Y-55758614D01*
X198632376Y-55758614D01*
X198632376Y-55994578D01*
X198632160Y-56057561D01*
X198630484Y-56139007D01*
X198626277Y-56201121D01*
X198618521Y-56247458D01*
X198606196Y-56281573D01*
X198588285Y-56307022D01*
X198563767Y-56327362D01*
X198531623Y-56346147D01*
X198464125Y-56369928D01*
X198393681Y-56371480D01*
X198327264Y-56349580D01*
X198298286Y-56335383D01*
X198283909Y-56333261D01*
X198280297Y-56343293D01*
X198274299Y-56354556D01*
X198252830Y-56360489D01*
X198211138Y-56362179D01*
X198141980Y-56362179D01*
X198141980Y-55758614D01*
X198280297Y-55758614D01*
X198280297Y-55954342D01*
G37*
X198280297Y-55954342D02*
X198281357Y-56042394D01*
X198285509Y-56113510D01*
X198293921Y-56165199D01*
X198307757Y-56200360D01*
X198328182Y-56221889D01*
X198356364Y-56232682D01*
X198393465Y-56235636D01*
X198428890Y-56233000D01*
X198457500Y-56222679D01*
X198478296Y-56201772D01*
X198492442Y-56167381D01*
X198501103Y-56116610D01*
X198505445Y-56046563D01*
X198506633Y-55954342D01*
X198506633Y-55758614D01*
X198632376Y-55758614D01*
X198632376Y-55994578D01*
X198632160Y-56057561D01*
X198630484Y-56139007D01*
X198626277Y-56201121D01*
X198618521Y-56247458D01*
X198606196Y-56281573D01*
X198588285Y-56307022D01*
X198563767Y-56327362D01*
X198531623Y-56346147D01*
X198464125Y-56369928D01*
X198393681Y-56371480D01*
X198327264Y-56349580D01*
X198298286Y-56335383D01*
X198283909Y-56333261D01*
X198280297Y-56343293D01*
X198274299Y-56354556D01*
X198252830Y-56360489D01*
X198211138Y-56362179D01*
X198141980Y-56362179D01*
X198141980Y-55758614D01*
X198280297Y-55758614D01*
X198280297Y-55954342D01*
G36*
X199332997Y-56899130D02*
G01*
X199349997Y-56949850D01*
X199370107Y-57005997D01*
X199386899Y-57048532D01*
X199398986Y-57073990D01*
X199404980Y-57078903D01*
X199406426Y-57074630D01*
X199414254Y-57048422D01*
X199426723Y-57004649D01*
X199442447Y-56948211D01*
X199460043Y-56884010D01*
X199507914Y-56707971D01*
X199581007Y-56704152D01*
X199587177Y-56703846D01*
X199626592Y-56703441D01*
X199645533Y-56707487D01*
X199647945Y-56716726D01*
X199644898Y-56725749D01*
X199634874Y-56756632D01*
X199619180Y-56805544D01*
X199598934Y-56868987D01*
X199575256Y-56943462D01*
X199549263Y-57025471D01*
X199456736Y-57317822D01*
X199340993Y-57317822D01*
X199286457Y-57132352D01*
X199276386Y-57098294D01*
X199257775Y-57036378D01*
X199241872Y-56984787D01*
X199230109Y-56948130D01*
X199223918Y-56931018D01*
X199222154Y-56929741D01*
X199213571Y-56940779D01*
X199201316Y-56969969D01*
X199187426Y-57012750D01*
X199186692Y-57015263D01*
X199168096Y-57078400D01*
X199146818Y-57149889D01*
X199127321Y-57214734D01*
X199095705Y-57319122D01*
X199037402Y-57315328D01*
X198979098Y-57311535D01*
X198925098Y-57141782D01*
X198901390Y-57067193D01*
X198874833Y-56983539D01*
X198849404Y-56903342D01*
X198828354Y-56836857D01*
X198785609Y-56701683D01*
X198928612Y-56701683D01*
X198963274Y-56830570D01*
X198972488Y-56864625D01*
X198989915Y-56928115D01*
X199006054Y-56985874D01*
X199018322Y-57028614D01*
X199038709Y-57097773D01*
X199168745Y-56707971D01*
X199218476Y-56704237D01*
X199268206Y-56700504D01*
X199332997Y-56899130D01*
G37*
X199332997Y-56899130D02*
X199349997Y-56949850D01*
X199370107Y-57005997D01*
X199386899Y-57048532D01*
X199398986Y-57073990D01*
X199404980Y-57078903D01*
X199406426Y-57074630D01*
X199414254Y-57048422D01*
X199426723Y-57004649D01*
X199442447Y-56948211D01*
X199460043Y-56884010D01*
X199507914Y-56707971D01*
X199581007Y-56704152D01*
X199587177Y-56703846D01*
X199626592Y-56703441D01*
X199645533Y-56707487D01*
X199647945Y-56716726D01*
X199644898Y-56725749D01*
X199634874Y-56756632D01*
X199619180Y-56805544D01*
X199598934Y-56868987D01*
X199575256Y-56943462D01*
X199549263Y-57025471D01*
X199456736Y-57317822D01*
X199340993Y-57317822D01*
X199286457Y-57132352D01*
X199276386Y-57098294D01*
X199257775Y-57036378D01*
X199241872Y-56984787D01*
X199230109Y-56948130D01*
X199223918Y-56931018D01*
X199222154Y-56929741D01*
X199213571Y-56940779D01*
X199201316Y-56969969D01*
X199187426Y-57012750D01*
X199186692Y-57015263D01*
X199168096Y-57078400D01*
X199146818Y-57149889D01*
X199127321Y-57214734D01*
X199095705Y-57319122D01*
X199037402Y-57315328D01*
X198979098Y-57311535D01*
X198925098Y-57141782D01*
X198901390Y-57067193D01*
X198874833Y-56983539D01*
X198849404Y-56903342D01*
X198828354Y-56836857D01*
X198785609Y-56701683D01*
X198928612Y-56701683D01*
X198963274Y-56830570D01*
X198972488Y-56864625D01*
X198989915Y-56928115D01*
X199006054Y-56985874D01*
X199018322Y-57028614D01*
X199038709Y-57097773D01*
X199168745Y-56707971D01*
X199218476Y-56704237D01*
X199268206Y-56700504D01*
X199332997Y-56899130D01*
G36*
X201207157Y-57151882D02*
G01*
X201191835Y-57216479D01*
X201157753Y-57265063D01*
X201103218Y-57300072D01*
X201075036Y-57308589D01*
X201026764Y-57315228D01*
X200973978Y-57316813D01*
X200926353Y-57313160D01*
X200893566Y-57304083D01*
X200873652Y-57296813D01*
X200854155Y-57304083D01*
X200847023Y-57308295D01*
X200818557Y-57315126D01*
X200780059Y-57317822D01*
X200719703Y-57317822D01*
X200719703Y-57102111D01*
X200858020Y-57102111D01*
X200862668Y-57138904D01*
X200881015Y-57171269D01*
X200891514Y-57178274D01*
X200928988Y-57189191D01*
X200975773Y-57191917D01*
X201021652Y-57186379D01*
X201056410Y-57172505D01*
X201073726Y-57154161D01*
X201084356Y-57121566D01*
X201074929Y-57095729D01*
X201043764Y-57073263D01*
X200993667Y-57058850D01*
X200927582Y-57053763D01*
X200858020Y-57053763D01*
X200858020Y-57102111D01*
X200719703Y-57102111D01*
X200719703Y-57074484D01*
X200719707Y-57053440D01*
X200719937Y-56974122D01*
X200720797Y-56915154D01*
X200722679Y-56872616D01*
X200725974Y-56842592D01*
X200731073Y-56821163D01*
X200738366Y-56804411D01*
X200748246Y-56788419D01*
X200780023Y-56750948D01*
X200825055Y-56722339D01*
X200884210Y-56706555D01*
X200962161Y-56701703D01*
X200964695Y-56701708D01*
X201018880Y-56704155D01*
X201067380Y-56710256D01*
X201100478Y-56718809D01*
X201109552Y-56723096D01*
X201138433Y-56741248D01*
X201164568Y-56762822D01*
X201181764Y-56782236D01*
X201183825Y-56793909D01*
X201179803Y-56797063D01*
X201135976Y-56830739D01*
X201106671Y-56850600D01*
X201087294Y-56858613D01*
X201073253Y-56856746D01*
X201059957Y-56846965D01*
X201035418Y-56834756D01*
X200994064Y-56826615D01*
X200947326Y-56824503D01*
X200905034Y-56828800D01*
X200877017Y-56839887D01*
X200875543Y-56841236D01*
X200862953Y-56866581D01*
X200858020Y-56904411D01*
X200858020Y-56953169D01*
X200974331Y-56953216D01*
X201027760Y-56954061D01*
X201072735Y-56957740D01*
X201104907Y-56965309D01*
X201130899Y-56977808D01*
X201136948Y-56981647D01*
X201180710Y-57023845D01*
X201203987Y-57079647D01*
X201205955Y-57121566D01*
X201207299Y-57150223D01*
X201207157Y-57151882D01*
G37*
X201207157Y-57151882D02*
X201191835Y-57216479D01*
X201157753Y-57265063D01*
X201103218Y-57300072D01*
X201075036Y-57308589D01*
X201026764Y-57315228D01*
X200973978Y-57316813D01*
X200926353Y-57313160D01*
X200893566Y-57304083D01*
X200873652Y-57296813D01*
X200854155Y-57304083D01*
X200847023Y-57308295D01*
X200818557Y-57315126D01*
X200780059Y-57317822D01*
X200719703Y-57317822D01*
X200719703Y-57102111D01*
X200858020Y-57102111D01*
X200862668Y-57138904D01*
X200881015Y-57171269D01*
X200891514Y-57178274D01*
X200928988Y-57189191D01*
X200975773Y-57191917D01*
X201021652Y-57186379D01*
X201056410Y-57172505D01*
X201073726Y-57154161D01*
X201084356Y-57121566D01*
X201074929Y-57095729D01*
X201043764Y-57073263D01*
X200993667Y-57058850D01*
X200927582Y-57053763D01*
X200858020Y-57053763D01*
X200858020Y-57102111D01*
X200719703Y-57102111D01*
X200719703Y-57074484D01*
X200719707Y-57053440D01*
X200719937Y-56974122D01*
X200720797Y-56915154D01*
X200722679Y-56872616D01*
X200725974Y-56842592D01*
X200731073Y-56821163D01*
X200738366Y-56804411D01*
X200748246Y-56788419D01*
X200780023Y-56750948D01*
X200825055Y-56722339D01*
X200884210Y-56706555D01*
X200962161Y-56701703D01*
X200964695Y-56701708D01*
X201018880Y-56704155D01*
X201067380Y-56710256D01*
X201100478Y-56718809D01*
X201109552Y-56723096D01*
X201138433Y-56741248D01*
X201164568Y-56762822D01*
X201181764Y-56782236D01*
X201183825Y-56793909D01*
X201179803Y-56797063D01*
X201135976Y-56830739D01*
X201106671Y-56850600D01*
X201087294Y-56858613D01*
X201073253Y-56856746D01*
X201059957Y-56846965D01*
X201035418Y-56834756D01*
X200994064Y-56826615D01*
X200947326Y-56824503D01*
X200905034Y-56828800D01*
X200877017Y-56839887D01*
X200875543Y-56841236D01*
X200862953Y-56866581D01*
X200858020Y-56904411D01*
X200858020Y-56953169D01*
X200974331Y-56953216D01*
X201027760Y-56954061D01*
X201072735Y-56957740D01*
X201104907Y-56965309D01*
X201130899Y-56977808D01*
X201136948Y-56981647D01*
X201180710Y-57023845D01*
X201203987Y-57079647D01*
X201205955Y-57121566D01*
X201207299Y-57150223D01*
X201207157Y-57151882D01*
G36*
X200189167Y-57110571D02*
G01*
X200185962Y-57148018D01*
X200185413Y-57151450D01*
X200163838Y-57212835D01*
X200124438Y-57264877D01*
X200072752Y-57300135D01*
X200017248Y-57314729D01*
X199948977Y-57313597D01*
X199886173Y-57294029D01*
X199869815Y-57285771D01*
X199848779Y-57276923D01*
X199840774Y-57279676D01*
X199839505Y-57294029D01*
X199838922Y-57301186D01*
X199831394Y-57311772D01*
X199810488Y-57316645D01*
X199770346Y-57317822D01*
X199701188Y-57317822D01*
X199701188Y-57015930D01*
X199839505Y-57015930D01*
X199840496Y-57068230D01*
X199844519Y-57103050D01*
X199853108Y-57126905D01*
X199867797Y-57146895D01*
X199906584Y-57176618D01*
X199951974Y-57186582D01*
X199995989Y-57174260D01*
X200033060Y-57139888D01*
X200042859Y-57114735D01*
X200050097Y-57070194D01*
X200053279Y-57016155D01*
X200052277Y-56960728D01*
X200046961Y-56912022D01*
X200037204Y-56878148D01*
X200034087Y-56872593D01*
X200004038Y-56844674D01*
X199963315Y-56832306D01*
X199919579Y-56835183D01*
X199880491Y-56853000D01*
X199853710Y-56885452D01*
X199852603Y-56888181D01*
X199845963Y-56918634D01*
X199841278Y-56964139D01*
X199839505Y-57015930D01*
X199701188Y-57015930D01*
X199701188Y-56462773D01*
X199839505Y-56462773D01*
X199839505Y-56755878D01*
X199865124Y-56732693D01*
X199889792Y-56718282D01*
X199936480Y-56706236D01*
X199991056Y-56702354D01*
X200044354Y-56707120D01*
X200087207Y-56721014D01*
X200117878Y-56740779D01*
X200149471Y-56774449D01*
X200170733Y-56819730D01*
X200183514Y-56880981D01*
X200189664Y-56962563D01*
X200190568Y-56995540D01*
X200190633Y-57016155D01*
X200190761Y-57056813D01*
X200189167Y-57110571D01*
G37*
X200189167Y-57110571D02*
X200185962Y-57148018D01*
X200185413Y-57151450D01*
X200163838Y-57212835D01*
X200124438Y-57264877D01*
X200072752Y-57300135D01*
X200017248Y-57314729D01*
X199948977Y-57313597D01*
X199886173Y-57294029D01*
X199869815Y-57285771D01*
X199848779Y-57276923D01*
X199840774Y-57279676D01*
X199839505Y-57294029D01*
X199838922Y-57301186D01*
X199831394Y-57311772D01*
X199810488Y-57316645D01*
X199770346Y-57317822D01*
X199701188Y-57317822D01*
X199701188Y-57015930D01*
X199839505Y-57015930D01*
X199840496Y-57068230D01*
X199844519Y-57103050D01*
X199853108Y-57126905D01*
X199867797Y-57146895D01*
X199906584Y-57176618D01*
X199951974Y-57186582D01*
X199995989Y-57174260D01*
X200033060Y-57139888D01*
X200042859Y-57114735D01*
X200050097Y-57070194D01*
X200053279Y-57016155D01*
X200052277Y-56960728D01*
X200046961Y-56912022D01*
X200037204Y-56878148D01*
X200034087Y-56872593D01*
X200004038Y-56844674D01*
X199963315Y-56832306D01*
X199919579Y-56835183D01*
X199880491Y-56853000D01*
X199853710Y-56885452D01*
X199852603Y-56888181D01*
X199845963Y-56918634D01*
X199841278Y-56964139D01*
X199839505Y-57015930D01*
X199701188Y-57015930D01*
X199701188Y-56462773D01*
X199839505Y-56462773D01*
X199839505Y-56755878D01*
X199865124Y-56732693D01*
X199889792Y-56718282D01*
X199936480Y-56706236D01*
X199991056Y-56702354D01*
X200044354Y-56707120D01*
X200087207Y-56721014D01*
X200117878Y-56740779D01*
X200149471Y-56774449D01*
X200170733Y-56819730D01*
X200183514Y-56880981D01*
X200189664Y-56962563D01*
X200190568Y-56995540D01*
X200190633Y-57016155D01*
X200190761Y-57056813D01*
X200189167Y-57110571D01*
G36*
X198774244Y-57209419D02*
G01*
X198741277Y-57258255D01*
X198691270Y-57293386D01*
X198686362Y-57295521D01*
X198631646Y-57310903D01*
X198569993Y-57316899D01*
X198511376Y-57313233D01*
X198465767Y-57299629D01*
X198447549Y-57290754D01*
X198434179Y-57288637D01*
X198431188Y-57299706D01*
X198425524Y-57309942D01*
X198403607Y-57316038D01*
X198361068Y-57317822D01*
X198290948Y-57317822D01*
X198294680Y-57097773D01*
X198431188Y-57097773D01*
X198435924Y-57130666D01*
X198456336Y-57166931D01*
X198463871Y-57173597D01*
X198494753Y-57187620D01*
X198541213Y-57191228D01*
X198569090Y-57189819D01*
X198621255Y-57179204D01*
X198653587Y-57159425D01*
X198664492Y-57131824D01*
X198652374Y-57097743D01*
X198645304Y-57088824D01*
X198613724Y-57068818D01*
X198563744Y-57057395D01*
X198492487Y-57053763D01*
X198431188Y-57053763D01*
X198431188Y-57097773D01*
X198294680Y-57097773D01*
X198295053Y-57075768D01*
X198296169Y-57019794D01*
X198299106Y-56935996D01*
X198304058Y-56871920D01*
X198312002Y-56824073D01*
X198323917Y-56788962D01*
X198340780Y-56763093D01*
X198363572Y-56742974D01*
X198393269Y-56725110D01*
X198408589Y-56718290D01*
X198461589Y-56705417D01*
X198525513Y-56700095D01*
X198591602Y-56702227D01*
X198651099Y-56711714D01*
X198695247Y-56728461D01*
X198710604Y-56738185D01*
X198745960Y-56767005D01*
X198757926Y-56791137D01*
X198755020Y-56795800D01*
X198736909Y-56812088D01*
X198707672Y-56833817D01*
X198692725Y-56843987D01*
X198667270Y-56858397D01*
X198650728Y-56859773D01*
X198635370Y-56849827D01*
X198597094Y-56829684D01*
X198545590Y-56821400D01*
X198492957Y-56827742D01*
X198491961Y-56828030D01*
X198454838Y-56844158D01*
X198436463Y-56869405D01*
X198431380Y-56911158D01*
X198431188Y-56950879D01*
X198562423Y-56955168D01*
X198583331Y-56955873D01*
X198636043Y-56958326D01*
X198671381Y-56962180D01*
X198695267Y-56968878D01*
X198713624Y-56979864D01*
X198732376Y-56996580D01*
X198763337Y-57035244D01*
X198786029Y-57092456D01*
X198788254Y-57131824D01*
X198789413Y-57152333D01*
X198774244Y-57209419D01*
G37*
X198774244Y-57209419D02*
X198741277Y-57258255D01*
X198691270Y-57293386D01*
X198686362Y-57295521D01*
X198631646Y-57310903D01*
X198569993Y-57316899D01*
X198511376Y-57313233D01*
X198465767Y-57299629D01*
X198447549Y-57290754D01*
X198434179Y-57288637D01*
X198431188Y-57299706D01*
X198425524Y-57309942D01*
X198403607Y-57316038D01*
X198361068Y-57317822D01*
X198290948Y-57317822D01*
X198294680Y-57097773D01*
X198431188Y-57097773D01*
X198435924Y-57130666D01*
X198456336Y-57166931D01*
X198463871Y-57173597D01*
X198494753Y-57187620D01*
X198541213Y-57191228D01*
X198569090Y-57189819D01*
X198621255Y-57179204D01*
X198653587Y-57159425D01*
X198664492Y-57131824D01*
X198652374Y-57097743D01*
X198645304Y-57088824D01*
X198613724Y-57068818D01*
X198563744Y-57057395D01*
X198492487Y-57053763D01*
X198431188Y-57053763D01*
X198431188Y-57097773D01*
X198294680Y-57097773D01*
X198295053Y-57075768D01*
X198296169Y-57019794D01*
X198299106Y-56935996D01*
X198304058Y-56871920D01*
X198312002Y-56824073D01*
X198323917Y-56788962D01*
X198340780Y-56763093D01*
X198363572Y-56742974D01*
X198393269Y-56725110D01*
X198408589Y-56718290D01*
X198461589Y-56705417D01*
X198525513Y-56700095D01*
X198591602Y-56702227D01*
X198651099Y-56711714D01*
X198695247Y-56728461D01*
X198710604Y-56738185D01*
X198745960Y-56767005D01*
X198757926Y-56791137D01*
X198755020Y-56795800D01*
X198736909Y-56812088D01*
X198707672Y-56833817D01*
X198692725Y-56843987D01*
X198667270Y-56858397D01*
X198650728Y-56859773D01*
X198635370Y-56849827D01*
X198597094Y-56829684D01*
X198545590Y-56821400D01*
X198492957Y-56827742D01*
X198491961Y-56828030D01*
X198454838Y-56844158D01*
X198436463Y-56869405D01*
X198431380Y-56911158D01*
X198431188Y-56950879D01*
X198562423Y-56955168D01*
X198583331Y-56955873D01*
X198636043Y-56958326D01*
X198671381Y-56962180D01*
X198695267Y-56968878D01*
X198713624Y-56979864D01*
X198732376Y-56996580D01*
X198763337Y-57035244D01*
X198786029Y-57092456D01*
X198788254Y-57131824D01*
X198789413Y-57152333D01*
X198774244Y-57209419D01*
G36*
X197762718Y-57056692D02*
G01*
X197747827Y-57146459D01*
X197717185Y-57217045D01*
X197670524Y-57268952D01*
X197607574Y-57302686D01*
X197587235Y-57308647D01*
X197514612Y-57316971D01*
X197437928Y-57309946D01*
X197368663Y-57288265D01*
X197344262Y-57275959D01*
X197309275Y-57254879D01*
X197288072Y-57237534D01*
X197284942Y-57233571D01*
X197279085Y-57219077D01*
X197287524Y-57203321D01*
X197313221Y-57179460D01*
X197325622Y-57169072D01*
X197350052Y-57150063D01*
X197362861Y-57142293D01*
X197366530Y-57143094D01*
X197387561Y-57151745D01*
X197418960Y-57166931D01*
X197429197Y-57171926D01*
X197489590Y-57190475D01*
X197542057Y-57185694D01*
X197588065Y-57157500D01*
X197593419Y-57152291D01*
X197619013Y-57119659D01*
X197633637Y-57088342D01*
X197641736Y-57053763D01*
X197261782Y-57053763D01*
X197261852Y-56987748D01*
X197261892Y-56981182D01*
X197267022Y-56928218D01*
X197400099Y-56928218D01*
X197401670Y-56939203D01*
X197409738Y-56946773D01*
X197428967Y-56950975D01*
X197464019Y-56952783D01*
X197519554Y-56953169D01*
X197550429Y-56952768D01*
X197596002Y-56950429D01*
X197627348Y-56946465D01*
X197639010Y-56941413D01*
X197629064Y-56899827D01*
X197599947Y-56861013D01*
X197557952Y-56834086D01*
X197509440Y-56824772D01*
X197473723Y-56835272D01*
X197438020Y-56860940D01*
X197410879Y-56894381D01*
X197400099Y-56928218D01*
X197267022Y-56928218D01*
X197269758Y-56899965D01*
X197292655Y-56833895D01*
X197332607Y-56776940D01*
X197356979Y-56752848D01*
X197407315Y-56720597D01*
X197467419Y-56704970D01*
X197543338Y-56703871D01*
X197580010Y-56708179D01*
X197647703Y-56730549D01*
X197699530Y-56771263D01*
X197735945Y-56830949D01*
X197757401Y-56910236D01*
X197759579Y-56941413D01*
X197764353Y-57009753D01*
X197762718Y-57056692D01*
G37*
X197762718Y-57056692D02*
X197747827Y-57146459D01*
X197717185Y-57217045D01*
X197670524Y-57268952D01*
X197607574Y-57302686D01*
X197587235Y-57308647D01*
X197514612Y-57316971D01*
X197437928Y-57309946D01*
X197368663Y-57288265D01*
X197344262Y-57275959D01*
X197309275Y-57254879D01*
X197288072Y-57237534D01*
X197284942Y-57233571D01*
X197279085Y-57219077D01*
X197287524Y-57203321D01*
X197313221Y-57179460D01*
X197325622Y-57169072D01*
X197350052Y-57150063D01*
X197362861Y-57142293D01*
X197366530Y-57143094D01*
X197387561Y-57151745D01*
X197418960Y-57166931D01*
X197429197Y-57171926D01*
X197489590Y-57190475D01*
X197542057Y-57185694D01*
X197588065Y-57157500D01*
X197593419Y-57152291D01*
X197619013Y-57119659D01*
X197633637Y-57088342D01*
X197641736Y-57053763D01*
X197261782Y-57053763D01*
X197261852Y-56987748D01*
X197261892Y-56981182D01*
X197267022Y-56928218D01*
X197400099Y-56928218D01*
X197401670Y-56939203D01*
X197409738Y-56946773D01*
X197428967Y-56950975D01*
X197464019Y-56952783D01*
X197519554Y-56953169D01*
X197550429Y-56952768D01*
X197596002Y-56950429D01*
X197627348Y-56946465D01*
X197639010Y-56941413D01*
X197629064Y-56899827D01*
X197599947Y-56861013D01*
X197557952Y-56834086D01*
X197509440Y-56824772D01*
X197473723Y-56835272D01*
X197438020Y-56860940D01*
X197410879Y-56894381D01*
X197400099Y-56928218D01*
X197267022Y-56928218D01*
X197269758Y-56899965D01*
X197292655Y-56833895D01*
X197332607Y-56776940D01*
X197356979Y-56752848D01*
X197407315Y-56720597D01*
X197467419Y-56704970D01*
X197543338Y-56703871D01*
X197580010Y-56708179D01*
X197647703Y-56730549D01*
X197699530Y-56771263D01*
X197735945Y-56830949D01*
X197757401Y-56910236D01*
X197759579Y-56941413D01*
X197764353Y-57009753D01*
X197762718Y-57056692D01*
G36*
X197787128Y-55753945D02*
G01*
X197817954Y-55763568D01*
X197855916Y-55779563D01*
X197874296Y-55788159D01*
X197887561Y-55789713D01*
X197890495Y-55777798D01*
X197890498Y-55777461D01*
X197896709Y-55766087D01*
X197918131Y-55760256D01*
X197959653Y-55758614D01*
X198028812Y-55758614D01*
X198028812Y-56362179D01*
X197890495Y-56362179D01*
X197890495Y-55946027D01*
X197856110Y-55914161D01*
X197845368Y-55905104D01*
X197813370Y-55889630D01*
X197773965Y-55889010D01*
X197720312Y-55902664D01*
X197702225Y-55903529D01*
X197681008Y-55890283D01*
X197652768Y-55858800D01*
X197639069Y-55841385D01*
X197622868Y-55816797D01*
X197620371Y-55801145D01*
X197629442Y-55787941D01*
X197657289Y-55771245D01*
X197700540Y-55758030D01*
X197747464Y-55751478D01*
X197787128Y-55753945D01*
G37*
X197787128Y-55753945D02*
X197817954Y-55763568D01*
X197855916Y-55779563D01*
X197874296Y-55788159D01*
X197887561Y-55789713D01*
X197890495Y-55777798D01*
X197890498Y-55777461D01*
X197896709Y-55766087D01*
X197918131Y-55760256D01*
X197959653Y-55758614D01*
X198028812Y-55758614D01*
X198028812Y-56362179D01*
X197890495Y-56362179D01*
X197890495Y-55946027D01*
X197856110Y-55914161D01*
X197845368Y-55905104D01*
X197813370Y-55889630D01*
X197773965Y-55889010D01*
X197720312Y-55902664D01*
X197702225Y-55903529D01*
X197681008Y-55890283D01*
X197652768Y-55858800D01*
X197639069Y-55841385D01*
X197622868Y-55816797D01*
X197620371Y-55801145D01*
X197629442Y-55787941D01*
X197657289Y-55771245D01*
X197700540Y-55758030D01*
X197747464Y-55751478D01*
X197787128Y-55753945D01*
G36*
X201709926Y-57315336D02*
G01*
X201643911Y-57311535D01*
X201640772Y-57110347D01*
X201639844Y-57061425D01*
X201637208Y-56987926D01*
X201632683Y-56933991D01*
X201625438Y-56895995D01*
X201614642Y-56870313D01*
X201599462Y-56853320D01*
X201579066Y-56841389D01*
X201540797Y-56829205D01*
X201502738Y-56833940D01*
X201462549Y-56859979D01*
X201423861Y-56892533D01*
X201423861Y-57317822D01*
X201285544Y-57317822D01*
X201285544Y-57087176D01*
X201285677Y-57014882D01*
X201286413Y-56950641D01*
X201288181Y-56903618D01*
X201291411Y-56869548D01*
X201296530Y-56844170D01*
X201303967Y-56823221D01*
X201314150Y-56802436D01*
X201316564Y-56798024D01*
X201348675Y-56755047D01*
X201386256Y-56725013D01*
X201431564Y-56709243D01*
X201491561Y-56702222D01*
X201551643Y-56706025D01*
X201600525Y-56720868D01*
X201637624Y-56740052D01*
X201637624Y-56324859D01*
X201586792Y-56351354D01*
X201565558Y-56360980D01*
X201498536Y-56374592D01*
X201431930Y-56365184D01*
X201370187Y-56333905D01*
X201317757Y-56281902D01*
X201309543Y-56269680D01*
X201301649Y-56251763D01*
X201296500Y-56227404D01*
X201293527Y-56191927D01*
X201292161Y-56140656D01*
X201291915Y-56087236D01*
X201424749Y-56087236D01*
X201424861Y-56131849D01*
X201428272Y-56161601D01*
X201435937Y-56182835D01*
X201448814Y-56201896D01*
X201465171Y-56219617D01*
X201491329Y-56233028D01*
X201530742Y-56236436D01*
X201565559Y-56233471D01*
X201600020Y-56218631D01*
X201622215Y-56188569D01*
X201634097Y-56140254D01*
X201637624Y-56070650D01*
X201636712Y-56033624D01*
X201627609Y-55963728D01*
X201608828Y-55916464D01*
X201580476Y-55892168D01*
X201551840Y-55885332D01*
X201501970Y-55888537D01*
X201459833Y-55908380D01*
X201449749Y-55917480D01*
X201439063Y-55933223D01*
X201432456Y-55956658D01*
X201428532Y-55993604D01*
X201425897Y-56049880D01*
X201424749Y-56087236D01*
X201291915Y-56087236D01*
X201291831Y-56068917D01*
X201291944Y-56036184D01*
X201293872Y-55960044D01*
X201299240Y-55903166D01*
X201309406Y-55861249D01*
X201325725Y-55829996D01*
X201349553Y-55805106D01*
X201382247Y-55782282D01*
X201408759Y-55769184D01*
X201471615Y-55754739D01*
X201537869Y-55756707D01*
X201596757Y-55775433D01*
X201622030Y-55787673D01*
X201634742Y-55788938D01*
X201637624Y-55777798D01*
X201637626Y-55777461D01*
X201643838Y-55766087D01*
X201665260Y-55760256D01*
X201706782Y-55758614D01*
X201775940Y-55758614D01*
X201775940Y-57319136D01*
X201709926Y-57315336D01*
G37*
X201709926Y-57315336D02*
X201643911Y-57311535D01*
X201640772Y-57110347D01*
X201639844Y-57061425D01*
X201637208Y-56987926D01*
X201632683Y-56933991D01*
X201625438Y-56895995D01*
X201614642Y-56870313D01*
X201599462Y-56853320D01*
X201579066Y-56841389D01*
X201540797Y-56829205D01*
X201502738Y-56833940D01*
X201462549Y-56859979D01*
X201423861Y-56892533D01*
X201423861Y-57317822D01*
X201285544Y-57317822D01*
X201285544Y-57087176D01*
X201285677Y-57014882D01*
X201286413Y-56950641D01*
X201288181Y-56903618D01*
X201291411Y-56869548D01*
X201296530Y-56844170D01*
X201303967Y-56823221D01*
X201314150Y-56802436D01*
X201316564Y-56798024D01*
X201348675Y-56755047D01*
X201386256Y-56725013D01*
X201431564Y-56709243D01*
X201491561Y-56702222D01*
X201551643Y-56706025D01*
X201600525Y-56720868D01*
X201637624Y-56740052D01*
X201637624Y-56324859D01*
X201586792Y-56351354D01*
X201565558Y-56360980D01*
X201498536Y-56374592D01*
X201431930Y-56365184D01*
X201370187Y-56333905D01*
X201317757Y-56281902D01*
X201309543Y-56269680D01*
X201301649Y-56251763D01*
X201296500Y-56227404D01*
X201293527Y-56191927D01*
X201292161Y-56140656D01*
X201291915Y-56087236D01*
X201424749Y-56087236D01*
X201424861Y-56131849D01*
X201428272Y-56161601D01*
X201435937Y-56182835D01*
X201448814Y-56201896D01*
X201465171Y-56219617D01*
X201491329Y-56233028D01*
X201530742Y-56236436D01*
X201565559Y-56233471D01*
X201600020Y-56218631D01*
X201622215Y-56188569D01*
X201634097Y-56140254D01*
X201637624Y-56070650D01*
X201636712Y-56033624D01*
X201627609Y-55963728D01*
X201608828Y-55916464D01*
X201580476Y-55892168D01*
X201551840Y-55885332D01*
X201501970Y-55888537D01*
X201459833Y-55908380D01*
X201449749Y-55917480D01*
X201439063Y-55933223D01*
X201432456Y-55956658D01*
X201428532Y-55993604D01*
X201425897Y-56049880D01*
X201424749Y-56087236D01*
X201291915Y-56087236D01*
X201291831Y-56068917D01*
X201291944Y-56036184D01*
X201293872Y-55960044D01*
X201299240Y-55903166D01*
X201309406Y-55861249D01*
X201325725Y-55829996D01*
X201349553Y-55805106D01*
X201382247Y-55782282D01*
X201408759Y-55769184D01*
X201471615Y-55754739D01*
X201537869Y-55756707D01*
X201596757Y-55775433D01*
X201622030Y-55787673D01*
X201634742Y-55788938D01*
X201637624Y-55777798D01*
X201637626Y-55777461D01*
X201643838Y-55766087D01*
X201665260Y-55760256D01*
X201706782Y-55758614D01*
X201775940Y-55758614D01*
X201775940Y-57319136D01*
X201709926Y-57315336D01*
G36*
X199229349Y-56143565D02*
G01*
X199213844Y-56219538D01*
X199186110Y-56277511D01*
X199143898Y-56321300D01*
X199084960Y-56354722D01*
X199062076Y-56362676D01*
X199002812Y-56372601D01*
X198940447Y-56372331D01*
X198887823Y-56361430D01*
X198886789Y-56361034D01*
X198844381Y-56336087D01*
X198801537Y-56297468D01*
X198765986Y-56253306D01*
X198745459Y-56211727D01*
X198739374Y-56181334D01*
X198734164Y-56124429D01*
X198733291Y-56073705D01*
X198859976Y-56073705D01*
X198867549Y-56134545D01*
X198885341Y-56184538D01*
X198912296Y-56217204D01*
X198922513Y-56222812D01*
X198961473Y-56233007D01*
X199006536Y-56235104D01*
X199044448Y-56228020D01*
X199059244Y-56217861D01*
X199080014Y-56182334D01*
X199093083Y-56126732D01*
X199097624Y-56053766D01*
X199097551Y-56032762D01*
X199095974Y-55990203D01*
X199090728Y-55962439D01*
X199079723Y-55941925D01*
X199060868Y-55921112D01*
X199024989Y-55895887D01*
X198978280Y-55885573D01*
X198933151Y-55895396D01*
X198895680Y-55923805D01*
X198871943Y-55969253D01*
X198863675Y-56008497D01*
X198859976Y-56073705D01*
X198733291Y-56073705D01*
X198733049Y-56059621D01*
X198735844Y-55995116D01*
X198742366Y-55939121D01*
X198752432Y-55899842D01*
X198775877Y-55855372D01*
X198825637Y-55800692D01*
X198889238Y-55766055D01*
X198964790Y-55752345D01*
X199050399Y-55760448D01*
X199064644Y-55763899D01*
X199130982Y-55793664D01*
X199180971Y-55842530D01*
X199214612Y-55910501D01*
X199231906Y-55997580D01*
X199232410Y-56053766D01*
X199232857Y-56103771D01*
X199229349Y-56143565D01*
G37*
X199229349Y-56143565D02*
X199213844Y-56219538D01*
X199186110Y-56277511D01*
X199143898Y-56321300D01*
X199084960Y-56354722D01*
X199062076Y-56362676D01*
X199002812Y-56372601D01*
X198940447Y-56372331D01*
X198887823Y-56361430D01*
X198886789Y-56361034D01*
X198844381Y-56336087D01*
X198801537Y-56297468D01*
X198765986Y-56253306D01*
X198745459Y-56211727D01*
X198739374Y-56181334D01*
X198734164Y-56124429D01*
X198733291Y-56073705D01*
X198859976Y-56073705D01*
X198867549Y-56134545D01*
X198885341Y-56184538D01*
X198912296Y-56217204D01*
X198922513Y-56222812D01*
X198961473Y-56233007D01*
X199006536Y-56235104D01*
X199044448Y-56228020D01*
X199059244Y-56217861D01*
X199080014Y-56182334D01*
X199093083Y-56126732D01*
X199097624Y-56053766D01*
X199097551Y-56032762D01*
X199095974Y-55990203D01*
X199090728Y-55962439D01*
X199079723Y-55941925D01*
X199060868Y-55921112D01*
X199024989Y-55895887D01*
X198978280Y-55885573D01*
X198933151Y-55895396D01*
X198895680Y-55923805D01*
X198871943Y-55969253D01*
X198863675Y-56008497D01*
X198859976Y-56073705D01*
X198733291Y-56073705D01*
X198733049Y-56059621D01*
X198735844Y-55995116D01*
X198742366Y-55939121D01*
X198752432Y-55899842D01*
X198775877Y-55855372D01*
X198825637Y-55800692D01*
X198889238Y-55766055D01*
X198964790Y-55752345D01*
X199050399Y-55760448D01*
X199064644Y-55763899D01*
X199130982Y-55793664D01*
X199180971Y-55842530D01*
X199214612Y-55910501D01*
X199231906Y-55997580D01*
X199232410Y-56053766D01*
X199232857Y-56103771D01*
X199229349Y-56143565D01*
G36*
X200382605Y-55757424D02*
G01*
X200439926Y-55775434D01*
X200465199Y-55787674D01*
X200477910Y-55788938D01*
X200480792Y-55777798D01*
X200480795Y-55777461D01*
X200487006Y-55766087D01*
X200508428Y-55760256D01*
X200549950Y-55758614D01*
X200619109Y-55758614D01*
X200619109Y-56362179D01*
X200480792Y-56362179D01*
X200480792Y-56154132D01*
X200480697Y-56083879D01*
X200480051Y-56026170D01*
X200478320Y-55985787D01*
X200474974Y-55958615D01*
X200469481Y-55940540D01*
X200461310Y-55927447D01*
X200449928Y-55915221D01*
X200434424Y-55902217D01*
X200389843Y-55884745D01*
X200343047Y-55889873D01*
X200300180Y-55917507D01*
X200287927Y-55930368D01*
X200279132Y-55943384D01*
X200273233Y-55960706D01*
X200269651Y-55986501D01*
X200267809Y-56024939D01*
X200267128Y-56080189D01*
X200267030Y-56156418D01*
X200267030Y-56362179D01*
X200128713Y-56362179D01*
X200128989Y-56138985D01*
X200129008Y-56129044D01*
X200130207Y-56034106D01*
X200133891Y-55960358D01*
X200141006Y-55904214D01*
X200152500Y-55862087D01*
X200169318Y-55830391D01*
X200192409Y-55805541D01*
X200222717Y-55783950D01*
X200254012Y-55769002D01*
X200317037Y-55755421D01*
X200382605Y-55757424D01*
G37*
X200382605Y-55757424D02*
X200439926Y-55775434D01*
X200465199Y-55787674D01*
X200477910Y-55788938D01*
X200480792Y-55777798D01*
X200480795Y-55777461D01*
X200487006Y-55766087D01*
X200508428Y-55760256D01*
X200549950Y-55758614D01*
X200619109Y-55758614D01*
X200619109Y-56362179D01*
X200480792Y-56362179D01*
X200480792Y-56154132D01*
X200480697Y-56083879D01*
X200480051Y-56026170D01*
X200478320Y-55985787D01*
X200474974Y-55958615D01*
X200469481Y-55940540D01*
X200461310Y-55927447D01*
X200449928Y-55915221D01*
X200434424Y-55902217D01*
X200389843Y-55884745D01*
X200343047Y-55889873D01*
X200300180Y-55917507D01*
X200287927Y-55930368D01*
X200279132Y-55943384D01*
X200273233Y-55960706D01*
X200269651Y-55986501D01*
X200267809Y-56024939D01*
X200267128Y-56080189D01*
X200267030Y-56156418D01*
X200267030Y-56362179D01*
X200128713Y-56362179D01*
X200128989Y-56138985D01*
X200129008Y-56129044D01*
X200130207Y-56034106D01*
X200133891Y-55960358D01*
X200141006Y-55904214D01*
X200152500Y-55862087D01*
X200169318Y-55830391D01*
X200192409Y-55805541D01*
X200222717Y-55783950D01*
X200254012Y-55769002D01*
X200317037Y-55755421D01*
X200382605Y-55757424D01*
G36*
X199598874Y-55758207D02*
G01*
X199671495Y-55776408D01*
X199724546Y-55810144D01*
X199758329Y-55859642D01*
X199773147Y-55925126D01*
X199770147Y-55987820D01*
X199748493Y-56040699D01*
X199706967Y-56079796D01*
X199644736Y-56105873D01*
X199560969Y-56119695D01*
X199506540Y-56126940D01*
X199456860Y-56142615D01*
X199431211Y-56165314D01*
X199429662Y-56194998D01*
X199439984Y-56213507D01*
X199471951Y-56235443D01*
X199517395Y-56245818D01*
X199570649Y-56244399D01*
X199626048Y-56230952D01*
X199677928Y-56205243D01*
X199729653Y-56171013D01*
X199775148Y-56217049D01*
X199820643Y-56263084D01*
X199782921Y-56293876D01*
X199768253Y-56304574D01*
X199726983Y-56328880D01*
X199682327Y-56349825D01*
X199646984Y-56361845D01*
X199595234Y-56370552D01*
X199531435Y-56370667D01*
X199453200Y-56361081D01*
X199382722Y-56336783D01*
X199332836Y-56298188D01*
X199303423Y-56245198D01*
X199294365Y-56177718D01*
X199300921Y-56118354D01*
X199321970Y-56069752D01*
X199359864Y-56034946D01*
X199417004Y-56011798D01*
X199495785Y-55998170D01*
X199504834Y-55997183D01*
X199553885Y-55990892D01*
X199593675Y-55984309D01*
X199616312Y-55978708D01*
X199623866Y-55974197D01*
X199636637Y-55950941D01*
X199634563Y-55921171D01*
X199617495Y-55895327D01*
X199608533Y-55889691D01*
X199571188Y-55880660D01*
X199522950Y-55881267D01*
X199472650Y-55890878D01*
X199429115Y-55908858D01*
X199383372Y-55935847D01*
X199347890Y-55894384D01*
X199339280Y-55883850D01*
X199319883Y-55855632D01*
X199311897Y-55836508D01*
X199320283Y-55824781D01*
X199346226Y-55806476D01*
X199383688Y-55786777D01*
X199388966Y-55784370D01*
X199438366Y-55765482D01*
X199485983Y-55756452D01*
X199545072Y-55754639D01*
X199598874Y-55758207D01*
G37*
X199598874Y-55758207D02*
X199671495Y-55776408D01*
X199724546Y-55810144D01*
X199758329Y-55859642D01*
X199773147Y-55925126D01*
X199770147Y-55987820D01*
X199748493Y-56040699D01*
X199706967Y-56079796D01*
X199644736Y-56105873D01*
X199560969Y-56119695D01*
X199506540Y-56126940D01*
X199456860Y-56142615D01*
X199431211Y-56165314D01*
X199429662Y-56194998D01*
X199439984Y-56213507D01*
X199471951Y-56235443D01*
X199517395Y-56245818D01*
X199570649Y-56244399D01*
X199626048Y-56230952D01*
X199677928Y-56205243D01*
X199729653Y-56171013D01*
X199775148Y-56217049D01*
X199820643Y-56263084D01*
X199782921Y-56293876D01*
X199768253Y-56304574D01*
X199726983Y-56328880D01*
X199682327Y-56349825D01*
X199646984Y-56361845D01*
X199595234Y-56370552D01*
X199531435Y-56370667D01*
X199453200Y-56361081D01*
X199382722Y-56336783D01*
X199332836Y-56298188D01*
X199303423Y-56245198D01*
X199294365Y-56177718D01*
X199300921Y-56118354D01*
X199321970Y-56069752D01*
X199359864Y-56034946D01*
X199417004Y-56011798D01*
X199495785Y-55998170D01*
X199504834Y-55997183D01*
X199553885Y-55990892D01*
X199593675Y-55984309D01*
X199616312Y-55978708D01*
X199623866Y-55974197D01*
X199636637Y-55950941D01*
X199634563Y-55921171D01*
X199617495Y-55895327D01*
X199608533Y-55889691D01*
X199571188Y-55880660D01*
X199522950Y-55881267D01*
X199472650Y-55890878D01*
X199429115Y-55908858D01*
X199383372Y-55935847D01*
X199347890Y-55894384D01*
X199339280Y-55883850D01*
X199319883Y-55855632D01*
X199311897Y-55836508D01*
X199320283Y-55824781D01*
X199346226Y-55806476D01*
X199383688Y-55786777D01*
X199388966Y-55784370D01*
X199438366Y-55765482D01*
X199485983Y-55756452D01*
X199545072Y-55754639D01*
X199598874Y-55758207D01*
G36*
X197433409Y-55761493D02*
G01*
X197502021Y-55788224D01*
X197560048Y-55832351D01*
X197602907Y-55892958D01*
X197605801Y-55899137D01*
X197624176Y-55959409D01*
X197633357Y-56031407D01*
X197633285Y-56106369D01*
X197623901Y-56175536D01*
X197605149Y-56230149D01*
X197581995Y-56268212D01*
X197531030Y-56322135D01*
X197467306Y-56356411D01*
X197412785Y-56370272D01*
X197329767Y-56371785D01*
X197250326Y-56350882D01*
X197179879Y-56308464D01*
X197134284Y-56270880D01*
X197175351Y-56228510D01*
X197201296Y-56203409D01*
X197224764Y-56189434D01*
X197246524Y-56192511D01*
X197274356Y-56211287D01*
X197285454Y-56218638D01*
X197332337Y-56233683D01*
X197386224Y-56233673D01*
X197436675Y-56218168D01*
X197455672Y-56205716D01*
X197483537Y-56168946D01*
X197497506Y-56114939D01*
X197498405Y-56041331D01*
X197498403Y-56041289D01*
X197488009Y-55975433D01*
X197465114Y-55929772D01*
X197427439Y-55901528D01*
X197372708Y-55887920D01*
X197338241Y-55886090D01*
X197308126Y-55893584D01*
X197277240Y-55915295D01*
X197237272Y-55948926D01*
X197186656Y-55908250D01*
X197168163Y-55892667D01*
X197145065Y-55870340D01*
X197136039Y-55857183D01*
X197139236Y-55851253D01*
X197157646Y-55833048D01*
X197186973Y-55809895D01*
X197209920Y-55794830D01*
X197282774Y-55763880D01*
X197358799Y-55753073D01*
X197433409Y-55761493D01*
G37*
X197433409Y-55761493D02*
X197502021Y-55788224D01*
X197560048Y-55832351D01*
X197602907Y-55892958D01*
X197605801Y-55899137D01*
X197624176Y-55959409D01*
X197633357Y-56031407D01*
X197633285Y-56106369D01*
X197623901Y-56175536D01*
X197605149Y-56230149D01*
X197581995Y-56268212D01*
X197531030Y-56322135D01*
X197467306Y-56356411D01*
X197412785Y-56370272D01*
X197329767Y-56371785D01*
X197250326Y-56350882D01*
X197179879Y-56308464D01*
X197134284Y-56270880D01*
X197175351Y-56228510D01*
X197201296Y-56203409D01*
X197224764Y-56189434D01*
X197246524Y-56192511D01*
X197274356Y-56211287D01*
X197285454Y-56218638D01*
X197332337Y-56233683D01*
X197386224Y-56233673D01*
X197436675Y-56218168D01*
X197455672Y-56205716D01*
X197483537Y-56168946D01*
X197497506Y-56114939D01*
X197498405Y-56041331D01*
X197498403Y-56041289D01*
X197488009Y-55975433D01*
X197465114Y-55929772D01*
X197427439Y-55901528D01*
X197372708Y-55887920D01*
X197338241Y-55886090D01*
X197308126Y-55893584D01*
X197277240Y-55915295D01*
X197237272Y-55948926D01*
X197186656Y-55908250D01*
X197168163Y-55892667D01*
X197145065Y-55870340D01*
X197136039Y-55857183D01*
X197139236Y-55851253D01*
X197157646Y-55833048D01*
X197186973Y-55809895D01*
X197209920Y-55794830D01*
X197282774Y-55763880D01*
X197358799Y-55753073D01*
X197433409Y-55761493D01*
G36*
X201211421Y-56072936D02*
G01*
X201210322Y-56111371D01*
X201197926Y-56195367D01*
X201170608Y-56261595D01*
X201126941Y-56312784D01*
X201065495Y-56351663D01*
X201005888Y-56369812D01*
X200931110Y-56373284D01*
X200855664Y-56359930D01*
X200788366Y-56330425D01*
X200763428Y-56314012D01*
X200735951Y-56292973D01*
X200723414Y-56279129D01*
X200724124Y-56273417D01*
X200738158Y-56253955D01*
X200764533Y-56230376D01*
X200810240Y-56195513D01*
X200863799Y-56222262D01*
X200878282Y-56228882D01*
X200920916Y-56243273D01*
X200956649Y-56249010D01*
X200982998Y-56244282D01*
X201024347Y-56221514D01*
X201059104Y-56186170D01*
X201078983Y-56145273D01*
X201087083Y-56110693D01*
X200707129Y-56110693D01*
X200707199Y-56044679D01*
X200707774Y-56023757D01*
X200711972Y-55978862D01*
X200845445Y-55978862D01*
X200845690Y-55981434D01*
X200852604Y-55989443D01*
X200872141Y-55994364D01*
X200908467Y-55996843D01*
X200965748Y-55997525D01*
X200984575Y-55997517D01*
X201033470Y-55997065D01*
X201062863Y-55995113D01*
X201077115Y-55990558D01*
X201080582Y-55982299D01*
X201077625Y-55969233D01*
X201077173Y-55967752D01*
X201051699Y-55922285D01*
X201011539Y-55890981D01*
X200963651Y-55879327D01*
X200945949Y-55880259D01*
X200913094Y-55891408D01*
X200881575Y-55919763D01*
X200873085Y-55929789D01*
X200853336Y-55958423D01*
X200845445Y-55978862D01*
X200711972Y-55978862D01*
X200712512Y-55973091D01*
X200720459Y-55931166D01*
X200729168Y-55907696D01*
X200759790Y-55856646D01*
X200800799Y-55810283D01*
X200844168Y-55778514D01*
X200856699Y-55772614D01*
X200929661Y-55753046D01*
X201004168Y-55755109D01*
X201074217Y-55777931D01*
X201133807Y-55820639D01*
X201166038Y-55860025D01*
X201192392Y-55915510D01*
X201206482Y-55982299D01*
X201207022Y-55984861D01*
X201211421Y-56072936D01*
G37*
X201211421Y-56072936D02*
X201210322Y-56111371D01*
X201197926Y-56195367D01*
X201170608Y-56261595D01*
X201126941Y-56312784D01*
X201065495Y-56351663D01*
X201005888Y-56369812D01*
X200931110Y-56373284D01*
X200855664Y-56359930D01*
X200788366Y-56330425D01*
X200763428Y-56314012D01*
X200735951Y-56292973D01*
X200723414Y-56279129D01*
X200724124Y-56273417D01*
X200738158Y-56253955D01*
X200764533Y-56230376D01*
X200810240Y-56195513D01*
X200863799Y-56222262D01*
X200878282Y-56228882D01*
X200920916Y-56243273D01*
X200956649Y-56249010D01*
X200982998Y-56244282D01*
X201024347Y-56221514D01*
X201059104Y-56186170D01*
X201078983Y-56145273D01*
X201087083Y-56110693D01*
X200707129Y-56110693D01*
X200707199Y-56044679D01*
X200707774Y-56023757D01*
X200711972Y-55978862D01*
X200845445Y-55978862D01*
X200845690Y-55981434D01*
X200852604Y-55989443D01*
X200872141Y-55994364D01*
X200908467Y-55996843D01*
X200965748Y-55997525D01*
X200984575Y-55997517D01*
X201033470Y-55997065D01*
X201062863Y-55995113D01*
X201077115Y-55990558D01*
X201080582Y-55982299D01*
X201077625Y-55969233D01*
X201077173Y-55967752D01*
X201051699Y-55922285D01*
X201011539Y-55890981D01*
X200963651Y-55879327D01*
X200945949Y-55880259D01*
X200913094Y-55891408D01*
X200881575Y-55919763D01*
X200873085Y-55929789D01*
X200853336Y-55958423D01*
X200845445Y-55978862D01*
X200711972Y-55978862D01*
X200712512Y-55973091D01*
X200720459Y-55931166D01*
X200729168Y-55907696D01*
X200759790Y-55856646D01*
X200800799Y-55810283D01*
X200844168Y-55778514D01*
X200856699Y-55772614D01*
X200929661Y-55753046D01*
X201004168Y-55755109D01*
X201074217Y-55777931D01*
X201133807Y-55820639D01*
X201166038Y-55860025D01*
X201192392Y-55915510D01*
X201206482Y-55982299D01*
X201207022Y-55984861D01*
X201211421Y-56072936D01*
G36*
X199864389Y-51590018D02*
G01*
X199921237Y-51891570D01*
X200131001Y-51978041D01*
X200340764Y-52064512D01*
X200592410Y-51893395D01*
X200642216Y-51859661D01*
X200708244Y-51815381D01*
X200765410Y-51777561D01*
X200810744Y-51748142D01*
X200841280Y-51729067D01*
X200854046Y-51722278D01*
X200861887Y-51727106D01*
X200885325Y-51747339D01*
X200920794Y-51780543D01*
X200965289Y-51823670D01*
X201015805Y-51873670D01*
X201069336Y-51927495D01*
X201122877Y-51982095D01*
X201173423Y-52034423D01*
X201217968Y-52081428D01*
X201253507Y-52120063D01*
X201277034Y-52147278D01*
X201285544Y-52160024D01*
X201283565Y-52165500D01*
X201269857Y-52189927D01*
X201244825Y-52230129D01*
X201210499Y-52282952D01*
X201168907Y-52345247D01*
X201122079Y-52413862D01*
X201096380Y-52451283D01*
X201052173Y-52516432D01*
X201014272Y-52573289D01*
X200984698Y-52618770D01*
X200965472Y-52649793D01*
X200958614Y-52663274D01*
X200958726Y-52664021D01*
X200964776Y-52681110D01*
X200978654Y-52716006D01*
X200998427Y-52764151D01*
X201022160Y-52820986D01*
X201047918Y-52881953D01*
X201073766Y-52942492D01*
X201097771Y-52998047D01*
X201117998Y-53044057D01*
X201132511Y-53075965D01*
X201139377Y-53089212D01*
X201143439Y-53090387D01*
X201168121Y-53095687D01*
X201212111Y-53104467D01*
X201271887Y-53116040D01*
X201343929Y-53129721D01*
X201424716Y-53144823D01*
X201467294Y-53152830D01*
X201545445Y-53168107D01*
X201613775Y-53182215D01*
X201668551Y-53194345D01*
X201706037Y-53203686D01*
X201722500Y-53209427D01*
X201725457Y-53215119D01*
X201730362Y-53242930D01*
X201734216Y-53289250D01*
X201737021Y-53349720D01*
X201738781Y-53419983D01*
X201739499Y-53495680D01*
X201739177Y-53572453D01*
X201737819Y-53645944D01*
X201735428Y-53711794D01*
X201732006Y-53765645D01*
X201727556Y-53803138D01*
X201722082Y-53819916D01*
X201718760Y-53821809D01*
X201693987Y-53829926D01*
X201651011Y-53840666D01*
X201594802Y-53852853D01*
X201530325Y-53865310D01*
X201508570Y-53869277D01*
X201408093Y-53887729D01*
X201329126Y-53902559D01*
X201268934Y-53914380D01*
X201224778Y-53923809D01*
X201193920Y-53931460D01*
X201173625Y-53937948D01*
X201161154Y-53943888D01*
X201153771Y-53949894D01*
X201152913Y-53950902D01*
X201140838Y-53971919D01*
X201122971Y-54010376D01*
X201101042Y-54061761D01*
X201076784Y-54121563D01*
X201051927Y-54185270D01*
X201028205Y-54248371D01*
X201007347Y-54306355D01*
X200991087Y-54354709D01*
X200981156Y-54388922D01*
X200979285Y-54404483D01*
X200980536Y-54406502D01*
X200993486Y-54426028D01*
X201017840Y-54462042D01*
X201051340Y-54511228D01*
X201091727Y-54570267D01*
X201136745Y-54635842D01*
X201149100Y-54653884D01*
X201192545Y-54718599D01*
X201230091Y-54776476D01*
X201259594Y-54824082D01*
X201278914Y-54857985D01*
X201285905Y-54874752D01*
X201284398Y-54879161D01*
X201268695Y-54900882D01*
X201237714Y-54936354D01*
X201193673Y-54983188D01*
X201138790Y-55038996D01*
X201075286Y-55101392D01*
X201038988Y-55136317D01*
X200981595Y-55190711D01*
X200931361Y-55237302D01*
X200890984Y-55273636D01*
X200863161Y-55297261D01*
X200850590Y-55305724D01*
X200841952Y-55302587D01*
X200815360Y-55287747D01*
X200776741Y-55263477D01*
X200731134Y-55232852D01*
X200698707Y-55210503D01*
X200633970Y-55166122D01*
X200564886Y-55118987D01*
X200501787Y-55076155D01*
X200378178Y-54992547D01*
X200274417Y-55048650D01*
X200249984Y-55061599D01*
X200205552Y-55083749D01*
X200171191Y-55099041D01*
X200152828Y-55104743D01*
X200146818Y-55097421D01*
X200131895Y-55069541D01*
X200109852Y-55023575D01*
X200081917Y-54962441D01*
X200049317Y-54889055D01*
X200013276Y-54806335D01*
X199975023Y-54717197D01*
X199935783Y-54624559D01*
X199896783Y-54531337D01*
X199859249Y-54440450D01*
X199824409Y-54354814D01*
X199793488Y-54277345D01*
X199767714Y-54210962D01*
X199748311Y-54158582D01*
X199736508Y-54123121D01*
X199733531Y-54107496D01*
X199733732Y-54107039D01*
X199747601Y-54092595D01*
X199776611Y-54069974D01*
X199814772Y-54043864D01*
X199826817Y-54035892D01*
X199918469Y-53960256D01*
X199994323Y-53870169D01*
X200052581Y-53769381D01*
X200091448Y-53661640D01*
X200109128Y-53550697D01*
X200103826Y-53440303D01*
X200082347Y-53342115D01*
X200043782Y-53242966D01*
X199987562Y-53154512D01*
X199910410Y-53070487D01*
X199880095Y-53043645D01*
X199782094Y-52977510D01*
X199676227Y-52932970D01*
X199565561Y-52909625D01*
X199453164Y-52907078D01*
X199342105Y-52924929D01*
X199235451Y-52962780D01*
X199136270Y-53020232D01*
X199047631Y-53096887D01*
X198972600Y-53192345D01*
X198958175Y-53215985D01*
X198909143Y-53324034D01*
X198883103Y-53436548D01*
X198879372Y-53550614D01*
X198897268Y-53663318D01*
X198936109Y-53771745D01*
X198995214Y-53872982D01*
X199073900Y-53964114D01*
X199171485Y-54042228D01*
X199174654Y-54044333D01*
X199212411Y-54070940D01*
X199240709Y-54093561D01*
X199253634Y-54107496D01*
X199252003Y-54118421D01*
X199241864Y-54150231D01*
X199223884Y-54199534D01*
X199199292Y-54263413D01*
X199169311Y-54338948D01*
X199135170Y-54423223D01*
X199098092Y-54513320D01*
X199059306Y-54606321D01*
X199020036Y-54699308D01*
X198981509Y-54789364D01*
X198944950Y-54873571D01*
X198911586Y-54949010D01*
X198882643Y-55012765D01*
X198859346Y-55061917D01*
X198842923Y-55093549D01*
X198834598Y-55104743D01*
X198827674Y-55103227D01*
X198800477Y-55092331D01*
X198760280Y-55073228D01*
X198713009Y-55048650D01*
X198609248Y-54992547D01*
X198485639Y-55076155D01*
X198449120Y-55100913D01*
X198381194Y-55147171D01*
X198313475Y-55193503D01*
X198256291Y-55232852D01*
X198224732Y-55254297D01*
X198183714Y-55280939D01*
X198153301Y-55299178D01*
X198138446Y-55305941D01*
X198132065Y-55303070D01*
X198108996Y-55285485D01*
X198073433Y-55254523D01*
X198028471Y-55213231D01*
X197977206Y-55164653D01*
X197922733Y-55111835D01*
X197868148Y-55057823D01*
X197816547Y-55005661D01*
X197771024Y-54958396D01*
X197734675Y-54919072D01*
X197710595Y-54890736D01*
X197701881Y-54876432D01*
X197702383Y-54873711D01*
X197712755Y-54851560D01*
X197734912Y-54813235D01*
X197766712Y-54762200D01*
X197806016Y-54701914D01*
X197850681Y-54635842D01*
X197863207Y-54617617D01*
X197907193Y-54553485D01*
X197945937Y-54496789D01*
X197977182Y-54450844D01*
X197998669Y-54418970D01*
X198008140Y-54404483D01*
X198008373Y-54403862D01*
X198005578Y-54386139D01*
X197994903Y-54350235D01*
X197978081Y-54300662D01*
X197956843Y-54241932D01*
X197932921Y-54178556D01*
X197908046Y-54115046D01*
X197883950Y-54055913D01*
X197862365Y-54005669D01*
X197845023Y-53968826D01*
X197833655Y-53949894D01*
X197832516Y-53948719D01*
X197824376Y-53942773D01*
X197810629Y-53936776D01*
X197788537Y-53930114D01*
X197755363Y-53922173D01*
X197708370Y-53912337D01*
X197644820Y-53899991D01*
X197561976Y-53884520D01*
X197457100Y-53865310D01*
X197435348Y-53861267D01*
X197373036Y-53848769D01*
X197320619Y-53836927D01*
X197283066Y-53826917D01*
X197265343Y-53819916D01*
X197262378Y-53814075D01*
X197257435Y-53786016D01*
X197253518Y-53739500D01*
X197250629Y-53678886D01*
X197248773Y-53608532D01*
X197247952Y-53532796D01*
X197248168Y-53456037D01*
X197249426Y-53382612D01*
X197251728Y-53316880D01*
X197255076Y-53263200D01*
X197259474Y-53225930D01*
X197264926Y-53209427D01*
X197270491Y-53206989D01*
X197298178Y-53199305D01*
X197344979Y-53188436D01*
X197407157Y-53175192D01*
X197480979Y-53160384D01*
X197562710Y-53144823D01*
X197607336Y-53136509D01*
X197683824Y-53122092D01*
X197749660Y-53109467D01*
X197801323Y-53099321D01*
X197835293Y-53092341D01*
X197848048Y-53089212D01*
X197848528Y-53088568D01*
X197856651Y-53072181D01*
X197872137Y-53037852D01*
X197893050Y-52990136D01*
X197917455Y-52933586D01*
X197943416Y-52872758D01*
X197968997Y-52812206D01*
X197992262Y-52756485D01*
X198011277Y-52710150D01*
X198024105Y-52677755D01*
X198028812Y-52663855D01*
X198026736Y-52658965D01*
X198012920Y-52635692D01*
X197987860Y-52596519D01*
X197953568Y-52544520D01*
X197912059Y-52482768D01*
X197865346Y-52414336D01*
X197839718Y-52376860D01*
X197795490Y-52311156D01*
X197757570Y-52253492D01*
X197727980Y-52207014D01*
X197708743Y-52174865D01*
X197701881Y-52160190D01*
X197706649Y-52152230D01*
X197726593Y-52128446D01*
X197759313Y-52092451D01*
X197801805Y-52047295D01*
X197851065Y-51996028D01*
X197904091Y-51941701D01*
X197957877Y-51887364D01*
X198009421Y-51836067D01*
X198055720Y-51790859D01*
X198093769Y-51754792D01*
X198120565Y-51730914D01*
X198133105Y-51722278D01*
X198140066Y-51725636D01*
X198165627Y-51741210D01*
X198206874Y-51767715D01*
X198260837Y-51803210D01*
X198324542Y-51845750D01*
X198395016Y-51893395D01*
X198646662Y-52064512D01*
X199066188Y-51891570D01*
X199123036Y-51590018D01*
X199179885Y-51288466D01*
X199807540Y-51288466D01*
X199864389Y-51590018D01*
G37*
X199864389Y-51590018D02*
X199921237Y-51891570D01*
X200131001Y-51978041D01*
X200340764Y-52064512D01*
X200592410Y-51893395D01*
X200642216Y-51859661D01*
X200708244Y-51815381D01*
X200765410Y-51777561D01*
X200810744Y-51748142D01*
X200841280Y-51729067D01*
X200854046Y-51722278D01*
X200861887Y-51727106D01*
X200885325Y-51747339D01*
X200920794Y-51780543D01*
X200965289Y-51823670D01*
X201015805Y-51873670D01*
X201069336Y-51927495D01*
X201122877Y-51982095D01*
X201173423Y-52034423D01*
X201217968Y-52081428D01*
X201253507Y-52120063D01*
X201277034Y-52147278D01*
X201285544Y-52160024D01*
X201283565Y-52165500D01*
X201269857Y-52189927D01*
X201244825Y-52230129D01*
X201210499Y-52282952D01*
X201168907Y-52345247D01*
X201122079Y-52413862D01*
X201096380Y-52451283D01*
X201052173Y-52516432D01*
X201014272Y-52573289D01*
X200984698Y-52618770D01*
X200965472Y-52649793D01*
X200958614Y-52663274D01*
X200958726Y-52664021D01*
X200964776Y-52681110D01*
X200978654Y-52716006D01*
X200998427Y-52764151D01*
X201022160Y-52820986D01*
X201047918Y-52881953D01*
X201073766Y-52942492D01*
X201097771Y-52998047D01*
X201117998Y-53044057D01*
X201132511Y-53075965D01*
X201139377Y-53089212D01*
X201143439Y-53090387D01*
X201168121Y-53095687D01*
X201212111Y-53104467D01*
X201271887Y-53116040D01*
X201343929Y-53129721D01*
X201424716Y-53144823D01*
X201467294Y-53152830D01*
X201545445Y-53168107D01*
X201613775Y-53182215D01*
X201668551Y-53194345D01*
X201706037Y-53203686D01*
X201722500Y-53209427D01*
X201725457Y-53215119D01*
X201730362Y-53242930D01*
X201734216Y-53289250D01*
X201737021Y-53349720D01*
X201738781Y-53419983D01*
X201739499Y-53495680D01*
X201739177Y-53572453D01*
X201737819Y-53645944D01*
X201735428Y-53711794D01*
X201732006Y-53765645D01*
X201727556Y-53803138D01*
X201722082Y-53819916D01*
X201718760Y-53821809D01*
X201693987Y-53829926D01*
X201651011Y-53840666D01*
X201594802Y-53852853D01*
X201530325Y-53865310D01*
X201508570Y-53869277D01*
X201408093Y-53887729D01*
X201329126Y-53902559D01*
X201268934Y-53914380D01*
X201224778Y-53923809D01*
X201193920Y-53931460D01*
X201173625Y-53937948D01*
X201161154Y-53943888D01*
X201153771Y-53949894D01*
X201152913Y-53950902D01*
X201140838Y-53971919D01*
X201122971Y-54010376D01*
X201101042Y-54061761D01*
X201076784Y-54121563D01*
X201051927Y-54185270D01*
X201028205Y-54248371D01*
X201007347Y-54306355D01*
X200991087Y-54354709D01*
X200981156Y-54388922D01*
X200979285Y-54404483D01*
X200980536Y-54406502D01*
X200993486Y-54426028D01*
X201017840Y-54462042D01*
X201051340Y-54511228D01*
X201091727Y-54570267D01*
X201136745Y-54635842D01*
X201149100Y-54653884D01*
X201192545Y-54718599D01*
X201230091Y-54776476D01*
X201259594Y-54824082D01*
X201278914Y-54857985D01*
X201285905Y-54874752D01*
X201284398Y-54879161D01*
X201268695Y-54900882D01*
X201237714Y-54936354D01*
X201193673Y-54983188D01*
X201138790Y-55038996D01*
X201075286Y-55101392D01*
X201038988Y-55136317D01*
X200981595Y-55190711D01*
X200931361Y-55237302D01*
X200890984Y-55273636D01*
X200863161Y-55297261D01*
X200850590Y-55305724D01*
X200841952Y-55302587D01*
X200815360Y-55287747D01*
X200776741Y-55263477D01*
X200731134Y-55232852D01*
X200698707Y-55210503D01*
X200633970Y-55166122D01*
X200564886Y-55118987D01*
X200501787Y-55076155D01*
X200378178Y-54992547D01*
X200274417Y-55048650D01*
X200249984Y-55061599D01*
X200205552Y-55083749D01*
X200171191Y-55099041D01*
X200152828Y-55104743D01*
X200146818Y-55097421D01*
X200131895Y-55069541D01*
X200109852Y-55023575D01*
X200081917Y-54962441D01*
X200049317Y-54889055D01*
X200013276Y-54806335D01*
X199975023Y-54717197D01*
X199935783Y-54624559D01*
X199896783Y-54531337D01*
X199859249Y-54440450D01*
X199824409Y-54354814D01*
X199793488Y-54277345D01*
X199767714Y-54210962D01*
X199748311Y-54158582D01*
X199736508Y-54123121D01*
X199733531Y-54107496D01*
X199733732Y-54107039D01*
X199747601Y-54092595D01*
X199776611Y-54069974D01*
X199814772Y-54043864D01*
X199826817Y-54035892D01*
X199918469Y-53960256D01*
X199994323Y-53870169D01*
X200052581Y-53769381D01*
X200091448Y-53661640D01*
X200109128Y-53550697D01*
X200103826Y-53440303D01*
X200082347Y-53342115D01*
X200043782Y-53242966D01*
X199987562Y-53154512D01*
X199910410Y-53070487D01*
X199880095Y-53043645D01*
X199782094Y-52977510D01*
X199676227Y-52932970D01*
X199565561Y-52909625D01*
X199453164Y-52907078D01*
X199342105Y-52924929D01*
X199235451Y-52962780D01*
X199136270Y-53020232D01*
X199047631Y-53096887D01*
X198972600Y-53192345D01*
X198958175Y-53215985D01*
X198909143Y-53324034D01*
X198883103Y-53436548D01*
X198879372Y-53550614D01*
X198897268Y-53663318D01*
X198936109Y-53771745D01*
X198995214Y-53872982D01*
X199073900Y-53964114D01*
X199171485Y-54042228D01*
X199174654Y-54044333D01*
X199212411Y-54070940D01*
X199240709Y-54093561D01*
X199253634Y-54107496D01*
X199252003Y-54118421D01*
X199241864Y-54150231D01*
X199223884Y-54199534D01*
X199199292Y-54263413D01*
X199169311Y-54338948D01*
X199135170Y-54423223D01*
X199098092Y-54513320D01*
X199059306Y-54606321D01*
X199020036Y-54699308D01*
X198981509Y-54789364D01*
X198944950Y-54873571D01*
X198911586Y-54949010D01*
X198882643Y-55012765D01*
X198859346Y-55061917D01*
X198842923Y-55093549D01*
X198834598Y-55104743D01*
X198827674Y-55103227D01*
X198800477Y-55092331D01*
X198760280Y-55073228D01*
X198713009Y-55048650D01*
X198609248Y-54992547D01*
X198485639Y-55076155D01*
X198449120Y-55100913D01*
X198381194Y-55147171D01*
X198313475Y-55193503D01*
X198256291Y-55232852D01*
X198224732Y-55254297D01*
X198183714Y-55280939D01*
X198153301Y-55299178D01*
X198138446Y-55305941D01*
X198132065Y-55303070D01*
X198108996Y-55285485D01*
X198073433Y-55254523D01*
X198028471Y-55213231D01*
X197977206Y-55164653D01*
X197922733Y-55111835D01*
X197868148Y-55057823D01*
X197816547Y-55005661D01*
X197771024Y-54958396D01*
X197734675Y-54919072D01*
X197710595Y-54890736D01*
X197701881Y-54876432D01*
X197702383Y-54873711D01*
X197712755Y-54851560D01*
X197734912Y-54813235D01*
X197766712Y-54762200D01*
X197806016Y-54701914D01*
X197850681Y-54635842D01*
X197863207Y-54617617D01*
X197907193Y-54553485D01*
X197945937Y-54496789D01*
X197977182Y-54450844D01*
X197998669Y-54418970D01*
X198008140Y-54404483D01*
X198008373Y-54403862D01*
X198005578Y-54386139D01*
X197994903Y-54350235D01*
X197978081Y-54300662D01*
X197956843Y-54241932D01*
X197932921Y-54178556D01*
X197908046Y-54115046D01*
X197883950Y-54055913D01*
X197862365Y-54005669D01*
X197845023Y-53968826D01*
X197833655Y-53949894D01*
X197832516Y-53948719D01*
X197824376Y-53942773D01*
X197810629Y-53936776D01*
X197788537Y-53930114D01*
X197755363Y-53922173D01*
X197708370Y-53912337D01*
X197644820Y-53899991D01*
X197561976Y-53884520D01*
X197457100Y-53865310D01*
X197435348Y-53861267D01*
X197373036Y-53848769D01*
X197320619Y-53836927D01*
X197283066Y-53826917D01*
X197265343Y-53819916D01*
X197262378Y-53814075D01*
X197257435Y-53786016D01*
X197253518Y-53739500D01*
X197250629Y-53678886D01*
X197248773Y-53608532D01*
X197247952Y-53532796D01*
X197248168Y-53456037D01*
X197249426Y-53382612D01*
X197251728Y-53316880D01*
X197255076Y-53263200D01*
X197259474Y-53225930D01*
X197264926Y-53209427D01*
X197270491Y-53206989D01*
X197298178Y-53199305D01*
X197344979Y-53188436D01*
X197407157Y-53175192D01*
X197480979Y-53160384D01*
X197562710Y-53144823D01*
X197607336Y-53136509D01*
X197683824Y-53122092D01*
X197749660Y-53109467D01*
X197801323Y-53099321D01*
X197835293Y-53092341D01*
X197848048Y-53089212D01*
X197848528Y-53088568D01*
X197856651Y-53072181D01*
X197872137Y-53037852D01*
X197893050Y-52990136D01*
X197917455Y-52933586D01*
X197943416Y-52872758D01*
X197968997Y-52812206D01*
X197992262Y-52756485D01*
X198011277Y-52710150D01*
X198024105Y-52677755D01*
X198028812Y-52663855D01*
X198026736Y-52658965D01*
X198012920Y-52635692D01*
X197987860Y-52596519D01*
X197953568Y-52544520D01*
X197912059Y-52482768D01*
X197865346Y-52414336D01*
X197839718Y-52376860D01*
X197795490Y-52311156D01*
X197757570Y-52253492D01*
X197727980Y-52207014D01*
X197708743Y-52174865D01*
X197701881Y-52160190D01*
X197706649Y-52152230D01*
X197726593Y-52128446D01*
X197759313Y-52092451D01*
X197801805Y-52047295D01*
X197851065Y-51996028D01*
X197904091Y-51941701D01*
X197957877Y-51887364D01*
X198009421Y-51836067D01*
X198055720Y-51790859D01*
X198093769Y-51754792D01*
X198120565Y-51730914D01*
X198133105Y-51722278D01*
X198140066Y-51725636D01*
X198165627Y-51741210D01*
X198206874Y-51767715D01*
X198260837Y-51803210D01*
X198324542Y-51845750D01*
X198395016Y-51893395D01*
X198646662Y-52064512D01*
X199066188Y-51891570D01*
X199123036Y-51590018D01*
X199179885Y-51288466D01*
X199807540Y-51288466D01*
X199864389Y-51590018D01*
G36*
X200593960Y-57317822D02*
G01*
X200468218Y-57317822D01*
X200468218Y-57123740D01*
X200468078Y-57078594D01*
X200466649Y-57003823D01*
X200463029Y-56948467D01*
X200456434Y-56908702D01*
X200446079Y-56880700D01*
X200431178Y-56860635D01*
X200410946Y-56844681D01*
X200388859Y-56832792D01*
X200362705Y-56829421D01*
X200325508Y-56836917D01*
X200313555Y-56840038D01*
X200283718Y-56844735D01*
X200262383Y-56838005D01*
X200237655Y-56817177D01*
X200232963Y-56812647D01*
X200207020Y-56784626D01*
X200190291Y-56761843D01*
X200187996Y-56756355D01*
X200192543Y-56736088D01*
X200215602Y-56719884D01*
X200251995Y-56708513D01*
X200296544Y-56702740D01*
X200344072Y-56703334D01*
X200389400Y-56711063D01*
X200427351Y-56726694D01*
X200439381Y-56733993D01*
X200459632Y-56744676D01*
X200467129Y-56742230D01*
X200468218Y-56726647D01*
X200468473Y-56721053D01*
X200474539Y-56708660D01*
X200493356Y-56703020D01*
X200531089Y-56701683D01*
X200593960Y-56701683D01*
X200593960Y-57317822D01*
G37*
X200593960Y-57317822D02*
X200468218Y-57317822D01*
X200468218Y-57123740D01*
X200468078Y-57078594D01*
X200466649Y-57003823D01*
X200463029Y-56948467D01*
X200456434Y-56908702D01*
X200446079Y-56880700D01*
X200431178Y-56860635D01*
X200410946Y-56844681D01*
X200388859Y-56832792D01*
X200362705Y-56829421D01*
X200325508Y-56836917D01*
X200313555Y-56840038D01*
X200283718Y-56844735D01*
X200262383Y-56838005D01*
X200237655Y-56817177D01*
X200232963Y-56812647D01*
X200207020Y-56784626D01*
X200190291Y-56761843D01*
X200187996Y-56756355D01*
X200192543Y-56736088D01*
X200215602Y-56719884D01*
X200251995Y-56708513D01*
X200296544Y-56702740D01*
X200344072Y-56703334D01*
X200389400Y-56711063D01*
X200427351Y-56726694D01*
X200439381Y-56733993D01*
X200459632Y-56744676D01*
X200467129Y-56742230D01*
X200468218Y-56726647D01*
X200468473Y-56721053D01*
X200474539Y-56708660D01*
X200493356Y-56703020D01*
X200531089Y-56701683D01*
X200593960Y-56701683D01*
X200593960Y-57317822D01*
G36*
X197970265Y-56709965D02*
G01*
X198008255Y-56727745D01*
X198041386Y-56753806D01*
X198041386Y-56727745D01*
X198042211Y-56717849D01*
X198049893Y-56707358D01*
X198070667Y-56702725D01*
X198110544Y-56701683D01*
X198179703Y-56701683D01*
X198179703Y-57317822D01*
X198041386Y-57317822D01*
X198041386Y-57117226D01*
X198041369Y-57105710D01*
X198040189Y-57024758D01*
X198037294Y-56958817D01*
X198032888Y-56911258D01*
X198027181Y-56885452D01*
X198021940Y-56875710D01*
X197989676Y-56845156D01*
X197945730Y-56831631D01*
X197897743Y-56837941D01*
X197885973Y-56842217D01*
X197860898Y-56849776D01*
X197843762Y-56847428D01*
X197826518Y-56832064D01*
X197801124Y-56800571D01*
X197759936Y-56748568D01*
X197788886Y-56725125D01*
X197816405Y-56711015D01*
X197864745Y-56701486D01*
X197919230Y-56701174D01*
X197970265Y-56709965D01*
G37*
X197970265Y-56709965D02*
X198008255Y-56727745D01*
X198041386Y-56753806D01*
X198041386Y-56727745D01*
X198042211Y-56717849D01*
X198049893Y-56707358D01*
X198070667Y-56702725D01*
X198110544Y-56701683D01*
X198179703Y-56701683D01*
X198179703Y-57317822D01*
X198041386Y-57317822D01*
X198041386Y-57117226D01*
X198041369Y-57105710D01*
X198040189Y-57024758D01*
X198037294Y-56958817D01*
X198032888Y-56911258D01*
X198027181Y-56885452D01*
X198021940Y-56875710D01*
X197989676Y-56845156D01*
X197945730Y-56831631D01*
X197897743Y-56837941D01*
X197885973Y-56842217D01*
X197860898Y-56849776D01*
X197843762Y-56847428D01*
X197826518Y-56832064D01*
X197801124Y-56800571D01*
X197759936Y-56748568D01*
X197788886Y-56725125D01*
X197816405Y-56711015D01*
X197864745Y-56701486D01*
X197919230Y-56701174D01*
X197970265Y-56709965D01*
G36*
X197117825Y-56116121D02*
G01*
X197117615Y-56118014D01*
X197099535Y-56206325D01*
X197066870Y-56274986D01*
X197018601Y-56325506D01*
X196953713Y-56359393D01*
X196941801Y-56363268D01*
X196867971Y-56374688D01*
X196791614Y-56368320D01*
X196720626Y-56345563D01*
X196662904Y-56307819D01*
X196619667Y-56267872D01*
X196665625Y-56231532D01*
X196711583Y-56195193D01*
X196766969Y-56222101D01*
X196831056Y-56243905D01*
X196887632Y-56244558D01*
X196933920Y-56224525D01*
X196967230Y-56184315D01*
X196979171Y-56160222D01*
X196985837Y-56139630D01*
X196981980Y-56125720D01*
X196964675Y-56117181D01*
X196930997Y-56112704D01*
X196878021Y-56110978D01*
X196802822Y-56110693D01*
X196620495Y-56110693D01*
X196620495Y-56023492D01*
X196621857Y-55985210D01*
X196750234Y-55985210D01*
X196756399Y-55992251D01*
X196774654Y-55995916D01*
X196809352Y-55997306D01*
X196864846Y-55997525D01*
X196894603Y-55997176D01*
X196941562Y-55994867D01*
X196973416Y-55990822D01*
X196985148Y-55985542D01*
X196982146Y-55966062D01*
X196960988Y-55928786D01*
X196925731Y-55898164D01*
X196883699Y-55879668D01*
X196842220Y-55878773D01*
X196810997Y-55893604D01*
X196775618Y-55927355D01*
X196753122Y-55969233D01*
X196751805Y-55973690D01*
X196750234Y-55985210D01*
X196621857Y-55985210D01*
X196622136Y-55977371D01*
X196626955Y-55931740D01*
X196633840Y-55900893D01*
X196638859Y-55889117D01*
X196675390Y-55836667D01*
X196728175Y-55792921D01*
X196789904Y-55764279D01*
X196822102Y-55756457D01*
X196898820Y-55752896D01*
X196967179Y-55771009D01*
X197025299Y-55808779D01*
X197071302Y-55864191D01*
X197103310Y-55935229D01*
X197112900Y-55985542D01*
X197119444Y-56019878D01*
X197117825Y-56116121D01*
G37*
X197117825Y-56116121D02*
X197117615Y-56118014D01*
X197099535Y-56206325D01*
X197066870Y-56274986D01*
X197018601Y-56325506D01*
X196953713Y-56359393D01*
X196941801Y-56363268D01*
X196867971Y-56374688D01*
X196791614Y-56368320D01*
X196720626Y-56345563D01*
X196662904Y-56307819D01*
X196619667Y-56267872D01*
X196665625Y-56231532D01*
X196711583Y-56195193D01*
X196766969Y-56222101D01*
X196831056Y-56243905D01*
X196887632Y-56244558D01*
X196933920Y-56224525D01*
X196967230Y-56184315D01*
X196979171Y-56160222D01*
X196985837Y-56139630D01*
X196981980Y-56125720D01*
X196964675Y-56117181D01*
X196930997Y-56112704D01*
X196878021Y-56110978D01*
X196802822Y-56110693D01*
X196620495Y-56110693D01*
X196620495Y-56023492D01*
X196621857Y-55985210D01*
X196750234Y-55985210D01*
X196756399Y-55992251D01*
X196774654Y-55995916D01*
X196809352Y-55997306D01*
X196864846Y-55997525D01*
X196894603Y-55997176D01*
X196941562Y-55994867D01*
X196973416Y-55990822D01*
X196985148Y-55985542D01*
X196982146Y-55966062D01*
X196960988Y-55928786D01*
X196925731Y-55898164D01*
X196883699Y-55879668D01*
X196842220Y-55878773D01*
X196810997Y-55893604D01*
X196775618Y-55927355D01*
X196753122Y-55969233D01*
X196751805Y-55973690D01*
X196750234Y-55985210D01*
X196621857Y-55985210D01*
X196622136Y-55977371D01*
X196626955Y-55931740D01*
X196633840Y-55900893D01*
X196638859Y-55889117D01*
X196675390Y-55836667D01*
X196728175Y-55792921D01*
X196789904Y-55764279D01*
X196822102Y-55756457D01*
X196898820Y-55752896D01*
X196967179Y-55771009D01*
X197025299Y-55808779D01*
X197071302Y-55864191D01*
X197103310Y-55935229D01*
X197112900Y-55985542D01*
X197119444Y-56019878D01*
X197117825Y-56116121D01*
G36*
X116375937Y-57680179D02*
G01*
X116364197Y-55287589D01*
X116079396Y-55290833D01*
X115938742Y-55295000D01*
X115751261Y-55312969D01*
X115593996Y-55348317D01*
X115458570Y-55404885D01*
X115336606Y-55486516D01*
X115219728Y-55597055D01*
X115099559Y-55740342D01*
X115071718Y-55777469D01*
X115010965Y-55861902D01*
X114930901Y-55975840D01*
X114834972Y-56114272D01*
X114726628Y-56272186D01*
X114609316Y-56444574D01*
X114486485Y-56626423D01*
X114361583Y-56812723D01*
X113782268Y-57680179D01*
X113083188Y-57680179D01*
X113003662Y-57680110D01*
X112837140Y-57679494D01*
X112688631Y-57678308D01*
X112563605Y-57676635D01*
X112467530Y-57674560D01*
X112405875Y-57672164D01*
X112384108Y-57669531D01*
X112384166Y-57669101D01*
X112397497Y-57643431D01*
X112432125Y-57584663D01*
X112485057Y-57497542D01*
X112553297Y-57386814D01*
X112633851Y-57257224D01*
X112723725Y-57113517D01*
X112819923Y-56960440D01*
X112919452Y-56802738D01*
X113019316Y-56645156D01*
X113116522Y-56492441D01*
X113208073Y-56349336D01*
X113290977Y-56220589D01*
X113362238Y-56110945D01*
X113418862Y-56025149D01*
X113457854Y-55967946D01*
X113480705Y-55936076D01*
X113635086Y-55741314D01*
X113805000Y-55557436D01*
X113980055Y-55395003D01*
X114149858Y-55264581D01*
X114316769Y-55151518D01*
X114240572Y-55131866D01*
X114104739Y-55095590D01*
X113913190Y-55037928D01*
X113753806Y-54979170D01*
X113618579Y-54915341D01*
X113499505Y-54842462D01*
X113388577Y-54756558D01*
X113277789Y-54653652D01*
X113195221Y-54566513D01*
X113063644Y-54395679D01*
X112966225Y-54215104D01*
X112900139Y-54017428D01*
X112862560Y-53795293D01*
X112854462Y-53622452D01*
X114056080Y-53622452D01*
X114074813Y-53807632D01*
X114130162Y-53967636D01*
X114223031Y-54105147D01*
X114236588Y-54120017D01*
X114327140Y-54196377D01*
X114439586Y-54253701D01*
X114581380Y-54295016D01*
X114759973Y-54323352D01*
X114776939Y-54325066D01*
X114862052Y-54330691D01*
X114982647Y-54335736D01*
X115131074Y-54340006D01*
X115299682Y-54343309D01*
X115480818Y-54345453D01*
X115666831Y-54346242D01*
X116375536Y-54346429D01*
X116375536Y-52917679D01*
X115517867Y-52917679D01*
X115381282Y-52917763D01*
X115176324Y-52918388D01*
X115009292Y-52919768D01*
X114875465Y-52922077D01*
X114770123Y-52925487D01*
X114688547Y-52930172D01*
X114626016Y-52936305D01*
X114577810Y-52944059D01*
X114539209Y-52953608D01*
X114509381Y-52962974D01*
X114347199Y-53036518D01*
X114220889Y-53137785D01*
X114130341Y-53266920D01*
X114075450Y-53424068D01*
X114056109Y-53609375D01*
X114056080Y-53622452D01*
X112854462Y-53622452D01*
X112850662Y-53541339D01*
X112850700Y-53521265D01*
X112855921Y-53342856D01*
X112872223Y-53192648D01*
X112902871Y-53055619D01*
X112951130Y-52916744D01*
X113020266Y-52761002D01*
X113023081Y-52755117D01*
X113075450Y-52654807D01*
X113131593Y-52569383D01*
X113202109Y-52484505D01*
X113297601Y-52385833D01*
X113322832Y-52361200D01*
X113441796Y-52255868D01*
X113561035Y-52171632D01*
X113689567Y-52104363D01*
X113836407Y-52049936D01*
X114010570Y-52004224D01*
X114221072Y-51963099D01*
X114231893Y-51961511D01*
X114300976Y-51955760D01*
X114414129Y-51950380D01*
X114570337Y-51945391D01*
X114768584Y-51940814D01*
X115007855Y-51936670D01*
X115287134Y-51932980D01*
X115605405Y-51929765D01*
X115961652Y-51927046D01*
X117554822Y-51916576D01*
X117554822Y-57680179D01*
X116375937Y-57680179D01*
G37*
X116375937Y-57680179D02*
X116364197Y-55287589D01*
X116079396Y-55290833D01*
X115938742Y-55295000D01*
X115751261Y-55312969D01*
X115593996Y-55348317D01*
X115458570Y-55404885D01*
X115336606Y-55486516D01*
X115219728Y-55597055D01*
X115099559Y-55740342D01*
X115071718Y-55777469D01*
X115010965Y-55861902D01*
X114930901Y-55975840D01*
X114834972Y-56114272D01*
X114726628Y-56272186D01*
X114609316Y-56444574D01*
X114486485Y-56626423D01*
X114361583Y-56812723D01*
X113782268Y-57680179D01*
X113083188Y-57680179D01*
X113003662Y-57680110D01*
X112837140Y-57679494D01*
X112688631Y-57678308D01*
X112563605Y-57676635D01*
X112467530Y-57674560D01*
X112405875Y-57672164D01*
X112384108Y-57669531D01*
X112384166Y-57669101D01*
X112397497Y-57643431D01*
X112432125Y-57584663D01*
X112485057Y-57497542D01*
X112553297Y-57386814D01*
X112633851Y-57257224D01*
X112723725Y-57113517D01*
X112819923Y-56960440D01*
X112919452Y-56802738D01*
X113019316Y-56645156D01*
X113116522Y-56492441D01*
X113208073Y-56349336D01*
X113290977Y-56220589D01*
X113362238Y-56110945D01*
X113418862Y-56025149D01*
X113457854Y-55967946D01*
X113480705Y-55936076D01*
X113635086Y-55741314D01*
X113805000Y-55557436D01*
X113980055Y-55395003D01*
X114149858Y-55264581D01*
X114316769Y-55151518D01*
X114240572Y-55131866D01*
X114104739Y-55095590D01*
X113913190Y-55037928D01*
X113753806Y-54979170D01*
X113618579Y-54915341D01*
X113499505Y-54842462D01*
X113388577Y-54756558D01*
X113277789Y-54653652D01*
X113195221Y-54566513D01*
X113063644Y-54395679D01*
X112966225Y-54215104D01*
X112900139Y-54017428D01*
X112862560Y-53795293D01*
X112854462Y-53622452D01*
X114056080Y-53622452D01*
X114074813Y-53807632D01*
X114130162Y-53967636D01*
X114223031Y-54105147D01*
X114236588Y-54120017D01*
X114327140Y-54196377D01*
X114439586Y-54253701D01*
X114581380Y-54295016D01*
X114759973Y-54323352D01*
X114776939Y-54325066D01*
X114862052Y-54330691D01*
X114982647Y-54335736D01*
X115131074Y-54340006D01*
X115299682Y-54343309D01*
X115480818Y-54345453D01*
X115666831Y-54346242D01*
X116375536Y-54346429D01*
X116375536Y-52917679D01*
X115517867Y-52917679D01*
X115381282Y-52917763D01*
X115176324Y-52918388D01*
X115009292Y-52919768D01*
X114875465Y-52922077D01*
X114770123Y-52925487D01*
X114688547Y-52930172D01*
X114626016Y-52936305D01*
X114577810Y-52944059D01*
X114539209Y-52953608D01*
X114509381Y-52962974D01*
X114347199Y-53036518D01*
X114220889Y-53137785D01*
X114130341Y-53266920D01*
X114075450Y-53424068D01*
X114056109Y-53609375D01*
X114056080Y-53622452D01*
X112854462Y-53622452D01*
X112850662Y-53541339D01*
X112850700Y-53521265D01*
X112855921Y-53342856D01*
X112872223Y-53192648D01*
X112902871Y-53055619D01*
X112951130Y-52916744D01*
X113020266Y-52761002D01*
X113023081Y-52755117D01*
X113075450Y-52654807D01*
X113131593Y-52569383D01*
X113202109Y-52484505D01*
X113297601Y-52385833D01*
X113322832Y-52361200D01*
X113441796Y-52255868D01*
X113561035Y-52171632D01*
X113689567Y-52104363D01*
X113836407Y-52049936D01*
X114010570Y-52004224D01*
X114221072Y-51963099D01*
X114231893Y-51961511D01*
X114300976Y-51955760D01*
X114414129Y-51950380D01*
X114570337Y-51945391D01*
X114768584Y-51940814D01*
X115007855Y-51936670D01*
X115287134Y-51932980D01*
X115605405Y-51929765D01*
X115961652Y-51927046D01*
X117554822Y-51916576D01*
X117554822Y-57680179D01*
X116375937Y-57680179D01*
G36*
X111996110Y-55945268D02*
G01*
X111982203Y-56043440D01*
X111914481Y-56344424D01*
X111812694Y-56622762D01*
X111678561Y-56875038D01*
X111513802Y-57097838D01*
X111320137Y-57287747D01*
X111268647Y-57328419D01*
X111074996Y-57454685D01*
X110852483Y-57566426D01*
X110613177Y-57658784D01*
X110369147Y-57726899D01*
X110132462Y-57765912D01*
X110004753Y-57773438D01*
X109842822Y-57773310D01*
X109671249Y-57765339D01*
X109503738Y-57750474D01*
X109353995Y-57729662D01*
X109235724Y-57703854D01*
X109046531Y-57640986D01*
X108790889Y-57521647D01*
X108556295Y-57366500D01*
X108334956Y-57170937D01*
X108305004Y-57140472D01*
X108109819Y-56910189D01*
X107954774Y-56663849D01*
X107839026Y-56399125D01*
X107761734Y-56113691D01*
X107722054Y-55805223D01*
X107720790Y-55660304D01*
X108858812Y-55660304D01*
X108877588Y-55874143D01*
X108917553Y-56078326D01*
X108976705Y-56261827D01*
X109053045Y-56413617D01*
X109096385Y-56475136D01*
X109210281Y-56601219D01*
X109342011Y-56710974D01*
X109476305Y-56790793D01*
X109487495Y-56795903D01*
X109558495Y-56823986D01*
X109629679Y-56841662D01*
X109716089Y-56851720D01*
X109832768Y-56856954D01*
X109921871Y-56857998D01*
X110051801Y-56850725D01*
X110159603Y-56828883D01*
X110259493Y-56789022D01*
X110365689Y-56727695D01*
X110493384Y-56632135D01*
X110631718Y-56483638D01*
X110737779Y-56307234D01*
X110812314Y-56101240D01*
X110856071Y-55863973D01*
X110869799Y-55593750D01*
X110869694Y-55576980D01*
X110855450Y-55325694D01*
X110816363Y-55108039D01*
X110750672Y-54918858D01*
X110656616Y-54752991D01*
X110532435Y-54605282D01*
X110451073Y-54532300D01*
X110283965Y-54425358D01*
X110103009Y-54357520D01*
X109914166Y-54328788D01*
X109723394Y-54339164D01*
X109536653Y-54388650D01*
X109359903Y-54477246D01*
X109199103Y-54604955D01*
X109142709Y-54664446D01*
X109039812Y-54806456D01*
X108961592Y-54971242D01*
X108905330Y-55165291D01*
X108868312Y-55395092D01*
X108863223Y-55447838D01*
X108858812Y-55660304D01*
X107720790Y-55660304D01*
X107719143Y-55471394D01*
X107736252Y-55245596D01*
X107773332Y-55017963D01*
X107831969Y-54808601D01*
X107915064Y-54604678D01*
X108058029Y-54348253D01*
X108239905Y-54110467D01*
X108453326Y-53903213D01*
X108695309Y-53728979D01*
X108962869Y-53590250D01*
X109253023Y-53489516D01*
X109267008Y-53485772D01*
X109350896Y-53464847D01*
X109427062Y-53449951D01*
X109506119Y-53440060D01*
X109598683Y-53434145D01*
X109715368Y-53431181D01*
X109866786Y-53430139D01*
X109938229Y-53430053D01*
X110070132Y-53430947D01*
X110171918Y-53434189D01*
X110254117Y-53440815D01*
X110327258Y-53451863D01*
X110401869Y-53468368D01*
X110488479Y-53491370D01*
X110618293Y-53531595D01*
X110890274Y-53645890D01*
X111138311Y-53792640D01*
X111355358Y-53967967D01*
X111534197Y-54159073D01*
X111708969Y-54405704D01*
X111845329Y-54674933D01*
X111942751Y-54965131D01*
X112000706Y-55274671D01*
X112018221Y-55593750D01*
X112018669Y-55601926D01*
X111996110Y-55945268D01*
G37*
X111996110Y-55945268D02*
X111982203Y-56043440D01*
X111914481Y-56344424D01*
X111812694Y-56622762D01*
X111678561Y-56875038D01*
X111513802Y-57097838D01*
X111320137Y-57287747D01*
X111268647Y-57328419D01*
X111074996Y-57454685D01*
X110852483Y-57566426D01*
X110613177Y-57658784D01*
X110369147Y-57726899D01*
X110132462Y-57765912D01*
X110004753Y-57773438D01*
X109842822Y-57773310D01*
X109671249Y-57765339D01*
X109503738Y-57750474D01*
X109353995Y-57729662D01*
X109235724Y-57703854D01*
X109046531Y-57640986D01*
X108790889Y-57521647D01*
X108556295Y-57366500D01*
X108334956Y-57170937D01*
X108305004Y-57140472D01*
X108109819Y-56910189D01*
X107954774Y-56663849D01*
X107839026Y-56399125D01*
X107761734Y-56113691D01*
X107722054Y-55805223D01*
X107720790Y-55660304D01*
X108858812Y-55660304D01*
X108877588Y-55874143D01*
X108917553Y-56078326D01*
X108976705Y-56261827D01*
X109053045Y-56413617D01*
X109096385Y-56475136D01*
X109210281Y-56601219D01*
X109342011Y-56710974D01*
X109476305Y-56790793D01*
X109487495Y-56795903D01*
X109558495Y-56823986D01*
X109629679Y-56841662D01*
X109716089Y-56851720D01*
X109832768Y-56856954D01*
X109921871Y-56857998D01*
X110051801Y-56850725D01*
X110159603Y-56828883D01*
X110259493Y-56789022D01*
X110365689Y-56727695D01*
X110493384Y-56632135D01*
X110631718Y-56483638D01*
X110737779Y-56307234D01*
X110812314Y-56101240D01*
X110856071Y-55863973D01*
X110869799Y-55593750D01*
X110869694Y-55576980D01*
X110855450Y-55325694D01*
X110816363Y-55108039D01*
X110750672Y-54918858D01*
X110656616Y-54752991D01*
X110532435Y-54605282D01*
X110451073Y-54532300D01*
X110283965Y-54425358D01*
X110103009Y-54357520D01*
X109914166Y-54328788D01*
X109723394Y-54339164D01*
X109536653Y-54388650D01*
X109359903Y-54477246D01*
X109199103Y-54604955D01*
X109142709Y-54664446D01*
X109039812Y-54806456D01*
X108961592Y-54971242D01*
X108905330Y-55165291D01*
X108868312Y-55395092D01*
X108863223Y-55447838D01*
X108858812Y-55660304D01*
X107720790Y-55660304D01*
X107719143Y-55471394D01*
X107736252Y-55245596D01*
X107773332Y-55017963D01*
X107831969Y-54808601D01*
X107915064Y-54604678D01*
X108058029Y-54348253D01*
X108239905Y-54110467D01*
X108453326Y-53903213D01*
X108695309Y-53728979D01*
X108962869Y-53590250D01*
X109253023Y-53489516D01*
X109267008Y-53485772D01*
X109350896Y-53464847D01*
X109427062Y-53449951D01*
X109506119Y-53440060D01*
X109598683Y-53434145D01*
X109715368Y-53431181D01*
X109866786Y-53430139D01*
X109938229Y-53430053D01*
X110070132Y-53430947D01*
X110171918Y-53434189D01*
X110254117Y-53440815D01*
X110327258Y-53451863D01*
X110401869Y-53468368D01*
X110488479Y-53491370D01*
X110618293Y-53531595D01*
X110890274Y-53645890D01*
X111138311Y-53792640D01*
X111355358Y-53967967D01*
X111534197Y-54159073D01*
X111708969Y-54405704D01*
X111845329Y-54674933D01*
X111942751Y-54965131D01*
X112000706Y-55274671D01*
X112018221Y-55593750D01*
X112018669Y-55601926D01*
X111996110Y-55945268D01*
G36*
X99162209Y-51835134D02*
G01*
X99268097Y-51838826D01*
X99479311Y-51852400D01*
X99662149Y-51874980D01*
X99828098Y-51908682D01*
X99988646Y-51955619D01*
X100155279Y-52017905D01*
X100263070Y-52067145D01*
X100467341Y-52190164D01*
X100654471Y-52341503D01*
X100815116Y-52513077D01*
X100939930Y-52696799D01*
X101018206Y-52859616D01*
X101094927Y-53101518D01*
X101130654Y-53348677D01*
X101126416Y-53596017D01*
X101083243Y-53838465D01*
X101002167Y-54070946D01*
X100884216Y-54288385D01*
X100730422Y-54485709D01*
X100541813Y-54657843D01*
X100395941Y-54756745D01*
X100173885Y-54874386D01*
X99907895Y-54985409D01*
X99598527Y-55089589D01*
X99246333Y-55186699D01*
X99075535Y-55229856D01*
X98840944Y-55291026D01*
X98643931Y-55345477D01*
X98480331Y-55394785D01*
X98345981Y-55440527D01*
X98236716Y-55484280D01*
X98148371Y-55527619D01*
X98076781Y-55572122D01*
X98017783Y-55619365D01*
X97967211Y-55670925D01*
X97886822Y-55789904D01*
X97840618Y-55929380D01*
X97834985Y-56076086D01*
X97869341Y-56224532D01*
X97943104Y-56369232D01*
X98055691Y-56504697D01*
X98112132Y-56555440D01*
X98273151Y-56661266D01*
X98462672Y-56735989D01*
X98682819Y-56780309D01*
X98935715Y-56794927D01*
X99060211Y-56791205D01*
X99305069Y-56758616D01*
X99521213Y-56692873D01*
X99707584Y-56594475D01*
X99863119Y-56463918D01*
X99986757Y-56301702D01*
X100008146Y-56263769D01*
X100062504Y-56150014D01*
X100116167Y-56017631D01*
X100162098Y-55884752D01*
X100193262Y-55769509D01*
X100194003Y-55765932D01*
X100198334Y-55744676D01*
X100205229Y-55728728D01*
X100220014Y-55717934D01*
X100248015Y-55712139D01*
X100294558Y-55711190D01*
X100364970Y-55714932D01*
X100464576Y-55723213D01*
X100598704Y-55735879D01*
X100772679Y-55752775D01*
X100802807Y-55755683D01*
X100944467Y-55769066D01*
X101071897Y-55780644D01*
X101177371Y-55789746D01*
X101253163Y-55795702D01*
X101291546Y-55797840D01*
X101293072Y-55797842D01*
X101322374Y-55800666D01*
X101336244Y-55816161D01*
X101337909Y-55855101D01*
X101330594Y-55928259D01*
X101323577Y-55982601D01*
X101270625Y-56237725D01*
X101187371Y-56491292D01*
X101078431Y-56732745D01*
X100948421Y-56951526D01*
X100801960Y-57137078D01*
X100742171Y-57198942D01*
X100547396Y-57366698D01*
X100330539Y-57504486D01*
X100087119Y-57614451D01*
X99812659Y-57698740D01*
X99502679Y-57759498D01*
X99418384Y-57770055D01*
X99246591Y-57783046D01*
X99052388Y-57789504D01*
X98849978Y-57789306D01*
X98653568Y-57782327D01*
X98477363Y-57768445D01*
X98263864Y-57738424D01*
X97958439Y-57667654D01*
X97682406Y-57567908D01*
X97437869Y-57440166D01*
X97226931Y-57285408D01*
X97051697Y-57104613D01*
X96985367Y-57016207D01*
X96870890Y-56830214D01*
X96776921Y-56632721D01*
X96712500Y-56441401D01*
X96702161Y-56395314D01*
X96681431Y-56251429D01*
X96669737Y-56084673D01*
X96667452Y-55910686D01*
X96674948Y-55745109D01*
X96692595Y-55603585D01*
X96704603Y-55546074D01*
X96767480Y-55342798D01*
X96857493Y-55145468D01*
X96966353Y-54973166D01*
X97061969Y-54856868D01*
X97178172Y-54741167D01*
X97309904Y-54636375D01*
X97461399Y-54540357D01*
X97636893Y-54450977D01*
X97840622Y-54366098D01*
X98076822Y-54283583D01*
X98349726Y-54201297D01*
X98663572Y-54117103D01*
X98850343Y-54068799D01*
X99072695Y-54009192D01*
X99258382Y-53956213D01*
X99411870Y-53908248D01*
X99537623Y-53863682D01*
X99640107Y-53820901D01*
X99723786Y-53778289D01*
X99793127Y-53734232D01*
X99852593Y-53687116D01*
X99879638Y-53661327D01*
X99935033Y-53596107D01*
X99970968Y-53536752D01*
X99970996Y-53536685D01*
X99993310Y-53450256D01*
X100000469Y-53347458D01*
X99992546Y-53248025D01*
X99969614Y-53171686D01*
X99951654Y-53141252D01*
X99863745Y-53043180D01*
X99739669Y-52956861D01*
X99586166Y-52886343D01*
X99409975Y-52835673D01*
X99401176Y-52833866D01*
X99280091Y-52817626D01*
X99134471Y-52809994D01*
X98978193Y-52810596D01*
X98825136Y-52819055D01*
X98689178Y-52834995D01*
X98584197Y-52858041D01*
X98496796Y-52890559D01*
X98337130Y-52984046D01*
X98206259Y-53111979D01*
X98105413Y-53272995D01*
X98035818Y-53465734D01*
X97994554Y-53626101D01*
X97472947Y-53607628D01*
X97395986Y-53604914D01*
X97247888Y-53599758D01*
X97115421Y-53595232D01*
X97006009Y-53591586D01*
X96927078Y-53589067D01*
X96886050Y-53587926D01*
X96820759Y-53586696D01*
X96834333Y-53410670D01*
X96849305Y-53298596D01*
X96878002Y-53163355D01*
X96914673Y-53035363D01*
X97001395Y-52820254D01*
X97135669Y-52589436D01*
X97302626Y-52389953D01*
X97502692Y-52221313D01*
X97736294Y-52083023D01*
X97779443Y-52062226D01*
X97975167Y-51979711D01*
X98174005Y-51916937D01*
X98384044Y-51872497D01*
X98613368Y-51844987D01*
X98870061Y-51833001D01*
X99162209Y-51835134D01*
G37*
X99162209Y-51835134D02*
X99268097Y-51838826D01*
X99479311Y-51852400D01*
X99662149Y-51874980D01*
X99828098Y-51908682D01*
X99988646Y-51955619D01*
X100155279Y-52017905D01*
X100263070Y-52067145D01*
X100467341Y-52190164D01*
X100654471Y-52341503D01*
X100815116Y-52513077D01*
X100939930Y-52696799D01*
X101018206Y-52859616D01*
X101094927Y-53101518D01*
X101130654Y-53348677D01*
X101126416Y-53596017D01*
X101083243Y-53838465D01*
X101002167Y-54070946D01*
X100884216Y-54288385D01*
X100730422Y-54485709D01*
X100541813Y-54657843D01*
X100395941Y-54756745D01*
X100173885Y-54874386D01*
X99907895Y-54985409D01*
X99598527Y-55089589D01*
X99246333Y-55186699D01*
X99075535Y-55229856D01*
X98840944Y-55291026D01*
X98643931Y-55345477D01*
X98480331Y-55394785D01*
X98345981Y-55440527D01*
X98236716Y-55484280D01*
X98148371Y-55527619D01*
X98076781Y-55572122D01*
X98017783Y-55619365D01*
X97967211Y-55670925D01*
X97886822Y-55789904D01*
X97840618Y-55929380D01*
X97834985Y-56076086D01*
X97869341Y-56224532D01*
X97943104Y-56369232D01*
X98055691Y-56504697D01*
X98112132Y-56555440D01*
X98273151Y-56661266D01*
X98462672Y-56735989D01*
X98682819Y-56780309D01*
X98935715Y-56794927D01*
X99060211Y-56791205D01*
X99305069Y-56758616D01*
X99521213Y-56692873D01*
X99707584Y-56594475D01*
X99863119Y-56463918D01*
X99986757Y-56301702D01*
X100008146Y-56263769D01*
X100062504Y-56150014D01*
X100116167Y-56017631D01*
X100162098Y-55884752D01*
X100193262Y-55769509D01*
X100194003Y-55765932D01*
X100198334Y-55744676D01*
X100205229Y-55728728D01*
X100220014Y-55717934D01*
X100248015Y-55712139D01*
X100294558Y-55711190D01*
X100364970Y-55714932D01*
X100464576Y-55723213D01*
X100598704Y-55735879D01*
X100772679Y-55752775D01*
X100802807Y-55755683D01*
X100944467Y-55769066D01*
X101071897Y-55780644D01*
X101177371Y-55789746D01*
X101253163Y-55795702D01*
X101291546Y-55797840D01*
X101293072Y-55797842D01*
X101322374Y-55800666D01*
X101336244Y-55816161D01*
X101337909Y-55855101D01*
X101330594Y-55928259D01*
X101323577Y-55982601D01*
X101270625Y-56237725D01*
X101187371Y-56491292D01*
X101078431Y-56732745D01*
X100948421Y-56951526D01*
X100801960Y-57137078D01*
X100742171Y-57198942D01*
X100547396Y-57366698D01*
X100330539Y-57504486D01*
X100087119Y-57614451D01*
X99812659Y-57698740D01*
X99502679Y-57759498D01*
X99418384Y-57770055D01*
X99246591Y-57783046D01*
X99052388Y-57789504D01*
X98849978Y-57789306D01*
X98653568Y-57782327D01*
X98477363Y-57768445D01*
X98263864Y-57738424D01*
X97958439Y-57667654D01*
X97682406Y-57567908D01*
X97437869Y-57440166D01*
X97226931Y-57285408D01*
X97051697Y-57104613D01*
X96985367Y-57016207D01*
X96870890Y-56830214D01*
X96776921Y-56632721D01*
X96712500Y-56441401D01*
X96702161Y-56395314D01*
X96681431Y-56251429D01*
X96669737Y-56084673D01*
X96667452Y-55910686D01*
X96674948Y-55745109D01*
X96692595Y-55603585D01*
X96704603Y-55546074D01*
X96767480Y-55342798D01*
X96857493Y-55145468D01*
X96966353Y-54973166D01*
X97061969Y-54856868D01*
X97178172Y-54741167D01*
X97309904Y-54636375D01*
X97461399Y-54540357D01*
X97636893Y-54450977D01*
X97840622Y-54366098D01*
X98076822Y-54283583D01*
X98349726Y-54201297D01*
X98663572Y-54117103D01*
X98850343Y-54068799D01*
X99072695Y-54009192D01*
X99258382Y-53956213D01*
X99411870Y-53908248D01*
X99537623Y-53863682D01*
X99640107Y-53820901D01*
X99723786Y-53778289D01*
X99793127Y-53734232D01*
X99852593Y-53687116D01*
X99879638Y-53661327D01*
X99935033Y-53596107D01*
X99970968Y-53536752D01*
X99970996Y-53536685D01*
X99993310Y-53450256D01*
X100000469Y-53347458D01*
X99992546Y-53248025D01*
X99969614Y-53171686D01*
X99951654Y-53141252D01*
X99863745Y-53043180D01*
X99739669Y-52956861D01*
X99586166Y-52886343D01*
X99409975Y-52835673D01*
X99401176Y-52833866D01*
X99280091Y-52817626D01*
X99134471Y-52809994D01*
X98978193Y-52810596D01*
X98825136Y-52819055D01*
X98689178Y-52834995D01*
X98584197Y-52858041D01*
X98496796Y-52890559D01*
X98337130Y-52984046D01*
X98206259Y-53111979D01*
X98105413Y-53272995D01*
X98035818Y-53465734D01*
X97994554Y-53626101D01*
X97472947Y-53607628D01*
X97395986Y-53604914D01*
X97247888Y-53599758D01*
X97115421Y-53595232D01*
X97006009Y-53591586D01*
X96927078Y-53589067D01*
X96886050Y-53587926D01*
X96820759Y-53586696D01*
X96834333Y-53410670D01*
X96849305Y-53298596D01*
X96878002Y-53163355D01*
X96914673Y-53035363D01*
X97001395Y-52820254D01*
X97135669Y-52589436D01*
X97302626Y-52389953D01*
X97502692Y-52221313D01*
X97736294Y-52083023D01*
X97779443Y-52062226D01*
X97975167Y-51979711D01*
X98174005Y-51916937D01*
X98384044Y-51872497D01*
X98613368Y-51844987D01*
X98870061Y-51833001D01*
X99162209Y-51835134D01*
G36*
X103426072Y-54187679D02*
G01*
X105671250Y-54187679D01*
X105671250Y-51919821D01*
X106850536Y-51919821D01*
X106850536Y-57680179D01*
X105671635Y-57680179D01*
X105665773Y-56427187D01*
X105659911Y-55174196D01*
X104542992Y-55168313D01*
X103426072Y-55162430D01*
X103426072Y-57680179D01*
X102246786Y-57680179D01*
X102246786Y-51919821D01*
X103426072Y-51919821D01*
X103426072Y-54187679D01*
G37*
X103426072Y-54187679D02*
X105671250Y-54187679D01*
X105671250Y-51919821D01*
X106850536Y-51919821D01*
X106850536Y-57680179D01*
X105671635Y-57680179D01*
X105665773Y-56427187D01*
X105659911Y-55174196D01*
X104542992Y-55168313D01*
X103426072Y-55162430D01*
X103426072Y-57680179D01*
X102246786Y-57680179D01*
X102246786Y-51919821D01*
X103426072Y-51919821D01*
X103426072Y-54187679D01*
M02*
