G04 #@! TF.GenerationSoftware,KiCad,Pcbnew,(6.0.1)*
G04 #@! TF.CreationDate,2022-04-20T17:44:03+02:00*
G04 #@! TF.ProjectId,MTS_module,4d54535f-6d6f-4647-956c-652e6b696361,1.3.2*
G04 #@! TF.SameCoordinates,Original*
G04 #@! TF.FileFunction,Paste,Top*
G04 #@! TF.FilePolarity,Positive*
%FSLAX46Y46*%
G04 Gerber Fmt 4.6, Leading zero omitted, Abs format (unit mm)*
G04 Created by KiCad (PCBNEW (6.0.1)) date 2022-04-20 17:44:03*
%MOMM*%
%LPD*%
G01*
G04 APERTURE LIST*
G04 Aperture macros list*
%AMRoundRect*
0 Rectangle with rounded corners*
0 $1 Rounding radius*
0 $2 $3 $4 $5 $6 $7 $8 $9 X,Y pos of 4 corners*
0 Add a 4 corners polygon primitive as box body*
4,1,4,$2,$3,$4,$5,$6,$7,$8,$9,$2,$3,0*
0 Add four circle primitives for the rounded corners*
1,1,$1+$1,$2,$3*
1,1,$1+$1,$4,$5*
1,1,$1+$1,$6,$7*
1,1,$1+$1,$8,$9*
0 Add four rect primitives between the rounded corners*
20,1,$1+$1,$2,$3,$4,$5,0*
20,1,$1+$1,$4,$5,$6,$7,0*
20,1,$1+$1,$6,$7,$8,$9,0*
20,1,$1+$1,$8,$9,$2,$3,0*%
G04 Aperture macros list end*
%ADD10RoundRect,0.250000X-1.075000X0.312500X-1.075000X-0.312500X1.075000X-0.312500X1.075000X0.312500X0*%
%ADD11RoundRect,0.250000X-1.075000X0.375000X-1.075000X-0.375000X1.075000X-0.375000X1.075000X0.375000X0*%
%ADD12RoundRect,0.250000X-0.625000X0.375000X-0.625000X-0.375000X0.625000X-0.375000X0.625000X0.375000X0*%
%ADD13RoundRect,0.218750X-0.218750X-0.256250X0.218750X-0.256250X0.218750X0.256250X-0.218750X0.256250X0*%
%ADD14RoundRect,0.218750X0.218750X0.256250X-0.218750X0.256250X-0.218750X-0.256250X0.218750X-0.256250X0*%
%ADD15RoundRect,0.243750X0.456250X-0.243750X0.456250X0.243750X-0.456250X0.243750X-0.456250X-0.243750X0*%
%ADD16RoundRect,0.250000X0.625000X-0.375000X0.625000X0.375000X-0.625000X0.375000X-0.625000X-0.375000X0*%
%ADD17RoundRect,0.243750X0.243750X0.456250X-0.243750X0.456250X-0.243750X-0.456250X0.243750X-0.456250X0*%
%ADD18RoundRect,0.218750X-0.256250X0.218750X-0.256250X-0.218750X0.256250X-0.218750X0.256250X0.218750X0*%
%ADD19R,0.900000X0.800000*%
%ADD20RoundRect,0.200000X-0.275000X0.200000X-0.275000X-0.200000X0.275000X-0.200000X0.275000X0.200000X0*%
%ADD21RoundRect,0.218750X0.256250X-0.218750X0.256250X0.218750X-0.256250X0.218750X-0.256250X-0.218750X0*%
%ADD22RoundRect,0.250000X1.075000X-0.312500X1.075000X0.312500X-1.075000X0.312500X-1.075000X-0.312500X0*%
%ADD23RoundRect,0.250000X0.375000X1.075000X-0.375000X1.075000X-0.375000X-1.075000X0.375000X-1.075000X0*%
%ADD24RoundRect,0.167500X-0.167500X-0.407500X0.167500X-0.407500X0.167500X0.407500X-0.167500X0.407500X0*%
%ADD25RoundRect,0.100000X-0.625000X-0.100000X0.625000X-0.100000X0.625000X0.100000X-0.625000X0.100000X0*%
%ADD26RoundRect,0.100000X-0.712500X-0.100000X0.712500X-0.100000X0.712500X0.100000X-0.712500X0.100000X0*%
%ADD27R,1.520000X1.520000*%
%ADD28R,1.520000X4.700000*%
%ADD29RoundRect,0.250000X-0.375000X-0.625000X0.375000X-0.625000X0.375000X0.625000X-0.375000X0.625000X0*%
%ADD30RoundRect,0.225000X-0.225000X-0.250000X0.225000X-0.250000X0.225000X0.250000X-0.225000X0.250000X0*%
%ADD31RoundRect,0.225000X-0.250000X0.225000X-0.250000X-0.225000X0.250000X-0.225000X0.250000X0.225000X0*%
%ADD32RoundRect,0.225000X0.225000X0.250000X-0.225000X0.250000X-0.225000X-0.250000X0.225000X-0.250000X0*%
%ADD33RoundRect,0.225000X0.250000X-0.225000X0.250000X0.225000X-0.250000X0.225000X-0.250000X-0.225000X0*%
%ADD34R,2.300000X2.500000*%
%ADD35R,5.080000X1.500000*%
%ADD36R,1.000000X3.800000*%
%ADD37R,3.800000X1.000000*%
%ADD38R,1.000000X1.000000*%
%ADD39R,2.440000X1.000000*%
%ADD40R,1.000000X2.440000*%
%ADD41RoundRect,0.200000X0.200000X0.275000X-0.200000X0.275000X-0.200000X-0.275000X0.200000X-0.275000X0*%
%ADD42RoundRect,0.200000X0.275000X-0.200000X0.275000X0.200000X-0.275000X0.200000X-0.275000X-0.200000X0*%
%ADD43RoundRect,0.200000X-0.200000X-0.275000X0.200000X-0.275000X0.200000X0.275000X-0.200000X0.275000X0*%
%ADD44RoundRect,0.250000X0.312500X1.075000X-0.312500X1.075000X-0.312500X-1.075000X0.312500X-1.075000X0*%
%ADD45RoundRect,0.242500X-0.242500X-0.422500X0.242500X-0.422500X0.242500X0.422500X-0.242500X0.422500X0*%
%ADD46RoundRect,0.150000X-0.825000X-0.150000X0.825000X-0.150000X0.825000X0.150000X-0.825000X0.150000X0*%
%ADD47RoundRect,0.150000X0.825000X0.150000X-0.825000X0.150000X-0.825000X-0.150000X0.825000X-0.150000X0*%
%ADD48R,1.200000X0.400000*%
%ADD49RoundRect,0.250000X-0.650000X0.325000X-0.650000X-0.325000X0.650000X-0.325000X0.650000X0.325000X0*%
%ADD50RoundRect,0.150000X-0.150000X0.825000X-0.150000X-0.825000X0.150000X-0.825000X0.150000X0.825000X0*%
%ADD51R,1.778000X1.524000*%
%ADD52R,1.524000X1.778000*%
%ADD53RoundRect,0.150000X0.150000X-0.587500X0.150000X0.587500X-0.150000X0.587500X-0.150000X-0.587500X0*%
%ADD54RoundRect,0.250000X0.250000X0.475000X-0.250000X0.475000X-0.250000X-0.475000X0.250000X-0.475000X0*%
G04 APERTURE END LIST*
D10*
X224900000Y-79337500D03*
X224900000Y-82262500D03*
D11*
X102500000Y-116600000D03*
X102500000Y-119400000D03*
X103000000Y-129600000D03*
X103000000Y-132400000D03*
D12*
X108000000Y-122100000D03*
X108000000Y-124900000D03*
X108000000Y-135100000D03*
X108000000Y-137900000D03*
D13*
X162912500Y-106800000D03*
X164487500Y-106800000D03*
D11*
X114300000Y-86700000D03*
X114300000Y-89500000D03*
X114800000Y-116600000D03*
X114800000Y-119400000D03*
X114500000Y-129600000D03*
X114500000Y-132400000D03*
D14*
X148687500Y-111300000D03*
X147112500Y-111300000D03*
X167787500Y-111300000D03*
X166212500Y-111300000D03*
D12*
X170000000Y-105600000D03*
X170000000Y-108400000D03*
D15*
X224600000Y-116937500D03*
X224600000Y-115062500D03*
D16*
X180500000Y-107400000D03*
X180500000Y-104600000D03*
D17*
X179237500Y-111900000D03*
X177362500Y-111900000D03*
D16*
X190800000Y-107400000D03*
X190800000Y-104600000D03*
D17*
X187037500Y-111900000D03*
X185162500Y-111900000D03*
D13*
X192712500Y-109500000D03*
X194287500Y-109500000D03*
D14*
X203387500Y-103100000D03*
X201812500Y-103100000D03*
D15*
X182600000Y-116037500D03*
X182600000Y-114162500D03*
D18*
X221400000Y-115412500D03*
X221400000Y-116987500D03*
D13*
X224212500Y-127100000D03*
X225787500Y-127100000D03*
D18*
X188200000Y-119712500D03*
X188200000Y-121287500D03*
D13*
X179412500Y-136300000D03*
X180987500Y-136300000D03*
X174512500Y-136300000D03*
X176087500Y-136300000D03*
X154312500Y-136300000D03*
X155887500Y-136300000D03*
X118925000Y-67100000D03*
X120500000Y-67100000D03*
X119612500Y-80100000D03*
X121187500Y-80100000D03*
D19*
X215200000Y-129850000D03*
X215200000Y-127950000D03*
X213200000Y-128900000D03*
D20*
X110500000Y-121675000D03*
X110500000Y-123325000D03*
D18*
X110500000Y-134712500D03*
X110500000Y-136287500D03*
D11*
X151200000Y-111300000D03*
X151200000Y-114100000D03*
D18*
X236100000Y-109812500D03*
X236100000Y-111387500D03*
D21*
X226600000Y-116987500D03*
X226600000Y-115412500D03*
X184600000Y-107487500D03*
X184600000Y-105912500D03*
D14*
X188487500Y-107500000D03*
X186912500Y-107500000D03*
X206387500Y-109600000D03*
X204812500Y-109600000D03*
D22*
X182600000Y-112062500D03*
X182600000Y-109137500D03*
D13*
X197612500Y-101600000D03*
X199187500Y-101600000D03*
D18*
X206900000Y-105912500D03*
X206900000Y-107487500D03*
X203900000Y-105912500D03*
X203900000Y-107487500D03*
D13*
X184912500Y-116100000D03*
X186487500Y-116100000D03*
D23*
X229550000Y-133500000D03*
X226750000Y-133500000D03*
D14*
X207787500Y-103100000D03*
X206212500Y-103100000D03*
D24*
X108090000Y-117290000D03*
X108090000Y-118710000D03*
X108910000Y-118710000D03*
X108910000Y-117290000D03*
D25*
X106350000Y-116375000D03*
X106350000Y-117025000D03*
X106350000Y-117675000D03*
X106350000Y-118325000D03*
X106350000Y-118975000D03*
X106350000Y-119625000D03*
X110650000Y-119625000D03*
X110650000Y-118975000D03*
X110650000Y-118325000D03*
X110650000Y-117675000D03*
X110650000Y-117025000D03*
X110650000Y-116375000D03*
D24*
X108910000Y-130290000D03*
X108090000Y-130290000D03*
X108910000Y-131710000D03*
X108090000Y-131710000D03*
D25*
X106350000Y-129375000D03*
X106350000Y-130025000D03*
X106350000Y-130675000D03*
X106350000Y-131325000D03*
X106350000Y-131975000D03*
X106350000Y-132625000D03*
X110650000Y-132625000D03*
X110650000Y-131975000D03*
X110650000Y-131325000D03*
X110650000Y-130675000D03*
X110650000Y-130025000D03*
X110650000Y-129375000D03*
D26*
X170287500Y-110625000D03*
X170287500Y-111275000D03*
X170287500Y-111925000D03*
X170287500Y-112575000D03*
X174512500Y-112575000D03*
X174512500Y-111925000D03*
X174512500Y-111275000D03*
X174512500Y-110625000D03*
D21*
X177300000Y-127687500D03*
X177300000Y-126112500D03*
D27*
X211000000Y-128700000D03*
D28*
X211000000Y-124200000D03*
D27*
X211000000Y-119700000D03*
X201350000Y-119700000D03*
D28*
X201350000Y-124200000D03*
D27*
X201350000Y-128700000D03*
D29*
X207600000Y-113600000D03*
X210400000Y-113600000D03*
D11*
X102600000Y-86700000D03*
X102600000Y-89500000D03*
D30*
X228025000Y-82300000D03*
X229575000Y-82300000D03*
D31*
X229300000Y-84725000D03*
X229300000Y-86275000D03*
D32*
X218975000Y-89100000D03*
X217425000Y-89100000D03*
D31*
X214300000Y-62600000D03*
X214300000Y-64150000D03*
D30*
X189525000Y-76100000D03*
X191075000Y-76100000D03*
X214325000Y-72200000D03*
X215875000Y-72200000D03*
D31*
X195500000Y-72300000D03*
X195500000Y-73850000D03*
D33*
X201400000Y-63800000D03*
X201400000Y-62250000D03*
D34*
X95500000Y-55950000D03*
X95500000Y-60250000D03*
X96300000Y-134250000D03*
X96300000Y-129950000D03*
D35*
X237300000Y-82300000D03*
X237300000Y-78050000D03*
X237300000Y-86550000D03*
D36*
X231490000Y-55050000D03*
D37*
X218450000Y-48010000D03*
D36*
X231490000Y-73150000D03*
X187310000Y-67050000D03*
D37*
X212450000Y-92190000D03*
X224450000Y-48010000D03*
X212450000Y-48010000D03*
D38*
X187310000Y-48010000D03*
D37*
X224450000Y-92190000D03*
D38*
X187310000Y-92190000D03*
D36*
X187310000Y-73150000D03*
D39*
X229770000Y-48010000D03*
D37*
X206350000Y-48010000D03*
D40*
X231490000Y-49730000D03*
D36*
X187310000Y-79150000D03*
X231490000Y-85150000D03*
D38*
X231490000Y-92190000D03*
D40*
X231490000Y-90470000D03*
D36*
X187310000Y-55050000D03*
D38*
X231490000Y-48010000D03*
D37*
X194350000Y-92190000D03*
D36*
X187310000Y-61050000D03*
D40*
X187310000Y-49730000D03*
D37*
X218450000Y-92190000D03*
D36*
X231490000Y-79150000D03*
D37*
X200350000Y-92190000D03*
D39*
X189030000Y-92190000D03*
D36*
X231490000Y-61050000D03*
X231490000Y-67050000D03*
D37*
X194350000Y-48010000D03*
X200350000Y-48010000D03*
D39*
X229770000Y-92190000D03*
X189030000Y-48010000D03*
D36*
X187310000Y-85150000D03*
D37*
X206350000Y-92190000D03*
D40*
X187310000Y-90470000D03*
D41*
X160925000Y-106800000D03*
X159275000Y-106800000D03*
D20*
X191000000Y-65975000D03*
X191000000Y-67625000D03*
D42*
X193000000Y-67625000D03*
X193000000Y-65975000D03*
D43*
X218175000Y-96100000D03*
X219825000Y-96100000D03*
X223675000Y-90200000D03*
X225325000Y-90200000D03*
D42*
X193000000Y-71125000D03*
X193000000Y-69475000D03*
D44*
X228462500Y-58000000D03*
X225537500Y-58000000D03*
D41*
X208525000Y-68400000D03*
X206875000Y-68400000D03*
D43*
X216275000Y-63000000D03*
X217925000Y-63000000D03*
D20*
X211100000Y-69075000D03*
X211100000Y-70725000D03*
X222600000Y-68975000D03*
X222600000Y-70625000D03*
X211100000Y-65900000D03*
X211100000Y-67550000D03*
D42*
X222600000Y-67250000D03*
X222600000Y-65600000D03*
D45*
X199000000Y-68925000D03*
X199000000Y-67275000D03*
X197800000Y-68925000D03*
X197800000Y-67275000D03*
D46*
X195925000Y-66195000D03*
X195925000Y-67465000D03*
X195925000Y-68735000D03*
X195925000Y-70005000D03*
X200875000Y-70005000D03*
X200875000Y-68735000D03*
X200875000Y-67465000D03*
X200875000Y-66195000D03*
D47*
X226875000Y-88305000D03*
X226875000Y-87035000D03*
X226875000Y-85765000D03*
X226875000Y-84495000D03*
X221925000Y-84495000D03*
X221925000Y-85765000D03*
X221925000Y-87035000D03*
X221925000Y-88305000D03*
D48*
X214400000Y-65977500D03*
X214400000Y-66612500D03*
X214400000Y-67247500D03*
X214400000Y-67882500D03*
X214400000Y-68517500D03*
X214400000Y-69152500D03*
X214400000Y-69787500D03*
X214400000Y-70422500D03*
X219600000Y-70422500D03*
X219600000Y-69787500D03*
X219600000Y-69152500D03*
X219600000Y-68517500D03*
X219600000Y-67882500D03*
X219600000Y-67247500D03*
X219600000Y-66612500D03*
X219600000Y-65977500D03*
D35*
X237300000Y-60000000D03*
X237300000Y-55750000D03*
X237300000Y-64250000D03*
X237400000Y-130000000D03*
X237400000Y-125750000D03*
X237400000Y-134250000D03*
D32*
X158675000Y-114600000D03*
X157125000Y-114600000D03*
D49*
X108100000Y-92525000D03*
X108100000Y-95475000D03*
D33*
X197400000Y-79975000D03*
X197400000Y-78425000D03*
D30*
X191325000Y-88900000D03*
X192875000Y-88900000D03*
D20*
X110600000Y-92375000D03*
X110600000Y-94025000D03*
D41*
X157525000Y-106800000D03*
X155875000Y-106800000D03*
D42*
X219400000Y-120925000D03*
X219400000Y-119275000D03*
X221200000Y-122625000D03*
X221200000Y-120975000D03*
X189500000Y-86525000D03*
X189500000Y-84875000D03*
D20*
X189500000Y-81675000D03*
X189500000Y-83325000D03*
D24*
X108190000Y-88810000D03*
X109010000Y-87390000D03*
X108190000Y-87390000D03*
X109010000Y-88810000D03*
D25*
X106450000Y-86475000D03*
X106450000Y-87125000D03*
X106450000Y-87775000D03*
X106450000Y-88425000D03*
X106450000Y-89075000D03*
X106450000Y-89725000D03*
X110750000Y-89725000D03*
X110750000Y-89075000D03*
X110750000Y-88425000D03*
X110750000Y-87775000D03*
X110750000Y-87125000D03*
X110750000Y-86475000D03*
D46*
X157625000Y-108795000D03*
X157625000Y-110065000D03*
X157625000Y-111335000D03*
X157625000Y-112605000D03*
X162575000Y-112605000D03*
X162575000Y-111335000D03*
X162575000Y-110065000D03*
X162575000Y-108795000D03*
D50*
X227105000Y-119725000D03*
X225835000Y-119725000D03*
X224565000Y-119725000D03*
X223295000Y-119725000D03*
X223295000Y-124675000D03*
X224565000Y-124675000D03*
X225835000Y-124675000D03*
X227105000Y-124675000D03*
D46*
X191925000Y-82095000D03*
X191925000Y-83365000D03*
X191925000Y-84635000D03*
X191925000Y-85905000D03*
X196875000Y-85905000D03*
X196875000Y-84635000D03*
X196875000Y-83365000D03*
X196875000Y-82095000D03*
D51*
X202831000Y-84112000D03*
X214769000Y-84112000D03*
D52*
X208800000Y-79730500D03*
X208800000Y-88493500D03*
X213245000Y-79730500D03*
X204355000Y-79730500D03*
D41*
X194325000Y-79100000D03*
X192675000Y-79100000D03*
D45*
X198500000Y-106075000D03*
X198500000Y-107725000D03*
X199700000Y-107725000D03*
X199700000Y-106075000D03*
D46*
X196625000Y-104995000D03*
X196625000Y-106265000D03*
X196625000Y-107535000D03*
X196625000Y-108805000D03*
X201575000Y-108805000D03*
X201575000Y-107535000D03*
X201575000Y-106265000D03*
X201575000Y-104995000D03*
D53*
X118850000Y-132237500D03*
X120750000Y-132237500D03*
X119800000Y-130362500D03*
D41*
X219525000Y-81100000D03*
X217875000Y-81100000D03*
D54*
X224650000Y-133500000D03*
X222750000Y-133500000D03*
D46*
X180125000Y-119990000D03*
X180125000Y-121260000D03*
X180125000Y-122530000D03*
X180125000Y-123800000D03*
X185075000Y-123800000D03*
X185075000Y-122530000D03*
X185075000Y-121260000D03*
X185075000Y-119990000D03*
D42*
X177200000Y-122925000D03*
X177200000Y-121275000D03*
D30*
X217825000Y-84300000D03*
X219375000Y-84300000D03*
D53*
X119250000Y-118937500D03*
X121150000Y-118937500D03*
X120200000Y-117062500D03*
D42*
X177200000Y-119625000D03*
X177200000Y-117975000D03*
D33*
X199900000Y-83275000D03*
X199900000Y-81725000D03*
D42*
X199900000Y-86725000D03*
X199900000Y-85075000D03*
M02*
