G04 #@! TF.GenerationSoftware,KiCad,Pcbnew,(6.0.7)*
G04 #@! TF.CreationDate,2023-06-12T15:50:33+02:00*
G04 #@! TF.ProjectId,MTS_module,4d54535f-6d6f-4647-956c-652e6b696361,1.3.3*
G04 #@! TF.SameCoordinates,Original*
G04 #@! TF.FileFunction,Legend,Top*
G04 #@! TF.FilePolarity,Positive*
%FSLAX46Y46*%
G04 Gerber Fmt 4.6, Leading zero omitted, Abs format (unit mm)*
G04 Created by KiCad (PCBNEW (6.0.7)) date 2023-06-12 15:50:33*
%MOMM*%
%LPD*%
G01*
G04 APERTURE LIST*
%ADD10C,0.250000*%
%ADD11C,0.150000*%
%ADD12C,0.300000*%
%ADD13C,0.600000*%
%ADD14C,0.120000*%
%ADD15C,1.000000*%
G04 APERTURE END LIST*
D10*
X91876785Y-54563571D02*
X91376785Y-53849285D01*
X91019642Y-54563571D02*
X91019642Y-53063571D01*
X91591071Y-53063571D01*
X91733928Y-53135000D01*
X91805357Y-53206428D01*
X91876785Y-53349285D01*
X91876785Y-53563571D01*
X91805357Y-53706428D01*
X91733928Y-53777857D01*
X91591071Y-53849285D01*
X91019642Y-53849285D01*
X93019642Y-53777857D02*
X92519642Y-53777857D01*
X92519642Y-54563571D02*
X92519642Y-53063571D01*
X93233928Y-53063571D01*
X95448214Y-53777857D02*
X94948214Y-53777857D01*
X94948214Y-54563571D02*
X94948214Y-53063571D01*
X95662500Y-53063571D01*
X96233928Y-54563571D02*
X96233928Y-53563571D01*
X96233928Y-53849285D02*
X96305357Y-53706428D01*
X96376785Y-53635000D01*
X96519642Y-53563571D01*
X96662500Y-53563571D01*
X97733928Y-54492142D02*
X97591071Y-54563571D01*
X97305357Y-54563571D01*
X97162500Y-54492142D01*
X97091071Y-54349285D01*
X97091071Y-53777857D01*
X97162500Y-53635000D01*
X97305357Y-53563571D01*
X97591071Y-53563571D01*
X97733928Y-53635000D01*
X97805357Y-53777857D01*
X97805357Y-53920714D01*
X97091071Y-54063571D01*
X99091071Y-53563571D02*
X99091071Y-55063571D01*
X99091071Y-54492142D02*
X98948214Y-54563571D01*
X98662500Y-54563571D01*
X98519642Y-54492142D01*
X98448214Y-54420714D01*
X98376785Y-54277857D01*
X98376785Y-53849285D01*
X98448214Y-53706428D01*
X98519642Y-53635000D01*
X98662500Y-53563571D01*
X98948214Y-53563571D01*
X99091071Y-53635000D01*
X100448214Y-53563571D02*
X100448214Y-54563571D01*
X99805357Y-53563571D02*
X99805357Y-54349285D01*
X99876785Y-54492142D01*
X100019642Y-54563571D01*
X100233928Y-54563571D01*
X100376785Y-54492142D01*
X100448214Y-54420714D01*
X101733928Y-54492142D02*
X101591071Y-54563571D01*
X101305357Y-54563571D01*
X101162500Y-54492142D01*
X101091071Y-54349285D01*
X101091071Y-53777857D01*
X101162500Y-53635000D01*
X101305357Y-53563571D01*
X101591071Y-53563571D01*
X101733928Y-53635000D01*
X101805357Y-53777857D01*
X101805357Y-53920714D01*
X101091071Y-54063571D01*
X102448214Y-53563571D02*
X102448214Y-54563571D01*
X102448214Y-53706428D02*
X102519642Y-53635000D01*
X102662500Y-53563571D01*
X102876785Y-53563571D01*
X103019642Y-53635000D01*
X103091071Y-53777857D01*
X103091071Y-54563571D01*
X104448214Y-54492142D02*
X104305357Y-54563571D01*
X104019642Y-54563571D01*
X103876785Y-54492142D01*
X103805357Y-54420714D01*
X103733928Y-54277857D01*
X103733928Y-53849285D01*
X103805357Y-53706428D01*
X103876785Y-53635000D01*
X104019642Y-53563571D01*
X104305357Y-53563571D01*
X104448214Y-53635000D01*
X104948214Y-53563571D02*
X105305357Y-54563571D01*
X105662500Y-53563571D02*
X105305357Y-54563571D01*
X105162500Y-54920714D01*
X105091071Y-54992142D01*
X104948214Y-55063571D01*
X107376785Y-54563571D02*
X107376785Y-53063571D01*
X107876785Y-54135000D01*
X108376785Y-53063571D01*
X108376785Y-54563571D01*
X109305357Y-54563571D02*
X109162500Y-54492142D01*
X109091071Y-54420714D01*
X109019642Y-54277857D01*
X109019642Y-53849285D01*
X109091071Y-53706428D01*
X109162500Y-53635000D01*
X109305357Y-53563571D01*
X109519642Y-53563571D01*
X109662500Y-53635000D01*
X109733928Y-53706428D01*
X109805357Y-53849285D01*
X109805357Y-54277857D01*
X109733928Y-54420714D01*
X109662500Y-54492142D01*
X109519642Y-54563571D01*
X109305357Y-54563571D01*
X111091071Y-54563571D02*
X111091071Y-53063571D01*
X111091071Y-54492142D02*
X110948214Y-54563571D01*
X110662500Y-54563571D01*
X110519642Y-54492142D01*
X110448214Y-54420714D01*
X110376785Y-54277857D01*
X110376785Y-53849285D01*
X110448214Y-53706428D01*
X110519642Y-53635000D01*
X110662500Y-53563571D01*
X110948214Y-53563571D01*
X111091071Y-53635000D01*
X112448214Y-53563571D02*
X112448214Y-54563571D01*
X111805357Y-53563571D02*
X111805357Y-54349285D01*
X111876785Y-54492142D01*
X112019642Y-54563571D01*
X112233928Y-54563571D01*
X112376785Y-54492142D01*
X112448214Y-54420714D01*
X113376785Y-54563571D02*
X113233928Y-54492142D01*
X113162500Y-54349285D01*
X113162500Y-53063571D01*
X114591071Y-54563571D02*
X114591071Y-53777857D01*
X114519642Y-53635000D01*
X114376785Y-53563571D01*
X114091071Y-53563571D01*
X113948214Y-53635000D01*
X114591071Y-54492142D02*
X114448214Y-54563571D01*
X114091071Y-54563571D01*
X113948214Y-54492142D01*
X113876785Y-54349285D01*
X113876785Y-54206428D01*
X113948214Y-54063571D01*
X114091071Y-53992142D01*
X114448214Y-53992142D01*
X114591071Y-53920714D01*
X115091071Y-53563571D02*
X115662500Y-53563571D01*
X115305357Y-53063571D02*
X115305357Y-54349285D01*
X115376785Y-54492142D01*
X115519642Y-54563571D01*
X115662500Y-54563571D01*
X116376785Y-54563571D02*
X116233928Y-54492142D01*
X116162500Y-54420714D01*
X116091071Y-54277857D01*
X116091071Y-53849285D01*
X116162500Y-53706428D01*
X116233928Y-53635000D01*
X116376785Y-53563571D01*
X116591071Y-53563571D01*
X116733928Y-53635000D01*
X116805357Y-53706428D01*
X116876785Y-53849285D01*
X116876785Y-54277857D01*
X116805357Y-54420714D01*
X116733928Y-54492142D01*
X116591071Y-54563571D01*
X116376785Y-54563571D01*
X117519642Y-54563571D02*
X117519642Y-53563571D01*
X117519642Y-53849285D02*
X117591071Y-53706428D01*
X117662500Y-53635000D01*
X117805357Y-53563571D01*
X117948214Y-53563571D01*
X91805357Y-56978571D02*
X90948214Y-56978571D01*
X91376785Y-56978571D02*
X91376785Y-55478571D01*
X91233928Y-55692857D01*
X91091071Y-55835714D01*
X90948214Y-55907142D01*
X92733928Y-55478571D02*
X92876785Y-55478571D01*
X93019642Y-55550000D01*
X93091071Y-55621428D01*
X93162500Y-55764285D01*
X93233928Y-56050000D01*
X93233928Y-56407142D01*
X93162500Y-56692857D01*
X93091071Y-56835714D01*
X93019642Y-56907142D01*
X92876785Y-56978571D01*
X92733928Y-56978571D01*
X92591071Y-56907142D01*
X92519642Y-56835714D01*
X92448214Y-56692857D01*
X92376785Y-56407142D01*
X92376785Y-56050000D01*
X92448214Y-55764285D01*
X92519642Y-55621428D01*
X92591071Y-55550000D01*
X92733928Y-55478571D01*
X94162500Y-55478571D02*
X94305357Y-55478571D01*
X94448214Y-55550000D01*
X94519642Y-55621428D01*
X94591071Y-55764285D01*
X94662500Y-56050000D01*
X94662500Y-56407142D01*
X94591071Y-56692857D01*
X94519642Y-56835714D01*
X94448214Y-56907142D01*
X94305357Y-56978571D01*
X94162500Y-56978571D01*
X94019642Y-56907142D01*
X93948214Y-56835714D01*
X93876785Y-56692857D01*
X93805357Y-56407142D01*
X93805357Y-56050000D01*
X93876785Y-55764285D01*
X93948214Y-55621428D01*
X94019642Y-55550000D01*
X94162500Y-55478571D01*
X95305357Y-56407142D02*
X96448214Y-56407142D01*
X97948214Y-56978571D02*
X97091071Y-56978571D01*
X97519642Y-56978571D02*
X97519642Y-55478571D01*
X97376785Y-55692857D01*
X97233928Y-55835714D01*
X97091071Y-55907142D01*
X99233928Y-55978571D02*
X99233928Y-56978571D01*
X98876785Y-55407142D02*
X98519642Y-56478571D01*
X99448214Y-56478571D01*
X100305357Y-55478571D02*
X100448214Y-55478571D01*
X100591071Y-55550000D01*
X100662500Y-55621428D01*
X100733928Y-55764285D01*
X100805357Y-56050000D01*
X100805357Y-56407142D01*
X100733928Y-56692857D01*
X100662500Y-56835714D01*
X100591071Y-56907142D01*
X100448214Y-56978571D01*
X100305357Y-56978571D01*
X100162500Y-56907142D01*
X100091071Y-56835714D01*
X100019642Y-56692857D01*
X99948214Y-56407142D01*
X99948214Y-56050000D01*
X100019642Y-55764285D01*
X100091071Y-55621428D01*
X100162500Y-55550000D01*
X100305357Y-55478571D01*
X102591071Y-56978571D02*
X102591071Y-55478571D01*
X103091071Y-56550000D01*
X103591071Y-55478571D01*
X103591071Y-56978571D01*
X104305357Y-56978571D02*
X104305357Y-55478571D01*
X104305357Y-56192857D02*
X105162500Y-56192857D01*
X105162500Y-56978571D02*
X105162500Y-55478571D01*
X105733928Y-55978571D02*
X106519642Y-55978571D01*
X105733928Y-56978571D01*
X106519642Y-56978571D01*
X91305357Y-57893571D02*
X91448214Y-57893571D01*
X91591071Y-57965000D01*
X91662500Y-58036428D01*
X91733928Y-58179285D01*
X91805357Y-58465000D01*
X91805357Y-58822142D01*
X91733928Y-59107857D01*
X91662500Y-59250714D01*
X91591071Y-59322142D01*
X91448214Y-59393571D01*
X91305357Y-59393571D01*
X91162500Y-59322142D01*
X91091071Y-59250714D01*
X91019642Y-59107857D01*
X90948214Y-58822142D01*
X90948214Y-58465000D01*
X91019642Y-58179285D01*
X91091071Y-58036428D01*
X91162500Y-57965000D01*
X91305357Y-57893571D01*
X92305357Y-57893571D02*
X93233928Y-57893571D01*
X92733928Y-58465000D01*
X92948214Y-58465000D01*
X93091071Y-58536428D01*
X93162500Y-58607857D01*
X93233928Y-58750714D01*
X93233928Y-59107857D01*
X93162500Y-59250714D01*
X93091071Y-59322142D01*
X92948214Y-59393571D01*
X92519642Y-59393571D01*
X92376785Y-59322142D01*
X92305357Y-59250714D01*
X94948214Y-57822142D02*
X93662500Y-59750714D01*
X95376785Y-58036428D02*
X95448214Y-57965000D01*
X95591071Y-57893571D01*
X95948214Y-57893571D01*
X96091071Y-57965000D01*
X96162500Y-58036428D01*
X96233928Y-58179285D01*
X96233928Y-58322142D01*
X96162500Y-58536428D01*
X95305357Y-59393571D01*
X96233928Y-59393571D01*
X97162500Y-57893571D02*
X97305357Y-57893571D01*
X97448214Y-57965000D01*
X97519642Y-58036428D01*
X97591071Y-58179285D01*
X97662500Y-58465000D01*
X97662500Y-58822142D01*
X97591071Y-59107857D01*
X97519642Y-59250714D01*
X97448214Y-59322142D01*
X97305357Y-59393571D01*
X97162500Y-59393571D01*
X97019642Y-59322142D01*
X96948214Y-59250714D01*
X96876785Y-59107857D01*
X96805357Y-58822142D01*
X96805357Y-58465000D01*
X96876785Y-58179285D01*
X96948214Y-58036428D01*
X97019642Y-57965000D01*
X97162500Y-57893571D01*
X98233928Y-58036428D02*
X98305357Y-57965000D01*
X98448214Y-57893571D01*
X98805357Y-57893571D01*
X98948214Y-57965000D01*
X99019642Y-58036428D01*
X99091071Y-58179285D01*
X99091071Y-58322142D01*
X99019642Y-58536428D01*
X98162500Y-59393571D01*
X99091071Y-59393571D01*
X99591071Y-57893571D02*
X100519642Y-57893571D01*
X100019642Y-58465000D01*
X100233928Y-58465000D01*
X100376785Y-58536428D01*
X100448214Y-58607857D01*
X100519642Y-58750714D01*
X100519642Y-59107857D01*
X100448214Y-59250714D01*
X100376785Y-59322142D01*
X100233928Y-59393571D01*
X99805357Y-59393571D01*
X99662500Y-59322142D01*
X99591071Y-59250714D01*
X103162500Y-59393571D02*
X102662500Y-58679285D01*
X102305357Y-59393571D02*
X102305357Y-57893571D01*
X102876785Y-57893571D01*
X103019642Y-57965000D01*
X103091071Y-58036428D01*
X103162500Y-58179285D01*
X103162500Y-58393571D01*
X103091071Y-58536428D01*
X103019642Y-58607857D01*
X102876785Y-58679285D01*
X102305357Y-58679285D01*
X104376785Y-59322142D02*
X104233928Y-59393571D01*
X103948214Y-59393571D01*
X103805357Y-59322142D01*
X103733928Y-59179285D01*
X103733928Y-58607857D01*
X103805357Y-58465000D01*
X103948214Y-58393571D01*
X104233928Y-58393571D01*
X104376785Y-58465000D01*
X104448214Y-58607857D01*
X104448214Y-58750714D01*
X103733928Y-58893571D01*
X104948214Y-58393571D02*
X105305357Y-59393571D01*
X105662500Y-58393571D01*
X106233928Y-59393571D02*
X106233928Y-58393571D01*
X106233928Y-57893571D02*
X106162500Y-57965000D01*
X106233928Y-58036428D01*
X106305357Y-57965000D01*
X106233928Y-57893571D01*
X106233928Y-58036428D01*
X106876785Y-59322142D02*
X107019642Y-59393571D01*
X107305357Y-59393571D01*
X107448214Y-59322142D01*
X107519642Y-59179285D01*
X107519642Y-59107857D01*
X107448214Y-58965000D01*
X107305357Y-58893571D01*
X107091071Y-58893571D01*
X106948214Y-58822142D01*
X106876785Y-58679285D01*
X106876785Y-58607857D01*
X106948214Y-58465000D01*
X107091071Y-58393571D01*
X107305357Y-58393571D01*
X107448214Y-58465000D01*
X108162500Y-59393571D02*
X108162500Y-58393571D01*
X108162500Y-57893571D02*
X108091071Y-57965000D01*
X108162500Y-58036428D01*
X108233928Y-57965000D01*
X108162500Y-57893571D01*
X108162500Y-58036428D01*
X109091071Y-59393571D02*
X108948214Y-59322142D01*
X108876785Y-59250714D01*
X108805357Y-59107857D01*
X108805357Y-58679285D01*
X108876785Y-58536428D01*
X108948214Y-58465000D01*
X109091071Y-58393571D01*
X109305357Y-58393571D01*
X109448214Y-58465000D01*
X109519642Y-58536428D01*
X109591071Y-58679285D01*
X109591071Y-59107857D01*
X109519642Y-59250714D01*
X109448214Y-59322142D01*
X109305357Y-59393571D01*
X109091071Y-59393571D01*
X110233928Y-58393571D02*
X110233928Y-59393571D01*
X110233928Y-58536428D02*
X110305357Y-58465000D01*
X110448214Y-58393571D01*
X110662500Y-58393571D01*
X110805357Y-58465000D01*
X110876785Y-58607857D01*
X110876785Y-59393571D01*
X113519642Y-59393571D02*
X112662500Y-59393571D01*
X113091071Y-59393571D02*
X113091071Y-57893571D01*
X112948214Y-58107857D01*
X112805357Y-58250714D01*
X112662500Y-58322142D01*
X114162500Y-59250714D02*
X114233928Y-59322142D01*
X114162500Y-59393571D01*
X114091071Y-59322142D01*
X114162500Y-59250714D01*
X114162500Y-59393571D01*
X114733928Y-57893571D02*
X115662500Y-57893571D01*
X115162500Y-58465000D01*
X115376785Y-58465000D01*
X115519642Y-58536428D01*
X115591071Y-58607857D01*
X115662500Y-58750714D01*
X115662500Y-59107857D01*
X115591071Y-59250714D01*
X115519642Y-59322142D01*
X115376785Y-59393571D01*
X114948214Y-59393571D01*
X114805357Y-59322142D01*
X114733928Y-59250714D01*
X116305357Y-59250714D02*
X116376785Y-59322142D01*
X116305357Y-59393571D01*
X116233928Y-59322142D01*
X116305357Y-59250714D01*
X116305357Y-59393571D01*
X116876785Y-57893571D02*
X117805357Y-57893571D01*
X117305357Y-58465000D01*
X117519642Y-58465000D01*
X117662500Y-58536428D01*
X117733928Y-58607857D01*
X117805357Y-58750714D01*
X117805357Y-59107857D01*
X117733928Y-59250714D01*
X117662500Y-59322142D01*
X117519642Y-59393571D01*
X117091071Y-59393571D01*
X116948214Y-59322142D01*
X116876785Y-59250714D01*
D11*
X140600000Y-121771428D02*
X141361904Y-121771428D01*
X140980952Y-122152380D02*
X140980952Y-121390476D01*
X141742857Y-121152380D02*
X142361904Y-121152380D01*
X142028571Y-121533333D01*
X142171428Y-121533333D01*
X142266666Y-121580952D01*
X142314285Y-121628571D01*
X142361904Y-121723809D01*
X142361904Y-121961904D01*
X142314285Y-122057142D01*
X142266666Y-122104761D01*
X142171428Y-122152380D01*
X141885714Y-122152380D01*
X141790476Y-122104761D01*
X141742857Y-122057142D01*
X142790476Y-122057142D02*
X142838095Y-122104761D01*
X142790476Y-122152380D01*
X142742857Y-122104761D01*
X142790476Y-122057142D01*
X142790476Y-122152380D01*
X143171428Y-121152380D02*
X143790476Y-121152380D01*
X143457142Y-121533333D01*
X143600000Y-121533333D01*
X143695238Y-121580952D01*
X143742857Y-121628571D01*
X143790476Y-121723809D01*
X143790476Y-121961904D01*
X143742857Y-122057142D01*
X143695238Y-122104761D01*
X143600000Y-122152380D01*
X143314285Y-122152380D01*
X143219047Y-122104761D01*
X143171428Y-122057142D01*
X144076190Y-121152380D02*
X144409523Y-122152380D01*
X144742857Y-121152380D01*
D12*
X127171428Y-70407142D02*
X128314285Y-70407142D01*
X127742857Y-70978571D02*
X127742857Y-69835714D01*
X129242857Y-70121428D02*
X129100000Y-70050000D01*
X129028571Y-69978571D01*
X128957142Y-69835714D01*
X128957142Y-69764285D01*
X129028571Y-69621428D01*
X129100000Y-69550000D01*
X129242857Y-69478571D01*
X129528571Y-69478571D01*
X129671428Y-69550000D01*
X129742857Y-69621428D01*
X129814285Y-69764285D01*
X129814285Y-69835714D01*
X129742857Y-69978571D01*
X129671428Y-70050000D01*
X129528571Y-70121428D01*
X129242857Y-70121428D01*
X129100000Y-70192857D01*
X129028571Y-70264285D01*
X128957142Y-70407142D01*
X128957142Y-70692857D01*
X129028571Y-70835714D01*
X129100000Y-70907142D01*
X129242857Y-70978571D01*
X129528571Y-70978571D01*
X129671428Y-70907142D01*
X129742857Y-70835714D01*
X129814285Y-70692857D01*
X129814285Y-70407142D01*
X129742857Y-70264285D01*
X129671428Y-70192857D01*
X129528571Y-70121428D01*
X130242857Y-69478571D02*
X130742857Y-70978571D01*
X131242857Y-69478571D01*
X127071428Y-64407142D02*
X128214285Y-64407142D01*
X129142857Y-64121428D02*
X129000000Y-64050000D01*
X128928571Y-63978571D01*
X128857142Y-63835714D01*
X128857142Y-63764285D01*
X128928571Y-63621428D01*
X129000000Y-63550000D01*
X129142857Y-63478571D01*
X129428571Y-63478571D01*
X129571428Y-63550000D01*
X129642857Y-63621428D01*
X129714285Y-63764285D01*
X129714285Y-63835714D01*
X129642857Y-63978571D01*
X129571428Y-64050000D01*
X129428571Y-64121428D01*
X129142857Y-64121428D01*
X129000000Y-64192857D01*
X128928571Y-64264285D01*
X128857142Y-64407142D01*
X128857142Y-64692857D01*
X128928571Y-64835714D01*
X129000000Y-64907142D01*
X129142857Y-64978571D01*
X129428571Y-64978571D01*
X129571428Y-64907142D01*
X129642857Y-64835714D01*
X129714285Y-64692857D01*
X129714285Y-64407142D01*
X129642857Y-64264285D01*
X129571428Y-64192857D01*
X129428571Y-64121428D01*
X130142857Y-63478571D02*
X130642857Y-64978571D01*
X131142857Y-63478571D01*
X128157142Y-66350000D02*
X128014285Y-66278571D01*
X127800000Y-66278571D01*
X127585714Y-66350000D01*
X127442857Y-66492857D01*
X127371428Y-66635714D01*
X127300000Y-66921428D01*
X127300000Y-67135714D01*
X127371428Y-67421428D01*
X127442857Y-67564285D01*
X127585714Y-67707142D01*
X127800000Y-67778571D01*
X127942857Y-67778571D01*
X128157142Y-67707142D01*
X128228571Y-67635714D01*
X128228571Y-67135714D01*
X127942857Y-67135714D01*
X128871428Y-67778571D02*
X128871428Y-66278571D01*
X129728571Y-67778571D01*
X129728571Y-66278571D01*
X130442857Y-67778571D02*
X130442857Y-66278571D01*
X130800000Y-66278571D01*
X131014285Y-66350000D01*
X131157142Y-66492857D01*
X131228571Y-66635714D01*
X131300000Y-66921428D01*
X131300000Y-67135714D01*
X131228571Y-67421428D01*
X131157142Y-67564285D01*
X131014285Y-67707142D01*
X130800000Y-67778571D01*
X130442857Y-67778571D01*
D11*
X190557142Y-91742857D02*
X190604761Y-91790476D01*
X190652380Y-91933333D01*
X190652380Y-92028571D01*
X190604761Y-92171428D01*
X190509523Y-92266666D01*
X190414285Y-92314285D01*
X190223809Y-92361904D01*
X190080952Y-92361904D01*
X189890476Y-92314285D01*
X189795238Y-92266666D01*
X189700000Y-92171428D01*
X189652380Y-92028571D01*
X189652380Y-91933333D01*
X189700000Y-91790476D01*
X189747619Y-91742857D01*
X189747619Y-91361904D02*
X189700000Y-91314285D01*
X189652380Y-91219047D01*
X189652380Y-90980952D01*
X189700000Y-90885714D01*
X189747619Y-90838095D01*
X189842857Y-90790476D01*
X189938095Y-90790476D01*
X190080952Y-90838095D01*
X190652380Y-91409523D01*
X190652380Y-90790476D01*
X189652380Y-90457142D02*
X189652380Y-89790476D01*
X190652380Y-90219047D01*
X163061904Y-89452380D02*
X163061904Y-90261904D01*
X163109523Y-90357142D01*
X163157142Y-90404761D01*
X163252380Y-90452380D01*
X163442857Y-90452380D01*
X163538095Y-90404761D01*
X163585714Y-90357142D01*
X163633333Y-90261904D01*
X163633333Y-89452380D01*
X164633333Y-90452380D02*
X164061904Y-90452380D01*
X164347619Y-90452380D02*
X164347619Y-89452380D01*
X164252380Y-89595238D01*
X164157142Y-89690476D01*
X164061904Y-89738095D01*
X164966666Y-89452380D02*
X165633333Y-89452380D01*
X165204761Y-90452380D01*
X194661904Y-87452380D02*
X194661904Y-88261904D01*
X194709523Y-88357142D01*
X194757142Y-88404761D01*
X194852380Y-88452380D01*
X195042857Y-88452380D01*
X195138095Y-88404761D01*
X195185714Y-88357142D01*
X195233333Y-88261904D01*
X195233333Y-87452380D01*
X196233333Y-88452380D02*
X195661904Y-88452380D01*
X195947619Y-88452380D02*
X195947619Y-87452380D01*
X195852380Y-87595238D01*
X195757142Y-87690476D01*
X195661904Y-87738095D01*
X197090476Y-87785714D02*
X197090476Y-88452380D01*
X196852380Y-87404761D02*
X196614285Y-88119047D01*
X197233333Y-88119047D01*
X197402380Y-125600595D02*
X198211904Y-125600595D01*
X198307142Y-125552976D01*
X198354761Y-125505357D01*
X198402380Y-125410119D01*
X198402380Y-125219642D01*
X198354761Y-125124404D01*
X198307142Y-125076785D01*
X198211904Y-125029166D01*
X197402380Y-125029166D01*
X198402380Y-124029166D02*
X198402380Y-124600595D01*
X198402380Y-124314880D02*
X197402380Y-124314880D01*
X197545238Y-124410119D01*
X197640476Y-124505357D01*
X197688095Y-124600595D01*
X197402380Y-123695833D02*
X197402380Y-123076785D01*
X197783333Y-123410119D01*
X197783333Y-123267261D01*
X197830952Y-123172023D01*
X197878571Y-123124404D01*
X197973809Y-123076785D01*
X198211904Y-123076785D01*
X198307142Y-123124404D01*
X198354761Y-123172023D01*
X198402380Y-123267261D01*
X198402380Y-123552976D01*
X198354761Y-123648214D01*
X198307142Y-123695833D01*
X153638095Y-125252380D02*
X153638095Y-126061904D01*
X153685714Y-126157142D01*
X153733333Y-126204761D01*
X153828571Y-126252380D01*
X154019047Y-126252380D01*
X154114285Y-126204761D01*
X154161904Y-126157142D01*
X154209523Y-126061904D01*
X154209523Y-125252380D01*
X154733333Y-126252380D02*
X154923809Y-126252380D01*
X155019047Y-126204761D01*
X155066666Y-126157142D01*
X155161904Y-126014285D01*
X155209523Y-125823809D01*
X155209523Y-125442857D01*
X155161904Y-125347619D01*
X155114285Y-125300000D01*
X155019047Y-125252380D01*
X154828571Y-125252380D01*
X154733333Y-125300000D01*
X154685714Y-125347619D01*
X154638095Y-125442857D01*
X154638095Y-125680952D01*
X154685714Y-125776190D01*
X154733333Y-125823809D01*
X154828571Y-125871428D01*
X155019047Y-125871428D01*
X155114285Y-125823809D01*
X155161904Y-125776190D01*
X155209523Y-125680952D01*
X131052380Y-117061904D02*
X131861904Y-117061904D01*
X131957142Y-117014285D01*
X132004761Y-116966666D01*
X132052380Y-116871428D01*
X132052380Y-116680952D01*
X132004761Y-116585714D01*
X131957142Y-116538095D01*
X131861904Y-116490476D01*
X131052380Y-116490476D01*
X131052380Y-115538095D02*
X131052380Y-116014285D01*
X131528571Y-116061904D01*
X131480952Y-116014285D01*
X131433333Y-115919047D01*
X131433333Y-115680952D01*
X131480952Y-115585714D01*
X131528571Y-115538095D01*
X131623809Y-115490476D01*
X131861904Y-115490476D01*
X131957142Y-115538095D01*
X132004761Y-115585714D01*
X132052380Y-115680952D01*
X132052380Y-115919047D01*
X132004761Y-116014285D01*
X131957142Y-116061904D01*
X55852380Y-143513333D02*
X56566666Y-143513333D01*
X56709523Y-143560952D01*
X56804761Y-143656190D01*
X56852380Y-143799047D01*
X56852380Y-143894285D01*
X56852380Y-142513333D02*
X56852380Y-143084761D01*
X56852380Y-142799047D02*
X55852380Y-142799047D01*
X55995238Y-142894285D01*
X56090476Y-142989523D01*
X56138095Y-143084761D01*
X72333333Y-119057142D02*
X72285714Y-119104761D01*
X72142857Y-119152380D01*
X72047619Y-119152380D01*
X71904761Y-119104761D01*
X71809523Y-119009523D01*
X71761904Y-118914285D01*
X71714285Y-118723809D01*
X71714285Y-118580952D01*
X71761904Y-118390476D01*
X71809523Y-118295238D01*
X71904761Y-118200000D01*
X72047619Y-118152380D01*
X72142857Y-118152380D01*
X72285714Y-118200000D01*
X72333333Y-118247619D01*
X72666666Y-118152380D02*
X73285714Y-118152380D01*
X72952380Y-118533333D01*
X73095238Y-118533333D01*
X73190476Y-118580952D01*
X73238095Y-118628571D01*
X73285714Y-118723809D01*
X73285714Y-118961904D01*
X73238095Y-119057142D01*
X73190476Y-119104761D01*
X73095238Y-119152380D01*
X72809523Y-119152380D01*
X72714285Y-119104761D01*
X72666666Y-119057142D01*
X72833333Y-132157142D02*
X72785714Y-132204761D01*
X72642857Y-132252380D01*
X72547619Y-132252380D01*
X72404761Y-132204761D01*
X72309523Y-132109523D01*
X72261904Y-132014285D01*
X72214285Y-131823809D01*
X72214285Y-131680952D01*
X72261904Y-131490476D01*
X72309523Y-131395238D01*
X72404761Y-131300000D01*
X72547619Y-131252380D01*
X72642857Y-131252380D01*
X72785714Y-131300000D01*
X72833333Y-131347619D01*
X73690476Y-131585714D02*
X73690476Y-132252380D01*
X73452380Y-131204761D02*
X73214285Y-131919047D01*
X73833333Y-131919047D01*
X76257142Y-127466666D02*
X76304761Y-127514285D01*
X76352380Y-127657142D01*
X76352380Y-127752380D01*
X76304761Y-127895238D01*
X76209523Y-127990476D01*
X76114285Y-128038095D01*
X75923809Y-128085714D01*
X75780952Y-128085714D01*
X75590476Y-128038095D01*
X75495238Y-127990476D01*
X75400000Y-127895238D01*
X75352380Y-127752380D01*
X75352380Y-127657142D01*
X75400000Y-127514285D01*
X75447619Y-127466666D01*
X75352380Y-126561904D02*
X75352380Y-127038095D01*
X75828571Y-127085714D01*
X75780952Y-127038095D01*
X75733333Y-126942857D01*
X75733333Y-126704761D01*
X75780952Y-126609523D01*
X75828571Y-126561904D01*
X75923809Y-126514285D01*
X76161904Y-126514285D01*
X76257142Y-126561904D01*
X76304761Y-126609523D01*
X76352380Y-126704761D01*
X76352380Y-126942857D01*
X76304761Y-127038095D01*
X76257142Y-127085714D01*
X76357142Y-140366666D02*
X76404761Y-140414285D01*
X76452380Y-140557142D01*
X76452380Y-140652380D01*
X76404761Y-140795238D01*
X76309523Y-140890476D01*
X76214285Y-140938095D01*
X76023809Y-140985714D01*
X75880952Y-140985714D01*
X75690476Y-140938095D01*
X75595238Y-140890476D01*
X75500000Y-140795238D01*
X75452380Y-140652380D01*
X75452380Y-140557142D01*
X75500000Y-140414285D01*
X75547619Y-140366666D01*
X75452380Y-139509523D02*
X75452380Y-139700000D01*
X75500000Y-139795238D01*
X75547619Y-139842857D01*
X75690476Y-139938095D01*
X75880952Y-139985714D01*
X76261904Y-139985714D01*
X76357142Y-139938095D01*
X76404761Y-139890476D01*
X76452380Y-139795238D01*
X76452380Y-139604761D01*
X76404761Y-139509523D01*
X76357142Y-139461904D01*
X76261904Y-139414285D01*
X76023809Y-139414285D01*
X75928571Y-139461904D01*
X75880952Y-139509523D01*
X75833333Y-139604761D01*
X75833333Y-139795238D01*
X75880952Y-139890476D01*
X75928571Y-139938095D01*
X76023809Y-139985714D01*
X134433333Y-120457142D02*
X134385714Y-120504761D01*
X134242857Y-120552380D01*
X134147619Y-120552380D01*
X134004761Y-120504761D01*
X133909523Y-120409523D01*
X133861904Y-120314285D01*
X133814285Y-120123809D01*
X133814285Y-119980952D01*
X133861904Y-119790476D01*
X133909523Y-119695238D01*
X134004761Y-119600000D01*
X134147619Y-119552380D01*
X134242857Y-119552380D01*
X134385714Y-119600000D01*
X134433333Y-119647619D01*
X134766666Y-119552380D02*
X135433333Y-119552380D01*
X135004761Y-120552380D01*
X83757142Y-89157142D02*
X83709523Y-89204761D01*
X83566666Y-89252380D01*
X83471428Y-89252380D01*
X83328571Y-89204761D01*
X83233333Y-89109523D01*
X83185714Y-89014285D01*
X83138095Y-88823809D01*
X83138095Y-88680952D01*
X83185714Y-88490476D01*
X83233333Y-88395238D01*
X83328571Y-88300000D01*
X83471428Y-88252380D01*
X83566666Y-88252380D01*
X83709523Y-88300000D01*
X83757142Y-88347619D01*
X84709523Y-89252380D02*
X84138095Y-89252380D01*
X84423809Y-89252380D02*
X84423809Y-88252380D01*
X84328571Y-88395238D01*
X84233333Y-88490476D01*
X84138095Y-88538095D01*
X85328571Y-88252380D02*
X85423809Y-88252380D01*
X85519047Y-88300000D01*
X85566666Y-88347619D01*
X85614285Y-88442857D01*
X85661904Y-88633333D01*
X85661904Y-88871428D01*
X85614285Y-89061904D01*
X85566666Y-89157142D01*
X85519047Y-89204761D01*
X85423809Y-89252380D01*
X85328571Y-89252380D01*
X85233333Y-89204761D01*
X85185714Y-89157142D01*
X85138095Y-89061904D01*
X85090476Y-88871428D01*
X85090476Y-88633333D01*
X85138095Y-88442857D01*
X85185714Y-88347619D01*
X85233333Y-88300000D01*
X85328571Y-88252380D01*
X87437142Y-122442857D02*
X87484761Y-122490476D01*
X87532380Y-122633333D01*
X87532380Y-122728571D01*
X87484761Y-122871428D01*
X87389523Y-122966666D01*
X87294285Y-123014285D01*
X87103809Y-123061904D01*
X86960952Y-123061904D01*
X86770476Y-123014285D01*
X86675238Y-122966666D01*
X86580000Y-122871428D01*
X86532380Y-122728571D01*
X86532380Y-122633333D01*
X86580000Y-122490476D01*
X86627619Y-122442857D01*
X87532380Y-121490476D02*
X87532380Y-122061904D01*
X87532380Y-121776190D02*
X86532380Y-121776190D01*
X86675238Y-121871428D01*
X86770476Y-121966666D01*
X86818095Y-122061904D01*
X87532380Y-120538095D02*
X87532380Y-121109523D01*
X87532380Y-120823809D02*
X86532380Y-120823809D01*
X86675238Y-120919047D01*
X86770476Y-121014285D01*
X86818095Y-121109523D01*
X87137142Y-135442857D02*
X87184761Y-135490476D01*
X87232380Y-135633333D01*
X87232380Y-135728571D01*
X87184761Y-135871428D01*
X87089523Y-135966666D01*
X86994285Y-136014285D01*
X86803809Y-136061904D01*
X86660952Y-136061904D01*
X86470476Y-136014285D01*
X86375238Y-135966666D01*
X86280000Y-135871428D01*
X86232380Y-135728571D01*
X86232380Y-135633333D01*
X86280000Y-135490476D01*
X86327619Y-135442857D01*
X87232380Y-134490476D02*
X87232380Y-135061904D01*
X87232380Y-134776190D02*
X86232380Y-134776190D01*
X86375238Y-134871428D01*
X86470476Y-134966666D01*
X86518095Y-135061904D01*
X86327619Y-134109523D02*
X86280000Y-134061904D01*
X86232380Y-133966666D01*
X86232380Y-133728571D01*
X86280000Y-133633333D01*
X86327619Y-133585714D01*
X86422857Y-133538095D01*
X86518095Y-133538095D01*
X86660952Y-133585714D01*
X87232380Y-134157142D01*
X87232380Y-133538095D01*
X117257142Y-116887142D02*
X117209523Y-116934761D01*
X117066666Y-116982380D01*
X116971428Y-116982380D01*
X116828571Y-116934761D01*
X116733333Y-116839523D01*
X116685714Y-116744285D01*
X116638095Y-116553809D01*
X116638095Y-116410952D01*
X116685714Y-116220476D01*
X116733333Y-116125238D01*
X116828571Y-116030000D01*
X116971428Y-115982380D01*
X117066666Y-115982380D01*
X117209523Y-116030000D01*
X117257142Y-116077619D01*
X118209523Y-116982380D02*
X117638095Y-116982380D01*
X117923809Y-116982380D02*
X117923809Y-115982380D01*
X117828571Y-116125238D01*
X117733333Y-116220476D01*
X117638095Y-116268095D01*
X118542857Y-115982380D02*
X119161904Y-115982380D01*
X118828571Y-116363333D01*
X118971428Y-116363333D01*
X119066666Y-116410952D01*
X119114285Y-116458571D01*
X119161904Y-116553809D01*
X119161904Y-116791904D01*
X119114285Y-116887142D01*
X119066666Y-116934761D01*
X118971428Y-116982380D01*
X118685714Y-116982380D01*
X118590476Y-116934761D01*
X118542857Y-116887142D01*
X136357142Y-116887142D02*
X136309523Y-116934761D01*
X136166666Y-116982380D01*
X136071428Y-116982380D01*
X135928571Y-116934761D01*
X135833333Y-116839523D01*
X135785714Y-116744285D01*
X135738095Y-116553809D01*
X135738095Y-116410952D01*
X135785714Y-116220476D01*
X135833333Y-116125238D01*
X135928571Y-116030000D01*
X136071428Y-115982380D01*
X136166666Y-115982380D01*
X136309523Y-116030000D01*
X136357142Y-116077619D01*
X137309523Y-116982380D02*
X136738095Y-116982380D01*
X137023809Y-116982380D02*
X137023809Y-115982380D01*
X136928571Y-116125238D01*
X136833333Y-116220476D01*
X136738095Y-116268095D01*
X138166666Y-116315714D02*
X138166666Y-116982380D01*
X137928571Y-115934761D02*
X137690476Y-116649047D01*
X138309523Y-116649047D01*
X142177142Y-111442857D02*
X142224761Y-111490476D01*
X142272380Y-111633333D01*
X142272380Y-111728571D01*
X142224761Y-111871428D01*
X142129523Y-111966666D01*
X142034285Y-112014285D01*
X141843809Y-112061904D01*
X141700952Y-112061904D01*
X141510476Y-112014285D01*
X141415238Y-111966666D01*
X141320000Y-111871428D01*
X141272380Y-111728571D01*
X141272380Y-111633333D01*
X141320000Y-111490476D01*
X141367619Y-111442857D01*
X142272380Y-110490476D02*
X142272380Y-111061904D01*
X142272380Y-110776190D02*
X141272380Y-110776190D01*
X141415238Y-110871428D01*
X141510476Y-110966666D01*
X141558095Y-111061904D01*
X141272380Y-109585714D02*
X141272380Y-110061904D01*
X141748571Y-110109523D01*
X141700952Y-110061904D01*
X141653333Y-109966666D01*
X141653333Y-109728571D01*
X141700952Y-109633333D01*
X141748571Y-109585714D01*
X141843809Y-109538095D01*
X142081904Y-109538095D01*
X142177142Y-109585714D01*
X142224761Y-109633333D01*
X142272380Y-109728571D01*
X142272380Y-109966666D01*
X142224761Y-110061904D01*
X142177142Y-110109523D01*
X193527142Y-120442857D02*
X193574761Y-120490476D01*
X193622380Y-120633333D01*
X193622380Y-120728571D01*
X193574761Y-120871428D01*
X193479523Y-120966666D01*
X193384285Y-121014285D01*
X193193809Y-121061904D01*
X193050952Y-121061904D01*
X192860476Y-121014285D01*
X192765238Y-120966666D01*
X192670000Y-120871428D01*
X192622380Y-120728571D01*
X192622380Y-120633333D01*
X192670000Y-120490476D01*
X192717619Y-120442857D01*
X193622380Y-119490476D02*
X193622380Y-120061904D01*
X193622380Y-119776190D02*
X192622380Y-119776190D01*
X192765238Y-119871428D01*
X192860476Y-119966666D01*
X192908095Y-120061904D01*
X192622380Y-118633333D02*
X192622380Y-118823809D01*
X192670000Y-118919047D01*
X192717619Y-118966666D01*
X192860476Y-119061904D01*
X193050952Y-119109523D01*
X193431904Y-119109523D01*
X193527142Y-119061904D01*
X193574761Y-119014285D01*
X193622380Y-118919047D01*
X193622380Y-118728571D01*
X193574761Y-118633333D01*
X193527142Y-118585714D01*
X193431904Y-118538095D01*
X193193809Y-118538095D01*
X193098571Y-118585714D01*
X193050952Y-118633333D01*
X193003333Y-118728571D01*
X193003333Y-118919047D01*
X193050952Y-119014285D01*
X193098571Y-119061904D01*
X193193809Y-119109523D01*
X149037142Y-110442857D02*
X149084761Y-110490476D01*
X149132380Y-110633333D01*
X149132380Y-110728571D01*
X149084761Y-110871428D01*
X148989523Y-110966666D01*
X148894285Y-111014285D01*
X148703809Y-111061904D01*
X148560952Y-111061904D01*
X148370476Y-111014285D01*
X148275238Y-110966666D01*
X148180000Y-110871428D01*
X148132380Y-110728571D01*
X148132380Y-110633333D01*
X148180000Y-110490476D01*
X148227619Y-110442857D01*
X149132380Y-109490476D02*
X149132380Y-110061904D01*
X149132380Y-109776190D02*
X148132380Y-109776190D01*
X148275238Y-109871428D01*
X148370476Y-109966666D01*
X148418095Y-110061904D01*
X148132380Y-109157142D02*
X148132380Y-108490476D01*
X149132380Y-108919047D01*
X152207142Y-104842857D02*
X152254761Y-104890476D01*
X152302380Y-105033333D01*
X152302380Y-105128571D01*
X152254761Y-105271428D01*
X152159523Y-105366666D01*
X152064285Y-105414285D01*
X151873809Y-105461904D01*
X151730952Y-105461904D01*
X151540476Y-105414285D01*
X151445238Y-105366666D01*
X151350000Y-105271428D01*
X151302380Y-105128571D01*
X151302380Y-105033333D01*
X151350000Y-104890476D01*
X151397619Y-104842857D01*
X152302380Y-103890476D02*
X152302380Y-104461904D01*
X152302380Y-104176190D02*
X151302380Y-104176190D01*
X151445238Y-104271428D01*
X151540476Y-104366666D01*
X151588095Y-104461904D01*
X151730952Y-103319047D02*
X151683333Y-103414285D01*
X151635714Y-103461904D01*
X151540476Y-103509523D01*
X151492857Y-103509523D01*
X151397619Y-103461904D01*
X151350000Y-103414285D01*
X151302380Y-103319047D01*
X151302380Y-103128571D01*
X151350000Y-103033333D01*
X151397619Y-102985714D01*
X151492857Y-102938095D01*
X151540476Y-102938095D01*
X151635714Y-102985714D01*
X151683333Y-103033333D01*
X151730952Y-103128571D01*
X151730952Y-103319047D01*
X151778571Y-103414285D01*
X151826190Y-103461904D01*
X151921428Y-103509523D01*
X152111904Y-103509523D01*
X152207142Y-103461904D01*
X152254761Y-103414285D01*
X152302380Y-103319047D01*
X152302380Y-103128571D01*
X152254761Y-103033333D01*
X152207142Y-102985714D01*
X152111904Y-102938095D01*
X151921428Y-102938095D01*
X151826190Y-102985714D01*
X151778571Y-103033333D01*
X151730952Y-103128571D01*
X147657142Y-117707142D02*
X147609523Y-117754761D01*
X147466666Y-117802380D01*
X147371428Y-117802380D01*
X147228571Y-117754761D01*
X147133333Y-117659523D01*
X147085714Y-117564285D01*
X147038095Y-117373809D01*
X147038095Y-117230952D01*
X147085714Y-117040476D01*
X147133333Y-116945238D01*
X147228571Y-116850000D01*
X147371428Y-116802380D01*
X147466666Y-116802380D01*
X147609523Y-116850000D01*
X147657142Y-116897619D01*
X148609523Y-117802380D02*
X148038095Y-117802380D01*
X148323809Y-117802380D02*
X148323809Y-116802380D01*
X148228571Y-116945238D01*
X148133333Y-117040476D01*
X148038095Y-117088095D01*
X149085714Y-117802380D02*
X149276190Y-117802380D01*
X149371428Y-117754761D01*
X149419047Y-117707142D01*
X149514285Y-117564285D01*
X149561904Y-117373809D01*
X149561904Y-116992857D01*
X149514285Y-116897619D01*
X149466666Y-116850000D01*
X149371428Y-116802380D01*
X149180952Y-116802380D01*
X149085714Y-116850000D01*
X149038095Y-116897619D01*
X148990476Y-116992857D01*
X148990476Y-117230952D01*
X149038095Y-117326190D01*
X149085714Y-117373809D01*
X149180952Y-117421428D01*
X149371428Y-117421428D01*
X149466666Y-117373809D01*
X149514285Y-117326190D01*
X149561904Y-117230952D01*
X159357142Y-108842857D02*
X159404761Y-108890476D01*
X159452380Y-109033333D01*
X159452380Y-109128571D01*
X159404761Y-109271428D01*
X159309523Y-109366666D01*
X159214285Y-109414285D01*
X159023809Y-109461904D01*
X158880952Y-109461904D01*
X158690476Y-109414285D01*
X158595238Y-109366666D01*
X158500000Y-109271428D01*
X158452380Y-109128571D01*
X158452380Y-109033333D01*
X158500000Y-108890476D01*
X158547619Y-108842857D01*
X158547619Y-108461904D02*
X158500000Y-108414285D01*
X158452380Y-108319047D01*
X158452380Y-108080952D01*
X158500000Y-107985714D01*
X158547619Y-107938095D01*
X158642857Y-107890476D01*
X158738095Y-107890476D01*
X158880952Y-107938095D01*
X159452380Y-108509523D01*
X159452380Y-107890476D01*
X158452380Y-107271428D02*
X158452380Y-107176190D01*
X158500000Y-107080952D01*
X158547619Y-107033333D01*
X158642857Y-106985714D01*
X158833333Y-106938095D01*
X159071428Y-106938095D01*
X159261904Y-106985714D01*
X159357142Y-107033333D01*
X159404761Y-107080952D01*
X159452380Y-107176190D01*
X159452380Y-107271428D01*
X159404761Y-107366666D01*
X159357142Y-107414285D01*
X159261904Y-107461904D01*
X159071428Y-107509523D01*
X158833333Y-107509523D01*
X158642857Y-107461904D01*
X158547619Y-107414285D01*
X158500000Y-107366666D01*
X158452380Y-107271428D01*
X155457142Y-117707142D02*
X155409523Y-117754761D01*
X155266666Y-117802380D01*
X155171428Y-117802380D01*
X155028571Y-117754761D01*
X154933333Y-117659523D01*
X154885714Y-117564285D01*
X154838095Y-117373809D01*
X154838095Y-117230952D01*
X154885714Y-117040476D01*
X154933333Y-116945238D01*
X155028571Y-116850000D01*
X155171428Y-116802380D01*
X155266666Y-116802380D01*
X155409523Y-116850000D01*
X155457142Y-116897619D01*
X155838095Y-116897619D02*
X155885714Y-116850000D01*
X155980952Y-116802380D01*
X156219047Y-116802380D01*
X156314285Y-116850000D01*
X156361904Y-116897619D01*
X156409523Y-116992857D01*
X156409523Y-117088095D01*
X156361904Y-117230952D01*
X155790476Y-117802380D01*
X156409523Y-117802380D01*
X157361904Y-117802380D02*
X156790476Y-117802380D01*
X157076190Y-117802380D02*
X157076190Y-116802380D01*
X156980952Y-116945238D01*
X156885714Y-117040476D01*
X156790476Y-117088095D01*
X164457142Y-115257142D02*
X164409523Y-115304761D01*
X164266666Y-115352380D01*
X164171428Y-115352380D01*
X164028571Y-115304761D01*
X163933333Y-115209523D01*
X163885714Y-115114285D01*
X163838095Y-114923809D01*
X163838095Y-114780952D01*
X163885714Y-114590476D01*
X163933333Y-114495238D01*
X164028571Y-114400000D01*
X164171428Y-114352380D01*
X164266666Y-114352380D01*
X164409523Y-114400000D01*
X164457142Y-114447619D01*
X164838095Y-114447619D02*
X164885714Y-114400000D01*
X164980952Y-114352380D01*
X165219047Y-114352380D01*
X165314285Y-114400000D01*
X165361904Y-114447619D01*
X165409523Y-114542857D01*
X165409523Y-114638095D01*
X165361904Y-114780952D01*
X164790476Y-115352380D01*
X165409523Y-115352380D01*
X165790476Y-114447619D02*
X165838095Y-114400000D01*
X165933333Y-114352380D01*
X166171428Y-114352380D01*
X166266666Y-114400000D01*
X166314285Y-114447619D01*
X166361904Y-114542857D01*
X166361904Y-114638095D01*
X166314285Y-114780952D01*
X165742857Y-115352380D01*
X166361904Y-115352380D01*
X171957142Y-105457142D02*
X171909523Y-105504761D01*
X171766666Y-105552380D01*
X171671428Y-105552380D01*
X171528571Y-105504761D01*
X171433333Y-105409523D01*
X171385714Y-105314285D01*
X171338095Y-105123809D01*
X171338095Y-104980952D01*
X171385714Y-104790476D01*
X171433333Y-104695238D01*
X171528571Y-104600000D01*
X171671428Y-104552380D01*
X171766666Y-104552380D01*
X171909523Y-104600000D01*
X171957142Y-104647619D01*
X172338095Y-104647619D02*
X172385714Y-104600000D01*
X172480952Y-104552380D01*
X172719047Y-104552380D01*
X172814285Y-104600000D01*
X172861904Y-104647619D01*
X172909523Y-104742857D01*
X172909523Y-104838095D01*
X172861904Y-104980952D01*
X172290476Y-105552380D01*
X172909523Y-105552380D01*
X173242857Y-104552380D02*
X173861904Y-104552380D01*
X173528571Y-104933333D01*
X173671428Y-104933333D01*
X173766666Y-104980952D01*
X173814285Y-105028571D01*
X173861904Y-105123809D01*
X173861904Y-105361904D01*
X173814285Y-105457142D01*
X173766666Y-105504761D01*
X173671428Y-105552380D01*
X173385714Y-105552380D01*
X173290476Y-105504761D01*
X173242857Y-105457142D01*
X151307142Y-119542857D02*
X151354761Y-119590476D01*
X151402380Y-119733333D01*
X151402380Y-119828571D01*
X151354761Y-119971428D01*
X151259523Y-120066666D01*
X151164285Y-120114285D01*
X150973809Y-120161904D01*
X150830952Y-120161904D01*
X150640476Y-120114285D01*
X150545238Y-120066666D01*
X150450000Y-119971428D01*
X150402380Y-119828571D01*
X150402380Y-119733333D01*
X150450000Y-119590476D01*
X150497619Y-119542857D01*
X150497619Y-119161904D02*
X150450000Y-119114285D01*
X150402380Y-119019047D01*
X150402380Y-118780952D01*
X150450000Y-118685714D01*
X150497619Y-118638095D01*
X150592857Y-118590476D01*
X150688095Y-118590476D01*
X150830952Y-118638095D01*
X151402380Y-119209523D01*
X151402380Y-118590476D01*
X150402380Y-117685714D02*
X150402380Y-118161904D01*
X150878571Y-118209523D01*
X150830952Y-118161904D01*
X150783333Y-118066666D01*
X150783333Y-117828571D01*
X150830952Y-117733333D01*
X150878571Y-117685714D01*
X150973809Y-117638095D01*
X151211904Y-117638095D01*
X151307142Y-117685714D01*
X151354761Y-117733333D01*
X151402380Y-117828571D01*
X151402380Y-118066666D01*
X151354761Y-118161904D01*
X151307142Y-118209523D01*
X190257142Y-120642857D02*
X190304761Y-120690476D01*
X190352380Y-120833333D01*
X190352380Y-120928571D01*
X190304761Y-121071428D01*
X190209523Y-121166666D01*
X190114285Y-121214285D01*
X189923809Y-121261904D01*
X189780952Y-121261904D01*
X189590476Y-121214285D01*
X189495238Y-121166666D01*
X189400000Y-121071428D01*
X189352380Y-120928571D01*
X189352380Y-120833333D01*
X189400000Y-120690476D01*
X189447619Y-120642857D01*
X189447619Y-120261904D02*
X189400000Y-120214285D01*
X189352380Y-120119047D01*
X189352380Y-119880952D01*
X189400000Y-119785714D01*
X189447619Y-119738095D01*
X189542857Y-119690476D01*
X189638095Y-119690476D01*
X189780952Y-119738095D01*
X190352380Y-120309523D01*
X190352380Y-119690476D01*
X190352380Y-119214285D02*
X190352380Y-119023809D01*
X190304761Y-118928571D01*
X190257142Y-118880952D01*
X190114285Y-118785714D01*
X189923809Y-118738095D01*
X189542857Y-118738095D01*
X189447619Y-118785714D01*
X189400000Y-118833333D01*
X189352380Y-118928571D01*
X189352380Y-119119047D01*
X189400000Y-119214285D01*
X189447619Y-119261904D01*
X189542857Y-119309523D01*
X189780952Y-119309523D01*
X189876190Y-119261904D01*
X189923809Y-119214285D01*
X189971428Y-119119047D01*
X189971428Y-118928571D01*
X189923809Y-118833333D01*
X189876190Y-118785714D01*
X189780952Y-118738095D01*
X194969642Y-130557142D02*
X194922023Y-130604761D01*
X194779166Y-130652380D01*
X194683928Y-130652380D01*
X194541071Y-130604761D01*
X194445833Y-130509523D01*
X194398214Y-130414285D01*
X194350595Y-130223809D01*
X194350595Y-130080952D01*
X194398214Y-129890476D01*
X194445833Y-129795238D01*
X194541071Y-129700000D01*
X194683928Y-129652380D01*
X194779166Y-129652380D01*
X194922023Y-129700000D01*
X194969642Y-129747619D01*
X195302976Y-129652380D02*
X195922023Y-129652380D01*
X195588690Y-130033333D01*
X195731547Y-130033333D01*
X195826785Y-130080952D01*
X195874404Y-130128571D01*
X195922023Y-130223809D01*
X195922023Y-130461904D01*
X195874404Y-130557142D01*
X195826785Y-130604761D01*
X195731547Y-130652380D01*
X195445833Y-130652380D01*
X195350595Y-130604761D01*
X195302976Y-130557142D01*
X196541071Y-129652380D02*
X196636309Y-129652380D01*
X196731547Y-129700000D01*
X196779166Y-129747619D01*
X196826785Y-129842857D01*
X196874404Y-130033333D01*
X196874404Y-130271428D01*
X196826785Y-130461904D01*
X196779166Y-130557142D01*
X196731547Y-130604761D01*
X196636309Y-130652380D01*
X196541071Y-130652380D01*
X196445833Y-130604761D01*
X196398214Y-130557142D01*
X196350595Y-130461904D01*
X196302976Y-130271428D01*
X196302976Y-130033333D01*
X196350595Y-129842857D01*
X196398214Y-129747619D01*
X196445833Y-129700000D01*
X196541071Y-129652380D01*
X148057142Y-128357142D02*
X148009523Y-128404761D01*
X147866666Y-128452380D01*
X147771428Y-128452380D01*
X147628571Y-128404761D01*
X147533333Y-128309523D01*
X147485714Y-128214285D01*
X147438095Y-128023809D01*
X147438095Y-127880952D01*
X147485714Y-127690476D01*
X147533333Y-127595238D01*
X147628571Y-127500000D01*
X147771428Y-127452380D01*
X147866666Y-127452380D01*
X148009523Y-127500000D01*
X148057142Y-127547619D01*
X148390476Y-127452380D02*
X149009523Y-127452380D01*
X148676190Y-127833333D01*
X148819047Y-127833333D01*
X148914285Y-127880952D01*
X148961904Y-127928571D01*
X149009523Y-128023809D01*
X149009523Y-128261904D01*
X148961904Y-128357142D01*
X148914285Y-128404761D01*
X148819047Y-128452380D01*
X148533333Y-128452380D01*
X148438095Y-128404761D01*
X148390476Y-128357142D01*
X149390476Y-127547619D02*
X149438095Y-127500000D01*
X149533333Y-127452380D01*
X149771428Y-127452380D01*
X149866666Y-127500000D01*
X149914285Y-127547619D01*
X149961904Y-127642857D01*
X149961904Y-127738095D01*
X149914285Y-127880952D01*
X149342857Y-128452380D01*
X149961904Y-128452380D01*
X154047142Y-143442857D02*
X154094761Y-143490476D01*
X154142380Y-143633333D01*
X154142380Y-143728571D01*
X154094761Y-143871428D01*
X153999523Y-143966666D01*
X153904285Y-144014285D01*
X153713809Y-144061904D01*
X153570952Y-144061904D01*
X153380476Y-144014285D01*
X153285238Y-143966666D01*
X153190000Y-143871428D01*
X153142380Y-143728571D01*
X153142380Y-143633333D01*
X153190000Y-143490476D01*
X153237619Y-143442857D01*
X153142380Y-143109523D02*
X153142380Y-142490476D01*
X153523333Y-142823809D01*
X153523333Y-142680952D01*
X153570952Y-142585714D01*
X153618571Y-142538095D01*
X153713809Y-142490476D01*
X153951904Y-142490476D01*
X154047142Y-142538095D01*
X154094761Y-142585714D01*
X154142380Y-142680952D01*
X154142380Y-142966666D01*
X154094761Y-143061904D01*
X154047142Y-143109523D01*
X153142380Y-142157142D02*
X153142380Y-141538095D01*
X153523333Y-141871428D01*
X153523333Y-141728571D01*
X153570952Y-141633333D01*
X153618571Y-141585714D01*
X153713809Y-141538095D01*
X153951904Y-141538095D01*
X154047142Y-141585714D01*
X154094761Y-141633333D01*
X154142380Y-141728571D01*
X154142380Y-142014285D01*
X154094761Y-142109523D01*
X154047142Y-142157142D01*
X149557142Y-139027142D02*
X149509523Y-139074761D01*
X149366666Y-139122380D01*
X149271428Y-139122380D01*
X149128571Y-139074761D01*
X149033333Y-138979523D01*
X148985714Y-138884285D01*
X148938095Y-138693809D01*
X148938095Y-138550952D01*
X148985714Y-138360476D01*
X149033333Y-138265238D01*
X149128571Y-138170000D01*
X149271428Y-138122380D01*
X149366666Y-138122380D01*
X149509523Y-138170000D01*
X149557142Y-138217619D01*
X149890476Y-138122380D02*
X150509523Y-138122380D01*
X150176190Y-138503333D01*
X150319047Y-138503333D01*
X150414285Y-138550952D01*
X150461904Y-138598571D01*
X150509523Y-138693809D01*
X150509523Y-138931904D01*
X150461904Y-139027142D01*
X150414285Y-139074761D01*
X150319047Y-139122380D01*
X150033333Y-139122380D01*
X149938095Y-139074761D01*
X149890476Y-139027142D01*
X151366666Y-138455714D02*
X151366666Y-139122380D01*
X151128571Y-138074761D02*
X150890476Y-138789047D01*
X151509523Y-138789047D01*
X133847142Y-143442857D02*
X133894761Y-143490476D01*
X133942380Y-143633333D01*
X133942380Y-143728571D01*
X133894761Y-143871428D01*
X133799523Y-143966666D01*
X133704285Y-144014285D01*
X133513809Y-144061904D01*
X133370952Y-144061904D01*
X133180476Y-144014285D01*
X133085238Y-143966666D01*
X132990000Y-143871428D01*
X132942380Y-143728571D01*
X132942380Y-143633333D01*
X132990000Y-143490476D01*
X133037619Y-143442857D01*
X132942380Y-143109523D02*
X132942380Y-142490476D01*
X133323333Y-142823809D01*
X133323333Y-142680952D01*
X133370952Y-142585714D01*
X133418571Y-142538095D01*
X133513809Y-142490476D01*
X133751904Y-142490476D01*
X133847142Y-142538095D01*
X133894761Y-142585714D01*
X133942380Y-142680952D01*
X133942380Y-142966666D01*
X133894761Y-143061904D01*
X133847142Y-143109523D01*
X132942380Y-142157142D02*
X132942380Y-141490476D01*
X133942380Y-141919047D01*
X144657142Y-139027142D02*
X144609523Y-139074761D01*
X144466666Y-139122380D01*
X144371428Y-139122380D01*
X144228571Y-139074761D01*
X144133333Y-138979523D01*
X144085714Y-138884285D01*
X144038095Y-138693809D01*
X144038095Y-138550952D01*
X144085714Y-138360476D01*
X144133333Y-138265238D01*
X144228571Y-138170000D01*
X144371428Y-138122380D01*
X144466666Y-138122380D01*
X144609523Y-138170000D01*
X144657142Y-138217619D01*
X144990476Y-138122380D02*
X145609523Y-138122380D01*
X145276190Y-138503333D01*
X145419047Y-138503333D01*
X145514285Y-138550952D01*
X145561904Y-138598571D01*
X145609523Y-138693809D01*
X145609523Y-138931904D01*
X145561904Y-139027142D01*
X145514285Y-139074761D01*
X145419047Y-139122380D01*
X145133333Y-139122380D01*
X145038095Y-139074761D01*
X144990476Y-139027142D01*
X146180952Y-138550952D02*
X146085714Y-138503333D01*
X146038095Y-138455714D01*
X145990476Y-138360476D01*
X145990476Y-138312857D01*
X146038095Y-138217619D01*
X146085714Y-138170000D01*
X146180952Y-138122380D01*
X146371428Y-138122380D01*
X146466666Y-138170000D01*
X146514285Y-138217619D01*
X146561904Y-138312857D01*
X146561904Y-138360476D01*
X146514285Y-138455714D01*
X146466666Y-138503333D01*
X146371428Y-138550952D01*
X146180952Y-138550952D01*
X146085714Y-138598571D01*
X146038095Y-138646190D01*
X145990476Y-138741428D01*
X145990476Y-138931904D01*
X146038095Y-139027142D01*
X146085714Y-139074761D01*
X146180952Y-139122380D01*
X146371428Y-139122380D01*
X146466666Y-139074761D01*
X146514285Y-139027142D01*
X146561904Y-138931904D01*
X146561904Y-138741428D01*
X146514285Y-138646190D01*
X146466666Y-138598571D01*
X146371428Y-138550952D01*
X114047142Y-143442857D02*
X114094761Y-143490476D01*
X114142380Y-143633333D01*
X114142380Y-143728571D01*
X114094761Y-143871428D01*
X113999523Y-143966666D01*
X113904285Y-144014285D01*
X113713809Y-144061904D01*
X113570952Y-144061904D01*
X113380476Y-144014285D01*
X113285238Y-143966666D01*
X113190000Y-143871428D01*
X113142380Y-143728571D01*
X113142380Y-143633333D01*
X113190000Y-143490476D01*
X113237619Y-143442857D01*
X113475714Y-142585714D02*
X114142380Y-142585714D01*
X113094761Y-142823809D02*
X113809047Y-143061904D01*
X113809047Y-142442857D01*
X113142380Y-141871428D02*
X113142380Y-141776190D01*
X113190000Y-141680952D01*
X113237619Y-141633333D01*
X113332857Y-141585714D01*
X113523333Y-141538095D01*
X113761428Y-141538095D01*
X113951904Y-141585714D01*
X114047142Y-141633333D01*
X114094761Y-141680952D01*
X114142380Y-141776190D01*
X114142380Y-141871428D01*
X114094761Y-141966666D01*
X114047142Y-142014285D01*
X113951904Y-142061904D01*
X113761428Y-142109523D01*
X113523333Y-142109523D01*
X113332857Y-142061904D01*
X113237619Y-142014285D01*
X113190000Y-141966666D01*
X113142380Y-141871428D01*
X124457142Y-139027142D02*
X124409523Y-139074761D01*
X124266666Y-139122380D01*
X124171428Y-139122380D01*
X124028571Y-139074761D01*
X123933333Y-138979523D01*
X123885714Y-138884285D01*
X123838095Y-138693809D01*
X123838095Y-138550952D01*
X123885714Y-138360476D01*
X123933333Y-138265238D01*
X124028571Y-138170000D01*
X124171428Y-138122380D01*
X124266666Y-138122380D01*
X124409523Y-138170000D01*
X124457142Y-138217619D01*
X125314285Y-138455714D02*
X125314285Y-139122380D01*
X125076190Y-138074761D02*
X124838095Y-138789047D01*
X125457142Y-138789047D01*
X125790476Y-138217619D02*
X125838095Y-138170000D01*
X125933333Y-138122380D01*
X126171428Y-138122380D01*
X126266666Y-138170000D01*
X126314285Y-138217619D01*
X126361904Y-138312857D01*
X126361904Y-138408095D01*
X126314285Y-138550952D01*
X125742857Y-139122380D01*
X126361904Y-139122380D01*
X89069642Y-69827142D02*
X89022023Y-69874761D01*
X88879166Y-69922380D01*
X88783928Y-69922380D01*
X88641071Y-69874761D01*
X88545833Y-69779523D01*
X88498214Y-69684285D01*
X88450595Y-69493809D01*
X88450595Y-69350952D01*
X88498214Y-69160476D01*
X88545833Y-69065238D01*
X88641071Y-68970000D01*
X88783928Y-68922380D01*
X88879166Y-68922380D01*
X89022023Y-68970000D01*
X89069642Y-69017619D01*
X89402976Y-68922380D02*
X90022023Y-68922380D01*
X89688690Y-69303333D01*
X89831547Y-69303333D01*
X89926785Y-69350952D01*
X89974404Y-69398571D01*
X90022023Y-69493809D01*
X90022023Y-69731904D01*
X89974404Y-69827142D01*
X89926785Y-69874761D01*
X89831547Y-69922380D01*
X89545833Y-69922380D01*
X89450595Y-69874761D01*
X89402976Y-69827142D01*
X90879166Y-68922380D02*
X90688690Y-68922380D01*
X90593452Y-68970000D01*
X90545833Y-69017619D01*
X90450595Y-69160476D01*
X90402976Y-69350952D01*
X90402976Y-69731904D01*
X90450595Y-69827142D01*
X90498214Y-69874761D01*
X90593452Y-69922380D01*
X90783928Y-69922380D01*
X90879166Y-69874761D01*
X90926785Y-69827142D01*
X90974404Y-69731904D01*
X90974404Y-69493809D01*
X90926785Y-69398571D01*
X90879166Y-69350952D01*
X90783928Y-69303333D01*
X90593452Y-69303333D01*
X90498214Y-69350952D01*
X90450595Y-69398571D01*
X90402976Y-69493809D01*
X83257142Y-81357142D02*
X83209523Y-81404761D01*
X83066666Y-81452380D01*
X82971428Y-81452380D01*
X82828571Y-81404761D01*
X82733333Y-81309523D01*
X82685714Y-81214285D01*
X82638095Y-81023809D01*
X82638095Y-80880952D01*
X82685714Y-80690476D01*
X82733333Y-80595238D01*
X82828571Y-80500000D01*
X82971428Y-80452380D01*
X83066666Y-80452380D01*
X83209523Y-80500000D01*
X83257142Y-80547619D01*
X83590476Y-80452380D02*
X84209523Y-80452380D01*
X83876190Y-80833333D01*
X84019047Y-80833333D01*
X84114285Y-80880952D01*
X84161904Y-80928571D01*
X84209523Y-81023809D01*
X84209523Y-81261904D01*
X84161904Y-81357142D01*
X84114285Y-81404761D01*
X84019047Y-81452380D01*
X83733333Y-81452380D01*
X83638095Y-81404761D01*
X83590476Y-81357142D01*
X84685714Y-81452380D02*
X84876190Y-81452380D01*
X84971428Y-81404761D01*
X85019047Y-81357142D01*
X85114285Y-81214285D01*
X85161904Y-81023809D01*
X85161904Y-80642857D01*
X85114285Y-80547619D01*
X85066666Y-80500000D01*
X84971428Y-80452380D01*
X84780952Y-80452380D01*
X84685714Y-80500000D01*
X84638095Y-80547619D01*
X84590476Y-80642857D01*
X84590476Y-80880952D01*
X84638095Y-80976190D01*
X84685714Y-81023809D01*
X84780952Y-81071428D01*
X84971428Y-81071428D01*
X85066666Y-81023809D01*
X85114285Y-80976190D01*
X85161904Y-80880952D01*
X89757142Y-82827142D02*
X89709523Y-82874761D01*
X89566666Y-82922380D01*
X89471428Y-82922380D01*
X89328571Y-82874761D01*
X89233333Y-82779523D01*
X89185714Y-82684285D01*
X89138095Y-82493809D01*
X89138095Y-82350952D01*
X89185714Y-82160476D01*
X89233333Y-82065238D01*
X89328571Y-81970000D01*
X89471428Y-81922380D01*
X89566666Y-81922380D01*
X89709523Y-81970000D01*
X89757142Y-82017619D01*
X90614285Y-82255714D02*
X90614285Y-82922380D01*
X90376190Y-81874761D02*
X90138095Y-82589047D01*
X90757142Y-82589047D01*
X91661904Y-82922380D02*
X91090476Y-82922380D01*
X91376190Y-82922380D02*
X91376190Y-81922380D01*
X91280952Y-82065238D01*
X91185714Y-82160476D01*
X91090476Y-82208095D01*
X203052380Y-120438095D02*
X202052380Y-120438095D01*
X202052380Y-120200000D01*
X202100000Y-120057142D01*
X202195238Y-119961904D01*
X202290476Y-119914285D01*
X202480952Y-119866666D01*
X202623809Y-119866666D01*
X202814285Y-119914285D01*
X202909523Y-119961904D01*
X203004761Y-120057142D01*
X203052380Y-120200000D01*
X203052380Y-120438095D01*
X203052380Y-118914285D02*
X203052380Y-119485714D01*
X203052380Y-119200000D02*
X202052380Y-119200000D01*
X202195238Y-119295238D01*
X202290476Y-119390476D01*
X202338095Y-119485714D01*
X183461904Y-135652380D02*
X183461904Y-134652380D01*
X183700000Y-134652380D01*
X183842857Y-134700000D01*
X183938095Y-134795238D01*
X183985714Y-134890476D01*
X184033333Y-135080952D01*
X184033333Y-135223809D01*
X183985714Y-135414285D01*
X183938095Y-135509523D01*
X183842857Y-135604761D01*
X183700000Y-135652380D01*
X183461904Y-135652380D01*
X184414285Y-134747619D02*
X184461904Y-134700000D01*
X184557142Y-134652380D01*
X184795238Y-134652380D01*
X184890476Y-134700000D01*
X184938095Y-134747619D01*
X184985714Y-134842857D01*
X184985714Y-134938095D01*
X184938095Y-135080952D01*
X184366666Y-135652380D01*
X184985714Y-135652380D01*
X110423809Y-120552380D02*
X110090476Y-120076190D01*
X109852380Y-120552380D02*
X109852380Y-119552380D01*
X110233333Y-119552380D01*
X110328571Y-119600000D01*
X110376190Y-119647619D01*
X110423809Y-119742857D01*
X110423809Y-119885714D01*
X110376190Y-119980952D01*
X110328571Y-120028571D01*
X110233333Y-120076190D01*
X109852380Y-120076190D01*
X111233333Y-120504761D02*
X111138095Y-120552380D01*
X110947619Y-120552380D01*
X110852380Y-120504761D01*
X110804761Y-120409523D01*
X110804761Y-120028571D01*
X110852380Y-119933333D01*
X110947619Y-119885714D01*
X111138095Y-119885714D01*
X111233333Y-119933333D01*
X111280952Y-120028571D01*
X111280952Y-120123809D01*
X110804761Y-120219047D01*
X111566666Y-119885714D02*
X111947619Y-119885714D01*
X111709523Y-120552380D02*
X111709523Y-119695238D01*
X111757142Y-119600000D01*
X111852380Y-119552380D01*
X111947619Y-119552380D01*
X112042857Y-120647619D02*
X112804761Y-120647619D01*
X113042857Y-120552380D02*
X113042857Y-119552380D01*
X113519047Y-119885714D02*
X113519047Y-120552380D01*
X113519047Y-119980952D02*
X113566666Y-119933333D01*
X113661904Y-119885714D01*
X113804761Y-119885714D01*
X113900000Y-119933333D01*
X113947619Y-120028571D01*
X113947619Y-120552380D01*
X82382380Y-126466666D02*
X81906190Y-126800000D01*
X82382380Y-127038095D02*
X81382380Y-127038095D01*
X81382380Y-126657142D01*
X81430000Y-126561904D01*
X81477619Y-126514285D01*
X81572857Y-126466666D01*
X81715714Y-126466666D01*
X81810952Y-126514285D01*
X81858571Y-126561904D01*
X81906190Y-126657142D01*
X81906190Y-127038095D01*
X82382380Y-125514285D02*
X82382380Y-126085714D01*
X82382380Y-125800000D02*
X81382380Y-125800000D01*
X81525238Y-125895238D01*
X81620476Y-125990476D01*
X81668095Y-126085714D01*
X82382380Y-139466666D02*
X81906190Y-139800000D01*
X82382380Y-140038095D02*
X81382380Y-140038095D01*
X81382380Y-139657142D01*
X81430000Y-139561904D01*
X81477619Y-139514285D01*
X81572857Y-139466666D01*
X81715714Y-139466666D01*
X81810952Y-139514285D01*
X81858571Y-139561904D01*
X81906190Y-139657142D01*
X81906190Y-140038095D01*
X81477619Y-139085714D02*
X81430000Y-139038095D01*
X81382380Y-138942857D01*
X81382380Y-138704761D01*
X81430000Y-138609523D01*
X81477619Y-138561904D01*
X81572857Y-138514285D01*
X81668095Y-138514285D01*
X81810952Y-138561904D01*
X82382380Y-139133333D01*
X82382380Y-138514285D01*
X123932380Y-116666666D02*
X123456190Y-117000000D01*
X123932380Y-117238095D02*
X122932380Y-117238095D01*
X122932380Y-116857142D01*
X122980000Y-116761904D01*
X123027619Y-116714285D01*
X123122857Y-116666666D01*
X123265714Y-116666666D01*
X123360952Y-116714285D01*
X123408571Y-116761904D01*
X123456190Y-116857142D01*
X123456190Y-117238095D01*
X122932380Y-116333333D02*
X122932380Y-115714285D01*
X123313333Y-116047619D01*
X123313333Y-115904761D01*
X123360952Y-115809523D01*
X123408571Y-115761904D01*
X123503809Y-115714285D01*
X123741904Y-115714285D01*
X123837142Y-115761904D01*
X123884761Y-115809523D01*
X123932380Y-115904761D01*
X123932380Y-116190476D01*
X123884761Y-116285714D01*
X123837142Y-116333333D01*
X207982380Y-114566666D02*
X207506190Y-114900000D01*
X207982380Y-115138095D02*
X206982380Y-115138095D01*
X206982380Y-114757142D01*
X207030000Y-114661904D01*
X207077619Y-114614285D01*
X207172857Y-114566666D01*
X207315714Y-114566666D01*
X207410952Y-114614285D01*
X207458571Y-114661904D01*
X207506190Y-114757142D01*
X207506190Y-115138095D01*
X206982380Y-113661904D02*
X206982380Y-114138095D01*
X207458571Y-114185714D01*
X207410952Y-114138095D01*
X207363333Y-114042857D01*
X207363333Y-113804761D01*
X207410952Y-113709523D01*
X207458571Y-113661904D01*
X207553809Y-113614285D01*
X207791904Y-113614285D01*
X207887142Y-113661904D01*
X207934761Y-113709523D01*
X207982380Y-113804761D01*
X207982380Y-114042857D01*
X207934761Y-114138095D01*
X207887142Y-114185714D01*
X198652380Y-120166666D02*
X198176190Y-120500000D01*
X198652380Y-120738095D02*
X197652380Y-120738095D01*
X197652380Y-120357142D01*
X197700000Y-120261904D01*
X197747619Y-120214285D01*
X197842857Y-120166666D01*
X197985714Y-120166666D01*
X198080952Y-120214285D01*
X198128571Y-120261904D01*
X198176190Y-120357142D01*
X198176190Y-120738095D01*
X197652380Y-119309523D02*
X197652380Y-119500000D01*
X197700000Y-119595238D01*
X197747619Y-119642857D01*
X197890476Y-119738095D01*
X198080952Y-119785714D01*
X198461904Y-119785714D01*
X198557142Y-119738095D01*
X198604761Y-119690476D01*
X198652380Y-119595238D01*
X198652380Y-119404761D01*
X198604761Y-119309523D01*
X198557142Y-119261904D01*
X198461904Y-119214285D01*
X198223809Y-119214285D01*
X198128571Y-119261904D01*
X198080952Y-119309523D01*
X198033333Y-119404761D01*
X198033333Y-119595238D01*
X198080952Y-119690476D01*
X198128571Y-119738095D01*
X198223809Y-119785714D01*
X153622380Y-110666666D02*
X153146190Y-111000000D01*
X153622380Y-111238095D02*
X152622380Y-111238095D01*
X152622380Y-110857142D01*
X152670000Y-110761904D01*
X152717619Y-110714285D01*
X152812857Y-110666666D01*
X152955714Y-110666666D01*
X153050952Y-110714285D01*
X153098571Y-110761904D01*
X153146190Y-110857142D01*
X153146190Y-111238095D01*
X152622380Y-110333333D02*
X152622380Y-109666666D01*
X153622380Y-110095238D01*
X157533333Y-113182380D02*
X157200000Y-112706190D01*
X156961904Y-113182380D02*
X156961904Y-112182380D01*
X157342857Y-112182380D01*
X157438095Y-112230000D01*
X157485714Y-112277619D01*
X157533333Y-112372857D01*
X157533333Y-112515714D01*
X157485714Y-112610952D01*
X157438095Y-112658571D01*
X157342857Y-112706190D01*
X156961904Y-112706190D01*
X158104761Y-112610952D02*
X158009523Y-112563333D01*
X157961904Y-112515714D01*
X157914285Y-112420476D01*
X157914285Y-112372857D01*
X157961904Y-112277619D01*
X158009523Y-112230000D01*
X158104761Y-112182380D01*
X158295238Y-112182380D01*
X158390476Y-112230000D01*
X158438095Y-112277619D01*
X158485714Y-112372857D01*
X158485714Y-112420476D01*
X158438095Y-112515714D01*
X158390476Y-112563333D01*
X158295238Y-112610952D01*
X158104761Y-112610952D01*
X158009523Y-112658571D01*
X157961904Y-112706190D01*
X157914285Y-112801428D01*
X157914285Y-112991904D01*
X157961904Y-113087142D01*
X158009523Y-113134761D01*
X158104761Y-113182380D01*
X158295238Y-113182380D01*
X158390476Y-113134761D01*
X158438095Y-113087142D01*
X158485714Y-112991904D01*
X158485714Y-112801428D01*
X158438095Y-112706190D01*
X158390476Y-112658571D01*
X158295238Y-112610952D01*
X175433333Y-115282380D02*
X175100000Y-114806190D01*
X174861904Y-115282380D02*
X174861904Y-114282380D01*
X175242857Y-114282380D01*
X175338095Y-114330000D01*
X175385714Y-114377619D01*
X175433333Y-114472857D01*
X175433333Y-114615714D01*
X175385714Y-114710952D01*
X175338095Y-114758571D01*
X175242857Y-114806190D01*
X174861904Y-114806190D01*
X175909523Y-115282380D02*
X176100000Y-115282380D01*
X176195238Y-115234761D01*
X176242857Y-115187142D01*
X176338095Y-115044285D01*
X176385714Y-114853809D01*
X176385714Y-114472857D01*
X176338095Y-114377619D01*
X176290476Y-114330000D01*
X176195238Y-114282380D01*
X176004761Y-114282380D01*
X175909523Y-114330000D01*
X175861904Y-114377619D01*
X175814285Y-114472857D01*
X175814285Y-114710952D01*
X175861904Y-114806190D01*
X175909523Y-114853809D01*
X176004761Y-114901428D01*
X176195238Y-114901428D01*
X176290476Y-114853809D01*
X176338095Y-114806190D01*
X176385714Y-114710952D01*
X148857142Y-113952380D02*
X148523809Y-113476190D01*
X148285714Y-113952380D02*
X148285714Y-112952380D01*
X148666666Y-112952380D01*
X148761904Y-113000000D01*
X148809523Y-113047619D01*
X148857142Y-113142857D01*
X148857142Y-113285714D01*
X148809523Y-113380952D01*
X148761904Y-113428571D01*
X148666666Y-113476190D01*
X148285714Y-113476190D01*
X149809523Y-113952380D02*
X149238095Y-113952380D01*
X149523809Y-113952380D02*
X149523809Y-112952380D01*
X149428571Y-113095238D01*
X149333333Y-113190476D01*
X149238095Y-113238095D01*
X150428571Y-112952380D02*
X150523809Y-112952380D01*
X150619047Y-113000000D01*
X150666666Y-113047619D01*
X150714285Y-113142857D01*
X150761904Y-113333333D01*
X150761904Y-113571428D01*
X150714285Y-113761904D01*
X150666666Y-113857142D01*
X150619047Y-113904761D01*
X150523809Y-113952380D01*
X150428571Y-113952380D01*
X150333333Y-113904761D01*
X150285714Y-113857142D01*
X150238095Y-113761904D01*
X150190476Y-113571428D01*
X150190476Y-113333333D01*
X150238095Y-113142857D01*
X150285714Y-113047619D01*
X150333333Y-113000000D01*
X150428571Y-112952380D01*
X167757142Y-104422380D02*
X167423809Y-103946190D01*
X167185714Y-104422380D02*
X167185714Y-103422380D01*
X167566666Y-103422380D01*
X167661904Y-103470000D01*
X167709523Y-103517619D01*
X167757142Y-103612857D01*
X167757142Y-103755714D01*
X167709523Y-103850952D01*
X167661904Y-103898571D01*
X167566666Y-103946190D01*
X167185714Y-103946190D01*
X168709523Y-104422380D02*
X168138095Y-104422380D01*
X168423809Y-104422380D02*
X168423809Y-103422380D01*
X168328571Y-103565238D01*
X168233333Y-103660476D01*
X168138095Y-103708095D01*
X169661904Y-104422380D02*
X169090476Y-104422380D01*
X169376190Y-104422380D02*
X169376190Y-103422380D01*
X169280952Y-103565238D01*
X169185714Y-103660476D01*
X169090476Y-103708095D01*
X178782380Y-111142857D02*
X178306190Y-111476190D01*
X178782380Y-111714285D02*
X177782380Y-111714285D01*
X177782380Y-111333333D01*
X177830000Y-111238095D01*
X177877619Y-111190476D01*
X177972857Y-111142857D01*
X178115714Y-111142857D01*
X178210952Y-111190476D01*
X178258571Y-111238095D01*
X178306190Y-111333333D01*
X178306190Y-111714285D01*
X178782380Y-110190476D02*
X178782380Y-110761904D01*
X178782380Y-110476190D02*
X177782380Y-110476190D01*
X177925238Y-110571428D01*
X178020476Y-110666666D01*
X178068095Y-110761904D01*
X177877619Y-109809523D02*
X177830000Y-109761904D01*
X177782380Y-109666666D01*
X177782380Y-109428571D01*
X177830000Y-109333333D01*
X177877619Y-109285714D01*
X177972857Y-109238095D01*
X178068095Y-109238095D01*
X178210952Y-109285714D01*
X178782380Y-109857142D01*
X178782380Y-109238095D01*
X175782380Y-111142857D02*
X175306190Y-111476190D01*
X175782380Y-111714285D02*
X174782380Y-111714285D01*
X174782380Y-111333333D01*
X174830000Y-111238095D01*
X174877619Y-111190476D01*
X174972857Y-111142857D01*
X175115714Y-111142857D01*
X175210952Y-111190476D01*
X175258571Y-111238095D01*
X175306190Y-111333333D01*
X175306190Y-111714285D01*
X175782380Y-110190476D02*
X175782380Y-110761904D01*
X175782380Y-110476190D02*
X174782380Y-110476190D01*
X174925238Y-110571428D01*
X175020476Y-110666666D01*
X175068095Y-110761904D01*
X174782380Y-109857142D02*
X174782380Y-109238095D01*
X175163333Y-109571428D01*
X175163333Y-109428571D01*
X175210952Y-109333333D01*
X175258571Y-109285714D01*
X175353809Y-109238095D01*
X175591904Y-109238095D01*
X175687142Y-109285714D01*
X175734761Y-109333333D01*
X175782380Y-109428571D01*
X175782380Y-109714285D01*
X175734761Y-109809523D01*
X175687142Y-109857142D01*
X158157142Y-120552380D02*
X157823809Y-120076190D01*
X157585714Y-120552380D02*
X157585714Y-119552380D01*
X157966666Y-119552380D01*
X158061904Y-119600000D01*
X158109523Y-119647619D01*
X158157142Y-119742857D01*
X158157142Y-119885714D01*
X158109523Y-119980952D01*
X158061904Y-120028571D01*
X157966666Y-120076190D01*
X157585714Y-120076190D01*
X159109523Y-120552380D02*
X158538095Y-120552380D01*
X158823809Y-120552380D02*
X158823809Y-119552380D01*
X158728571Y-119695238D01*
X158633333Y-119790476D01*
X158538095Y-119838095D01*
X160014285Y-119552380D02*
X159538095Y-119552380D01*
X159490476Y-120028571D01*
X159538095Y-119980952D01*
X159633333Y-119933333D01*
X159871428Y-119933333D01*
X159966666Y-119980952D01*
X160014285Y-120028571D01*
X160061904Y-120123809D01*
X160061904Y-120361904D01*
X160014285Y-120457142D01*
X159966666Y-120504761D01*
X159871428Y-120552380D01*
X159633333Y-120552380D01*
X159538095Y-120504761D01*
X159490476Y-120457142D01*
X197507142Y-140032380D02*
X197173809Y-139556190D01*
X196935714Y-140032380D02*
X196935714Y-139032380D01*
X197316666Y-139032380D01*
X197411904Y-139080000D01*
X197459523Y-139127619D01*
X197507142Y-139222857D01*
X197507142Y-139365714D01*
X197459523Y-139460952D01*
X197411904Y-139508571D01*
X197316666Y-139556190D01*
X196935714Y-139556190D01*
X198459523Y-140032380D02*
X197888095Y-140032380D01*
X198173809Y-140032380D02*
X198173809Y-139032380D01*
X198078571Y-139175238D01*
X197983333Y-139270476D01*
X197888095Y-139318095D01*
X199316666Y-139032380D02*
X199126190Y-139032380D01*
X199030952Y-139080000D01*
X198983333Y-139127619D01*
X198888095Y-139270476D01*
X198840476Y-139460952D01*
X198840476Y-139841904D01*
X198888095Y-139937142D01*
X198935714Y-139984761D01*
X199030952Y-140032380D01*
X199221428Y-140032380D01*
X199316666Y-139984761D01*
X199364285Y-139937142D01*
X199411904Y-139841904D01*
X199411904Y-139603809D01*
X199364285Y-139508571D01*
X199316666Y-139460952D01*
X199221428Y-139413333D01*
X199030952Y-139413333D01*
X198935714Y-139460952D01*
X198888095Y-139508571D01*
X198840476Y-139603809D01*
X176357142Y-105752380D02*
X176023809Y-105276190D01*
X175785714Y-105752380D02*
X175785714Y-104752380D01*
X176166666Y-104752380D01*
X176261904Y-104800000D01*
X176309523Y-104847619D01*
X176357142Y-104942857D01*
X176357142Y-105085714D01*
X176309523Y-105180952D01*
X176261904Y-105228571D01*
X176166666Y-105276190D01*
X175785714Y-105276190D01*
X176738095Y-104847619D02*
X176785714Y-104800000D01*
X176880952Y-104752380D01*
X177119047Y-104752380D01*
X177214285Y-104800000D01*
X177261904Y-104847619D01*
X177309523Y-104942857D01*
X177309523Y-105038095D01*
X177261904Y-105180952D01*
X176690476Y-105752380D01*
X177309523Y-105752380D01*
X177642857Y-104752380D02*
X178261904Y-104752380D01*
X177928571Y-105133333D01*
X178071428Y-105133333D01*
X178166666Y-105180952D01*
X178214285Y-105228571D01*
X178261904Y-105323809D01*
X178261904Y-105561904D01*
X178214285Y-105657142D01*
X178166666Y-105704761D01*
X178071428Y-105752380D01*
X177785714Y-105752380D01*
X177690476Y-105704761D01*
X177642857Y-105657142D01*
X80900000Y-144271428D02*
X81661904Y-144271428D01*
X81280952Y-144652380D02*
X81280952Y-143890476D01*
X82042857Y-143652380D02*
X82661904Y-143652380D01*
X82328571Y-144033333D01*
X82471428Y-144033333D01*
X82566666Y-144080952D01*
X82614285Y-144128571D01*
X82661904Y-144223809D01*
X82661904Y-144461904D01*
X82614285Y-144557142D01*
X82566666Y-144604761D01*
X82471428Y-144652380D01*
X82185714Y-144652380D01*
X82090476Y-144604761D01*
X82042857Y-144557142D01*
X83090476Y-144557142D02*
X83138095Y-144604761D01*
X83090476Y-144652380D01*
X83042857Y-144604761D01*
X83090476Y-144557142D01*
X83090476Y-144652380D01*
X83757142Y-143652380D02*
X83852380Y-143652380D01*
X83947619Y-143700000D01*
X83995238Y-143747619D01*
X84042857Y-143842857D01*
X84090476Y-144033333D01*
X84090476Y-144271428D01*
X84042857Y-144461904D01*
X83995238Y-144557142D01*
X83947619Y-144604761D01*
X83852380Y-144652380D01*
X83757142Y-144652380D01*
X83661904Y-144604761D01*
X83614285Y-144557142D01*
X83566666Y-144461904D01*
X83519047Y-144271428D01*
X83519047Y-144033333D01*
X83566666Y-143842857D01*
X83614285Y-143747619D01*
X83661904Y-143700000D01*
X83757142Y-143652380D01*
X84376190Y-143652380D02*
X84709523Y-144652380D01*
X85042857Y-143652380D01*
X146161904Y-140952380D02*
X146161904Y-141761904D01*
X146209523Y-141857142D01*
X146257142Y-141904761D01*
X146352380Y-141952380D01*
X146542857Y-141952380D01*
X146638095Y-141904761D01*
X146685714Y-141857142D01*
X146733333Y-141761904D01*
X146733333Y-140952380D01*
X147733333Y-141952380D02*
X147161904Y-141952380D01*
X147447619Y-141952380D02*
X147447619Y-140952380D01*
X147352380Y-141095238D01*
X147257142Y-141190476D01*
X147161904Y-141238095D01*
X148352380Y-140952380D02*
X148447619Y-140952380D01*
X148542857Y-141000000D01*
X148590476Y-141047619D01*
X148638095Y-141142857D01*
X148685714Y-141333333D01*
X148685714Y-141571428D01*
X148638095Y-141761904D01*
X148590476Y-141857142D01*
X148542857Y-141904761D01*
X148447619Y-141952380D01*
X148352380Y-141952380D01*
X148257142Y-141904761D01*
X148209523Y-141857142D01*
X148161904Y-141761904D01*
X148114285Y-141571428D01*
X148114285Y-141333333D01*
X148161904Y-141142857D01*
X148209523Y-141047619D01*
X148257142Y-141000000D01*
X148352380Y-140952380D01*
X128861904Y-140452380D02*
X128861904Y-141261904D01*
X128909523Y-141357142D01*
X128957142Y-141404761D01*
X129052380Y-141452380D01*
X129242857Y-141452380D01*
X129338095Y-141404761D01*
X129385714Y-141357142D01*
X129433333Y-141261904D01*
X129433333Y-140452380D01*
X130433333Y-141452380D02*
X129861904Y-141452380D01*
X130147619Y-141452380D02*
X130147619Y-140452380D01*
X130052380Y-140595238D01*
X129957142Y-140690476D01*
X129861904Y-140738095D01*
X130814285Y-140547619D02*
X130861904Y-140500000D01*
X130957142Y-140452380D01*
X131195238Y-140452380D01*
X131290476Y-140500000D01*
X131338095Y-140547619D01*
X131385714Y-140642857D01*
X131385714Y-140738095D01*
X131338095Y-140880952D01*
X130766666Y-141452380D01*
X131385714Y-141452380D01*
X77738095Y-118302380D02*
X77738095Y-119111904D01*
X77785714Y-119207142D01*
X77833333Y-119254761D01*
X77928571Y-119302380D01*
X78119047Y-119302380D01*
X78214285Y-119254761D01*
X78261904Y-119207142D01*
X78309523Y-119111904D01*
X78309523Y-118302380D01*
X78738095Y-118397619D02*
X78785714Y-118350000D01*
X78880952Y-118302380D01*
X79119047Y-118302380D01*
X79214285Y-118350000D01*
X79261904Y-118397619D01*
X79309523Y-118492857D01*
X79309523Y-118588095D01*
X79261904Y-118730952D01*
X78690476Y-119302380D01*
X79309523Y-119302380D01*
X77738095Y-131302380D02*
X77738095Y-132111904D01*
X77785714Y-132207142D01*
X77833333Y-132254761D01*
X77928571Y-132302380D01*
X78119047Y-132302380D01*
X78214285Y-132254761D01*
X78261904Y-132207142D01*
X78309523Y-132111904D01*
X78309523Y-131302380D01*
X78690476Y-131302380D02*
X79309523Y-131302380D01*
X78976190Y-131683333D01*
X79119047Y-131683333D01*
X79214285Y-131730952D01*
X79261904Y-131778571D01*
X79309523Y-131873809D01*
X79309523Y-132111904D01*
X79261904Y-132207142D01*
X79214285Y-132254761D01*
X79119047Y-132302380D01*
X78833333Y-132302380D01*
X78738095Y-132254761D01*
X78690476Y-132207142D01*
X141638095Y-112402380D02*
X141638095Y-113211904D01*
X141685714Y-113307142D01*
X141733333Y-113354761D01*
X141828571Y-113402380D01*
X142019047Y-113402380D01*
X142114285Y-113354761D01*
X142161904Y-113307142D01*
X142209523Y-113211904D01*
X142209523Y-112402380D01*
X143114285Y-112735714D02*
X143114285Y-113402380D01*
X142876190Y-112354761D02*
X142638095Y-113069047D01*
X143257142Y-113069047D01*
X160157142Y-123457142D02*
X160109523Y-123504761D01*
X159966666Y-123552380D01*
X159871428Y-123552380D01*
X159728571Y-123504761D01*
X159633333Y-123409523D01*
X159585714Y-123314285D01*
X159538095Y-123123809D01*
X159538095Y-122980952D01*
X159585714Y-122790476D01*
X159633333Y-122695238D01*
X159728571Y-122600000D01*
X159871428Y-122552380D01*
X159966666Y-122552380D01*
X160109523Y-122600000D01*
X160157142Y-122647619D01*
X160490476Y-122552380D02*
X161109523Y-122552380D01*
X160776190Y-122933333D01*
X160919047Y-122933333D01*
X161014285Y-122980952D01*
X161061904Y-123028571D01*
X161109523Y-123123809D01*
X161109523Y-123361904D01*
X161061904Y-123457142D01*
X161014285Y-123504761D01*
X160919047Y-123552380D01*
X160633333Y-123552380D01*
X160538095Y-123504761D01*
X160490476Y-123457142D01*
X162061904Y-123552380D02*
X161490476Y-123552380D01*
X161776190Y-123552380D02*
X161776190Y-122552380D01*
X161680952Y-122695238D01*
X161585714Y-122790476D01*
X161490476Y-122838095D01*
X168452380Y-134261904D02*
X169261904Y-134261904D01*
X169357142Y-134214285D01*
X169404761Y-134166666D01*
X169452380Y-134071428D01*
X169452380Y-133880952D01*
X169404761Y-133785714D01*
X169357142Y-133738095D01*
X169261904Y-133690476D01*
X168452380Y-133690476D01*
X168452380Y-132785714D02*
X168452380Y-132976190D01*
X168500000Y-133071428D01*
X168547619Y-133119047D01*
X168690476Y-133214285D01*
X168880952Y-133261904D01*
X169261904Y-133261904D01*
X169357142Y-133214285D01*
X169404761Y-133166666D01*
X169452380Y-133071428D01*
X169452380Y-132880952D01*
X169404761Y-132785714D01*
X169357142Y-132738095D01*
X169261904Y-132690476D01*
X169023809Y-132690476D01*
X168928571Y-132738095D01*
X168880952Y-132785714D01*
X168833333Y-132880952D01*
X168833333Y-133071428D01*
X168880952Y-133166666D01*
X168928571Y-133214285D01*
X169023809Y-133261904D01*
X178357142Y-115937142D02*
X178309523Y-115984761D01*
X178166666Y-116032380D01*
X178071428Y-116032380D01*
X177928571Y-115984761D01*
X177833333Y-115889523D01*
X177785714Y-115794285D01*
X177738095Y-115603809D01*
X177738095Y-115460952D01*
X177785714Y-115270476D01*
X177833333Y-115175238D01*
X177928571Y-115080000D01*
X178071428Y-115032380D01*
X178166666Y-115032380D01*
X178309523Y-115080000D01*
X178357142Y-115127619D01*
X178738095Y-115127619D02*
X178785714Y-115080000D01*
X178880952Y-115032380D01*
X179119047Y-115032380D01*
X179214285Y-115080000D01*
X179261904Y-115127619D01*
X179309523Y-115222857D01*
X179309523Y-115318095D01*
X179261904Y-115460952D01*
X178690476Y-116032380D01*
X179309523Y-116032380D01*
X180166666Y-115365714D02*
X180166666Y-116032380D01*
X179928571Y-114984761D02*
X179690476Y-115699047D01*
X180309523Y-115699047D01*
X72333333Y-88957142D02*
X72285714Y-89004761D01*
X72142857Y-89052380D01*
X72047619Y-89052380D01*
X71904761Y-89004761D01*
X71809523Y-88909523D01*
X71761904Y-88814285D01*
X71714285Y-88623809D01*
X71714285Y-88480952D01*
X71761904Y-88290476D01*
X71809523Y-88195238D01*
X71904761Y-88100000D01*
X72047619Y-88052380D01*
X72142857Y-88052380D01*
X72285714Y-88100000D01*
X72333333Y-88147619D01*
X72714285Y-88147619D02*
X72761904Y-88100000D01*
X72857142Y-88052380D01*
X73095238Y-88052380D01*
X73190476Y-88100000D01*
X73238095Y-88147619D01*
X73285714Y-88242857D01*
X73285714Y-88338095D01*
X73238095Y-88480952D01*
X72666666Y-89052380D01*
X73285714Y-89052380D01*
X198157142Y-85027142D02*
X198109523Y-85074761D01*
X197966666Y-85122380D01*
X197871428Y-85122380D01*
X197728571Y-85074761D01*
X197633333Y-84979523D01*
X197585714Y-84884285D01*
X197538095Y-84693809D01*
X197538095Y-84550952D01*
X197585714Y-84360476D01*
X197633333Y-84265238D01*
X197728571Y-84170000D01*
X197871428Y-84122380D01*
X197966666Y-84122380D01*
X198109523Y-84170000D01*
X198157142Y-84217619D01*
X198538095Y-84217619D02*
X198585714Y-84170000D01*
X198680952Y-84122380D01*
X198919047Y-84122380D01*
X199014285Y-84170000D01*
X199061904Y-84217619D01*
X199109523Y-84312857D01*
X199109523Y-84408095D01*
X199061904Y-84550952D01*
X198490476Y-85122380D01*
X199109523Y-85122380D01*
X199966666Y-84122380D02*
X199776190Y-84122380D01*
X199680952Y-84170000D01*
X199633333Y-84217619D01*
X199538095Y-84360476D01*
X199490476Y-84550952D01*
X199490476Y-84931904D01*
X199538095Y-85027142D01*
X199585714Y-85074761D01*
X199680952Y-85122380D01*
X199871428Y-85122380D01*
X199966666Y-85074761D01*
X200014285Y-85027142D01*
X200061904Y-84931904D01*
X200061904Y-84693809D01*
X200014285Y-84598571D01*
X199966666Y-84550952D01*
X199871428Y-84503333D01*
X199680952Y-84503333D01*
X199585714Y-84550952D01*
X199538095Y-84598571D01*
X199490476Y-84693809D01*
X199557142Y-93042857D02*
X199604761Y-93090476D01*
X199652380Y-93233333D01*
X199652380Y-93328571D01*
X199604761Y-93471428D01*
X199509523Y-93566666D01*
X199414285Y-93614285D01*
X199223809Y-93661904D01*
X199080952Y-93661904D01*
X198890476Y-93614285D01*
X198795238Y-93566666D01*
X198700000Y-93471428D01*
X198652380Y-93328571D01*
X198652380Y-93233333D01*
X198700000Y-93090476D01*
X198747619Y-93042857D01*
X198747619Y-92661904D02*
X198700000Y-92614285D01*
X198652380Y-92519047D01*
X198652380Y-92280952D01*
X198700000Y-92185714D01*
X198747619Y-92138095D01*
X198842857Y-92090476D01*
X198938095Y-92090476D01*
X199080952Y-92138095D01*
X199652380Y-92709523D01*
X199652380Y-92090476D01*
X199080952Y-91519047D02*
X199033333Y-91614285D01*
X198985714Y-91661904D01*
X198890476Y-91709523D01*
X198842857Y-91709523D01*
X198747619Y-91661904D01*
X198700000Y-91614285D01*
X198652380Y-91519047D01*
X198652380Y-91328571D01*
X198700000Y-91233333D01*
X198747619Y-91185714D01*
X198842857Y-91138095D01*
X198890476Y-91138095D01*
X198985714Y-91185714D01*
X199033333Y-91233333D01*
X199080952Y-91328571D01*
X199080952Y-91519047D01*
X199128571Y-91614285D01*
X199176190Y-91661904D01*
X199271428Y-91709523D01*
X199461904Y-91709523D01*
X199557142Y-91661904D01*
X199604761Y-91614285D01*
X199652380Y-91519047D01*
X199652380Y-91328571D01*
X199604761Y-91233333D01*
X199557142Y-91185714D01*
X199461904Y-91138095D01*
X199271428Y-91138095D01*
X199176190Y-91185714D01*
X199128571Y-91233333D01*
X199080952Y-91328571D01*
X184657142Y-64742857D02*
X184704761Y-64790476D01*
X184752380Y-64933333D01*
X184752380Y-65028571D01*
X184704761Y-65171428D01*
X184609523Y-65266666D01*
X184514285Y-65314285D01*
X184323809Y-65361904D01*
X184180952Y-65361904D01*
X183990476Y-65314285D01*
X183895238Y-65266666D01*
X183800000Y-65171428D01*
X183752380Y-65028571D01*
X183752380Y-64933333D01*
X183800000Y-64790476D01*
X183847619Y-64742857D01*
X184085714Y-63885714D02*
X184752380Y-63885714D01*
X183704761Y-64123809D02*
X184419047Y-64361904D01*
X184419047Y-63742857D01*
X183752380Y-62885714D02*
X183752380Y-63361904D01*
X184228571Y-63409523D01*
X184180952Y-63361904D01*
X184133333Y-63266666D01*
X184133333Y-63028571D01*
X184180952Y-62933333D01*
X184228571Y-62885714D01*
X184323809Y-62838095D01*
X184561904Y-62838095D01*
X184657142Y-62885714D01*
X184704761Y-62933333D01*
X184752380Y-63028571D01*
X184752380Y-63266666D01*
X184704761Y-63361904D01*
X184657142Y-63409523D01*
X159657142Y-78827142D02*
X159609523Y-78874761D01*
X159466666Y-78922380D01*
X159371428Y-78922380D01*
X159228571Y-78874761D01*
X159133333Y-78779523D01*
X159085714Y-78684285D01*
X159038095Y-78493809D01*
X159038095Y-78350952D01*
X159085714Y-78160476D01*
X159133333Y-78065238D01*
X159228571Y-77970000D01*
X159371428Y-77922380D01*
X159466666Y-77922380D01*
X159609523Y-77970000D01*
X159657142Y-78017619D01*
X160514285Y-78255714D02*
X160514285Y-78922380D01*
X160276190Y-77874761D02*
X160038095Y-78589047D01*
X160657142Y-78589047D01*
X161466666Y-77922380D02*
X161276190Y-77922380D01*
X161180952Y-77970000D01*
X161133333Y-78017619D01*
X161038095Y-78160476D01*
X160990476Y-78350952D01*
X160990476Y-78731904D01*
X161038095Y-78827142D01*
X161085714Y-78874761D01*
X161180952Y-78922380D01*
X161371428Y-78922380D01*
X161466666Y-78874761D01*
X161514285Y-78827142D01*
X161561904Y-78731904D01*
X161561904Y-78493809D01*
X161514285Y-78398571D01*
X161466666Y-78350952D01*
X161371428Y-78303333D01*
X161180952Y-78303333D01*
X161085714Y-78350952D01*
X161038095Y-78398571D01*
X160990476Y-78493809D01*
X187557142Y-76357142D02*
X187509523Y-76404761D01*
X187366666Y-76452380D01*
X187271428Y-76452380D01*
X187128571Y-76404761D01*
X187033333Y-76309523D01*
X186985714Y-76214285D01*
X186938095Y-76023809D01*
X186938095Y-75880952D01*
X186985714Y-75690476D01*
X187033333Y-75595238D01*
X187128571Y-75500000D01*
X187271428Y-75452380D01*
X187366666Y-75452380D01*
X187509523Y-75500000D01*
X187557142Y-75547619D01*
X188414285Y-75785714D02*
X188414285Y-76452380D01*
X188176190Y-75404761D02*
X187938095Y-76119047D01*
X188557142Y-76119047D01*
X188842857Y-75452380D02*
X189509523Y-75452380D01*
X189080952Y-76452380D01*
X167287142Y-77517857D02*
X167334761Y-77565476D01*
X167382380Y-77708333D01*
X167382380Y-77803571D01*
X167334761Y-77946428D01*
X167239523Y-78041666D01*
X167144285Y-78089285D01*
X166953809Y-78136904D01*
X166810952Y-78136904D01*
X166620476Y-78089285D01*
X166525238Y-78041666D01*
X166430000Y-77946428D01*
X166382380Y-77803571D01*
X166382380Y-77708333D01*
X166430000Y-77565476D01*
X166477619Y-77517857D01*
X166715714Y-76660714D02*
X167382380Y-76660714D01*
X166334761Y-76898809D02*
X167049047Y-77136904D01*
X167049047Y-76517857D01*
X166810952Y-75994047D02*
X166763333Y-76089285D01*
X166715714Y-76136904D01*
X166620476Y-76184523D01*
X166572857Y-76184523D01*
X166477619Y-76136904D01*
X166430000Y-76089285D01*
X166382380Y-75994047D01*
X166382380Y-75803571D01*
X166430000Y-75708333D01*
X166477619Y-75660714D01*
X166572857Y-75613095D01*
X166620476Y-75613095D01*
X166715714Y-75660714D01*
X166763333Y-75708333D01*
X166810952Y-75803571D01*
X166810952Y-75994047D01*
X166858571Y-76089285D01*
X166906190Y-76136904D01*
X167001428Y-76184523D01*
X167191904Y-76184523D01*
X167287142Y-76136904D01*
X167334761Y-76089285D01*
X167382380Y-75994047D01*
X167382380Y-75803571D01*
X167334761Y-75708333D01*
X167287142Y-75660714D01*
X167191904Y-75613095D01*
X167001428Y-75613095D01*
X166906190Y-75660714D01*
X166858571Y-75708333D01*
X166810952Y-75803571D01*
X171757142Y-64142857D02*
X171804761Y-64190476D01*
X171852380Y-64333333D01*
X171852380Y-64428571D01*
X171804761Y-64571428D01*
X171709523Y-64666666D01*
X171614285Y-64714285D01*
X171423809Y-64761904D01*
X171280952Y-64761904D01*
X171090476Y-64714285D01*
X170995238Y-64666666D01*
X170900000Y-64571428D01*
X170852380Y-64428571D01*
X170852380Y-64333333D01*
X170900000Y-64190476D01*
X170947619Y-64142857D01*
X171185714Y-63285714D02*
X171852380Y-63285714D01*
X170804761Y-63523809D02*
X171519047Y-63761904D01*
X171519047Y-63142857D01*
X171852380Y-62714285D02*
X171852380Y-62523809D01*
X171804761Y-62428571D01*
X171757142Y-62380952D01*
X171614285Y-62285714D01*
X171423809Y-62238095D01*
X171042857Y-62238095D01*
X170947619Y-62285714D01*
X170900000Y-62333333D01*
X170852380Y-62428571D01*
X170852380Y-62619047D01*
X170900000Y-62714285D01*
X170947619Y-62761904D01*
X171042857Y-62809523D01*
X171280952Y-62809523D01*
X171376190Y-62761904D01*
X171423809Y-62714285D01*
X171471428Y-62619047D01*
X171471428Y-62428571D01*
X171423809Y-62333333D01*
X171376190Y-62285714D01*
X171280952Y-62238095D01*
X68952380Y-62638095D02*
X67952380Y-62638095D01*
X67952380Y-62400000D01*
X68000000Y-62257142D01*
X68095238Y-62161904D01*
X68190476Y-62114285D01*
X68380952Y-62066666D01*
X68523809Y-62066666D01*
X68714285Y-62114285D01*
X68809523Y-62161904D01*
X68904761Y-62257142D01*
X68952380Y-62400000D01*
X68952380Y-62638095D01*
X67952380Y-61733333D02*
X67952380Y-61114285D01*
X68333333Y-61447619D01*
X68333333Y-61304761D01*
X68380952Y-61209523D01*
X68428571Y-61161904D01*
X68523809Y-61114285D01*
X68761904Y-61114285D01*
X68857142Y-61161904D01*
X68904761Y-61209523D01*
X68952380Y-61304761D01*
X68952380Y-61590476D01*
X68904761Y-61685714D01*
X68857142Y-61733333D01*
X63752380Y-136638095D02*
X62752380Y-136638095D01*
X62752380Y-136400000D01*
X62800000Y-136257142D01*
X62895238Y-136161904D01*
X62990476Y-136114285D01*
X63180952Y-136066666D01*
X63323809Y-136066666D01*
X63514285Y-136114285D01*
X63609523Y-136161904D01*
X63704761Y-136257142D01*
X63752380Y-136400000D01*
X63752380Y-136638095D01*
X63085714Y-135209523D02*
X63752380Y-135209523D01*
X62704761Y-135447619D02*
X63419047Y-135685714D01*
X63419047Y-135066666D01*
X204366666Y-93452380D02*
X204366666Y-92452380D01*
X204747619Y-92452380D01*
X204842857Y-92500000D01*
X204890476Y-92547619D01*
X204938095Y-92642857D01*
X204938095Y-92785714D01*
X204890476Y-92880952D01*
X204842857Y-92928571D01*
X204747619Y-92976190D01*
X204366666Y-92976190D01*
X205366666Y-93452380D02*
X205366666Y-92452380D01*
X205604761Y-92452380D01*
X205747619Y-92500000D01*
X205842857Y-92595238D01*
X205890476Y-92690476D01*
X205938095Y-92880952D01*
X205938095Y-93023809D01*
X205890476Y-93214285D01*
X205842857Y-93309523D01*
X205747619Y-93404761D01*
X205604761Y-93452380D01*
X205366666Y-93452380D01*
X206128571Y-93547619D02*
X206890476Y-93547619D01*
X207128571Y-93452380D02*
X207128571Y-92452380D01*
X207604761Y-92785714D02*
X207604761Y-93452380D01*
X207604761Y-92880952D02*
X207652380Y-92833333D01*
X207747619Y-92785714D01*
X207890476Y-92785714D01*
X207985714Y-92833333D01*
X208033333Y-92928571D01*
X208033333Y-93452380D01*
X147014285Y-74852380D02*
X146680952Y-74376190D01*
X146442857Y-74852380D02*
X146442857Y-73852380D01*
X146823809Y-73852380D01*
X146919047Y-73900000D01*
X146966666Y-73947619D01*
X147014285Y-74042857D01*
X147014285Y-74185714D01*
X146966666Y-74280952D01*
X146919047Y-74328571D01*
X146823809Y-74376190D01*
X146442857Y-74376190D01*
X147823809Y-74804761D02*
X147728571Y-74852380D01*
X147538095Y-74852380D01*
X147442857Y-74804761D01*
X147395238Y-74709523D01*
X147395238Y-74328571D01*
X147442857Y-74233333D01*
X147538095Y-74185714D01*
X147728571Y-74185714D01*
X147823809Y-74233333D01*
X147871428Y-74328571D01*
X147871428Y-74423809D01*
X147395238Y-74519047D01*
X148157142Y-74185714D02*
X148538095Y-74185714D01*
X148300000Y-74852380D02*
X148300000Y-73995238D01*
X148347619Y-73900000D01*
X148442857Y-73852380D01*
X148538095Y-73852380D01*
X148633333Y-74947619D02*
X149395238Y-74947619D01*
X149633333Y-74852380D02*
X149633333Y-73852380D01*
X150109523Y-74185714D02*
X150109523Y-74852380D01*
X150109523Y-74280952D02*
X150157142Y-74233333D01*
X150252380Y-74185714D01*
X150395238Y-74185714D01*
X150490476Y-74233333D01*
X150538095Y-74328571D01*
X150538095Y-74852380D01*
X150776190Y-74947619D02*
X151538095Y-74947619D01*
X151728571Y-74566666D02*
X152204761Y-74566666D01*
X151633333Y-74852380D02*
X151966666Y-73852380D01*
X152300000Y-74852380D01*
X179066666Y-49762380D02*
X179066666Y-50476666D01*
X179019047Y-50619523D01*
X178923809Y-50714761D01*
X178780952Y-50762380D01*
X178685714Y-50762380D01*
X179971428Y-49762380D02*
X179780952Y-49762380D01*
X179685714Y-49810000D01*
X179638095Y-49857619D01*
X179542857Y-50000476D01*
X179495238Y-50190952D01*
X179495238Y-50571904D01*
X179542857Y-50667142D01*
X179590476Y-50714761D01*
X179685714Y-50762380D01*
X179876190Y-50762380D01*
X179971428Y-50714761D01*
X180019047Y-50667142D01*
X180066666Y-50571904D01*
X180066666Y-50333809D01*
X180019047Y-50238571D01*
X179971428Y-50190952D01*
X179876190Y-50143333D01*
X179685714Y-50143333D01*
X179590476Y-50190952D01*
X179542857Y-50238571D01*
X179495238Y-50333809D01*
X128557142Y-121352380D02*
X128223809Y-120876190D01*
X127985714Y-121352380D02*
X127985714Y-120352380D01*
X128366666Y-120352380D01*
X128461904Y-120400000D01*
X128509523Y-120447619D01*
X128557142Y-120542857D01*
X128557142Y-120685714D01*
X128509523Y-120780952D01*
X128461904Y-120828571D01*
X128366666Y-120876190D01*
X127985714Y-120876190D01*
X129509523Y-121352380D02*
X128938095Y-121352380D01*
X129223809Y-121352380D02*
X129223809Y-120352380D01*
X129128571Y-120495238D01*
X129033333Y-120590476D01*
X128938095Y-120638095D01*
X129842857Y-120352380D02*
X130509523Y-120352380D01*
X130080952Y-121352380D01*
X161452380Y-68142857D02*
X160976190Y-68476190D01*
X161452380Y-68714285D02*
X160452380Y-68714285D01*
X160452380Y-68333333D01*
X160500000Y-68238095D01*
X160547619Y-68190476D01*
X160642857Y-68142857D01*
X160785714Y-68142857D01*
X160880952Y-68190476D01*
X160928571Y-68238095D01*
X160976190Y-68333333D01*
X160976190Y-68714285D01*
X161452380Y-67190476D02*
X161452380Y-67761904D01*
X161452380Y-67476190D02*
X160452380Y-67476190D01*
X160595238Y-67571428D01*
X160690476Y-67666666D01*
X160738095Y-67761904D01*
X160880952Y-66619047D02*
X160833333Y-66714285D01*
X160785714Y-66761904D01*
X160690476Y-66809523D01*
X160642857Y-66809523D01*
X160547619Y-66761904D01*
X160500000Y-66714285D01*
X160452380Y-66619047D01*
X160452380Y-66428571D01*
X160500000Y-66333333D01*
X160547619Y-66285714D01*
X160642857Y-66238095D01*
X160690476Y-66238095D01*
X160785714Y-66285714D01*
X160833333Y-66333333D01*
X160880952Y-66428571D01*
X160880952Y-66619047D01*
X160928571Y-66714285D01*
X160976190Y-66761904D01*
X161071428Y-66809523D01*
X161261904Y-66809523D01*
X161357142Y-66761904D01*
X161404761Y-66714285D01*
X161452380Y-66619047D01*
X161452380Y-66428571D01*
X161404761Y-66333333D01*
X161357142Y-66285714D01*
X161261904Y-66238095D01*
X161071428Y-66238095D01*
X160976190Y-66285714D01*
X160928571Y-66333333D01*
X160880952Y-66428571D01*
X194457142Y-81852380D02*
X194123809Y-81376190D01*
X193885714Y-81852380D02*
X193885714Y-80852380D01*
X194266666Y-80852380D01*
X194361904Y-80900000D01*
X194409523Y-80947619D01*
X194457142Y-81042857D01*
X194457142Y-81185714D01*
X194409523Y-81280952D01*
X194361904Y-81328571D01*
X194266666Y-81376190D01*
X193885714Y-81376190D01*
X195409523Y-81852380D02*
X194838095Y-81852380D01*
X195123809Y-81852380D02*
X195123809Y-80852380D01*
X195028571Y-80995238D01*
X194933333Y-81090476D01*
X194838095Y-81138095D01*
X195885714Y-81852380D02*
X196076190Y-81852380D01*
X196171428Y-81804761D01*
X196219047Y-81757142D01*
X196314285Y-81614285D01*
X196361904Y-81423809D01*
X196361904Y-81042857D01*
X196314285Y-80947619D01*
X196266666Y-80900000D01*
X196171428Y-80852380D01*
X195980952Y-80852380D01*
X195885714Y-80900000D01*
X195838095Y-80947619D01*
X195790476Y-81042857D01*
X195790476Y-81280952D01*
X195838095Y-81376190D01*
X195885714Y-81423809D01*
X195980952Y-81471428D01*
X196171428Y-81471428D01*
X196266666Y-81423809D01*
X196314285Y-81376190D01*
X196361904Y-81280952D01*
X163552380Y-68142857D02*
X163076190Y-68476190D01*
X163552380Y-68714285D02*
X162552380Y-68714285D01*
X162552380Y-68333333D01*
X162600000Y-68238095D01*
X162647619Y-68190476D01*
X162742857Y-68142857D01*
X162885714Y-68142857D01*
X162980952Y-68190476D01*
X163028571Y-68238095D01*
X163076190Y-68333333D01*
X163076190Y-68714285D01*
X162647619Y-67761904D02*
X162600000Y-67714285D01*
X162552380Y-67619047D01*
X162552380Y-67380952D01*
X162600000Y-67285714D01*
X162647619Y-67238095D01*
X162742857Y-67190476D01*
X162838095Y-67190476D01*
X162980952Y-67238095D01*
X163552380Y-67809523D01*
X163552380Y-67190476D01*
X162552380Y-66571428D02*
X162552380Y-66476190D01*
X162600000Y-66380952D01*
X162647619Y-66333333D01*
X162742857Y-66285714D01*
X162933333Y-66238095D01*
X163171428Y-66238095D01*
X163361904Y-66285714D01*
X163457142Y-66333333D01*
X163504761Y-66380952D01*
X163552380Y-66476190D01*
X163552380Y-66571428D01*
X163504761Y-66666666D01*
X163457142Y-66714285D01*
X163361904Y-66761904D01*
X163171428Y-66809523D01*
X162933333Y-66809523D01*
X162742857Y-66761904D01*
X162647619Y-66714285D01*
X162600000Y-66666666D01*
X162552380Y-66571428D01*
X188357142Y-98922380D02*
X188023809Y-98446190D01*
X187785714Y-98922380D02*
X187785714Y-97922380D01*
X188166666Y-97922380D01*
X188261904Y-97970000D01*
X188309523Y-98017619D01*
X188357142Y-98112857D01*
X188357142Y-98255714D01*
X188309523Y-98350952D01*
X188261904Y-98398571D01*
X188166666Y-98446190D01*
X187785714Y-98446190D01*
X188738095Y-98017619D02*
X188785714Y-97970000D01*
X188880952Y-97922380D01*
X189119047Y-97922380D01*
X189214285Y-97970000D01*
X189261904Y-98017619D01*
X189309523Y-98112857D01*
X189309523Y-98208095D01*
X189261904Y-98350952D01*
X188690476Y-98922380D01*
X189309523Y-98922380D01*
X190166666Y-98255714D02*
X190166666Y-98922380D01*
X189928571Y-97874761D02*
X189690476Y-98589047D01*
X190309523Y-98589047D01*
X192157142Y-94152380D02*
X191823809Y-93676190D01*
X191585714Y-94152380D02*
X191585714Y-93152380D01*
X191966666Y-93152380D01*
X192061904Y-93200000D01*
X192109523Y-93247619D01*
X192157142Y-93342857D01*
X192157142Y-93485714D01*
X192109523Y-93580952D01*
X192061904Y-93628571D01*
X191966666Y-93676190D01*
X191585714Y-93676190D01*
X192538095Y-93247619D02*
X192585714Y-93200000D01*
X192680952Y-93152380D01*
X192919047Y-93152380D01*
X193014285Y-93200000D01*
X193061904Y-93247619D01*
X193109523Y-93342857D01*
X193109523Y-93438095D01*
X193061904Y-93580952D01*
X192490476Y-94152380D01*
X193109523Y-94152380D01*
X194014285Y-93152380D02*
X193538095Y-93152380D01*
X193490476Y-93628571D01*
X193538095Y-93580952D01*
X193633333Y-93533333D01*
X193871428Y-93533333D01*
X193966666Y-93580952D01*
X194014285Y-93628571D01*
X194061904Y-93723809D01*
X194061904Y-93961904D01*
X194014285Y-94057142D01*
X193966666Y-94104761D01*
X193871428Y-94152380D01*
X193633333Y-94152380D01*
X193538095Y-94104761D01*
X193490476Y-94057142D01*
X162022380Y-74742857D02*
X161546190Y-75076190D01*
X162022380Y-75314285D02*
X161022380Y-75314285D01*
X161022380Y-74933333D01*
X161070000Y-74838095D01*
X161117619Y-74790476D01*
X161212857Y-74742857D01*
X161355714Y-74742857D01*
X161450952Y-74790476D01*
X161498571Y-74838095D01*
X161546190Y-74933333D01*
X161546190Y-75314285D01*
X161117619Y-74361904D02*
X161070000Y-74314285D01*
X161022380Y-74219047D01*
X161022380Y-73980952D01*
X161070000Y-73885714D01*
X161117619Y-73838095D01*
X161212857Y-73790476D01*
X161308095Y-73790476D01*
X161450952Y-73838095D01*
X162022380Y-74409523D01*
X162022380Y-73790476D01*
X161022380Y-73457142D02*
X161022380Y-72790476D01*
X162022380Y-73219047D01*
X196357142Y-64532380D02*
X196023809Y-64056190D01*
X195785714Y-64532380D02*
X195785714Y-63532380D01*
X196166666Y-63532380D01*
X196261904Y-63580000D01*
X196309523Y-63627619D01*
X196357142Y-63722857D01*
X196357142Y-63865714D01*
X196309523Y-63960952D01*
X196261904Y-64008571D01*
X196166666Y-64056190D01*
X195785714Y-64056190D01*
X196738095Y-63627619D02*
X196785714Y-63580000D01*
X196880952Y-63532380D01*
X197119047Y-63532380D01*
X197214285Y-63580000D01*
X197261904Y-63627619D01*
X197309523Y-63722857D01*
X197309523Y-63818095D01*
X197261904Y-63960952D01*
X196690476Y-64532380D01*
X197309523Y-64532380D01*
X197785714Y-64532380D02*
X197976190Y-64532380D01*
X198071428Y-64484761D01*
X198119047Y-64437142D01*
X198214285Y-64294285D01*
X198261904Y-64103809D01*
X198261904Y-63722857D01*
X198214285Y-63627619D01*
X198166666Y-63580000D01*
X198071428Y-63532380D01*
X197880952Y-63532380D01*
X197785714Y-63580000D01*
X197738095Y-63627619D01*
X197690476Y-63722857D01*
X197690476Y-63960952D01*
X197738095Y-64056190D01*
X197785714Y-64103809D01*
X197880952Y-64151428D01*
X198071428Y-64151428D01*
X198166666Y-64103809D01*
X198214285Y-64056190D01*
X198261904Y-63960952D01*
X176152380Y-74082380D02*
X175819047Y-73606190D01*
X175580952Y-74082380D02*
X175580952Y-73082380D01*
X175961904Y-73082380D01*
X176057142Y-73130000D01*
X176104761Y-73177619D01*
X176152380Y-73272857D01*
X176152380Y-73415714D01*
X176104761Y-73510952D01*
X176057142Y-73558571D01*
X175961904Y-73606190D01*
X175580952Y-73606190D01*
X177104761Y-74082380D02*
X176533333Y-74082380D01*
X176819047Y-74082380D02*
X176819047Y-73082380D01*
X176723809Y-73225238D01*
X176628571Y-73320476D01*
X176533333Y-73368095D01*
X178057142Y-74082380D02*
X177485714Y-74082380D01*
X177771428Y-74082380D02*
X177771428Y-73082380D01*
X177676190Y-73225238D01*
X177580952Y-73320476D01*
X177485714Y-73368095D01*
X178438095Y-73796666D02*
X178914285Y-73796666D01*
X178342857Y-74082380D02*
X178676190Y-73082380D01*
X179009523Y-74082380D01*
X179866666Y-74082380D02*
X179295238Y-74082380D01*
X179580952Y-74082380D02*
X179580952Y-73082380D01*
X179485714Y-73225238D01*
X179390476Y-73320476D01*
X179295238Y-73368095D01*
X186152380Y-65752380D02*
X185819047Y-65276190D01*
X185580952Y-65752380D02*
X185580952Y-64752380D01*
X185961904Y-64752380D01*
X186057142Y-64800000D01*
X186104761Y-64847619D01*
X186152380Y-64942857D01*
X186152380Y-65085714D01*
X186104761Y-65180952D01*
X186057142Y-65228571D01*
X185961904Y-65276190D01*
X185580952Y-65276190D01*
X187104761Y-65752380D02*
X186533333Y-65752380D01*
X186819047Y-65752380D02*
X186819047Y-64752380D01*
X186723809Y-64895238D01*
X186628571Y-64990476D01*
X186533333Y-65038095D01*
X187485714Y-64847619D02*
X187533333Y-64800000D01*
X187628571Y-64752380D01*
X187866666Y-64752380D01*
X187961904Y-64800000D01*
X188009523Y-64847619D01*
X188057142Y-64942857D01*
X188057142Y-65038095D01*
X188009523Y-65180952D01*
X187438095Y-65752380D01*
X188057142Y-65752380D01*
X188438095Y-65466666D02*
X188914285Y-65466666D01*
X188342857Y-65752380D02*
X188676190Y-64752380D01*
X189009523Y-65752380D01*
X189866666Y-65752380D02*
X189295238Y-65752380D01*
X189580952Y-65752380D02*
X189580952Y-64752380D01*
X189485714Y-64895238D01*
X189390476Y-64990476D01*
X189295238Y-65038095D01*
X181552380Y-79047619D02*
X181076190Y-79380952D01*
X181552380Y-79619047D02*
X180552380Y-79619047D01*
X180552380Y-79238095D01*
X180600000Y-79142857D01*
X180647619Y-79095238D01*
X180742857Y-79047619D01*
X180885714Y-79047619D01*
X180980952Y-79095238D01*
X181028571Y-79142857D01*
X181076190Y-79238095D01*
X181076190Y-79619047D01*
X180647619Y-78666666D02*
X180600000Y-78619047D01*
X180552380Y-78523809D01*
X180552380Y-78285714D01*
X180600000Y-78190476D01*
X180647619Y-78142857D01*
X180742857Y-78095238D01*
X180838095Y-78095238D01*
X180980952Y-78142857D01*
X181552380Y-78714285D01*
X181552380Y-78095238D01*
X181552380Y-77142857D02*
X181552380Y-77714285D01*
X181552380Y-77428571D02*
X180552380Y-77428571D01*
X180695238Y-77523809D01*
X180790476Y-77619047D01*
X180838095Y-77714285D01*
X181266666Y-76761904D02*
X181266666Y-76285714D01*
X181552380Y-76857142D02*
X180552380Y-76523809D01*
X181552380Y-76190476D01*
X181552380Y-75333333D02*
X181552380Y-75904761D01*
X181552380Y-75619047D02*
X180552380Y-75619047D01*
X180695238Y-75714285D01*
X180790476Y-75809523D01*
X180838095Y-75904761D01*
X193052380Y-79047619D02*
X192576190Y-79380952D01*
X193052380Y-79619047D02*
X192052380Y-79619047D01*
X192052380Y-79238095D01*
X192100000Y-79142857D01*
X192147619Y-79095238D01*
X192242857Y-79047619D01*
X192385714Y-79047619D01*
X192480952Y-79095238D01*
X192528571Y-79142857D01*
X192576190Y-79238095D01*
X192576190Y-79619047D01*
X192147619Y-78666666D02*
X192100000Y-78619047D01*
X192052380Y-78523809D01*
X192052380Y-78285714D01*
X192100000Y-78190476D01*
X192147619Y-78142857D01*
X192242857Y-78095238D01*
X192338095Y-78095238D01*
X192480952Y-78142857D01*
X193052380Y-78714285D01*
X193052380Y-78095238D01*
X192147619Y-77714285D02*
X192100000Y-77666666D01*
X192052380Y-77571428D01*
X192052380Y-77333333D01*
X192100000Y-77238095D01*
X192147619Y-77190476D01*
X192242857Y-77142857D01*
X192338095Y-77142857D01*
X192480952Y-77190476D01*
X193052380Y-77761904D01*
X193052380Y-77142857D01*
X192766666Y-76761904D02*
X192766666Y-76285714D01*
X193052380Y-76857142D02*
X192052380Y-76523809D01*
X193052380Y-76190476D01*
X193052380Y-75333333D02*
X193052380Y-75904761D01*
X193052380Y-75619047D02*
X192052380Y-75619047D01*
X192195238Y-75714285D01*
X192290476Y-75809523D01*
X192338095Y-75904761D01*
X181652380Y-68147619D02*
X181176190Y-68480952D01*
X181652380Y-68719047D02*
X180652380Y-68719047D01*
X180652380Y-68338095D01*
X180700000Y-68242857D01*
X180747619Y-68195238D01*
X180842857Y-68147619D01*
X180985714Y-68147619D01*
X181080952Y-68195238D01*
X181128571Y-68242857D01*
X181176190Y-68338095D01*
X181176190Y-68719047D01*
X180652380Y-67814285D02*
X180652380Y-67195238D01*
X181033333Y-67528571D01*
X181033333Y-67385714D01*
X181080952Y-67290476D01*
X181128571Y-67242857D01*
X181223809Y-67195238D01*
X181461904Y-67195238D01*
X181557142Y-67242857D01*
X181604761Y-67290476D01*
X181652380Y-67385714D01*
X181652380Y-67671428D01*
X181604761Y-67766666D01*
X181557142Y-67814285D01*
X181652380Y-66242857D02*
X181652380Y-66814285D01*
X181652380Y-66528571D02*
X180652380Y-66528571D01*
X180795238Y-66623809D01*
X180890476Y-66719047D01*
X180938095Y-66814285D01*
X181366666Y-65861904D02*
X181366666Y-65385714D01*
X181652380Y-65957142D02*
X180652380Y-65623809D01*
X181652380Y-65290476D01*
X181652380Y-64433333D02*
X181652380Y-65004761D01*
X181652380Y-64719047D02*
X180652380Y-64719047D01*
X180795238Y-64814285D01*
X180890476Y-64909523D01*
X180938095Y-65004761D01*
X193052380Y-67747619D02*
X192576190Y-68080952D01*
X193052380Y-68319047D02*
X192052380Y-68319047D01*
X192052380Y-67938095D01*
X192100000Y-67842857D01*
X192147619Y-67795238D01*
X192242857Y-67747619D01*
X192385714Y-67747619D01*
X192480952Y-67795238D01*
X192528571Y-67842857D01*
X192576190Y-67938095D01*
X192576190Y-68319047D01*
X192052380Y-67414285D02*
X192052380Y-66795238D01*
X192433333Y-67128571D01*
X192433333Y-66985714D01*
X192480952Y-66890476D01*
X192528571Y-66842857D01*
X192623809Y-66795238D01*
X192861904Y-66795238D01*
X192957142Y-66842857D01*
X193004761Y-66890476D01*
X193052380Y-66985714D01*
X193052380Y-67271428D01*
X193004761Y-67366666D01*
X192957142Y-67414285D01*
X192147619Y-66414285D02*
X192100000Y-66366666D01*
X192052380Y-66271428D01*
X192052380Y-66033333D01*
X192100000Y-65938095D01*
X192147619Y-65890476D01*
X192242857Y-65842857D01*
X192338095Y-65842857D01*
X192480952Y-65890476D01*
X193052380Y-66461904D01*
X193052380Y-65842857D01*
X192766666Y-65461904D02*
X192766666Y-64985714D01*
X193052380Y-65557142D02*
X192052380Y-65223809D01*
X193052380Y-64890476D01*
X193052380Y-64033333D02*
X193052380Y-64604761D01*
X193052380Y-64319047D02*
X192052380Y-64319047D01*
X192195238Y-64414285D01*
X192290476Y-64509523D01*
X192338095Y-64604761D01*
X202064761Y-105272380D02*
X201731428Y-104796190D01*
X201493333Y-105272380D02*
X201493333Y-104272380D01*
X201874285Y-104272380D01*
X201969523Y-104320000D01*
X202017142Y-104367619D01*
X202064761Y-104462857D01*
X202064761Y-104605714D01*
X202017142Y-104700952D01*
X201969523Y-104748571D01*
X201874285Y-104796190D01*
X201493333Y-104796190D01*
X202350476Y-104272380D02*
X202683809Y-105272380D01*
X203017142Y-104272380D01*
X203874285Y-105272380D02*
X203302857Y-105272380D01*
X203588571Y-105272380D02*
X203588571Y-104272380D01*
X203493333Y-104415238D01*
X203398095Y-104510476D01*
X203302857Y-104558095D01*
X167638095Y-67952380D02*
X167638095Y-68761904D01*
X167685714Y-68857142D01*
X167733333Y-68904761D01*
X167828571Y-68952380D01*
X168019047Y-68952380D01*
X168114285Y-68904761D01*
X168161904Y-68857142D01*
X168209523Y-68761904D01*
X168209523Y-67952380D01*
X168590476Y-67952380D02*
X169257142Y-67952380D01*
X168828571Y-68952380D01*
X185761904Y-67952380D02*
X185761904Y-68761904D01*
X185809523Y-68857142D01*
X185857142Y-68904761D01*
X185952380Y-68952380D01*
X186142857Y-68952380D01*
X186238095Y-68904761D01*
X186285714Y-68857142D01*
X186333333Y-68761904D01*
X186333333Y-67952380D01*
X187333333Y-68952380D02*
X186761904Y-68952380D01*
X187047619Y-68952380D02*
X187047619Y-67952380D01*
X186952380Y-68095238D01*
X186857142Y-68190476D01*
X186761904Y-68238095D01*
X188190476Y-67952380D02*
X188000000Y-67952380D01*
X187904761Y-68000000D01*
X187857142Y-68047619D01*
X187761904Y-68190476D01*
X187714285Y-68380952D01*
X187714285Y-68761904D01*
X187761904Y-68857142D01*
X187809523Y-68904761D01*
X187904761Y-68952380D01*
X188095238Y-68952380D01*
X188190476Y-68904761D01*
X188238095Y-68857142D01*
X188285714Y-68761904D01*
X188285714Y-68523809D01*
X188238095Y-68428571D01*
X188190476Y-68380952D01*
X188095238Y-68333333D01*
X187904761Y-68333333D01*
X187809523Y-68380952D01*
X187761904Y-68428571D01*
X187714285Y-68523809D01*
X202261904Y-70628571D02*
X202595238Y-70628571D01*
X202738095Y-71152380D02*
X202261904Y-71152380D01*
X202261904Y-70152380D01*
X202738095Y-70152380D01*
X203166666Y-71152380D02*
X203166666Y-70485714D01*
X203166666Y-70676190D02*
X203214285Y-70580952D01*
X203261904Y-70533333D01*
X203357142Y-70485714D01*
X203452380Y-70485714D01*
X203785714Y-71152380D02*
X203785714Y-70485714D01*
X203785714Y-70676190D02*
X203833333Y-70580952D01*
X203880952Y-70533333D01*
X203976190Y-70485714D01*
X204071428Y-70485714D01*
X204547619Y-71152380D02*
X204452380Y-71104761D01*
X204404761Y-71057142D01*
X204357142Y-70961904D01*
X204357142Y-70676190D01*
X204404761Y-70580952D01*
X204452380Y-70533333D01*
X204547619Y-70485714D01*
X204690476Y-70485714D01*
X204785714Y-70533333D01*
X204833333Y-70580952D01*
X204880952Y-70676190D01*
X204880952Y-70961904D01*
X204833333Y-71057142D01*
X204785714Y-71104761D01*
X204690476Y-71152380D01*
X204547619Y-71152380D01*
X205309523Y-71152380D02*
X205309523Y-70485714D01*
X205309523Y-70676190D02*
X205357142Y-70580952D01*
X205404761Y-70533333D01*
X205500000Y-70485714D01*
X205595238Y-70485714D01*
X205690476Y-71247619D02*
X206452380Y-71247619D01*
X206880952Y-70152380D02*
X207071428Y-70152380D01*
X207166666Y-70200000D01*
X207261904Y-70295238D01*
X207309523Y-70485714D01*
X207309523Y-70819047D01*
X207261904Y-71009523D01*
X207166666Y-71104761D01*
X207071428Y-71152380D01*
X206880952Y-71152380D01*
X206785714Y-71104761D01*
X206690476Y-71009523D01*
X206642857Y-70819047D01*
X206642857Y-70485714D01*
X206690476Y-70295238D01*
X206785714Y-70200000D01*
X206880952Y-70152380D01*
X208166666Y-70485714D02*
X208166666Y-71152380D01*
X207738095Y-70485714D02*
X207738095Y-71009523D01*
X207785714Y-71104761D01*
X207880952Y-71152380D01*
X208023809Y-71152380D01*
X208119047Y-71104761D01*
X208166666Y-71057142D01*
X208500000Y-70485714D02*
X208880952Y-70485714D01*
X208642857Y-70152380D02*
X208642857Y-71009523D01*
X208690476Y-71104761D01*
X208785714Y-71152380D01*
X208880952Y-71152380D01*
X204438095Y-141752380D02*
X204104761Y-141276190D01*
X203866666Y-141752380D02*
X203866666Y-140752380D01*
X204247619Y-140752380D01*
X204342857Y-140800000D01*
X204390476Y-140847619D01*
X204438095Y-140942857D01*
X204438095Y-141085714D01*
X204390476Y-141180952D01*
X204342857Y-141228571D01*
X204247619Y-141276190D01*
X203866666Y-141276190D01*
X205200000Y-141228571D02*
X204866666Y-141228571D01*
X204866666Y-141752380D02*
X204866666Y-140752380D01*
X205342857Y-140752380D01*
X205485714Y-141847619D02*
X206247619Y-141847619D01*
X206676190Y-140752380D02*
X206866666Y-140752380D01*
X206961904Y-140800000D01*
X207057142Y-140895238D01*
X207104761Y-141085714D01*
X207104761Y-141419047D01*
X207057142Y-141609523D01*
X206961904Y-141704761D01*
X206866666Y-141752380D01*
X206676190Y-141752380D01*
X206580952Y-141704761D01*
X206485714Y-141609523D01*
X206438095Y-141419047D01*
X206438095Y-141085714D01*
X206485714Y-140895238D01*
X206580952Y-140800000D01*
X206676190Y-140752380D01*
X207961904Y-141085714D02*
X207961904Y-141752380D01*
X207533333Y-141085714D02*
X207533333Y-141609523D01*
X207580952Y-141704761D01*
X207676190Y-141752380D01*
X207819047Y-141752380D01*
X207914285Y-141704761D01*
X207961904Y-141657142D01*
X208295238Y-141085714D02*
X208676190Y-141085714D01*
X208438095Y-140752380D02*
X208438095Y-141609523D01*
X208485714Y-141704761D01*
X208580952Y-141752380D01*
X208676190Y-141752380D01*
X105771428Y-73197142D02*
X105771428Y-72435238D01*
X106152380Y-72816190D02*
X105390476Y-72816190D01*
X105152380Y-71482857D02*
X105152380Y-71959047D01*
X105628571Y-72006666D01*
X105580952Y-71959047D01*
X105533333Y-71863809D01*
X105533333Y-71625714D01*
X105580952Y-71530476D01*
X105628571Y-71482857D01*
X105723809Y-71435238D01*
X105961904Y-71435238D01*
X106057142Y-71482857D01*
X106104761Y-71530476D01*
X106152380Y-71625714D01*
X106152380Y-71863809D01*
X106104761Y-71959047D01*
X106057142Y-72006666D01*
X105152380Y-71149523D02*
X106152380Y-70816190D01*
X105152380Y-70482857D01*
X105200000Y-68101904D02*
X105152380Y-68197142D01*
X105152380Y-68340000D01*
X105200000Y-68482857D01*
X105295238Y-68578095D01*
X105390476Y-68625714D01*
X105580952Y-68673333D01*
X105723809Y-68673333D01*
X105914285Y-68625714D01*
X106009523Y-68578095D01*
X106104761Y-68482857D01*
X106152380Y-68340000D01*
X106152380Y-68244761D01*
X106104761Y-68101904D01*
X106057142Y-68054285D01*
X105723809Y-68054285D01*
X105723809Y-68244761D01*
X106152380Y-67625714D02*
X105152380Y-67625714D01*
X106152380Y-67054285D01*
X105152380Y-67054285D01*
X106152380Y-66578095D02*
X105152380Y-66578095D01*
X105152380Y-66340000D01*
X105200000Y-66197142D01*
X105295238Y-66101904D01*
X105390476Y-66054285D01*
X105580952Y-66006666D01*
X105723809Y-66006666D01*
X105914285Y-66054285D01*
X106009523Y-66101904D01*
X106104761Y-66197142D01*
X106152380Y-66340000D01*
X106152380Y-66578095D01*
X105771428Y-64054285D02*
X105771428Y-63292380D01*
X105152380Y-62340000D02*
X105152380Y-62816190D01*
X105628571Y-62863809D01*
X105580952Y-62816190D01*
X105533333Y-62720952D01*
X105533333Y-62482857D01*
X105580952Y-62387619D01*
X105628571Y-62340000D01*
X105723809Y-62292380D01*
X105961904Y-62292380D01*
X106057142Y-62340000D01*
X106104761Y-62387619D01*
X106152380Y-62482857D01*
X106152380Y-62720952D01*
X106104761Y-62816190D01*
X106057142Y-62863809D01*
X105152380Y-62006666D02*
X106152380Y-61673333D01*
X105152380Y-61340000D01*
X101952380Y-72067285D02*
X101952380Y-72638714D01*
X101952380Y-72353000D02*
X100952380Y-72353000D01*
X101095238Y-72448238D01*
X101190476Y-72543476D01*
X101238095Y-72638714D01*
X70371428Y-105909523D02*
X70371428Y-105147619D01*
X70752380Y-105528571D02*
X69990476Y-105528571D01*
X70752380Y-104147619D02*
X70752380Y-104719047D01*
X70752380Y-104433333D02*
X69752380Y-104433333D01*
X69895238Y-104528571D01*
X69990476Y-104623809D01*
X70038095Y-104719047D01*
X69752380Y-103242857D02*
X69752380Y-103719047D01*
X70228571Y-103766666D01*
X70180952Y-103719047D01*
X70133333Y-103623809D01*
X70133333Y-103385714D01*
X70180952Y-103290476D01*
X70228571Y-103242857D01*
X70323809Y-103195238D01*
X70561904Y-103195238D01*
X70657142Y-103242857D01*
X70704761Y-103290476D01*
X70752380Y-103385714D01*
X70752380Y-103623809D01*
X70704761Y-103719047D01*
X70657142Y-103766666D01*
X69752380Y-102909523D02*
X70752380Y-102576190D01*
X69752380Y-102242857D01*
X69800000Y-99861904D02*
X69752380Y-99957142D01*
X69752380Y-100100000D01*
X69800000Y-100242857D01*
X69895238Y-100338095D01*
X69990476Y-100385714D01*
X70180952Y-100433333D01*
X70323809Y-100433333D01*
X70514285Y-100385714D01*
X70609523Y-100338095D01*
X70704761Y-100242857D01*
X70752380Y-100100000D01*
X70752380Y-100004761D01*
X70704761Y-99861904D01*
X70657142Y-99814285D01*
X70323809Y-99814285D01*
X70323809Y-100004761D01*
X70752380Y-99385714D02*
X69752380Y-99385714D01*
X70752380Y-98814285D01*
X69752380Y-98814285D01*
X70752380Y-98338095D02*
X69752380Y-98338095D01*
X69752380Y-98100000D01*
X69800000Y-97957142D01*
X69895238Y-97861904D01*
X69990476Y-97814285D01*
X70180952Y-97766666D01*
X70323809Y-97766666D01*
X70514285Y-97814285D01*
X70609523Y-97861904D01*
X70704761Y-97957142D01*
X70752380Y-98100000D01*
X70752380Y-98338095D01*
X70371428Y-95814285D02*
X70371428Y-95052380D01*
X70752380Y-94052380D02*
X70752380Y-94623809D01*
X70752380Y-94338095D02*
X69752380Y-94338095D01*
X69895238Y-94433333D01*
X69990476Y-94528571D01*
X70038095Y-94623809D01*
X69752380Y-93147619D02*
X69752380Y-93623809D01*
X70228571Y-93671428D01*
X70180952Y-93623809D01*
X70133333Y-93528571D01*
X70133333Y-93290476D01*
X70180952Y-93195238D01*
X70228571Y-93147619D01*
X70323809Y-93100000D01*
X70561904Y-93100000D01*
X70657142Y-93147619D01*
X70704761Y-93195238D01*
X70752380Y-93290476D01*
X70752380Y-93528571D01*
X70704761Y-93623809D01*
X70657142Y-93671428D01*
X69752380Y-92814285D02*
X70752380Y-92480952D01*
X69752380Y-92147619D01*
X66852380Y-103727285D02*
X66852380Y-104298714D01*
X66852380Y-104013000D02*
X65852380Y-104013000D01*
X65995238Y-104108238D01*
X66090476Y-104203476D01*
X66138095Y-104298714D01*
X131587142Y-112666666D02*
X131634761Y-112714285D01*
X131682380Y-112857142D01*
X131682380Y-112952380D01*
X131634761Y-113095238D01*
X131539523Y-113190476D01*
X131444285Y-113238095D01*
X131253809Y-113285714D01*
X131110952Y-113285714D01*
X130920476Y-113238095D01*
X130825238Y-113190476D01*
X130730000Y-113095238D01*
X130682380Y-112952380D01*
X130682380Y-112857142D01*
X130730000Y-112714285D01*
X130777619Y-112666666D01*
X131682380Y-111714285D02*
X131682380Y-112285714D01*
X131682380Y-112000000D02*
X130682380Y-112000000D01*
X130825238Y-112095238D01*
X130920476Y-112190476D01*
X130968095Y-112285714D01*
X76557142Y-98066666D02*
X76604761Y-98114285D01*
X76652380Y-98257142D01*
X76652380Y-98352380D01*
X76604761Y-98495238D01*
X76509523Y-98590476D01*
X76414285Y-98638095D01*
X76223809Y-98685714D01*
X76080952Y-98685714D01*
X75890476Y-98638095D01*
X75795238Y-98590476D01*
X75700000Y-98495238D01*
X75652380Y-98352380D01*
X75652380Y-98257142D01*
X75700000Y-98114285D01*
X75747619Y-98066666D01*
X76080952Y-97495238D02*
X76033333Y-97590476D01*
X75985714Y-97638095D01*
X75890476Y-97685714D01*
X75842857Y-97685714D01*
X75747619Y-97638095D01*
X75700000Y-97590476D01*
X75652380Y-97495238D01*
X75652380Y-97304761D01*
X75700000Y-97209523D01*
X75747619Y-97161904D01*
X75842857Y-97114285D01*
X75890476Y-97114285D01*
X75985714Y-97161904D01*
X76033333Y-97209523D01*
X76080952Y-97304761D01*
X76080952Y-97495238D01*
X76128571Y-97590476D01*
X76176190Y-97638095D01*
X76271428Y-97685714D01*
X76461904Y-97685714D01*
X76557142Y-97638095D01*
X76604761Y-97590476D01*
X76652380Y-97495238D01*
X76652380Y-97304761D01*
X76604761Y-97209523D01*
X76557142Y-97161904D01*
X76461904Y-97114285D01*
X76271428Y-97114285D01*
X76176190Y-97161904D01*
X76128571Y-97209523D01*
X76080952Y-97304761D01*
X161933333Y-94057142D02*
X161885714Y-94104761D01*
X161742857Y-94152380D01*
X161647619Y-94152380D01*
X161504761Y-94104761D01*
X161409523Y-94009523D01*
X161361904Y-93914285D01*
X161314285Y-93723809D01*
X161314285Y-93580952D01*
X161361904Y-93390476D01*
X161409523Y-93295238D01*
X161504761Y-93200000D01*
X161647619Y-93152380D01*
X161742857Y-93152380D01*
X161885714Y-93200000D01*
X161933333Y-93247619D01*
X162409523Y-94152380D02*
X162600000Y-94152380D01*
X162695238Y-94104761D01*
X162742857Y-94057142D01*
X162838095Y-93914285D01*
X162885714Y-93723809D01*
X162885714Y-93342857D01*
X162838095Y-93247619D01*
X162790476Y-93200000D01*
X162695238Y-93152380D01*
X162504761Y-93152380D01*
X162409523Y-93200000D01*
X162361904Y-93247619D01*
X162314285Y-93342857D01*
X162314285Y-93580952D01*
X162361904Y-93676190D01*
X162409523Y-93723809D01*
X162504761Y-93771428D01*
X162695238Y-93771428D01*
X162790476Y-93723809D01*
X162838095Y-93676190D01*
X162885714Y-93580952D01*
X164957142Y-94057142D02*
X164909523Y-94104761D01*
X164766666Y-94152380D01*
X164671428Y-94152380D01*
X164528571Y-94104761D01*
X164433333Y-94009523D01*
X164385714Y-93914285D01*
X164338095Y-93723809D01*
X164338095Y-93580952D01*
X164385714Y-93390476D01*
X164433333Y-93295238D01*
X164528571Y-93200000D01*
X164671428Y-93152380D01*
X164766666Y-93152380D01*
X164909523Y-93200000D01*
X164957142Y-93247619D01*
X165814285Y-93485714D02*
X165814285Y-94152380D01*
X165576190Y-93104761D02*
X165338095Y-93819047D01*
X165957142Y-93819047D01*
X166242857Y-93152380D02*
X166861904Y-93152380D01*
X166528571Y-93533333D01*
X166671428Y-93533333D01*
X166766666Y-93580952D01*
X166814285Y-93628571D01*
X166861904Y-93723809D01*
X166861904Y-93961904D01*
X166814285Y-94057142D01*
X166766666Y-94104761D01*
X166671428Y-94152380D01*
X166385714Y-94152380D01*
X166290476Y-94104761D01*
X166242857Y-94057142D01*
D13*
X78157619Y-56893333D02*
X80252857Y-56893333D01*
X77738571Y-58150476D02*
X79205238Y-53750476D01*
X80671904Y-58150476D01*
X82138571Y-58150476D02*
X82138571Y-53750476D01*
X83814761Y-53750476D01*
X84233809Y-53960000D01*
X84443333Y-54169523D01*
X84652857Y-54588571D01*
X84652857Y-55217142D01*
X84443333Y-55636190D01*
X84233809Y-55845714D01*
X83814761Y-56055238D01*
X82138571Y-56055238D01*
X89471904Y-58569523D02*
X89052857Y-58360000D01*
X88633809Y-57940952D01*
X88005238Y-57312380D01*
X87586190Y-57102857D01*
X87167142Y-57102857D01*
X87376666Y-58150476D02*
X86957619Y-57940952D01*
X86538571Y-57521904D01*
X86329047Y-56683809D01*
X86329047Y-55217142D01*
X86538571Y-54379047D01*
X86957619Y-53960000D01*
X87376666Y-53750476D01*
X88214761Y-53750476D01*
X88633809Y-53960000D01*
X89052857Y-54379047D01*
X89262380Y-55217142D01*
X89262380Y-56683809D01*
X89052857Y-57521904D01*
X88633809Y-57940952D01*
X88214761Y-58150476D01*
X87376666Y-58150476D01*
D11*
X82482380Y-97166666D02*
X82006190Y-97500000D01*
X82482380Y-97738095D02*
X81482380Y-97738095D01*
X81482380Y-97357142D01*
X81530000Y-97261904D01*
X81577619Y-97214285D01*
X81672857Y-97166666D01*
X81815714Y-97166666D01*
X81910952Y-97214285D01*
X81958571Y-97261904D01*
X82006190Y-97357142D01*
X82006190Y-97738095D01*
X81815714Y-96309523D02*
X82482380Y-96309523D01*
X81434761Y-96547619D02*
X82149047Y-96785714D01*
X82149047Y-96166666D01*
X125457142Y-121452380D02*
X125123809Y-120976190D01*
X124885714Y-121452380D02*
X124885714Y-120452380D01*
X125266666Y-120452380D01*
X125361904Y-120500000D01*
X125409523Y-120547619D01*
X125457142Y-120642857D01*
X125457142Y-120785714D01*
X125409523Y-120880952D01*
X125361904Y-120928571D01*
X125266666Y-120976190D01*
X124885714Y-120976190D01*
X126409523Y-121452380D02*
X125838095Y-121452380D01*
X126123809Y-121452380D02*
X126123809Y-120452380D01*
X126028571Y-120595238D01*
X125933333Y-120690476D01*
X125838095Y-120738095D01*
X127266666Y-120785714D02*
X127266666Y-121452380D01*
X127028571Y-120404761D02*
X126790476Y-121119047D01*
X127409523Y-121119047D01*
X191452380Y-123742857D02*
X190976190Y-124076190D01*
X191452380Y-124314285D02*
X190452380Y-124314285D01*
X190452380Y-123933333D01*
X190500000Y-123838095D01*
X190547619Y-123790476D01*
X190642857Y-123742857D01*
X190785714Y-123742857D01*
X190880952Y-123790476D01*
X190928571Y-123838095D01*
X190976190Y-123933333D01*
X190976190Y-124314285D01*
X190452380Y-123409523D02*
X190452380Y-122790476D01*
X190833333Y-123123809D01*
X190833333Y-122980952D01*
X190880952Y-122885714D01*
X190928571Y-122838095D01*
X191023809Y-122790476D01*
X191261904Y-122790476D01*
X191357142Y-122838095D01*
X191404761Y-122885714D01*
X191452380Y-122980952D01*
X191452380Y-123266666D01*
X191404761Y-123361904D01*
X191357142Y-123409523D01*
X190452380Y-122171428D02*
X190452380Y-122076190D01*
X190500000Y-121980952D01*
X190547619Y-121933333D01*
X190642857Y-121885714D01*
X190833333Y-121838095D01*
X191071428Y-121838095D01*
X191261904Y-121885714D01*
X191357142Y-121933333D01*
X191404761Y-121980952D01*
X191452380Y-122076190D01*
X191452380Y-122171428D01*
X191404761Y-122266666D01*
X191357142Y-122314285D01*
X191261904Y-122361904D01*
X191071428Y-122409523D01*
X190833333Y-122409523D01*
X190642857Y-122361904D01*
X190547619Y-122314285D01*
X190500000Y-122266666D01*
X190452380Y-122171428D01*
X193152380Y-128142857D02*
X192676190Y-128476190D01*
X193152380Y-128714285D02*
X192152380Y-128714285D01*
X192152380Y-128333333D01*
X192200000Y-128238095D01*
X192247619Y-128190476D01*
X192342857Y-128142857D01*
X192485714Y-128142857D01*
X192580952Y-128190476D01*
X192628571Y-128238095D01*
X192676190Y-128333333D01*
X192676190Y-128714285D01*
X192152380Y-127809523D02*
X192152380Y-127190476D01*
X192533333Y-127523809D01*
X192533333Y-127380952D01*
X192580952Y-127285714D01*
X192628571Y-127238095D01*
X192723809Y-127190476D01*
X192961904Y-127190476D01*
X193057142Y-127238095D01*
X193104761Y-127285714D01*
X193152380Y-127380952D01*
X193152380Y-127666666D01*
X193104761Y-127761904D01*
X193057142Y-127809523D01*
X193152380Y-126238095D02*
X193152380Y-126809523D01*
X193152380Y-126523809D02*
X192152380Y-126523809D01*
X192295238Y-126619047D01*
X192390476Y-126714285D01*
X192438095Y-126809523D01*
X159952380Y-93242857D02*
X159476190Y-93576190D01*
X159952380Y-93814285D02*
X158952380Y-93814285D01*
X158952380Y-93433333D01*
X159000000Y-93338095D01*
X159047619Y-93290476D01*
X159142857Y-93242857D01*
X159285714Y-93242857D01*
X159380952Y-93290476D01*
X159428571Y-93338095D01*
X159476190Y-93433333D01*
X159476190Y-93814285D01*
X158952380Y-92909523D02*
X158952380Y-92290476D01*
X159333333Y-92623809D01*
X159333333Y-92480952D01*
X159380952Y-92385714D01*
X159428571Y-92338095D01*
X159523809Y-92290476D01*
X159761904Y-92290476D01*
X159857142Y-92338095D01*
X159904761Y-92385714D01*
X159952380Y-92480952D01*
X159952380Y-92766666D01*
X159904761Y-92861904D01*
X159857142Y-92909523D01*
X159047619Y-91909523D02*
X159000000Y-91861904D01*
X158952380Y-91766666D01*
X158952380Y-91528571D01*
X159000000Y-91433333D01*
X159047619Y-91385714D01*
X159142857Y-91338095D01*
X159238095Y-91338095D01*
X159380952Y-91385714D01*
X159952380Y-91957142D01*
X159952380Y-91338095D01*
X160152380Y-83842857D02*
X159676190Y-84176190D01*
X160152380Y-84414285D02*
X159152380Y-84414285D01*
X159152380Y-84033333D01*
X159200000Y-83938095D01*
X159247619Y-83890476D01*
X159342857Y-83842857D01*
X159485714Y-83842857D01*
X159580952Y-83890476D01*
X159628571Y-83938095D01*
X159676190Y-84033333D01*
X159676190Y-84414285D01*
X159152380Y-83509523D02*
X159152380Y-82890476D01*
X159533333Y-83223809D01*
X159533333Y-83080952D01*
X159580952Y-82985714D01*
X159628571Y-82938095D01*
X159723809Y-82890476D01*
X159961904Y-82890476D01*
X160057142Y-82938095D01*
X160104761Y-82985714D01*
X160152380Y-83080952D01*
X160152380Y-83366666D01*
X160104761Y-83461904D01*
X160057142Y-83509523D01*
X159152380Y-82557142D02*
X159152380Y-81938095D01*
X159533333Y-82271428D01*
X159533333Y-82128571D01*
X159580952Y-82033333D01*
X159628571Y-81985714D01*
X159723809Y-81938095D01*
X159961904Y-81938095D01*
X160057142Y-81985714D01*
X160104761Y-82033333D01*
X160152380Y-82128571D01*
X160152380Y-82414285D01*
X160104761Y-82509523D01*
X160057142Y-82557142D01*
X77838095Y-88402380D02*
X77838095Y-89211904D01*
X77885714Y-89307142D01*
X77933333Y-89354761D01*
X78028571Y-89402380D01*
X78219047Y-89402380D01*
X78314285Y-89354761D01*
X78361904Y-89307142D01*
X78409523Y-89211904D01*
X78409523Y-88402380D01*
X79409523Y-89402380D02*
X78838095Y-89402380D01*
X79123809Y-89402380D02*
X79123809Y-88402380D01*
X79028571Y-88545238D01*
X78933333Y-88640476D01*
X78838095Y-88688095D01*
X177561904Y-80364380D02*
X177561904Y-81173904D01*
X177609523Y-81269142D01*
X177657142Y-81316761D01*
X177752380Y-81364380D01*
X177942857Y-81364380D01*
X178038095Y-81316761D01*
X178085714Y-81269142D01*
X178133333Y-81173904D01*
X178133333Y-80364380D01*
X179133333Y-81364380D02*
X178561904Y-81364380D01*
X178847619Y-81364380D02*
X178847619Y-80364380D01*
X178752380Y-80507238D01*
X178657142Y-80602476D01*
X178561904Y-80650095D01*
X180038095Y-80364380D02*
X179561904Y-80364380D01*
X179514285Y-80840571D01*
X179561904Y-80792952D01*
X179657142Y-80745333D01*
X179895238Y-80745333D01*
X179990476Y-80792952D01*
X180038095Y-80840571D01*
X180085714Y-80935809D01*
X180085714Y-81173904D01*
X180038095Y-81269142D01*
X179990476Y-81316761D01*
X179895238Y-81364380D01*
X179657142Y-81364380D01*
X179561904Y-81316761D01*
X179514285Y-81269142D01*
X64772380Y-76698095D02*
X65581904Y-76698095D01*
X65677142Y-76650476D01*
X65724761Y-76602857D01*
X65772380Y-76507619D01*
X65772380Y-76317142D01*
X65724761Y-76221904D01*
X65677142Y-76174285D01*
X65581904Y-76126666D01*
X64772380Y-76126666D01*
X65772380Y-75126666D02*
X65772380Y-75698095D01*
X65772380Y-75412380D02*
X64772380Y-75412380D01*
X64915238Y-75507619D01*
X65010476Y-75602857D01*
X65058095Y-75698095D01*
X65772380Y-74174285D02*
X65772380Y-74745714D01*
X65772380Y-74460000D02*
X64772380Y-74460000D01*
X64915238Y-74555238D01*
X65010476Y-74650476D01*
X65058095Y-74745714D01*
X140228571Y-97552380D02*
X140228571Y-96552380D01*
X140609523Y-96552380D01*
X140704761Y-96600000D01*
X140752380Y-96647619D01*
X140800000Y-96742857D01*
X140800000Y-96885714D01*
X140752380Y-96980952D01*
X140704761Y-97028571D01*
X140609523Y-97076190D01*
X140228571Y-97076190D01*
X141704761Y-97552380D02*
X141228571Y-97552380D01*
X141228571Y-96552380D01*
X142514285Y-97552380D02*
X142038095Y-97552380D01*
X142038095Y-96552380D01*
X162857142Y-84782380D02*
X162523809Y-84306190D01*
X162285714Y-84782380D02*
X162285714Y-83782380D01*
X162666666Y-83782380D01*
X162761904Y-83830000D01*
X162809523Y-83877619D01*
X162857142Y-83972857D01*
X162857142Y-84115714D01*
X162809523Y-84210952D01*
X162761904Y-84258571D01*
X162666666Y-84306190D01*
X162285714Y-84306190D01*
X163238095Y-83877619D02*
X163285714Y-83830000D01*
X163380952Y-83782380D01*
X163619047Y-83782380D01*
X163714285Y-83830000D01*
X163761904Y-83877619D01*
X163809523Y-83972857D01*
X163809523Y-84068095D01*
X163761904Y-84210952D01*
X163190476Y-84782380D01*
X163809523Y-84782380D01*
X164380952Y-84210952D02*
X164285714Y-84163333D01*
X164238095Y-84115714D01*
X164190476Y-84020476D01*
X164190476Y-83972857D01*
X164238095Y-83877619D01*
X164285714Y-83830000D01*
X164380952Y-83782380D01*
X164571428Y-83782380D01*
X164666666Y-83830000D01*
X164714285Y-83877619D01*
X164761904Y-83972857D01*
X164761904Y-84020476D01*
X164714285Y-84115714D01*
X164666666Y-84163333D01*
X164571428Y-84210952D01*
X164380952Y-84210952D01*
X164285714Y-84258571D01*
X164238095Y-84306190D01*
X164190476Y-84401428D01*
X164190476Y-84591904D01*
X164238095Y-84687142D01*
X164285714Y-84734761D01*
X164380952Y-84782380D01*
X164571428Y-84782380D01*
X164666666Y-84734761D01*
X164714285Y-84687142D01*
X164761904Y-84591904D01*
X164761904Y-84401428D01*
X164714285Y-84306190D01*
X164666666Y-84258571D01*
X164571428Y-84210952D01*
X167238095Y-106652380D02*
X167238095Y-107461904D01*
X167285714Y-107557142D01*
X167333333Y-107604761D01*
X167428571Y-107652380D01*
X167619047Y-107652380D01*
X167714285Y-107604761D01*
X167761904Y-107557142D01*
X167809523Y-107461904D01*
X167809523Y-106652380D01*
X168428571Y-107080952D02*
X168333333Y-107033333D01*
X168285714Y-106985714D01*
X168238095Y-106890476D01*
X168238095Y-106842857D01*
X168285714Y-106747619D01*
X168333333Y-106700000D01*
X168428571Y-106652380D01*
X168619047Y-106652380D01*
X168714285Y-106700000D01*
X168761904Y-106747619D01*
X168809523Y-106842857D01*
X168809523Y-106890476D01*
X168761904Y-106985714D01*
X168714285Y-107033333D01*
X168619047Y-107080952D01*
X168428571Y-107080952D01*
X168333333Y-107128571D01*
X168285714Y-107176190D01*
X168238095Y-107271428D01*
X168238095Y-107461904D01*
X168285714Y-107557142D01*
X168333333Y-107604761D01*
X168428571Y-107652380D01*
X168619047Y-107652380D01*
X168714285Y-107604761D01*
X168761904Y-107557142D01*
X168809523Y-107461904D01*
X168809523Y-107271428D01*
X168761904Y-107176190D01*
X168714285Y-107128571D01*
X168619047Y-107080952D01*
X118452380Y-68173333D02*
X119166666Y-68173333D01*
X119309523Y-68220952D01*
X119404761Y-68316190D01*
X119452380Y-68459047D01*
X119452380Y-68554285D01*
X118547619Y-67744761D02*
X118500000Y-67697142D01*
X118452380Y-67601904D01*
X118452380Y-67363809D01*
X118500000Y-67268571D01*
X118547619Y-67220952D01*
X118642857Y-67173333D01*
X118738095Y-67173333D01*
X118880952Y-67220952D01*
X119452380Y-67792380D01*
X119452380Y-67173333D01*
X123652380Y-72267285D02*
X123652380Y-72838714D01*
X123652380Y-72553000D02*
X122652380Y-72553000D01*
X122795238Y-72648238D01*
X122890476Y-72743476D01*
X122938095Y-72838714D01*
X200052380Y-115609523D02*
X199052380Y-115609523D01*
X199766666Y-115276190D01*
X199052380Y-114942857D01*
X200052380Y-114942857D01*
X200052380Y-114323809D02*
X200004761Y-114419047D01*
X199957142Y-114466666D01*
X199861904Y-114514285D01*
X199576190Y-114514285D01*
X199480952Y-114466666D01*
X199433333Y-114419047D01*
X199385714Y-114323809D01*
X199385714Y-114180952D01*
X199433333Y-114085714D01*
X199480952Y-114038095D01*
X199576190Y-113990476D01*
X199861904Y-113990476D01*
X199957142Y-114038095D01*
X200004761Y-114085714D01*
X200052380Y-114180952D01*
X200052380Y-114323809D01*
X200052380Y-113133333D02*
X199052380Y-113133333D01*
X200004761Y-113133333D02*
X200052380Y-113228571D01*
X200052380Y-113419047D01*
X200004761Y-113514285D01*
X199957142Y-113561904D01*
X199861904Y-113609523D01*
X199576190Y-113609523D01*
X199480952Y-113561904D01*
X199433333Y-113514285D01*
X199385714Y-113419047D01*
X199385714Y-113228571D01*
X199433333Y-113133333D01*
X200147619Y-112895238D02*
X200147619Y-112133333D01*
X200052380Y-111895238D02*
X199052380Y-111895238D01*
X199385714Y-111419047D02*
X200052380Y-111419047D01*
X199480952Y-111419047D02*
X199433333Y-111371428D01*
X199385714Y-111276190D01*
X199385714Y-111133333D01*
X199433333Y-111038095D01*
X199528571Y-110990476D01*
X200052380Y-110990476D01*
X83457142Y-63157142D02*
X83409523Y-63204761D01*
X83266666Y-63252380D01*
X83171428Y-63252380D01*
X83028571Y-63204761D01*
X82933333Y-63109523D01*
X82885714Y-63014285D01*
X82838095Y-62823809D01*
X82838095Y-62680952D01*
X82885714Y-62490476D01*
X82933333Y-62395238D01*
X83028571Y-62300000D01*
X83171428Y-62252380D01*
X83266666Y-62252380D01*
X83409523Y-62300000D01*
X83457142Y-62347619D01*
X83790476Y-62252380D02*
X84409523Y-62252380D01*
X84076190Y-62633333D01*
X84219047Y-62633333D01*
X84314285Y-62680952D01*
X84361904Y-62728571D01*
X84409523Y-62823809D01*
X84409523Y-63061904D01*
X84361904Y-63157142D01*
X84314285Y-63204761D01*
X84219047Y-63252380D01*
X83933333Y-63252380D01*
X83838095Y-63204761D01*
X83790476Y-63157142D01*
X85314285Y-62252380D02*
X84838095Y-62252380D01*
X84790476Y-62728571D01*
X84838095Y-62680952D01*
X84933333Y-62633333D01*
X85171428Y-62633333D01*
X85266666Y-62680952D01*
X85314285Y-62728571D01*
X85361904Y-62823809D01*
X85361904Y-63061904D01*
X85314285Y-63157142D01*
X85266666Y-63204761D01*
X85171428Y-63252380D01*
X84933333Y-63252380D01*
X84838095Y-63204761D01*
X84790476Y-63157142D01*
X92952380Y-135838095D02*
X91952380Y-135838095D01*
X91952380Y-135600000D01*
X92000000Y-135457142D01*
X92095238Y-135361904D01*
X92190476Y-135314285D01*
X92380952Y-135266666D01*
X92523809Y-135266666D01*
X92714285Y-135314285D01*
X92809523Y-135361904D01*
X92904761Y-135457142D01*
X92952380Y-135600000D01*
X92952380Y-135838095D01*
X91952380Y-134361904D02*
X91952380Y-134838095D01*
X92428571Y-134885714D01*
X92380952Y-134838095D01*
X92333333Y-134742857D01*
X92333333Y-134504761D01*
X92380952Y-134409523D01*
X92428571Y-134361904D01*
X92523809Y-134314285D01*
X92761904Y-134314285D01*
X92857142Y-134361904D01*
X92904761Y-134409523D01*
X92952380Y-134504761D01*
X92952380Y-134742857D01*
X92904761Y-134838095D01*
X92857142Y-134885714D01*
X188057142Y-83652380D02*
X187723809Y-83176190D01*
X187485714Y-83652380D02*
X187485714Y-82652380D01*
X187866666Y-82652380D01*
X187961904Y-82700000D01*
X188009523Y-82747619D01*
X188057142Y-82842857D01*
X188057142Y-82985714D01*
X188009523Y-83080952D01*
X187961904Y-83128571D01*
X187866666Y-83176190D01*
X187485714Y-83176190D01*
X188438095Y-82747619D02*
X188485714Y-82700000D01*
X188580952Y-82652380D01*
X188819047Y-82652380D01*
X188914285Y-82700000D01*
X188961904Y-82747619D01*
X189009523Y-82842857D01*
X189009523Y-82938095D01*
X188961904Y-83080952D01*
X188390476Y-83652380D01*
X189009523Y-83652380D01*
X189961904Y-83652380D02*
X189390476Y-83652380D01*
X189676190Y-83652380D02*
X189676190Y-82652380D01*
X189580952Y-82795238D01*
X189485714Y-82890476D01*
X189390476Y-82938095D01*
X193057142Y-139337142D02*
X193009523Y-139384761D01*
X192866666Y-139432380D01*
X192771428Y-139432380D01*
X192628571Y-139384761D01*
X192533333Y-139289523D01*
X192485714Y-139194285D01*
X192438095Y-139003809D01*
X192438095Y-138860952D01*
X192485714Y-138670476D01*
X192533333Y-138575238D01*
X192628571Y-138480000D01*
X192771428Y-138432380D01*
X192866666Y-138432380D01*
X193009523Y-138480000D01*
X193057142Y-138527619D01*
X193914285Y-138765714D02*
X193914285Y-139432380D01*
X193676190Y-138384761D02*
X193438095Y-139099047D01*
X194057142Y-139099047D01*
X194866666Y-138765714D02*
X194866666Y-139432380D01*
X194628571Y-138384761D02*
X194390476Y-139099047D01*
X195009523Y-139099047D01*
X151052380Y-126642857D02*
X150576190Y-126976190D01*
X151052380Y-127214285D02*
X150052380Y-127214285D01*
X150052380Y-126833333D01*
X150100000Y-126738095D01*
X150147619Y-126690476D01*
X150242857Y-126642857D01*
X150385714Y-126642857D01*
X150480952Y-126690476D01*
X150528571Y-126738095D01*
X150576190Y-126833333D01*
X150576190Y-127214285D01*
X150052380Y-126309523D02*
X150052380Y-125690476D01*
X150433333Y-126023809D01*
X150433333Y-125880952D01*
X150480952Y-125785714D01*
X150528571Y-125738095D01*
X150623809Y-125690476D01*
X150861904Y-125690476D01*
X150957142Y-125738095D01*
X151004761Y-125785714D01*
X151052380Y-125880952D01*
X151052380Y-126166666D01*
X151004761Y-126261904D01*
X150957142Y-126309523D01*
X150052380Y-124785714D02*
X150052380Y-125261904D01*
X150528571Y-125309523D01*
X150480952Y-125261904D01*
X150433333Y-125166666D01*
X150433333Y-124928571D01*
X150480952Y-124833333D01*
X150528571Y-124785714D01*
X150623809Y-124738095D01*
X150861904Y-124738095D01*
X150957142Y-124785714D01*
X151004761Y-124833333D01*
X151052380Y-124928571D01*
X151052380Y-125166666D01*
X151004761Y-125261904D01*
X150957142Y-125309523D01*
X187957142Y-87027142D02*
X187909523Y-87074761D01*
X187766666Y-87122380D01*
X187671428Y-87122380D01*
X187528571Y-87074761D01*
X187433333Y-86979523D01*
X187385714Y-86884285D01*
X187338095Y-86693809D01*
X187338095Y-86550952D01*
X187385714Y-86360476D01*
X187433333Y-86265238D01*
X187528571Y-86170000D01*
X187671428Y-86122380D01*
X187766666Y-86122380D01*
X187909523Y-86170000D01*
X187957142Y-86217619D01*
X188861904Y-86122380D02*
X188385714Y-86122380D01*
X188338095Y-86598571D01*
X188385714Y-86550952D01*
X188480952Y-86503333D01*
X188719047Y-86503333D01*
X188814285Y-86550952D01*
X188861904Y-86598571D01*
X188909523Y-86693809D01*
X188909523Y-86931904D01*
X188861904Y-87027142D01*
X188814285Y-87074761D01*
X188719047Y-87122380D01*
X188480952Y-87122380D01*
X188385714Y-87074761D01*
X188338095Y-87027142D01*
X189528571Y-86122380D02*
X189623809Y-86122380D01*
X189719047Y-86170000D01*
X189766666Y-86217619D01*
X189814285Y-86312857D01*
X189861904Y-86503333D01*
X189861904Y-86741428D01*
X189814285Y-86931904D01*
X189766666Y-87027142D01*
X189719047Y-87074761D01*
X189623809Y-87122380D01*
X189528571Y-87122380D01*
X189433333Y-87074761D01*
X189385714Y-87027142D01*
X189338095Y-86931904D01*
X189290476Y-86741428D01*
X189290476Y-86503333D01*
X189338095Y-86312857D01*
X189385714Y-86217619D01*
X189433333Y-86170000D01*
X189528571Y-86122380D01*
X93352380Y-122538095D02*
X92352380Y-122538095D01*
X92352380Y-122300000D01*
X92400000Y-122157142D01*
X92495238Y-122061904D01*
X92590476Y-122014285D01*
X92780952Y-121966666D01*
X92923809Y-121966666D01*
X93114285Y-122014285D01*
X93209523Y-122061904D01*
X93304761Y-122157142D01*
X93352380Y-122300000D01*
X93352380Y-122538095D01*
X92352380Y-121109523D02*
X92352380Y-121300000D01*
X92400000Y-121395238D01*
X92447619Y-121442857D01*
X92590476Y-121538095D01*
X92780952Y-121585714D01*
X93161904Y-121585714D01*
X93257142Y-121538095D01*
X93304761Y-121490476D01*
X93352380Y-121395238D01*
X93352380Y-121204761D01*
X93304761Y-121109523D01*
X93257142Y-121061904D01*
X93161904Y-121014285D01*
X92923809Y-121014285D01*
X92828571Y-121061904D01*
X92780952Y-121109523D01*
X92733333Y-121204761D01*
X92733333Y-121395238D01*
X92780952Y-121490476D01*
X92828571Y-121538095D01*
X92923809Y-121585714D01*
X149452380Y-125142857D02*
X148976190Y-125476190D01*
X149452380Y-125714285D02*
X148452380Y-125714285D01*
X148452380Y-125333333D01*
X148500000Y-125238095D01*
X148547619Y-125190476D01*
X148642857Y-125142857D01*
X148785714Y-125142857D01*
X148880952Y-125190476D01*
X148928571Y-125238095D01*
X148976190Y-125333333D01*
X148976190Y-125714285D01*
X148452380Y-124809523D02*
X148452380Y-124190476D01*
X148833333Y-124523809D01*
X148833333Y-124380952D01*
X148880952Y-124285714D01*
X148928571Y-124238095D01*
X149023809Y-124190476D01*
X149261904Y-124190476D01*
X149357142Y-124238095D01*
X149404761Y-124285714D01*
X149452380Y-124380952D01*
X149452380Y-124666666D01*
X149404761Y-124761904D01*
X149357142Y-124809523D01*
X148785714Y-123333333D02*
X149452380Y-123333333D01*
X148404761Y-123571428D02*
X149119047Y-123809523D01*
X149119047Y-123190476D01*
X170357142Y-83742857D02*
X170404761Y-83790476D01*
X170452380Y-83933333D01*
X170452380Y-84028571D01*
X170404761Y-84171428D01*
X170309523Y-84266666D01*
X170214285Y-84314285D01*
X170023809Y-84361904D01*
X169880952Y-84361904D01*
X169690476Y-84314285D01*
X169595238Y-84266666D01*
X169500000Y-84171428D01*
X169452380Y-84028571D01*
X169452380Y-83933333D01*
X169500000Y-83790476D01*
X169547619Y-83742857D01*
X169452380Y-82838095D02*
X169452380Y-83314285D01*
X169928571Y-83361904D01*
X169880952Y-83314285D01*
X169833333Y-83219047D01*
X169833333Y-82980952D01*
X169880952Y-82885714D01*
X169928571Y-82838095D01*
X170023809Y-82790476D01*
X170261904Y-82790476D01*
X170357142Y-82838095D01*
X170404761Y-82885714D01*
X170452380Y-82980952D01*
X170452380Y-83219047D01*
X170404761Y-83314285D01*
X170357142Y-83361904D01*
X170452380Y-81838095D02*
X170452380Y-82409523D01*
X170452380Y-82123809D02*
X169452380Y-82123809D01*
X169595238Y-82219047D01*
X169690476Y-82314285D01*
X169738095Y-82409523D01*
X170352380Y-93442857D02*
X169876190Y-93776190D01*
X170352380Y-94014285D02*
X169352380Y-94014285D01*
X169352380Y-93633333D01*
X169400000Y-93538095D01*
X169447619Y-93490476D01*
X169542857Y-93442857D01*
X169685714Y-93442857D01*
X169780952Y-93490476D01*
X169828571Y-93538095D01*
X169876190Y-93633333D01*
X169876190Y-94014285D01*
X169447619Y-93061904D02*
X169400000Y-93014285D01*
X169352380Y-92919047D01*
X169352380Y-92680952D01*
X169400000Y-92585714D01*
X169447619Y-92538095D01*
X169542857Y-92490476D01*
X169638095Y-92490476D01*
X169780952Y-92538095D01*
X170352380Y-93109523D01*
X170352380Y-92490476D01*
X169447619Y-92109523D02*
X169400000Y-92061904D01*
X169352380Y-91966666D01*
X169352380Y-91728571D01*
X169400000Y-91633333D01*
X169447619Y-91585714D01*
X169542857Y-91538095D01*
X169638095Y-91538095D01*
X169780952Y-91585714D01*
X170352380Y-92157142D01*
X170352380Y-91538095D01*
D14*
X191290000Y-91059420D02*
X191290000Y-91340580D01*
X192310000Y-91059420D02*
X192310000Y-91340580D01*
X164300000Y-86040000D02*
X165100000Y-86040000D01*
X164300000Y-89160000D02*
X163500000Y-89160000D01*
X164300000Y-86040000D02*
X163500000Y-86040000D01*
X164300000Y-89160000D02*
X166100000Y-89160000D01*
X195900000Y-91960000D02*
X195100000Y-91960000D01*
X195900000Y-88840000D02*
X196700000Y-88840000D01*
X195900000Y-91960000D02*
X196700000Y-91960000D01*
X195900000Y-88840000D02*
X194100000Y-88840000D01*
X197110000Y-124362500D02*
X197110000Y-122562500D01*
X193990000Y-124362500D02*
X193990000Y-125162500D01*
X197110000Y-124362500D02*
X197110000Y-125162500D01*
X193990000Y-124362500D02*
X193990000Y-123562500D01*
X153700000Y-121640000D02*
X154500000Y-121640000D01*
X153700000Y-124760000D02*
X152900000Y-124760000D01*
X153700000Y-121640000D02*
X152900000Y-121640000D01*
X153700000Y-124760000D02*
X155500000Y-124760000D01*
X127640000Y-116300000D02*
X127640000Y-115500000D01*
X130760000Y-116300000D02*
X130760000Y-117100000D01*
X127640000Y-116300000D02*
X127640000Y-117100000D01*
X130760000Y-116300000D02*
X130760000Y-114500000D01*
X54660000Y-94050000D02*
X54660000Y-93249000D01*
X54660000Y-61030000D02*
X54660000Y-60229000D01*
X54660000Y-111830000D02*
X54660000Y-111029000D01*
X54660000Y-127070000D02*
X54660000Y-126269000D01*
X54660000Y-66110000D02*
X54660000Y-65309000D01*
X54660000Y-106750000D02*
X54660000Y-105949000D01*
X54660000Y-68650000D02*
X54660000Y-67849000D01*
X54660000Y-76270000D02*
X54660000Y-75469000D01*
X54660000Y-88970000D02*
X54660000Y-88169000D01*
X54660000Y-104210000D02*
X54660000Y-103409000D01*
X54660000Y-109290000D02*
X54660000Y-108489000D01*
X55100000Y-139795000D02*
X55700000Y-139795000D01*
X55660000Y-51470000D02*
X55660000Y-56990000D01*
X55660000Y-145990000D02*
X55660000Y-140470000D01*
X54660000Y-86430000D02*
X54660000Y-85629000D01*
X54660000Y-83890000D02*
X54660000Y-83089000D01*
X55700000Y-139795000D02*
X55400000Y-139195000D01*
X54660000Y-101670000D02*
X54660000Y-100869000D01*
X54660000Y-132150000D02*
X54660000Y-131349000D01*
X54660000Y-137005000D02*
X54660000Y-136429000D01*
X54660000Y-81350000D02*
X54660000Y-80549000D01*
X54660000Y-71190000D02*
X54660000Y-70389000D01*
X54660000Y-58490000D02*
X54660000Y-56990000D01*
X54660000Y-114370000D02*
X54660000Y-113569000D01*
X54660000Y-124530000D02*
X54660000Y-123729000D01*
X54660000Y-119450000D02*
X54660000Y-118649000D01*
X54660000Y-96590000D02*
X54660000Y-95789000D01*
X54660000Y-99130000D02*
X54660000Y-98329000D01*
X55660000Y-140470000D02*
X54660000Y-140470000D01*
X55400000Y-139195000D02*
X55100000Y-139795000D01*
X54660000Y-121990000D02*
X54660000Y-121189000D01*
X54660000Y-63570000D02*
X54660000Y-62769000D01*
X55660000Y-56990000D02*
X54660000Y-56990000D01*
X54660000Y-73730000D02*
X54660000Y-72929000D01*
X54660000Y-116910000D02*
X54660000Y-116109000D01*
X50100000Y-51470000D02*
X55660000Y-51470000D01*
X54660000Y-91510000D02*
X54660000Y-90709000D01*
X50100000Y-145990000D02*
X55660000Y-145990000D01*
X54660000Y-129610000D02*
X54660000Y-128809000D01*
X54660000Y-78810000D02*
X54660000Y-78009000D01*
X54660000Y-134690000D02*
X54660000Y-133889000D01*
X54660000Y-140471000D02*
X54660000Y-139195000D01*
X71140000Y-121197936D02*
X71140000Y-122402064D01*
X73860000Y-121197936D02*
X73860000Y-122402064D01*
X74360000Y-134197936D02*
X74360000Y-135402064D01*
X71640000Y-134197936D02*
X71640000Y-135402064D01*
X77090000Y-126697936D02*
X77090000Y-127902064D01*
X78910000Y-126697936D02*
X78910000Y-127902064D01*
X77090000Y-139697936D02*
X77090000Y-140902064D01*
X78910000Y-139697936D02*
X78910000Y-140902064D01*
X134762779Y-119010000D02*
X134437221Y-119010000D01*
X134762779Y-117990000D02*
X134437221Y-117990000D01*
X82940000Y-91297936D02*
X82940000Y-92502064D01*
X85660000Y-91297936D02*
X85660000Y-92502064D01*
X86160000Y-121197936D02*
X86160000Y-122402064D01*
X83440000Y-121197936D02*
X83440000Y-122402064D01*
X83140000Y-134197936D02*
X83140000Y-135402064D01*
X85860000Y-134197936D02*
X85860000Y-135402064D01*
X118062779Y-115610000D02*
X117737221Y-115610000D01*
X118062779Y-114590000D02*
X117737221Y-114590000D01*
X137162779Y-115610000D02*
X136837221Y-115610000D01*
X137162779Y-114590000D02*
X136837221Y-114590000D01*
X140910000Y-110197936D02*
X140910000Y-111402064D01*
X139090000Y-110197936D02*
X139090000Y-111402064D01*
X195110000Y-119940580D02*
X195110000Y-119659420D01*
X194090000Y-119940580D02*
X194090000Y-119659420D01*
X149590000Y-110402064D02*
X149590000Y-109197936D01*
X151410000Y-110402064D02*
X151410000Y-109197936D01*
X152980000Y-107920000D02*
X156220000Y-107920000D01*
X152980000Y-100480000D02*
X156220000Y-100480000D01*
X152980000Y-107920000D02*
X152980000Y-100480000D01*
X156220000Y-107920000D02*
X156220000Y-100480000D01*
X148558578Y-114990000D02*
X148041422Y-114990000D01*
X148558578Y-116410000D02*
X148041422Y-116410000D01*
X160290000Y-110640580D02*
X160290000Y-110359420D01*
X161310000Y-110640580D02*
X161310000Y-110359420D01*
X156358578Y-116410000D02*
X155841422Y-116410000D01*
X156358578Y-114990000D02*
X155841422Y-114990000D01*
X163337221Y-113810000D02*
X163662779Y-113810000D01*
X163337221Y-112790000D02*
X163662779Y-112790000D01*
X172762779Y-107410000D02*
X172437221Y-107410000D01*
X172762779Y-106390000D02*
X172437221Y-106390000D01*
X153310000Y-119158578D02*
X153310000Y-118641422D01*
X151890000Y-119158578D02*
X151890000Y-118641422D01*
X191910000Y-119837221D02*
X191910000Y-120162779D01*
X190890000Y-119837221D02*
X190890000Y-120162779D01*
X195549721Y-128610000D02*
X195875279Y-128610000D01*
X195549721Y-127590000D02*
X195875279Y-127590000D01*
X151537221Y-127490000D02*
X151862779Y-127490000D01*
X151537221Y-128510000D02*
X151862779Y-128510000D01*
X158540000Y-142400000D02*
X160050000Y-142400000D01*
X158540000Y-141679000D02*
X159829000Y-141679000D01*
X154964000Y-142320000D02*
X156460000Y-142320000D01*
X158540000Y-141319000D02*
X159622000Y-141319000D01*
X158540000Y-142720000D02*
X160079000Y-142720000D01*
X154939000Y-142480000D02*
X156460000Y-142480000D01*
X155847000Y-140799000D02*
X156460000Y-140799000D01*
X154921000Y-142720000D02*
X156460000Y-142720000D01*
X154927000Y-142600000D02*
X156460000Y-142600000D01*
X158540000Y-141879000D02*
X159914000Y-141879000D01*
X158540000Y-142360000D02*
X160043000Y-142360000D01*
X155563000Y-141079000D02*
X156460000Y-141079000D01*
X155058000Y-141959000D02*
X156460000Y-141959000D01*
X158540000Y-141599000D02*
X159790000Y-141599000D01*
X158540000Y-142480000D02*
X160061000Y-142480000D01*
X154972000Y-142280000D02*
X156460000Y-142280000D01*
X155435000Y-141239000D02*
X156460000Y-141239000D01*
X158540000Y-142800000D02*
X160080000Y-142800000D01*
X158540000Y-141559000D02*
X159768000Y-141559000D01*
X155072000Y-141919000D02*
X156460000Y-141919000D01*
X158540000Y-140959000D02*
X159326000Y-140959000D01*
X158540000Y-141439000D02*
X159700000Y-141439000D01*
X156489000Y-140399000D02*
X158511000Y-140399000D01*
X154924000Y-142640000D02*
X156460000Y-142640000D01*
X155405000Y-141279000D02*
X156460000Y-141279000D01*
X158540000Y-142120000D02*
X159991000Y-142120000D01*
X155775000Y-145354775D02*
X156275000Y-145354775D01*
X154931000Y-142560000D02*
X156460000Y-142560000D01*
X155715000Y-140919000D02*
X156460000Y-140919000D01*
X158540000Y-141519000D02*
X159747000Y-141519000D01*
X155895000Y-140759000D02*
X159105000Y-140759000D01*
X155276000Y-141479000D02*
X156460000Y-141479000D01*
X158540000Y-142280000D02*
X160028000Y-142280000D01*
X158540000Y-141199000D02*
X159535000Y-141199000D01*
X156402000Y-140439000D02*
X158598000Y-140439000D01*
X155102000Y-141839000D02*
X156460000Y-141839000D01*
X156585000Y-140359000D02*
X158415000Y-140359000D01*
X158540000Y-142200000D02*
X160011000Y-142200000D01*
X155351000Y-141359000D02*
X156460000Y-141359000D01*
X155135000Y-141759000D02*
X156460000Y-141759000D01*
X155325000Y-141399000D02*
X156460000Y-141399000D01*
X158540000Y-141119000D02*
X159471000Y-141119000D01*
X154950000Y-142400000D02*
X156460000Y-142400000D01*
X156982000Y-140239000D02*
X158018000Y-140239000D01*
X158540000Y-141799000D02*
X159882000Y-141799000D01*
X158540000Y-142760000D02*
X160080000Y-142760000D01*
X154989000Y-142200000D02*
X156460000Y-142200000D01*
X158540000Y-142600000D02*
X160073000Y-142600000D01*
X158540000Y-142520000D02*
X160065000Y-142520000D01*
X158540000Y-142160000D02*
X160001000Y-142160000D01*
X155496000Y-141159000D02*
X156460000Y-141159000D01*
X156057000Y-140639000D02*
X158943000Y-140639000D01*
X155190000Y-141639000D02*
X156460000Y-141639000D01*
X155465000Y-141199000D02*
X156460000Y-141199000D01*
X158540000Y-142440000D02*
X160056000Y-142440000D01*
X158540000Y-141999000D02*
X159955000Y-141999000D01*
X155152000Y-141719000D02*
X156460000Y-141719000D01*
X154920000Y-142760000D02*
X156460000Y-142760000D01*
X155171000Y-141679000D02*
X156460000Y-141679000D01*
X158540000Y-141919000D02*
X159928000Y-141919000D01*
X155210000Y-141599000D02*
X156460000Y-141599000D01*
X156322000Y-140479000D02*
X158678000Y-140479000D01*
X155599000Y-141039000D02*
X156460000Y-141039000D01*
X154944000Y-142440000D02*
X156460000Y-142440000D01*
X158540000Y-141839000D02*
X159898000Y-141839000D01*
X156249000Y-140519000D02*
X158751000Y-140519000D01*
X156695000Y-140319000D02*
X158305000Y-140319000D01*
X155009000Y-142120000D02*
X156460000Y-142120000D01*
X156181000Y-140559000D02*
X158819000Y-140559000D01*
X158540000Y-142320000D02*
X160036000Y-142320000D01*
X158540000Y-142039000D02*
X159968000Y-142039000D01*
X155253000Y-141519000D02*
X156460000Y-141519000D01*
X155529000Y-141119000D02*
X156460000Y-141119000D01*
X154999000Y-142160000D02*
X156460000Y-142160000D01*
X156025000Y-145604775D02*
X156025000Y-145104775D01*
X155086000Y-141879000D02*
X156460000Y-141879000D01*
X154922000Y-142680000D02*
X156460000Y-142680000D01*
X158540000Y-140799000D02*
X159153000Y-140799000D01*
X155045000Y-141999000D02*
X156460000Y-141999000D01*
X154957000Y-142360000D02*
X156460000Y-142360000D01*
X155032000Y-142039000D02*
X156460000Y-142039000D01*
X156000000Y-140679000D02*
X159000000Y-140679000D01*
X158540000Y-142680000D02*
X160078000Y-142680000D01*
X158540000Y-141959000D02*
X159942000Y-141959000D01*
X155118000Y-141799000D02*
X156460000Y-141799000D01*
X158540000Y-141359000D02*
X159649000Y-141359000D01*
X158540000Y-140839000D02*
X159199000Y-140839000D01*
X158540000Y-142240000D02*
X160020000Y-142240000D01*
X155300000Y-141439000D02*
X156460000Y-141439000D01*
X158540000Y-141159000D02*
X159504000Y-141159000D01*
X154920000Y-142800000D02*
X156460000Y-142800000D01*
X156823000Y-140279000D02*
X158177000Y-140279000D01*
X155378000Y-141319000D02*
X156460000Y-141319000D01*
X158540000Y-141279000D02*
X159595000Y-141279000D01*
X158540000Y-140999000D02*
X159364000Y-140999000D01*
X155946000Y-140719000D02*
X159054000Y-140719000D01*
X155020000Y-142079000D02*
X156460000Y-142079000D01*
X158540000Y-142560000D02*
X160069000Y-142560000D01*
X158540000Y-142079000D02*
X159980000Y-142079000D01*
X155757000Y-140879000D02*
X156460000Y-140879000D01*
X155636000Y-140999000D02*
X156460000Y-140999000D01*
X154980000Y-142240000D02*
X156460000Y-142240000D01*
X157216000Y-140199000D02*
X157784000Y-140199000D01*
X154935000Y-142520000D02*
X156460000Y-142520000D01*
X156117000Y-140599000D02*
X158883000Y-140599000D01*
X158540000Y-141399000D02*
X159675000Y-141399000D01*
X158540000Y-141079000D02*
X159437000Y-141079000D01*
X155801000Y-140839000D02*
X156460000Y-140839000D01*
X158540000Y-140919000D02*
X159285000Y-140919000D01*
X158540000Y-141239000D02*
X159565000Y-141239000D01*
X158540000Y-141759000D02*
X159865000Y-141759000D01*
X158540000Y-141639000D02*
X159810000Y-141639000D01*
X158540000Y-141719000D02*
X159848000Y-141719000D01*
X158540000Y-142640000D02*
X160076000Y-142640000D01*
X158540000Y-141479000D02*
X159724000Y-141479000D01*
X158540000Y-140879000D02*
X159243000Y-140879000D01*
X155232000Y-141559000D02*
X156460000Y-141559000D01*
X155674000Y-140959000D02*
X156460000Y-140959000D01*
X158540000Y-141039000D02*
X159401000Y-141039000D01*
X160120000Y-142800000D02*
G75*
G03*
X160120000Y-142800000I-2620000J0D01*
G01*
X150037221Y-139590000D02*
X150362779Y-139590000D01*
X150037221Y-140610000D02*
X150362779Y-140610000D01*
X138340000Y-142400000D02*
X139850000Y-142400000D01*
X135800000Y-140679000D02*
X138800000Y-140679000D01*
X136623000Y-140279000D02*
X137977000Y-140279000D01*
X134721000Y-142720000D02*
X136260000Y-142720000D01*
X134971000Y-141679000D02*
X136260000Y-141679000D01*
X134750000Y-142400000D02*
X136260000Y-142400000D01*
X134858000Y-141959000D02*
X136260000Y-141959000D01*
X134902000Y-141839000D02*
X136260000Y-141839000D01*
X134764000Y-142320000D02*
X136260000Y-142320000D01*
X134872000Y-141919000D02*
X136260000Y-141919000D01*
X138340000Y-141959000D02*
X139742000Y-141959000D01*
X138340000Y-142280000D02*
X139828000Y-142280000D01*
X138340000Y-141359000D02*
X139449000Y-141359000D01*
X136782000Y-140239000D02*
X137818000Y-140239000D01*
X134820000Y-142079000D02*
X136260000Y-142079000D01*
X135575000Y-145354775D02*
X136075000Y-145354775D01*
X138340000Y-141799000D02*
X139682000Y-141799000D01*
X138340000Y-141039000D02*
X139201000Y-141039000D01*
X135265000Y-141199000D02*
X136260000Y-141199000D01*
X135363000Y-141079000D02*
X136260000Y-141079000D01*
X135917000Y-140599000D02*
X138683000Y-140599000D01*
X135557000Y-140879000D02*
X136260000Y-140879000D01*
X138340000Y-141319000D02*
X139422000Y-141319000D01*
X138340000Y-142120000D02*
X139791000Y-142120000D01*
X138340000Y-142200000D02*
X139811000Y-142200000D01*
X138340000Y-141399000D02*
X139475000Y-141399000D01*
X138340000Y-141199000D02*
X139335000Y-141199000D01*
X138340000Y-141679000D02*
X139629000Y-141679000D01*
X134799000Y-142160000D02*
X136260000Y-142160000D01*
X138340000Y-141919000D02*
X139728000Y-141919000D01*
X138340000Y-141999000D02*
X139755000Y-141999000D01*
X138340000Y-141119000D02*
X139271000Y-141119000D01*
X138340000Y-140999000D02*
X139164000Y-140999000D01*
X135436000Y-140999000D02*
X136260000Y-140999000D01*
X135515000Y-140919000D02*
X136260000Y-140919000D01*
X135329000Y-141119000D02*
X136260000Y-141119000D01*
X138340000Y-142560000D02*
X139869000Y-142560000D01*
X138340000Y-140799000D02*
X138953000Y-140799000D01*
X135178000Y-141319000D02*
X136260000Y-141319000D01*
X135296000Y-141159000D02*
X136260000Y-141159000D01*
X138340000Y-141479000D02*
X139524000Y-141479000D01*
X138340000Y-141599000D02*
X139590000Y-141599000D01*
X138340000Y-142160000D02*
X139801000Y-142160000D01*
X134935000Y-141759000D02*
X136260000Y-141759000D01*
X138340000Y-142440000D02*
X139856000Y-142440000D01*
X136049000Y-140519000D02*
X138551000Y-140519000D01*
X134918000Y-141799000D02*
X136260000Y-141799000D01*
X138340000Y-142680000D02*
X139878000Y-142680000D01*
X138340000Y-141559000D02*
X139568000Y-141559000D01*
X135695000Y-140759000D02*
X138905000Y-140759000D01*
X138340000Y-142360000D02*
X139843000Y-142360000D01*
X138340000Y-141879000D02*
X139714000Y-141879000D01*
X138340000Y-142079000D02*
X139780000Y-142079000D01*
X135399000Y-141039000D02*
X136260000Y-141039000D01*
X134757000Y-142360000D02*
X136260000Y-142360000D01*
X134727000Y-142600000D02*
X136260000Y-142600000D01*
X134724000Y-142640000D02*
X136260000Y-142640000D01*
X134739000Y-142480000D02*
X136260000Y-142480000D01*
X138340000Y-142760000D02*
X139880000Y-142760000D01*
X136385000Y-140359000D02*
X138215000Y-140359000D01*
X138340000Y-140959000D02*
X139126000Y-140959000D01*
X135076000Y-141479000D02*
X136260000Y-141479000D01*
X138340000Y-142520000D02*
X139865000Y-142520000D01*
X138340000Y-140879000D02*
X139043000Y-140879000D01*
X138340000Y-141519000D02*
X139547000Y-141519000D01*
X135100000Y-141439000D02*
X136260000Y-141439000D01*
X138340000Y-142320000D02*
X139836000Y-142320000D01*
X134952000Y-141719000D02*
X136260000Y-141719000D01*
X135205000Y-141279000D02*
X136260000Y-141279000D01*
X134722000Y-142680000D02*
X136260000Y-142680000D01*
X136202000Y-140439000D02*
X138398000Y-140439000D01*
X138340000Y-140839000D02*
X138999000Y-140839000D01*
X138340000Y-142240000D02*
X139820000Y-142240000D01*
X136495000Y-140319000D02*
X138105000Y-140319000D01*
X135825000Y-145604775D02*
X135825000Y-145104775D01*
X135981000Y-140559000D02*
X138619000Y-140559000D01*
X135746000Y-140719000D02*
X138854000Y-140719000D01*
X135032000Y-141559000D02*
X136260000Y-141559000D01*
X134845000Y-141999000D02*
X136260000Y-141999000D01*
X138340000Y-141839000D02*
X139698000Y-141839000D01*
X138340000Y-141159000D02*
X139304000Y-141159000D01*
X138340000Y-141079000D02*
X139237000Y-141079000D01*
X134780000Y-142240000D02*
X136260000Y-142240000D01*
X138340000Y-141639000D02*
X139610000Y-141639000D01*
X138340000Y-142480000D02*
X139861000Y-142480000D01*
X138340000Y-142600000D02*
X139873000Y-142600000D01*
X136122000Y-140479000D02*
X138478000Y-140479000D01*
X134990000Y-141639000D02*
X136260000Y-141639000D01*
X138340000Y-141279000D02*
X139395000Y-141279000D01*
X138340000Y-140919000D02*
X139085000Y-140919000D01*
X135053000Y-141519000D02*
X136260000Y-141519000D01*
X137016000Y-140199000D02*
X137584000Y-140199000D01*
X135601000Y-140839000D02*
X136260000Y-140839000D01*
X138340000Y-141239000D02*
X139365000Y-141239000D01*
X134772000Y-142280000D02*
X136260000Y-142280000D01*
X135010000Y-141599000D02*
X136260000Y-141599000D01*
X135151000Y-141359000D02*
X136260000Y-141359000D01*
X135474000Y-140959000D02*
X136260000Y-140959000D01*
X134735000Y-142520000D02*
X136260000Y-142520000D01*
X134731000Y-142560000D02*
X136260000Y-142560000D01*
X138340000Y-142720000D02*
X139879000Y-142720000D01*
X134744000Y-142440000D02*
X136260000Y-142440000D01*
X134886000Y-141879000D02*
X136260000Y-141879000D01*
X138340000Y-141719000D02*
X139648000Y-141719000D01*
X138340000Y-142800000D02*
X139880000Y-142800000D01*
X136289000Y-140399000D02*
X138311000Y-140399000D01*
X138340000Y-141439000D02*
X139500000Y-141439000D01*
X135647000Y-140799000D02*
X136260000Y-140799000D01*
X134720000Y-142800000D02*
X136260000Y-142800000D01*
X135857000Y-140639000D02*
X138743000Y-140639000D01*
X134720000Y-142760000D02*
X136260000Y-142760000D01*
X134809000Y-142120000D02*
X136260000Y-142120000D01*
X134832000Y-142039000D02*
X136260000Y-142039000D01*
X138340000Y-142640000D02*
X139876000Y-142640000D01*
X138340000Y-142039000D02*
X139768000Y-142039000D01*
X135235000Y-141239000D02*
X136260000Y-141239000D01*
X138340000Y-141759000D02*
X139665000Y-141759000D01*
X134789000Y-142200000D02*
X136260000Y-142200000D01*
X135125000Y-141399000D02*
X136260000Y-141399000D01*
X139920000Y-142800000D02*
G75*
G03*
X139920000Y-142800000I-2620000J0D01*
G01*
X145137221Y-140610000D02*
X145462779Y-140610000D01*
X145137221Y-139590000D02*
X145462779Y-139590000D01*
X115599000Y-141039000D02*
X116460000Y-141039000D01*
X118540000Y-141359000D02*
X119649000Y-141359000D01*
X116322000Y-140479000D02*
X118678000Y-140479000D01*
X118540000Y-141559000D02*
X119768000Y-141559000D01*
X116057000Y-140639000D02*
X118943000Y-140639000D01*
X118540000Y-141879000D02*
X119914000Y-141879000D01*
X118540000Y-142560000D02*
X120069000Y-142560000D01*
X115465000Y-141199000D02*
X116460000Y-141199000D01*
X115636000Y-140999000D02*
X116460000Y-140999000D01*
X118540000Y-141719000D02*
X119848000Y-141719000D01*
X115210000Y-141599000D02*
X116460000Y-141599000D01*
X115801000Y-140839000D02*
X116460000Y-140839000D01*
X118540000Y-140839000D02*
X119199000Y-140839000D01*
X118540000Y-141039000D02*
X119401000Y-141039000D01*
X115058000Y-141959000D02*
X116460000Y-141959000D01*
X116585000Y-140359000D02*
X118415000Y-140359000D01*
X115529000Y-141119000D02*
X116460000Y-141119000D01*
X115435000Y-141239000D02*
X116460000Y-141239000D01*
X114964000Y-142320000D02*
X116460000Y-142320000D01*
X114935000Y-142520000D02*
X116460000Y-142520000D01*
X115946000Y-140719000D02*
X119054000Y-140719000D01*
X115715000Y-140919000D02*
X116460000Y-140919000D01*
X115171000Y-141679000D02*
X116460000Y-141679000D01*
X118540000Y-141839000D02*
X119898000Y-141839000D01*
X114920000Y-142800000D02*
X116460000Y-142800000D01*
X115032000Y-142039000D02*
X116460000Y-142039000D01*
X118540000Y-142120000D02*
X119991000Y-142120000D01*
X114922000Y-142680000D02*
X116460000Y-142680000D01*
X115378000Y-141319000D02*
X116460000Y-141319000D01*
X114931000Y-142560000D02*
X116460000Y-142560000D01*
X118540000Y-142520000D02*
X120065000Y-142520000D01*
X118540000Y-141599000D02*
X119790000Y-141599000D01*
X114999000Y-142160000D02*
X116460000Y-142160000D01*
X118540000Y-141279000D02*
X119595000Y-141279000D01*
X118540000Y-142200000D02*
X120011000Y-142200000D01*
X118540000Y-140879000D02*
X119243000Y-140879000D01*
X118540000Y-142320000D02*
X120036000Y-142320000D01*
X118540000Y-141759000D02*
X119865000Y-141759000D01*
X118540000Y-141479000D02*
X119724000Y-141479000D01*
X114944000Y-142440000D02*
X116460000Y-142440000D01*
X115190000Y-141639000D02*
X116460000Y-141639000D01*
X118540000Y-140799000D02*
X119153000Y-140799000D01*
X118540000Y-140999000D02*
X119364000Y-140999000D01*
X114980000Y-142240000D02*
X116460000Y-142240000D01*
X116402000Y-140439000D02*
X118598000Y-140439000D01*
X118540000Y-142680000D02*
X120078000Y-142680000D01*
X114921000Y-142720000D02*
X116460000Y-142720000D01*
X118540000Y-142160000D02*
X120001000Y-142160000D01*
X118540000Y-142039000D02*
X119968000Y-142039000D01*
X115232000Y-141559000D02*
X116460000Y-141559000D01*
X115563000Y-141079000D02*
X116460000Y-141079000D01*
X118540000Y-141919000D02*
X119928000Y-141919000D01*
X118540000Y-142240000D02*
X120020000Y-142240000D01*
X115276000Y-141479000D02*
X116460000Y-141479000D01*
X115253000Y-141519000D02*
X116460000Y-141519000D01*
X118540000Y-141799000D02*
X119882000Y-141799000D01*
X118540000Y-142640000D02*
X120076000Y-142640000D01*
X114920000Y-142760000D02*
X116460000Y-142760000D01*
X118540000Y-142400000D02*
X120050000Y-142400000D01*
X116000000Y-140679000D02*
X119000000Y-140679000D01*
X115102000Y-141839000D02*
X116460000Y-141839000D01*
X118540000Y-141119000D02*
X119471000Y-141119000D01*
X118540000Y-142480000D02*
X120061000Y-142480000D01*
X115300000Y-141439000D02*
X116460000Y-141439000D01*
X114927000Y-142600000D02*
X116460000Y-142600000D01*
X114939000Y-142480000D02*
X116460000Y-142480000D01*
X118540000Y-141519000D02*
X119747000Y-141519000D01*
X118540000Y-140919000D02*
X119285000Y-140919000D01*
X118540000Y-141999000D02*
X119955000Y-141999000D01*
X115072000Y-141919000D02*
X116460000Y-141919000D01*
X115351000Y-141359000D02*
X116460000Y-141359000D01*
X118540000Y-142600000D02*
X120073000Y-142600000D01*
X115674000Y-140959000D02*
X116460000Y-140959000D01*
X118540000Y-141679000D02*
X119829000Y-141679000D01*
X116695000Y-140319000D02*
X118305000Y-140319000D01*
X115045000Y-141999000D02*
X116460000Y-141999000D01*
X114989000Y-142200000D02*
X116460000Y-142200000D01*
X118540000Y-141959000D02*
X119942000Y-141959000D01*
X115086000Y-141879000D02*
X116460000Y-141879000D01*
X118540000Y-142760000D02*
X120080000Y-142760000D01*
X118540000Y-141439000D02*
X119700000Y-141439000D01*
X116025000Y-145604775D02*
X116025000Y-145104775D01*
X115325000Y-141399000D02*
X116460000Y-141399000D01*
X116982000Y-140239000D02*
X118018000Y-140239000D01*
X115118000Y-141799000D02*
X116460000Y-141799000D01*
X114950000Y-142400000D02*
X116460000Y-142400000D01*
X118540000Y-141199000D02*
X119535000Y-141199000D01*
X116823000Y-140279000D02*
X118177000Y-140279000D01*
X118540000Y-142360000D02*
X120043000Y-142360000D01*
X115496000Y-141159000D02*
X116460000Y-141159000D01*
X116489000Y-140399000D02*
X118511000Y-140399000D01*
X118540000Y-140959000D02*
X119326000Y-140959000D01*
X118540000Y-142280000D02*
X120028000Y-142280000D01*
X118540000Y-142440000D02*
X120056000Y-142440000D01*
X116117000Y-140599000D02*
X118883000Y-140599000D01*
X115009000Y-142120000D02*
X116460000Y-142120000D01*
X118540000Y-142079000D02*
X119980000Y-142079000D01*
X114972000Y-142280000D02*
X116460000Y-142280000D01*
X118540000Y-141239000D02*
X119565000Y-141239000D01*
X115895000Y-140759000D02*
X119105000Y-140759000D01*
X115757000Y-140879000D02*
X116460000Y-140879000D01*
X114957000Y-142360000D02*
X116460000Y-142360000D01*
X118540000Y-141079000D02*
X119437000Y-141079000D01*
X115135000Y-141759000D02*
X116460000Y-141759000D01*
X115775000Y-145354775D02*
X116275000Y-145354775D01*
X118540000Y-142720000D02*
X120079000Y-142720000D01*
X118540000Y-141319000D02*
X119622000Y-141319000D01*
X117216000Y-140199000D02*
X117784000Y-140199000D01*
X118540000Y-142800000D02*
X120080000Y-142800000D01*
X116181000Y-140559000D02*
X118819000Y-140559000D01*
X115847000Y-140799000D02*
X116460000Y-140799000D01*
X118540000Y-141639000D02*
X119810000Y-141639000D01*
X118540000Y-141399000D02*
X119675000Y-141399000D01*
X115020000Y-142079000D02*
X116460000Y-142079000D01*
X118540000Y-141159000D02*
X119504000Y-141159000D01*
X114924000Y-142640000D02*
X116460000Y-142640000D01*
X116249000Y-140519000D02*
X118751000Y-140519000D01*
X115405000Y-141279000D02*
X116460000Y-141279000D01*
X115152000Y-141719000D02*
X116460000Y-141719000D01*
X120120000Y-142800000D02*
G75*
G03*
X120120000Y-142800000I-2620000J0D01*
G01*
X124937221Y-140610000D02*
X125262779Y-140610000D01*
X124937221Y-139590000D02*
X125262779Y-139590000D01*
X89549721Y-71410000D02*
X89875279Y-71410000D01*
X89549721Y-70390000D02*
X89875279Y-70390000D01*
X83223000Y-82279000D02*
X84577000Y-82279000D01*
X84940000Y-83159000D02*
X85904000Y-83159000D01*
X84940000Y-83479000D02*
X86124000Y-83479000D01*
X84940000Y-84160000D02*
X86401000Y-84160000D01*
X81963000Y-83079000D02*
X82860000Y-83079000D01*
X84940000Y-83039000D02*
X85801000Y-83039000D01*
X81805000Y-83279000D02*
X82860000Y-83279000D01*
X82115000Y-82919000D02*
X82860000Y-82919000D01*
X84940000Y-83079000D02*
X85837000Y-83079000D01*
X81409000Y-84120000D02*
X82860000Y-84120000D01*
X84940000Y-84760000D02*
X86480000Y-84760000D01*
X82985000Y-82359000D02*
X84815000Y-82359000D01*
X81725000Y-83399000D02*
X82860000Y-83399000D01*
X81778000Y-83319000D02*
X82860000Y-83319000D01*
X82201000Y-82839000D02*
X82860000Y-82839000D01*
X84940000Y-83999000D02*
X86355000Y-83999000D01*
X81653000Y-83519000D02*
X82860000Y-83519000D01*
X81610000Y-83599000D02*
X82860000Y-83599000D01*
X82175000Y-87354775D02*
X82675000Y-87354775D01*
X82802000Y-82439000D02*
X84998000Y-82439000D01*
X81571000Y-83679000D02*
X82860000Y-83679000D01*
X82649000Y-82519000D02*
X85151000Y-82519000D01*
X81518000Y-83799000D02*
X82860000Y-83799000D01*
X81751000Y-83359000D02*
X82860000Y-83359000D01*
X84940000Y-82799000D02*
X85553000Y-82799000D01*
X84940000Y-83279000D02*
X85995000Y-83279000D01*
X84940000Y-83119000D02*
X85871000Y-83119000D01*
X82157000Y-82879000D02*
X82860000Y-82879000D01*
X84940000Y-82879000D02*
X85643000Y-82879000D01*
X84940000Y-84560000D02*
X86469000Y-84560000D01*
X84940000Y-83679000D02*
X86229000Y-83679000D01*
X81535000Y-83759000D02*
X82860000Y-83759000D01*
X81327000Y-84600000D02*
X82860000Y-84600000D01*
X84940000Y-84600000D02*
X86473000Y-84600000D01*
X81324000Y-84640000D02*
X82860000Y-84640000D01*
X82425000Y-87604775D02*
X82425000Y-87104775D01*
X84940000Y-84520000D02*
X86465000Y-84520000D01*
X82722000Y-82479000D02*
X85078000Y-82479000D01*
X81999000Y-83039000D02*
X82860000Y-83039000D01*
X82074000Y-82959000D02*
X82860000Y-82959000D01*
X84940000Y-82839000D02*
X85599000Y-82839000D01*
X84940000Y-83839000D02*
X86298000Y-83839000D01*
X83616000Y-82199000D02*
X84184000Y-82199000D01*
X81929000Y-83119000D02*
X82860000Y-83119000D01*
X84940000Y-83759000D02*
X86265000Y-83759000D01*
X84940000Y-83359000D02*
X86049000Y-83359000D01*
X82036000Y-82999000D02*
X82860000Y-82999000D01*
X81472000Y-83919000D02*
X82860000Y-83919000D01*
X84940000Y-84079000D02*
X86380000Y-84079000D01*
X81320000Y-84800000D02*
X82860000Y-84800000D01*
X84940000Y-82959000D02*
X85726000Y-82959000D01*
X82457000Y-82639000D02*
X85343000Y-82639000D01*
X84940000Y-83719000D02*
X86248000Y-83719000D01*
X84940000Y-84240000D02*
X86420000Y-84240000D01*
X84940000Y-83239000D02*
X85965000Y-83239000D01*
X84940000Y-83879000D02*
X86314000Y-83879000D01*
X84940000Y-83599000D02*
X86190000Y-83599000D01*
X81322000Y-84680000D02*
X82860000Y-84680000D01*
X82517000Y-82599000D02*
X85283000Y-82599000D01*
X84940000Y-84720000D02*
X86479000Y-84720000D01*
X84940000Y-83799000D02*
X86282000Y-83799000D01*
X84940000Y-84039000D02*
X86368000Y-84039000D01*
X81331000Y-84560000D02*
X82860000Y-84560000D01*
X84940000Y-84800000D02*
X86480000Y-84800000D01*
X81339000Y-84480000D02*
X82860000Y-84480000D01*
X84940000Y-84360000D02*
X86443000Y-84360000D01*
X81502000Y-83839000D02*
X82860000Y-83839000D01*
X84940000Y-83319000D02*
X86022000Y-83319000D01*
X81350000Y-84400000D02*
X82860000Y-84400000D01*
X81372000Y-84280000D02*
X82860000Y-84280000D01*
X81445000Y-83999000D02*
X82860000Y-83999000D01*
X81458000Y-83959000D02*
X82860000Y-83959000D01*
X84940000Y-83959000D02*
X86342000Y-83959000D01*
X84940000Y-83199000D02*
X85935000Y-83199000D01*
X81676000Y-83479000D02*
X82860000Y-83479000D01*
X84940000Y-83519000D02*
X86147000Y-83519000D01*
X84940000Y-83439000D02*
X86100000Y-83439000D01*
X84940000Y-84480000D02*
X86461000Y-84480000D01*
X82581000Y-82559000D02*
X85219000Y-82559000D01*
X84940000Y-83399000D02*
X86075000Y-83399000D01*
X84940000Y-83559000D02*
X86168000Y-83559000D01*
X84940000Y-84400000D02*
X86450000Y-84400000D01*
X81380000Y-84240000D02*
X82860000Y-84240000D01*
X82400000Y-82679000D02*
X85400000Y-82679000D01*
X81552000Y-83719000D02*
X82860000Y-83719000D01*
X81321000Y-84720000D02*
X82860000Y-84720000D01*
X81344000Y-84440000D02*
X82860000Y-84440000D01*
X81364000Y-84320000D02*
X82860000Y-84320000D01*
X81865000Y-83199000D02*
X82860000Y-83199000D01*
X81335000Y-84520000D02*
X82860000Y-84520000D01*
X84940000Y-84280000D02*
X86428000Y-84280000D01*
X82346000Y-82719000D02*
X85454000Y-82719000D01*
X84940000Y-82999000D02*
X85764000Y-82999000D01*
X82889000Y-82399000D02*
X84911000Y-82399000D01*
X84940000Y-82919000D02*
X85685000Y-82919000D01*
X83095000Y-82319000D02*
X84705000Y-82319000D01*
X81700000Y-83439000D02*
X82860000Y-83439000D01*
X81486000Y-83879000D02*
X82860000Y-83879000D01*
X81896000Y-83159000D02*
X82860000Y-83159000D01*
X81432000Y-84039000D02*
X82860000Y-84039000D01*
X81590000Y-83639000D02*
X82860000Y-83639000D01*
X84940000Y-84320000D02*
X86436000Y-84320000D01*
X81320000Y-84760000D02*
X82860000Y-84760000D01*
X83382000Y-82239000D02*
X84418000Y-82239000D01*
X84940000Y-84680000D02*
X86478000Y-84680000D01*
X81357000Y-84360000D02*
X82860000Y-84360000D01*
X81632000Y-83559000D02*
X82860000Y-83559000D01*
X84940000Y-84120000D02*
X86391000Y-84120000D01*
X84940000Y-83919000D02*
X86328000Y-83919000D01*
X81389000Y-84200000D02*
X82860000Y-84200000D01*
X84940000Y-83639000D02*
X86210000Y-83639000D01*
X84940000Y-84200000D02*
X86411000Y-84200000D01*
X81420000Y-84079000D02*
X82860000Y-84079000D01*
X82295000Y-82759000D02*
X85505000Y-82759000D01*
X84940000Y-84640000D02*
X86476000Y-84640000D01*
X84940000Y-84440000D02*
X86456000Y-84440000D01*
X81835000Y-83239000D02*
X82860000Y-83239000D01*
X81399000Y-84160000D02*
X82860000Y-84160000D01*
X82247000Y-82799000D02*
X82860000Y-82799000D01*
X86520000Y-84800000D02*
G75*
G03*
X86520000Y-84800000I-2620000J0D01*
G01*
X90237221Y-83390000D02*
X90562779Y-83390000D01*
X90237221Y-84410000D02*
X90562779Y-84410000D01*
X204601000Y-121590000D02*
X204920000Y-121590000D01*
X207080000Y-121590000D02*
X207399000Y-121590000D01*
X207398749Y-121590000D02*
G75*
G03*
X207080724Y-117286758I-1398749J2060000D01*
G01*
X207080000Y-121213330D02*
G75*
G03*
X207080961Y-117847287I-1080000J1683330D01*
G01*
X204919276Y-117286758D02*
G75*
G03*
X204601251Y-121590000I1080724J-2243242D01*
G01*
X204919039Y-117847287D02*
G75*
G03*
X204920000Y-121213330I1080961J-1682713D01*
G01*
X183440000Y-131120000D02*
X184900000Y-131120000D01*
X183440000Y-131120000D02*
X183440000Y-132050000D01*
X183440000Y-134280000D02*
X183440000Y-133350000D01*
X183440000Y-134280000D02*
X185600000Y-134280000D01*
X107750000Y-119250000D02*
X116050000Y-119250000D01*
X116050000Y-110950000D02*
X116050000Y-119250000D01*
X107750000Y-110950000D02*
X107750000Y-119250000D01*
X107750000Y-110950000D02*
X116050000Y-110950000D01*
X79977500Y-126062742D02*
X79977500Y-126537258D01*
X81022500Y-126062742D02*
X81022500Y-126537258D01*
X81010000Y-139137221D02*
X81010000Y-139462779D01*
X79990000Y-139137221D02*
X79990000Y-139462779D01*
X119840000Y-115897936D02*
X119840000Y-117102064D01*
X122560000Y-115897936D02*
X122560000Y-117102064D01*
X205590000Y-114237221D02*
X205590000Y-114562779D01*
X206610000Y-114237221D02*
X206610000Y-114562779D01*
X196090000Y-120162779D02*
X196090000Y-119837221D01*
X197110000Y-120162779D02*
X197110000Y-119837221D01*
X155110000Y-110662779D02*
X155110000Y-110337221D01*
X154090000Y-110662779D02*
X154090000Y-110337221D01*
X157862779Y-111810000D02*
X157537221Y-111810000D01*
X157862779Y-110790000D02*
X157537221Y-110790000D01*
X175762779Y-112890000D02*
X175437221Y-112890000D01*
X175762779Y-113910000D02*
X175437221Y-113910000D01*
X151245000Y-115123737D02*
X151245000Y-113676263D01*
X153955000Y-115123737D02*
X153955000Y-113676263D01*
X168237221Y-104890000D02*
X168562779Y-104890000D01*
X168237221Y-105910000D02*
X168562779Y-105910000D01*
X176390000Y-110337221D02*
X176390000Y-110662779D01*
X177410000Y-110337221D02*
X177410000Y-110662779D01*
X173390000Y-110337221D02*
X173390000Y-110662779D01*
X174410000Y-110337221D02*
X174410000Y-110662779D01*
X155537221Y-120410000D02*
X155862779Y-120410000D01*
X155537221Y-119390000D02*
X155862779Y-119390000D01*
X198752064Y-135940000D02*
X197547936Y-135940000D01*
X198752064Y-138660000D02*
X197547936Y-138660000D01*
X177162779Y-106390000D02*
X176837221Y-106390000D01*
X177162779Y-107410000D02*
X176837221Y-107410000D01*
D11*
X84300000Y-141700000D02*
G75*
G03*
X84300000Y-141700000I-1400000J0D01*
G01*
D14*
X148810000Y-147570000D02*
X148810000Y-146060000D01*
X152080000Y-147570000D02*
X141840000Y-147570000D01*
X145109000Y-147570000D02*
X145109000Y-146060000D01*
X152080000Y-146060000D02*
X141840000Y-146060000D01*
X152080000Y-147570000D02*
X152080000Y-142929000D01*
X152080000Y-142929000D02*
X141840000Y-142929000D01*
X141840000Y-147570000D02*
X141840000Y-142929000D01*
X132080000Y-142929000D02*
X121840000Y-142929000D01*
X121840000Y-147570000D02*
X121840000Y-142929000D01*
X132080000Y-147570000D02*
X121840000Y-147570000D01*
X128810000Y-147570000D02*
X128810000Y-146060000D01*
X132080000Y-147570000D02*
X132080000Y-142929000D01*
X132080000Y-146060000D02*
X121840000Y-146060000D01*
X125109000Y-147570000D02*
X125109000Y-146060000D01*
X78500000Y-123910000D02*
X77000000Y-123910000D01*
X78500000Y-123910000D02*
X80000000Y-123910000D01*
X78500000Y-119690000D02*
X80000000Y-119690000D01*
X78500000Y-119690000D02*
X75625000Y-119690000D01*
X78500000Y-132690000D02*
X80000000Y-132690000D01*
X78500000Y-136910000D02*
X77000000Y-136910000D01*
X78500000Y-136910000D02*
X80000000Y-136910000D01*
X78500000Y-132690000D02*
X75625000Y-132690000D01*
X142400000Y-117010000D02*
X140900000Y-117010000D01*
X142400000Y-113790000D02*
X139475000Y-113790000D01*
X142400000Y-113790000D02*
X143900000Y-113790000D01*
X142400000Y-117010000D02*
X143900000Y-117010000D01*
X157862779Y-122590000D02*
X157537221Y-122590000D01*
X157862779Y-123610000D02*
X157537221Y-123610000D01*
D11*
X182000000Y-121500000D02*
X170000000Y-121500000D01*
X182000000Y-134500000D02*
X182000000Y-121500000D01*
X170000000Y-134500000D02*
X182000000Y-134500000D01*
X170000000Y-121500000D02*
X170000000Y-134500000D01*
D15*
X178900000Y-133100000D02*
G75*
G03*
X178900000Y-133100000I-400000J0D01*
G01*
D14*
X178397936Y-116490000D02*
X179602064Y-116490000D01*
X178397936Y-118310000D02*
X179602064Y-118310000D01*
X71240000Y-91297936D02*
X71240000Y-92502064D01*
X73960000Y-91297936D02*
X73960000Y-92502064D01*
X198659420Y-85590000D02*
X198940580Y-85590000D01*
X198659420Y-86610000D02*
X198940580Y-86610000D01*
X198690000Y-89159420D02*
X198690000Y-89440580D01*
X199710000Y-89159420D02*
X199710000Y-89440580D01*
X183790000Y-67034420D02*
X183790000Y-67315580D01*
X184810000Y-67034420D02*
X184810000Y-67315580D01*
X160159420Y-80410000D02*
X160440580Y-80410000D01*
X160159420Y-79390000D02*
X160440580Y-79390000D01*
X184959420Y-76510000D02*
X185240580Y-76510000D01*
X184959420Y-75490000D02*
X185240580Y-75490000D01*
X164990000Y-76734420D02*
X164990000Y-77015580D01*
X166010000Y-76734420D02*
X166010000Y-77015580D01*
X170890000Y-66965580D02*
X170890000Y-66684420D01*
X171910000Y-66965580D02*
X171910000Y-66684420D01*
X63350000Y-58350000D02*
X63350000Y-64050000D01*
X67650000Y-58350000D02*
X67650000Y-64050000D01*
X67650000Y-58350000D02*
X63350000Y-58350000D01*
X64150000Y-139450000D02*
X64150000Y-133750000D01*
X68450000Y-139450000D02*
X68450000Y-133750000D01*
X64150000Y-139450000D02*
X68450000Y-139450000D01*
X203590000Y-86350000D02*
X204090000Y-86100000D01*
X204090000Y-86100000D02*
X203590000Y-85850000D01*
X203590000Y-85850000D02*
X203590000Y-86350000D01*
X145150000Y-84050000D02*
X145150000Y-75750000D01*
X145150000Y-75750000D02*
X153450000Y-75750000D01*
X153450000Y-84050000D02*
X153450000Y-75750000D01*
X145150000Y-84050000D02*
X153450000Y-84050000D01*
X184650000Y-96235000D02*
X186250000Y-96235000D01*
X201735000Y-61050000D02*
X201735000Y-62650000D01*
X166550000Y-51565000D02*
X168150000Y-51565000D01*
X190650000Y-96235000D02*
X192250000Y-96235000D01*
X178550000Y-51565000D02*
X180250000Y-51565000D01*
X157065000Y-55050000D02*
X157065000Y-56650000D01*
X157065000Y-73050000D02*
X157065000Y-74750000D01*
X166550000Y-96235000D02*
X168150000Y-96235000D01*
X157065000Y-91150000D02*
X157065000Y-92750000D01*
X178550000Y-96235000D02*
X180250000Y-96235000D01*
X201735000Y-85150000D02*
X201735000Y-86750000D01*
X157065000Y-67050000D02*
X157065000Y-68650000D01*
X160550000Y-51565000D02*
X162150000Y-51565000D01*
X201735000Y-91150000D02*
X201735000Y-92750000D01*
X201735000Y-79150000D02*
X201735000Y-80750000D01*
X201735000Y-73050000D02*
X201735000Y-74750000D01*
X196650000Y-96235000D02*
X198250000Y-96235000D01*
X201735000Y-55050000D02*
X201735000Y-56650000D01*
X157065000Y-85150000D02*
X157065000Y-86750000D01*
X184650000Y-51565000D02*
X186250000Y-51565000D01*
X201735000Y-67050000D02*
X201735000Y-68650000D01*
X196650000Y-51565000D02*
X198250000Y-51565000D01*
X172550000Y-96235000D02*
X174150000Y-96235000D01*
X172550000Y-51565000D02*
X174150000Y-51565000D01*
X190650000Y-51565000D02*
X192250000Y-51565000D01*
X157065000Y-79150000D02*
X157065000Y-80750000D01*
X160550000Y-96235000D02*
X162150000Y-96235000D01*
X157065000Y-61050000D02*
X157065000Y-62650000D01*
X129437258Y-118677500D02*
X128962742Y-118677500D01*
X129437258Y-119722500D02*
X128962742Y-119722500D01*
X160477500Y-70362742D02*
X160477500Y-70837258D01*
X161522500Y-70362742D02*
X161522500Y-70837258D01*
X196255000Y-83876263D02*
X196255000Y-85323737D01*
X193545000Y-83876263D02*
X193545000Y-85323737D01*
X162477500Y-70837258D02*
X162477500Y-70362742D01*
X163522500Y-70837258D02*
X163522500Y-70362742D01*
X188762742Y-100422500D02*
X189237258Y-100422500D01*
X188762742Y-99377500D02*
X189237258Y-99377500D01*
X195562742Y-93622500D02*
X196037258Y-93622500D01*
X195562742Y-92577500D02*
X196037258Y-92577500D01*
X162477500Y-74337258D02*
X162477500Y-73862742D01*
X163522500Y-74337258D02*
X163522500Y-73862742D01*
X197723737Y-60445000D02*
X196276263Y-60445000D01*
X197723737Y-63155000D02*
X196276263Y-63155000D01*
X177937258Y-71677500D02*
X177462742Y-71677500D01*
X177937258Y-72722500D02*
X177462742Y-72722500D01*
X186862742Y-67322500D02*
X187337258Y-67322500D01*
X186862742Y-66277500D02*
X187337258Y-66277500D01*
X180577500Y-73462742D02*
X180577500Y-73937258D01*
X181622500Y-73462742D02*
X181622500Y-73937258D01*
X193122500Y-73362742D02*
X193122500Y-73837258D01*
X192077500Y-73362742D02*
X192077500Y-73837258D01*
X180577500Y-70287742D02*
X180577500Y-70762258D01*
X181622500Y-70287742D02*
X181622500Y-70762258D01*
X193122500Y-70462258D02*
X193122500Y-69987742D01*
X192077500Y-70462258D02*
X192077500Y-69987742D01*
X211520000Y-103690000D02*
X211520000Y-98650000D01*
X213040000Y-102470000D02*
X211521000Y-102470000D01*
X213040000Y-99870000D02*
X211521000Y-99870000D01*
X213040000Y-102470000D02*
X213040000Y-99870000D01*
X211520000Y-98650000D02*
X192280000Y-98650000D01*
X213040000Y-101170000D02*
X212281000Y-101170000D01*
X211520000Y-103690000D02*
X192280000Y-103690000D01*
X211521000Y-102470000D02*
X211521000Y-99870000D01*
X192280000Y-103690000D02*
X192280000Y-98650000D01*
X168400000Y-74460000D02*
X166450000Y-74460000D01*
X168400000Y-74460000D02*
X170350000Y-74460000D01*
X168400000Y-69340000D02*
X164950000Y-69340000D01*
X168400000Y-69340000D02*
X170350000Y-69340000D01*
D11*
X185000000Y-74675000D02*
X189000000Y-74675000D01*
X183725000Y-69275000D02*
X189000000Y-69275000D01*
D14*
X203590000Y-64050000D02*
X204090000Y-63800000D01*
X203590000Y-63550000D02*
X203590000Y-64050000D01*
X204090000Y-63800000D02*
X203590000Y-63550000D01*
X203690000Y-134050000D02*
X204190000Y-133800000D01*
X204190000Y-133800000D02*
X203690000Y-133550000D01*
X203690000Y-133550000D02*
X203690000Y-134050000D01*
D11*
X98600000Y-71210000D02*
X98600000Y-63590000D01*
X104400000Y-71210000D02*
X104400000Y-63590000D01*
X98600000Y-71210000D02*
X104400000Y-71210000D01*
X98600000Y-63590000D02*
X104400000Y-63590000D01*
X103400000Y-71210000D02*
X103400000Y-63590000D01*
X63500000Y-95250000D02*
X69300000Y-95250000D01*
X68300000Y-102870000D02*
X68300000Y-95250000D01*
X63500000Y-102870000D02*
X63500000Y-95250000D01*
X69300000Y-102870000D02*
X69300000Y-95250000D01*
X63500000Y-102870000D02*
X69300000Y-102870000D01*
D14*
X129290000Y-112359420D02*
X129290000Y-112640580D01*
X130310000Y-112359420D02*
X130310000Y-112640580D01*
X79010000Y-97088748D02*
X79010000Y-98511252D01*
X77190000Y-97088748D02*
X77190000Y-98511252D01*
X162340580Y-91590000D02*
X162059420Y-91590000D01*
X162340580Y-92610000D02*
X162059420Y-92610000D01*
X165559420Y-92610000D02*
X165840580Y-92610000D01*
X165559420Y-91590000D02*
X165840580Y-91590000D01*
D15*
X74304000Y-56000000D02*
G75*
G03*
X74304000Y-56000000I-254000J0D01*
G01*
X72304000Y-58000000D02*
G75*
G03*
X72304000Y-58000000I-254000J0D01*
G01*
X76304000Y-58000000D02*
G75*
G03*
X76304000Y-58000000I-254000J0D01*
G01*
X72304000Y-54000000D02*
G75*
G03*
X72304000Y-54000000I-254000J0D01*
G01*
X74304000Y-58000000D02*
G75*
G03*
X74304000Y-58000000I-254000J0D01*
G01*
X76304000Y-54000000D02*
G75*
G03*
X76304000Y-54000000I-254000J0D01*
G01*
X76304000Y-56000000D02*
G75*
G03*
X76304000Y-56000000I-254000J0D01*
G01*
X74304000Y-54000000D02*
G75*
G03*
X74304000Y-54000000I-254000J0D01*
G01*
X72304000Y-56000000D02*
G75*
G03*
X72304000Y-56000000I-254000J0D01*
G01*
D14*
X80077500Y-96762742D02*
X80077500Y-97237258D01*
X81122500Y-96762742D02*
X81122500Y-97237258D01*
X126237258Y-119722500D02*
X125762742Y-119722500D01*
X126237258Y-118677500D02*
X125762742Y-118677500D01*
X191522500Y-125862742D02*
X191522500Y-126337258D01*
X190477500Y-125862742D02*
X190477500Y-126337258D01*
X193222500Y-124162742D02*
X193222500Y-124637258D01*
X192177500Y-124162742D02*
X192177500Y-124637258D01*
X158977500Y-89737258D02*
X158977500Y-89262742D01*
X160022500Y-89737258D02*
X160022500Y-89262742D01*
X160022500Y-86062742D02*
X160022500Y-86537258D01*
X158977500Y-86062742D02*
X158977500Y-86537258D01*
X78600000Y-94010000D02*
X77100000Y-94010000D01*
X78600000Y-89790000D02*
X75725000Y-89790000D01*
X78600000Y-89790000D02*
X80100000Y-89790000D01*
X78600000Y-94010000D02*
X80100000Y-94010000D01*
X171434000Y-93754000D02*
X174736000Y-93754000D01*
X174736000Y-82070000D02*
X171434000Y-82070000D01*
X186166000Y-92738000D02*
X186166000Y-82832000D01*
X171434000Y-82070000D02*
X171434000Y-93754000D01*
X82210000Y-78000000D02*
X84750000Y-78000000D01*
X82210000Y-75460000D02*
X84750000Y-75460000D01*
X82210000Y-80580000D02*
X82210000Y-70340000D01*
X66320000Y-70340000D02*
X82210000Y-70340000D01*
X66320000Y-80580000D02*
X66320000Y-70340000D01*
X82210000Y-72920000D02*
X84750000Y-72920000D01*
X66320000Y-80580000D02*
X82210000Y-80580000D01*
X144655000Y-101050000D02*
X144655000Y-103950000D01*
X137945000Y-101050000D02*
X137945000Y-103950000D01*
X142750000Y-105855000D02*
X139850000Y-105855000D01*
X142750000Y-99145000D02*
X139850000Y-99145000D01*
X163737258Y-82377500D02*
X163262742Y-82377500D01*
X163737258Y-83422500D02*
X163262742Y-83422500D01*
X169100000Y-108140000D02*
X171050000Y-108140000D01*
X169100000Y-113260000D02*
X167150000Y-113260000D01*
X169100000Y-108140000D02*
X165650000Y-108140000D01*
X169100000Y-113260000D02*
X171050000Y-113260000D01*
D11*
X120300000Y-71410000D02*
X126100000Y-71410000D01*
X126100000Y-71410000D02*
X126100000Y-63790000D01*
X120300000Y-63790000D02*
X126100000Y-63790000D01*
X125100000Y-71410000D02*
X125100000Y-63790000D01*
X120300000Y-71410000D02*
X120300000Y-63790000D01*
D14*
X190450000Y-109150000D02*
X198750000Y-109150000D01*
X190450000Y-117450000D02*
X190450000Y-109150000D01*
X198750000Y-117450000D02*
X198750000Y-109150000D01*
X190450000Y-117450000D02*
X198750000Y-117450000D01*
X82960000Y-67801000D02*
X81710000Y-67801000D01*
X82960000Y-68521000D02*
X82257000Y-68521000D01*
X86491000Y-67280000D02*
X85040000Y-67280000D01*
X82960000Y-66840000D02*
X81431000Y-66840000D01*
X86528000Y-67120000D02*
X85040000Y-67120000D01*
X82960000Y-68041000D02*
X81851000Y-68041000D01*
X85500000Y-68721000D02*
X82500000Y-68721000D01*
X82960000Y-67080000D02*
X81464000Y-67080000D01*
X86556000Y-66960000D02*
X85040000Y-66960000D01*
X85743000Y-68521000D02*
X85040000Y-68521000D01*
X82960000Y-68561000D02*
X82301000Y-68561000D01*
X85605000Y-68641000D02*
X82395000Y-68641000D01*
X82960000Y-66720000D02*
X81422000Y-66720000D01*
X86310000Y-67761000D02*
X85040000Y-67761000D01*
X86122000Y-68081000D02*
X85040000Y-68081000D01*
X85383000Y-68801000D02*
X82617000Y-68801000D01*
X82960000Y-67040000D02*
X81457000Y-67040000D01*
X82960000Y-67641000D02*
X81635000Y-67641000D01*
X86149000Y-68041000D02*
X85040000Y-68041000D01*
X86247000Y-67881000D02*
X85040000Y-67881000D01*
X82960000Y-67441000D02*
X81558000Y-67441000D01*
X86224000Y-67921000D02*
X85040000Y-67921000D01*
X82960000Y-67481000D02*
X81572000Y-67481000D01*
X82960000Y-66920000D02*
X81439000Y-66920000D01*
X85178000Y-68921000D02*
X82822000Y-68921000D01*
X85725000Y-64045225D02*
X85225000Y-64045225D01*
X82960000Y-66600000D02*
X81420000Y-66600000D01*
X86348000Y-67681000D02*
X85040000Y-67681000D01*
X86455000Y-67401000D02*
X85040000Y-67401000D01*
X85251000Y-68881000D02*
X82749000Y-68881000D01*
X86382000Y-67601000D02*
X85040000Y-67601000D01*
X86579000Y-66680000D02*
X85040000Y-66680000D01*
X82960000Y-67961000D02*
X81800000Y-67961000D01*
X86398000Y-67561000D02*
X85040000Y-67561000D01*
X85826000Y-68441000D02*
X85040000Y-68441000D01*
X86175000Y-68001000D02*
X85040000Y-68001000D01*
X86004000Y-68241000D02*
X85040000Y-68241000D01*
X82960000Y-68321000D02*
X82063000Y-68321000D01*
X82960000Y-68601000D02*
X82347000Y-68601000D01*
X84677000Y-69121000D02*
X83323000Y-69121000D01*
X86095000Y-68121000D02*
X85040000Y-68121000D01*
X86511000Y-67200000D02*
X85040000Y-67200000D01*
X82960000Y-67361000D02*
X81532000Y-67361000D01*
X82960000Y-67401000D02*
X81545000Y-67401000D01*
X82960000Y-68081000D02*
X81878000Y-68081000D01*
X84518000Y-69161000D02*
X83482000Y-69161000D01*
X82960000Y-67321000D02*
X81520000Y-67321000D01*
X85937000Y-68321000D02*
X85040000Y-68321000D01*
X82960000Y-68201000D02*
X81965000Y-68201000D01*
X82960000Y-67280000D02*
X81509000Y-67280000D01*
X86561000Y-66920000D02*
X85040000Y-66920000D01*
X82960000Y-66680000D02*
X81421000Y-66680000D01*
X85554000Y-68681000D02*
X82446000Y-68681000D01*
X82960000Y-66760000D02*
X81424000Y-66760000D01*
X86290000Y-67801000D02*
X85040000Y-67801000D01*
X85011000Y-69001000D02*
X82989000Y-69001000D01*
X82960000Y-67000000D02*
X81450000Y-67000000D01*
X82960000Y-68281000D02*
X82029000Y-68281000D01*
X82960000Y-67160000D02*
X81480000Y-67160000D01*
X86268000Y-67841000D02*
X85040000Y-67841000D01*
X82960000Y-67721000D02*
X81671000Y-67721000D01*
X82960000Y-68481000D02*
X82215000Y-68481000D01*
X86365000Y-67641000D02*
X85040000Y-67641000D01*
X85971000Y-68281000D02*
X85040000Y-68281000D01*
X82960000Y-68121000D02*
X81905000Y-68121000D01*
X84805000Y-69081000D02*
X83195000Y-69081000D01*
X86501000Y-67240000D02*
X85040000Y-67240000D01*
X85443000Y-68761000D02*
X82557000Y-68761000D01*
X82960000Y-68001000D02*
X81825000Y-68001000D01*
X86576000Y-66760000D02*
X85040000Y-66760000D01*
X82960000Y-67881000D02*
X81753000Y-67881000D01*
X85475000Y-63795225D02*
X85475000Y-64295225D01*
X85098000Y-68961000D02*
X82902000Y-68961000D01*
X86578000Y-66720000D02*
X85040000Y-66720000D01*
X82960000Y-67200000D02*
X81489000Y-67200000D01*
X86550000Y-67000000D02*
X85040000Y-67000000D01*
X82960000Y-68241000D02*
X81996000Y-68241000D01*
X84915000Y-69041000D02*
X83085000Y-69041000D01*
X82960000Y-67841000D02*
X81732000Y-67841000D01*
X82960000Y-68361000D02*
X82099000Y-68361000D01*
X82960000Y-68161000D02*
X81935000Y-68161000D01*
X86543000Y-67040000D02*
X85040000Y-67040000D01*
X82960000Y-66640000D02*
X81420000Y-66640000D01*
X82960000Y-67601000D02*
X81618000Y-67601000D01*
X82960000Y-67681000D02*
X81652000Y-67681000D01*
X86580000Y-66600000D02*
X85040000Y-66600000D01*
X85319000Y-68841000D02*
X82681000Y-68841000D01*
X86065000Y-68161000D02*
X85040000Y-68161000D01*
X86414000Y-67521000D02*
X85040000Y-67521000D01*
X85653000Y-68601000D02*
X85040000Y-68601000D01*
X85785000Y-68481000D02*
X85040000Y-68481000D01*
X86428000Y-67481000D02*
X85040000Y-67481000D01*
X86329000Y-67721000D02*
X85040000Y-67721000D01*
X86573000Y-66800000D02*
X85040000Y-66800000D01*
X85699000Y-68561000D02*
X85040000Y-68561000D01*
X82960000Y-67761000D02*
X81690000Y-67761000D01*
X82960000Y-66960000D02*
X81444000Y-66960000D01*
X82960000Y-66800000D02*
X81427000Y-66800000D01*
X86442000Y-67441000D02*
X85040000Y-67441000D01*
X82960000Y-67561000D02*
X81602000Y-67561000D01*
X82960000Y-68441000D02*
X82174000Y-68441000D01*
X82960000Y-67521000D02*
X81586000Y-67521000D01*
X86569000Y-66840000D02*
X85040000Y-66840000D01*
X86200000Y-67961000D02*
X85040000Y-67961000D01*
X86580000Y-66640000D02*
X85040000Y-66640000D01*
X86468000Y-67361000D02*
X85040000Y-67361000D01*
X85864000Y-68401000D02*
X85040000Y-68401000D01*
X82960000Y-67921000D02*
X81776000Y-67921000D01*
X86480000Y-67321000D02*
X85040000Y-67321000D01*
X82960000Y-66880000D02*
X81435000Y-66880000D01*
X84284000Y-69201000D02*
X83716000Y-69201000D01*
X82960000Y-67120000D02*
X81472000Y-67120000D01*
X82960000Y-68401000D02*
X82136000Y-68401000D01*
X82960000Y-67240000D02*
X81499000Y-67240000D01*
X86565000Y-66880000D02*
X85040000Y-66880000D01*
X86520000Y-67160000D02*
X85040000Y-67160000D01*
X86035000Y-68201000D02*
X85040000Y-68201000D01*
X86536000Y-67080000D02*
X85040000Y-67080000D01*
X85901000Y-68361000D02*
X85040000Y-68361000D01*
X86620000Y-66600000D02*
G75*
G03*
X86620000Y-66600000I-2620000J0D01*
G01*
X91360000Y-135100000D02*
X91360000Y-134450000D01*
X91360000Y-135100000D02*
X91360000Y-135750000D01*
X88240000Y-135100000D02*
X88240000Y-134450000D01*
X88240000Y-135100000D02*
X88240000Y-136775000D01*
X188937258Y-85422500D02*
X188462742Y-85422500D01*
X188937258Y-84377500D02*
X188462742Y-84377500D01*
X193961252Y-136565000D02*
X193438748Y-136565000D01*
X193961252Y-138035000D02*
X193438748Y-138035000D01*
X150077500Y-123337258D02*
X150077500Y-122862742D01*
X151122500Y-123337258D02*
X151122500Y-122862742D01*
X188459420Y-88610000D02*
X188740580Y-88610000D01*
X188459420Y-87590000D02*
X188740580Y-87590000D01*
X88640000Y-121800000D02*
X88640000Y-123475000D01*
X88640000Y-121800000D02*
X88640000Y-121150000D01*
X91760000Y-121800000D02*
X91760000Y-121150000D01*
X91760000Y-121800000D02*
X91760000Y-122450000D01*
X148477500Y-121612258D02*
X148477500Y-121137742D01*
X149522500Y-121612258D02*
X149522500Y-121137742D01*
X169390000Y-86440580D02*
X169390000Y-86159420D01*
X170410000Y-86440580D02*
X170410000Y-86159420D01*
X170422500Y-89937258D02*
X170422500Y-89462742D01*
X169377500Y-89937258D02*
X169377500Y-89462742D01*
M02*
