G04 #@! TF.GenerationSoftware,KiCad,Pcbnew,(6.0.1)*
G04 #@! TF.CreationDate,2022-04-20T00:59:06+02:00*
G04 #@! TF.ProjectId,MTS_module,4d54535f-6d6f-4647-956c-652e6b696361,1.3.2*
G04 #@! TF.SameCoordinates,Original*
G04 #@! TF.FileFunction,Legend,Top*
G04 #@! TF.FilePolarity,Positive*
%FSLAX46Y46*%
G04 Gerber Fmt 4.6, Leading zero omitted, Abs format (unit mm)*
G04 Created by KiCad (PCBNEW (6.0.1)) date 2022-04-20 00:59:06*
%MOMM*%
%LPD*%
G01*
G04 APERTURE LIST*
%ADD10C,0.250000*%
%ADD11C,0.150000*%
%ADD12C,0.300000*%
%ADD13C,0.600000*%
%ADD14C,0.120000*%
%ADD15C,1.000000*%
G04 APERTURE END LIST*
D10*
X121876785Y-50763571D02*
X121376785Y-50049285D01*
X121019642Y-50763571D02*
X121019642Y-49263571D01*
X121591071Y-49263571D01*
X121733928Y-49335000D01*
X121805357Y-49406428D01*
X121876785Y-49549285D01*
X121876785Y-49763571D01*
X121805357Y-49906428D01*
X121733928Y-49977857D01*
X121591071Y-50049285D01*
X121019642Y-50049285D01*
X123019642Y-49977857D02*
X122519642Y-49977857D01*
X122519642Y-50763571D02*
X122519642Y-49263571D01*
X123233928Y-49263571D01*
X125448214Y-49977857D02*
X124948214Y-49977857D01*
X124948214Y-50763571D02*
X124948214Y-49263571D01*
X125662500Y-49263571D01*
X126233928Y-50763571D02*
X126233928Y-49763571D01*
X126233928Y-50049285D02*
X126305357Y-49906428D01*
X126376785Y-49835000D01*
X126519642Y-49763571D01*
X126662500Y-49763571D01*
X127733928Y-50692142D02*
X127591071Y-50763571D01*
X127305357Y-50763571D01*
X127162500Y-50692142D01*
X127091071Y-50549285D01*
X127091071Y-49977857D01*
X127162500Y-49835000D01*
X127305357Y-49763571D01*
X127591071Y-49763571D01*
X127733928Y-49835000D01*
X127805357Y-49977857D01*
X127805357Y-50120714D01*
X127091071Y-50263571D01*
X129091071Y-49763571D02*
X129091071Y-51263571D01*
X129091071Y-50692142D02*
X128948214Y-50763571D01*
X128662500Y-50763571D01*
X128519642Y-50692142D01*
X128448214Y-50620714D01*
X128376785Y-50477857D01*
X128376785Y-50049285D01*
X128448214Y-49906428D01*
X128519642Y-49835000D01*
X128662500Y-49763571D01*
X128948214Y-49763571D01*
X129091071Y-49835000D01*
X130448214Y-49763571D02*
X130448214Y-50763571D01*
X129805357Y-49763571D02*
X129805357Y-50549285D01*
X129876785Y-50692142D01*
X130019642Y-50763571D01*
X130233928Y-50763571D01*
X130376785Y-50692142D01*
X130448214Y-50620714D01*
X131733928Y-50692142D02*
X131591071Y-50763571D01*
X131305357Y-50763571D01*
X131162500Y-50692142D01*
X131091071Y-50549285D01*
X131091071Y-49977857D01*
X131162500Y-49835000D01*
X131305357Y-49763571D01*
X131591071Y-49763571D01*
X131733928Y-49835000D01*
X131805357Y-49977857D01*
X131805357Y-50120714D01*
X131091071Y-50263571D01*
X132448214Y-49763571D02*
X132448214Y-50763571D01*
X132448214Y-49906428D02*
X132519642Y-49835000D01*
X132662500Y-49763571D01*
X132876785Y-49763571D01*
X133019642Y-49835000D01*
X133091071Y-49977857D01*
X133091071Y-50763571D01*
X134448214Y-50692142D02*
X134305357Y-50763571D01*
X134019642Y-50763571D01*
X133876785Y-50692142D01*
X133805357Y-50620714D01*
X133733928Y-50477857D01*
X133733928Y-50049285D01*
X133805357Y-49906428D01*
X133876785Y-49835000D01*
X134019642Y-49763571D01*
X134305357Y-49763571D01*
X134448214Y-49835000D01*
X134948214Y-49763571D02*
X135305357Y-50763571D01*
X135662500Y-49763571D02*
X135305357Y-50763571D01*
X135162500Y-51120714D01*
X135091071Y-51192142D01*
X134948214Y-51263571D01*
X137376785Y-50763571D02*
X137376785Y-49263571D01*
X137876785Y-50335000D01*
X138376785Y-49263571D01*
X138376785Y-50763571D01*
X139305357Y-50763571D02*
X139162500Y-50692142D01*
X139091071Y-50620714D01*
X139019642Y-50477857D01*
X139019642Y-50049285D01*
X139091071Y-49906428D01*
X139162500Y-49835000D01*
X139305357Y-49763571D01*
X139519642Y-49763571D01*
X139662500Y-49835000D01*
X139733928Y-49906428D01*
X139805357Y-50049285D01*
X139805357Y-50477857D01*
X139733928Y-50620714D01*
X139662500Y-50692142D01*
X139519642Y-50763571D01*
X139305357Y-50763571D01*
X141091071Y-50763571D02*
X141091071Y-49263571D01*
X141091071Y-50692142D02*
X140948214Y-50763571D01*
X140662500Y-50763571D01*
X140519642Y-50692142D01*
X140448214Y-50620714D01*
X140376785Y-50477857D01*
X140376785Y-50049285D01*
X140448214Y-49906428D01*
X140519642Y-49835000D01*
X140662500Y-49763571D01*
X140948214Y-49763571D01*
X141091071Y-49835000D01*
X142448214Y-49763571D02*
X142448214Y-50763571D01*
X141805357Y-49763571D02*
X141805357Y-50549285D01*
X141876785Y-50692142D01*
X142019642Y-50763571D01*
X142233928Y-50763571D01*
X142376785Y-50692142D01*
X142448214Y-50620714D01*
X143376785Y-50763571D02*
X143233928Y-50692142D01*
X143162500Y-50549285D01*
X143162500Y-49263571D01*
X144591071Y-50763571D02*
X144591071Y-49977857D01*
X144519642Y-49835000D01*
X144376785Y-49763571D01*
X144091071Y-49763571D01*
X143948214Y-49835000D01*
X144591071Y-50692142D02*
X144448214Y-50763571D01*
X144091071Y-50763571D01*
X143948214Y-50692142D01*
X143876785Y-50549285D01*
X143876785Y-50406428D01*
X143948214Y-50263571D01*
X144091071Y-50192142D01*
X144448214Y-50192142D01*
X144591071Y-50120714D01*
X145091071Y-49763571D02*
X145662500Y-49763571D01*
X145305357Y-49263571D02*
X145305357Y-50549285D01*
X145376785Y-50692142D01*
X145519642Y-50763571D01*
X145662500Y-50763571D01*
X146376785Y-50763571D02*
X146233928Y-50692142D01*
X146162500Y-50620714D01*
X146091071Y-50477857D01*
X146091071Y-50049285D01*
X146162500Y-49906428D01*
X146233928Y-49835000D01*
X146376785Y-49763571D01*
X146591071Y-49763571D01*
X146733928Y-49835000D01*
X146805357Y-49906428D01*
X146876785Y-50049285D01*
X146876785Y-50477857D01*
X146805357Y-50620714D01*
X146733928Y-50692142D01*
X146591071Y-50763571D01*
X146376785Y-50763571D01*
X147519642Y-50763571D02*
X147519642Y-49763571D01*
X147519642Y-50049285D02*
X147591071Y-49906428D01*
X147662500Y-49835000D01*
X147805357Y-49763571D01*
X147948214Y-49763571D01*
X121805357Y-53178571D02*
X120948214Y-53178571D01*
X121376785Y-53178571D02*
X121376785Y-51678571D01*
X121233928Y-51892857D01*
X121091071Y-52035714D01*
X120948214Y-52107142D01*
X122733928Y-51678571D02*
X122876785Y-51678571D01*
X123019642Y-51750000D01*
X123091071Y-51821428D01*
X123162500Y-51964285D01*
X123233928Y-52250000D01*
X123233928Y-52607142D01*
X123162500Y-52892857D01*
X123091071Y-53035714D01*
X123019642Y-53107142D01*
X122876785Y-53178571D01*
X122733928Y-53178571D01*
X122591071Y-53107142D01*
X122519642Y-53035714D01*
X122448214Y-52892857D01*
X122376785Y-52607142D01*
X122376785Y-52250000D01*
X122448214Y-51964285D01*
X122519642Y-51821428D01*
X122591071Y-51750000D01*
X122733928Y-51678571D01*
X124162500Y-51678571D02*
X124305357Y-51678571D01*
X124448214Y-51750000D01*
X124519642Y-51821428D01*
X124591071Y-51964285D01*
X124662500Y-52250000D01*
X124662500Y-52607142D01*
X124591071Y-52892857D01*
X124519642Y-53035714D01*
X124448214Y-53107142D01*
X124305357Y-53178571D01*
X124162500Y-53178571D01*
X124019642Y-53107142D01*
X123948214Y-53035714D01*
X123876785Y-52892857D01*
X123805357Y-52607142D01*
X123805357Y-52250000D01*
X123876785Y-51964285D01*
X123948214Y-51821428D01*
X124019642Y-51750000D01*
X124162500Y-51678571D01*
X125305357Y-52607142D02*
X126448214Y-52607142D01*
X127948214Y-53178571D02*
X127091071Y-53178571D01*
X127519642Y-53178571D02*
X127519642Y-51678571D01*
X127376785Y-51892857D01*
X127233928Y-52035714D01*
X127091071Y-52107142D01*
X129233928Y-52178571D02*
X129233928Y-53178571D01*
X128876785Y-51607142D02*
X128519642Y-52678571D01*
X129448214Y-52678571D01*
X130305357Y-51678571D02*
X130448214Y-51678571D01*
X130591071Y-51750000D01*
X130662500Y-51821428D01*
X130733928Y-51964285D01*
X130805357Y-52250000D01*
X130805357Y-52607142D01*
X130733928Y-52892857D01*
X130662500Y-53035714D01*
X130591071Y-53107142D01*
X130448214Y-53178571D01*
X130305357Y-53178571D01*
X130162500Y-53107142D01*
X130091071Y-53035714D01*
X130019642Y-52892857D01*
X129948214Y-52607142D01*
X129948214Y-52250000D01*
X130019642Y-51964285D01*
X130091071Y-51821428D01*
X130162500Y-51750000D01*
X130305357Y-51678571D01*
X132591071Y-53178571D02*
X132591071Y-51678571D01*
X133091071Y-52750000D01*
X133591071Y-51678571D01*
X133591071Y-53178571D01*
X134305357Y-53178571D02*
X134305357Y-51678571D01*
X134305357Y-52392857D02*
X135162500Y-52392857D01*
X135162500Y-53178571D02*
X135162500Y-51678571D01*
X135733928Y-52178571D02*
X136519642Y-52178571D01*
X135733928Y-53178571D01*
X136519642Y-53178571D01*
X121305357Y-54093571D02*
X121448214Y-54093571D01*
X121591071Y-54165000D01*
X121662500Y-54236428D01*
X121733928Y-54379285D01*
X121805357Y-54665000D01*
X121805357Y-55022142D01*
X121733928Y-55307857D01*
X121662500Y-55450714D01*
X121591071Y-55522142D01*
X121448214Y-55593571D01*
X121305357Y-55593571D01*
X121162500Y-55522142D01*
X121091071Y-55450714D01*
X121019642Y-55307857D01*
X120948214Y-55022142D01*
X120948214Y-54665000D01*
X121019642Y-54379285D01*
X121091071Y-54236428D01*
X121162500Y-54165000D01*
X121305357Y-54093571D01*
X123091071Y-54593571D02*
X123091071Y-55593571D01*
X122733928Y-54022142D02*
X122376785Y-55093571D01*
X123305357Y-55093571D01*
X124948214Y-54022142D02*
X123662500Y-55950714D01*
X125376785Y-54236428D02*
X125448214Y-54165000D01*
X125591071Y-54093571D01*
X125948214Y-54093571D01*
X126091071Y-54165000D01*
X126162500Y-54236428D01*
X126233928Y-54379285D01*
X126233928Y-54522142D01*
X126162500Y-54736428D01*
X125305357Y-55593571D01*
X126233928Y-55593571D01*
X127162500Y-54093571D02*
X127305357Y-54093571D01*
X127448214Y-54165000D01*
X127519642Y-54236428D01*
X127591071Y-54379285D01*
X127662500Y-54665000D01*
X127662500Y-55022142D01*
X127591071Y-55307857D01*
X127519642Y-55450714D01*
X127448214Y-55522142D01*
X127305357Y-55593571D01*
X127162500Y-55593571D01*
X127019642Y-55522142D01*
X126948214Y-55450714D01*
X126876785Y-55307857D01*
X126805357Y-55022142D01*
X126805357Y-54665000D01*
X126876785Y-54379285D01*
X126948214Y-54236428D01*
X127019642Y-54165000D01*
X127162500Y-54093571D01*
X128233928Y-54236428D02*
X128305357Y-54165000D01*
X128448214Y-54093571D01*
X128805357Y-54093571D01*
X128948214Y-54165000D01*
X129019642Y-54236428D01*
X129091071Y-54379285D01*
X129091071Y-54522142D01*
X129019642Y-54736428D01*
X128162500Y-55593571D01*
X129091071Y-55593571D01*
X129662500Y-54236428D02*
X129733928Y-54165000D01*
X129876785Y-54093571D01*
X130233928Y-54093571D01*
X130376785Y-54165000D01*
X130448214Y-54236428D01*
X130519642Y-54379285D01*
X130519642Y-54522142D01*
X130448214Y-54736428D01*
X129591071Y-55593571D01*
X130519642Y-55593571D01*
X133162500Y-55593571D02*
X132662500Y-54879285D01*
X132305357Y-55593571D02*
X132305357Y-54093571D01*
X132876785Y-54093571D01*
X133019642Y-54165000D01*
X133091071Y-54236428D01*
X133162500Y-54379285D01*
X133162500Y-54593571D01*
X133091071Y-54736428D01*
X133019642Y-54807857D01*
X132876785Y-54879285D01*
X132305357Y-54879285D01*
X134376785Y-55522142D02*
X134233928Y-55593571D01*
X133948214Y-55593571D01*
X133805357Y-55522142D01*
X133733928Y-55379285D01*
X133733928Y-54807857D01*
X133805357Y-54665000D01*
X133948214Y-54593571D01*
X134233928Y-54593571D01*
X134376785Y-54665000D01*
X134448214Y-54807857D01*
X134448214Y-54950714D01*
X133733928Y-55093571D01*
X134948214Y-54593571D02*
X135305357Y-55593571D01*
X135662500Y-54593571D01*
X136233928Y-55593571D02*
X136233928Y-54593571D01*
X136233928Y-54093571D02*
X136162500Y-54165000D01*
X136233928Y-54236428D01*
X136305357Y-54165000D01*
X136233928Y-54093571D01*
X136233928Y-54236428D01*
X136876785Y-55522142D02*
X137019642Y-55593571D01*
X137305357Y-55593571D01*
X137448214Y-55522142D01*
X137519642Y-55379285D01*
X137519642Y-55307857D01*
X137448214Y-55165000D01*
X137305357Y-55093571D01*
X137091071Y-55093571D01*
X136948214Y-55022142D01*
X136876785Y-54879285D01*
X136876785Y-54807857D01*
X136948214Y-54665000D01*
X137091071Y-54593571D01*
X137305357Y-54593571D01*
X137448214Y-54665000D01*
X138162500Y-55593571D02*
X138162500Y-54593571D01*
X138162500Y-54093571D02*
X138091071Y-54165000D01*
X138162500Y-54236428D01*
X138233928Y-54165000D01*
X138162500Y-54093571D01*
X138162500Y-54236428D01*
X139091071Y-55593571D02*
X138948214Y-55522142D01*
X138876785Y-55450714D01*
X138805357Y-55307857D01*
X138805357Y-54879285D01*
X138876785Y-54736428D01*
X138948214Y-54665000D01*
X139091071Y-54593571D01*
X139305357Y-54593571D01*
X139448214Y-54665000D01*
X139519642Y-54736428D01*
X139591071Y-54879285D01*
X139591071Y-55307857D01*
X139519642Y-55450714D01*
X139448214Y-55522142D01*
X139305357Y-55593571D01*
X139091071Y-55593571D01*
X140233928Y-54593571D02*
X140233928Y-55593571D01*
X140233928Y-54736428D02*
X140305357Y-54665000D01*
X140448214Y-54593571D01*
X140662500Y-54593571D01*
X140805357Y-54665000D01*
X140876785Y-54807857D01*
X140876785Y-55593571D01*
X143519642Y-55593571D02*
X142662500Y-55593571D01*
X143091071Y-55593571D02*
X143091071Y-54093571D01*
X142948214Y-54307857D01*
X142805357Y-54450714D01*
X142662500Y-54522142D01*
X144162500Y-55450714D02*
X144233928Y-55522142D01*
X144162500Y-55593571D01*
X144091071Y-55522142D01*
X144162500Y-55450714D01*
X144162500Y-55593571D01*
X144733928Y-54093571D02*
X145662500Y-54093571D01*
X145162500Y-54665000D01*
X145376785Y-54665000D01*
X145519642Y-54736428D01*
X145591071Y-54807857D01*
X145662500Y-54950714D01*
X145662500Y-55307857D01*
X145591071Y-55450714D01*
X145519642Y-55522142D01*
X145376785Y-55593571D01*
X144948214Y-55593571D01*
X144805357Y-55522142D01*
X144733928Y-55450714D01*
X146305357Y-55450714D02*
X146376785Y-55522142D01*
X146305357Y-55593571D01*
X146233928Y-55522142D01*
X146305357Y-55450714D01*
X146305357Y-55593571D01*
X146948214Y-54236428D02*
X147019642Y-54165000D01*
X147162500Y-54093571D01*
X147519642Y-54093571D01*
X147662500Y-54165000D01*
X147733928Y-54236428D01*
X147805357Y-54379285D01*
X147805357Y-54522142D01*
X147733928Y-54736428D01*
X146876785Y-55593571D01*
X147805357Y-55593571D01*
D11*
X170600000Y-117971428D02*
X171361904Y-117971428D01*
X170980952Y-118352380D02*
X170980952Y-117590476D01*
X171742857Y-117352380D02*
X172361904Y-117352380D01*
X172028571Y-117733333D01*
X172171428Y-117733333D01*
X172266666Y-117780952D01*
X172314285Y-117828571D01*
X172361904Y-117923809D01*
X172361904Y-118161904D01*
X172314285Y-118257142D01*
X172266666Y-118304761D01*
X172171428Y-118352380D01*
X171885714Y-118352380D01*
X171790476Y-118304761D01*
X171742857Y-118257142D01*
X172790476Y-118257142D02*
X172838095Y-118304761D01*
X172790476Y-118352380D01*
X172742857Y-118304761D01*
X172790476Y-118257142D01*
X172790476Y-118352380D01*
X173171428Y-117352380D02*
X173790476Y-117352380D01*
X173457142Y-117733333D01*
X173600000Y-117733333D01*
X173695238Y-117780952D01*
X173742857Y-117828571D01*
X173790476Y-117923809D01*
X173790476Y-118161904D01*
X173742857Y-118257142D01*
X173695238Y-118304761D01*
X173600000Y-118352380D01*
X173314285Y-118352380D01*
X173219047Y-118304761D01*
X173171428Y-118257142D01*
X174076190Y-117352380D02*
X174409523Y-118352380D01*
X174742857Y-117352380D01*
D12*
X157171428Y-66607142D02*
X158314285Y-66607142D01*
X157742857Y-67178571D02*
X157742857Y-66035714D01*
X159242857Y-66321428D02*
X159100000Y-66250000D01*
X159028571Y-66178571D01*
X158957142Y-66035714D01*
X158957142Y-65964285D01*
X159028571Y-65821428D01*
X159100000Y-65750000D01*
X159242857Y-65678571D01*
X159528571Y-65678571D01*
X159671428Y-65750000D01*
X159742857Y-65821428D01*
X159814285Y-65964285D01*
X159814285Y-66035714D01*
X159742857Y-66178571D01*
X159671428Y-66250000D01*
X159528571Y-66321428D01*
X159242857Y-66321428D01*
X159100000Y-66392857D01*
X159028571Y-66464285D01*
X158957142Y-66607142D01*
X158957142Y-66892857D01*
X159028571Y-67035714D01*
X159100000Y-67107142D01*
X159242857Y-67178571D01*
X159528571Y-67178571D01*
X159671428Y-67107142D01*
X159742857Y-67035714D01*
X159814285Y-66892857D01*
X159814285Y-66607142D01*
X159742857Y-66464285D01*
X159671428Y-66392857D01*
X159528571Y-66321428D01*
X160242857Y-65678571D02*
X160742857Y-67178571D01*
X161242857Y-65678571D01*
X157071428Y-60607142D02*
X158214285Y-60607142D01*
X159142857Y-60321428D02*
X159000000Y-60250000D01*
X158928571Y-60178571D01*
X158857142Y-60035714D01*
X158857142Y-59964285D01*
X158928571Y-59821428D01*
X159000000Y-59750000D01*
X159142857Y-59678571D01*
X159428571Y-59678571D01*
X159571428Y-59750000D01*
X159642857Y-59821428D01*
X159714285Y-59964285D01*
X159714285Y-60035714D01*
X159642857Y-60178571D01*
X159571428Y-60250000D01*
X159428571Y-60321428D01*
X159142857Y-60321428D01*
X159000000Y-60392857D01*
X158928571Y-60464285D01*
X158857142Y-60607142D01*
X158857142Y-60892857D01*
X158928571Y-61035714D01*
X159000000Y-61107142D01*
X159142857Y-61178571D01*
X159428571Y-61178571D01*
X159571428Y-61107142D01*
X159642857Y-61035714D01*
X159714285Y-60892857D01*
X159714285Y-60607142D01*
X159642857Y-60464285D01*
X159571428Y-60392857D01*
X159428571Y-60321428D01*
X160142857Y-59678571D02*
X160642857Y-61178571D01*
X161142857Y-59678571D01*
X158157142Y-62550000D02*
X158014285Y-62478571D01*
X157800000Y-62478571D01*
X157585714Y-62550000D01*
X157442857Y-62692857D01*
X157371428Y-62835714D01*
X157300000Y-63121428D01*
X157300000Y-63335714D01*
X157371428Y-63621428D01*
X157442857Y-63764285D01*
X157585714Y-63907142D01*
X157800000Y-63978571D01*
X157942857Y-63978571D01*
X158157142Y-63907142D01*
X158228571Y-63835714D01*
X158228571Y-63335714D01*
X157942857Y-63335714D01*
X158871428Y-63978571D02*
X158871428Y-62478571D01*
X159728571Y-63978571D01*
X159728571Y-62478571D01*
X160442857Y-63978571D02*
X160442857Y-62478571D01*
X160800000Y-62478571D01*
X161014285Y-62550000D01*
X161157142Y-62692857D01*
X161228571Y-62835714D01*
X161300000Y-63121428D01*
X161300000Y-63335714D01*
X161228571Y-63621428D01*
X161157142Y-63764285D01*
X161014285Y-63907142D01*
X160800000Y-63978571D01*
X160442857Y-63978571D01*
D11*
X85852380Y-139713333D02*
X86566666Y-139713333D01*
X86709523Y-139760952D01*
X86804761Y-139856190D01*
X86852380Y-139999047D01*
X86852380Y-140094285D01*
X86852380Y-138713333D02*
X86852380Y-139284761D01*
X86852380Y-138999047D02*
X85852380Y-138999047D01*
X85995238Y-139094285D01*
X86090476Y-139189523D01*
X86138095Y-139284761D01*
X102333333Y-115257142D02*
X102285714Y-115304761D01*
X102142857Y-115352380D01*
X102047619Y-115352380D01*
X101904761Y-115304761D01*
X101809523Y-115209523D01*
X101761904Y-115114285D01*
X101714285Y-114923809D01*
X101714285Y-114780952D01*
X101761904Y-114590476D01*
X101809523Y-114495238D01*
X101904761Y-114400000D01*
X102047619Y-114352380D01*
X102142857Y-114352380D01*
X102285714Y-114400000D01*
X102333333Y-114447619D01*
X102666666Y-114352380D02*
X103285714Y-114352380D01*
X102952380Y-114733333D01*
X103095238Y-114733333D01*
X103190476Y-114780952D01*
X103238095Y-114828571D01*
X103285714Y-114923809D01*
X103285714Y-115161904D01*
X103238095Y-115257142D01*
X103190476Y-115304761D01*
X103095238Y-115352380D01*
X102809523Y-115352380D01*
X102714285Y-115304761D01*
X102666666Y-115257142D01*
X102833333Y-128357142D02*
X102785714Y-128404761D01*
X102642857Y-128452380D01*
X102547619Y-128452380D01*
X102404761Y-128404761D01*
X102309523Y-128309523D01*
X102261904Y-128214285D01*
X102214285Y-128023809D01*
X102214285Y-127880952D01*
X102261904Y-127690476D01*
X102309523Y-127595238D01*
X102404761Y-127500000D01*
X102547619Y-127452380D01*
X102642857Y-127452380D01*
X102785714Y-127500000D01*
X102833333Y-127547619D01*
X103690476Y-127785714D02*
X103690476Y-128452380D01*
X103452380Y-127404761D02*
X103214285Y-128119047D01*
X103833333Y-128119047D01*
X106257142Y-123666666D02*
X106304761Y-123714285D01*
X106352380Y-123857142D01*
X106352380Y-123952380D01*
X106304761Y-124095238D01*
X106209523Y-124190476D01*
X106114285Y-124238095D01*
X105923809Y-124285714D01*
X105780952Y-124285714D01*
X105590476Y-124238095D01*
X105495238Y-124190476D01*
X105400000Y-124095238D01*
X105352380Y-123952380D01*
X105352380Y-123857142D01*
X105400000Y-123714285D01*
X105447619Y-123666666D01*
X105352380Y-122761904D02*
X105352380Y-123238095D01*
X105828571Y-123285714D01*
X105780952Y-123238095D01*
X105733333Y-123142857D01*
X105733333Y-122904761D01*
X105780952Y-122809523D01*
X105828571Y-122761904D01*
X105923809Y-122714285D01*
X106161904Y-122714285D01*
X106257142Y-122761904D01*
X106304761Y-122809523D01*
X106352380Y-122904761D01*
X106352380Y-123142857D01*
X106304761Y-123238095D01*
X106257142Y-123285714D01*
X106357142Y-136566666D02*
X106404761Y-136614285D01*
X106452380Y-136757142D01*
X106452380Y-136852380D01*
X106404761Y-136995238D01*
X106309523Y-137090476D01*
X106214285Y-137138095D01*
X106023809Y-137185714D01*
X105880952Y-137185714D01*
X105690476Y-137138095D01*
X105595238Y-137090476D01*
X105500000Y-136995238D01*
X105452380Y-136852380D01*
X105452380Y-136757142D01*
X105500000Y-136614285D01*
X105547619Y-136566666D01*
X105452380Y-135709523D02*
X105452380Y-135900000D01*
X105500000Y-135995238D01*
X105547619Y-136042857D01*
X105690476Y-136138095D01*
X105880952Y-136185714D01*
X106261904Y-136185714D01*
X106357142Y-136138095D01*
X106404761Y-136090476D01*
X106452380Y-135995238D01*
X106452380Y-135804761D01*
X106404761Y-135709523D01*
X106357142Y-135661904D01*
X106261904Y-135614285D01*
X106023809Y-135614285D01*
X105928571Y-135661904D01*
X105880952Y-135709523D01*
X105833333Y-135804761D01*
X105833333Y-135995238D01*
X105880952Y-136090476D01*
X105928571Y-136138095D01*
X106023809Y-136185714D01*
X163533333Y-105557142D02*
X163485714Y-105604761D01*
X163342857Y-105652380D01*
X163247619Y-105652380D01*
X163104761Y-105604761D01*
X163009523Y-105509523D01*
X162961904Y-105414285D01*
X162914285Y-105223809D01*
X162914285Y-105080952D01*
X162961904Y-104890476D01*
X163009523Y-104795238D01*
X163104761Y-104700000D01*
X163247619Y-104652380D01*
X163342857Y-104652380D01*
X163485714Y-104700000D01*
X163533333Y-104747619D01*
X163866666Y-104652380D02*
X164533333Y-104652380D01*
X164104761Y-105652380D01*
X113757142Y-85357142D02*
X113709523Y-85404761D01*
X113566666Y-85452380D01*
X113471428Y-85452380D01*
X113328571Y-85404761D01*
X113233333Y-85309523D01*
X113185714Y-85214285D01*
X113138095Y-85023809D01*
X113138095Y-84880952D01*
X113185714Y-84690476D01*
X113233333Y-84595238D01*
X113328571Y-84500000D01*
X113471428Y-84452380D01*
X113566666Y-84452380D01*
X113709523Y-84500000D01*
X113757142Y-84547619D01*
X114709523Y-85452380D02*
X114138095Y-85452380D01*
X114423809Y-85452380D02*
X114423809Y-84452380D01*
X114328571Y-84595238D01*
X114233333Y-84690476D01*
X114138095Y-84738095D01*
X115328571Y-84452380D02*
X115423809Y-84452380D01*
X115519047Y-84500000D01*
X115566666Y-84547619D01*
X115614285Y-84642857D01*
X115661904Y-84833333D01*
X115661904Y-85071428D01*
X115614285Y-85261904D01*
X115566666Y-85357142D01*
X115519047Y-85404761D01*
X115423809Y-85452380D01*
X115328571Y-85452380D01*
X115233333Y-85404761D01*
X115185714Y-85357142D01*
X115138095Y-85261904D01*
X115090476Y-85071428D01*
X115090476Y-84833333D01*
X115138095Y-84642857D01*
X115185714Y-84547619D01*
X115233333Y-84500000D01*
X115328571Y-84452380D01*
X117437142Y-118642857D02*
X117484761Y-118690476D01*
X117532380Y-118833333D01*
X117532380Y-118928571D01*
X117484761Y-119071428D01*
X117389523Y-119166666D01*
X117294285Y-119214285D01*
X117103809Y-119261904D01*
X116960952Y-119261904D01*
X116770476Y-119214285D01*
X116675238Y-119166666D01*
X116580000Y-119071428D01*
X116532380Y-118928571D01*
X116532380Y-118833333D01*
X116580000Y-118690476D01*
X116627619Y-118642857D01*
X117532380Y-117690476D02*
X117532380Y-118261904D01*
X117532380Y-117976190D02*
X116532380Y-117976190D01*
X116675238Y-118071428D01*
X116770476Y-118166666D01*
X116818095Y-118261904D01*
X117532380Y-116738095D02*
X117532380Y-117309523D01*
X117532380Y-117023809D02*
X116532380Y-117023809D01*
X116675238Y-117119047D01*
X116770476Y-117214285D01*
X116818095Y-117309523D01*
X117137142Y-131642857D02*
X117184761Y-131690476D01*
X117232380Y-131833333D01*
X117232380Y-131928571D01*
X117184761Y-132071428D01*
X117089523Y-132166666D01*
X116994285Y-132214285D01*
X116803809Y-132261904D01*
X116660952Y-132261904D01*
X116470476Y-132214285D01*
X116375238Y-132166666D01*
X116280000Y-132071428D01*
X116232380Y-131928571D01*
X116232380Y-131833333D01*
X116280000Y-131690476D01*
X116327619Y-131642857D01*
X117232380Y-130690476D02*
X117232380Y-131261904D01*
X117232380Y-130976190D02*
X116232380Y-130976190D01*
X116375238Y-131071428D01*
X116470476Y-131166666D01*
X116518095Y-131261904D01*
X116327619Y-130309523D02*
X116280000Y-130261904D01*
X116232380Y-130166666D01*
X116232380Y-129928571D01*
X116280000Y-129833333D01*
X116327619Y-129785714D01*
X116422857Y-129738095D01*
X116518095Y-129738095D01*
X116660952Y-129785714D01*
X117232380Y-130357142D01*
X117232380Y-129738095D01*
X147257142Y-113087142D02*
X147209523Y-113134761D01*
X147066666Y-113182380D01*
X146971428Y-113182380D01*
X146828571Y-113134761D01*
X146733333Y-113039523D01*
X146685714Y-112944285D01*
X146638095Y-112753809D01*
X146638095Y-112610952D01*
X146685714Y-112420476D01*
X146733333Y-112325238D01*
X146828571Y-112230000D01*
X146971428Y-112182380D01*
X147066666Y-112182380D01*
X147209523Y-112230000D01*
X147257142Y-112277619D01*
X148209523Y-113182380D02*
X147638095Y-113182380D01*
X147923809Y-113182380D02*
X147923809Y-112182380D01*
X147828571Y-112325238D01*
X147733333Y-112420476D01*
X147638095Y-112468095D01*
X148542857Y-112182380D02*
X149161904Y-112182380D01*
X148828571Y-112563333D01*
X148971428Y-112563333D01*
X149066666Y-112610952D01*
X149114285Y-112658571D01*
X149161904Y-112753809D01*
X149161904Y-112991904D01*
X149114285Y-113087142D01*
X149066666Y-113134761D01*
X148971428Y-113182380D01*
X148685714Y-113182380D01*
X148590476Y-113134761D01*
X148542857Y-113087142D01*
X166357142Y-113087142D02*
X166309523Y-113134761D01*
X166166666Y-113182380D01*
X166071428Y-113182380D01*
X165928571Y-113134761D01*
X165833333Y-113039523D01*
X165785714Y-112944285D01*
X165738095Y-112753809D01*
X165738095Y-112610952D01*
X165785714Y-112420476D01*
X165833333Y-112325238D01*
X165928571Y-112230000D01*
X166071428Y-112182380D01*
X166166666Y-112182380D01*
X166309523Y-112230000D01*
X166357142Y-112277619D01*
X167309523Y-113182380D02*
X166738095Y-113182380D01*
X167023809Y-113182380D02*
X167023809Y-112182380D01*
X166928571Y-112325238D01*
X166833333Y-112420476D01*
X166738095Y-112468095D01*
X168166666Y-112515714D02*
X168166666Y-113182380D01*
X167928571Y-112134761D02*
X167690476Y-112849047D01*
X168309523Y-112849047D01*
X172177142Y-107642857D02*
X172224761Y-107690476D01*
X172272380Y-107833333D01*
X172272380Y-107928571D01*
X172224761Y-108071428D01*
X172129523Y-108166666D01*
X172034285Y-108214285D01*
X171843809Y-108261904D01*
X171700952Y-108261904D01*
X171510476Y-108214285D01*
X171415238Y-108166666D01*
X171320000Y-108071428D01*
X171272380Y-107928571D01*
X171272380Y-107833333D01*
X171320000Y-107690476D01*
X171367619Y-107642857D01*
X172272380Y-106690476D02*
X172272380Y-107261904D01*
X172272380Y-106976190D02*
X171272380Y-106976190D01*
X171415238Y-107071428D01*
X171510476Y-107166666D01*
X171558095Y-107261904D01*
X171272380Y-105785714D02*
X171272380Y-106261904D01*
X171748571Y-106309523D01*
X171700952Y-106261904D01*
X171653333Y-106166666D01*
X171653333Y-105928571D01*
X171700952Y-105833333D01*
X171748571Y-105785714D01*
X171843809Y-105738095D01*
X172081904Y-105738095D01*
X172177142Y-105785714D01*
X172224761Y-105833333D01*
X172272380Y-105928571D01*
X172272380Y-106166666D01*
X172224761Y-106261904D01*
X172177142Y-106309523D01*
X223307142Y-116642857D02*
X223354761Y-116690476D01*
X223402380Y-116833333D01*
X223402380Y-116928571D01*
X223354761Y-117071428D01*
X223259523Y-117166666D01*
X223164285Y-117214285D01*
X222973809Y-117261904D01*
X222830952Y-117261904D01*
X222640476Y-117214285D01*
X222545238Y-117166666D01*
X222450000Y-117071428D01*
X222402380Y-116928571D01*
X222402380Y-116833333D01*
X222450000Y-116690476D01*
X222497619Y-116642857D01*
X223402380Y-115690476D02*
X223402380Y-116261904D01*
X223402380Y-115976190D02*
X222402380Y-115976190D01*
X222545238Y-116071428D01*
X222640476Y-116166666D01*
X222688095Y-116261904D01*
X222402380Y-114833333D02*
X222402380Y-115023809D01*
X222450000Y-115119047D01*
X222497619Y-115166666D01*
X222640476Y-115261904D01*
X222830952Y-115309523D01*
X223211904Y-115309523D01*
X223307142Y-115261904D01*
X223354761Y-115214285D01*
X223402380Y-115119047D01*
X223402380Y-114928571D01*
X223354761Y-114833333D01*
X223307142Y-114785714D01*
X223211904Y-114738095D01*
X222973809Y-114738095D01*
X222878571Y-114785714D01*
X222830952Y-114833333D01*
X222783333Y-114928571D01*
X222783333Y-115119047D01*
X222830952Y-115214285D01*
X222878571Y-115261904D01*
X222973809Y-115309523D01*
X179037142Y-106642857D02*
X179084761Y-106690476D01*
X179132380Y-106833333D01*
X179132380Y-106928571D01*
X179084761Y-107071428D01*
X178989523Y-107166666D01*
X178894285Y-107214285D01*
X178703809Y-107261904D01*
X178560952Y-107261904D01*
X178370476Y-107214285D01*
X178275238Y-107166666D01*
X178180000Y-107071428D01*
X178132380Y-106928571D01*
X178132380Y-106833333D01*
X178180000Y-106690476D01*
X178227619Y-106642857D01*
X179132380Y-105690476D02*
X179132380Y-106261904D01*
X179132380Y-105976190D02*
X178132380Y-105976190D01*
X178275238Y-106071428D01*
X178370476Y-106166666D01*
X178418095Y-106261904D01*
X178132380Y-105357142D02*
X178132380Y-104690476D01*
X179132380Y-105119047D01*
X182207142Y-101042857D02*
X182254761Y-101090476D01*
X182302380Y-101233333D01*
X182302380Y-101328571D01*
X182254761Y-101471428D01*
X182159523Y-101566666D01*
X182064285Y-101614285D01*
X181873809Y-101661904D01*
X181730952Y-101661904D01*
X181540476Y-101614285D01*
X181445238Y-101566666D01*
X181350000Y-101471428D01*
X181302380Y-101328571D01*
X181302380Y-101233333D01*
X181350000Y-101090476D01*
X181397619Y-101042857D01*
X182302380Y-100090476D02*
X182302380Y-100661904D01*
X182302380Y-100376190D02*
X181302380Y-100376190D01*
X181445238Y-100471428D01*
X181540476Y-100566666D01*
X181588095Y-100661904D01*
X181730952Y-99519047D02*
X181683333Y-99614285D01*
X181635714Y-99661904D01*
X181540476Y-99709523D01*
X181492857Y-99709523D01*
X181397619Y-99661904D01*
X181350000Y-99614285D01*
X181302380Y-99519047D01*
X181302380Y-99328571D01*
X181350000Y-99233333D01*
X181397619Y-99185714D01*
X181492857Y-99138095D01*
X181540476Y-99138095D01*
X181635714Y-99185714D01*
X181683333Y-99233333D01*
X181730952Y-99328571D01*
X181730952Y-99519047D01*
X181778571Y-99614285D01*
X181826190Y-99661904D01*
X181921428Y-99709523D01*
X182111904Y-99709523D01*
X182207142Y-99661904D01*
X182254761Y-99614285D01*
X182302380Y-99519047D01*
X182302380Y-99328571D01*
X182254761Y-99233333D01*
X182207142Y-99185714D01*
X182111904Y-99138095D01*
X181921428Y-99138095D01*
X181826190Y-99185714D01*
X181778571Y-99233333D01*
X181730952Y-99328571D01*
X177657142Y-113907142D02*
X177609523Y-113954761D01*
X177466666Y-114002380D01*
X177371428Y-114002380D01*
X177228571Y-113954761D01*
X177133333Y-113859523D01*
X177085714Y-113764285D01*
X177038095Y-113573809D01*
X177038095Y-113430952D01*
X177085714Y-113240476D01*
X177133333Y-113145238D01*
X177228571Y-113050000D01*
X177371428Y-113002380D01*
X177466666Y-113002380D01*
X177609523Y-113050000D01*
X177657142Y-113097619D01*
X178609523Y-114002380D02*
X178038095Y-114002380D01*
X178323809Y-114002380D02*
X178323809Y-113002380D01*
X178228571Y-113145238D01*
X178133333Y-113240476D01*
X178038095Y-113288095D01*
X179085714Y-114002380D02*
X179276190Y-114002380D01*
X179371428Y-113954761D01*
X179419047Y-113907142D01*
X179514285Y-113764285D01*
X179561904Y-113573809D01*
X179561904Y-113192857D01*
X179514285Y-113097619D01*
X179466666Y-113050000D01*
X179371428Y-113002380D01*
X179180952Y-113002380D01*
X179085714Y-113050000D01*
X179038095Y-113097619D01*
X178990476Y-113192857D01*
X178990476Y-113430952D01*
X179038095Y-113526190D01*
X179085714Y-113573809D01*
X179180952Y-113621428D01*
X179371428Y-113621428D01*
X179466666Y-113573809D01*
X179514285Y-113526190D01*
X179561904Y-113430952D01*
X189257142Y-105242857D02*
X189304761Y-105290476D01*
X189352380Y-105433333D01*
X189352380Y-105528571D01*
X189304761Y-105671428D01*
X189209523Y-105766666D01*
X189114285Y-105814285D01*
X188923809Y-105861904D01*
X188780952Y-105861904D01*
X188590476Y-105814285D01*
X188495238Y-105766666D01*
X188400000Y-105671428D01*
X188352380Y-105528571D01*
X188352380Y-105433333D01*
X188400000Y-105290476D01*
X188447619Y-105242857D01*
X188447619Y-104861904D02*
X188400000Y-104814285D01*
X188352380Y-104719047D01*
X188352380Y-104480952D01*
X188400000Y-104385714D01*
X188447619Y-104338095D01*
X188542857Y-104290476D01*
X188638095Y-104290476D01*
X188780952Y-104338095D01*
X189352380Y-104909523D01*
X189352380Y-104290476D01*
X188352380Y-103671428D02*
X188352380Y-103576190D01*
X188400000Y-103480952D01*
X188447619Y-103433333D01*
X188542857Y-103385714D01*
X188733333Y-103338095D01*
X188971428Y-103338095D01*
X189161904Y-103385714D01*
X189257142Y-103433333D01*
X189304761Y-103480952D01*
X189352380Y-103576190D01*
X189352380Y-103671428D01*
X189304761Y-103766666D01*
X189257142Y-103814285D01*
X189161904Y-103861904D01*
X188971428Y-103909523D01*
X188733333Y-103909523D01*
X188542857Y-103861904D01*
X188447619Y-103814285D01*
X188400000Y-103766666D01*
X188352380Y-103671428D01*
X185457142Y-113907142D02*
X185409523Y-113954761D01*
X185266666Y-114002380D01*
X185171428Y-114002380D01*
X185028571Y-113954761D01*
X184933333Y-113859523D01*
X184885714Y-113764285D01*
X184838095Y-113573809D01*
X184838095Y-113430952D01*
X184885714Y-113240476D01*
X184933333Y-113145238D01*
X185028571Y-113050000D01*
X185171428Y-113002380D01*
X185266666Y-113002380D01*
X185409523Y-113050000D01*
X185457142Y-113097619D01*
X185838095Y-113097619D02*
X185885714Y-113050000D01*
X185980952Y-113002380D01*
X186219047Y-113002380D01*
X186314285Y-113050000D01*
X186361904Y-113097619D01*
X186409523Y-113192857D01*
X186409523Y-113288095D01*
X186361904Y-113430952D01*
X185790476Y-114002380D01*
X186409523Y-114002380D01*
X187361904Y-114002380D02*
X186790476Y-114002380D01*
X187076190Y-114002380D02*
X187076190Y-113002380D01*
X186980952Y-113145238D01*
X186885714Y-113240476D01*
X186790476Y-113288095D01*
X194457142Y-111457142D02*
X194409523Y-111504761D01*
X194266666Y-111552380D01*
X194171428Y-111552380D01*
X194028571Y-111504761D01*
X193933333Y-111409523D01*
X193885714Y-111314285D01*
X193838095Y-111123809D01*
X193838095Y-110980952D01*
X193885714Y-110790476D01*
X193933333Y-110695238D01*
X194028571Y-110600000D01*
X194171428Y-110552380D01*
X194266666Y-110552380D01*
X194409523Y-110600000D01*
X194457142Y-110647619D01*
X194838095Y-110647619D02*
X194885714Y-110600000D01*
X194980952Y-110552380D01*
X195219047Y-110552380D01*
X195314285Y-110600000D01*
X195361904Y-110647619D01*
X195409523Y-110742857D01*
X195409523Y-110838095D01*
X195361904Y-110980952D01*
X194790476Y-111552380D01*
X195409523Y-111552380D01*
X195790476Y-110647619D02*
X195838095Y-110600000D01*
X195933333Y-110552380D01*
X196171428Y-110552380D01*
X196266666Y-110600000D01*
X196314285Y-110647619D01*
X196361904Y-110742857D01*
X196361904Y-110838095D01*
X196314285Y-110980952D01*
X195742857Y-111552380D01*
X196361904Y-111552380D01*
X201957142Y-101657142D02*
X201909523Y-101704761D01*
X201766666Y-101752380D01*
X201671428Y-101752380D01*
X201528571Y-101704761D01*
X201433333Y-101609523D01*
X201385714Y-101514285D01*
X201338095Y-101323809D01*
X201338095Y-101180952D01*
X201385714Y-100990476D01*
X201433333Y-100895238D01*
X201528571Y-100800000D01*
X201671428Y-100752380D01*
X201766666Y-100752380D01*
X201909523Y-100800000D01*
X201957142Y-100847619D01*
X202338095Y-100847619D02*
X202385714Y-100800000D01*
X202480952Y-100752380D01*
X202719047Y-100752380D01*
X202814285Y-100800000D01*
X202861904Y-100847619D01*
X202909523Y-100942857D01*
X202909523Y-101038095D01*
X202861904Y-101180952D01*
X202290476Y-101752380D01*
X202909523Y-101752380D01*
X203242857Y-100752380D02*
X203861904Y-100752380D01*
X203528571Y-101133333D01*
X203671428Y-101133333D01*
X203766666Y-101180952D01*
X203814285Y-101228571D01*
X203861904Y-101323809D01*
X203861904Y-101561904D01*
X203814285Y-101657142D01*
X203766666Y-101704761D01*
X203671428Y-101752380D01*
X203385714Y-101752380D01*
X203290476Y-101704761D01*
X203242857Y-101657142D01*
X181307142Y-115742857D02*
X181354761Y-115790476D01*
X181402380Y-115933333D01*
X181402380Y-116028571D01*
X181354761Y-116171428D01*
X181259523Y-116266666D01*
X181164285Y-116314285D01*
X180973809Y-116361904D01*
X180830952Y-116361904D01*
X180640476Y-116314285D01*
X180545238Y-116266666D01*
X180450000Y-116171428D01*
X180402380Y-116028571D01*
X180402380Y-115933333D01*
X180450000Y-115790476D01*
X180497619Y-115742857D01*
X180497619Y-115361904D02*
X180450000Y-115314285D01*
X180402380Y-115219047D01*
X180402380Y-114980952D01*
X180450000Y-114885714D01*
X180497619Y-114838095D01*
X180592857Y-114790476D01*
X180688095Y-114790476D01*
X180830952Y-114838095D01*
X181402380Y-115409523D01*
X181402380Y-114790476D01*
X180402380Y-113885714D02*
X180402380Y-114361904D01*
X180878571Y-114409523D01*
X180830952Y-114361904D01*
X180783333Y-114266666D01*
X180783333Y-114028571D01*
X180830952Y-113933333D01*
X180878571Y-113885714D01*
X180973809Y-113838095D01*
X181211904Y-113838095D01*
X181307142Y-113885714D01*
X181354761Y-113933333D01*
X181402380Y-114028571D01*
X181402380Y-114266666D01*
X181354761Y-114361904D01*
X181307142Y-114409523D01*
X220257142Y-116842857D02*
X220304761Y-116890476D01*
X220352380Y-117033333D01*
X220352380Y-117128571D01*
X220304761Y-117271428D01*
X220209523Y-117366666D01*
X220114285Y-117414285D01*
X219923809Y-117461904D01*
X219780952Y-117461904D01*
X219590476Y-117414285D01*
X219495238Y-117366666D01*
X219400000Y-117271428D01*
X219352380Y-117128571D01*
X219352380Y-117033333D01*
X219400000Y-116890476D01*
X219447619Y-116842857D01*
X219447619Y-116461904D02*
X219400000Y-116414285D01*
X219352380Y-116319047D01*
X219352380Y-116080952D01*
X219400000Y-115985714D01*
X219447619Y-115938095D01*
X219542857Y-115890476D01*
X219638095Y-115890476D01*
X219780952Y-115938095D01*
X220352380Y-116509523D01*
X220352380Y-115890476D01*
X220352380Y-115414285D02*
X220352380Y-115223809D01*
X220304761Y-115128571D01*
X220257142Y-115080952D01*
X220114285Y-114985714D01*
X219923809Y-114938095D01*
X219542857Y-114938095D01*
X219447619Y-114985714D01*
X219400000Y-115033333D01*
X219352380Y-115128571D01*
X219352380Y-115319047D01*
X219400000Y-115414285D01*
X219447619Y-115461904D01*
X219542857Y-115509523D01*
X219780952Y-115509523D01*
X219876190Y-115461904D01*
X219923809Y-115414285D01*
X219971428Y-115319047D01*
X219971428Y-115128571D01*
X219923809Y-115033333D01*
X219876190Y-114985714D01*
X219780952Y-114938095D01*
X224257142Y-129557142D02*
X224209523Y-129604761D01*
X224066666Y-129652380D01*
X223971428Y-129652380D01*
X223828571Y-129604761D01*
X223733333Y-129509523D01*
X223685714Y-129414285D01*
X223638095Y-129223809D01*
X223638095Y-129080952D01*
X223685714Y-128890476D01*
X223733333Y-128795238D01*
X223828571Y-128700000D01*
X223971428Y-128652380D01*
X224066666Y-128652380D01*
X224209523Y-128700000D01*
X224257142Y-128747619D01*
X224590476Y-128652380D02*
X225209523Y-128652380D01*
X224876190Y-129033333D01*
X225019047Y-129033333D01*
X225114285Y-129080952D01*
X225161904Y-129128571D01*
X225209523Y-129223809D01*
X225209523Y-129461904D01*
X225161904Y-129557142D01*
X225114285Y-129604761D01*
X225019047Y-129652380D01*
X224733333Y-129652380D01*
X224638095Y-129604761D01*
X224590476Y-129557142D01*
X225828571Y-128652380D02*
X225923809Y-128652380D01*
X226019047Y-128700000D01*
X226066666Y-128747619D01*
X226114285Y-128842857D01*
X226161904Y-129033333D01*
X226161904Y-129271428D01*
X226114285Y-129461904D01*
X226066666Y-129557142D01*
X226019047Y-129604761D01*
X225923809Y-129652380D01*
X225828571Y-129652380D01*
X225733333Y-129604761D01*
X225685714Y-129557142D01*
X225638095Y-129461904D01*
X225590476Y-129271428D01*
X225590476Y-129033333D01*
X225638095Y-128842857D01*
X225685714Y-128747619D01*
X225733333Y-128700000D01*
X225828571Y-128652380D01*
X189987142Y-121142857D02*
X190034761Y-121190476D01*
X190082380Y-121333333D01*
X190082380Y-121428571D01*
X190034761Y-121571428D01*
X189939523Y-121666666D01*
X189844285Y-121714285D01*
X189653809Y-121761904D01*
X189510952Y-121761904D01*
X189320476Y-121714285D01*
X189225238Y-121666666D01*
X189130000Y-121571428D01*
X189082380Y-121428571D01*
X189082380Y-121333333D01*
X189130000Y-121190476D01*
X189177619Y-121142857D01*
X189082380Y-120809523D02*
X189082380Y-120190476D01*
X189463333Y-120523809D01*
X189463333Y-120380952D01*
X189510952Y-120285714D01*
X189558571Y-120238095D01*
X189653809Y-120190476D01*
X189891904Y-120190476D01*
X189987142Y-120238095D01*
X190034761Y-120285714D01*
X190082380Y-120380952D01*
X190082380Y-120666666D01*
X190034761Y-120761904D01*
X189987142Y-120809523D01*
X189177619Y-119809523D02*
X189130000Y-119761904D01*
X189082380Y-119666666D01*
X189082380Y-119428571D01*
X189130000Y-119333333D01*
X189177619Y-119285714D01*
X189272857Y-119238095D01*
X189368095Y-119238095D01*
X189510952Y-119285714D01*
X190082380Y-119857142D01*
X190082380Y-119238095D01*
X184047142Y-139642857D02*
X184094761Y-139690476D01*
X184142380Y-139833333D01*
X184142380Y-139928571D01*
X184094761Y-140071428D01*
X183999523Y-140166666D01*
X183904285Y-140214285D01*
X183713809Y-140261904D01*
X183570952Y-140261904D01*
X183380476Y-140214285D01*
X183285238Y-140166666D01*
X183190000Y-140071428D01*
X183142380Y-139928571D01*
X183142380Y-139833333D01*
X183190000Y-139690476D01*
X183237619Y-139642857D01*
X183142380Y-139309523D02*
X183142380Y-138690476D01*
X183523333Y-139023809D01*
X183523333Y-138880952D01*
X183570952Y-138785714D01*
X183618571Y-138738095D01*
X183713809Y-138690476D01*
X183951904Y-138690476D01*
X184047142Y-138738095D01*
X184094761Y-138785714D01*
X184142380Y-138880952D01*
X184142380Y-139166666D01*
X184094761Y-139261904D01*
X184047142Y-139309523D01*
X183142380Y-138357142D02*
X183142380Y-137738095D01*
X183523333Y-138071428D01*
X183523333Y-137928571D01*
X183570952Y-137833333D01*
X183618571Y-137785714D01*
X183713809Y-137738095D01*
X183951904Y-137738095D01*
X184047142Y-137785714D01*
X184094761Y-137833333D01*
X184142380Y-137928571D01*
X184142380Y-138214285D01*
X184094761Y-138309523D01*
X184047142Y-138357142D01*
X179557142Y-135227142D02*
X179509523Y-135274761D01*
X179366666Y-135322380D01*
X179271428Y-135322380D01*
X179128571Y-135274761D01*
X179033333Y-135179523D01*
X178985714Y-135084285D01*
X178938095Y-134893809D01*
X178938095Y-134750952D01*
X178985714Y-134560476D01*
X179033333Y-134465238D01*
X179128571Y-134370000D01*
X179271428Y-134322380D01*
X179366666Y-134322380D01*
X179509523Y-134370000D01*
X179557142Y-134417619D01*
X179890476Y-134322380D02*
X180509523Y-134322380D01*
X180176190Y-134703333D01*
X180319047Y-134703333D01*
X180414285Y-134750952D01*
X180461904Y-134798571D01*
X180509523Y-134893809D01*
X180509523Y-135131904D01*
X180461904Y-135227142D01*
X180414285Y-135274761D01*
X180319047Y-135322380D01*
X180033333Y-135322380D01*
X179938095Y-135274761D01*
X179890476Y-135227142D01*
X181366666Y-134655714D02*
X181366666Y-135322380D01*
X181128571Y-134274761D02*
X180890476Y-134989047D01*
X181509523Y-134989047D01*
X163847142Y-139642857D02*
X163894761Y-139690476D01*
X163942380Y-139833333D01*
X163942380Y-139928571D01*
X163894761Y-140071428D01*
X163799523Y-140166666D01*
X163704285Y-140214285D01*
X163513809Y-140261904D01*
X163370952Y-140261904D01*
X163180476Y-140214285D01*
X163085238Y-140166666D01*
X162990000Y-140071428D01*
X162942380Y-139928571D01*
X162942380Y-139833333D01*
X162990000Y-139690476D01*
X163037619Y-139642857D01*
X162942380Y-139309523D02*
X162942380Y-138690476D01*
X163323333Y-139023809D01*
X163323333Y-138880952D01*
X163370952Y-138785714D01*
X163418571Y-138738095D01*
X163513809Y-138690476D01*
X163751904Y-138690476D01*
X163847142Y-138738095D01*
X163894761Y-138785714D01*
X163942380Y-138880952D01*
X163942380Y-139166666D01*
X163894761Y-139261904D01*
X163847142Y-139309523D01*
X162942380Y-138357142D02*
X162942380Y-137690476D01*
X163942380Y-138119047D01*
X174657142Y-135227142D02*
X174609523Y-135274761D01*
X174466666Y-135322380D01*
X174371428Y-135322380D01*
X174228571Y-135274761D01*
X174133333Y-135179523D01*
X174085714Y-135084285D01*
X174038095Y-134893809D01*
X174038095Y-134750952D01*
X174085714Y-134560476D01*
X174133333Y-134465238D01*
X174228571Y-134370000D01*
X174371428Y-134322380D01*
X174466666Y-134322380D01*
X174609523Y-134370000D01*
X174657142Y-134417619D01*
X174990476Y-134322380D02*
X175609523Y-134322380D01*
X175276190Y-134703333D01*
X175419047Y-134703333D01*
X175514285Y-134750952D01*
X175561904Y-134798571D01*
X175609523Y-134893809D01*
X175609523Y-135131904D01*
X175561904Y-135227142D01*
X175514285Y-135274761D01*
X175419047Y-135322380D01*
X175133333Y-135322380D01*
X175038095Y-135274761D01*
X174990476Y-135227142D01*
X176180952Y-134750952D02*
X176085714Y-134703333D01*
X176038095Y-134655714D01*
X175990476Y-134560476D01*
X175990476Y-134512857D01*
X176038095Y-134417619D01*
X176085714Y-134370000D01*
X176180952Y-134322380D01*
X176371428Y-134322380D01*
X176466666Y-134370000D01*
X176514285Y-134417619D01*
X176561904Y-134512857D01*
X176561904Y-134560476D01*
X176514285Y-134655714D01*
X176466666Y-134703333D01*
X176371428Y-134750952D01*
X176180952Y-134750952D01*
X176085714Y-134798571D01*
X176038095Y-134846190D01*
X175990476Y-134941428D01*
X175990476Y-135131904D01*
X176038095Y-135227142D01*
X176085714Y-135274761D01*
X176180952Y-135322380D01*
X176371428Y-135322380D01*
X176466666Y-135274761D01*
X176514285Y-135227142D01*
X176561904Y-135131904D01*
X176561904Y-134941428D01*
X176514285Y-134846190D01*
X176466666Y-134798571D01*
X176371428Y-134750952D01*
X144047142Y-139642857D02*
X144094761Y-139690476D01*
X144142380Y-139833333D01*
X144142380Y-139928571D01*
X144094761Y-140071428D01*
X143999523Y-140166666D01*
X143904285Y-140214285D01*
X143713809Y-140261904D01*
X143570952Y-140261904D01*
X143380476Y-140214285D01*
X143285238Y-140166666D01*
X143190000Y-140071428D01*
X143142380Y-139928571D01*
X143142380Y-139833333D01*
X143190000Y-139690476D01*
X143237619Y-139642857D01*
X143475714Y-138785714D02*
X144142380Y-138785714D01*
X143094761Y-139023809D02*
X143809047Y-139261904D01*
X143809047Y-138642857D01*
X143142380Y-138071428D02*
X143142380Y-137976190D01*
X143190000Y-137880952D01*
X143237619Y-137833333D01*
X143332857Y-137785714D01*
X143523333Y-137738095D01*
X143761428Y-137738095D01*
X143951904Y-137785714D01*
X144047142Y-137833333D01*
X144094761Y-137880952D01*
X144142380Y-137976190D01*
X144142380Y-138071428D01*
X144094761Y-138166666D01*
X144047142Y-138214285D01*
X143951904Y-138261904D01*
X143761428Y-138309523D01*
X143523333Y-138309523D01*
X143332857Y-138261904D01*
X143237619Y-138214285D01*
X143190000Y-138166666D01*
X143142380Y-138071428D01*
X154457142Y-135227142D02*
X154409523Y-135274761D01*
X154266666Y-135322380D01*
X154171428Y-135322380D01*
X154028571Y-135274761D01*
X153933333Y-135179523D01*
X153885714Y-135084285D01*
X153838095Y-134893809D01*
X153838095Y-134750952D01*
X153885714Y-134560476D01*
X153933333Y-134465238D01*
X154028571Y-134370000D01*
X154171428Y-134322380D01*
X154266666Y-134322380D01*
X154409523Y-134370000D01*
X154457142Y-134417619D01*
X155314285Y-134655714D02*
X155314285Y-135322380D01*
X155076190Y-134274761D02*
X154838095Y-134989047D01*
X155457142Y-134989047D01*
X155790476Y-134417619D02*
X155838095Y-134370000D01*
X155933333Y-134322380D01*
X156171428Y-134322380D01*
X156266666Y-134370000D01*
X156314285Y-134417619D01*
X156361904Y-134512857D01*
X156361904Y-134608095D01*
X156314285Y-134750952D01*
X155742857Y-135322380D01*
X156361904Y-135322380D01*
X119069642Y-66027142D02*
X119022023Y-66074761D01*
X118879166Y-66122380D01*
X118783928Y-66122380D01*
X118641071Y-66074761D01*
X118545833Y-65979523D01*
X118498214Y-65884285D01*
X118450595Y-65693809D01*
X118450595Y-65550952D01*
X118498214Y-65360476D01*
X118545833Y-65265238D01*
X118641071Y-65170000D01*
X118783928Y-65122380D01*
X118879166Y-65122380D01*
X119022023Y-65170000D01*
X119069642Y-65217619D01*
X119402976Y-65122380D02*
X120022023Y-65122380D01*
X119688690Y-65503333D01*
X119831547Y-65503333D01*
X119926785Y-65550952D01*
X119974404Y-65598571D01*
X120022023Y-65693809D01*
X120022023Y-65931904D01*
X119974404Y-66027142D01*
X119926785Y-66074761D01*
X119831547Y-66122380D01*
X119545833Y-66122380D01*
X119450595Y-66074761D01*
X119402976Y-66027142D01*
X120879166Y-65122380D02*
X120688690Y-65122380D01*
X120593452Y-65170000D01*
X120545833Y-65217619D01*
X120450595Y-65360476D01*
X120402976Y-65550952D01*
X120402976Y-65931904D01*
X120450595Y-66027142D01*
X120498214Y-66074761D01*
X120593452Y-66122380D01*
X120783928Y-66122380D01*
X120879166Y-66074761D01*
X120926785Y-66027142D01*
X120974404Y-65931904D01*
X120974404Y-65693809D01*
X120926785Y-65598571D01*
X120879166Y-65550952D01*
X120783928Y-65503333D01*
X120593452Y-65503333D01*
X120498214Y-65550952D01*
X120450595Y-65598571D01*
X120402976Y-65693809D01*
X113257142Y-77557142D02*
X113209523Y-77604761D01*
X113066666Y-77652380D01*
X112971428Y-77652380D01*
X112828571Y-77604761D01*
X112733333Y-77509523D01*
X112685714Y-77414285D01*
X112638095Y-77223809D01*
X112638095Y-77080952D01*
X112685714Y-76890476D01*
X112733333Y-76795238D01*
X112828571Y-76700000D01*
X112971428Y-76652380D01*
X113066666Y-76652380D01*
X113209523Y-76700000D01*
X113257142Y-76747619D01*
X113590476Y-76652380D02*
X114209523Y-76652380D01*
X113876190Y-77033333D01*
X114019047Y-77033333D01*
X114114285Y-77080952D01*
X114161904Y-77128571D01*
X114209523Y-77223809D01*
X114209523Y-77461904D01*
X114161904Y-77557142D01*
X114114285Y-77604761D01*
X114019047Y-77652380D01*
X113733333Y-77652380D01*
X113638095Y-77604761D01*
X113590476Y-77557142D01*
X114685714Y-77652380D02*
X114876190Y-77652380D01*
X114971428Y-77604761D01*
X115019047Y-77557142D01*
X115114285Y-77414285D01*
X115161904Y-77223809D01*
X115161904Y-76842857D01*
X115114285Y-76747619D01*
X115066666Y-76700000D01*
X114971428Y-76652380D01*
X114780952Y-76652380D01*
X114685714Y-76700000D01*
X114638095Y-76747619D01*
X114590476Y-76842857D01*
X114590476Y-77080952D01*
X114638095Y-77176190D01*
X114685714Y-77223809D01*
X114780952Y-77271428D01*
X114971428Y-77271428D01*
X115066666Y-77223809D01*
X115114285Y-77176190D01*
X115161904Y-77080952D01*
X119757142Y-79027142D02*
X119709523Y-79074761D01*
X119566666Y-79122380D01*
X119471428Y-79122380D01*
X119328571Y-79074761D01*
X119233333Y-78979523D01*
X119185714Y-78884285D01*
X119138095Y-78693809D01*
X119138095Y-78550952D01*
X119185714Y-78360476D01*
X119233333Y-78265238D01*
X119328571Y-78170000D01*
X119471428Y-78122380D01*
X119566666Y-78122380D01*
X119709523Y-78170000D01*
X119757142Y-78217619D01*
X120614285Y-78455714D02*
X120614285Y-79122380D01*
X120376190Y-78074761D02*
X120138095Y-78789047D01*
X120757142Y-78789047D01*
X121661904Y-79122380D02*
X121090476Y-79122380D01*
X121376190Y-79122380D02*
X121376190Y-78122380D01*
X121280952Y-78265238D01*
X121185714Y-78360476D01*
X121090476Y-78408095D01*
X233052380Y-116638095D02*
X232052380Y-116638095D01*
X232052380Y-116400000D01*
X232100000Y-116257142D01*
X232195238Y-116161904D01*
X232290476Y-116114285D01*
X232480952Y-116066666D01*
X232623809Y-116066666D01*
X232814285Y-116114285D01*
X232909523Y-116161904D01*
X233004761Y-116257142D01*
X233052380Y-116400000D01*
X233052380Y-116638095D01*
X233052380Y-115114285D02*
X233052380Y-115685714D01*
X233052380Y-115400000D02*
X232052380Y-115400000D01*
X232195238Y-115495238D01*
X232290476Y-115590476D01*
X232338095Y-115685714D01*
X213461904Y-131852380D02*
X213461904Y-130852380D01*
X213700000Y-130852380D01*
X213842857Y-130900000D01*
X213938095Y-130995238D01*
X213985714Y-131090476D01*
X214033333Y-131280952D01*
X214033333Y-131423809D01*
X213985714Y-131614285D01*
X213938095Y-131709523D01*
X213842857Y-131804761D01*
X213700000Y-131852380D01*
X213461904Y-131852380D01*
X214414285Y-130947619D02*
X214461904Y-130900000D01*
X214557142Y-130852380D01*
X214795238Y-130852380D01*
X214890476Y-130900000D01*
X214938095Y-130947619D01*
X214985714Y-131042857D01*
X214985714Y-131138095D01*
X214938095Y-131280952D01*
X214366666Y-131852380D01*
X214985714Y-131852380D01*
X140423809Y-116752380D02*
X140090476Y-116276190D01*
X139852380Y-116752380D02*
X139852380Y-115752380D01*
X140233333Y-115752380D01*
X140328571Y-115800000D01*
X140376190Y-115847619D01*
X140423809Y-115942857D01*
X140423809Y-116085714D01*
X140376190Y-116180952D01*
X140328571Y-116228571D01*
X140233333Y-116276190D01*
X139852380Y-116276190D01*
X141233333Y-116704761D02*
X141138095Y-116752380D01*
X140947619Y-116752380D01*
X140852380Y-116704761D01*
X140804761Y-116609523D01*
X140804761Y-116228571D01*
X140852380Y-116133333D01*
X140947619Y-116085714D01*
X141138095Y-116085714D01*
X141233333Y-116133333D01*
X141280952Y-116228571D01*
X141280952Y-116323809D01*
X140804761Y-116419047D01*
X141566666Y-116085714D02*
X141947619Y-116085714D01*
X141709523Y-116752380D02*
X141709523Y-115895238D01*
X141757142Y-115800000D01*
X141852380Y-115752380D01*
X141947619Y-115752380D01*
X142042857Y-116847619D02*
X142804761Y-116847619D01*
X143042857Y-116752380D02*
X143042857Y-115752380D01*
X143519047Y-116085714D02*
X143519047Y-116752380D01*
X143519047Y-116180952D02*
X143566666Y-116133333D01*
X143661904Y-116085714D01*
X143804761Y-116085714D01*
X143900000Y-116133333D01*
X143947619Y-116228571D01*
X143947619Y-116752380D01*
X112382380Y-122666666D02*
X111906190Y-123000000D01*
X112382380Y-123238095D02*
X111382380Y-123238095D01*
X111382380Y-122857142D01*
X111430000Y-122761904D01*
X111477619Y-122714285D01*
X111572857Y-122666666D01*
X111715714Y-122666666D01*
X111810952Y-122714285D01*
X111858571Y-122761904D01*
X111906190Y-122857142D01*
X111906190Y-123238095D01*
X112382380Y-121714285D02*
X112382380Y-122285714D01*
X112382380Y-122000000D02*
X111382380Y-122000000D01*
X111525238Y-122095238D01*
X111620476Y-122190476D01*
X111668095Y-122285714D01*
X112382380Y-135666666D02*
X111906190Y-136000000D01*
X112382380Y-136238095D02*
X111382380Y-136238095D01*
X111382380Y-135857142D01*
X111430000Y-135761904D01*
X111477619Y-135714285D01*
X111572857Y-135666666D01*
X111715714Y-135666666D01*
X111810952Y-135714285D01*
X111858571Y-135761904D01*
X111906190Y-135857142D01*
X111906190Y-136238095D01*
X111477619Y-135285714D02*
X111430000Y-135238095D01*
X111382380Y-135142857D01*
X111382380Y-134904761D01*
X111430000Y-134809523D01*
X111477619Y-134761904D01*
X111572857Y-134714285D01*
X111668095Y-134714285D01*
X111810952Y-134761904D01*
X112382380Y-135333333D01*
X112382380Y-134714285D01*
X153932380Y-112866666D02*
X153456190Y-113200000D01*
X153932380Y-113438095D02*
X152932380Y-113438095D01*
X152932380Y-113057142D01*
X152980000Y-112961904D01*
X153027619Y-112914285D01*
X153122857Y-112866666D01*
X153265714Y-112866666D01*
X153360952Y-112914285D01*
X153408571Y-112961904D01*
X153456190Y-113057142D01*
X153456190Y-113438095D01*
X152932380Y-112533333D02*
X152932380Y-111914285D01*
X153313333Y-112247619D01*
X153313333Y-112104761D01*
X153360952Y-112009523D01*
X153408571Y-111961904D01*
X153503809Y-111914285D01*
X153741904Y-111914285D01*
X153837142Y-111961904D01*
X153884761Y-112009523D01*
X153932380Y-112104761D01*
X153932380Y-112390476D01*
X153884761Y-112485714D01*
X153837142Y-112533333D01*
X237982380Y-110766666D02*
X237506190Y-111100000D01*
X237982380Y-111338095D02*
X236982380Y-111338095D01*
X236982380Y-110957142D01*
X237030000Y-110861904D01*
X237077619Y-110814285D01*
X237172857Y-110766666D01*
X237315714Y-110766666D01*
X237410952Y-110814285D01*
X237458571Y-110861904D01*
X237506190Y-110957142D01*
X237506190Y-111338095D01*
X236982380Y-109861904D02*
X236982380Y-110338095D01*
X237458571Y-110385714D01*
X237410952Y-110338095D01*
X237363333Y-110242857D01*
X237363333Y-110004761D01*
X237410952Y-109909523D01*
X237458571Y-109861904D01*
X237553809Y-109814285D01*
X237791904Y-109814285D01*
X237887142Y-109861904D01*
X237934761Y-109909523D01*
X237982380Y-110004761D01*
X237982380Y-110242857D01*
X237934761Y-110338095D01*
X237887142Y-110385714D01*
X228652380Y-116366666D02*
X228176190Y-116700000D01*
X228652380Y-116938095D02*
X227652380Y-116938095D01*
X227652380Y-116557142D01*
X227700000Y-116461904D01*
X227747619Y-116414285D01*
X227842857Y-116366666D01*
X227985714Y-116366666D01*
X228080952Y-116414285D01*
X228128571Y-116461904D01*
X228176190Y-116557142D01*
X228176190Y-116938095D01*
X227652380Y-115509523D02*
X227652380Y-115700000D01*
X227700000Y-115795238D01*
X227747619Y-115842857D01*
X227890476Y-115938095D01*
X228080952Y-115985714D01*
X228461904Y-115985714D01*
X228557142Y-115938095D01*
X228604761Y-115890476D01*
X228652380Y-115795238D01*
X228652380Y-115604761D01*
X228604761Y-115509523D01*
X228557142Y-115461904D01*
X228461904Y-115414285D01*
X228223809Y-115414285D01*
X228128571Y-115461904D01*
X228080952Y-115509523D01*
X228033333Y-115604761D01*
X228033333Y-115795238D01*
X228080952Y-115890476D01*
X228128571Y-115938095D01*
X228223809Y-115985714D01*
X183622380Y-106866666D02*
X183146190Y-107200000D01*
X183622380Y-107438095D02*
X182622380Y-107438095D01*
X182622380Y-107057142D01*
X182670000Y-106961904D01*
X182717619Y-106914285D01*
X182812857Y-106866666D01*
X182955714Y-106866666D01*
X183050952Y-106914285D01*
X183098571Y-106961904D01*
X183146190Y-107057142D01*
X183146190Y-107438095D01*
X182622380Y-106533333D02*
X182622380Y-105866666D01*
X183622380Y-106295238D01*
X187533333Y-109382380D02*
X187200000Y-108906190D01*
X186961904Y-109382380D02*
X186961904Y-108382380D01*
X187342857Y-108382380D01*
X187438095Y-108430000D01*
X187485714Y-108477619D01*
X187533333Y-108572857D01*
X187533333Y-108715714D01*
X187485714Y-108810952D01*
X187438095Y-108858571D01*
X187342857Y-108906190D01*
X186961904Y-108906190D01*
X188104761Y-108810952D02*
X188009523Y-108763333D01*
X187961904Y-108715714D01*
X187914285Y-108620476D01*
X187914285Y-108572857D01*
X187961904Y-108477619D01*
X188009523Y-108430000D01*
X188104761Y-108382380D01*
X188295238Y-108382380D01*
X188390476Y-108430000D01*
X188438095Y-108477619D01*
X188485714Y-108572857D01*
X188485714Y-108620476D01*
X188438095Y-108715714D01*
X188390476Y-108763333D01*
X188295238Y-108810952D01*
X188104761Y-108810952D01*
X188009523Y-108858571D01*
X187961904Y-108906190D01*
X187914285Y-109001428D01*
X187914285Y-109191904D01*
X187961904Y-109287142D01*
X188009523Y-109334761D01*
X188104761Y-109382380D01*
X188295238Y-109382380D01*
X188390476Y-109334761D01*
X188438095Y-109287142D01*
X188485714Y-109191904D01*
X188485714Y-109001428D01*
X188438095Y-108906190D01*
X188390476Y-108858571D01*
X188295238Y-108810952D01*
X205433333Y-111482380D02*
X205100000Y-111006190D01*
X204861904Y-111482380D02*
X204861904Y-110482380D01*
X205242857Y-110482380D01*
X205338095Y-110530000D01*
X205385714Y-110577619D01*
X205433333Y-110672857D01*
X205433333Y-110815714D01*
X205385714Y-110910952D01*
X205338095Y-110958571D01*
X205242857Y-111006190D01*
X204861904Y-111006190D01*
X205909523Y-111482380D02*
X206100000Y-111482380D01*
X206195238Y-111434761D01*
X206242857Y-111387142D01*
X206338095Y-111244285D01*
X206385714Y-111053809D01*
X206385714Y-110672857D01*
X206338095Y-110577619D01*
X206290476Y-110530000D01*
X206195238Y-110482380D01*
X206004761Y-110482380D01*
X205909523Y-110530000D01*
X205861904Y-110577619D01*
X205814285Y-110672857D01*
X205814285Y-110910952D01*
X205861904Y-111006190D01*
X205909523Y-111053809D01*
X206004761Y-111101428D01*
X206195238Y-111101428D01*
X206290476Y-111053809D01*
X206338095Y-111006190D01*
X206385714Y-110910952D01*
X178857142Y-110152380D02*
X178523809Y-109676190D01*
X178285714Y-110152380D02*
X178285714Y-109152380D01*
X178666666Y-109152380D01*
X178761904Y-109200000D01*
X178809523Y-109247619D01*
X178857142Y-109342857D01*
X178857142Y-109485714D01*
X178809523Y-109580952D01*
X178761904Y-109628571D01*
X178666666Y-109676190D01*
X178285714Y-109676190D01*
X179809523Y-110152380D02*
X179238095Y-110152380D01*
X179523809Y-110152380D02*
X179523809Y-109152380D01*
X179428571Y-109295238D01*
X179333333Y-109390476D01*
X179238095Y-109438095D01*
X180428571Y-109152380D02*
X180523809Y-109152380D01*
X180619047Y-109200000D01*
X180666666Y-109247619D01*
X180714285Y-109342857D01*
X180761904Y-109533333D01*
X180761904Y-109771428D01*
X180714285Y-109961904D01*
X180666666Y-110057142D01*
X180619047Y-110104761D01*
X180523809Y-110152380D01*
X180428571Y-110152380D01*
X180333333Y-110104761D01*
X180285714Y-110057142D01*
X180238095Y-109961904D01*
X180190476Y-109771428D01*
X180190476Y-109533333D01*
X180238095Y-109342857D01*
X180285714Y-109247619D01*
X180333333Y-109200000D01*
X180428571Y-109152380D01*
X197757142Y-100622380D02*
X197423809Y-100146190D01*
X197185714Y-100622380D02*
X197185714Y-99622380D01*
X197566666Y-99622380D01*
X197661904Y-99670000D01*
X197709523Y-99717619D01*
X197757142Y-99812857D01*
X197757142Y-99955714D01*
X197709523Y-100050952D01*
X197661904Y-100098571D01*
X197566666Y-100146190D01*
X197185714Y-100146190D01*
X198709523Y-100622380D02*
X198138095Y-100622380D01*
X198423809Y-100622380D02*
X198423809Y-99622380D01*
X198328571Y-99765238D01*
X198233333Y-99860476D01*
X198138095Y-99908095D01*
X199661904Y-100622380D02*
X199090476Y-100622380D01*
X199376190Y-100622380D02*
X199376190Y-99622380D01*
X199280952Y-99765238D01*
X199185714Y-99860476D01*
X199090476Y-99908095D01*
X208782380Y-107342857D02*
X208306190Y-107676190D01*
X208782380Y-107914285D02*
X207782380Y-107914285D01*
X207782380Y-107533333D01*
X207830000Y-107438095D01*
X207877619Y-107390476D01*
X207972857Y-107342857D01*
X208115714Y-107342857D01*
X208210952Y-107390476D01*
X208258571Y-107438095D01*
X208306190Y-107533333D01*
X208306190Y-107914285D01*
X208782380Y-106390476D02*
X208782380Y-106961904D01*
X208782380Y-106676190D02*
X207782380Y-106676190D01*
X207925238Y-106771428D01*
X208020476Y-106866666D01*
X208068095Y-106961904D01*
X207877619Y-106009523D02*
X207830000Y-105961904D01*
X207782380Y-105866666D01*
X207782380Y-105628571D01*
X207830000Y-105533333D01*
X207877619Y-105485714D01*
X207972857Y-105438095D01*
X208068095Y-105438095D01*
X208210952Y-105485714D01*
X208782380Y-106057142D01*
X208782380Y-105438095D01*
X205782380Y-107342857D02*
X205306190Y-107676190D01*
X205782380Y-107914285D02*
X204782380Y-107914285D01*
X204782380Y-107533333D01*
X204830000Y-107438095D01*
X204877619Y-107390476D01*
X204972857Y-107342857D01*
X205115714Y-107342857D01*
X205210952Y-107390476D01*
X205258571Y-107438095D01*
X205306190Y-107533333D01*
X205306190Y-107914285D01*
X205782380Y-106390476D02*
X205782380Y-106961904D01*
X205782380Y-106676190D02*
X204782380Y-106676190D01*
X204925238Y-106771428D01*
X205020476Y-106866666D01*
X205068095Y-106961904D01*
X204782380Y-106057142D02*
X204782380Y-105438095D01*
X205163333Y-105771428D01*
X205163333Y-105628571D01*
X205210952Y-105533333D01*
X205258571Y-105485714D01*
X205353809Y-105438095D01*
X205591904Y-105438095D01*
X205687142Y-105485714D01*
X205734761Y-105533333D01*
X205782380Y-105628571D01*
X205782380Y-105914285D01*
X205734761Y-106009523D01*
X205687142Y-106057142D01*
X188157142Y-116752380D02*
X187823809Y-116276190D01*
X187585714Y-116752380D02*
X187585714Y-115752380D01*
X187966666Y-115752380D01*
X188061904Y-115800000D01*
X188109523Y-115847619D01*
X188157142Y-115942857D01*
X188157142Y-116085714D01*
X188109523Y-116180952D01*
X188061904Y-116228571D01*
X187966666Y-116276190D01*
X187585714Y-116276190D01*
X189109523Y-116752380D02*
X188538095Y-116752380D01*
X188823809Y-116752380D02*
X188823809Y-115752380D01*
X188728571Y-115895238D01*
X188633333Y-115990476D01*
X188538095Y-116038095D01*
X190014285Y-115752380D02*
X189538095Y-115752380D01*
X189490476Y-116228571D01*
X189538095Y-116180952D01*
X189633333Y-116133333D01*
X189871428Y-116133333D01*
X189966666Y-116180952D01*
X190014285Y-116228571D01*
X190061904Y-116323809D01*
X190061904Y-116561904D01*
X190014285Y-116657142D01*
X189966666Y-116704761D01*
X189871428Y-116752380D01*
X189633333Y-116752380D01*
X189538095Y-116704761D01*
X189490476Y-116657142D01*
X227507142Y-136232380D02*
X227173809Y-135756190D01*
X226935714Y-136232380D02*
X226935714Y-135232380D01*
X227316666Y-135232380D01*
X227411904Y-135280000D01*
X227459523Y-135327619D01*
X227507142Y-135422857D01*
X227507142Y-135565714D01*
X227459523Y-135660952D01*
X227411904Y-135708571D01*
X227316666Y-135756190D01*
X226935714Y-135756190D01*
X228459523Y-136232380D02*
X227888095Y-136232380D01*
X228173809Y-136232380D02*
X228173809Y-135232380D01*
X228078571Y-135375238D01*
X227983333Y-135470476D01*
X227888095Y-135518095D01*
X229316666Y-135232380D02*
X229126190Y-135232380D01*
X229030952Y-135280000D01*
X228983333Y-135327619D01*
X228888095Y-135470476D01*
X228840476Y-135660952D01*
X228840476Y-136041904D01*
X228888095Y-136137142D01*
X228935714Y-136184761D01*
X229030952Y-136232380D01*
X229221428Y-136232380D01*
X229316666Y-136184761D01*
X229364285Y-136137142D01*
X229411904Y-136041904D01*
X229411904Y-135803809D01*
X229364285Y-135708571D01*
X229316666Y-135660952D01*
X229221428Y-135613333D01*
X229030952Y-135613333D01*
X228935714Y-135660952D01*
X228888095Y-135708571D01*
X228840476Y-135803809D01*
X206357142Y-101952380D02*
X206023809Y-101476190D01*
X205785714Y-101952380D02*
X205785714Y-100952380D01*
X206166666Y-100952380D01*
X206261904Y-101000000D01*
X206309523Y-101047619D01*
X206357142Y-101142857D01*
X206357142Y-101285714D01*
X206309523Y-101380952D01*
X206261904Y-101428571D01*
X206166666Y-101476190D01*
X205785714Y-101476190D01*
X206738095Y-101047619D02*
X206785714Y-101000000D01*
X206880952Y-100952380D01*
X207119047Y-100952380D01*
X207214285Y-101000000D01*
X207261904Y-101047619D01*
X207309523Y-101142857D01*
X207309523Y-101238095D01*
X207261904Y-101380952D01*
X206690476Y-101952380D01*
X207309523Y-101952380D01*
X207642857Y-100952380D02*
X208261904Y-100952380D01*
X207928571Y-101333333D01*
X208071428Y-101333333D01*
X208166666Y-101380952D01*
X208214285Y-101428571D01*
X208261904Y-101523809D01*
X208261904Y-101761904D01*
X208214285Y-101857142D01*
X208166666Y-101904761D01*
X208071428Y-101952380D01*
X207785714Y-101952380D01*
X207690476Y-101904761D01*
X207642857Y-101857142D01*
X110900000Y-140471428D02*
X111661904Y-140471428D01*
X111280952Y-140852380D02*
X111280952Y-140090476D01*
X112042857Y-139852380D02*
X112661904Y-139852380D01*
X112328571Y-140233333D01*
X112471428Y-140233333D01*
X112566666Y-140280952D01*
X112614285Y-140328571D01*
X112661904Y-140423809D01*
X112661904Y-140661904D01*
X112614285Y-140757142D01*
X112566666Y-140804761D01*
X112471428Y-140852380D01*
X112185714Y-140852380D01*
X112090476Y-140804761D01*
X112042857Y-140757142D01*
X113090476Y-140757142D02*
X113138095Y-140804761D01*
X113090476Y-140852380D01*
X113042857Y-140804761D01*
X113090476Y-140757142D01*
X113090476Y-140852380D01*
X113757142Y-139852380D02*
X113852380Y-139852380D01*
X113947619Y-139900000D01*
X113995238Y-139947619D01*
X114042857Y-140042857D01*
X114090476Y-140233333D01*
X114090476Y-140471428D01*
X114042857Y-140661904D01*
X113995238Y-140757142D01*
X113947619Y-140804761D01*
X113852380Y-140852380D01*
X113757142Y-140852380D01*
X113661904Y-140804761D01*
X113614285Y-140757142D01*
X113566666Y-140661904D01*
X113519047Y-140471428D01*
X113519047Y-140233333D01*
X113566666Y-140042857D01*
X113614285Y-139947619D01*
X113661904Y-139900000D01*
X113757142Y-139852380D01*
X114376190Y-139852380D02*
X114709523Y-140852380D01*
X115042857Y-139852380D01*
X176161904Y-137152380D02*
X176161904Y-137961904D01*
X176209523Y-138057142D01*
X176257142Y-138104761D01*
X176352380Y-138152380D01*
X176542857Y-138152380D01*
X176638095Y-138104761D01*
X176685714Y-138057142D01*
X176733333Y-137961904D01*
X176733333Y-137152380D01*
X177733333Y-138152380D02*
X177161904Y-138152380D01*
X177447619Y-138152380D02*
X177447619Y-137152380D01*
X177352380Y-137295238D01*
X177257142Y-137390476D01*
X177161904Y-137438095D01*
X178352380Y-137152380D02*
X178447619Y-137152380D01*
X178542857Y-137200000D01*
X178590476Y-137247619D01*
X178638095Y-137342857D01*
X178685714Y-137533333D01*
X178685714Y-137771428D01*
X178638095Y-137961904D01*
X178590476Y-138057142D01*
X178542857Y-138104761D01*
X178447619Y-138152380D01*
X178352380Y-138152380D01*
X178257142Y-138104761D01*
X178209523Y-138057142D01*
X178161904Y-137961904D01*
X178114285Y-137771428D01*
X178114285Y-137533333D01*
X178161904Y-137342857D01*
X178209523Y-137247619D01*
X178257142Y-137200000D01*
X178352380Y-137152380D01*
X158861904Y-136652380D02*
X158861904Y-137461904D01*
X158909523Y-137557142D01*
X158957142Y-137604761D01*
X159052380Y-137652380D01*
X159242857Y-137652380D01*
X159338095Y-137604761D01*
X159385714Y-137557142D01*
X159433333Y-137461904D01*
X159433333Y-136652380D01*
X160433333Y-137652380D02*
X159861904Y-137652380D01*
X160147619Y-137652380D02*
X160147619Y-136652380D01*
X160052380Y-136795238D01*
X159957142Y-136890476D01*
X159861904Y-136938095D01*
X160814285Y-136747619D02*
X160861904Y-136700000D01*
X160957142Y-136652380D01*
X161195238Y-136652380D01*
X161290476Y-136700000D01*
X161338095Y-136747619D01*
X161385714Y-136842857D01*
X161385714Y-136938095D01*
X161338095Y-137080952D01*
X160766666Y-137652380D01*
X161385714Y-137652380D01*
X107738095Y-114502380D02*
X107738095Y-115311904D01*
X107785714Y-115407142D01*
X107833333Y-115454761D01*
X107928571Y-115502380D01*
X108119047Y-115502380D01*
X108214285Y-115454761D01*
X108261904Y-115407142D01*
X108309523Y-115311904D01*
X108309523Y-114502380D01*
X108738095Y-114597619D02*
X108785714Y-114550000D01*
X108880952Y-114502380D01*
X109119047Y-114502380D01*
X109214285Y-114550000D01*
X109261904Y-114597619D01*
X109309523Y-114692857D01*
X109309523Y-114788095D01*
X109261904Y-114930952D01*
X108690476Y-115502380D01*
X109309523Y-115502380D01*
X107738095Y-127502380D02*
X107738095Y-128311904D01*
X107785714Y-128407142D01*
X107833333Y-128454761D01*
X107928571Y-128502380D01*
X108119047Y-128502380D01*
X108214285Y-128454761D01*
X108261904Y-128407142D01*
X108309523Y-128311904D01*
X108309523Y-127502380D01*
X108690476Y-127502380D02*
X109309523Y-127502380D01*
X108976190Y-127883333D01*
X109119047Y-127883333D01*
X109214285Y-127930952D01*
X109261904Y-127978571D01*
X109309523Y-128073809D01*
X109309523Y-128311904D01*
X109261904Y-128407142D01*
X109214285Y-128454761D01*
X109119047Y-128502380D01*
X108833333Y-128502380D01*
X108738095Y-128454761D01*
X108690476Y-128407142D01*
X171638095Y-108602380D02*
X171638095Y-109411904D01*
X171685714Y-109507142D01*
X171733333Y-109554761D01*
X171828571Y-109602380D01*
X172019047Y-109602380D01*
X172114285Y-109554761D01*
X172161904Y-109507142D01*
X172209523Y-109411904D01*
X172209523Y-108602380D01*
X173114285Y-108935714D02*
X173114285Y-109602380D01*
X172876190Y-108554761D02*
X172638095Y-109269047D01*
X173257142Y-109269047D01*
X176227142Y-127542857D02*
X176274761Y-127590476D01*
X176322380Y-127733333D01*
X176322380Y-127828571D01*
X176274761Y-127971428D01*
X176179523Y-128066666D01*
X176084285Y-128114285D01*
X175893809Y-128161904D01*
X175750952Y-128161904D01*
X175560476Y-128114285D01*
X175465238Y-128066666D01*
X175370000Y-127971428D01*
X175322380Y-127828571D01*
X175322380Y-127733333D01*
X175370000Y-127590476D01*
X175417619Y-127542857D01*
X175322380Y-127209523D02*
X175322380Y-126590476D01*
X175703333Y-126923809D01*
X175703333Y-126780952D01*
X175750952Y-126685714D01*
X175798571Y-126638095D01*
X175893809Y-126590476D01*
X176131904Y-126590476D01*
X176227142Y-126638095D01*
X176274761Y-126685714D01*
X176322380Y-126780952D01*
X176322380Y-127066666D01*
X176274761Y-127161904D01*
X176227142Y-127209523D01*
X176322380Y-125638095D02*
X176322380Y-126209523D01*
X176322380Y-125923809D02*
X175322380Y-125923809D01*
X175465238Y-126019047D01*
X175560476Y-126114285D01*
X175608095Y-126209523D01*
X198452380Y-130461904D02*
X199261904Y-130461904D01*
X199357142Y-130414285D01*
X199404761Y-130366666D01*
X199452380Y-130271428D01*
X199452380Y-130080952D01*
X199404761Y-129985714D01*
X199357142Y-129938095D01*
X199261904Y-129890476D01*
X198452380Y-129890476D01*
X198452380Y-128985714D02*
X198452380Y-129176190D01*
X198500000Y-129271428D01*
X198547619Y-129319047D01*
X198690476Y-129414285D01*
X198880952Y-129461904D01*
X199261904Y-129461904D01*
X199357142Y-129414285D01*
X199404761Y-129366666D01*
X199452380Y-129271428D01*
X199452380Y-129080952D01*
X199404761Y-128985714D01*
X199357142Y-128938095D01*
X199261904Y-128890476D01*
X199023809Y-128890476D01*
X198928571Y-128938095D01*
X198880952Y-128985714D01*
X198833333Y-129080952D01*
X198833333Y-129271428D01*
X198880952Y-129366666D01*
X198928571Y-129414285D01*
X199023809Y-129461904D01*
X208357142Y-112137142D02*
X208309523Y-112184761D01*
X208166666Y-112232380D01*
X208071428Y-112232380D01*
X207928571Y-112184761D01*
X207833333Y-112089523D01*
X207785714Y-111994285D01*
X207738095Y-111803809D01*
X207738095Y-111660952D01*
X207785714Y-111470476D01*
X207833333Y-111375238D01*
X207928571Y-111280000D01*
X208071428Y-111232380D01*
X208166666Y-111232380D01*
X208309523Y-111280000D01*
X208357142Y-111327619D01*
X208738095Y-111327619D02*
X208785714Y-111280000D01*
X208880952Y-111232380D01*
X209119047Y-111232380D01*
X209214285Y-111280000D01*
X209261904Y-111327619D01*
X209309523Y-111422857D01*
X209309523Y-111518095D01*
X209261904Y-111660952D01*
X208690476Y-112232380D01*
X209309523Y-112232380D01*
X210166666Y-111565714D02*
X210166666Y-112232380D01*
X209928571Y-111184761D02*
X209690476Y-111899047D01*
X210309523Y-111899047D01*
X102333333Y-85157142D02*
X102285714Y-85204761D01*
X102142857Y-85252380D01*
X102047619Y-85252380D01*
X101904761Y-85204761D01*
X101809523Y-85109523D01*
X101761904Y-85014285D01*
X101714285Y-84823809D01*
X101714285Y-84680952D01*
X101761904Y-84490476D01*
X101809523Y-84395238D01*
X101904761Y-84300000D01*
X102047619Y-84252380D01*
X102142857Y-84252380D01*
X102285714Y-84300000D01*
X102333333Y-84347619D01*
X102714285Y-84347619D02*
X102761904Y-84300000D01*
X102857142Y-84252380D01*
X103095238Y-84252380D01*
X103190476Y-84300000D01*
X103238095Y-84347619D01*
X103285714Y-84442857D01*
X103285714Y-84538095D01*
X103238095Y-84680952D01*
X102666666Y-85252380D01*
X103285714Y-85252380D01*
X228157142Y-81227142D02*
X228109523Y-81274761D01*
X227966666Y-81322380D01*
X227871428Y-81322380D01*
X227728571Y-81274761D01*
X227633333Y-81179523D01*
X227585714Y-81084285D01*
X227538095Y-80893809D01*
X227538095Y-80750952D01*
X227585714Y-80560476D01*
X227633333Y-80465238D01*
X227728571Y-80370000D01*
X227871428Y-80322380D01*
X227966666Y-80322380D01*
X228109523Y-80370000D01*
X228157142Y-80417619D01*
X228538095Y-80417619D02*
X228585714Y-80370000D01*
X228680952Y-80322380D01*
X228919047Y-80322380D01*
X229014285Y-80370000D01*
X229061904Y-80417619D01*
X229109523Y-80512857D01*
X229109523Y-80608095D01*
X229061904Y-80750952D01*
X228490476Y-81322380D01*
X229109523Y-81322380D01*
X229966666Y-80322380D02*
X229776190Y-80322380D01*
X229680952Y-80370000D01*
X229633333Y-80417619D01*
X229538095Y-80560476D01*
X229490476Y-80750952D01*
X229490476Y-81131904D01*
X229538095Y-81227142D01*
X229585714Y-81274761D01*
X229680952Y-81322380D01*
X229871428Y-81322380D01*
X229966666Y-81274761D01*
X230014285Y-81227142D01*
X230061904Y-81131904D01*
X230061904Y-80893809D01*
X230014285Y-80798571D01*
X229966666Y-80750952D01*
X229871428Y-80703333D01*
X229680952Y-80703333D01*
X229585714Y-80750952D01*
X229538095Y-80798571D01*
X229490476Y-80893809D01*
X229657142Y-89542857D02*
X229704761Y-89590476D01*
X229752380Y-89733333D01*
X229752380Y-89828571D01*
X229704761Y-89971428D01*
X229609523Y-90066666D01*
X229514285Y-90114285D01*
X229323809Y-90161904D01*
X229180952Y-90161904D01*
X228990476Y-90114285D01*
X228895238Y-90066666D01*
X228800000Y-89971428D01*
X228752380Y-89828571D01*
X228752380Y-89733333D01*
X228800000Y-89590476D01*
X228847619Y-89542857D01*
X228847619Y-89161904D02*
X228800000Y-89114285D01*
X228752380Y-89019047D01*
X228752380Y-88780952D01*
X228800000Y-88685714D01*
X228847619Y-88638095D01*
X228942857Y-88590476D01*
X229038095Y-88590476D01*
X229180952Y-88638095D01*
X229752380Y-89209523D01*
X229752380Y-88590476D01*
X228752380Y-88257142D02*
X228752380Y-87590476D01*
X229752380Y-88019047D01*
X217557142Y-90887142D02*
X217509523Y-90934761D01*
X217366666Y-90982380D01*
X217271428Y-90982380D01*
X217128571Y-90934761D01*
X217033333Y-90839523D01*
X216985714Y-90744285D01*
X216938095Y-90553809D01*
X216938095Y-90410952D01*
X216985714Y-90220476D01*
X217033333Y-90125238D01*
X217128571Y-90030000D01*
X217271428Y-89982380D01*
X217366666Y-89982380D01*
X217509523Y-90030000D01*
X217557142Y-90077619D01*
X217938095Y-90077619D02*
X217985714Y-90030000D01*
X218080952Y-89982380D01*
X218319047Y-89982380D01*
X218414285Y-90030000D01*
X218461904Y-90077619D01*
X218509523Y-90172857D01*
X218509523Y-90268095D01*
X218461904Y-90410952D01*
X217890476Y-90982380D01*
X218509523Y-90982380D01*
X219080952Y-90410952D02*
X218985714Y-90363333D01*
X218938095Y-90315714D01*
X218890476Y-90220476D01*
X218890476Y-90172857D01*
X218938095Y-90077619D01*
X218985714Y-90030000D01*
X219080952Y-89982380D01*
X219271428Y-89982380D01*
X219366666Y-90030000D01*
X219414285Y-90077619D01*
X219461904Y-90172857D01*
X219461904Y-90220476D01*
X219414285Y-90315714D01*
X219366666Y-90363333D01*
X219271428Y-90410952D01*
X219080952Y-90410952D01*
X218985714Y-90458571D01*
X218938095Y-90506190D01*
X218890476Y-90601428D01*
X218890476Y-90791904D01*
X218938095Y-90887142D01*
X218985714Y-90934761D01*
X219080952Y-90982380D01*
X219271428Y-90982380D01*
X219366666Y-90934761D01*
X219414285Y-90887142D01*
X219461904Y-90791904D01*
X219461904Y-90601428D01*
X219414285Y-90506190D01*
X219366666Y-90458571D01*
X219271428Y-90410952D01*
X214657142Y-60942857D02*
X214704761Y-60990476D01*
X214752380Y-61133333D01*
X214752380Y-61228571D01*
X214704761Y-61371428D01*
X214609523Y-61466666D01*
X214514285Y-61514285D01*
X214323809Y-61561904D01*
X214180952Y-61561904D01*
X213990476Y-61514285D01*
X213895238Y-61466666D01*
X213800000Y-61371428D01*
X213752380Y-61228571D01*
X213752380Y-61133333D01*
X213800000Y-60990476D01*
X213847619Y-60942857D01*
X214085714Y-60085714D02*
X214752380Y-60085714D01*
X213704761Y-60323809D02*
X214419047Y-60561904D01*
X214419047Y-59942857D01*
X213752380Y-59085714D02*
X213752380Y-59561904D01*
X214228571Y-59609523D01*
X214180952Y-59561904D01*
X214133333Y-59466666D01*
X214133333Y-59228571D01*
X214180952Y-59133333D01*
X214228571Y-59085714D01*
X214323809Y-59038095D01*
X214561904Y-59038095D01*
X214657142Y-59085714D01*
X214704761Y-59133333D01*
X214752380Y-59228571D01*
X214752380Y-59466666D01*
X214704761Y-59561904D01*
X214657142Y-59609523D01*
X189657142Y-75027142D02*
X189609523Y-75074761D01*
X189466666Y-75122380D01*
X189371428Y-75122380D01*
X189228571Y-75074761D01*
X189133333Y-74979523D01*
X189085714Y-74884285D01*
X189038095Y-74693809D01*
X189038095Y-74550952D01*
X189085714Y-74360476D01*
X189133333Y-74265238D01*
X189228571Y-74170000D01*
X189371428Y-74122380D01*
X189466666Y-74122380D01*
X189609523Y-74170000D01*
X189657142Y-74217619D01*
X190514285Y-74455714D02*
X190514285Y-75122380D01*
X190276190Y-74074761D02*
X190038095Y-74789047D01*
X190657142Y-74789047D01*
X191466666Y-74122380D02*
X191276190Y-74122380D01*
X191180952Y-74170000D01*
X191133333Y-74217619D01*
X191038095Y-74360476D01*
X190990476Y-74550952D01*
X190990476Y-74931904D01*
X191038095Y-75027142D01*
X191085714Y-75074761D01*
X191180952Y-75122380D01*
X191371428Y-75122380D01*
X191466666Y-75074761D01*
X191514285Y-75027142D01*
X191561904Y-74931904D01*
X191561904Y-74693809D01*
X191514285Y-74598571D01*
X191466666Y-74550952D01*
X191371428Y-74503333D01*
X191180952Y-74503333D01*
X191085714Y-74550952D01*
X191038095Y-74598571D01*
X190990476Y-74693809D01*
X217557142Y-72557142D02*
X217509523Y-72604761D01*
X217366666Y-72652380D01*
X217271428Y-72652380D01*
X217128571Y-72604761D01*
X217033333Y-72509523D01*
X216985714Y-72414285D01*
X216938095Y-72223809D01*
X216938095Y-72080952D01*
X216985714Y-71890476D01*
X217033333Y-71795238D01*
X217128571Y-71700000D01*
X217271428Y-71652380D01*
X217366666Y-71652380D01*
X217509523Y-71700000D01*
X217557142Y-71747619D01*
X218414285Y-71985714D02*
X218414285Y-72652380D01*
X218176190Y-71604761D02*
X217938095Y-72319047D01*
X218557142Y-72319047D01*
X218842857Y-71652380D02*
X219509523Y-71652380D01*
X219080952Y-72652380D01*
X197287142Y-73717857D02*
X197334761Y-73765476D01*
X197382380Y-73908333D01*
X197382380Y-74003571D01*
X197334761Y-74146428D01*
X197239523Y-74241666D01*
X197144285Y-74289285D01*
X196953809Y-74336904D01*
X196810952Y-74336904D01*
X196620476Y-74289285D01*
X196525238Y-74241666D01*
X196430000Y-74146428D01*
X196382380Y-74003571D01*
X196382380Y-73908333D01*
X196430000Y-73765476D01*
X196477619Y-73717857D01*
X196715714Y-72860714D02*
X197382380Y-72860714D01*
X196334761Y-73098809D02*
X197049047Y-73336904D01*
X197049047Y-72717857D01*
X196810952Y-72194047D02*
X196763333Y-72289285D01*
X196715714Y-72336904D01*
X196620476Y-72384523D01*
X196572857Y-72384523D01*
X196477619Y-72336904D01*
X196430000Y-72289285D01*
X196382380Y-72194047D01*
X196382380Y-72003571D01*
X196430000Y-71908333D01*
X196477619Y-71860714D01*
X196572857Y-71813095D01*
X196620476Y-71813095D01*
X196715714Y-71860714D01*
X196763333Y-71908333D01*
X196810952Y-72003571D01*
X196810952Y-72194047D01*
X196858571Y-72289285D01*
X196906190Y-72336904D01*
X197001428Y-72384523D01*
X197191904Y-72384523D01*
X197287142Y-72336904D01*
X197334761Y-72289285D01*
X197382380Y-72194047D01*
X197382380Y-72003571D01*
X197334761Y-71908333D01*
X197287142Y-71860714D01*
X197191904Y-71813095D01*
X197001428Y-71813095D01*
X196906190Y-71860714D01*
X196858571Y-71908333D01*
X196810952Y-72003571D01*
X201757142Y-60342857D02*
X201804761Y-60390476D01*
X201852380Y-60533333D01*
X201852380Y-60628571D01*
X201804761Y-60771428D01*
X201709523Y-60866666D01*
X201614285Y-60914285D01*
X201423809Y-60961904D01*
X201280952Y-60961904D01*
X201090476Y-60914285D01*
X200995238Y-60866666D01*
X200900000Y-60771428D01*
X200852380Y-60628571D01*
X200852380Y-60533333D01*
X200900000Y-60390476D01*
X200947619Y-60342857D01*
X201185714Y-59485714D02*
X201852380Y-59485714D01*
X200804761Y-59723809D02*
X201519047Y-59961904D01*
X201519047Y-59342857D01*
X201852380Y-58914285D02*
X201852380Y-58723809D01*
X201804761Y-58628571D01*
X201757142Y-58580952D01*
X201614285Y-58485714D01*
X201423809Y-58438095D01*
X201042857Y-58438095D01*
X200947619Y-58485714D01*
X200900000Y-58533333D01*
X200852380Y-58628571D01*
X200852380Y-58819047D01*
X200900000Y-58914285D01*
X200947619Y-58961904D01*
X201042857Y-59009523D01*
X201280952Y-59009523D01*
X201376190Y-58961904D01*
X201423809Y-58914285D01*
X201471428Y-58819047D01*
X201471428Y-58628571D01*
X201423809Y-58533333D01*
X201376190Y-58485714D01*
X201280952Y-58438095D01*
X98952380Y-58838095D02*
X97952380Y-58838095D01*
X97952380Y-58600000D01*
X98000000Y-58457142D01*
X98095238Y-58361904D01*
X98190476Y-58314285D01*
X98380952Y-58266666D01*
X98523809Y-58266666D01*
X98714285Y-58314285D01*
X98809523Y-58361904D01*
X98904761Y-58457142D01*
X98952380Y-58600000D01*
X98952380Y-58838095D01*
X97952380Y-57933333D02*
X97952380Y-57314285D01*
X98333333Y-57647619D01*
X98333333Y-57504761D01*
X98380952Y-57409523D01*
X98428571Y-57361904D01*
X98523809Y-57314285D01*
X98761904Y-57314285D01*
X98857142Y-57361904D01*
X98904761Y-57409523D01*
X98952380Y-57504761D01*
X98952380Y-57790476D01*
X98904761Y-57885714D01*
X98857142Y-57933333D01*
X93752380Y-132838095D02*
X92752380Y-132838095D01*
X92752380Y-132600000D01*
X92800000Y-132457142D01*
X92895238Y-132361904D01*
X92990476Y-132314285D01*
X93180952Y-132266666D01*
X93323809Y-132266666D01*
X93514285Y-132314285D01*
X93609523Y-132361904D01*
X93704761Y-132457142D01*
X93752380Y-132600000D01*
X93752380Y-132838095D01*
X93085714Y-131409523D02*
X93752380Y-131409523D01*
X92704761Y-131647619D02*
X93419047Y-131885714D01*
X93419047Y-131266666D01*
X234366666Y-89652380D02*
X234366666Y-88652380D01*
X234747619Y-88652380D01*
X234842857Y-88700000D01*
X234890476Y-88747619D01*
X234938095Y-88842857D01*
X234938095Y-88985714D01*
X234890476Y-89080952D01*
X234842857Y-89128571D01*
X234747619Y-89176190D01*
X234366666Y-89176190D01*
X235366666Y-89652380D02*
X235366666Y-88652380D01*
X235604761Y-88652380D01*
X235747619Y-88700000D01*
X235842857Y-88795238D01*
X235890476Y-88890476D01*
X235938095Y-89080952D01*
X235938095Y-89223809D01*
X235890476Y-89414285D01*
X235842857Y-89509523D01*
X235747619Y-89604761D01*
X235604761Y-89652380D01*
X235366666Y-89652380D01*
X236128571Y-89747619D02*
X236890476Y-89747619D01*
X237128571Y-89652380D02*
X237128571Y-88652380D01*
X237604761Y-88985714D02*
X237604761Y-89652380D01*
X237604761Y-89080952D02*
X237652380Y-89033333D01*
X237747619Y-88985714D01*
X237890476Y-88985714D01*
X237985714Y-89033333D01*
X238033333Y-89128571D01*
X238033333Y-89652380D01*
X177014285Y-71052380D02*
X176680952Y-70576190D01*
X176442857Y-71052380D02*
X176442857Y-70052380D01*
X176823809Y-70052380D01*
X176919047Y-70100000D01*
X176966666Y-70147619D01*
X177014285Y-70242857D01*
X177014285Y-70385714D01*
X176966666Y-70480952D01*
X176919047Y-70528571D01*
X176823809Y-70576190D01*
X176442857Y-70576190D01*
X177823809Y-71004761D02*
X177728571Y-71052380D01*
X177538095Y-71052380D01*
X177442857Y-71004761D01*
X177395238Y-70909523D01*
X177395238Y-70528571D01*
X177442857Y-70433333D01*
X177538095Y-70385714D01*
X177728571Y-70385714D01*
X177823809Y-70433333D01*
X177871428Y-70528571D01*
X177871428Y-70623809D01*
X177395238Y-70719047D01*
X178157142Y-70385714D02*
X178538095Y-70385714D01*
X178300000Y-71052380D02*
X178300000Y-70195238D01*
X178347619Y-70100000D01*
X178442857Y-70052380D01*
X178538095Y-70052380D01*
X178633333Y-71147619D02*
X179395238Y-71147619D01*
X179633333Y-71052380D02*
X179633333Y-70052380D01*
X180109523Y-70385714D02*
X180109523Y-71052380D01*
X180109523Y-70480952D02*
X180157142Y-70433333D01*
X180252380Y-70385714D01*
X180395238Y-70385714D01*
X180490476Y-70433333D01*
X180538095Y-70528571D01*
X180538095Y-71052380D01*
X180776190Y-71147619D02*
X181538095Y-71147619D01*
X181728571Y-70766666D02*
X182204761Y-70766666D01*
X181633333Y-71052380D02*
X181966666Y-70052380D01*
X182300000Y-71052380D01*
X209066666Y-45962380D02*
X209066666Y-46676666D01*
X209019047Y-46819523D01*
X208923809Y-46914761D01*
X208780952Y-46962380D01*
X208685714Y-46962380D01*
X209971428Y-45962380D02*
X209780952Y-45962380D01*
X209685714Y-46010000D01*
X209638095Y-46057619D01*
X209542857Y-46200476D01*
X209495238Y-46390952D01*
X209495238Y-46771904D01*
X209542857Y-46867142D01*
X209590476Y-46914761D01*
X209685714Y-46962380D01*
X209876190Y-46962380D01*
X209971428Y-46914761D01*
X210019047Y-46867142D01*
X210066666Y-46771904D01*
X210066666Y-46533809D01*
X210019047Y-46438571D01*
X209971428Y-46390952D01*
X209876190Y-46343333D01*
X209685714Y-46343333D01*
X209590476Y-46390952D01*
X209542857Y-46438571D01*
X209495238Y-46533809D01*
X159457142Y-105752380D02*
X159123809Y-105276190D01*
X158885714Y-105752380D02*
X158885714Y-104752380D01*
X159266666Y-104752380D01*
X159361904Y-104800000D01*
X159409523Y-104847619D01*
X159457142Y-104942857D01*
X159457142Y-105085714D01*
X159409523Y-105180952D01*
X159361904Y-105228571D01*
X159266666Y-105276190D01*
X158885714Y-105276190D01*
X160409523Y-105752380D02*
X159838095Y-105752380D01*
X160123809Y-105752380D02*
X160123809Y-104752380D01*
X160028571Y-104895238D01*
X159933333Y-104990476D01*
X159838095Y-105038095D01*
X160742857Y-104752380D02*
X161409523Y-104752380D01*
X160980952Y-105752380D01*
X191452380Y-64342857D02*
X190976190Y-64676190D01*
X191452380Y-64914285D02*
X190452380Y-64914285D01*
X190452380Y-64533333D01*
X190500000Y-64438095D01*
X190547619Y-64390476D01*
X190642857Y-64342857D01*
X190785714Y-64342857D01*
X190880952Y-64390476D01*
X190928571Y-64438095D01*
X190976190Y-64533333D01*
X190976190Y-64914285D01*
X191452380Y-63390476D02*
X191452380Y-63961904D01*
X191452380Y-63676190D02*
X190452380Y-63676190D01*
X190595238Y-63771428D01*
X190690476Y-63866666D01*
X190738095Y-63961904D01*
X190880952Y-62819047D02*
X190833333Y-62914285D01*
X190785714Y-62961904D01*
X190690476Y-63009523D01*
X190642857Y-63009523D01*
X190547619Y-62961904D01*
X190500000Y-62914285D01*
X190452380Y-62819047D01*
X190452380Y-62628571D01*
X190500000Y-62533333D01*
X190547619Y-62485714D01*
X190642857Y-62438095D01*
X190690476Y-62438095D01*
X190785714Y-62485714D01*
X190833333Y-62533333D01*
X190880952Y-62628571D01*
X190880952Y-62819047D01*
X190928571Y-62914285D01*
X190976190Y-62961904D01*
X191071428Y-63009523D01*
X191261904Y-63009523D01*
X191357142Y-62961904D01*
X191404761Y-62914285D01*
X191452380Y-62819047D01*
X191452380Y-62628571D01*
X191404761Y-62533333D01*
X191357142Y-62485714D01*
X191261904Y-62438095D01*
X191071428Y-62438095D01*
X190976190Y-62485714D01*
X190928571Y-62533333D01*
X190880952Y-62628571D01*
X226682380Y-82042857D02*
X226206190Y-82376190D01*
X226682380Y-82614285D02*
X225682380Y-82614285D01*
X225682380Y-82233333D01*
X225730000Y-82138095D01*
X225777619Y-82090476D01*
X225872857Y-82042857D01*
X226015714Y-82042857D01*
X226110952Y-82090476D01*
X226158571Y-82138095D01*
X226206190Y-82233333D01*
X226206190Y-82614285D01*
X226682380Y-81090476D02*
X226682380Y-81661904D01*
X226682380Y-81376190D02*
X225682380Y-81376190D01*
X225825238Y-81471428D01*
X225920476Y-81566666D01*
X225968095Y-81661904D01*
X226682380Y-80614285D02*
X226682380Y-80423809D01*
X226634761Y-80328571D01*
X226587142Y-80280952D01*
X226444285Y-80185714D01*
X226253809Y-80138095D01*
X225872857Y-80138095D01*
X225777619Y-80185714D01*
X225730000Y-80233333D01*
X225682380Y-80328571D01*
X225682380Y-80519047D01*
X225730000Y-80614285D01*
X225777619Y-80661904D01*
X225872857Y-80709523D01*
X226110952Y-80709523D01*
X226206190Y-80661904D01*
X226253809Y-80614285D01*
X226301428Y-80519047D01*
X226301428Y-80328571D01*
X226253809Y-80233333D01*
X226206190Y-80185714D01*
X226110952Y-80138095D01*
X193552380Y-64342857D02*
X193076190Y-64676190D01*
X193552380Y-64914285D02*
X192552380Y-64914285D01*
X192552380Y-64533333D01*
X192600000Y-64438095D01*
X192647619Y-64390476D01*
X192742857Y-64342857D01*
X192885714Y-64342857D01*
X192980952Y-64390476D01*
X193028571Y-64438095D01*
X193076190Y-64533333D01*
X193076190Y-64914285D01*
X192647619Y-63961904D02*
X192600000Y-63914285D01*
X192552380Y-63819047D01*
X192552380Y-63580952D01*
X192600000Y-63485714D01*
X192647619Y-63438095D01*
X192742857Y-63390476D01*
X192838095Y-63390476D01*
X192980952Y-63438095D01*
X193552380Y-64009523D01*
X193552380Y-63390476D01*
X192552380Y-62771428D02*
X192552380Y-62676190D01*
X192600000Y-62580952D01*
X192647619Y-62533333D01*
X192742857Y-62485714D01*
X192933333Y-62438095D01*
X193171428Y-62438095D01*
X193361904Y-62485714D01*
X193457142Y-62533333D01*
X193504761Y-62580952D01*
X193552380Y-62676190D01*
X193552380Y-62771428D01*
X193504761Y-62866666D01*
X193457142Y-62914285D01*
X193361904Y-62961904D01*
X193171428Y-63009523D01*
X192933333Y-63009523D01*
X192742857Y-62961904D01*
X192647619Y-62914285D01*
X192600000Y-62866666D01*
X192552380Y-62771428D01*
X218357142Y-95122380D02*
X218023809Y-94646190D01*
X217785714Y-95122380D02*
X217785714Y-94122380D01*
X218166666Y-94122380D01*
X218261904Y-94170000D01*
X218309523Y-94217619D01*
X218357142Y-94312857D01*
X218357142Y-94455714D01*
X218309523Y-94550952D01*
X218261904Y-94598571D01*
X218166666Y-94646190D01*
X217785714Y-94646190D01*
X218738095Y-94217619D02*
X218785714Y-94170000D01*
X218880952Y-94122380D01*
X219119047Y-94122380D01*
X219214285Y-94170000D01*
X219261904Y-94217619D01*
X219309523Y-94312857D01*
X219309523Y-94408095D01*
X219261904Y-94550952D01*
X218690476Y-95122380D01*
X219309523Y-95122380D01*
X220166666Y-94455714D02*
X220166666Y-95122380D01*
X219928571Y-94074761D02*
X219690476Y-94789047D01*
X220309523Y-94789047D01*
X220957142Y-90852380D02*
X220623809Y-90376190D01*
X220385714Y-90852380D02*
X220385714Y-89852380D01*
X220766666Y-89852380D01*
X220861904Y-89900000D01*
X220909523Y-89947619D01*
X220957142Y-90042857D01*
X220957142Y-90185714D01*
X220909523Y-90280952D01*
X220861904Y-90328571D01*
X220766666Y-90376190D01*
X220385714Y-90376190D01*
X221338095Y-89947619D02*
X221385714Y-89900000D01*
X221480952Y-89852380D01*
X221719047Y-89852380D01*
X221814285Y-89900000D01*
X221861904Y-89947619D01*
X221909523Y-90042857D01*
X221909523Y-90138095D01*
X221861904Y-90280952D01*
X221290476Y-90852380D01*
X221909523Y-90852380D01*
X222814285Y-89852380D02*
X222338095Y-89852380D01*
X222290476Y-90328571D01*
X222338095Y-90280952D01*
X222433333Y-90233333D01*
X222671428Y-90233333D01*
X222766666Y-90280952D01*
X222814285Y-90328571D01*
X222861904Y-90423809D01*
X222861904Y-90661904D01*
X222814285Y-90757142D01*
X222766666Y-90804761D01*
X222671428Y-90852380D01*
X222433333Y-90852380D01*
X222338095Y-90804761D01*
X222290476Y-90757142D01*
X192022380Y-70942857D02*
X191546190Y-71276190D01*
X192022380Y-71514285D02*
X191022380Y-71514285D01*
X191022380Y-71133333D01*
X191070000Y-71038095D01*
X191117619Y-70990476D01*
X191212857Y-70942857D01*
X191355714Y-70942857D01*
X191450952Y-70990476D01*
X191498571Y-71038095D01*
X191546190Y-71133333D01*
X191546190Y-71514285D01*
X191117619Y-70561904D02*
X191070000Y-70514285D01*
X191022380Y-70419047D01*
X191022380Y-70180952D01*
X191070000Y-70085714D01*
X191117619Y-70038095D01*
X191212857Y-69990476D01*
X191308095Y-69990476D01*
X191450952Y-70038095D01*
X192022380Y-70609523D01*
X192022380Y-69990476D01*
X191022380Y-69657142D02*
X191022380Y-68990476D01*
X192022380Y-69419047D01*
X226357142Y-60732380D02*
X226023809Y-60256190D01*
X225785714Y-60732380D02*
X225785714Y-59732380D01*
X226166666Y-59732380D01*
X226261904Y-59780000D01*
X226309523Y-59827619D01*
X226357142Y-59922857D01*
X226357142Y-60065714D01*
X226309523Y-60160952D01*
X226261904Y-60208571D01*
X226166666Y-60256190D01*
X225785714Y-60256190D01*
X226738095Y-59827619D02*
X226785714Y-59780000D01*
X226880952Y-59732380D01*
X227119047Y-59732380D01*
X227214285Y-59780000D01*
X227261904Y-59827619D01*
X227309523Y-59922857D01*
X227309523Y-60018095D01*
X227261904Y-60160952D01*
X226690476Y-60732380D01*
X227309523Y-60732380D01*
X227785714Y-60732380D02*
X227976190Y-60732380D01*
X228071428Y-60684761D01*
X228119047Y-60637142D01*
X228214285Y-60494285D01*
X228261904Y-60303809D01*
X228261904Y-59922857D01*
X228214285Y-59827619D01*
X228166666Y-59780000D01*
X228071428Y-59732380D01*
X227880952Y-59732380D01*
X227785714Y-59780000D01*
X227738095Y-59827619D01*
X227690476Y-59922857D01*
X227690476Y-60160952D01*
X227738095Y-60256190D01*
X227785714Y-60303809D01*
X227880952Y-60351428D01*
X228071428Y-60351428D01*
X228166666Y-60303809D01*
X228214285Y-60256190D01*
X228261904Y-60160952D01*
X206152380Y-70282380D02*
X205819047Y-69806190D01*
X205580952Y-70282380D02*
X205580952Y-69282380D01*
X205961904Y-69282380D01*
X206057142Y-69330000D01*
X206104761Y-69377619D01*
X206152380Y-69472857D01*
X206152380Y-69615714D01*
X206104761Y-69710952D01*
X206057142Y-69758571D01*
X205961904Y-69806190D01*
X205580952Y-69806190D01*
X207104761Y-70282380D02*
X206533333Y-70282380D01*
X206819047Y-70282380D02*
X206819047Y-69282380D01*
X206723809Y-69425238D01*
X206628571Y-69520476D01*
X206533333Y-69568095D01*
X208057142Y-70282380D02*
X207485714Y-70282380D01*
X207771428Y-70282380D02*
X207771428Y-69282380D01*
X207676190Y-69425238D01*
X207580952Y-69520476D01*
X207485714Y-69568095D01*
X208438095Y-69996666D02*
X208914285Y-69996666D01*
X208342857Y-70282380D02*
X208676190Y-69282380D01*
X209009523Y-70282380D01*
X209866666Y-70282380D02*
X209295238Y-70282380D01*
X209580952Y-70282380D02*
X209580952Y-69282380D01*
X209485714Y-69425238D01*
X209390476Y-69520476D01*
X209295238Y-69568095D01*
X216152380Y-61952380D02*
X215819047Y-61476190D01*
X215580952Y-61952380D02*
X215580952Y-60952380D01*
X215961904Y-60952380D01*
X216057142Y-61000000D01*
X216104761Y-61047619D01*
X216152380Y-61142857D01*
X216152380Y-61285714D01*
X216104761Y-61380952D01*
X216057142Y-61428571D01*
X215961904Y-61476190D01*
X215580952Y-61476190D01*
X217104761Y-61952380D02*
X216533333Y-61952380D01*
X216819047Y-61952380D02*
X216819047Y-60952380D01*
X216723809Y-61095238D01*
X216628571Y-61190476D01*
X216533333Y-61238095D01*
X217485714Y-61047619D02*
X217533333Y-61000000D01*
X217628571Y-60952380D01*
X217866666Y-60952380D01*
X217961904Y-61000000D01*
X218009523Y-61047619D01*
X218057142Y-61142857D01*
X218057142Y-61238095D01*
X218009523Y-61380952D01*
X217438095Y-61952380D01*
X218057142Y-61952380D01*
X218438095Y-61666666D02*
X218914285Y-61666666D01*
X218342857Y-61952380D02*
X218676190Y-60952380D01*
X219009523Y-61952380D01*
X219866666Y-61952380D02*
X219295238Y-61952380D01*
X219580952Y-61952380D02*
X219580952Y-60952380D01*
X219485714Y-61095238D01*
X219390476Y-61190476D01*
X219295238Y-61238095D01*
X211552380Y-75247619D02*
X211076190Y-75580952D01*
X211552380Y-75819047D02*
X210552380Y-75819047D01*
X210552380Y-75438095D01*
X210600000Y-75342857D01*
X210647619Y-75295238D01*
X210742857Y-75247619D01*
X210885714Y-75247619D01*
X210980952Y-75295238D01*
X211028571Y-75342857D01*
X211076190Y-75438095D01*
X211076190Y-75819047D01*
X210647619Y-74866666D02*
X210600000Y-74819047D01*
X210552380Y-74723809D01*
X210552380Y-74485714D01*
X210600000Y-74390476D01*
X210647619Y-74342857D01*
X210742857Y-74295238D01*
X210838095Y-74295238D01*
X210980952Y-74342857D01*
X211552380Y-74914285D01*
X211552380Y-74295238D01*
X211552380Y-73342857D02*
X211552380Y-73914285D01*
X211552380Y-73628571D02*
X210552380Y-73628571D01*
X210695238Y-73723809D01*
X210790476Y-73819047D01*
X210838095Y-73914285D01*
X211266666Y-72961904D02*
X211266666Y-72485714D01*
X211552380Y-73057142D02*
X210552380Y-72723809D01*
X211552380Y-72390476D01*
X211552380Y-71533333D02*
X211552380Y-72104761D01*
X211552380Y-71819047D02*
X210552380Y-71819047D01*
X210695238Y-71914285D01*
X210790476Y-72009523D01*
X210838095Y-72104761D01*
X223052380Y-75247619D02*
X222576190Y-75580952D01*
X223052380Y-75819047D02*
X222052380Y-75819047D01*
X222052380Y-75438095D01*
X222100000Y-75342857D01*
X222147619Y-75295238D01*
X222242857Y-75247619D01*
X222385714Y-75247619D01*
X222480952Y-75295238D01*
X222528571Y-75342857D01*
X222576190Y-75438095D01*
X222576190Y-75819047D01*
X222147619Y-74866666D02*
X222100000Y-74819047D01*
X222052380Y-74723809D01*
X222052380Y-74485714D01*
X222100000Y-74390476D01*
X222147619Y-74342857D01*
X222242857Y-74295238D01*
X222338095Y-74295238D01*
X222480952Y-74342857D01*
X223052380Y-74914285D01*
X223052380Y-74295238D01*
X222147619Y-73914285D02*
X222100000Y-73866666D01*
X222052380Y-73771428D01*
X222052380Y-73533333D01*
X222100000Y-73438095D01*
X222147619Y-73390476D01*
X222242857Y-73342857D01*
X222338095Y-73342857D01*
X222480952Y-73390476D01*
X223052380Y-73961904D01*
X223052380Y-73342857D01*
X222766666Y-72961904D02*
X222766666Y-72485714D01*
X223052380Y-73057142D02*
X222052380Y-72723809D01*
X223052380Y-72390476D01*
X223052380Y-71533333D02*
X223052380Y-72104761D01*
X223052380Y-71819047D02*
X222052380Y-71819047D01*
X222195238Y-71914285D01*
X222290476Y-72009523D01*
X222338095Y-72104761D01*
X211652380Y-64347619D02*
X211176190Y-64680952D01*
X211652380Y-64919047D02*
X210652380Y-64919047D01*
X210652380Y-64538095D01*
X210700000Y-64442857D01*
X210747619Y-64395238D01*
X210842857Y-64347619D01*
X210985714Y-64347619D01*
X211080952Y-64395238D01*
X211128571Y-64442857D01*
X211176190Y-64538095D01*
X211176190Y-64919047D01*
X210652380Y-64014285D02*
X210652380Y-63395238D01*
X211033333Y-63728571D01*
X211033333Y-63585714D01*
X211080952Y-63490476D01*
X211128571Y-63442857D01*
X211223809Y-63395238D01*
X211461904Y-63395238D01*
X211557142Y-63442857D01*
X211604761Y-63490476D01*
X211652380Y-63585714D01*
X211652380Y-63871428D01*
X211604761Y-63966666D01*
X211557142Y-64014285D01*
X211652380Y-62442857D02*
X211652380Y-63014285D01*
X211652380Y-62728571D02*
X210652380Y-62728571D01*
X210795238Y-62823809D01*
X210890476Y-62919047D01*
X210938095Y-63014285D01*
X211366666Y-62061904D02*
X211366666Y-61585714D01*
X211652380Y-62157142D02*
X210652380Y-61823809D01*
X211652380Y-61490476D01*
X211652380Y-60633333D02*
X211652380Y-61204761D01*
X211652380Y-60919047D02*
X210652380Y-60919047D01*
X210795238Y-61014285D01*
X210890476Y-61109523D01*
X210938095Y-61204761D01*
X223052380Y-63947619D02*
X222576190Y-64280952D01*
X223052380Y-64519047D02*
X222052380Y-64519047D01*
X222052380Y-64138095D01*
X222100000Y-64042857D01*
X222147619Y-63995238D01*
X222242857Y-63947619D01*
X222385714Y-63947619D01*
X222480952Y-63995238D01*
X222528571Y-64042857D01*
X222576190Y-64138095D01*
X222576190Y-64519047D01*
X222052380Y-63614285D02*
X222052380Y-62995238D01*
X222433333Y-63328571D01*
X222433333Y-63185714D01*
X222480952Y-63090476D01*
X222528571Y-63042857D01*
X222623809Y-62995238D01*
X222861904Y-62995238D01*
X222957142Y-63042857D01*
X223004761Y-63090476D01*
X223052380Y-63185714D01*
X223052380Y-63471428D01*
X223004761Y-63566666D01*
X222957142Y-63614285D01*
X222147619Y-62614285D02*
X222100000Y-62566666D01*
X222052380Y-62471428D01*
X222052380Y-62233333D01*
X222100000Y-62138095D01*
X222147619Y-62090476D01*
X222242857Y-62042857D01*
X222338095Y-62042857D01*
X222480952Y-62090476D01*
X223052380Y-62661904D01*
X223052380Y-62042857D01*
X222766666Y-61661904D02*
X222766666Y-61185714D01*
X223052380Y-61757142D02*
X222052380Y-61423809D01*
X223052380Y-61090476D01*
X223052380Y-60233333D02*
X223052380Y-60804761D01*
X223052380Y-60519047D02*
X222052380Y-60519047D01*
X222195238Y-60614285D01*
X222290476Y-60709523D01*
X222338095Y-60804761D01*
X232064761Y-101472380D02*
X231731428Y-100996190D01*
X231493333Y-101472380D02*
X231493333Y-100472380D01*
X231874285Y-100472380D01*
X231969523Y-100520000D01*
X232017142Y-100567619D01*
X232064761Y-100662857D01*
X232064761Y-100805714D01*
X232017142Y-100900952D01*
X231969523Y-100948571D01*
X231874285Y-100996190D01*
X231493333Y-100996190D01*
X232350476Y-100472380D02*
X232683809Y-101472380D01*
X233017142Y-100472380D01*
X233874285Y-101472380D02*
X233302857Y-101472380D01*
X233588571Y-101472380D02*
X233588571Y-100472380D01*
X233493333Y-100615238D01*
X233398095Y-100710476D01*
X233302857Y-100758095D01*
X197638095Y-64152380D02*
X197638095Y-64961904D01*
X197685714Y-65057142D01*
X197733333Y-65104761D01*
X197828571Y-65152380D01*
X198019047Y-65152380D01*
X198114285Y-65104761D01*
X198161904Y-65057142D01*
X198209523Y-64961904D01*
X198209523Y-64152380D01*
X198590476Y-64152380D02*
X199257142Y-64152380D01*
X198828571Y-65152380D01*
X220861904Y-82252380D02*
X220861904Y-83061904D01*
X220909523Y-83157142D01*
X220957142Y-83204761D01*
X221052380Y-83252380D01*
X221242857Y-83252380D01*
X221338095Y-83204761D01*
X221385714Y-83157142D01*
X221433333Y-83061904D01*
X221433333Y-82252380D01*
X222433333Y-83252380D02*
X221861904Y-83252380D01*
X222147619Y-83252380D02*
X222147619Y-82252380D01*
X222052380Y-82395238D01*
X221957142Y-82490476D01*
X221861904Y-82538095D01*
X223290476Y-82585714D02*
X223290476Y-83252380D01*
X223052380Y-82204761D02*
X222814285Y-82919047D01*
X223433333Y-82919047D01*
X215761904Y-64152380D02*
X215761904Y-64961904D01*
X215809523Y-65057142D01*
X215857142Y-65104761D01*
X215952380Y-65152380D01*
X216142857Y-65152380D01*
X216238095Y-65104761D01*
X216285714Y-65057142D01*
X216333333Y-64961904D01*
X216333333Y-64152380D01*
X217333333Y-65152380D02*
X216761904Y-65152380D01*
X217047619Y-65152380D02*
X217047619Y-64152380D01*
X216952380Y-64295238D01*
X216857142Y-64390476D01*
X216761904Y-64438095D01*
X218190476Y-64152380D02*
X218000000Y-64152380D01*
X217904761Y-64200000D01*
X217857142Y-64247619D01*
X217761904Y-64390476D01*
X217714285Y-64580952D01*
X217714285Y-64961904D01*
X217761904Y-65057142D01*
X217809523Y-65104761D01*
X217904761Y-65152380D01*
X218095238Y-65152380D01*
X218190476Y-65104761D01*
X218238095Y-65057142D01*
X218285714Y-64961904D01*
X218285714Y-64723809D01*
X218238095Y-64628571D01*
X218190476Y-64580952D01*
X218095238Y-64533333D01*
X217904761Y-64533333D01*
X217809523Y-64580952D01*
X217761904Y-64628571D01*
X217714285Y-64723809D01*
X232261904Y-66828571D02*
X232595238Y-66828571D01*
X232738095Y-67352380D02*
X232261904Y-67352380D01*
X232261904Y-66352380D01*
X232738095Y-66352380D01*
X233166666Y-67352380D02*
X233166666Y-66685714D01*
X233166666Y-66876190D02*
X233214285Y-66780952D01*
X233261904Y-66733333D01*
X233357142Y-66685714D01*
X233452380Y-66685714D01*
X233785714Y-67352380D02*
X233785714Y-66685714D01*
X233785714Y-66876190D02*
X233833333Y-66780952D01*
X233880952Y-66733333D01*
X233976190Y-66685714D01*
X234071428Y-66685714D01*
X234547619Y-67352380D02*
X234452380Y-67304761D01*
X234404761Y-67257142D01*
X234357142Y-67161904D01*
X234357142Y-66876190D01*
X234404761Y-66780952D01*
X234452380Y-66733333D01*
X234547619Y-66685714D01*
X234690476Y-66685714D01*
X234785714Y-66733333D01*
X234833333Y-66780952D01*
X234880952Y-66876190D01*
X234880952Y-67161904D01*
X234833333Y-67257142D01*
X234785714Y-67304761D01*
X234690476Y-67352380D01*
X234547619Y-67352380D01*
X235309523Y-67352380D02*
X235309523Y-66685714D01*
X235309523Y-66876190D02*
X235357142Y-66780952D01*
X235404761Y-66733333D01*
X235500000Y-66685714D01*
X235595238Y-66685714D01*
X235690476Y-67447619D02*
X236452380Y-67447619D01*
X236880952Y-66352380D02*
X237071428Y-66352380D01*
X237166666Y-66400000D01*
X237261904Y-66495238D01*
X237309523Y-66685714D01*
X237309523Y-67019047D01*
X237261904Y-67209523D01*
X237166666Y-67304761D01*
X237071428Y-67352380D01*
X236880952Y-67352380D01*
X236785714Y-67304761D01*
X236690476Y-67209523D01*
X236642857Y-67019047D01*
X236642857Y-66685714D01*
X236690476Y-66495238D01*
X236785714Y-66400000D01*
X236880952Y-66352380D01*
X238166666Y-66685714D02*
X238166666Y-67352380D01*
X237738095Y-66685714D02*
X237738095Y-67209523D01*
X237785714Y-67304761D01*
X237880952Y-67352380D01*
X238023809Y-67352380D01*
X238119047Y-67304761D01*
X238166666Y-67257142D01*
X238500000Y-66685714D02*
X238880952Y-66685714D01*
X238642857Y-66352380D02*
X238642857Y-67209523D01*
X238690476Y-67304761D01*
X238785714Y-67352380D01*
X238880952Y-67352380D01*
X234438095Y-137952380D02*
X234104761Y-137476190D01*
X233866666Y-137952380D02*
X233866666Y-136952380D01*
X234247619Y-136952380D01*
X234342857Y-137000000D01*
X234390476Y-137047619D01*
X234438095Y-137142857D01*
X234438095Y-137285714D01*
X234390476Y-137380952D01*
X234342857Y-137428571D01*
X234247619Y-137476190D01*
X233866666Y-137476190D01*
X235200000Y-137428571D02*
X234866666Y-137428571D01*
X234866666Y-137952380D02*
X234866666Y-136952380D01*
X235342857Y-136952380D01*
X235485714Y-138047619D02*
X236247619Y-138047619D01*
X236676190Y-136952380D02*
X236866666Y-136952380D01*
X236961904Y-137000000D01*
X237057142Y-137095238D01*
X237104761Y-137285714D01*
X237104761Y-137619047D01*
X237057142Y-137809523D01*
X236961904Y-137904761D01*
X236866666Y-137952380D01*
X236676190Y-137952380D01*
X236580952Y-137904761D01*
X236485714Y-137809523D01*
X236438095Y-137619047D01*
X236438095Y-137285714D01*
X236485714Y-137095238D01*
X236580952Y-137000000D01*
X236676190Y-136952380D01*
X237961904Y-137285714D02*
X237961904Y-137952380D01*
X237533333Y-137285714D02*
X237533333Y-137809523D01*
X237580952Y-137904761D01*
X237676190Y-137952380D01*
X237819047Y-137952380D01*
X237914285Y-137904761D01*
X237961904Y-137857142D01*
X238295238Y-137285714D02*
X238676190Y-137285714D01*
X238438095Y-136952380D02*
X238438095Y-137809523D01*
X238485714Y-137904761D01*
X238580952Y-137952380D01*
X238676190Y-137952380D01*
X135771428Y-69397142D02*
X135771428Y-68635238D01*
X136152380Y-69016190D02*
X135390476Y-69016190D01*
X135152380Y-67682857D02*
X135152380Y-68159047D01*
X135628571Y-68206666D01*
X135580952Y-68159047D01*
X135533333Y-68063809D01*
X135533333Y-67825714D01*
X135580952Y-67730476D01*
X135628571Y-67682857D01*
X135723809Y-67635238D01*
X135961904Y-67635238D01*
X136057142Y-67682857D01*
X136104761Y-67730476D01*
X136152380Y-67825714D01*
X136152380Y-68063809D01*
X136104761Y-68159047D01*
X136057142Y-68206666D01*
X135152380Y-67349523D02*
X136152380Y-67016190D01*
X135152380Y-66682857D01*
X135200000Y-64301904D02*
X135152380Y-64397142D01*
X135152380Y-64540000D01*
X135200000Y-64682857D01*
X135295238Y-64778095D01*
X135390476Y-64825714D01*
X135580952Y-64873333D01*
X135723809Y-64873333D01*
X135914285Y-64825714D01*
X136009523Y-64778095D01*
X136104761Y-64682857D01*
X136152380Y-64540000D01*
X136152380Y-64444761D01*
X136104761Y-64301904D01*
X136057142Y-64254285D01*
X135723809Y-64254285D01*
X135723809Y-64444761D01*
X136152380Y-63825714D02*
X135152380Y-63825714D01*
X136152380Y-63254285D01*
X135152380Y-63254285D01*
X136152380Y-62778095D02*
X135152380Y-62778095D01*
X135152380Y-62540000D01*
X135200000Y-62397142D01*
X135295238Y-62301904D01*
X135390476Y-62254285D01*
X135580952Y-62206666D01*
X135723809Y-62206666D01*
X135914285Y-62254285D01*
X136009523Y-62301904D01*
X136104761Y-62397142D01*
X136152380Y-62540000D01*
X136152380Y-62778095D01*
X135771428Y-60254285D02*
X135771428Y-59492380D01*
X135152380Y-58540000D02*
X135152380Y-59016190D01*
X135628571Y-59063809D01*
X135580952Y-59016190D01*
X135533333Y-58920952D01*
X135533333Y-58682857D01*
X135580952Y-58587619D01*
X135628571Y-58540000D01*
X135723809Y-58492380D01*
X135961904Y-58492380D01*
X136057142Y-58540000D01*
X136104761Y-58587619D01*
X136152380Y-58682857D01*
X136152380Y-58920952D01*
X136104761Y-59016190D01*
X136057142Y-59063809D01*
X135152380Y-58206666D02*
X136152380Y-57873333D01*
X135152380Y-57540000D01*
X131952380Y-68267285D02*
X131952380Y-68838714D01*
X131952380Y-68553000D02*
X130952380Y-68553000D01*
X131095238Y-68648238D01*
X131190476Y-68743476D01*
X131238095Y-68838714D01*
X100371428Y-102109523D02*
X100371428Y-101347619D01*
X100752380Y-101728571D02*
X99990476Y-101728571D01*
X100752380Y-100347619D02*
X100752380Y-100919047D01*
X100752380Y-100633333D02*
X99752380Y-100633333D01*
X99895238Y-100728571D01*
X99990476Y-100823809D01*
X100038095Y-100919047D01*
X99752380Y-99442857D02*
X99752380Y-99919047D01*
X100228571Y-99966666D01*
X100180952Y-99919047D01*
X100133333Y-99823809D01*
X100133333Y-99585714D01*
X100180952Y-99490476D01*
X100228571Y-99442857D01*
X100323809Y-99395238D01*
X100561904Y-99395238D01*
X100657142Y-99442857D01*
X100704761Y-99490476D01*
X100752380Y-99585714D01*
X100752380Y-99823809D01*
X100704761Y-99919047D01*
X100657142Y-99966666D01*
X99752380Y-99109523D02*
X100752380Y-98776190D01*
X99752380Y-98442857D01*
X99800000Y-96061904D02*
X99752380Y-96157142D01*
X99752380Y-96300000D01*
X99800000Y-96442857D01*
X99895238Y-96538095D01*
X99990476Y-96585714D01*
X100180952Y-96633333D01*
X100323809Y-96633333D01*
X100514285Y-96585714D01*
X100609523Y-96538095D01*
X100704761Y-96442857D01*
X100752380Y-96300000D01*
X100752380Y-96204761D01*
X100704761Y-96061904D01*
X100657142Y-96014285D01*
X100323809Y-96014285D01*
X100323809Y-96204761D01*
X100752380Y-95585714D02*
X99752380Y-95585714D01*
X100752380Y-95014285D01*
X99752380Y-95014285D01*
X100752380Y-94538095D02*
X99752380Y-94538095D01*
X99752380Y-94300000D01*
X99800000Y-94157142D01*
X99895238Y-94061904D01*
X99990476Y-94014285D01*
X100180952Y-93966666D01*
X100323809Y-93966666D01*
X100514285Y-94014285D01*
X100609523Y-94061904D01*
X100704761Y-94157142D01*
X100752380Y-94300000D01*
X100752380Y-94538095D01*
X100371428Y-92014285D02*
X100371428Y-91252380D01*
X100752380Y-90252380D02*
X100752380Y-90823809D01*
X100752380Y-90538095D02*
X99752380Y-90538095D01*
X99895238Y-90633333D01*
X99990476Y-90728571D01*
X100038095Y-90823809D01*
X99752380Y-89347619D02*
X99752380Y-89823809D01*
X100228571Y-89871428D01*
X100180952Y-89823809D01*
X100133333Y-89728571D01*
X100133333Y-89490476D01*
X100180952Y-89395238D01*
X100228571Y-89347619D01*
X100323809Y-89300000D01*
X100561904Y-89300000D01*
X100657142Y-89347619D01*
X100704761Y-89395238D01*
X100752380Y-89490476D01*
X100752380Y-89728571D01*
X100704761Y-89823809D01*
X100657142Y-89871428D01*
X99752380Y-89014285D02*
X100752380Y-88680952D01*
X99752380Y-88347619D01*
X96852380Y-99927285D02*
X96852380Y-100498714D01*
X96852380Y-100213000D02*
X95852380Y-100213000D01*
X95995238Y-100308238D01*
X96090476Y-100403476D01*
X96138095Y-100498714D01*
X157733333Y-116387142D02*
X157685714Y-116434761D01*
X157542857Y-116482380D01*
X157447619Y-116482380D01*
X157304761Y-116434761D01*
X157209523Y-116339523D01*
X157161904Y-116244285D01*
X157114285Y-116053809D01*
X157114285Y-115910952D01*
X157161904Y-115720476D01*
X157209523Y-115625238D01*
X157304761Y-115530000D01*
X157447619Y-115482380D01*
X157542857Y-115482380D01*
X157685714Y-115530000D01*
X157733333Y-115577619D01*
X158685714Y-116482380D02*
X158114285Y-116482380D01*
X158400000Y-116482380D02*
X158400000Y-115482380D01*
X158304761Y-115625238D01*
X158209523Y-115720476D01*
X158114285Y-115768095D01*
X106557142Y-94266666D02*
X106604761Y-94314285D01*
X106652380Y-94457142D01*
X106652380Y-94552380D01*
X106604761Y-94695238D01*
X106509523Y-94790476D01*
X106414285Y-94838095D01*
X106223809Y-94885714D01*
X106080952Y-94885714D01*
X105890476Y-94838095D01*
X105795238Y-94790476D01*
X105700000Y-94695238D01*
X105652380Y-94552380D01*
X105652380Y-94457142D01*
X105700000Y-94314285D01*
X105747619Y-94266666D01*
X106080952Y-93695238D02*
X106033333Y-93790476D01*
X105985714Y-93838095D01*
X105890476Y-93885714D01*
X105842857Y-93885714D01*
X105747619Y-93838095D01*
X105700000Y-93790476D01*
X105652380Y-93695238D01*
X105652380Y-93504761D01*
X105700000Y-93409523D01*
X105747619Y-93361904D01*
X105842857Y-93314285D01*
X105890476Y-93314285D01*
X105985714Y-93361904D01*
X106033333Y-93409523D01*
X106080952Y-93504761D01*
X106080952Y-93695238D01*
X106128571Y-93790476D01*
X106176190Y-93838095D01*
X106271428Y-93885714D01*
X106461904Y-93885714D01*
X106557142Y-93838095D01*
X106604761Y-93790476D01*
X106652380Y-93695238D01*
X106652380Y-93504761D01*
X106604761Y-93409523D01*
X106557142Y-93361904D01*
X106461904Y-93314285D01*
X106271428Y-93314285D01*
X106176190Y-93361904D01*
X106128571Y-93409523D01*
X106080952Y-93504761D01*
X197757142Y-76766666D02*
X197804761Y-76814285D01*
X197852380Y-76957142D01*
X197852380Y-77052380D01*
X197804761Y-77195238D01*
X197709523Y-77290476D01*
X197614285Y-77338095D01*
X197423809Y-77385714D01*
X197280952Y-77385714D01*
X197090476Y-77338095D01*
X196995238Y-77290476D01*
X196900000Y-77195238D01*
X196852380Y-77052380D01*
X196852380Y-76957142D01*
X196900000Y-76814285D01*
X196947619Y-76766666D01*
X197852380Y-76290476D02*
X197852380Y-76100000D01*
X197804761Y-76004761D01*
X197757142Y-75957142D01*
X197614285Y-75861904D01*
X197423809Y-75814285D01*
X197042857Y-75814285D01*
X196947619Y-75861904D01*
X196900000Y-75909523D01*
X196852380Y-76004761D01*
X196852380Y-76195238D01*
X196900000Y-76290476D01*
X196947619Y-76338095D01*
X197042857Y-76385714D01*
X197280952Y-76385714D01*
X197376190Y-76338095D01*
X197423809Y-76290476D01*
X197471428Y-76195238D01*
X197471428Y-76004761D01*
X197423809Y-75909523D01*
X197376190Y-75861904D01*
X197280952Y-75814285D01*
X191357142Y-90857142D02*
X191309523Y-90904761D01*
X191166666Y-90952380D01*
X191071428Y-90952380D01*
X190928571Y-90904761D01*
X190833333Y-90809523D01*
X190785714Y-90714285D01*
X190738095Y-90523809D01*
X190738095Y-90380952D01*
X190785714Y-90190476D01*
X190833333Y-90095238D01*
X190928571Y-90000000D01*
X191071428Y-89952380D01*
X191166666Y-89952380D01*
X191309523Y-90000000D01*
X191357142Y-90047619D01*
X192214285Y-90285714D02*
X192214285Y-90952380D01*
X191976190Y-89904761D02*
X191738095Y-90619047D01*
X192357142Y-90619047D01*
X192642857Y-89952380D02*
X193261904Y-89952380D01*
X192928571Y-90333333D01*
X193071428Y-90333333D01*
X193166666Y-90380952D01*
X193214285Y-90428571D01*
X193261904Y-90523809D01*
X193261904Y-90761904D01*
X193214285Y-90857142D01*
X193166666Y-90904761D01*
X193071428Y-90952380D01*
X192785714Y-90952380D01*
X192690476Y-90904761D01*
X192642857Y-90857142D01*
D13*
X108157619Y-53093333D02*
X110252857Y-53093333D01*
X107738571Y-54350476D02*
X109205238Y-49950476D01*
X110671904Y-54350476D01*
X112138571Y-54350476D02*
X112138571Y-49950476D01*
X113814761Y-49950476D01*
X114233809Y-50160000D01*
X114443333Y-50369523D01*
X114652857Y-50788571D01*
X114652857Y-51417142D01*
X114443333Y-51836190D01*
X114233809Y-52045714D01*
X113814761Y-52255238D01*
X112138571Y-52255238D01*
X119471904Y-54769523D02*
X119052857Y-54560000D01*
X118633809Y-54140952D01*
X118005238Y-53512380D01*
X117586190Y-53302857D01*
X117167142Y-53302857D01*
X117376666Y-54350476D02*
X116957619Y-54140952D01*
X116538571Y-53721904D01*
X116329047Y-52883809D01*
X116329047Y-51417142D01*
X116538571Y-50579047D01*
X116957619Y-50160000D01*
X117376666Y-49950476D01*
X118214761Y-49950476D01*
X118633809Y-50160000D01*
X119052857Y-50579047D01*
X119262380Y-51417142D01*
X119262380Y-52883809D01*
X119052857Y-53721904D01*
X118633809Y-54140952D01*
X118214761Y-54350476D01*
X117376666Y-54350476D01*
D11*
X112482380Y-93366666D02*
X112006190Y-93700000D01*
X112482380Y-93938095D02*
X111482380Y-93938095D01*
X111482380Y-93557142D01*
X111530000Y-93461904D01*
X111577619Y-93414285D01*
X111672857Y-93366666D01*
X111815714Y-93366666D01*
X111910952Y-93414285D01*
X111958571Y-93461904D01*
X112006190Y-93557142D01*
X112006190Y-93938095D01*
X111815714Y-92509523D02*
X112482380Y-92509523D01*
X111434761Y-92747619D02*
X112149047Y-92985714D01*
X112149047Y-92366666D01*
X156057142Y-105852380D02*
X155723809Y-105376190D01*
X155485714Y-105852380D02*
X155485714Y-104852380D01*
X155866666Y-104852380D01*
X155961904Y-104900000D01*
X156009523Y-104947619D01*
X156057142Y-105042857D01*
X156057142Y-105185714D01*
X156009523Y-105280952D01*
X155961904Y-105328571D01*
X155866666Y-105376190D01*
X155485714Y-105376190D01*
X157009523Y-105852380D02*
X156438095Y-105852380D01*
X156723809Y-105852380D02*
X156723809Y-104852380D01*
X156628571Y-104995238D01*
X156533333Y-105090476D01*
X156438095Y-105138095D01*
X157866666Y-105185714D02*
X157866666Y-105852380D01*
X157628571Y-104804761D02*
X157390476Y-105519047D01*
X158009523Y-105519047D01*
X219852380Y-123742857D02*
X219376190Y-124076190D01*
X219852380Y-124314285D02*
X218852380Y-124314285D01*
X218852380Y-123933333D01*
X218900000Y-123838095D01*
X218947619Y-123790476D01*
X219042857Y-123742857D01*
X219185714Y-123742857D01*
X219280952Y-123790476D01*
X219328571Y-123838095D01*
X219376190Y-123933333D01*
X219376190Y-124314285D01*
X218852380Y-123409523D02*
X218852380Y-122790476D01*
X219233333Y-123123809D01*
X219233333Y-122980952D01*
X219280952Y-122885714D01*
X219328571Y-122838095D01*
X219423809Y-122790476D01*
X219661904Y-122790476D01*
X219757142Y-122838095D01*
X219804761Y-122885714D01*
X219852380Y-122980952D01*
X219852380Y-123266666D01*
X219804761Y-123361904D01*
X219757142Y-123409523D01*
X218852380Y-122171428D02*
X218852380Y-122076190D01*
X218900000Y-121980952D01*
X218947619Y-121933333D01*
X219042857Y-121885714D01*
X219233333Y-121838095D01*
X219471428Y-121838095D01*
X219661904Y-121885714D01*
X219757142Y-121933333D01*
X219804761Y-121980952D01*
X219852380Y-122076190D01*
X219852380Y-122171428D01*
X219804761Y-122266666D01*
X219757142Y-122314285D01*
X219661904Y-122361904D01*
X219471428Y-122409523D01*
X219233333Y-122409523D01*
X219042857Y-122361904D01*
X218947619Y-122314285D01*
X218900000Y-122266666D01*
X218852380Y-122171428D01*
X221552380Y-125342857D02*
X221076190Y-125676190D01*
X221552380Y-125914285D02*
X220552380Y-125914285D01*
X220552380Y-125533333D01*
X220600000Y-125438095D01*
X220647619Y-125390476D01*
X220742857Y-125342857D01*
X220885714Y-125342857D01*
X220980952Y-125390476D01*
X221028571Y-125438095D01*
X221076190Y-125533333D01*
X221076190Y-125914285D01*
X220552380Y-125009523D02*
X220552380Y-124390476D01*
X220933333Y-124723809D01*
X220933333Y-124580952D01*
X220980952Y-124485714D01*
X221028571Y-124438095D01*
X221123809Y-124390476D01*
X221361904Y-124390476D01*
X221457142Y-124438095D01*
X221504761Y-124485714D01*
X221552380Y-124580952D01*
X221552380Y-124866666D01*
X221504761Y-124961904D01*
X221457142Y-125009523D01*
X221552380Y-123438095D02*
X221552380Y-124009523D01*
X221552380Y-123723809D02*
X220552380Y-123723809D01*
X220695238Y-123819047D01*
X220790476Y-123914285D01*
X220838095Y-124009523D01*
X189952380Y-89442857D02*
X189476190Y-89776190D01*
X189952380Y-90014285D02*
X188952380Y-90014285D01*
X188952380Y-89633333D01*
X189000000Y-89538095D01*
X189047619Y-89490476D01*
X189142857Y-89442857D01*
X189285714Y-89442857D01*
X189380952Y-89490476D01*
X189428571Y-89538095D01*
X189476190Y-89633333D01*
X189476190Y-90014285D01*
X188952380Y-89109523D02*
X188952380Y-88490476D01*
X189333333Y-88823809D01*
X189333333Y-88680952D01*
X189380952Y-88585714D01*
X189428571Y-88538095D01*
X189523809Y-88490476D01*
X189761904Y-88490476D01*
X189857142Y-88538095D01*
X189904761Y-88585714D01*
X189952380Y-88680952D01*
X189952380Y-88966666D01*
X189904761Y-89061904D01*
X189857142Y-89109523D01*
X189047619Y-88109523D02*
X189000000Y-88061904D01*
X188952380Y-87966666D01*
X188952380Y-87728571D01*
X189000000Y-87633333D01*
X189047619Y-87585714D01*
X189142857Y-87538095D01*
X189238095Y-87538095D01*
X189380952Y-87585714D01*
X189952380Y-88157142D01*
X189952380Y-87538095D01*
X190152380Y-80042857D02*
X189676190Y-80376190D01*
X190152380Y-80614285D02*
X189152380Y-80614285D01*
X189152380Y-80233333D01*
X189200000Y-80138095D01*
X189247619Y-80090476D01*
X189342857Y-80042857D01*
X189485714Y-80042857D01*
X189580952Y-80090476D01*
X189628571Y-80138095D01*
X189676190Y-80233333D01*
X189676190Y-80614285D01*
X189152380Y-79709523D02*
X189152380Y-79090476D01*
X189533333Y-79423809D01*
X189533333Y-79280952D01*
X189580952Y-79185714D01*
X189628571Y-79138095D01*
X189723809Y-79090476D01*
X189961904Y-79090476D01*
X190057142Y-79138095D01*
X190104761Y-79185714D01*
X190152380Y-79280952D01*
X190152380Y-79566666D01*
X190104761Y-79661904D01*
X190057142Y-79709523D01*
X189152380Y-78757142D02*
X189152380Y-78138095D01*
X189533333Y-78471428D01*
X189533333Y-78328571D01*
X189580952Y-78233333D01*
X189628571Y-78185714D01*
X189723809Y-78138095D01*
X189961904Y-78138095D01*
X190057142Y-78185714D01*
X190104761Y-78233333D01*
X190152380Y-78328571D01*
X190152380Y-78614285D01*
X190104761Y-78709523D01*
X190057142Y-78757142D01*
X107838095Y-84602380D02*
X107838095Y-85411904D01*
X107885714Y-85507142D01*
X107933333Y-85554761D01*
X108028571Y-85602380D01*
X108219047Y-85602380D01*
X108314285Y-85554761D01*
X108361904Y-85507142D01*
X108409523Y-85411904D01*
X108409523Y-84602380D01*
X109409523Y-85602380D02*
X108838095Y-85602380D01*
X109123809Y-85602380D02*
X109123809Y-84602380D01*
X109028571Y-84745238D01*
X108933333Y-84840476D01*
X108838095Y-84888095D01*
X159838095Y-114152380D02*
X159838095Y-114961904D01*
X159885714Y-115057142D01*
X159933333Y-115104761D01*
X160028571Y-115152380D01*
X160219047Y-115152380D01*
X160314285Y-115104761D01*
X160361904Y-115057142D01*
X160409523Y-114961904D01*
X160409523Y-114152380D01*
X161361904Y-114152380D02*
X160885714Y-114152380D01*
X160838095Y-114628571D01*
X160885714Y-114580952D01*
X160980952Y-114533333D01*
X161219047Y-114533333D01*
X161314285Y-114580952D01*
X161361904Y-114628571D01*
X161409523Y-114723809D01*
X161409523Y-114961904D01*
X161361904Y-115057142D01*
X161314285Y-115104761D01*
X161219047Y-115152380D01*
X160980952Y-115152380D01*
X160885714Y-115104761D01*
X160838095Y-115057142D01*
X228052380Y-123438095D02*
X228861904Y-123438095D01*
X228957142Y-123390476D01*
X229004761Y-123342857D01*
X229052380Y-123247619D01*
X229052380Y-123057142D01*
X229004761Y-122961904D01*
X228957142Y-122914285D01*
X228861904Y-122866666D01*
X228052380Y-122866666D01*
X229052380Y-121866666D02*
X229052380Y-122438095D01*
X229052380Y-122152380D02*
X228052380Y-122152380D01*
X228195238Y-122247619D01*
X228290476Y-122342857D01*
X228338095Y-122438095D01*
X228052380Y-121533333D02*
X228052380Y-120914285D01*
X228433333Y-121247619D01*
X228433333Y-121104761D01*
X228480952Y-121009523D01*
X228528571Y-120961904D01*
X228623809Y-120914285D01*
X228861904Y-120914285D01*
X228957142Y-120961904D01*
X229004761Y-121009523D01*
X229052380Y-121104761D01*
X229052380Y-121390476D01*
X229004761Y-121485714D01*
X228957142Y-121533333D01*
X195261904Y-87352380D02*
X195261904Y-88161904D01*
X195309523Y-88257142D01*
X195357142Y-88304761D01*
X195452380Y-88352380D01*
X195642857Y-88352380D01*
X195738095Y-88304761D01*
X195785714Y-88257142D01*
X195833333Y-88161904D01*
X195833333Y-87352380D01*
X196833333Y-88352380D02*
X196261904Y-88352380D01*
X196547619Y-88352380D02*
X196547619Y-87352380D01*
X196452380Y-87495238D01*
X196357142Y-87590476D01*
X196261904Y-87638095D01*
X197166666Y-87352380D02*
X197833333Y-87352380D01*
X197404761Y-88352380D01*
X207561904Y-76564380D02*
X207561904Y-77373904D01*
X207609523Y-77469142D01*
X207657142Y-77516761D01*
X207752380Y-77564380D01*
X207942857Y-77564380D01*
X208038095Y-77516761D01*
X208085714Y-77469142D01*
X208133333Y-77373904D01*
X208133333Y-76564380D01*
X209133333Y-77564380D02*
X208561904Y-77564380D01*
X208847619Y-77564380D02*
X208847619Y-76564380D01*
X208752380Y-76707238D01*
X208657142Y-76802476D01*
X208561904Y-76850095D01*
X210038095Y-76564380D02*
X209561904Y-76564380D01*
X209514285Y-77040571D01*
X209561904Y-76992952D01*
X209657142Y-76945333D01*
X209895238Y-76945333D01*
X209990476Y-76992952D01*
X210038095Y-77040571D01*
X210085714Y-77135809D01*
X210085714Y-77373904D01*
X210038095Y-77469142D01*
X209990476Y-77516761D01*
X209895238Y-77564380D01*
X209657142Y-77564380D01*
X209561904Y-77516761D01*
X209514285Y-77469142D01*
X94772380Y-72898095D02*
X95581904Y-72898095D01*
X95677142Y-72850476D01*
X95724761Y-72802857D01*
X95772380Y-72707619D01*
X95772380Y-72517142D01*
X95724761Y-72421904D01*
X95677142Y-72374285D01*
X95581904Y-72326666D01*
X94772380Y-72326666D01*
X95772380Y-71326666D02*
X95772380Y-71898095D01*
X95772380Y-71612380D02*
X94772380Y-71612380D01*
X94915238Y-71707619D01*
X95010476Y-71802857D01*
X95058095Y-71898095D01*
X95772380Y-70374285D02*
X95772380Y-70945714D01*
X95772380Y-70660000D02*
X94772380Y-70660000D01*
X94915238Y-70755238D01*
X95010476Y-70850476D01*
X95058095Y-70945714D01*
X170228571Y-93752380D02*
X170228571Y-92752380D01*
X170609523Y-92752380D01*
X170704761Y-92800000D01*
X170752380Y-92847619D01*
X170800000Y-92942857D01*
X170800000Y-93085714D01*
X170752380Y-93180952D01*
X170704761Y-93228571D01*
X170609523Y-93276190D01*
X170228571Y-93276190D01*
X171704761Y-93752380D02*
X171228571Y-93752380D01*
X171228571Y-92752380D01*
X172514285Y-93752380D02*
X172038095Y-93752380D01*
X172038095Y-92752380D01*
X192857142Y-80982380D02*
X192523809Y-80506190D01*
X192285714Y-80982380D02*
X192285714Y-79982380D01*
X192666666Y-79982380D01*
X192761904Y-80030000D01*
X192809523Y-80077619D01*
X192857142Y-80172857D01*
X192857142Y-80315714D01*
X192809523Y-80410952D01*
X192761904Y-80458571D01*
X192666666Y-80506190D01*
X192285714Y-80506190D01*
X193238095Y-80077619D02*
X193285714Y-80030000D01*
X193380952Y-79982380D01*
X193619047Y-79982380D01*
X193714285Y-80030000D01*
X193761904Y-80077619D01*
X193809523Y-80172857D01*
X193809523Y-80268095D01*
X193761904Y-80410952D01*
X193190476Y-80982380D01*
X193809523Y-80982380D01*
X194380952Y-80410952D02*
X194285714Y-80363333D01*
X194238095Y-80315714D01*
X194190476Y-80220476D01*
X194190476Y-80172857D01*
X194238095Y-80077619D01*
X194285714Y-80030000D01*
X194380952Y-79982380D01*
X194571428Y-79982380D01*
X194666666Y-80030000D01*
X194714285Y-80077619D01*
X194761904Y-80172857D01*
X194761904Y-80220476D01*
X194714285Y-80315714D01*
X194666666Y-80363333D01*
X194571428Y-80410952D01*
X194380952Y-80410952D01*
X194285714Y-80458571D01*
X194238095Y-80506190D01*
X194190476Y-80601428D01*
X194190476Y-80791904D01*
X194238095Y-80887142D01*
X194285714Y-80934761D01*
X194380952Y-80982380D01*
X194571428Y-80982380D01*
X194666666Y-80934761D01*
X194714285Y-80887142D01*
X194761904Y-80791904D01*
X194761904Y-80601428D01*
X194714285Y-80506190D01*
X194666666Y-80458571D01*
X194571428Y-80410952D01*
X197238095Y-102852380D02*
X197238095Y-103661904D01*
X197285714Y-103757142D01*
X197333333Y-103804761D01*
X197428571Y-103852380D01*
X197619047Y-103852380D01*
X197714285Y-103804761D01*
X197761904Y-103757142D01*
X197809523Y-103661904D01*
X197809523Y-102852380D01*
X198428571Y-103280952D02*
X198333333Y-103233333D01*
X198285714Y-103185714D01*
X198238095Y-103090476D01*
X198238095Y-103042857D01*
X198285714Y-102947619D01*
X198333333Y-102900000D01*
X198428571Y-102852380D01*
X198619047Y-102852380D01*
X198714285Y-102900000D01*
X198761904Y-102947619D01*
X198809523Y-103042857D01*
X198809523Y-103090476D01*
X198761904Y-103185714D01*
X198714285Y-103233333D01*
X198619047Y-103280952D01*
X198428571Y-103280952D01*
X198333333Y-103328571D01*
X198285714Y-103376190D01*
X198238095Y-103471428D01*
X198238095Y-103661904D01*
X198285714Y-103757142D01*
X198333333Y-103804761D01*
X198428571Y-103852380D01*
X198619047Y-103852380D01*
X198714285Y-103804761D01*
X198761904Y-103757142D01*
X198809523Y-103661904D01*
X198809523Y-103471428D01*
X198761904Y-103376190D01*
X198714285Y-103328571D01*
X198619047Y-103280952D01*
X148452380Y-64373333D02*
X149166666Y-64373333D01*
X149309523Y-64420952D01*
X149404761Y-64516190D01*
X149452380Y-64659047D01*
X149452380Y-64754285D01*
X148547619Y-63944761D02*
X148500000Y-63897142D01*
X148452380Y-63801904D01*
X148452380Y-63563809D01*
X148500000Y-63468571D01*
X148547619Y-63420952D01*
X148642857Y-63373333D01*
X148738095Y-63373333D01*
X148880952Y-63420952D01*
X149452380Y-63992380D01*
X149452380Y-63373333D01*
X153652380Y-68467285D02*
X153652380Y-69038714D01*
X153652380Y-68753000D02*
X152652380Y-68753000D01*
X152795238Y-68848238D01*
X152890476Y-68943476D01*
X152938095Y-69038714D01*
X230052380Y-111809523D02*
X229052380Y-111809523D01*
X229766666Y-111476190D01*
X229052380Y-111142857D01*
X230052380Y-111142857D01*
X230052380Y-110523809D02*
X230004761Y-110619047D01*
X229957142Y-110666666D01*
X229861904Y-110714285D01*
X229576190Y-110714285D01*
X229480952Y-110666666D01*
X229433333Y-110619047D01*
X229385714Y-110523809D01*
X229385714Y-110380952D01*
X229433333Y-110285714D01*
X229480952Y-110238095D01*
X229576190Y-110190476D01*
X229861904Y-110190476D01*
X229957142Y-110238095D01*
X230004761Y-110285714D01*
X230052380Y-110380952D01*
X230052380Y-110523809D01*
X230052380Y-109333333D02*
X229052380Y-109333333D01*
X230004761Y-109333333D02*
X230052380Y-109428571D01*
X230052380Y-109619047D01*
X230004761Y-109714285D01*
X229957142Y-109761904D01*
X229861904Y-109809523D01*
X229576190Y-109809523D01*
X229480952Y-109761904D01*
X229433333Y-109714285D01*
X229385714Y-109619047D01*
X229385714Y-109428571D01*
X229433333Y-109333333D01*
X230147619Y-109095238D02*
X230147619Y-108333333D01*
X230052380Y-108095238D02*
X229052380Y-108095238D01*
X229385714Y-107619047D02*
X230052380Y-107619047D01*
X229480952Y-107619047D02*
X229433333Y-107571428D01*
X229385714Y-107476190D01*
X229385714Y-107333333D01*
X229433333Y-107238095D01*
X229528571Y-107190476D01*
X230052380Y-107190476D01*
X113457142Y-59357142D02*
X113409523Y-59404761D01*
X113266666Y-59452380D01*
X113171428Y-59452380D01*
X113028571Y-59404761D01*
X112933333Y-59309523D01*
X112885714Y-59214285D01*
X112838095Y-59023809D01*
X112838095Y-58880952D01*
X112885714Y-58690476D01*
X112933333Y-58595238D01*
X113028571Y-58500000D01*
X113171428Y-58452380D01*
X113266666Y-58452380D01*
X113409523Y-58500000D01*
X113457142Y-58547619D01*
X113790476Y-58452380D02*
X114409523Y-58452380D01*
X114076190Y-58833333D01*
X114219047Y-58833333D01*
X114314285Y-58880952D01*
X114361904Y-58928571D01*
X114409523Y-59023809D01*
X114409523Y-59261904D01*
X114361904Y-59357142D01*
X114314285Y-59404761D01*
X114219047Y-59452380D01*
X113933333Y-59452380D01*
X113838095Y-59404761D01*
X113790476Y-59357142D01*
X115314285Y-58452380D02*
X114838095Y-58452380D01*
X114790476Y-58928571D01*
X114838095Y-58880952D01*
X114933333Y-58833333D01*
X115171428Y-58833333D01*
X115266666Y-58880952D01*
X115314285Y-58928571D01*
X115361904Y-59023809D01*
X115361904Y-59261904D01*
X115314285Y-59357142D01*
X115266666Y-59404761D01*
X115171428Y-59452380D01*
X114933333Y-59452380D01*
X114838095Y-59404761D01*
X114790476Y-59357142D01*
X122952380Y-132038095D02*
X121952380Y-132038095D01*
X121952380Y-131800000D01*
X122000000Y-131657142D01*
X122095238Y-131561904D01*
X122190476Y-131514285D01*
X122380952Y-131466666D01*
X122523809Y-131466666D01*
X122714285Y-131514285D01*
X122809523Y-131561904D01*
X122904761Y-131657142D01*
X122952380Y-131800000D01*
X122952380Y-132038095D01*
X121952380Y-130561904D02*
X121952380Y-131038095D01*
X122428571Y-131085714D01*
X122380952Y-131038095D01*
X122333333Y-130942857D01*
X122333333Y-130704761D01*
X122380952Y-130609523D01*
X122428571Y-130561904D01*
X122523809Y-130514285D01*
X122761904Y-130514285D01*
X122857142Y-130561904D01*
X122904761Y-130609523D01*
X122952380Y-130704761D01*
X122952380Y-130942857D01*
X122904761Y-131038095D01*
X122857142Y-131085714D01*
X218057142Y-79852380D02*
X217723809Y-79376190D01*
X217485714Y-79852380D02*
X217485714Y-78852380D01*
X217866666Y-78852380D01*
X217961904Y-78900000D01*
X218009523Y-78947619D01*
X218057142Y-79042857D01*
X218057142Y-79185714D01*
X218009523Y-79280952D01*
X217961904Y-79328571D01*
X217866666Y-79376190D01*
X217485714Y-79376190D01*
X218438095Y-78947619D02*
X218485714Y-78900000D01*
X218580952Y-78852380D01*
X218819047Y-78852380D01*
X218914285Y-78900000D01*
X218961904Y-78947619D01*
X219009523Y-79042857D01*
X219009523Y-79138095D01*
X218961904Y-79280952D01*
X218390476Y-79852380D01*
X219009523Y-79852380D01*
X219961904Y-79852380D02*
X219390476Y-79852380D01*
X219676190Y-79852380D02*
X219676190Y-78852380D01*
X219580952Y-78995238D01*
X219485714Y-79090476D01*
X219390476Y-79138095D01*
X223057142Y-135537142D02*
X223009523Y-135584761D01*
X222866666Y-135632380D01*
X222771428Y-135632380D01*
X222628571Y-135584761D01*
X222533333Y-135489523D01*
X222485714Y-135394285D01*
X222438095Y-135203809D01*
X222438095Y-135060952D01*
X222485714Y-134870476D01*
X222533333Y-134775238D01*
X222628571Y-134680000D01*
X222771428Y-134632380D01*
X222866666Y-134632380D01*
X223009523Y-134680000D01*
X223057142Y-134727619D01*
X223914285Y-134965714D02*
X223914285Y-135632380D01*
X223676190Y-134584761D02*
X223438095Y-135299047D01*
X224057142Y-135299047D01*
X224866666Y-134965714D02*
X224866666Y-135632380D01*
X224628571Y-134584761D02*
X224390476Y-135299047D01*
X225009523Y-135299047D01*
X181838095Y-117947380D02*
X181838095Y-118756904D01*
X181885714Y-118852142D01*
X181933333Y-118899761D01*
X182028571Y-118947380D01*
X182219047Y-118947380D01*
X182314285Y-118899761D01*
X182361904Y-118852142D01*
X182409523Y-118756904D01*
X182409523Y-117947380D01*
X182933333Y-118947380D02*
X183123809Y-118947380D01*
X183219047Y-118899761D01*
X183266666Y-118852142D01*
X183361904Y-118709285D01*
X183409523Y-118518809D01*
X183409523Y-118137857D01*
X183361904Y-118042619D01*
X183314285Y-117995000D01*
X183219047Y-117947380D01*
X183028571Y-117947380D01*
X182933333Y-117995000D01*
X182885714Y-118042619D01*
X182838095Y-118137857D01*
X182838095Y-118375952D01*
X182885714Y-118471190D01*
X182933333Y-118518809D01*
X183028571Y-118566428D01*
X183219047Y-118566428D01*
X183314285Y-118518809D01*
X183361904Y-118471190D01*
X183409523Y-118375952D01*
X176222380Y-122742857D02*
X175746190Y-123076190D01*
X176222380Y-123314285D02*
X175222380Y-123314285D01*
X175222380Y-122933333D01*
X175270000Y-122838095D01*
X175317619Y-122790476D01*
X175412857Y-122742857D01*
X175555714Y-122742857D01*
X175650952Y-122790476D01*
X175698571Y-122838095D01*
X175746190Y-122933333D01*
X175746190Y-123314285D01*
X175222380Y-122409523D02*
X175222380Y-121790476D01*
X175603333Y-122123809D01*
X175603333Y-121980952D01*
X175650952Y-121885714D01*
X175698571Y-121838095D01*
X175793809Y-121790476D01*
X176031904Y-121790476D01*
X176127142Y-121838095D01*
X176174761Y-121885714D01*
X176222380Y-121980952D01*
X176222380Y-122266666D01*
X176174761Y-122361904D01*
X176127142Y-122409523D01*
X175222380Y-120885714D02*
X175222380Y-121361904D01*
X175698571Y-121409523D01*
X175650952Y-121361904D01*
X175603333Y-121266666D01*
X175603333Y-121028571D01*
X175650952Y-120933333D01*
X175698571Y-120885714D01*
X175793809Y-120838095D01*
X176031904Y-120838095D01*
X176127142Y-120885714D01*
X176174761Y-120933333D01*
X176222380Y-121028571D01*
X176222380Y-121266666D01*
X176174761Y-121361904D01*
X176127142Y-121409523D01*
X217957142Y-83227142D02*
X217909523Y-83274761D01*
X217766666Y-83322380D01*
X217671428Y-83322380D01*
X217528571Y-83274761D01*
X217433333Y-83179523D01*
X217385714Y-83084285D01*
X217338095Y-82893809D01*
X217338095Y-82750952D01*
X217385714Y-82560476D01*
X217433333Y-82465238D01*
X217528571Y-82370000D01*
X217671428Y-82322380D01*
X217766666Y-82322380D01*
X217909523Y-82370000D01*
X217957142Y-82417619D01*
X218861904Y-82322380D02*
X218385714Y-82322380D01*
X218338095Y-82798571D01*
X218385714Y-82750952D01*
X218480952Y-82703333D01*
X218719047Y-82703333D01*
X218814285Y-82750952D01*
X218861904Y-82798571D01*
X218909523Y-82893809D01*
X218909523Y-83131904D01*
X218861904Y-83227142D01*
X218814285Y-83274761D01*
X218719047Y-83322380D01*
X218480952Y-83322380D01*
X218385714Y-83274761D01*
X218338095Y-83227142D01*
X219528571Y-82322380D02*
X219623809Y-82322380D01*
X219719047Y-82370000D01*
X219766666Y-82417619D01*
X219814285Y-82512857D01*
X219861904Y-82703333D01*
X219861904Y-82941428D01*
X219814285Y-83131904D01*
X219766666Y-83227142D01*
X219719047Y-83274761D01*
X219623809Y-83322380D01*
X219528571Y-83322380D01*
X219433333Y-83274761D01*
X219385714Y-83227142D01*
X219338095Y-83131904D01*
X219290476Y-82941428D01*
X219290476Y-82703333D01*
X219338095Y-82512857D01*
X219385714Y-82417619D01*
X219433333Y-82370000D01*
X219528571Y-82322380D01*
X123352380Y-118738095D02*
X122352380Y-118738095D01*
X122352380Y-118500000D01*
X122400000Y-118357142D01*
X122495238Y-118261904D01*
X122590476Y-118214285D01*
X122780952Y-118166666D01*
X122923809Y-118166666D01*
X123114285Y-118214285D01*
X123209523Y-118261904D01*
X123304761Y-118357142D01*
X123352380Y-118500000D01*
X123352380Y-118738095D01*
X122352380Y-117309523D02*
X122352380Y-117500000D01*
X122400000Y-117595238D01*
X122447619Y-117642857D01*
X122590476Y-117738095D01*
X122780952Y-117785714D01*
X123161904Y-117785714D01*
X123257142Y-117738095D01*
X123304761Y-117690476D01*
X123352380Y-117595238D01*
X123352380Y-117404761D01*
X123304761Y-117309523D01*
X123257142Y-117261904D01*
X123161904Y-117214285D01*
X122923809Y-117214285D01*
X122828571Y-117261904D01*
X122780952Y-117309523D01*
X122733333Y-117404761D01*
X122733333Y-117595238D01*
X122780952Y-117690476D01*
X122828571Y-117738095D01*
X122923809Y-117785714D01*
X176222380Y-119442857D02*
X175746190Y-119776190D01*
X176222380Y-120014285D02*
X175222380Y-120014285D01*
X175222380Y-119633333D01*
X175270000Y-119538095D01*
X175317619Y-119490476D01*
X175412857Y-119442857D01*
X175555714Y-119442857D01*
X175650952Y-119490476D01*
X175698571Y-119538095D01*
X175746190Y-119633333D01*
X175746190Y-120014285D01*
X175222380Y-119109523D02*
X175222380Y-118490476D01*
X175603333Y-118823809D01*
X175603333Y-118680952D01*
X175650952Y-118585714D01*
X175698571Y-118538095D01*
X175793809Y-118490476D01*
X176031904Y-118490476D01*
X176127142Y-118538095D01*
X176174761Y-118585714D01*
X176222380Y-118680952D01*
X176222380Y-118966666D01*
X176174761Y-119061904D01*
X176127142Y-119109523D01*
X175555714Y-117633333D02*
X176222380Y-117633333D01*
X175174761Y-117871428D02*
X175889047Y-118109523D01*
X175889047Y-117490476D01*
X200357142Y-79942857D02*
X200404761Y-79990476D01*
X200452380Y-80133333D01*
X200452380Y-80228571D01*
X200404761Y-80371428D01*
X200309523Y-80466666D01*
X200214285Y-80514285D01*
X200023809Y-80561904D01*
X199880952Y-80561904D01*
X199690476Y-80514285D01*
X199595238Y-80466666D01*
X199500000Y-80371428D01*
X199452380Y-80228571D01*
X199452380Y-80133333D01*
X199500000Y-79990476D01*
X199547619Y-79942857D01*
X199452380Y-79038095D02*
X199452380Y-79514285D01*
X199928571Y-79561904D01*
X199880952Y-79514285D01*
X199833333Y-79419047D01*
X199833333Y-79180952D01*
X199880952Y-79085714D01*
X199928571Y-79038095D01*
X200023809Y-78990476D01*
X200261904Y-78990476D01*
X200357142Y-79038095D01*
X200404761Y-79085714D01*
X200452380Y-79180952D01*
X200452380Y-79419047D01*
X200404761Y-79514285D01*
X200357142Y-79561904D01*
X200452380Y-78038095D02*
X200452380Y-78609523D01*
X200452380Y-78323809D02*
X199452380Y-78323809D01*
X199595238Y-78419047D01*
X199690476Y-78514285D01*
X199738095Y-78609523D01*
X200352380Y-89642857D02*
X199876190Y-89976190D01*
X200352380Y-90214285D02*
X199352380Y-90214285D01*
X199352380Y-89833333D01*
X199400000Y-89738095D01*
X199447619Y-89690476D01*
X199542857Y-89642857D01*
X199685714Y-89642857D01*
X199780952Y-89690476D01*
X199828571Y-89738095D01*
X199876190Y-89833333D01*
X199876190Y-90214285D01*
X199447619Y-89261904D02*
X199400000Y-89214285D01*
X199352380Y-89119047D01*
X199352380Y-88880952D01*
X199400000Y-88785714D01*
X199447619Y-88738095D01*
X199542857Y-88690476D01*
X199638095Y-88690476D01*
X199780952Y-88738095D01*
X200352380Y-89309523D01*
X200352380Y-88690476D01*
X199447619Y-88309523D02*
X199400000Y-88261904D01*
X199352380Y-88166666D01*
X199352380Y-87928571D01*
X199400000Y-87833333D01*
X199447619Y-87785714D01*
X199542857Y-87738095D01*
X199638095Y-87738095D01*
X199780952Y-87785714D01*
X200352380Y-88357142D01*
X200352380Y-87738095D01*
D14*
X84660000Y-136671000D02*
X84660000Y-135395000D01*
X84660000Y-130890000D02*
X84660000Y-130089000D01*
X84660000Y-75010000D02*
X84660000Y-74209000D01*
X84660000Y-125810000D02*
X84660000Y-125009000D01*
X80100000Y-142190000D02*
X85660000Y-142190000D01*
X84660000Y-87710000D02*
X84660000Y-86909000D01*
X80100000Y-47670000D02*
X85660000Y-47670000D01*
X84660000Y-113110000D02*
X84660000Y-112309000D01*
X84660000Y-69930000D02*
X84660000Y-69129000D01*
X85660000Y-53190000D02*
X84660000Y-53190000D01*
X84660000Y-59770000D02*
X84660000Y-58969000D01*
X84660000Y-118190000D02*
X84660000Y-117389000D01*
X85400000Y-135395000D02*
X85100000Y-135995000D01*
X85660000Y-136670000D02*
X84660000Y-136670000D01*
X84660000Y-95330000D02*
X84660000Y-94529000D01*
X84660000Y-92790000D02*
X84660000Y-91989000D01*
X84660000Y-115650000D02*
X84660000Y-114849000D01*
X84660000Y-120730000D02*
X84660000Y-119929000D01*
X84660000Y-110570000D02*
X84660000Y-109769000D01*
X84660000Y-54690000D02*
X84660000Y-53190000D01*
X84660000Y-67390000D02*
X84660000Y-66589000D01*
X84660000Y-77550000D02*
X84660000Y-76749000D01*
X84660000Y-133205000D02*
X84660000Y-132629000D01*
X84660000Y-128350000D02*
X84660000Y-127549000D01*
X84660000Y-97870000D02*
X84660000Y-97069000D01*
X85700000Y-135995000D02*
X85400000Y-135395000D01*
X84660000Y-80090000D02*
X84660000Y-79289000D01*
X84660000Y-82630000D02*
X84660000Y-81829000D01*
X85660000Y-142190000D02*
X85660000Y-136670000D01*
X85660000Y-47670000D02*
X85660000Y-53190000D01*
X85100000Y-135995000D02*
X85700000Y-135995000D01*
X84660000Y-105490000D02*
X84660000Y-104689000D01*
X84660000Y-100410000D02*
X84660000Y-99609000D01*
X84660000Y-85170000D02*
X84660000Y-84369000D01*
X84660000Y-72470000D02*
X84660000Y-71669000D01*
X84660000Y-64850000D02*
X84660000Y-64049000D01*
X84660000Y-102950000D02*
X84660000Y-102149000D01*
X84660000Y-62310000D02*
X84660000Y-61509000D01*
X84660000Y-123270000D02*
X84660000Y-122469000D01*
X84660000Y-108030000D02*
X84660000Y-107229000D01*
X84660000Y-57230000D02*
X84660000Y-56429000D01*
X84660000Y-90250000D02*
X84660000Y-89449000D01*
X101140000Y-117397936D02*
X101140000Y-118602064D01*
X103860000Y-117397936D02*
X103860000Y-118602064D01*
X104360000Y-130397936D02*
X104360000Y-131602064D01*
X101640000Y-130397936D02*
X101640000Y-131602064D01*
X107090000Y-122897936D02*
X107090000Y-124102064D01*
X108910000Y-122897936D02*
X108910000Y-124102064D01*
X107090000Y-135897936D02*
X107090000Y-137102064D01*
X108910000Y-135897936D02*
X108910000Y-137102064D01*
X163537221Y-106290000D02*
X163862779Y-106290000D01*
X163537221Y-107310000D02*
X163862779Y-107310000D01*
X112940000Y-87497936D02*
X112940000Y-88702064D01*
X115660000Y-87497936D02*
X115660000Y-88702064D01*
X116160000Y-117397936D02*
X116160000Y-118602064D01*
X113440000Y-117397936D02*
X113440000Y-118602064D01*
X113140000Y-130397936D02*
X113140000Y-131602064D01*
X115860000Y-130397936D02*
X115860000Y-131602064D01*
X148062779Y-111810000D02*
X147737221Y-111810000D01*
X148062779Y-110790000D02*
X147737221Y-110790000D01*
X167162779Y-111810000D02*
X166837221Y-111810000D01*
X167162779Y-110790000D02*
X166837221Y-110790000D01*
X170910000Y-106397936D02*
X170910000Y-107602064D01*
X169090000Y-106397936D02*
X169090000Y-107602064D01*
X225310000Y-116258578D02*
X225310000Y-115741422D01*
X223890000Y-116258578D02*
X223890000Y-115741422D01*
X179590000Y-106602064D02*
X179590000Y-105397936D01*
X181410000Y-106602064D02*
X181410000Y-105397936D01*
X182980000Y-104120000D02*
X186220000Y-104120000D01*
X182980000Y-96680000D02*
X186220000Y-96680000D01*
X182980000Y-104120000D02*
X182980000Y-96680000D01*
X186220000Y-104120000D02*
X186220000Y-96680000D01*
X178558578Y-111190000D02*
X178041422Y-111190000D01*
X178558578Y-112610000D02*
X178041422Y-112610000D01*
X191710000Y-106602064D02*
X191710000Y-105397936D01*
X189890000Y-106602064D02*
X189890000Y-105397936D01*
X186358578Y-112610000D02*
X185841422Y-112610000D01*
X186358578Y-111190000D02*
X185841422Y-111190000D01*
X193337221Y-110010000D02*
X193662779Y-110010000D01*
X193337221Y-108990000D02*
X193662779Y-108990000D01*
X202762779Y-103610000D02*
X202437221Y-103610000D01*
X202762779Y-102590000D02*
X202437221Y-102590000D01*
X183310000Y-115358578D02*
X183310000Y-114841422D01*
X181890000Y-115358578D02*
X181890000Y-114841422D01*
X221910000Y-116037221D02*
X221910000Y-116362779D01*
X220890000Y-116037221D02*
X220890000Y-116362779D01*
X224837221Y-127610000D02*
X225162779Y-127610000D01*
X224837221Y-126590000D02*
X225162779Y-126590000D01*
X188710000Y-120337221D02*
X188710000Y-120662779D01*
X187690000Y-120337221D02*
X187690000Y-120662779D01*
X188540000Y-138600000D02*
X190050000Y-138600000D01*
X188540000Y-137879000D02*
X189829000Y-137879000D01*
X184964000Y-138520000D02*
X186460000Y-138520000D01*
X188540000Y-137519000D02*
X189622000Y-137519000D01*
X188540000Y-138920000D02*
X190079000Y-138920000D01*
X184939000Y-138680000D02*
X186460000Y-138680000D01*
X185847000Y-136999000D02*
X186460000Y-136999000D01*
X184921000Y-138920000D02*
X186460000Y-138920000D01*
X184927000Y-138800000D02*
X186460000Y-138800000D01*
X188540000Y-138079000D02*
X189914000Y-138079000D01*
X188540000Y-138560000D02*
X190043000Y-138560000D01*
X185563000Y-137279000D02*
X186460000Y-137279000D01*
X185058000Y-138159000D02*
X186460000Y-138159000D01*
X188540000Y-137799000D02*
X189790000Y-137799000D01*
X188540000Y-138680000D02*
X190061000Y-138680000D01*
X184972000Y-138480000D02*
X186460000Y-138480000D01*
X185435000Y-137439000D02*
X186460000Y-137439000D01*
X188540000Y-139000000D02*
X190080000Y-139000000D01*
X188540000Y-137759000D02*
X189768000Y-137759000D01*
X185072000Y-138119000D02*
X186460000Y-138119000D01*
X188540000Y-137159000D02*
X189326000Y-137159000D01*
X188540000Y-137639000D02*
X189700000Y-137639000D01*
X186489000Y-136599000D02*
X188511000Y-136599000D01*
X184924000Y-138840000D02*
X186460000Y-138840000D01*
X185405000Y-137479000D02*
X186460000Y-137479000D01*
X188540000Y-138320000D02*
X189991000Y-138320000D01*
X185775000Y-141554775D02*
X186275000Y-141554775D01*
X184931000Y-138760000D02*
X186460000Y-138760000D01*
X185715000Y-137119000D02*
X186460000Y-137119000D01*
X188540000Y-137719000D02*
X189747000Y-137719000D01*
X185895000Y-136959000D02*
X189105000Y-136959000D01*
X185276000Y-137679000D02*
X186460000Y-137679000D01*
X188540000Y-138480000D02*
X190028000Y-138480000D01*
X188540000Y-137399000D02*
X189535000Y-137399000D01*
X186402000Y-136639000D02*
X188598000Y-136639000D01*
X185102000Y-138039000D02*
X186460000Y-138039000D01*
X186585000Y-136559000D02*
X188415000Y-136559000D01*
X188540000Y-138400000D02*
X190011000Y-138400000D01*
X185351000Y-137559000D02*
X186460000Y-137559000D01*
X185135000Y-137959000D02*
X186460000Y-137959000D01*
X185325000Y-137599000D02*
X186460000Y-137599000D01*
X188540000Y-137319000D02*
X189471000Y-137319000D01*
X184950000Y-138600000D02*
X186460000Y-138600000D01*
X186982000Y-136439000D02*
X188018000Y-136439000D01*
X188540000Y-137999000D02*
X189882000Y-137999000D01*
X188540000Y-138960000D02*
X190080000Y-138960000D01*
X184989000Y-138400000D02*
X186460000Y-138400000D01*
X188540000Y-138800000D02*
X190073000Y-138800000D01*
X188540000Y-138720000D02*
X190065000Y-138720000D01*
X188540000Y-138360000D02*
X190001000Y-138360000D01*
X185496000Y-137359000D02*
X186460000Y-137359000D01*
X186057000Y-136839000D02*
X188943000Y-136839000D01*
X185190000Y-137839000D02*
X186460000Y-137839000D01*
X185465000Y-137399000D02*
X186460000Y-137399000D01*
X188540000Y-138640000D02*
X190056000Y-138640000D01*
X188540000Y-138199000D02*
X189955000Y-138199000D01*
X185152000Y-137919000D02*
X186460000Y-137919000D01*
X184920000Y-138960000D02*
X186460000Y-138960000D01*
X185171000Y-137879000D02*
X186460000Y-137879000D01*
X188540000Y-138119000D02*
X189928000Y-138119000D01*
X185210000Y-137799000D02*
X186460000Y-137799000D01*
X186322000Y-136679000D02*
X188678000Y-136679000D01*
X185599000Y-137239000D02*
X186460000Y-137239000D01*
X184944000Y-138640000D02*
X186460000Y-138640000D01*
X188540000Y-138039000D02*
X189898000Y-138039000D01*
X186249000Y-136719000D02*
X188751000Y-136719000D01*
X186695000Y-136519000D02*
X188305000Y-136519000D01*
X185009000Y-138320000D02*
X186460000Y-138320000D01*
X186181000Y-136759000D02*
X188819000Y-136759000D01*
X188540000Y-138520000D02*
X190036000Y-138520000D01*
X188540000Y-138239000D02*
X189968000Y-138239000D01*
X185253000Y-137719000D02*
X186460000Y-137719000D01*
X185529000Y-137319000D02*
X186460000Y-137319000D01*
X184999000Y-138360000D02*
X186460000Y-138360000D01*
X186025000Y-141804775D02*
X186025000Y-141304775D01*
X185086000Y-138079000D02*
X186460000Y-138079000D01*
X184922000Y-138880000D02*
X186460000Y-138880000D01*
X188540000Y-136999000D02*
X189153000Y-136999000D01*
X185045000Y-138199000D02*
X186460000Y-138199000D01*
X184957000Y-138560000D02*
X186460000Y-138560000D01*
X185032000Y-138239000D02*
X186460000Y-138239000D01*
X186000000Y-136879000D02*
X189000000Y-136879000D01*
X188540000Y-138880000D02*
X190078000Y-138880000D01*
X188540000Y-138159000D02*
X189942000Y-138159000D01*
X185118000Y-137999000D02*
X186460000Y-137999000D01*
X188540000Y-137559000D02*
X189649000Y-137559000D01*
X188540000Y-137039000D02*
X189199000Y-137039000D01*
X188540000Y-138440000D02*
X190020000Y-138440000D01*
X185300000Y-137639000D02*
X186460000Y-137639000D01*
X188540000Y-137359000D02*
X189504000Y-137359000D01*
X184920000Y-139000000D02*
X186460000Y-139000000D01*
X186823000Y-136479000D02*
X188177000Y-136479000D01*
X185378000Y-137519000D02*
X186460000Y-137519000D01*
X188540000Y-137479000D02*
X189595000Y-137479000D01*
X188540000Y-137199000D02*
X189364000Y-137199000D01*
X185946000Y-136919000D02*
X189054000Y-136919000D01*
X185020000Y-138279000D02*
X186460000Y-138279000D01*
X188540000Y-138760000D02*
X190069000Y-138760000D01*
X188540000Y-138279000D02*
X189980000Y-138279000D01*
X185757000Y-137079000D02*
X186460000Y-137079000D01*
X185636000Y-137199000D02*
X186460000Y-137199000D01*
X184980000Y-138440000D02*
X186460000Y-138440000D01*
X187216000Y-136399000D02*
X187784000Y-136399000D01*
X184935000Y-138720000D02*
X186460000Y-138720000D01*
X186117000Y-136799000D02*
X188883000Y-136799000D01*
X188540000Y-137599000D02*
X189675000Y-137599000D01*
X188540000Y-137279000D02*
X189437000Y-137279000D01*
X185801000Y-137039000D02*
X186460000Y-137039000D01*
X188540000Y-137119000D02*
X189285000Y-137119000D01*
X188540000Y-137439000D02*
X189565000Y-137439000D01*
X188540000Y-137959000D02*
X189865000Y-137959000D01*
X188540000Y-137839000D02*
X189810000Y-137839000D01*
X188540000Y-137919000D02*
X189848000Y-137919000D01*
X188540000Y-138840000D02*
X190076000Y-138840000D01*
X188540000Y-137679000D02*
X189724000Y-137679000D01*
X188540000Y-137079000D02*
X189243000Y-137079000D01*
X185232000Y-137759000D02*
X186460000Y-137759000D01*
X185674000Y-137159000D02*
X186460000Y-137159000D01*
X188540000Y-137239000D02*
X189401000Y-137239000D01*
X190120000Y-139000000D02*
G75*
G03*
X190120000Y-139000000I-2620000J0D01*
G01*
X180037221Y-135790000D02*
X180362779Y-135790000D01*
X180037221Y-136810000D02*
X180362779Y-136810000D01*
X168340000Y-138600000D02*
X169850000Y-138600000D01*
X165800000Y-136879000D02*
X168800000Y-136879000D01*
X166623000Y-136479000D02*
X167977000Y-136479000D01*
X164721000Y-138920000D02*
X166260000Y-138920000D01*
X164971000Y-137879000D02*
X166260000Y-137879000D01*
X164750000Y-138600000D02*
X166260000Y-138600000D01*
X164858000Y-138159000D02*
X166260000Y-138159000D01*
X164902000Y-138039000D02*
X166260000Y-138039000D01*
X164764000Y-138520000D02*
X166260000Y-138520000D01*
X164872000Y-138119000D02*
X166260000Y-138119000D01*
X168340000Y-138159000D02*
X169742000Y-138159000D01*
X168340000Y-138480000D02*
X169828000Y-138480000D01*
X168340000Y-137559000D02*
X169449000Y-137559000D01*
X166782000Y-136439000D02*
X167818000Y-136439000D01*
X164820000Y-138279000D02*
X166260000Y-138279000D01*
X165575000Y-141554775D02*
X166075000Y-141554775D01*
X168340000Y-137999000D02*
X169682000Y-137999000D01*
X168340000Y-137239000D02*
X169201000Y-137239000D01*
X165265000Y-137399000D02*
X166260000Y-137399000D01*
X165363000Y-137279000D02*
X166260000Y-137279000D01*
X165917000Y-136799000D02*
X168683000Y-136799000D01*
X165557000Y-137079000D02*
X166260000Y-137079000D01*
X168340000Y-137519000D02*
X169422000Y-137519000D01*
X168340000Y-138320000D02*
X169791000Y-138320000D01*
X168340000Y-138400000D02*
X169811000Y-138400000D01*
X168340000Y-137599000D02*
X169475000Y-137599000D01*
X168340000Y-137399000D02*
X169335000Y-137399000D01*
X168340000Y-137879000D02*
X169629000Y-137879000D01*
X164799000Y-138360000D02*
X166260000Y-138360000D01*
X168340000Y-138119000D02*
X169728000Y-138119000D01*
X168340000Y-138199000D02*
X169755000Y-138199000D01*
X168340000Y-137319000D02*
X169271000Y-137319000D01*
X168340000Y-137199000D02*
X169164000Y-137199000D01*
X165436000Y-137199000D02*
X166260000Y-137199000D01*
X165515000Y-137119000D02*
X166260000Y-137119000D01*
X165329000Y-137319000D02*
X166260000Y-137319000D01*
X168340000Y-138760000D02*
X169869000Y-138760000D01*
X168340000Y-136999000D02*
X168953000Y-136999000D01*
X165178000Y-137519000D02*
X166260000Y-137519000D01*
X165296000Y-137359000D02*
X166260000Y-137359000D01*
X168340000Y-137679000D02*
X169524000Y-137679000D01*
X168340000Y-137799000D02*
X169590000Y-137799000D01*
X168340000Y-138360000D02*
X169801000Y-138360000D01*
X164935000Y-137959000D02*
X166260000Y-137959000D01*
X168340000Y-138640000D02*
X169856000Y-138640000D01*
X166049000Y-136719000D02*
X168551000Y-136719000D01*
X164918000Y-137999000D02*
X166260000Y-137999000D01*
X168340000Y-138880000D02*
X169878000Y-138880000D01*
X168340000Y-137759000D02*
X169568000Y-137759000D01*
X165695000Y-136959000D02*
X168905000Y-136959000D01*
X168340000Y-138560000D02*
X169843000Y-138560000D01*
X168340000Y-138079000D02*
X169714000Y-138079000D01*
X168340000Y-138279000D02*
X169780000Y-138279000D01*
X165399000Y-137239000D02*
X166260000Y-137239000D01*
X164757000Y-138560000D02*
X166260000Y-138560000D01*
X164727000Y-138800000D02*
X166260000Y-138800000D01*
X164724000Y-138840000D02*
X166260000Y-138840000D01*
X164739000Y-138680000D02*
X166260000Y-138680000D01*
X168340000Y-138960000D02*
X169880000Y-138960000D01*
X166385000Y-136559000D02*
X168215000Y-136559000D01*
X168340000Y-137159000D02*
X169126000Y-137159000D01*
X165076000Y-137679000D02*
X166260000Y-137679000D01*
X168340000Y-138720000D02*
X169865000Y-138720000D01*
X168340000Y-137079000D02*
X169043000Y-137079000D01*
X168340000Y-137719000D02*
X169547000Y-137719000D01*
X165100000Y-137639000D02*
X166260000Y-137639000D01*
X168340000Y-138520000D02*
X169836000Y-138520000D01*
X164952000Y-137919000D02*
X166260000Y-137919000D01*
X165205000Y-137479000D02*
X166260000Y-137479000D01*
X164722000Y-138880000D02*
X166260000Y-138880000D01*
X166202000Y-136639000D02*
X168398000Y-136639000D01*
X168340000Y-137039000D02*
X168999000Y-137039000D01*
X168340000Y-138440000D02*
X169820000Y-138440000D01*
X166495000Y-136519000D02*
X168105000Y-136519000D01*
X165825000Y-141804775D02*
X165825000Y-141304775D01*
X165981000Y-136759000D02*
X168619000Y-136759000D01*
X165746000Y-136919000D02*
X168854000Y-136919000D01*
X165032000Y-137759000D02*
X166260000Y-137759000D01*
X164845000Y-138199000D02*
X166260000Y-138199000D01*
X168340000Y-138039000D02*
X169698000Y-138039000D01*
X168340000Y-137359000D02*
X169304000Y-137359000D01*
X168340000Y-137279000D02*
X169237000Y-137279000D01*
X164780000Y-138440000D02*
X166260000Y-138440000D01*
X168340000Y-137839000D02*
X169610000Y-137839000D01*
X168340000Y-138680000D02*
X169861000Y-138680000D01*
X168340000Y-138800000D02*
X169873000Y-138800000D01*
X166122000Y-136679000D02*
X168478000Y-136679000D01*
X164990000Y-137839000D02*
X166260000Y-137839000D01*
X168340000Y-137479000D02*
X169395000Y-137479000D01*
X168340000Y-137119000D02*
X169085000Y-137119000D01*
X165053000Y-137719000D02*
X166260000Y-137719000D01*
X167016000Y-136399000D02*
X167584000Y-136399000D01*
X165601000Y-137039000D02*
X166260000Y-137039000D01*
X168340000Y-137439000D02*
X169365000Y-137439000D01*
X164772000Y-138480000D02*
X166260000Y-138480000D01*
X165010000Y-137799000D02*
X166260000Y-137799000D01*
X165151000Y-137559000D02*
X166260000Y-137559000D01*
X165474000Y-137159000D02*
X166260000Y-137159000D01*
X164735000Y-138720000D02*
X166260000Y-138720000D01*
X164731000Y-138760000D02*
X166260000Y-138760000D01*
X168340000Y-138920000D02*
X169879000Y-138920000D01*
X164744000Y-138640000D02*
X166260000Y-138640000D01*
X164886000Y-138079000D02*
X166260000Y-138079000D01*
X168340000Y-137919000D02*
X169648000Y-137919000D01*
X168340000Y-139000000D02*
X169880000Y-139000000D01*
X166289000Y-136599000D02*
X168311000Y-136599000D01*
X168340000Y-137639000D02*
X169500000Y-137639000D01*
X165647000Y-136999000D02*
X166260000Y-136999000D01*
X164720000Y-139000000D02*
X166260000Y-139000000D01*
X165857000Y-136839000D02*
X168743000Y-136839000D01*
X164720000Y-138960000D02*
X166260000Y-138960000D01*
X164809000Y-138320000D02*
X166260000Y-138320000D01*
X164832000Y-138239000D02*
X166260000Y-138239000D01*
X168340000Y-138840000D02*
X169876000Y-138840000D01*
X168340000Y-138239000D02*
X169768000Y-138239000D01*
X165235000Y-137439000D02*
X166260000Y-137439000D01*
X168340000Y-137959000D02*
X169665000Y-137959000D01*
X164789000Y-138400000D02*
X166260000Y-138400000D01*
X165125000Y-137599000D02*
X166260000Y-137599000D01*
X169920000Y-139000000D02*
G75*
G03*
X169920000Y-139000000I-2620000J0D01*
G01*
X175137221Y-136810000D02*
X175462779Y-136810000D01*
X175137221Y-135790000D02*
X175462779Y-135790000D01*
X145599000Y-137239000D02*
X146460000Y-137239000D01*
X148540000Y-137559000D02*
X149649000Y-137559000D01*
X146322000Y-136679000D02*
X148678000Y-136679000D01*
X148540000Y-137759000D02*
X149768000Y-137759000D01*
X146057000Y-136839000D02*
X148943000Y-136839000D01*
X148540000Y-138079000D02*
X149914000Y-138079000D01*
X148540000Y-138760000D02*
X150069000Y-138760000D01*
X145465000Y-137399000D02*
X146460000Y-137399000D01*
X145636000Y-137199000D02*
X146460000Y-137199000D01*
X148540000Y-137919000D02*
X149848000Y-137919000D01*
X145210000Y-137799000D02*
X146460000Y-137799000D01*
X145801000Y-137039000D02*
X146460000Y-137039000D01*
X148540000Y-137039000D02*
X149199000Y-137039000D01*
X148540000Y-137239000D02*
X149401000Y-137239000D01*
X145058000Y-138159000D02*
X146460000Y-138159000D01*
X146585000Y-136559000D02*
X148415000Y-136559000D01*
X145529000Y-137319000D02*
X146460000Y-137319000D01*
X145435000Y-137439000D02*
X146460000Y-137439000D01*
X144964000Y-138520000D02*
X146460000Y-138520000D01*
X144935000Y-138720000D02*
X146460000Y-138720000D01*
X145946000Y-136919000D02*
X149054000Y-136919000D01*
X145715000Y-137119000D02*
X146460000Y-137119000D01*
X145171000Y-137879000D02*
X146460000Y-137879000D01*
X148540000Y-138039000D02*
X149898000Y-138039000D01*
X144920000Y-139000000D02*
X146460000Y-139000000D01*
X145032000Y-138239000D02*
X146460000Y-138239000D01*
X148540000Y-138320000D02*
X149991000Y-138320000D01*
X144922000Y-138880000D02*
X146460000Y-138880000D01*
X145378000Y-137519000D02*
X146460000Y-137519000D01*
X144931000Y-138760000D02*
X146460000Y-138760000D01*
X148540000Y-138720000D02*
X150065000Y-138720000D01*
X148540000Y-137799000D02*
X149790000Y-137799000D01*
X144999000Y-138360000D02*
X146460000Y-138360000D01*
X148540000Y-137479000D02*
X149595000Y-137479000D01*
X148540000Y-138400000D02*
X150011000Y-138400000D01*
X148540000Y-137079000D02*
X149243000Y-137079000D01*
X148540000Y-138520000D02*
X150036000Y-138520000D01*
X148540000Y-137959000D02*
X149865000Y-137959000D01*
X148540000Y-137679000D02*
X149724000Y-137679000D01*
X144944000Y-138640000D02*
X146460000Y-138640000D01*
X145190000Y-137839000D02*
X146460000Y-137839000D01*
X148540000Y-136999000D02*
X149153000Y-136999000D01*
X148540000Y-137199000D02*
X149364000Y-137199000D01*
X144980000Y-138440000D02*
X146460000Y-138440000D01*
X146402000Y-136639000D02*
X148598000Y-136639000D01*
X148540000Y-138880000D02*
X150078000Y-138880000D01*
X144921000Y-138920000D02*
X146460000Y-138920000D01*
X148540000Y-138360000D02*
X150001000Y-138360000D01*
X148540000Y-138239000D02*
X149968000Y-138239000D01*
X145232000Y-137759000D02*
X146460000Y-137759000D01*
X145563000Y-137279000D02*
X146460000Y-137279000D01*
X148540000Y-138119000D02*
X149928000Y-138119000D01*
X148540000Y-138440000D02*
X150020000Y-138440000D01*
X145276000Y-137679000D02*
X146460000Y-137679000D01*
X145253000Y-137719000D02*
X146460000Y-137719000D01*
X148540000Y-137999000D02*
X149882000Y-137999000D01*
X148540000Y-138840000D02*
X150076000Y-138840000D01*
X144920000Y-138960000D02*
X146460000Y-138960000D01*
X148540000Y-138600000D02*
X150050000Y-138600000D01*
X146000000Y-136879000D02*
X149000000Y-136879000D01*
X145102000Y-138039000D02*
X146460000Y-138039000D01*
X148540000Y-137319000D02*
X149471000Y-137319000D01*
X148540000Y-138680000D02*
X150061000Y-138680000D01*
X145300000Y-137639000D02*
X146460000Y-137639000D01*
X144927000Y-138800000D02*
X146460000Y-138800000D01*
X144939000Y-138680000D02*
X146460000Y-138680000D01*
X148540000Y-137719000D02*
X149747000Y-137719000D01*
X148540000Y-137119000D02*
X149285000Y-137119000D01*
X148540000Y-138199000D02*
X149955000Y-138199000D01*
X145072000Y-138119000D02*
X146460000Y-138119000D01*
X145351000Y-137559000D02*
X146460000Y-137559000D01*
X148540000Y-138800000D02*
X150073000Y-138800000D01*
X145674000Y-137159000D02*
X146460000Y-137159000D01*
X148540000Y-137879000D02*
X149829000Y-137879000D01*
X146695000Y-136519000D02*
X148305000Y-136519000D01*
X145045000Y-138199000D02*
X146460000Y-138199000D01*
X144989000Y-138400000D02*
X146460000Y-138400000D01*
X148540000Y-138159000D02*
X149942000Y-138159000D01*
X145086000Y-138079000D02*
X146460000Y-138079000D01*
X148540000Y-138960000D02*
X150080000Y-138960000D01*
X148540000Y-137639000D02*
X149700000Y-137639000D01*
X146025000Y-141804775D02*
X146025000Y-141304775D01*
X145325000Y-137599000D02*
X146460000Y-137599000D01*
X146982000Y-136439000D02*
X148018000Y-136439000D01*
X145118000Y-137999000D02*
X146460000Y-137999000D01*
X144950000Y-138600000D02*
X146460000Y-138600000D01*
X148540000Y-137399000D02*
X149535000Y-137399000D01*
X146823000Y-136479000D02*
X148177000Y-136479000D01*
X148540000Y-138560000D02*
X150043000Y-138560000D01*
X145496000Y-137359000D02*
X146460000Y-137359000D01*
X146489000Y-136599000D02*
X148511000Y-136599000D01*
X148540000Y-137159000D02*
X149326000Y-137159000D01*
X148540000Y-138480000D02*
X150028000Y-138480000D01*
X148540000Y-138640000D02*
X150056000Y-138640000D01*
X146117000Y-136799000D02*
X148883000Y-136799000D01*
X145009000Y-138320000D02*
X146460000Y-138320000D01*
X148540000Y-138279000D02*
X149980000Y-138279000D01*
X144972000Y-138480000D02*
X146460000Y-138480000D01*
X148540000Y-137439000D02*
X149565000Y-137439000D01*
X145895000Y-136959000D02*
X149105000Y-136959000D01*
X145757000Y-137079000D02*
X146460000Y-137079000D01*
X144957000Y-138560000D02*
X146460000Y-138560000D01*
X148540000Y-137279000D02*
X149437000Y-137279000D01*
X145135000Y-137959000D02*
X146460000Y-137959000D01*
X145775000Y-141554775D02*
X146275000Y-141554775D01*
X148540000Y-138920000D02*
X150079000Y-138920000D01*
X148540000Y-137519000D02*
X149622000Y-137519000D01*
X147216000Y-136399000D02*
X147784000Y-136399000D01*
X148540000Y-139000000D02*
X150080000Y-139000000D01*
X146181000Y-136759000D02*
X148819000Y-136759000D01*
X145847000Y-136999000D02*
X146460000Y-136999000D01*
X148540000Y-137839000D02*
X149810000Y-137839000D01*
X148540000Y-137599000D02*
X149675000Y-137599000D01*
X145020000Y-138279000D02*
X146460000Y-138279000D01*
X148540000Y-137359000D02*
X149504000Y-137359000D01*
X144924000Y-138840000D02*
X146460000Y-138840000D01*
X146249000Y-136719000D02*
X148751000Y-136719000D01*
X145405000Y-137479000D02*
X146460000Y-137479000D01*
X145152000Y-137919000D02*
X146460000Y-137919000D01*
X150120000Y-139000000D02*
G75*
G03*
X150120000Y-139000000I-2620000J0D01*
G01*
X154937221Y-136810000D02*
X155262779Y-136810000D01*
X154937221Y-135790000D02*
X155262779Y-135790000D01*
X119549721Y-67610000D02*
X119875279Y-67610000D01*
X119549721Y-66590000D02*
X119875279Y-66590000D01*
X113223000Y-78479000D02*
X114577000Y-78479000D01*
X114940000Y-79359000D02*
X115904000Y-79359000D01*
X114940000Y-79679000D02*
X116124000Y-79679000D01*
X114940000Y-80360000D02*
X116401000Y-80360000D01*
X111963000Y-79279000D02*
X112860000Y-79279000D01*
X114940000Y-79239000D02*
X115801000Y-79239000D01*
X111805000Y-79479000D02*
X112860000Y-79479000D01*
X112115000Y-79119000D02*
X112860000Y-79119000D01*
X114940000Y-79279000D02*
X115837000Y-79279000D01*
X111409000Y-80320000D02*
X112860000Y-80320000D01*
X114940000Y-80960000D02*
X116480000Y-80960000D01*
X112985000Y-78559000D02*
X114815000Y-78559000D01*
X111725000Y-79599000D02*
X112860000Y-79599000D01*
X111778000Y-79519000D02*
X112860000Y-79519000D01*
X112201000Y-79039000D02*
X112860000Y-79039000D01*
X114940000Y-80199000D02*
X116355000Y-80199000D01*
X111653000Y-79719000D02*
X112860000Y-79719000D01*
X111610000Y-79799000D02*
X112860000Y-79799000D01*
X112175000Y-83554775D02*
X112675000Y-83554775D01*
X112802000Y-78639000D02*
X114998000Y-78639000D01*
X111571000Y-79879000D02*
X112860000Y-79879000D01*
X112649000Y-78719000D02*
X115151000Y-78719000D01*
X111518000Y-79999000D02*
X112860000Y-79999000D01*
X111751000Y-79559000D02*
X112860000Y-79559000D01*
X114940000Y-78999000D02*
X115553000Y-78999000D01*
X114940000Y-79479000D02*
X115995000Y-79479000D01*
X114940000Y-79319000D02*
X115871000Y-79319000D01*
X112157000Y-79079000D02*
X112860000Y-79079000D01*
X114940000Y-79079000D02*
X115643000Y-79079000D01*
X114940000Y-80760000D02*
X116469000Y-80760000D01*
X114940000Y-79879000D02*
X116229000Y-79879000D01*
X111535000Y-79959000D02*
X112860000Y-79959000D01*
X111327000Y-80800000D02*
X112860000Y-80800000D01*
X114940000Y-80800000D02*
X116473000Y-80800000D01*
X111324000Y-80840000D02*
X112860000Y-80840000D01*
X112425000Y-83804775D02*
X112425000Y-83304775D01*
X114940000Y-80720000D02*
X116465000Y-80720000D01*
X112722000Y-78679000D02*
X115078000Y-78679000D01*
X111999000Y-79239000D02*
X112860000Y-79239000D01*
X112074000Y-79159000D02*
X112860000Y-79159000D01*
X114940000Y-79039000D02*
X115599000Y-79039000D01*
X114940000Y-80039000D02*
X116298000Y-80039000D01*
X113616000Y-78399000D02*
X114184000Y-78399000D01*
X111929000Y-79319000D02*
X112860000Y-79319000D01*
X114940000Y-79959000D02*
X116265000Y-79959000D01*
X114940000Y-79559000D02*
X116049000Y-79559000D01*
X112036000Y-79199000D02*
X112860000Y-79199000D01*
X111472000Y-80119000D02*
X112860000Y-80119000D01*
X114940000Y-80279000D02*
X116380000Y-80279000D01*
X111320000Y-81000000D02*
X112860000Y-81000000D01*
X114940000Y-79159000D02*
X115726000Y-79159000D01*
X112457000Y-78839000D02*
X115343000Y-78839000D01*
X114940000Y-79919000D02*
X116248000Y-79919000D01*
X114940000Y-80440000D02*
X116420000Y-80440000D01*
X114940000Y-79439000D02*
X115965000Y-79439000D01*
X114940000Y-80079000D02*
X116314000Y-80079000D01*
X114940000Y-79799000D02*
X116190000Y-79799000D01*
X111322000Y-80880000D02*
X112860000Y-80880000D01*
X112517000Y-78799000D02*
X115283000Y-78799000D01*
X114940000Y-80920000D02*
X116479000Y-80920000D01*
X114940000Y-79999000D02*
X116282000Y-79999000D01*
X114940000Y-80239000D02*
X116368000Y-80239000D01*
X111331000Y-80760000D02*
X112860000Y-80760000D01*
X114940000Y-81000000D02*
X116480000Y-81000000D01*
X111339000Y-80680000D02*
X112860000Y-80680000D01*
X114940000Y-80560000D02*
X116443000Y-80560000D01*
X111502000Y-80039000D02*
X112860000Y-80039000D01*
X114940000Y-79519000D02*
X116022000Y-79519000D01*
X111350000Y-80600000D02*
X112860000Y-80600000D01*
X111372000Y-80480000D02*
X112860000Y-80480000D01*
X111445000Y-80199000D02*
X112860000Y-80199000D01*
X111458000Y-80159000D02*
X112860000Y-80159000D01*
X114940000Y-80159000D02*
X116342000Y-80159000D01*
X114940000Y-79399000D02*
X115935000Y-79399000D01*
X111676000Y-79679000D02*
X112860000Y-79679000D01*
X114940000Y-79719000D02*
X116147000Y-79719000D01*
X114940000Y-79639000D02*
X116100000Y-79639000D01*
X114940000Y-80680000D02*
X116461000Y-80680000D01*
X112581000Y-78759000D02*
X115219000Y-78759000D01*
X114940000Y-79599000D02*
X116075000Y-79599000D01*
X114940000Y-79759000D02*
X116168000Y-79759000D01*
X114940000Y-80600000D02*
X116450000Y-80600000D01*
X111380000Y-80440000D02*
X112860000Y-80440000D01*
X112400000Y-78879000D02*
X115400000Y-78879000D01*
X111552000Y-79919000D02*
X112860000Y-79919000D01*
X111321000Y-80920000D02*
X112860000Y-80920000D01*
X111344000Y-80640000D02*
X112860000Y-80640000D01*
X111364000Y-80520000D02*
X112860000Y-80520000D01*
X111865000Y-79399000D02*
X112860000Y-79399000D01*
X111335000Y-80720000D02*
X112860000Y-80720000D01*
X114940000Y-80480000D02*
X116428000Y-80480000D01*
X112346000Y-78919000D02*
X115454000Y-78919000D01*
X114940000Y-79199000D02*
X115764000Y-79199000D01*
X112889000Y-78599000D02*
X114911000Y-78599000D01*
X114940000Y-79119000D02*
X115685000Y-79119000D01*
X113095000Y-78519000D02*
X114705000Y-78519000D01*
X111700000Y-79639000D02*
X112860000Y-79639000D01*
X111486000Y-80079000D02*
X112860000Y-80079000D01*
X111896000Y-79359000D02*
X112860000Y-79359000D01*
X111432000Y-80239000D02*
X112860000Y-80239000D01*
X111590000Y-79839000D02*
X112860000Y-79839000D01*
X114940000Y-80520000D02*
X116436000Y-80520000D01*
X111320000Y-80960000D02*
X112860000Y-80960000D01*
X113382000Y-78439000D02*
X114418000Y-78439000D01*
X114940000Y-80880000D02*
X116478000Y-80880000D01*
X111357000Y-80560000D02*
X112860000Y-80560000D01*
X111632000Y-79759000D02*
X112860000Y-79759000D01*
X114940000Y-80320000D02*
X116391000Y-80320000D01*
X114940000Y-80119000D02*
X116328000Y-80119000D01*
X111389000Y-80400000D02*
X112860000Y-80400000D01*
X114940000Y-79839000D02*
X116210000Y-79839000D01*
X114940000Y-80400000D02*
X116411000Y-80400000D01*
X111420000Y-80279000D02*
X112860000Y-80279000D01*
X112295000Y-78959000D02*
X115505000Y-78959000D01*
X114940000Y-80840000D02*
X116476000Y-80840000D01*
X114940000Y-80640000D02*
X116456000Y-80640000D01*
X111835000Y-79439000D02*
X112860000Y-79439000D01*
X111399000Y-80360000D02*
X112860000Y-80360000D01*
X112247000Y-78999000D02*
X112860000Y-78999000D01*
X116520000Y-81000000D02*
G75*
G03*
X116520000Y-81000000I-2620000J0D01*
G01*
X120237221Y-79590000D02*
X120562779Y-79590000D01*
X120237221Y-80610000D02*
X120562779Y-80610000D01*
X234601000Y-117790000D02*
X234920000Y-117790000D01*
X237080000Y-117790000D02*
X237399000Y-117790000D01*
X237398749Y-117790000D02*
G75*
G03*
X237080724Y-113486758I-1398748J2060000D01*
G01*
X237080000Y-117413330D02*
G75*
G03*
X237080961Y-114047287I-1080000J1683330D01*
G01*
X234919276Y-113486758D02*
G75*
G03*
X234601251Y-117790000I1080723J-2243242D01*
G01*
X234919039Y-114047287D02*
G75*
G03*
X234920000Y-117413330I1080961J-1682713D01*
G01*
X213440000Y-127320000D02*
X214900000Y-127320000D01*
X213440000Y-127320000D02*
X213440000Y-128250000D01*
X213440000Y-130480000D02*
X213440000Y-129550000D01*
X213440000Y-130480000D02*
X215600000Y-130480000D01*
X137750000Y-115450000D02*
X146050000Y-115450000D01*
X146050000Y-107150000D02*
X146050000Y-115450000D01*
X137750000Y-107150000D02*
X137750000Y-115450000D01*
X137750000Y-107150000D02*
X146050000Y-107150000D01*
X109977500Y-122262742D02*
X109977500Y-122737258D01*
X111022500Y-122262742D02*
X111022500Y-122737258D01*
X111010000Y-135337221D02*
X111010000Y-135662779D01*
X109990000Y-135337221D02*
X109990000Y-135662779D01*
X149840000Y-112097936D02*
X149840000Y-113302064D01*
X152560000Y-112097936D02*
X152560000Y-113302064D01*
X235590000Y-110437221D02*
X235590000Y-110762779D01*
X236610000Y-110437221D02*
X236610000Y-110762779D01*
X226090000Y-116362779D02*
X226090000Y-116037221D01*
X227110000Y-116362779D02*
X227110000Y-116037221D01*
X185110000Y-106862779D02*
X185110000Y-106537221D01*
X184090000Y-106862779D02*
X184090000Y-106537221D01*
X187862779Y-108010000D02*
X187537221Y-108010000D01*
X187862779Y-106990000D02*
X187537221Y-106990000D01*
X205762779Y-109090000D02*
X205437221Y-109090000D01*
X205762779Y-110110000D02*
X205437221Y-110110000D01*
X183955000Y-111323737D02*
X183955000Y-109876263D01*
X181245000Y-111323737D02*
X181245000Y-109876263D01*
X198237221Y-101090000D02*
X198562779Y-101090000D01*
X198237221Y-102110000D02*
X198562779Y-102110000D01*
X206390000Y-106537221D02*
X206390000Y-106862779D01*
X207410000Y-106537221D02*
X207410000Y-106862779D01*
X203390000Y-106537221D02*
X203390000Y-106862779D01*
X204410000Y-106537221D02*
X204410000Y-106862779D01*
X185537221Y-116610000D02*
X185862779Y-116610000D01*
X185537221Y-115590000D02*
X185862779Y-115590000D01*
X228752064Y-132140000D02*
X227547936Y-132140000D01*
X228752064Y-134860000D02*
X227547936Y-134860000D01*
X207162779Y-102590000D02*
X206837221Y-102590000D01*
X207162779Y-103610000D02*
X206837221Y-103610000D01*
D11*
X114300000Y-137900000D02*
G75*
G03*
X114300000Y-137900000I-1400000J0D01*
G01*
D14*
X178810000Y-143770000D02*
X178810000Y-142260000D01*
X182080000Y-143770000D02*
X171840000Y-143770000D01*
X175109000Y-143770000D02*
X175109000Y-142260000D01*
X182080000Y-142260000D02*
X171840000Y-142260000D01*
X182080000Y-143770000D02*
X182080000Y-139129000D01*
X182080000Y-139129000D02*
X171840000Y-139129000D01*
X171840000Y-143770000D02*
X171840000Y-139129000D01*
X162080000Y-139129000D02*
X151840000Y-139129000D01*
X151840000Y-143770000D02*
X151840000Y-139129000D01*
X162080000Y-143770000D02*
X151840000Y-143770000D01*
X158810000Y-143770000D02*
X158810000Y-142260000D01*
X162080000Y-143770000D02*
X162080000Y-139129000D01*
X162080000Y-142260000D02*
X151840000Y-142260000D01*
X155109000Y-143770000D02*
X155109000Y-142260000D01*
X108500000Y-115890000D02*
X105625000Y-115890000D01*
X108500000Y-115890000D02*
X110000000Y-115890000D01*
X108500000Y-120110000D02*
X110000000Y-120110000D01*
X108500000Y-120110000D02*
X107000000Y-120110000D01*
X108500000Y-128890000D02*
X105625000Y-128890000D01*
X108500000Y-133110000D02*
X110000000Y-133110000D01*
X108500000Y-133110000D02*
X107000000Y-133110000D01*
X108500000Y-128890000D02*
X110000000Y-128890000D01*
X172400000Y-113210000D02*
X173900000Y-113210000D01*
X172400000Y-109990000D02*
X173900000Y-109990000D01*
X172400000Y-109990000D02*
X169475000Y-109990000D01*
X172400000Y-113210000D02*
X170900000Y-113210000D01*
X177810000Y-127062779D02*
X177810000Y-126737221D01*
X176790000Y-127062779D02*
X176790000Y-126737221D01*
D11*
X212000000Y-117700000D02*
X200000000Y-117700000D01*
X212000000Y-130700000D02*
X212000000Y-117700000D01*
X200000000Y-117700000D02*
X200000000Y-130700000D01*
X200000000Y-130700000D02*
X212000000Y-130700000D01*
D15*
X208900000Y-129300000D02*
G75*
G03*
X208900000Y-129300000I-400000J0D01*
G01*
D14*
X208397936Y-112690000D02*
X209602064Y-112690000D01*
X208397936Y-114510000D02*
X209602064Y-114510000D01*
X101240000Y-87497936D02*
X101240000Y-88702064D01*
X103960000Y-87497936D02*
X103960000Y-88702064D01*
X228659420Y-81790000D02*
X228940580Y-81790000D01*
X228659420Y-82810000D02*
X228940580Y-82810000D01*
X228790000Y-85359420D02*
X228790000Y-85640580D01*
X229810000Y-85359420D02*
X229810000Y-85640580D01*
X218340580Y-88590000D02*
X218059420Y-88590000D01*
X218340580Y-89610000D02*
X218059420Y-89610000D01*
X213790000Y-63234420D02*
X213790000Y-63515580D01*
X214810000Y-63234420D02*
X214810000Y-63515580D01*
X190159420Y-76610000D02*
X190440580Y-76610000D01*
X190159420Y-75590000D02*
X190440580Y-75590000D01*
X214959420Y-72710000D02*
X215240580Y-72710000D01*
X214959420Y-71690000D02*
X215240580Y-71690000D01*
X194990000Y-72934420D02*
X194990000Y-73215580D01*
X196010000Y-72934420D02*
X196010000Y-73215580D01*
X200890000Y-63165580D02*
X200890000Y-62884420D01*
X201910000Y-63165580D02*
X201910000Y-62884420D01*
X93350000Y-54550000D02*
X93350000Y-60250000D01*
X97650000Y-54550000D02*
X97650000Y-60250000D01*
X97650000Y-54550000D02*
X93350000Y-54550000D01*
X94150000Y-135650000D02*
X94150000Y-129950000D01*
X98450000Y-135650000D02*
X98450000Y-129950000D01*
X94150000Y-135650000D02*
X98450000Y-135650000D01*
X233590000Y-82550000D02*
X234090000Y-82300000D01*
X234090000Y-82300000D02*
X233590000Y-82050000D01*
X233590000Y-82050000D02*
X233590000Y-82550000D01*
X175150000Y-80250000D02*
X175150000Y-71950000D01*
X175150000Y-71950000D02*
X183450000Y-71950000D01*
X183450000Y-80250000D02*
X183450000Y-71950000D01*
X175150000Y-80250000D02*
X183450000Y-80250000D01*
X214650000Y-92435000D02*
X216250000Y-92435000D01*
X231735000Y-57250000D02*
X231735000Y-58850000D01*
X196550000Y-47765000D02*
X198150000Y-47765000D01*
X220650000Y-92435000D02*
X222250000Y-92435000D01*
X208550000Y-47765000D02*
X210250000Y-47765000D01*
X187065000Y-51250000D02*
X187065000Y-52850000D01*
X187065000Y-69250000D02*
X187065000Y-70950000D01*
X196550000Y-92435000D02*
X198150000Y-92435000D01*
X187065000Y-87350000D02*
X187065000Y-88950000D01*
X208550000Y-92435000D02*
X210250000Y-92435000D01*
X231735000Y-81350000D02*
X231735000Y-82950000D01*
X187065000Y-63250000D02*
X187065000Y-64850000D01*
X190550000Y-47765000D02*
X192150000Y-47765000D01*
X231735000Y-87350000D02*
X231735000Y-88950000D01*
X231735000Y-75350000D02*
X231735000Y-76950000D01*
X231735000Y-69250000D02*
X231735000Y-70950000D01*
X226650000Y-92435000D02*
X228250000Y-92435000D01*
X231735000Y-51250000D02*
X231735000Y-52850000D01*
X187065000Y-81350000D02*
X187065000Y-82950000D01*
X214650000Y-47765000D02*
X216250000Y-47765000D01*
X231735000Y-63250000D02*
X231735000Y-64850000D01*
X226650000Y-47765000D02*
X228250000Y-47765000D01*
X202550000Y-92435000D02*
X204150000Y-92435000D01*
X202550000Y-47765000D02*
X204150000Y-47765000D01*
X220650000Y-47765000D02*
X222250000Y-47765000D01*
X187065000Y-75350000D02*
X187065000Y-76950000D01*
X190550000Y-92435000D02*
X192150000Y-92435000D01*
X187065000Y-57250000D02*
X187065000Y-58850000D01*
X160337258Y-107322500D02*
X159862742Y-107322500D01*
X160337258Y-106277500D02*
X159862742Y-106277500D01*
X190477500Y-66562742D02*
X190477500Y-67037258D01*
X191522500Y-66562742D02*
X191522500Y-67037258D01*
X225322500Y-81162742D02*
X225322500Y-81637258D01*
X224277500Y-81162742D02*
X224277500Y-81637258D01*
X192477500Y-67037258D02*
X192477500Y-66562742D01*
X193522500Y-67037258D02*
X193522500Y-66562742D01*
X218762742Y-96622500D02*
X219237258Y-96622500D01*
X218762742Y-95577500D02*
X219237258Y-95577500D01*
X224262742Y-90722500D02*
X224737258Y-90722500D01*
X224262742Y-89677500D02*
X224737258Y-89677500D01*
X192477500Y-70537258D02*
X192477500Y-70062742D01*
X193522500Y-70537258D02*
X193522500Y-70062742D01*
X227723737Y-56645000D02*
X226276263Y-56645000D01*
X227723737Y-59355000D02*
X226276263Y-59355000D01*
X207937258Y-67877500D02*
X207462742Y-67877500D01*
X207937258Y-68922500D02*
X207462742Y-68922500D01*
X216862742Y-63522500D02*
X217337258Y-63522500D01*
X216862742Y-62477500D02*
X217337258Y-62477500D01*
X210577500Y-69662742D02*
X210577500Y-70137258D01*
X211622500Y-69662742D02*
X211622500Y-70137258D01*
X223122500Y-69562742D02*
X223122500Y-70037258D01*
X222077500Y-69562742D02*
X222077500Y-70037258D01*
X210577500Y-66487742D02*
X210577500Y-66962258D01*
X211622500Y-66487742D02*
X211622500Y-66962258D01*
X223122500Y-66662258D02*
X223122500Y-66187742D01*
X222077500Y-66662258D02*
X222077500Y-66187742D01*
X222280000Y-99890000D02*
X222280000Y-94850000D01*
X241521000Y-98670000D02*
X241521000Y-96070000D01*
X241520000Y-99890000D02*
X222280000Y-99890000D01*
X243040000Y-97370000D02*
X242281000Y-97370000D01*
X241520000Y-94850000D02*
X222280000Y-94850000D01*
X243040000Y-98670000D02*
X243040000Y-96070000D01*
X243040000Y-96070000D02*
X241521000Y-96070000D01*
X243040000Y-98670000D02*
X241521000Y-98670000D01*
X241520000Y-99890000D02*
X241520000Y-94850000D01*
X198400000Y-65540000D02*
X200350000Y-65540000D01*
X198400000Y-65540000D02*
X194950000Y-65540000D01*
X198400000Y-70660000D02*
X200350000Y-70660000D01*
X198400000Y-70660000D02*
X196450000Y-70660000D01*
X224400000Y-83840000D02*
X222450000Y-83840000D01*
X224400000Y-88960000D02*
X222450000Y-88960000D01*
X224400000Y-88960000D02*
X227850000Y-88960000D01*
X224400000Y-83840000D02*
X226350000Y-83840000D01*
D11*
X215000000Y-70875000D02*
X219000000Y-70875000D01*
X213725000Y-65475000D02*
X219000000Y-65475000D01*
D14*
X233590000Y-60250000D02*
X234090000Y-60000000D01*
X233590000Y-59750000D02*
X233590000Y-60250000D01*
X234090000Y-60000000D02*
X233590000Y-59750000D01*
X233690000Y-129750000D02*
X233690000Y-130250000D01*
X234190000Y-130000000D02*
X233690000Y-129750000D01*
X233690000Y-130250000D02*
X234190000Y-130000000D01*
D11*
X128600000Y-67410000D02*
X128600000Y-59790000D01*
X134400000Y-67410000D02*
X134400000Y-59790000D01*
X128600000Y-67410000D02*
X134400000Y-67410000D01*
X128600000Y-59790000D02*
X134400000Y-59790000D01*
X133400000Y-67410000D02*
X133400000Y-59790000D01*
X93500000Y-91450000D02*
X99300000Y-91450000D01*
X98300000Y-99070000D02*
X98300000Y-91450000D01*
X93500000Y-99070000D02*
X93500000Y-91450000D01*
X99300000Y-99070000D02*
X99300000Y-91450000D01*
X93500000Y-99070000D02*
X99300000Y-99070000D01*
D14*
X158040580Y-114090000D02*
X157759420Y-114090000D01*
X158040580Y-115110000D02*
X157759420Y-115110000D01*
X109010000Y-93288748D02*
X109010000Y-94711252D01*
X107190000Y-93288748D02*
X107190000Y-94711252D01*
X197910000Y-79340580D02*
X197910000Y-79059420D01*
X196890000Y-79340580D02*
X196890000Y-79059420D01*
X191959420Y-89410000D02*
X192240580Y-89410000D01*
X191959420Y-88390000D02*
X192240580Y-88390000D01*
D15*
X104304000Y-52200000D02*
G75*
G03*
X104304000Y-52200000I-254000J0D01*
G01*
X102304000Y-54200000D02*
G75*
G03*
X102304000Y-54200000I-254000J0D01*
G01*
X106304000Y-54200000D02*
G75*
G03*
X106304000Y-54200000I-254000J0D01*
G01*
X102304000Y-50200000D02*
G75*
G03*
X102304000Y-50200000I-254000J0D01*
G01*
X104304000Y-54200000D02*
G75*
G03*
X104304000Y-54200000I-254000J0D01*
G01*
X106304000Y-50200000D02*
G75*
G03*
X106304000Y-50200000I-254000J0D01*
G01*
X106304000Y-52200000D02*
G75*
G03*
X106304000Y-52200000I-254000J0D01*
G01*
X104304000Y-50200000D02*
G75*
G03*
X104304000Y-50200000I-254000J0D01*
G01*
X102304000Y-52200000D02*
G75*
G03*
X102304000Y-52200000I-254000J0D01*
G01*
D14*
X110077500Y-92962742D02*
X110077500Y-93437258D01*
X111122500Y-92962742D02*
X111122500Y-93437258D01*
X156937258Y-107322500D02*
X156462742Y-107322500D01*
X156937258Y-106277500D02*
X156462742Y-106277500D01*
X218877500Y-120337258D02*
X218877500Y-119862742D01*
X219922500Y-120337258D02*
X219922500Y-119862742D01*
X220677500Y-122037258D02*
X220677500Y-121562742D01*
X221722500Y-122037258D02*
X221722500Y-121562742D01*
X188977500Y-85937258D02*
X188977500Y-85462742D01*
X190022500Y-85937258D02*
X190022500Y-85462742D01*
X190022500Y-82262742D02*
X190022500Y-82737258D01*
X188977500Y-82262742D02*
X188977500Y-82737258D01*
X108600000Y-90210000D02*
X110100000Y-90210000D01*
X108600000Y-85990000D02*
X110100000Y-85990000D01*
X108600000Y-85990000D02*
X105725000Y-85990000D01*
X108600000Y-90210000D02*
X107100000Y-90210000D01*
X160100000Y-108140000D02*
X156650000Y-108140000D01*
X160100000Y-108140000D02*
X162050000Y-108140000D01*
X160100000Y-113260000D02*
X158150000Y-113260000D01*
X160100000Y-113260000D02*
X162050000Y-113260000D01*
X222640000Y-122200000D02*
X222640000Y-124150000D01*
X227760000Y-122200000D02*
X227760000Y-118750000D01*
X222640000Y-122200000D02*
X222640000Y-120250000D01*
X227760000Y-122200000D02*
X227760000Y-124150000D01*
X194400000Y-81440000D02*
X190950000Y-81440000D01*
X194400000Y-86560000D02*
X196350000Y-86560000D01*
X194400000Y-81440000D02*
X196350000Y-81440000D01*
X194400000Y-86560000D02*
X192450000Y-86560000D01*
X216166000Y-88938000D02*
X216166000Y-79032000D01*
X201434000Y-89954000D02*
X204736000Y-89954000D01*
X201434000Y-78270000D02*
X201434000Y-89954000D01*
X204736000Y-78270000D02*
X201434000Y-78270000D01*
X96320000Y-76780000D02*
X112210000Y-76780000D01*
X112210000Y-69120000D02*
X114750000Y-69120000D01*
X96320000Y-76780000D02*
X96320000Y-66540000D01*
X96320000Y-66540000D02*
X112210000Y-66540000D01*
X112210000Y-76780000D02*
X112210000Y-66540000D01*
X112210000Y-71660000D02*
X114750000Y-71660000D01*
X112210000Y-74200000D02*
X114750000Y-74200000D01*
X174655000Y-97250000D02*
X174655000Y-100150000D01*
X167945000Y-97250000D02*
X167945000Y-100150000D01*
X172750000Y-102055000D02*
X169850000Y-102055000D01*
X172750000Y-95345000D02*
X169850000Y-95345000D01*
X193737258Y-78577500D02*
X193262742Y-78577500D01*
X193737258Y-79622500D02*
X193262742Y-79622500D01*
X199100000Y-109460000D02*
X201050000Y-109460000D01*
X199100000Y-104340000D02*
X195650000Y-104340000D01*
X199100000Y-109460000D02*
X197150000Y-109460000D01*
X199100000Y-104340000D02*
X201050000Y-104340000D01*
D11*
X150300000Y-67610000D02*
X156100000Y-67610000D01*
X156100000Y-67610000D02*
X156100000Y-59990000D01*
X150300000Y-59990000D02*
X156100000Y-59990000D01*
X155100000Y-67610000D02*
X155100000Y-59990000D01*
X150300000Y-67610000D02*
X150300000Y-59990000D01*
D14*
X220450000Y-105350000D02*
X228750000Y-105350000D01*
X220450000Y-113650000D02*
X220450000Y-105350000D01*
X228750000Y-113650000D02*
X228750000Y-105350000D01*
X220450000Y-113650000D02*
X228750000Y-113650000D01*
X112960000Y-64001000D02*
X111710000Y-64001000D01*
X112960000Y-64721000D02*
X112257000Y-64721000D01*
X116491000Y-63480000D02*
X115040000Y-63480000D01*
X112960000Y-63040000D02*
X111431000Y-63040000D01*
X116528000Y-63320000D02*
X115040000Y-63320000D01*
X112960000Y-64241000D02*
X111851000Y-64241000D01*
X115500000Y-64921000D02*
X112500000Y-64921000D01*
X112960000Y-63280000D02*
X111464000Y-63280000D01*
X116556000Y-63160000D02*
X115040000Y-63160000D01*
X115743000Y-64721000D02*
X115040000Y-64721000D01*
X112960000Y-64761000D02*
X112301000Y-64761000D01*
X115605000Y-64841000D02*
X112395000Y-64841000D01*
X112960000Y-62920000D02*
X111422000Y-62920000D01*
X116310000Y-63961000D02*
X115040000Y-63961000D01*
X116122000Y-64281000D02*
X115040000Y-64281000D01*
X115383000Y-65001000D02*
X112617000Y-65001000D01*
X112960000Y-63240000D02*
X111457000Y-63240000D01*
X112960000Y-63841000D02*
X111635000Y-63841000D01*
X116149000Y-64241000D02*
X115040000Y-64241000D01*
X116247000Y-64081000D02*
X115040000Y-64081000D01*
X112960000Y-63641000D02*
X111558000Y-63641000D01*
X116224000Y-64121000D02*
X115040000Y-64121000D01*
X112960000Y-63681000D02*
X111572000Y-63681000D01*
X112960000Y-63120000D02*
X111439000Y-63120000D01*
X115178000Y-65121000D02*
X112822000Y-65121000D01*
X115725000Y-60245225D02*
X115225000Y-60245225D01*
X112960000Y-62800000D02*
X111420000Y-62800000D01*
X116348000Y-63881000D02*
X115040000Y-63881000D01*
X116455000Y-63601000D02*
X115040000Y-63601000D01*
X115251000Y-65081000D02*
X112749000Y-65081000D01*
X116382000Y-63801000D02*
X115040000Y-63801000D01*
X116579000Y-62880000D02*
X115040000Y-62880000D01*
X112960000Y-64161000D02*
X111800000Y-64161000D01*
X116398000Y-63761000D02*
X115040000Y-63761000D01*
X115826000Y-64641000D02*
X115040000Y-64641000D01*
X116175000Y-64201000D02*
X115040000Y-64201000D01*
X116004000Y-64441000D02*
X115040000Y-64441000D01*
X112960000Y-64521000D02*
X112063000Y-64521000D01*
X112960000Y-64801000D02*
X112347000Y-64801000D01*
X114677000Y-65321000D02*
X113323000Y-65321000D01*
X116095000Y-64321000D02*
X115040000Y-64321000D01*
X116511000Y-63400000D02*
X115040000Y-63400000D01*
X112960000Y-63561000D02*
X111532000Y-63561000D01*
X112960000Y-63601000D02*
X111545000Y-63601000D01*
X112960000Y-64281000D02*
X111878000Y-64281000D01*
X114518000Y-65361000D02*
X113482000Y-65361000D01*
X112960000Y-63521000D02*
X111520000Y-63521000D01*
X115937000Y-64521000D02*
X115040000Y-64521000D01*
X112960000Y-64401000D02*
X111965000Y-64401000D01*
X112960000Y-63480000D02*
X111509000Y-63480000D01*
X116561000Y-63120000D02*
X115040000Y-63120000D01*
X112960000Y-62880000D02*
X111421000Y-62880000D01*
X115554000Y-64881000D02*
X112446000Y-64881000D01*
X112960000Y-62960000D02*
X111424000Y-62960000D01*
X116290000Y-64001000D02*
X115040000Y-64001000D01*
X115011000Y-65201000D02*
X112989000Y-65201000D01*
X112960000Y-63200000D02*
X111450000Y-63200000D01*
X112960000Y-64481000D02*
X112029000Y-64481000D01*
X112960000Y-63360000D02*
X111480000Y-63360000D01*
X116268000Y-64041000D02*
X115040000Y-64041000D01*
X112960000Y-63921000D02*
X111671000Y-63921000D01*
X112960000Y-64681000D02*
X112215000Y-64681000D01*
X116365000Y-63841000D02*
X115040000Y-63841000D01*
X115971000Y-64481000D02*
X115040000Y-64481000D01*
X112960000Y-64321000D02*
X111905000Y-64321000D01*
X114805000Y-65281000D02*
X113195000Y-65281000D01*
X116501000Y-63440000D02*
X115040000Y-63440000D01*
X115443000Y-64961000D02*
X112557000Y-64961000D01*
X112960000Y-64201000D02*
X111825000Y-64201000D01*
X116576000Y-62960000D02*
X115040000Y-62960000D01*
X112960000Y-64081000D02*
X111753000Y-64081000D01*
X115475000Y-59995225D02*
X115475000Y-60495225D01*
X115098000Y-65161000D02*
X112902000Y-65161000D01*
X116578000Y-62920000D02*
X115040000Y-62920000D01*
X112960000Y-63400000D02*
X111489000Y-63400000D01*
X116550000Y-63200000D02*
X115040000Y-63200000D01*
X112960000Y-64441000D02*
X111996000Y-64441000D01*
X114915000Y-65241000D02*
X113085000Y-65241000D01*
X112960000Y-64041000D02*
X111732000Y-64041000D01*
X112960000Y-64561000D02*
X112099000Y-64561000D01*
X112960000Y-64361000D02*
X111935000Y-64361000D01*
X116543000Y-63240000D02*
X115040000Y-63240000D01*
X112960000Y-62840000D02*
X111420000Y-62840000D01*
X112960000Y-63801000D02*
X111618000Y-63801000D01*
X112960000Y-63881000D02*
X111652000Y-63881000D01*
X116580000Y-62800000D02*
X115040000Y-62800000D01*
X115319000Y-65041000D02*
X112681000Y-65041000D01*
X116065000Y-64361000D02*
X115040000Y-64361000D01*
X116414000Y-63721000D02*
X115040000Y-63721000D01*
X115653000Y-64801000D02*
X115040000Y-64801000D01*
X115785000Y-64681000D02*
X115040000Y-64681000D01*
X116428000Y-63681000D02*
X115040000Y-63681000D01*
X116329000Y-63921000D02*
X115040000Y-63921000D01*
X116573000Y-63000000D02*
X115040000Y-63000000D01*
X115699000Y-64761000D02*
X115040000Y-64761000D01*
X112960000Y-63961000D02*
X111690000Y-63961000D01*
X112960000Y-63160000D02*
X111444000Y-63160000D01*
X112960000Y-63000000D02*
X111427000Y-63000000D01*
X116442000Y-63641000D02*
X115040000Y-63641000D01*
X112960000Y-63761000D02*
X111602000Y-63761000D01*
X112960000Y-64641000D02*
X112174000Y-64641000D01*
X112960000Y-63721000D02*
X111586000Y-63721000D01*
X116569000Y-63040000D02*
X115040000Y-63040000D01*
X116200000Y-64161000D02*
X115040000Y-64161000D01*
X116580000Y-62840000D02*
X115040000Y-62840000D01*
X116468000Y-63561000D02*
X115040000Y-63561000D01*
X115864000Y-64601000D02*
X115040000Y-64601000D01*
X112960000Y-64121000D02*
X111776000Y-64121000D01*
X116480000Y-63521000D02*
X115040000Y-63521000D01*
X112960000Y-63080000D02*
X111435000Y-63080000D01*
X114284000Y-65401000D02*
X113716000Y-65401000D01*
X112960000Y-63320000D02*
X111472000Y-63320000D01*
X112960000Y-64601000D02*
X112136000Y-64601000D01*
X112960000Y-63440000D02*
X111499000Y-63440000D01*
X116565000Y-63080000D02*
X115040000Y-63080000D01*
X116520000Y-63360000D02*
X115040000Y-63360000D01*
X116035000Y-64401000D02*
X115040000Y-64401000D01*
X116536000Y-63280000D02*
X115040000Y-63280000D01*
X115901000Y-64561000D02*
X115040000Y-64561000D01*
X116620000Y-62800000D02*
G75*
G03*
X116620000Y-62800000I-2620000J0D01*
G01*
X121360000Y-131300000D02*
X121360000Y-130650000D01*
X121360000Y-131300000D02*
X121360000Y-131950000D01*
X118240000Y-131300000D02*
X118240000Y-130650000D01*
X118240000Y-131300000D02*
X118240000Y-132975000D01*
X218937258Y-81622500D02*
X218462742Y-81622500D01*
X218937258Y-80577500D02*
X218462742Y-80577500D01*
X223961252Y-132765000D02*
X223438748Y-132765000D01*
X223961252Y-134235000D02*
X223438748Y-134235000D01*
X182600000Y-119335000D02*
X179150000Y-119335000D01*
X182600000Y-124455000D02*
X180650000Y-124455000D01*
X182600000Y-124455000D02*
X184550000Y-124455000D01*
X182600000Y-119335000D02*
X184550000Y-119335000D01*
X176677500Y-122337258D02*
X176677500Y-121862742D01*
X177722500Y-122337258D02*
X177722500Y-121862742D01*
X218459420Y-84810000D02*
X218740580Y-84810000D01*
X218459420Y-83790000D02*
X218740580Y-83790000D01*
X118640000Y-118000000D02*
X118640000Y-119675000D01*
X118640000Y-118000000D02*
X118640000Y-117350000D01*
X121760000Y-118000000D02*
X121760000Y-117350000D01*
X121760000Y-118000000D02*
X121760000Y-118650000D01*
X176677500Y-119037258D02*
X176677500Y-118562742D01*
X177722500Y-119037258D02*
X177722500Y-118562742D01*
X199390000Y-82640580D02*
X199390000Y-82359420D01*
X200410000Y-82640580D02*
X200410000Y-82359420D01*
X200422500Y-86137258D02*
X200422500Y-85662742D01*
X199377500Y-86137258D02*
X199377500Y-85662742D01*
M02*
