M48
; DRILL file {KiCad (6.0.7)} date Thu Jun 15 15:45:33 2023
; FORMAT={-:-/ absolute / inch / decimal}
; #@! TF.CreationDate,2023-06-15T15:45:33+02:00
; #@! TF.GenerationSoftware,Kicad,Pcbnew,(6.0.7)
; #@! TF.FileFunction,Plated,1,2,PTH
FMAT,2
INCH
; #@! TA.AperFunction,Plated,PTH,ViaDrill
T1C0.0118
; #@! TA.AperFunction,Plated,PTH,ViaDrill
T2C0.0157
; #@! TA.AperFunction,Plated,PTH,ComponentDrill
T3C0.0200
; #@! TA.AperFunction,Plated,PTH,ComponentDrill
T4C0.0315
; #@! TA.AperFunction,Plated,PTH,ComponentDrill
T5C0.0354
; #@! TA.AperFunction,Plated,PTH,ComponentDrill
T6C0.0394
; #@! TA.AperFunction,Plated,PTH,ComponentDrill
T7C0.0400
; #@! TA.AperFunction,Plated,PTH,ComponentDrill
T8C0.0433
; #@! TA.AperFunction,Plated,PTH,ComponentDrill
T9C0.0591
; #@! TA.AperFunction,Plated,PTH,ComponentDrill
T10C0.0669
%
G90
G05
T1
X2.5787Y-2.5866
X2.5787Y-2.6496
X2.5787Y-2.7126
X2.6102Y-5.1614
X2.6102Y-5.2047
X2.6142Y-5.1142
X3.0906Y-4.7559
X3.0906Y-4.7953
X3.0906Y-4.8346
X3.0906Y-5.2677
X3.0906Y-5.3071
X3.0906Y-5.3465
X3.0945Y-3.5827
X3.0945Y-3.6181
X3.1693Y-3.9094
X3.4764Y-5.4213
X3.5157Y-4.9016
X3.6772Y-3.4724
X3.6772Y-3.937
X3.685Y-3.2638
X3.7874Y-3.8031
X4.0079Y-4.2165
X4.0157Y-3.9291
X4.252Y-3.9291
X4.8686Y-4.6929
X5.1102Y-4.3504
X5.1693Y-4.626
X5.185Y-4.3346
X5.189Y-3.8071
X5.2205Y-4.6772
X5.2992Y-4.7657
X5.7628Y-4.6703
X5.7874Y-4.7362
X6.1142Y-3.7795
X6.1181Y-3.7087
X6.122Y-2.0197
X6.122Y-2.1181
X6.122Y-2.315
X6.122Y-2.5512
X6.122Y-2.7874
X6.122Y-3.0236
X6.122Y-3.4961
X6.1772Y-4.7835
X6.2402Y-1.9606
X6.2992Y-4.8504
X6.3031Y-3.626
X6.3346Y-2.6811
X6.3622Y-3.9094
X6.3937Y-2.5315
X6.4173Y-3.0039
X6.4173Y-3.5472
X6.4173Y-3.6811
X6.4724Y-3.7362
X6.4764Y-1.9606
X6.4921Y-3.5433
X6.4921Y-3.6732
X6.5157Y-3.122
X6.5433Y-3.2638
X6.5551Y-2.6988
X6.5846Y-2.9941
X6.6063Y-3.626
X6.6516Y-2.6614
X6.689Y-3.6142
X6.7126Y-1.9606
X6.7362Y-3.8465
X6.7421Y-2.5413
X6.8799Y-2.7283
X6.8819Y-4.189
X6.8996Y-2.9941
X6.9291Y-3.0433
X6.9409Y-3.8425
X6.9488Y-1.9606
X6.9882Y-2.6594
X7.185Y-1.9606
X7.185Y-3.0335
X7.189Y-3.8465
X7.2244Y-4.3504
X7.2362Y-3.1142
X7.2539Y-3.0433
X7.2559Y-2.5591
X7.3071Y-2.685
X7.3189Y-4.5906
X7.3228Y-2.8819
X7.3504Y-3.9331
X7.3622Y-2.8169
X7.4016Y-2.8858
X7.4016Y-2.9941
X7.4043Y-3.1752
X7.4134Y-3.5866
X7.4213Y-1.9606
X7.4213Y-3.8346
X7.4606Y-2.685
X7.4769Y-4.6934
X7.5039Y-3.3425
X7.5197Y-5.0551
X7.5306Y-3.4337
X7.5315Y-3.5157
X7.5512Y-3.6732
X7.5945Y-3.4567
X7.6063Y-4.7992
X7.6181Y-3.5709
X7.6265Y-5.0433
X7.6535Y-3.8425
X7.6575Y-1.9606
X7.6693Y-3.2008
X7.6929Y-4.7992
X7.7717Y-3.4567
X7.8071Y-4.6929
X7.8661Y-3.8425
X7.874Y-1.9606
X7.8898Y-3.5906
X7.9134Y-5.4606
X7.9173Y-5.3386
X7.9646Y-5.2913
X7.9685Y-5.437
X7.9803Y-3.8268
X7.9921Y-2.315
X7.9921Y-2.5512
X7.9921Y-2.689
X7.9921Y-2.7874
X7.9921Y-3.0236
X7.9961Y-3.2677
X7.9961Y-3.5
X7.9961Y-3.7087
X8.0Y-3.1732
X8.0118Y-1.9606
X8.0118Y-2.0984
X8.0118Y-5.2441
X8.0118Y-5.4646
X8.0118Y-5.5236
X8.0157Y-5.3976
X8.0315Y-5.0118
X8.0315Y-5.0906
X8.0315Y-5.1693
X8.0512Y-5.3661
X8.0512Y-5.5236
X8.0906Y-3.1299
X8.1102Y-3.3071
X8.1102Y-5.0118
X8.1102Y-5.1693
X8.1102Y-5.3661
X8.1102Y-5.5236
X8.1142Y-3.4724
X8.1142Y-3.6457
X8.1496Y-2.2362
X8.1496Y-2.4134
X8.1496Y-2.5906
X8.1496Y-2.7874
X8.1693Y-5.0118
X8.1693Y-5.1693
X8.1693Y-5.3661
X8.1693Y-5.5236
X8.2008Y-3.126
X8.2047Y-3.3031
X8.2126Y-3.4724
X8.2126Y-3.6457
X8.2283Y-5.3661
X8.2283Y-5.5236
T2
X2.8543Y-4.9094
X2.8583Y-3.7402
X2.874Y-5.4291
X2.9409Y-3.7087
X3.1693Y-5.0433
X3.1693Y-5.5827
X3.3189Y-3.7323
X3.3268Y-5.4331
X3.3386Y-4.9094
X3.6693Y-2.7913
X3.6772Y-3.3583
X3.7323Y-4.5591
X3.7441Y-4.3976
X3.7677Y-5.6102
X3.7756Y-5.2638
X3.7992Y-3.4567
X3.8228Y-4.6024
X3.8268Y-4.7598
X3.8268Y-4.9409
X3.8583Y-4.2795
X3.9213Y-5.2677
X3.9291Y-4.3661
X3.9764Y-2.9646
X4.0157Y-3.4567
X4.1102Y-4.3228
X4.1102Y-4.4016
X4.1102Y-4.4803
X4.1102Y-4.5551
X4.1102Y-4.7244
X4.1102Y-4.7756
X4.1102Y-4.874
X4.1102Y-4.9528
X4.1102Y-5.0315
X4.1102Y-5.1102
X4.1102Y-5.189
X4.1102Y-5.2677
X4.122Y-4.2323
X4.1417Y-5.6102
X4.1535Y-3.9606
X4.1772Y-3.7126
X4.189Y-5.3465
X4.2008Y-4.2323
X4.2047Y-2.9685
X4.2677Y-5.3465
X4.2795Y-4.2323
X4.3376Y-2.7589
X4.3465Y-5.3465
X4.3583Y-4.2323
X4.4252Y-5.3465
X4.437Y-4.2323
X4.5039Y-5.3465
X4.5157Y-4.2323
X4.5827Y-5.3465
X4.5945Y-4.2323
X4.5945Y-4.4803
X4.5945Y-4.5807
X4.6339Y-4.4803
X4.6339Y-4.5807
X4.6614Y-5.3465
X4.6654Y-4.626
X4.6732Y-4.2323
X4.6732Y-4.4803
X4.6732Y-4.5807
X4.7126Y-4.4803
X4.7126Y-4.5807
X4.7402Y-5.3465
X4.752Y-4.2323
X4.752Y-4.4803
X4.752Y-4.5807
X4.7913Y-4.4803
X4.7913Y-4.5807
X4.8189Y-5.3465
X4.8307Y-4.2323
X4.8307Y-4.4803
X4.8307Y-4.5807
X4.8701Y-4.4803
X4.8701Y-4.5807
X4.8976Y-5.3465
X4.9094Y-4.2323
X4.9094Y-4.4803
X4.9094Y-4.5807
X4.9488Y-4.4803
X4.9488Y-4.5807
X4.9764Y-5.3465
X4.9882Y-4.2323
X4.9882Y-4.4803
X4.9882Y-4.5827
X5.0118Y-5.5157
X5.0394Y-5.3465
X5.0787Y-4.2323
X5.1181Y-5.3465
X5.1575Y-4.2323
X5.189Y-4.4803
X5.1969Y-5.3465
X5.2283Y-4.4803
X5.2283Y-4.5807
X5.2441Y-4.2323
X5.2677Y-4.4803
X5.2677Y-4.5807
X5.2756Y-5.3465
X5.3071Y-4.4803
X5.3071Y-4.5807
X5.3346Y-5.3465
X5.3425Y-4.2362
X5.3465Y-4.4803
X5.3465Y-4.5807
X5.3858Y-4.4803
X5.3858Y-4.5807
X5.4134Y-5.3465
X5.4213Y-4.2362
X5.4252Y-4.4803
X5.4252Y-4.5807
X5.4528Y-4.6378
X5.4528Y-4.6969
X5.4646Y-4.4803
X5.4646Y-4.5807
X5.4921Y-5.3465
X5.5118Y-4.6969
X5.5197Y-4.2362
X5.5709Y-4.6969
X5.5709Y-5.3465
X5.5984Y-4.2362
X5.5984Y-4.5906
X5.6063Y-3.7717
X5.6299Y-4.2835
X5.6496Y-5.3465
X5.6693Y-4.3228
X5.6693Y-4.6969
X5.6929Y-4.4567
X5.7087Y-4.3622
X5.7283Y-5.3465
X5.748Y-4.4016
X5.7795Y-4.437
X5.7874Y-4.6073
X5.8071Y-5.3465
X5.8071Y-5.5157
X5.8268Y-4.6073
X5.8371Y-4.4985
X5.8661Y-4.6073
X5.8701Y-4.6919
X5.8765Y-4.4985
X5.8819Y-5.0433
X5.8858Y-5.3465
X5.9055Y-4.6073
X5.9159Y-4.4985
X5.9173Y-4.4567
X5.9252Y-4.2165
X5.9646Y-5.3465
X6.0Y-5.5157
X6.0039Y-4.9292
X6.0039Y-4.9842
X6.0236Y-5.0906
X6.0236Y-5.1693
X6.0236Y-5.248
X6.0236Y-5.3268
X6.1024Y-4.6073
X6.1063Y-4.4646
X6.1127Y-4.4985
X6.1142Y-4.9921
X6.1417Y-4.6073
X6.1521Y-4.4985
X6.153Y-5.0325
X6.1654Y-4.8937
X6.1811Y-4.6073
X6.1914Y-4.4985
X6.1929Y-5.0709
X6.1969Y-4.9252
X6.2205Y-4.6073
X6.2283Y-4.7205
X6.2308Y-4.4985
X6.2317Y-4.9565
X6.2323Y-5.1102
X6.2598Y-4.6073
X6.2702Y-4.4985
X6.2717Y-4.9921
X6.2717Y-5.1496
X6.2992Y-4.6073
X6.3096Y-4.4985
X6.311Y-5.0315
X6.311Y-5.189
X6.3307Y-4.2539
X6.3465Y-4.6181
X6.3489Y-4.4985
X6.3504Y-4.4528
X6.3504Y-5.0709
X6.3504Y-5.2283
X6.3858Y-4.6575
X6.3898Y-5.1102
X6.3898Y-5.2677
X6.3962Y-4.5222
X6.3976Y-3.875
X6.4134Y-4.0276
X6.4252Y-4.6969
X6.4291Y-5.1496
X6.4291Y-5.3071
X6.4355Y-4.563
X6.4646Y-4.4173
X6.4646Y-4.7362
X6.4685Y-5.189
X6.4685Y-5.3465
X6.4749Y-4.6024
X6.5039Y-4.7756
X6.5079Y-5.2283
X6.5079Y-5.3858
X6.5143Y-4.6417
X6.5433Y-4.815
X6.5472Y-5.2677
X6.5472Y-5.4252
X6.5536Y-4.6811
X6.5827Y-4.8543
X6.5866Y-5.3071
X6.5866Y-5.4567
X6.593Y-4.7205
X6.622Y-4.8937
X6.626Y-5.3346
X6.626Y-5.4567
X6.6324Y-4.7598
X6.6535Y-4.9724
X6.6535Y-5.0394
X6.6535Y-5.1102
X6.6535Y-5.2165
X6.6654Y-5.3543
X6.6654Y-5.4567
X6.6718Y-4.7992
X6.6732Y-4.9134
X6.6811Y-4.2441
X6.7047Y-5.3543
X6.7047Y-5.4567
X6.7441Y-5.3543
X6.7441Y-5.4567
X6.752Y-5.2874
X6.7835Y-5.3543
X6.7835Y-5.4567
X6.811Y-4.622
X6.811Y-4.7362
X6.811Y-4.815
X6.811Y-4.8937
X6.811Y-4.9724
X6.811Y-5.0551
X6.811Y-5.1299
X6.811Y-5.2087
X6.8228Y-5.3543
X6.8228Y-5.4567
X6.8268Y-4.4409
X6.8307Y-5.2874
X6.8622Y-5.3543
X6.8622Y-5.4567
X6.8661Y-2.9055
X6.8701Y-2.811
X6.9016Y-5.3543
X6.9016Y-5.4567
X6.9094Y-4.622
X6.9252Y-4.7362
X6.9291Y-4.815
X6.9291Y-4.8937
X6.9291Y-4.9724
X6.9291Y-5.0512
X6.9291Y-5.1299
X6.9291Y-5.2087
X6.9409Y-5.3543
X6.9409Y-5.4567
X6.9803Y-5.3543
X6.9803Y-5.4567
X7.0039Y-4.7362
X7.0079Y-4.815
X7.0079Y-4.8937
X7.0079Y-4.9724
X7.0079Y-5.0512
X7.0079Y-5.1299
X7.0079Y-5.2087
X7.0197Y-5.3543
X7.0197Y-5.4567
X7.0276Y-4.311
X7.0472Y-4.5394
X7.0512Y-2.9173
X7.0591Y-5.3543
X7.0591Y-5.4567
X7.0984Y-5.3543
X7.0984Y-5.4567
X7.1063Y-4.6969
X7.126Y-4.5394
X7.1378Y-5.3543
X7.1378Y-5.4567
X7.1496Y-4.4646
X7.1772Y-5.3543
X7.1772Y-5.4567
X7.2047Y-4.5394
X7.2047Y-4.6378
X7.2047Y-4.7953
X7.2047Y-4.8937
X7.2047Y-4.9921
X7.2047Y-5.0906
X7.2165Y-5.3543
X7.2165Y-5.4567
X7.2559Y-5.3543
X7.2559Y-5.4567
X7.2717Y-3.8465
X7.2717Y-3.8858
X7.2717Y-3.9252
X7.2717Y-3.9646
X7.2717Y-4.0039
X7.2717Y-4.0433
X7.2717Y-4.0827
X7.2717Y-4.122
X7.2756Y-4.4291
X7.2953Y-5.3543
X7.2953Y-5.4567
X7.3071Y-4.5079
X7.311Y-4.122
X7.3346Y-5.3543
X7.3346Y-5.4567
X7.3425Y-4.6614
X7.3425Y-4.7402
X7.3425Y-4.8189
X7.3425Y-4.8976
X7.3425Y-4.9764
X7.3425Y-5.0551
X7.3425Y-5.1339
X7.3425Y-5.2126
X7.3425Y-5.2913
X7.3504Y-4.122
X7.374Y-5.3543
X7.374Y-5.4567
X7.3898Y-4.122
X7.4134Y-5.3543
X7.4134Y-5.4567
X7.4291Y-4.122
X7.4528Y-5.3543
X7.4528Y-5.4567
X7.4685Y-4.122
X7.4921Y-5.3543
X7.4921Y-5.4567
X7.5079Y-4.122
X7.5315Y-5.3543
X7.5315Y-5.4567
X7.5472Y-4.122
X7.5709Y-5.3465
X7.5709Y-5.4646
X7.5866Y-4.122
X7.6102Y-5.3465
X7.6102Y-5.4646
X7.626Y-4.122
X7.6496Y-5.3465
X7.6496Y-5.4646
X7.6654Y-4.122
X7.689Y-5.3465
X7.689Y-5.4646
X7.7047Y-4.122
X7.7441Y-4.122
X7.7835Y-4.122
X7.8228Y-4.122
X7.8622Y-4.122
X7.9016Y-4.122
X7.9409Y-4.122
X7.9803Y-4.122
X8.0197Y-4.122
X8.0591Y-4.122
X8.0984Y-4.122
X8.1378Y-4.122
X8.1772Y-4.122
X8.2165Y-4.122
T3
X6.7794Y-3.3111
X6.7794Y-3.3611
X6.7794Y-3.5611
X6.7794Y-3.6111
X6.8144Y-3.2611
X6.8394Y-3.6611
X6.9144Y-3.2611
X6.9144Y-3.4361
X6.9144Y-3.4861
X6.9144Y-3.6611
X6.9894Y-3.6611
X7.0144Y-3.4111
X7.0144Y-3.5611
X7.0644Y-3.4111
X7.0644Y-3.5611
X7.0894Y-3.6611
X7.1644Y-3.2611
X7.1644Y-3.4361
X7.1644Y-3.4861
X7.1644Y-3.6611
X7.2394Y-3.6611
X7.2644Y-3.2611
X7.2994Y-3.3111
X7.2994Y-3.3611
X7.2994Y-3.5611
X7.2994Y-3.6111
T4
X3.3031Y-3.2992
X3.3031Y-3.378
X3.3071Y-2.5827
X3.3071Y-2.6614
X4.626Y-5.5827
X4.626Y-5.6614
X5.4055Y-5.5827
X5.4055Y-5.6614
X6.0866Y-4.0039
X6.0866Y-4.2008
X6.2008Y-5.5827
X6.2008Y-5.6614
T5
X8.1102Y-4.6559
X8.1102Y-4.7559
T6
X2.1811Y-2.337
X2.1811Y-2.437
X2.1811Y-2.537
X2.1811Y-2.637
X2.1811Y-2.737
X2.1811Y-2.837
X2.1811Y-2.937
X2.1811Y-3.037
X2.1811Y-3.137
X2.1811Y-3.237
X2.1811Y-3.337
X2.1811Y-3.437
X2.1811Y-3.537
X2.1811Y-3.637
X2.1811Y-3.737
X2.1811Y-3.837
X2.1811Y-3.937
X2.1811Y-4.037
X2.1811Y-4.137
X2.1811Y-4.237
X2.1811Y-4.337
X2.1811Y-4.437
X2.1811Y-4.537
X2.1811Y-4.637
X2.1811Y-4.737
X2.1811Y-4.837
X2.1811Y-4.937
X2.1811Y-5.037
X2.1811Y-5.137
X2.1811Y-5.237
X2.1811Y-5.337
X2.1811Y-5.437
X2.3811Y-2.337
X2.3811Y-2.437
X2.3811Y-2.537
X2.3811Y-2.637
X2.3811Y-2.737
X2.3811Y-2.837
X2.3811Y-2.937
X2.3811Y-3.037
X2.3811Y-3.137
X2.3811Y-3.237
X2.3811Y-3.337
X2.3811Y-3.437
X2.3811Y-3.537
X2.3811Y-3.637
X2.3811Y-3.737
X2.3811Y-3.837
X2.3811Y-3.937
X2.3811Y-4.037
X2.3811Y-4.137
X2.3811Y-4.237
X2.3811Y-4.337
X2.3811Y-4.437
X2.3811Y-4.537
X2.3811Y-4.637
X2.3811Y-4.737
X2.3811Y-4.837
X2.3811Y-4.937
X2.3811Y-5.037
X2.3811Y-5.137
X2.3811Y-5.237
X2.3811Y-5.337
X2.3811Y-5.437
X3.2638Y-5.5787
X7.6331Y-3.9331
X7.9331Y-4.0331
X8.1331Y-3.9331
T7
X2.6142Y-3.8
X2.6142Y-3.9
X2.6142Y-4.0
X3.9961Y-2.5535
X3.9961Y-2.6535
X3.9961Y-2.7535
X4.8504Y-2.5614
X4.8504Y-2.6614
X4.8504Y-2.7614
T8
X3.3819Y-2.8709
X3.3819Y-2.9709
X3.3819Y-3.0709
X4.8984Y-5.6811
X4.9984Y-5.6811
X5.0984Y-5.6811
X5.6858Y-5.6811
X5.7858Y-5.6811
X5.8858Y-5.6811
T9
X4.4055Y-4.5315
X5.563Y-4.0354
X5.878Y-3.3189
X7.6614Y-4.4606
T10
X4.3055Y-4.4315
X4.3055Y-4.6315
X4.5055Y-4.4315
X4.5055Y-4.6315
X5.463Y-3.9354
X5.463Y-4.1354
X5.663Y-3.9354
X5.663Y-4.1354
X5.778Y-3.2189
X5.778Y-3.4189
X5.978Y-3.2189
X5.978Y-3.4189
X7.5614Y-4.3606
X7.5614Y-4.5606
X7.7614Y-4.3606
X7.7614Y-4.5606
T0
M30
