G04 #@! TF.GenerationSoftware,KiCad,Pcbnew,(6.0.1)*
G04 #@! TF.CreationDate,2022-04-20T00:59:06+02:00*
G04 #@! TF.ProjectId,MTS_module,4d54535f-6d6f-4647-956c-652e6b696361,1.3.2*
G04 #@! TF.SameCoordinates,Original*
G04 #@! TF.FileFunction,Soldermask,Top*
G04 #@! TF.FilePolarity,Negative*
%FSLAX46Y46*%
G04 Gerber Fmt 4.6, Leading zero omitted, Abs format (unit mm)*
G04 Created by KiCad (PCBNEW (6.0.1)) date 2022-04-20 00:59:06*
%MOMM*%
%LPD*%
G01*
G04 APERTURE LIST*
G04 Aperture macros list*
%AMRoundRect*
0 Rectangle with rounded corners*
0 $1 Rounding radius*
0 $2 $3 $4 $5 $6 $7 $8 $9 X,Y pos of 4 corners*
0 Add a 4 corners polygon primitive as box body*
4,1,4,$2,$3,$4,$5,$6,$7,$8,$9,$2,$3,0*
0 Add four circle primitives for the rounded corners*
1,1,$1+$1,$2,$3*
1,1,$1+$1,$4,$5*
1,1,$1+$1,$6,$7*
1,1,$1+$1,$8,$9*
0 Add four rect primitives between the rounded corners*
20,1,$1+$1,$2,$3,$4,$5,0*
20,1,$1+$1,$4,$5,$6,$7,0*
20,1,$1+$1,$6,$7,$8,$9,0*
20,1,$1+$1,$8,$9,$2,$3,0*%
G04 Aperture macros list end*
%ADD10C,2.850000*%
%ADD11RoundRect,0.249999X0.525001X-0.525001X0.525001X0.525001X-0.525001X0.525001X-0.525001X-0.525001X0*%
%ADD12C,1.550000*%
%ADD13RoundRect,0.250000X-1.075000X0.375000X-1.075000X-0.375000X1.075000X-0.375000X1.075000X0.375000X0*%
%ADD14RoundRect,0.250000X-0.625000X0.375000X-0.625000X-0.375000X0.625000X-0.375000X0.625000X0.375000X0*%
%ADD15RoundRect,0.218750X-0.218750X-0.256250X0.218750X-0.256250X0.218750X0.256250X-0.218750X0.256250X0*%
%ADD16RoundRect,0.218750X0.218750X0.256250X-0.218750X0.256250X-0.218750X-0.256250X0.218750X-0.256250X0*%
%ADD17RoundRect,0.243750X0.456250X-0.243750X0.456250X0.243750X-0.456250X0.243750X-0.456250X-0.243750X0*%
%ADD18RoundRect,0.250000X0.625000X-0.375000X0.625000X0.375000X-0.625000X0.375000X-0.625000X-0.375000X0*%
%ADD19C,1.600000*%
%ADD20RoundRect,0.243750X0.243750X0.456250X-0.243750X0.456250X-0.243750X-0.456250X0.243750X-0.456250X0*%
%ADD21RoundRect,0.218750X-0.256250X0.218750X-0.256250X-0.218750X0.256250X-0.218750X0.256250X0.218750X0*%
%ADD22R,1.600000X1.600000*%
%ADD23R,1.800000X1.800000*%
%ADD24C,1.800000*%
%ADD25R,0.900000X0.800000*%
%ADD26C,2.250000*%
%ADD27RoundRect,0.200000X-0.275000X0.200000X-0.275000X-0.200000X0.275000X-0.200000X0.275000X0.200000X0*%
%ADD28RoundRect,0.218750X0.256250X-0.218750X0.256250X0.218750X-0.256250X0.218750X-0.256250X-0.218750X0*%
%ADD29RoundRect,0.250000X1.075000X-0.312500X1.075000X0.312500X-1.075000X0.312500X-1.075000X-0.312500X0*%
%ADD30RoundRect,0.250000X0.375000X1.075000X-0.375000X1.075000X-0.375000X-1.075000X0.375000X-1.075000X0*%
%ADD31C,2.000000*%
%ADD32R,1.905000X2.000000*%
%ADD33O,1.905000X2.000000*%
%ADD34RoundRect,0.100000X-0.625000X-0.100000X0.625000X-0.100000X0.625000X0.100000X-0.625000X0.100000X0*%
%ADD35RoundRect,0.249999X-0.575001X-1.175001X0.575001X-1.175001X0.575001X1.175001X-0.575001X1.175001X0*%
%ADD36RoundRect,0.100000X-0.712500X-0.100000X0.712500X-0.100000X0.712500X0.100000X-0.712500X0.100000X0*%
%ADD37R,1.520000X1.520000*%
%ADD38R,1.520000X4.700000*%
%ADD39RoundRect,0.250000X-0.375000X-0.625000X0.375000X-0.625000X0.375000X0.625000X-0.375000X0.625000X0*%
%ADD40RoundRect,0.225000X-0.225000X-0.250000X0.225000X-0.250000X0.225000X0.250000X-0.225000X0.250000X0*%
%ADD41RoundRect,0.225000X-0.250000X0.225000X-0.250000X-0.225000X0.250000X-0.225000X0.250000X0.225000X0*%
%ADD42RoundRect,0.225000X0.225000X0.250000X-0.225000X0.250000X-0.225000X-0.250000X0.225000X-0.250000X0*%
%ADD43RoundRect,0.225000X0.250000X-0.225000X0.250000X0.225000X-0.250000X0.225000X-0.250000X-0.225000X0*%
%ADD44R,2.300000X2.500000*%
%ADD45R,5.080000X1.500000*%
%ADD46R,1.000000X3.800000*%
%ADD47R,3.800000X1.000000*%
%ADD48R,1.000000X1.000000*%
%ADD49R,2.440000X1.000000*%
%ADD50R,1.000000X2.440000*%
%ADD51RoundRect,0.200000X0.200000X0.275000X-0.200000X0.275000X-0.200000X-0.275000X0.200000X-0.275000X0*%
%ADD52RoundRect,0.200000X0.275000X-0.200000X0.275000X0.200000X-0.275000X0.200000X-0.275000X-0.200000X0*%
%ADD53RoundRect,0.200000X-0.200000X-0.275000X0.200000X-0.275000X0.200000X0.275000X-0.200000X0.275000X0*%
%ADD54RoundRect,0.250000X0.312500X1.075000X-0.312500X1.075000X-0.312500X-1.075000X0.312500X-1.075000X0*%
%ADD55RoundRect,0.150000X-0.825000X-0.150000X0.825000X-0.150000X0.825000X0.150000X-0.825000X0.150000X0*%
%ADD56R,2.410000X3.300000*%
%ADD57RoundRect,0.150000X0.825000X0.150000X-0.825000X0.150000X-0.825000X-0.150000X0.825000X-0.150000X0*%
%ADD58R,1.200000X0.400000*%
%ADD59R,2.032000X2.032000*%
%ADD60C,2.032000*%
%ADD61RoundRect,0.250000X-0.650000X0.325000X-0.650000X-0.325000X0.650000X-0.325000X0.650000X0.325000X0*%
%ADD62R,1.650000X2.850000*%
%ADD63RoundRect,0.150000X-0.150000X0.825000X-0.150000X-0.825000X0.150000X-0.825000X0.150000X0.825000X0*%
%ADD64R,1.778000X1.524000*%
%ADD65R,1.524000X1.778000*%
%ADD66O,3.500000X3.500000*%
%ADD67R,2.000000X1.905000*%
%ADD68O,2.000000X1.905000*%
%ADD69C,2.050000*%
%ADD70RoundRect,0.249997X-0.955003X-1.400003X0.955003X-1.400003X0.955003X1.400003X-0.955003X1.400003X0*%
%ADD71RoundRect,0.150000X0.150000X-0.587500X0.150000X0.587500X-0.150000X0.587500X-0.150000X-0.587500X0*%
%ADD72RoundRect,0.250000X0.250000X0.475000X-0.250000X0.475000X-0.250000X-0.475000X0.250000X-0.475000X0*%
G04 APERTURE END LIST*
D10*
X82860000Y-139380000D03*
X82860000Y-50480000D03*
D11*
X85400000Y-134300000D03*
D12*
X85400000Y-131760000D03*
X85400000Y-129220000D03*
X85400000Y-126680000D03*
X85400000Y-124140000D03*
X85400000Y-121600000D03*
X85400000Y-119060000D03*
X85400000Y-116520000D03*
X85400000Y-113980000D03*
X85400000Y-111440000D03*
X85400000Y-108900000D03*
X85400000Y-106360000D03*
X85400000Y-103820000D03*
X85400000Y-101280000D03*
X85400000Y-98740000D03*
X85400000Y-96200000D03*
X85400000Y-93660000D03*
X85400000Y-91120000D03*
X85400000Y-88580000D03*
X85400000Y-86040000D03*
X85400000Y-83500000D03*
X85400000Y-80960000D03*
X85400000Y-78420000D03*
X85400000Y-75880000D03*
X85400000Y-73340000D03*
X85400000Y-70800000D03*
X85400000Y-68260000D03*
X85400000Y-65720000D03*
X85400000Y-63180000D03*
X85400000Y-60640000D03*
X85400000Y-58100000D03*
X85400000Y-55560000D03*
X90480000Y-134300000D03*
X90480000Y-131760000D03*
X90480000Y-129220000D03*
X90480000Y-126680000D03*
X90480000Y-124140000D03*
X90480000Y-121600000D03*
X90480000Y-119060000D03*
X90480000Y-116520000D03*
X90480000Y-113980000D03*
X90480000Y-111440000D03*
X90480000Y-108900000D03*
X90480000Y-106360000D03*
X90480000Y-103820000D03*
X90480000Y-101280000D03*
X90480000Y-98740000D03*
X90480000Y-96200000D03*
X90480000Y-93660000D03*
X90480000Y-91120000D03*
X90480000Y-88580000D03*
X90480000Y-86040000D03*
X90480000Y-83500000D03*
X90480000Y-80960000D03*
X90480000Y-78420000D03*
X90480000Y-75880000D03*
X90480000Y-73340000D03*
X90480000Y-70800000D03*
X90480000Y-68260000D03*
X90480000Y-65720000D03*
X90480000Y-63180000D03*
X90480000Y-60640000D03*
X90480000Y-58100000D03*
X90480000Y-55560000D03*
D13*
X102500000Y-116600000D03*
X102500000Y-119400000D03*
X103000000Y-129600000D03*
X103000000Y-132400000D03*
D14*
X108000000Y-122100000D03*
X108000000Y-124900000D03*
X108000000Y-135100000D03*
X108000000Y-137900000D03*
D15*
X162912500Y-106800000D03*
X164487500Y-106800000D03*
D13*
X114300000Y-86700000D03*
X114300000Y-89500000D03*
X114800000Y-116600000D03*
X114800000Y-119400000D03*
X114500000Y-129600000D03*
X114500000Y-132400000D03*
D16*
X148687500Y-111300000D03*
X147112500Y-111300000D03*
X167787500Y-111300000D03*
X166212500Y-111300000D03*
D14*
X170000000Y-105600000D03*
X170000000Y-108400000D03*
D17*
X224600000Y-116937500D03*
X224600000Y-115062500D03*
D18*
X180500000Y-107400000D03*
X180500000Y-104600000D03*
D19*
X184600000Y-102900000D03*
X184600000Y-97900000D03*
D20*
X179237500Y-111900000D03*
X177362500Y-111900000D03*
D18*
X190800000Y-107400000D03*
X190800000Y-104600000D03*
D20*
X187037500Y-111900000D03*
X185162500Y-111900000D03*
D15*
X192712500Y-109500000D03*
X194287500Y-109500000D03*
D16*
X203387500Y-103100000D03*
X201812500Y-103100000D03*
D17*
X182600000Y-116037500D03*
X182600000Y-114162500D03*
D21*
X221400000Y-115412500D03*
X221400000Y-116987500D03*
D15*
X224212500Y-127100000D03*
X225787500Y-127100000D03*
D21*
X188200000Y-119712500D03*
X188200000Y-121287500D03*
D22*
X187500000Y-140000000D03*
D19*
X187500000Y-138000000D03*
D15*
X179412500Y-136300000D03*
X180987500Y-136300000D03*
D22*
X167300000Y-140000000D03*
D19*
X167300000Y-138000000D03*
D15*
X174512500Y-136300000D03*
X176087500Y-136300000D03*
D22*
X147500000Y-140000000D03*
D19*
X147500000Y-138000000D03*
D15*
X154312500Y-136300000D03*
X155887500Y-136300000D03*
X118925000Y-67100000D03*
X120500000Y-67100000D03*
D22*
X113900000Y-82000000D03*
D19*
X113900000Y-80000000D03*
D15*
X119612500Y-80100000D03*
X121187500Y-80100000D03*
D23*
X236000000Y-117000000D03*
D24*
X236000000Y-114460000D03*
D25*
X215200000Y-129850000D03*
X215200000Y-127950000D03*
X213200000Y-128900000D03*
D26*
X141900000Y-111300000D03*
X144440000Y-113840000D03*
X144440000Y-108760000D03*
X139360000Y-108760000D03*
X139360000Y-113840000D03*
D27*
X110500000Y-121675000D03*
X110500000Y-123325000D03*
D21*
X110500000Y-134712500D03*
X110500000Y-136287500D03*
D13*
X151200000Y-111300000D03*
X151200000Y-114100000D03*
D21*
X236100000Y-109812500D03*
X236100000Y-111387500D03*
D28*
X226600000Y-116987500D03*
X226600000Y-115412500D03*
X184600000Y-107487500D03*
X184600000Y-105912500D03*
D16*
X188487500Y-107500000D03*
X186912500Y-107500000D03*
X206387500Y-109600000D03*
X204812500Y-109600000D03*
D29*
X182600000Y-109137500D03*
X182600000Y-112062500D03*
D15*
X197612500Y-101600000D03*
X199187500Y-101600000D03*
D21*
X206900000Y-105912500D03*
X206900000Y-107487500D03*
X203900000Y-105912500D03*
X203900000Y-107487500D03*
D15*
X184912500Y-116100000D03*
X186487500Y-116100000D03*
D30*
X229550000Y-133500000D03*
X226750000Y-133500000D03*
D16*
X207787500Y-103100000D03*
X206212500Y-103100000D03*
D31*
X112900000Y-137900000D03*
D32*
X179500000Y-140500000D03*
D33*
X176960000Y-140500000D03*
X174420000Y-140500000D03*
D32*
X159500000Y-140500000D03*
D33*
X156960000Y-140500000D03*
X154420000Y-140500000D03*
D34*
X106350000Y-116375000D03*
X106350000Y-117025000D03*
X106350000Y-117675000D03*
X106350000Y-118325000D03*
X106350000Y-118975000D03*
X106350000Y-119625000D03*
X110650000Y-119625000D03*
X110650000Y-118975000D03*
X110650000Y-118325000D03*
X110650000Y-117675000D03*
X110650000Y-117025000D03*
X110650000Y-116375000D03*
D35*
X108500000Y-118000000D03*
D34*
X106350000Y-129375000D03*
X106350000Y-130025000D03*
X106350000Y-130675000D03*
X106350000Y-131325000D03*
X106350000Y-131975000D03*
X106350000Y-132625000D03*
X110650000Y-132625000D03*
X110650000Y-131975000D03*
X110650000Y-131325000D03*
X110650000Y-130675000D03*
X110650000Y-130025000D03*
X110650000Y-129375000D03*
D35*
X108500000Y-131000000D03*
D36*
X170287500Y-110625000D03*
X170287500Y-111275000D03*
X170287500Y-111925000D03*
X170287500Y-112575000D03*
X174512500Y-112575000D03*
X174512500Y-111925000D03*
X174512500Y-111275000D03*
X174512500Y-110625000D03*
D28*
X177300000Y-127687500D03*
X177300000Y-126112500D03*
D37*
X211000000Y-128700000D03*
D38*
X211000000Y-124200000D03*
D37*
X211000000Y-119700000D03*
X201350000Y-119700000D03*
D38*
X201350000Y-124200000D03*
D37*
X201350000Y-128700000D03*
D39*
X207600000Y-113600000D03*
X210400000Y-113600000D03*
D13*
X102600000Y-86700000D03*
X102600000Y-89500000D03*
D40*
X228025000Y-82300000D03*
X229575000Y-82300000D03*
D41*
X229300000Y-84725000D03*
X229300000Y-86275000D03*
D42*
X218975000Y-89100000D03*
X217425000Y-89100000D03*
D41*
X214300000Y-62600000D03*
X214300000Y-64150000D03*
D40*
X189525000Y-76100000D03*
X191075000Y-76100000D03*
X214325000Y-72200000D03*
X215875000Y-72200000D03*
D41*
X195500000Y-72300000D03*
X195500000Y-73850000D03*
D43*
X201400000Y-63800000D03*
X201400000Y-62250000D03*
D44*
X95500000Y-55950000D03*
X95500000Y-60250000D03*
X96300000Y-134250000D03*
X96300000Y-129950000D03*
D45*
X237300000Y-82300000D03*
X237300000Y-78050000D03*
X237300000Y-86550000D03*
D26*
X179300000Y-76100000D03*
X181840000Y-73560000D03*
X176760000Y-78640000D03*
X181840000Y-78640000D03*
X176760000Y-73560000D03*
D46*
X231490000Y-55050000D03*
D47*
X218450000Y-48010000D03*
D46*
X231490000Y-73150000D03*
X187310000Y-67050000D03*
D47*
X212450000Y-92190000D03*
X224450000Y-48010000D03*
X212450000Y-48010000D03*
D48*
X187310000Y-48010000D03*
D47*
X224450000Y-92190000D03*
D48*
X187310000Y-92190000D03*
D46*
X187310000Y-73150000D03*
D49*
X229770000Y-48010000D03*
D47*
X206350000Y-48010000D03*
D50*
X231490000Y-49730000D03*
D46*
X187310000Y-79150000D03*
X231490000Y-85150000D03*
D48*
X231490000Y-92190000D03*
D50*
X231490000Y-90470000D03*
D46*
X187310000Y-55050000D03*
D48*
X231490000Y-48010000D03*
D47*
X194350000Y-92190000D03*
D46*
X187310000Y-61050000D03*
D50*
X187310000Y-49730000D03*
D47*
X218450000Y-92190000D03*
D46*
X231490000Y-79150000D03*
D47*
X200350000Y-92190000D03*
D49*
X189030000Y-92190000D03*
D46*
X231490000Y-61050000D03*
X231490000Y-67050000D03*
D47*
X194350000Y-48010000D03*
X200350000Y-48010000D03*
D49*
X229770000Y-92190000D03*
X189030000Y-48010000D03*
D46*
X187310000Y-85150000D03*
D47*
X206350000Y-92190000D03*
D50*
X187310000Y-90470000D03*
D51*
X160925000Y-106800000D03*
X159275000Y-106800000D03*
D27*
X191000000Y-65975000D03*
X191000000Y-67625000D03*
X224800000Y-80575000D03*
X224800000Y-82225000D03*
D52*
X193000000Y-67625000D03*
X193000000Y-65975000D03*
D53*
X218175000Y-96100000D03*
X219825000Y-96100000D03*
X223675000Y-90200000D03*
X225325000Y-90200000D03*
D52*
X193000000Y-71125000D03*
X193000000Y-69475000D03*
D54*
X228462500Y-58000000D03*
X225537500Y-58000000D03*
D51*
X208525000Y-68400000D03*
X206875000Y-68400000D03*
D53*
X216275000Y-63000000D03*
X217925000Y-63000000D03*
D27*
X211100000Y-69075000D03*
X211100000Y-70725000D03*
X222600000Y-68975000D03*
X222600000Y-70625000D03*
X211100000Y-65900000D03*
X211100000Y-67550000D03*
D52*
X222600000Y-67250000D03*
X222600000Y-65600000D03*
D24*
X238100000Y-96100000D03*
X233020000Y-98640000D03*
X225400000Y-96100000D03*
D55*
X195925000Y-66195000D03*
X195925000Y-67465000D03*
X195925000Y-68735000D03*
X195925000Y-70005000D03*
X200875000Y-70005000D03*
X200875000Y-68735000D03*
X200875000Y-67465000D03*
X200875000Y-66195000D03*
D56*
X198400000Y-68100000D03*
D57*
X226875000Y-88305000D03*
X226875000Y-87035000D03*
X226875000Y-85765000D03*
X226875000Y-84495000D03*
X221925000Y-84495000D03*
X221925000Y-85765000D03*
X221925000Y-87035000D03*
X221925000Y-88305000D03*
D58*
X214400000Y-65977500D03*
X214400000Y-66612500D03*
X214400000Y-67247500D03*
X214400000Y-67882500D03*
X214400000Y-68517500D03*
X214400000Y-69152500D03*
X214400000Y-69787500D03*
X214400000Y-70422500D03*
X219600000Y-70422500D03*
X219600000Y-69787500D03*
X219600000Y-69152500D03*
X219600000Y-68517500D03*
X219600000Y-67882500D03*
X219600000Y-67247500D03*
X219600000Y-66612500D03*
X219600000Y-65977500D03*
D45*
X237300000Y-60000000D03*
X237300000Y-55750000D03*
X237300000Y-64250000D03*
X237400000Y-134250000D03*
X237400000Y-125750000D03*
X237400000Y-130000000D03*
D59*
X131500000Y-66140000D03*
D60*
X131500000Y-63600000D03*
X131500000Y-61060000D03*
D59*
X96400000Y-97800000D03*
D60*
X96400000Y-95260000D03*
X96400000Y-92720000D03*
D42*
X158675000Y-114600000D03*
X157125000Y-114600000D03*
D61*
X108100000Y-92525000D03*
X108100000Y-95475000D03*
D43*
X197400000Y-79975000D03*
X197400000Y-78425000D03*
D40*
X191325000Y-88900000D03*
X192875000Y-88900000D03*
D27*
X110600000Y-92375000D03*
X110600000Y-94025000D03*
D51*
X157525000Y-106800000D03*
X155875000Y-106800000D03*
D52*
X219400000Y-120925000D03*
X219400000Y-119275000D03*
X221200000Y-122625000D03*
X221200000Y-120975000D03*
X189500000Y-86525000D03*
X189500000Y-84875000D03*
D27*
X189500000Y-81675000D03*
X189500000Y-83325000D03*
D34*
X106450000Y-86475000D03*
X106450000Y-87125000D03*
X106450000Y-87775000D03*
X106450000Y-88425000D03*
X106450000Y-89075000D03*
X106450000Y-89725000D03*
X110750000Y-89725000D03*
X110750000Y-89075000D03*
X110750000Y-88425000D03*
X110750000Y-87775000D03*
X110750000Y-87125000D03*
X110750000Y-86475000D03*
D62*
X108600000Y-88100000D03*
D55*
X157625000Y-108795000D03*
X157625000Y-110065000D03*
X157625000Y-111335000D03*
X157625000Y-112605000D03*
X162575000Y-112605000D03*
X162575000Y-111335000D03*
X162575000Y-110065000D03*
X162575000Y-108795000D03*
D63*
X227105000Y-119725000D03*
X225835000Y-119725000D03*
X224565000Y-119725000D03*
X223295000Y-119725000D03*
X223295000Y-124675000D03*
X224565000Y-124675000D03*
X225835000Y-124675000D03*
X227105000Y-124675000D03*
D55*
X191925000Y-82095000D03*
X191925000Y-83365000D03*
X191925000Y-84635000D03*
X191925000Y-85905000D03*
X196875000Y-85905000D03*
X196875000Y-84635000D03*
X196875000Y-83365000D03*
X196875000Y-82095000D03*
D64*
X202831000Y-84112000D03*
X214769000Y-84112000D03*
D65*
X208800000Y-79730500D03*
X208800000Y-88493500D03*
X213245000Y-79730500D03*
X204355000Y-79730500D03*
D66*
X99240000Y-71660000D03*
D67*
X115900000Y-74200000D03*
D68*
X115900000Y-71660000D03*
X115900000Y-69120000D03*
D69*
X171300000Y-98700000D03*
D26*
X173840000Y-101240000D03*
X168760000Y-101240000D03*
X168760000Y-96160000D03*
X173840000Y-96160000D03*
D51*
X194325000Y-79100000D03*
X192675000Y-79100000D03*
D55*
X196625000Y-104995000D03*
X196625000Y-106265000D03*
X196625000Y-107535000D03*
X196625000Y-108805000D03*
X201575000Y-108805000D03*
X201575000Y-107535000D03*
X201575000Y-106265000D03*
X201575000Y-104995000D03*
D70*
X199100000Y-106900000D03*
D59*
X153200000Y-66340000D03*
D60*
X153200000Y-63800000D03*
X153200000Y-61260000D03*
D26*
X224600000Y-109500000D03*
X222060000Y-112040000D03*
X222060000Y-106960000D03*
X227140000Y-112040000D03*
X227140000Y-106960000D03*
D22*
X114000000Y-61800000D03*
D19*
X114000000Y-63800000D03*
D71*
X118850000Y-132237500D03*
X120750000Y-132237500D03*
X119800000Y-130362500D03*
D51*
X219525000Y-81100000D03*
X217875000Y-81100000D03*
D72*
X224650000Y-133500000D03*
X222750000Y-133500000D03*
D55*
X180125000Y-119990000D03*
X180125000Y-121260000D03*
X180125000Y-122530000D03*
X180125000Y-123800000D03*
X185075000Y-123800000D03*
X185075000Y-122530000D03*
X185075000Y-121260000D03*
X185075000Y-119990000D03*
D52*
X177200000Y-122925000D03*
X177200000Y-121275000D03*
D40*
X217825000Y-84300000D03*
X219375000Y-84300000D03*
D71*
X119250000Y-118937500D03*
X121150000Y-118937500D03*
X120200000Y-117062500D03*
D52*
X177200000Y-119625000D03*
X177200000Y-117975000D03*
D43*
X199900000Y-83275000D03*
X199900000Y-81725000D03*
D52*
X199900000Y-86725000D03*
X199900000Y-85075000D03*
M02*
