G04 #@! TF.GenerationSoftware,KiCad,Pcbnew,(6.0.7)*
G04 #@! TF.CreationDate,2023-06-07T16:59:13+02:00*
G04 #@! TF.ProjectId,MTS_module,4d54535f-6d6f-4647-956c-652e6b696361,1.3.3*
G04 #@! TF.SameCoordinates,Original*
G04 #@! TF.FileFunction,Soldermask,Top*
G04 #@! TF.FilePolarity,Negative*
%FSLAX46Y46*%
G04 Gerber Fmt 4.6, Leading zero omitted, Abs format (unit mm)*
G04 Created by KiCad (PCBNEW (6.0.7)) date 2023-06-07 16:59:13*
%MOMM*%
%LPD*%
G01*
G04 APERTURE LIST*
G04 Aperture macros list*
%AMRoundRect*
0 Rectangle with rounded corners*
0 $1 Rounding radius*
0 $2 $3 $4 $5 $6 $7 $8 $9 X,Y pos of 4 corners*
0 Add a 4 corners polygon primitive as box body*
4,1,4,$2,$3,$4,$5,$6,$7,$8,$9,$2,$3,0*
0 Add four circle primitives for the rounded corners*
1,1,$1+$1,$2,$3*
1,1,$1+$1,$4,$5*
1,1,$1+$1,$6,$7*
1,1,$1+$1,$8,$9*
0 Add four rect primitives between the rounded corners*
20,1,$1+$1,$2,$3,$4,$5,0*
20,1,$1+$1,$4,$5,$6,$7,0*
20,1,$1+$1,$6,$7,$8,$9,0*
20,1,$1+$1,$8,$9,$2,$3,0*%
G04 Aperture macros list end*
%ADD10C,2.850000*%
%ADD11RoundRect,0.249999X0.525001X-0.525001X0.525001X0.525001X-0.525001X0.525001X-0.525001X-0.525001X0*%
%ADD12C,1.550000*%
%ADD13RoundRect,0.250000X-1.075000X0.375000X-1.075000X-0.375000X1.075000X-0.375000X1.075000X0.375000X0*%
%ADD14RoundRect,0.250000X-0.625000X0.375000X-0.625000X-0.375000X0.625000X-0.375000X0.625000X0.375000X0*%
%ADD15RoundRect,0.218750X-0.218750X-0.256250X0.218750X-0.256250X0.218750X0.256250X-0.218750X0.256250X0*%
%ADD16RoundRect,0.218750X0.218750X0.256250X-0.218750X0.256250X-0.218750X-0.256250X0.218750X-0.256250X0*%
%ADD17RoundRect,0.225000X0.250000X-0.225000X0.250000X0.225000X-0.250000X0.225000X-0.250000X-0.225000X0*%
%ADD18RoundRect,0.250000X0.625000X-0.375000X0.625000X0.375000X-0.625000X0.375000X-0.625000X-0.375000X0*%
%ADD19C,1.600000*%
%ADD20RoundRect,0.243750X0.243750X0.456250X-0.243750X0.456250X-0.243750X-0.456250X0.243750X-0.456250X0*%
%ADD21RoundRect,0.243750X0.456250X-0.243750X0.456250X0.243750X-0.456250X0.243750X-0.456250X-0.243750X0*%
%ADD22RoundRect,0.218750X-0.256250X0.218750X-0.256250X-0.218750X0.256250X-0.218750X0.256250X0.218750X0*%
%ADD23R,1.600000X1.600000*%
%ADD24R,1.800000X1.800000*%
%ADD25C,1.800000*%
%ADD26R,0.900000X0.800000*%
%ADD27C,2.250000*%
%ADD28RoundRect,0.200000X-0.275000X0.200000X-0.275000X-0.200000X0.275000X-0.200000X0.275000X0.200000X0*%
%ADD29RoundRect,0.218750X0.256250X-0.218750X0.256250X0.218750X-0.256250X0.218750X-0.256250X-0.218750X0*%
%ADD30RoundRect,0.250000X1.075000X-0.312500X1.075000X0.312500X-1.075000X0.312500X-1.075000X-0.312500X0*%
%ADD31RoundRect,0.250000X0.375000X1.075000X-0.375000X1.075000X-0.375000X-1.075000X0.375000X-1.075000X0*%
%ADD32C,2.000000*%
%ADD33R,1.905000X2.000000*%
%ADD34O,1.905000X2.000000*%
%ADD35RoundRect,0.100000X-0.625000X-0.100000X0.625000X-0.100000X0.625000X0.100000X-0.625000X0.100000X0*%
%ADD36RoundRect,0.249999X-0.575001X-1.175001X0.575001X-1.175001X0.575001X1.175001X-0.575001X1.175001X0*%
%ADD37RoundRect,0.100000X-0.712500X-0.100000X0.712500X-0.100000X0.712500X0.100000X-0.712500X0.100000X0*%
%ADD38R,1.520000X1.520000*%
%ADD39R,1.520000X4.700000*%
%ADD40RoundRect,0.250000X-0.375000X-0.625000X0.375000X-0.625000X0.375000X0.625000X-0.375000X0.625000X0*%
%ADD41RoundRect,0.225000X-0.225000X-0.250000X0.225000X-0.250000X0.225000X0.250000X-0.225000X0.250000X0*%
%ADD42RoundRect,0.225000X-0.250000X0.225000X-0.250000X-0.225000X0.250000X-0.225000X0.250000X0.225000X0*%
%ADD43RoundRect,0.225000X0.225000X0.250000X-0.225000X0.250000X-0.225000X-0.250000X0.225000X-0.250000X0*%
%ADD44R,2.300000X2.500000*%
%ADD45R,5.080000X1.500000*%
%ADD46R,1.000000X3.800000*%
%ADD47R,3.800000X1.000000*%
%ADD48R,1.000000X1.000000*%
%ADD49R,2.440000X1.000000*%
%ADD50R,1.000000X2.440000*%
%ADD51RoundRect,0.200000X0.200000X0.275000X-0.200000X0.275000X-0.200000X-0.275000X0.200000X-0.275000X0*%
%ADD52RoundRect,0.250000X-1.075000X0.312500X-1.075000X-0.312500X1.075000X-0.312500X1.075000X0.312500X0*%
%ADD53RoundRect,0.200000X0.275000X-0.200000X0.275000X0.200000X-0.275000X0.200000X-0.275000X-0.200000X0*%
%ADD54RoundRect,0.200000X-0.200000X-0.275000X0.200000X-0.275000X0.200000X0.275000X-0.200000X0.275000X0*%
%ADD55RoundRect,0.250000X0.312500X1.075000X-0.312500X1.075000X-0.312500X-1.075000X0.312500X-1.075000X0*%
%ADD56RoundRect,0.150000X-0.825000X-0.150000X0.825000X-0.150000X0.825000X0.150000X-0.825000X0.150000X0*%
%ADD57R,2.410000X3.300000*%
%ADD58RoundRect,0.150000X0.825000X0.150000X-0.825000X0.150000X-0.825000X-0.150000X0.825000X-0.150000X0*%
%ADD59R,1.200000X0.400000*%
%ADD60R,2.032000X2.032000*%
%ADD61C,2.032000*%
%ADD62RoundRect,0.250000X-0.650000X0.325000X-0.650000X-0.325000X0.650000X-0.325000X0.650000X0.325000X0*%
%ADD63R,1.650000X2.850000*%
%ADD64RoundRect,0.150000X-0.150000X0.825000X-0.150000X-0.825000X0.150000X-0.825000X0.150000X0.825000X0*%
%ADD65R,1.778000X1.524000*%
%ADD66R,1.524000X1.778000*%
%ADD67O,3.500000X3.500000*%
%ADD68R,2.000000X1.905000*%
%ADD69O,2.000000X1.905000*%
%ADD70C,2.050000*%
%ADD71RoundRect,0.249997X-0.955003X-1.400003X0.955003X-1.400003X0.955003X1.400003X-0.955003X1.400003X0*%
%ADD72RoundRect,0.150000X0.150000X-0.587500X0.150000X0.587500X-0.150000X0.587500X-0.150000X-0.587500X0*%
%ADD73RoundRect,0.250000X0.250000X0.475000X-0.250000X0.475000X-0.250000X-0.475000X0.250000X-0.475000X0*%
G04 APERTURE END LIST*
D10*
X52860000Y-143180000D03*
X52860000Y-54280000D03*
D11*
X55400000Y-138100000D03*
D12*
X55400000Y-135560000D03*
X55400000Y-133020000D03*
X55400000Y-130480000D03*
X55400000Y-127940000D03*
X55400000Y-125400000D03*
X55400000Y-122860000D03*
X55400000Y-120320000D03*
X55400000Y-117780000D03*
X55400000Y-115240000D03*
X55400000Y-112700000D03*
X55400000Y-110160000D03*
X55400000Y-107620000D03*
X55400000Y-105080000D03*
X55400000Y-102540000D03*
X55400000Y-100000000D03*
X55400000Y-97460000D03*
X55400000Y-94920000D03*
X55400000Y-92380000D03*
X55400000Y-89840000D03*
X55400000Y-87300000D03*
X55400000Y-84760000D03*
X55400000Y-82220000D03*
X55400000Y-79680000D03*
X55400000Y-77140000D03*
X55400000Y-74600000D03*
X55400000Y-72060000D03*
X55400000Y-69520000D03*
X55400000Y-66980000D03*
X55400000Y-64440000D03*
X55400000Y-61900000D03*
X55400000Y-59360000D03*
X60480000Y-138100000D03*
X60480000Y-135560000D03*
X60480000Y-133020000D03*
X60480000Y-130480000D03*
X60480000Y-127940000D03*
X60480000Y-125400000D03*
X60480000Y-122860000D03*
X60480000Y-120320000D03*
X60480000Y-117780000D03*
X60480000Y-115240000D03*
X60480000Y-112700000D03*
X60480000Y-110160000D03*
X60480000Y-107620000D03*
X60480000Y-105080000D03*
X60480000Y-102540000D03*
X60480000Y-100000000D03*
X60480000Y-97460000D03*
X60480000Y-94920000D03*
X60480000Y-92380000D03*
X60480000Y-89840000D03*
X60480000Y-87300000D03*
X60480000Y-84760000D03*
X60480000Y-82220000D03*
X60480000Y-79680000D03*
X60480000Y-77140000D03*
X60480000Y-74600000D03*
X60480000Y-72060000D03*
X60480000Y-69520000D03*
X60480000Y-66980000D03*
X60480000Y-64440000D03*
X60480000Y-61900000D03*
X60480000Y-59360000D03*
D13*
X72500000Y-120400000D03*
X72500000Y-123200000D03*
X73000000Y-133400000D03*
X73000000Y-136200000D03*
D14*
X78000000Y-125900000D03*
X78000000Y-128700000D03*
X78000000Y-138900000D03*
X78000000Y-141700000D03*
D15*
X132912500Y-110600000D03*
X134487500Y-110600000D03*
D13*
X84300000Y-90500000D03*
X84300000Y-93300000D03*
X84800000Y-120400000D03*
X84800000Y-123200000D03*
X84500000Y-133400000D03*
X84500000Y-136200000D03*
D16*
X118687500Y-115100000D03*
X117112500Y-115100000D03*
X137787500Y-115100000D03*
X136212500Y-115100000D03*
D14*
X140000000Y-109400000D03*
X140000000Y-112200000D03*
D17*
X194600000Y-120575000D03*
X194600000Y-119025000D03*
D18*
X150500000Y-111200000D03*
X150500000Y-108400000D03*
D19*
X154600000Y-106700000D03*
X154600000Y-101700000D03*
D20*
X149237500Y-115700000D03*
X147362500Y-115700000D03*
D17*
X160800000Y-111275000D03*
X160800000Y-109725000D03*
D20*
X157037500Y-115700000D03*
X155162500Y-115700000D03*
D15*
X162712500Y-113300000D03*
X164287500Y-113300000D03*
D16*
X173387500Y-106900000D03*
X171812500Y-106900000D03*
D21*
X152600000Y-119837500D03*
X152600000Y-117962500D03*
D22*
X191400000Y-119212500D03*
X191400000Y-120787500D03*
D15*
X194212500Y-130900000D03*
X195787500Y-130900000D03*
D22*
X158200000Y-123512500D03*
X158200000Y-125087500D03*
D23*
X157500000Y-143800000D03*
D19*
X157500000Y-141800000D03*
D15*
X149412500Y-140100000D03*
X150987500Y-140100000D03*
D23*
X137300000Y-143800000D03*
D19*
X137300000Y-141800000D03*
D15*
X144512500Y-140100000D03*
X146087500Y-140100000D03*
D23*
X117500000Y-143800000D03*
D19*
X117500000Y-141800000D03*
D15*
X124312500Y-140100000D03*
X125887500Y-140100000D03*
X88925000Y-70900000D03*
X90500000Y-70900000D03*
D23*
X83900000Y-85800000D03*
D19*
X83900000Y-83800000D03*
D15*
X89612500Y-83900000D03*
X91187500Y-83900000D03*
D24*
X206000000Y-120800000D03*
D25*
X206000000Y-118260000D03*
D26*
X185200000Y-133650000D03*
X185200000Y-131750000D03*
X183200000Y-132700000D03*
D27*
X111900000Y-115100000D03*
X114440000Y-117640000D03*
X114440000Y-112560000D03*
X109360000Y-112560000D03*
X109360000Y-117640000D03*
D28*
X80500000Y-125475000D03*
X80500000Y-127125000D03*
D22*
X80500000Y-138512500D03*
X80500000Y-140087500D03*
D13*
X121200000Y-115100000D03*
X121200000Y-117900000D03*
D22*
X206100000Y-113612500D03*
X206100000Y-115187500D03*
D29*
X196600000Y-120787500D03*
X196600000Y-119212500D03*
X154600000Y-111287500D03*
X154600000Y-109712500D03*
D16*
X158487500Y-111300000D03*
X156912500Y-111300000D03*
X176387500Y-113400000D03*
X174812500Y-113400000D03*
D30*
X152600000Y-115862500D03*
X152600000Y-112937500D03*
D15*
X167612500Y-105400000D03*
X169187500Y-105400000D03*
D22*
X176900000Y-109712500D03*
X176900000Y-111287500D03*
X173900000Y-109712500D03*
X173900000Y-111287500D03*
D15*
X154912500Y-119900000D03*
X156487500Y-119900000D03*
D31*
X199550000Y-137300000D03*
X196750000Y-137300000D03*
D16*
X177787500Y-106900000D03*
X176212500Y-106900000D03*
D32*
X82900000Y-141700000D03*
D33*
X149500000Y-144300000D03*
D34*
X146960000Y-144300000D03*
X144420000Y-144300000D03*
D33*
X129500000Y-144300000D03*
D34*
X126960000Y-144300000D03*
X124420000Y-144300000D03*
D35*
X76350000Y-120175000D03*
X76350000Y-120825000D03*
X76350000Y-121475000D03*
X76350000Y-122125000D03*
X76350000Y-122775000D03*
X76350000Y-123425000D03*
X80650000Y-123425000D03*
X80650000Y-122775000D03*
X80650000Y-122125000D03*
X80650000Y-121475000D03*
X80650000Y-120825000D03*
X80650000Y-120175000D03*
D36*
X78500000Y-121800000D03*
D35*
X76350000Y-133175000D03*
X76350000Y-133825000D03*
X76350000Y-134475000D03*
X76350000Y-135125000D03*
X76350000Y-135775000D03*
X76350000Y-136425000D03*
X80650000Y-136425000D03*
X80650000Y-135775000D03*
X80650000Y-135125000D03*
X80650000Y-134475000D03*
X80650000Y-133825000D03*
X80650000Y-133175000D03*
D36*
X78500000Y-134800000D03*
D37*
X140287500Y-114425000D03*
X140287500Y-115075000D03*
X140287500Y-115725000D03*
X140287500Y-116375000D03*
X144512500Y-116375000D03*
X144512500Y-115725000D03*
X144512500Y-115075000D03*
X144512500Y-114425000D03*
D29*
X147300000Y-131487500D03*
X147300000Y-129912500D03*
D38*
X181000000Y-132500000D03*
D39*
X181000000Y-128000000D03*
D38*
X181000000Y-123500000D03*
X171350000Y-123500000D03*
D39*
X171350000Y-128000000D03*
D38*
X171350000Y-132500000D03*
D40*
X177600000Y-117400000D03*
X180400000Y-117400000D03*
D13*
X72600000Y-90500000D03*
X72600000Y-93300000D03*
D41*
X198025000Y-86100000D03*
X199575000Y-86100000D03*
D42*
X199300000Y-88525000D03*
X199300000Y-90075000D03*
D43*
X188975000Y-92900000D03*
X187425000Y-92900000D03*
D42*
X184300000Y-66400000D03*
X184300000Y-67950000D03*
D41*
X159525000Y-79900000D03*
X161075000Y-79900000D03*
X184325000Y-76000000D03*
X185875000Y-76000000D03*
D42*
X165500000Y-76100000D03*
X165500000Y-77650000D03*
D17*
X171400000Y-67600000D03*
X171400000Y-66050000D03*
D44*
X65500000Y-59750000D03*
X65500000Y-64050000D03*
X66300000Y-138050000D03*
X66300000Y-133750000D03*
D45*
X207300000Y-86100000D03*
X207300000Y-81850000D03*
X207300000Y-90350000D03*
D27*
X149300000Y-79900000D03*
X151840000Y-77360000D03*
X146760000Y-82440000D03*
X151840000Y-82440000D03*
X146760000Y-77360000D03*
D46*
X201490000Y-58850000D03*
D47*
X188450000Y-51810000D03*
D46*
X201490000Y-76950000D03*
X157310000Y-70850000D03*
D47*
X182450000Y-95990000D03*
X194450000Y-51810000D03*
X182450000Y-51810000D03*
D48*
X157310000Y-51810000D03*
D47*
X194450000Y-95990000D03*
D48*
X157310000Y-95990000D03*
D46*
X157310000Y-76950000D03*
D49*
X199770000Y-51810000D03*
D47*
X176350000Y-51810000D03*
D50*
X201490000Y-53530000D03*
D46*
X157310000Y-82950000D03*
X201490000Y-88950000D03*
D48*
X201490000Y-95990000D03*
D50*
X201490000Y-94270000D03*
D46*
X157310000Y-58850000D03*
D48*
X201490000Y-51810000D03*
D47*
X164350000Y-95990000D03*
D46*
X157310000Y-64850000D03*
D50*
X157310000Y-53530000D03*
D47*
X188450000Y-95990000D03*
D46*
X201490000Y-82950000D03*
D47*
X170350000Y-95990000D03*
D49*
X159030000Y-95990000D03*
D46*
X201490000Y-64850000D03*
X201490000Y-70850000D03*
D47*
X164350000Y-51810000D03*
X170350000Y-51810000D03*
D49*
X199770000Y-95990000D03*
X159030000Y-51810000D03*
D46*
X157310000Y-88950000D03*
D47*
X176350000Y-95990000D03*
D50*
X157310000Y-94270000D03*
D51*
X130925000Y-110600000D03*
X129275000Y-110600000D03*
D28*
X161000000Y-69775000D03*
X161000000Y-71425000D03*
D52*
X194900000Y-83137500D03*
X194900000Y-86062500D03*
D53*
X163000000Y-71425000D03*
X163000000Y-69775000D03*
D54*
X188175000Y-99900000D03*
X189825000Y-99900000D03*
X193675000Y-94000000D03*
X195325000Y-94000000D03*
D53*
X163000000Y-74925000D03*
X163000000Y-73275000D03*
D55*
X198462500Y-61800000D03*
X195537500Y-61800000D03*
D51*
X178525000Y-72200000D03*
X176875000Y-72200000D03*
D54*
X186275000Y-66800000D03*
X187925000Y-66800000D03*
D28*
X181100000Y-72875000D03*
X181100000Y-74525000D03*
X192600000Y-72775000D03*
X192600000Y-74425000D03*
X181100000Y-69700000D03*
X181100000Y-71350000D03*
D53*
X192600000Y-71050000D03*
X192600000Y-69400000D03*
D25*
X195400000Y-99900000D03*
X203020000Y-102440000D03*
X208100000Y-99900000D03*
D56*
X165925000Y-69995000D03*
X165925000Y-71265000D03*
X165925000Y-72535000D03*
X165925000Y-73805000D03*
X170875000Y-73805000D03*
X170875000Y-72535000D03*
X170875000Y-71265000D03*
X170875000Y-69995000D03*
D57*
X168400000Y-71900000D03*
D58*
X196875000Y-92105000D03*
X196875000Y-90835000D03*
X196875000Y-89565000D03*
X196875000Y-88295000D03*
X191925000Y-88295000D03*
X191925000Y-89565000D03*
X191925000Y-90835000D03*
X191925000Y-92105000D03*
D59*
X184400000Y-69777500D03*
X184400000Y-70412500D03*
X184400000Y-71047500D03*
X184400000Y-71682500D03*
X184400000Y-72317500D03*
X184400000Y-72952500D03*
X184400000Y-73587500D03*
X184400000Y-74222500D03*
X189600000Y-74222500D03*
X189600000Y-73587500D03*
X189600000Y-72952500D03*
X189600000Y-72317500D03*
X189600000Y-71682500D03*
X189600000Y-71047500D03*
X189600000Y-70412500D03*
X189600000Y-69777500D03*
D45*
X207300000Y-63800000D03*
X207300000Y-59550000D03*
X207300000Y-68050000D03*
X207400000Y-133800000D03*
X207400000Y-129550000D03*
X207400000Y-138050000D03*
D60*
X101500000Y-69940000D03*
D61*
X101500000Y-67400000D03*
X101500000Y-64860000D03*
D60*
X66400000Y-101600000D03*
D61*
X66400000Y-99060000D03*
X66400000Y-96520000D03*
D43*
X128675000Y-118400000D03*
X127125000Y-118400000D03*
D62*
X78100000Y-96325000D03*
X78100000Y-99275000D03*
D17*
X167400000Y-83775000D03*
X167400000Y-82225000D03*
D41*
X161325000Y-92700000D03*
X162875000Y-92700000D03*
D28*
X80600000Y-96175000D03*
X80600000Y-97825000D03*
D51*
X127525000Y-110600000D03*
X125875000Y-110600000D03*
D53*
X189400000Y-124725000D03*
X189400000Y-123075000D03*
X191200000Y-126425000D03*
X191200000Y-124775000D03*
X159500000Y-90325000D03*
X159500000Y-88675000D03*
D28*
X159500000Y-85475000D03*
X159500000Y-87125000D03*
D35*
X76450000Y-90275000D03*
X76450000Y-90925000D03*
X76450000Y-91575000D03*
X76450000Y-92225000D03*
X76450000Y-92875000D03*
X76450000Y-93525000D03*
X80750000Y-93525000D03*
X80750000Y-92875000D03*
X80750000Y-92225000D03*
X80750000Y-91575000D03*
X80750000Y-90925000D03*
X80750000Y-90275000D03*
D63*
X78600000Y-91900000D03*
D56*
X127625000Y-112595000D03*
X127625000Y-113865000D03*
X127625000Y-115135000D03*
X127625000Y-116405000D03*
X132575000Y-116405000D03*
X132575000Y-115135000D03*
X132575000Y-113865000D03*
X132575000Y-112595000D03*
D64*
X197105000Y-123525000D03*
X195835000Y-123525000D03*
X194565000Y-123525000D03*
X193295000Y-123525000D03*
X193295000Y-128475000D03*
X194565000Y-128475000D03*
X195835000Y-128475000D03*
X197105000Y-128475000D03*
D56*
X161925000Y-85895000D03*
X161925000Y-87165000D03*
X161925000Y-88435000D03*
X161925000Y-89705000D03*
X166875000Y-89705000D03*
X166875000Y-88435000D03*
X166875000Y-87165000D03*
X166875000Y-85895000D03*
D65*
X172831000Y-87912000D03*
X184769000Y-87912000D03*
D66*
X178800000Y-83530500D03*
X178800000Y-92293500D03*
X183245000Y-83530500D03*
X174355000Y-83530500D03*
D67*
X69240000Y-75460000D03*
D68*
X85900000Y-78000000D03*
D69*
X85900000Y-75460000D03*
X85900000Y-72920000D03*
D70*
X141300000Y-102500000D03*
D27*
X143840000Y-105040000D03*
X138760000Y-105040000D03*
X138760000Y-99960000D03*
X143840000Y-99960000D03*
D51*
X164325000Y-82900000D03*
X162675000Y-82900000D03*
D56*
X166625000Y-108795000D03*
X166625000Y-110065000D03*
X166625000Y-111335000D03*
X166625000Y-112605000D03*
X171575000Y-112605000D03*
X171575000Y-111335000D03*
X171575000Y-110065000D03*
X171575000Y-108795000D03*
D71*
X169100000Y-110700000D03*
D60*
X123200000Y-70140000D03*
D61*
X123200000Y-67600000D03*
X123200000Y-65060000D03*
D27*
X194600000Y-113300000D03*
X192060000Y-115840000D03*
X192060000Y-110760000D03*
X197140000Y-115840000D03*
X197140000Y-110760000D03*
D23*
X84000000Y-65600000D03*
D19*
X84000000Y-67600000D03*
D72*
X88850000Y-136037500D03*
X90750000Y-136037500D03*
X89800000Y-134162500D03*
D51*
X189525000Y-84900000D03*
X187875000Y-84900000D03*
D73*
X194650000Y-137300000D03*
X192750000Y-137300000D03*
D56*
X150125000Y-123790000D03*
X150125000Y-125060000D03*
X150125000Y-126330000D03*
X150125000Y-127600000D03*
X155075000Y-127600000D03*
X155075000Y-126330000D03*
X155075000Y-125060000D03*
X155075000Y-123790000D03*
D53*
X147200000Y-126725000D03*
X147200000Y-125075000D03*
D41*
X187825000Y-88100000D03*
X189375000Y-88100000D03*
D72*
X89250000Y-122737500D03*
X91150000Y-122737500D03*
X90200000Y-120862500D03*
D53*
X147200000Y-123425000D03*
X147200000Y-121775000D03*
D17*
X169900000Y-87075000D03*
X169900000Y-85525000D03*
D53*
X169900000Y-90525000D03*
X169900000Y-88875000D03*
M02*
