G04 #@! TF.GenerationSoftware,KiCad,Pcbnew,(5.1.9)-1*
G04 #@! TF.CreationDate,2022-01-02T16:08:30+01:00*
G04 #@! TF.ProjectId,RF_frequency_modulator,52465f66-7265-4717-9565-6e63795f6d6f,1.3*
G04 #@! TF.SameCoordinates,Original*
G04 #@! TF.FileFunction,Legend,Top*
G04 #@! TF.FilePolarity,Positive*
%FSLAX46Y46*%
G04 Gerber Fmt 4.6, Leading zero omitted, Abs format (unit mm)*
G04 Created by KiCad (PCBNEW (5.1.9)-1) date 2022-01-02 16:08:30*
%MOMM*%
%LPD*%
G01*
G04 APERTURE LIST*
%ADD10C,0.300000*%
%ADD11C,0.150000*%
%ADD12C,0.250000*%
%ADD13C,0.120000*%
%ADD14C,1.000000*%
%ADD15C,0.600000*%
G04 APERTURE END LIST*
D10*
X132571428Y-130607142D02*
X133714285Y-130607142D01*
X133142857Y-131178571D02*
X133142857Y-130035714D01*
X135142857Y-129678571D02*
X134428571Y-129678571D01*
X134357142Y-130392857D01*
X134428571Y-130321428D01*
X134571428Y-130250000D01*
X134928571Y-130250000D01*
X135071428Y-130321428D01*
X135142857Y-130392857D01*
X135214285Y-130535714D01*
X135214285Y-130892857D01*
X135142857Y-131035714D01*
X135071428Y-131107142D01*
X134928571Y-131178571D01*
X134571428Y-131178571D01*
X134428571Y-131107142D01*
X134357142Y-131035714D01*
X135642857Y-129678571D02*
X136142857Y-131178571D01*
X136642857Y-129678571D01*
X133357142Y-126750000D02*
X133214285Y-126678571D01*
X133000000Y-126678571D01*
X132785714Y-126750000D01*
X132642857Y-126892857D01*
X132571428Y-127035714D01*
X132500000Y-127321428D01*
X132500000Y-127535714D01*
X132571428Y-127821428D01*
X132642857Y-127964285D01*
X132785714Y-128107142D01*
X133000000Y-128178571D01*
X133142857Y-128178571D01*
X133357142Y-128107142D01*
X133428571Y-128035714D01*
X133428571Y-127535714D01*
X133142857Y-127535714D01*
X134071428Y-128178571D02*
X134071428Y-126678571D01*
X134928571Y-128178571D01*
X134928571Y-126678571D01*
X135642857Y-128178571D02*
X135642857Y-126678571D01*
X136000000Y-126678571D01*
X136214285Y-126750000D01*
X136357142Y-126892857D01*
X136428571Y-127035714D01*
X136500000Y-127321428D01*
X136500000Y-127535714D01*
X136428571Y-127821428D01*
X136357142Y-127964285D01*
X136214285Y-128107142D01*
X136000000Y-128178571D01*
X135642857Y-128178571D01*
X132571428Y-124607142D02*
X133714285Y-124607142D01*
X135142857Y-123678571D02*
X134428571Y-123678571D01*
X134357142Y-124392857D01*
X134428571Y-124321428D01*
X134571428Y-124250000D01*
X134928571Y-124250000D01*
X135071428Y-124321428D01*
X135142857Y-124392857D01*
X135214285Y-124535714D01*
X135214285Y-124892857D01*
X135142857Y-125035714D01*
X135071428Y-125107142D01*
X134928571Y-125178571D01*
X134571428Y-125178571D01*
X134428571Y-125107142D01*
X134357142Y-125035714D01*
X135642857Y-123678571D02*
X136142857Y-125178571D01*
X136642857Y-123678571D01*
D11*
X170600000Y-117971428D02*
X171361904Y-117971428D01*
X170980952Y-118352380D02*
X170980952Y-117590476D01*
X171742857Y-117352380D02*
X172361904Y-117352380D01*
X172028571Y-117733333D01*
X172171428Y-117733333D01*
X172266666Y-117780952D01*
X172314285Y-117828571D01*
X172361904Y-117923809D01*
X172361904Y-118161904D01*
X172314285Y-118257142D01*
X172266666Y-118304761D01*
X172171428Y-118352380D01*
X171885714Y-118352380D01*
X171790476Y-118304761D01*
X171742857Y-118257142D01*
X172790476Y-118257142D02*
X172838095Y-118304761D01*
X172790476Y-118352380D01*
X172742857Y-118304761D01*
X172790476Y-118257142D01*
X172790476Y-118352380D01*
X173171428Y-117352380D02*
X173790476Y-117352380D01*
X173457142Y-117733333D01*
X173600000Y-117733333D01*
X173695238Y-117780952D01*
X173742857Y-117828571D01*
X173790476Y-117923809D01*
X173790476Y-118161904D01*
X173742857Y-118257142D01*
X173695238Y-118304761D01*
X173600000Y-118352380D01*
X173314285Y-118352380D01*
X173219047Y-118304761D01*
X173171428Y-118257142D01*
X174076190Y-117352380D02*
X174409523Y-118352380D01*
X174742857Y-117352380D01*
D12*
X121876785Y-50678571D02*
X121376785Y-49964285D01*
X121019642Y-50678571D02*
X121019642Y-49178571D01*
X121591071Y-49178571D01*
X121733928Y-49250000D01*
X121805357Y-49321428D01*
X121876785Y-49464285D01*
X121876785Y-49678571D01*
X121805357Y-49821428D01*
X121733928Y-49892857D01*
X121591071Y-49964285D01*
X121019642Y-49964285D01*
X123019642Y-49892857D02*
X122519642Y-49892857D01*
X122519642Y-50678571D02*
X122519642Y-49178571D01*
X123233928Y-49178571D01*
X125448214Y-49892857D02*
X124948214Y-49892857D01*
X124948214Y-50678571D02*
X124948214Y-49178571D01*
X125662500Y-49178571D01*
X126233928Y-50678571D02*
X126233928Y-49678571D01*
X126233928Y-49964285D02*
X126305357Y-49821428D01*
X126376785Y-49750000D01*
X126519642Y-49678571D01*
X126662500Y-49678571D01*
X127733928Y-50607142D02*
X127591071Y-50678571D01*
X127305357Y-50678571D01*
X127162500Y-50607142D01*
X127091071Y-50464285D01*
X127091071Y-49892857D01*
X127162500Y-49750000D01*
X127305357Y-49678571D01*
X127591071Y-49678571D01*
X127733928Y-49750000D01*
X127805357Y-49892857D01*
X127805357Y-50035714D01*
X127091071Y-50178571D01*
X129091071Y-49678571D02*
X129091071Y-51178571D01*
X129091071Y-50607142D02*
X128948214Y-50678571D01*
X128662500Y-50678571D01*
X128519642Y-50607142D01*
X128448214Y-50535714D01*
X128376785Y-50392857D01*
X128376785Y-49964285D01*
X128448214Y-49821428D01*
X128519642Y-49750000D01*
X128662500Y-49678571D01*
X128948214Y-49678571D01*
X129091071Y-49750000D01*
X130448214Y-49678571D02*
X130448214Y-50678571D01*
X129805357Y-49678571D02*
X129805357Y-50464285D01*
X129876785Y-50607142D01*
X130019642Y-50678571D01*
X130233928Y-50678571D01*
X130376785Y-50607142D01*
X130448214Y-50535714D01*
X131733928Y-50607142D02*
X131591071Y-50678571D01*
X131305357Y-50678571D01*
X131162500Y-50607142D01*
X131091071Y-50464285D01*
X131091071Y-49892857D01*
X131162500Y-49750000D01*
X131305357Y-49678571D01*
X131591071Y-49678571D01*
X131733928Y-49750000D01*
X131805357Y-49892857D01*
X131805357Y-50035714D01*
X131091071Y-50178571D01*
X132448214Y-49678571D02*
X132448214Y-50678571D01*
X132448214Y-49821428D02*
X132519642Y-49750000D01*
X132662500Y-49678571D01*
X132876785Y-49678571D01*
X133019642Y-49750000D01*
X133091071Y-49892857D01*
X133091071Y-50678571D01*
X134448214Y-50607142D02*
X134305357Y-50678571D01*
X134019642Y-50678571D01*
X133876785Y-50607142D01*
X133805357Y-50535714D01*
X133733928Y-50392857D01*
X133733928Y-49964285D01*
X133805357Y-49821428D01*
X133876785Y-49750000D01*
X134019642Y-49678571D01*
X134305357Y-49678571D01*
X134448214Y-49750000D01*
X134948214Y-49678571D02*
X135305357Y-50678571D01*
X135662500Y-49678571D02*
X135305357Y-50678571D01*
X135162500Y-51035714D01*
X135091071Y-51107142D01*
X134948214Y-51178571D01*
X137376785Y-50678571D02*
X137376785Y-49178571D01*
X137876785Y-50250000D01*
X138376785Y-49178571D01*
X138376785Y-50678571D01*
X139305357Y-50678571D02*
X139162500Y-50607142D01*
X139091071Y-50535714D01*
X139019642Y-50392857D01*
X139019642Y-49964285D01*
X139091071Y-49821428D01*
X139162500Y-49750000D01*
X139305357Y-49678571D01*
X139519642Y-49678571D01*
X139662500Y-49750000D01*
X139733928Y-49821428D01*
X139805357Y-49964285D01*
X139805357Y-50392857D01*
X139733928Y-50535714D01*
X139662500Y-50607142D01*
X139519642Y-50678571D01*
X139305357Y-50678571D01*
X141091071Y-50678571D02*
X141091071Y-49178571D01*
X141091071Y-50607142D02*
X140948214Y-50678571D01*
X140662500Y-50678571D01*
X140519642Y-50607142D01*
X140448214Y-50535714D01*
X140376785Y-50392857D01*
X140376785Y-49964285D01*
X140448214Y-49821428D01*
X140519642Y-49750000D01*
X140662500Y-49678571D01*
X140948214Y-49678571D01*
X141091071Y-49750000D01*
X142448214Y-49678571D02*
X142448214Y-50678571D01*
X141805357Y-49678571D02*
X141805357Y-50464285D01*
X141876785Y-50607142D01*
X142019642Y-50678571D01*
X142233928Y-50678571D01*
X142376785Y-50607142D01*
X142448214Y-50535714D01*
X143376785Y-50678571D02*
X143233928Y-50607142D01*
X143162500Y-50464285D01*
X143162500Y-49178571D01*
X144591071Y-50678571D02*
X144591071Y-49892857D01*
X144519642Y-49750000D01*
X144376785Y-49678571D01*
X144091071Y-49678571D01*
X143948214Y-49750000D01*
X144591071Y-50607142D02*
X144448214Y-50678571D01*
X144091071Y-50678571D01*
X143948214Y-50607142D01*
X143876785Y-50464285D01*
X143876785Y-50321428D01*
X143948214Y-50178571D01*
X144091071Y-50107142D01*
X144448214Y-50107142D01*
X144591071Y-50035714D01*
X145091071Y-49678571D02*
X145662500Y-49678571D01*
X145305357Y-49178571D02*
X145305357Y-50464285D01*
X145376785Y-50607142D01*
X145519642Y-50678571D01*
X145662500Y-50678571D01*
X146376785Y-50678571D02*
X146233928Y-50607142D01*
X146162500Y-50535714D01*
X146091071Y-50392857D01*
X146091071Y-49964285D01*
X146162500Y-49821428D01*
X146233928Y-49750000D01*
X146376785Y-49678571D01*
X146591071Y-49678571D01*
X146733928Y-49750000D01*
X146805357Y-49821428D01*
X146876785Y-49964285D01*
X146876785Y-50392857D01*
X146805357Y-50535714D01*
X146733928Y-50607142D01*
X146591071Y-50678571D01*
X146376785Y-50678571D01*
X147519642Y-50678571D02*
X147519642Y-49678571D01*
X147519642Y-49964285D02*
X147591071Y-49821428D01*
X147662500Y-49750000D01*
X147805357Y-49678571D01*
X147948214Y-49678571D01*
X121805357Y-53178571D02*
X120948214Y-53178571D01*
X121376785Y-53178571D02*
X121376785Y-51678571D01*
X121233928Y-51892857D01*
X121091071Y-52035714D01*
X120948214Y-52107142D01*
X122733928Y-51678571D02*
X122876785Y-51678571D01*
X123019642Y-51750000D01*
X123091071Y-51821428D01*
X123162500Y-51964285D01*
X123233928Y-52250000D01*
X123233928Y-52607142D01*
X123162500Y-52892857D01*
X123091071Y-53035714D01*
X123019642Y-53107142D01*
X122876785Y-53178571D01*
X122733928Y-53178571D01*
X122591071Y-53107142D01*
X122519642Y-53035714D01*
X122448214Y-52892857D01*
X122376785Y-52607142D01*
X122376785Y-52250000D01*
X122448214Y-51964285D01*
X122519642Y-51821428D01*
X122591071Y-51750000D01*
X122733928Y-51678571D01*
X124162500Y-51678571D02*
X124305357Y-51678571D01*
X124448214Y-51750000D01*
X124519642Y-51821428D01*
X124591071Y-51964285D01*
X124662500Y-52250000D01*
X124662500Y-52607142D01*
X124591071Y-52892857D01*
X124519642Y-53035714D01*
X124448214Y-53107142D01*
X124305357Y-53178571D01*
X124162500Y-53178571D01*
X124019642Y-53107142D01*
X123948214Y-53035714D01*
X123876785Y-52892857D01*
X123805357Y-52607142D01*
X123805357Y-52250000D01*
X123876785Y-51964285D01*
X123948214Y-51821428D01*
X124019642Y-51750000D01*
X124162500Y-51678571D01*
X125305357Y-52607142D02*
X126448214Y-52607142D01*
X127948214Y-53178571D02*
X127091071Y-53178571D01*
X127519642Y-53178571D02*
X127519642Y-51678571D01*
X127376785Y-51892857D01*
X127233928Y-52035714D01*
X127091071Y-52107142D01*
X129233928Y-52178571D02*
X129233928Y-53178571D01*
X128876785Y-51607142D02*
X128519642Y-52678571D01*
X129448214Y-52678571D01*
X130305357Y-51678571D02*
X130448214Y-51678571D01*
X130591071Y-51750000D01*
X130662500Y-51821428D01*
X130733928Y-51964285D01*
X130805357Y-52250000D01*
X130805357Y-52607142D01*
X130733928Y-52892857D01*
X130662500Y-53035714D01*
X130591071Y-53107142D01*
X130448214Y-53178571D01*
X130305357Y-53178571D01*
X130162500Y-53107142D01*
X130091071Y-53035714D01*
X130019642Y-52892857D01*
X129948214Y-52607142D01*
X129948214Y-52250000D01*
X130019642Y-51964285D01*
X130091071Y-51821428D01*
X130162500Y-51750000D01*
X130305357Y-51678571D01*
X132591071Y-53178571D02*
X132591071Y-51678571D01*
X133091071Y-52750000D01*
X133591071Y-51678571D01*
X133591071Y-53178571D01*
X134305357Y-53178571D02*
X134305357Y-51678571D01*
X134305357Y-52392857D02*
X135162500Y-52392857D01*
X135162500Y-53178571D02*
X135162500Y-51678571D01*
X135733928Y-52178571D02*
X136519642Y-52178571D01*
X135733928Y-53178571D01*
X136519642Y-53178571D01*
X121805357Y-55678571D02*
X120948214Y-55678571D01*
X121376785Y-55678571D02*
X121376785Y-54178571D01*
X121233928Y-54392857D01*
X121091071Y-54535714D01*
X120948214Y-54607142D01*
X122376785Y-54321428D02*
X122448214Y-54250000D01*
X122591071Y-54178571D01*
X122948214Y-54178571D01*
X123091071Y-54250000D01*
X123162500Y-54321428D01*
X123233928Y-54464285D01*
X123233928Y-54607142D01*
X123162500Y-54821428D01*
X122305357Y-55678571D01*
X123233928Y-55678571D01*
X124948214Y-54107142D02*
X123662500Y-56035714D01*
X125376785Y-54321428D02*
X125448214Y-54250000D01*
X125591071Y-54178571D01*
X125948214Y-54178571D01*
X126091071Y-54250000D01*
X126162500Y-54321428D01*
X126233928Y-54464285D01*
X126233928Y-54607142D01*
X126162500Y-54821428D01*
X125305357Y-55678571D01*
X126233928Y-55678571D01*
X127162500Y-54178571D02*
X127305357Y-54178571D01*
X127448214Y-54250000D01*
X127519642Y-54321428D01*
X127591071Y-54464285D01*
X127662500Y-54750000D01*
X127662500Y-55107142D01*
X127591071Y-55392857D01*
X127519642Y-55535714D01*
X127448214Y-55607142D01*
X127305357Y-55678571D01*
X127162500Y-55678571D01*
X127019642Y-55607142D01*
X126948214Y-55535714D01*
X126876785Y-55392857D01*
X126805357Y-55107142D01*
X126805357Y-54750000D01*
X126876785Y-54464285D01*
X126948214Y-54321428D01*
X127019642Y-54250000D01*
X127162500Y-54178571D01*
X128233928Y-54321428D02*
X128305357Y-54250000D01*
X128448214Y-54178571D01*
X128805357Y-54178571D01*
X128948214Y-54250000D01*
X129019642Y-54321428D01*
X129091071Y-54464285D01*
X129091071Y-54607142D01*
X129019642Y-54821428D01*
X128162500Y-55678571D01*
X129091071Y-55678571D01*
X130519642Y-55678571D02*
X129662500Y-55678571D01*
X130091071Y-55678571D02*
X130091071Y-54178571D01*
X129948214Y-54392857D01*
X129805357Y-54535714D01*
X129662500Y-54607142D01*
X133162500Y-55678571D02*
X132662500Y-54964285D01*
X132305357Y-55678571D02*
X132305357Y-54178571D01*
X132876785Y-54178571D01*
X133019642Y-54250000D01*
X133091071Y-54321428D01*
X133162500Y-54464285D01*
X133162500Y-54678571D01*
X133091071Y-54821428D01*
X133019642Y-54892857D01*
X132876785Y-54964285D01*
X132305357Y-54964285D01*
X134376785Y-55607142D02*
X134233928Y-55678571D01*
X133948214Y-55678571D01*
X133805357Y-55607142D01*
X133733928Y-55464285D01*
X133733928Y-54892857D01*
X133805357Y-54750000D01*
X133948214Y-54678571D01*
X134233928Y-54678571D01*
X134376785Y-54750000D01*
X134448214Y-54892857D01*
X134448214Y-55035714D01*
X133733928Y-55178571D01*
X134948214Y-54678571D02*
X135305357Y-55678571D01*
X135662500Y-54678571D01*
X136233928Y-55678571D02*
X136233928Y-54678571D01*
X136233928Y-54178571D02*
X136162500Y-54250000D01*
X136233928Y-54321428D01*
X136305357Y-54250000D01*
X136233928Y-54178571D01*
X136233928Y-54321428D01*
X136876785Y-55607142D02*
X137019642Y-55678571D01*
X137305357Y-55678571D01*
X137448214Y-55607142D01*
X137519642Y-55464285D01*
X137519642Y-55392857D01*
X137448214Y-55250000D01*
X137305357Y-55178571D01*
X137091071Y-55178571D01*
X136948214Y-55107142D01*
X136876785Y-54964285D01*
X136876785Y-54892857D01*
X136948214Y-54750000D01*
X137091071Y-54678571D01*
X137305357Y-54678571D01*
X137448214Y-54750000D01*
X138162500Y-55678571D02*
X138162500Y-54678571D01*
X138162500Y-54178571D02*
X138091071Y-54250000D01*
X138162500Y-54321428D01*
X138233928Y-54250000D01*
X138162500Y-54178571D01*
X138162500Y-54321428D01*
X139091071Y-55678571D02*
X138948214Y-55607142D01*
X138876785Y-55535714D01*
X138805357Y-55392857D01*
X138805357Y-54964285D01*
X138876785Y-54821428D01*
X138948214Y-54750000D01*
X139091071Y-54678571D01*
X139305357Y-54678571D01*
X139448214Y-54750000D01*
X139519642Y-54821428D01*
X139591071Y-54964285D01*
X139591071Y-55392857D01*
X139519642Y-55535714D01*
X139448214Y-55607142D01*
X139305357Y-55678571D01*
X139091071Y-55678571D01*
X140233928Y-54678571D02*
X140233928Y-55678571D01*
X140233928Y-54821428D02*
X140305357Y-54750000D01*
X140448214Y-54678571D01*
X140662500Y-54678571D01*
X140805357Y-54750000D01*
X140876785Y-54892857D01*
X140876785Y-55678571D01*
X143519642Y-55678571D02*
X142662500Y-55678571D01*
X143091071Y-55678571D02*
X143091071Y-54178571D01*
X142948214Y-54392857D01*
X142805357Y-54535714D01*
X142662500Y-54607142D01*
X144162500Y-55535714D02*
X144233928Y-55607142D01*
X144162500Y-55678571D01*
X144091071Y-55607142D01*
X144162500Y-55535714D01*
X144162500Y-55678571D01*
X144733928Y-54178571D02*
X145662500Y-54178571D01*
X145162500Y-54750000D01*
X145376785Y-54750000D01*
X145519642Y-54821428D01*
X145591071Y-54892857D01*
X145662500Y-55035714D01*
X145662500Y-55392857D01*
X145591071Y-55535714D01*
X145519642Y-55607142D01*
X145376785Y-55678571D01*
X144948214Y-55678571D01*
X144805357Y-55607142D01*
X144733928Y-55535714D01*
D13*
X172750000Y-95345000D02*
X169850000Y-95345000D01*
X172750000Y-102055000D02*
X169850000Y-102055000D01*
X167945000Y-97250000D02*
X167945000Y-100150000D01*
X174655000Y-97250000D02*
X174655000Y-100150000D01*
X184600000Y-117490000D02*
X182800000Y-117490000D01*
X182800000Y-120710000D02*
X185250000Y-120710000D01*
X85340000Y-47833000D02*
X85340000Y-54183000D01*
X80040000Y-47833000D02*
X85340000Y-47833000D01*
X80040000Y-142067000D02*
X80040000Y-47833000D01*
X85340000Y-142067000D02*
X80040000Y-142067000D01*
X85340000Y-142067000D02*
X85340000Y-135717000D01*
X103360000Y-99102064D02*
X103360000Y-97897936D01*
X100640000Y-99102064D02*
X100640000Y-97897936D01*
X100640000Y-92002064D02*
X100640000Y-90797936D01*
X103360000Y-92002064D02*
X103360000Y-90797936D01*
X103860000Y-117397936D02*
X103860000Y-118602064D01*
X101140000Y-117397936D02*
X101140000Y-118602064D01*
X101640000Y-130397936D02*
X101640000Y-131602064D01*
X104360000Y-130397936D02*
X104360000Y-131602064D01*
X108910000Y-122897936D02*
X108910000Y-124102064D01*
X107090000Y-122897936D02*
X107090000Y-124102064D01*
X107090000Y-135897936D02*
X107090000Y-137102064D01*
X108910000Y-135897936D02*
X108910000Y-137102064D01*
X108162779Y-99490000D02*
X107837221Y-99490000D01*
X108162779Y-100510000D02*
X107837221Y-100510000D01*
X108087221Y-90490000D02*
X108412779Y-90490000D01*
X108087221Y-91510000D02*
X108412779Y-91510000D01*
X111640000Y-99102064D02*
X111640000Y-97897936D01*
X114360000Y-99102064D02*
X114360000Y-97897936D01*
X114360000Y-92102064D02*
X114360000Y-90897936D01*
X111640000Y-92102064D02*
X111640000Y-90897936D01*
X113440000Y-117397936D02*
X113440000Y-118602064D01*
X116160000Y-117397936D02*
X116160000Y-118602064D01*
X115860000Y-130397936D02*
X115860000Y-131602064D01*
X113140000Y-130397936D02*
X113140000Y-131602064D01*
X158362779Y-110790000D02*
X158037221Y-110790000D01*
X158362779Y-111810000D02*
X158037221Y-111810000D01*
X167162779Y-111810000D02*
X166837221Y-111810000D01*
X167162779Y-110790000D02*
X166837221Y-110790000D01*
X170910000Y-106397936D02*
X170910000Y-107602064D01*
X169090000Y-106397936D02*
X169090000Y-107602064D01*
X225810000Y-109241422D02*
X225810000Y-109758578D01*
X224390000Y-109241422D02*
X224390000Y-109758578D01*
X179590000Y-106602064D02*
X179590000Y-105397936D01*
X181410000Y-106602064D02*
X181410000Y-105397936D01*
X182980000Y-96680000D02*
X186220000Y-96680000D01*
X182980000Y-104120000D02*
X186220000Y-104120000D01*
X186220000Y-104120000D02*
X186220000Y-96680000D01*
X182980000Y-104120000D02*
X182980000Y-96680000D01*
X178858578Y-112610000D02*
X178341422Y-112610000D01*
X178858578Y-111190000D02*
X178341422Y-111190000D01*
X191710000Y-106602064D02*
X191710000Y-105397936D01*
X189890000Y-106602064D02*
X189890000Y-105397936D01*
X185658578Y-111190000D02*
X185141422Y-111190000D01*
X185658578Y-112610000D02*
X185141422Y-112610000D01*
X193337221Y-110010000D02*
X193662779Y-110010000D01*
X193337221Y-108990000D02*
X193662779Y-108990000D01*
X202762779Y-103610000D02*
X202437221Y-103610000D01*
X202762779Y-102590000D02*
X202437221Y-102590000D01*
X208397936Y-114510000D02*
X209602064Y-114510000D01*
X208397936Y-112690000D02*
X209602064Y-112690000D01*
X183310000Y-115358578D02*
X183310000Y-114841422D01*
X181890000Y-115358578D02*
X181890000Y-114841422D01*
X220990000Y-109662779D02*
X220990000Y-109337221D01*
X222010000Y-109662779D02*
X222010000Y-109337221D01*
X228710000Y-105362779D02*
X228710000Y-105037221D01*
X227690000Y-105362779D02*
X227690000Y-105037221D01*
X182410000Y-122862779D02*
X182410000Y-122537221D01*
X181390000Y-122862779D02*
X181390000Y-122537221D01*
X190120000Y-139000000D02*
G75*
G03*
X190120000Y-139000000I-2620000J0D01*
G01*
X188540000Y-139000000D02*
X190080000Y-139000000D01*
X184920000Y-139000000D02*
X186460000Y-139000000D01*
X188540000Y-138960000D02*
X190080000Y-138960000D01*
X184920000Y-138960000D02*
X186460000Y-138960000D01*
X184921000Y-138920000D02*
X186460000Y-138920000D01*
X188540000Y-138920000D02*
X190079000Y-138920000D01*
X184922000Y-138880000D02*
X186460000Y-138880000D01*
X188540000Y-138880000D02*
X190078000Y-138880000D01*
X184924000Y-138840000D02*
X186460000Y-138840000D01*
X188540000Y-138840000D02*
X190076000Y-138840000D01*
X184927000Y-138800000D02*
X186460000Y-138800000D01*
X188540000Y-138800000D02*
X190073000Y-138800000D01*
X184931000Y-138760000D02*
X186460000Y-138760000D01*
X188540000Y-138760000D02*
X190069000Y-138760000D01*
X184935000Y-138720000D02*
X186460000Y-138720000D01*
X188540000Y-138720000D02*
X190065000Y-138720000D01*
X184939000Y-138680000D02*
X186460000Y-138680000D01*
X188540000Y-138680000D02*
X190061000Y-138680000D01*
X184944000Y-138640000D02*
X186460000Y-138640000D01*
X188540000Y-138640000D02*
X190056000Y-138640000D01*
X184950000Y-138600000D02*
X186460000Y-138600000D01*
X188540000Y-138600000D02*
X190050000Y-138600000D01*
X184957000Y-138560000D02*
X186460000Y-138560000D01*
X188540000Y-138560000D02*
X190043000Y-138560000D01*
X184964000Y-138520000D02*
X186460000Y-138520000D01*
X188540000Y-138520000D02*
X190036000Y-138520000D01*
X184972000Y-138480000D02*
X186460000Y-138480000D01*
X188540000Y-138480000D02*
X190028000Y-138480000D01*
X184980000Y-138440000D02*
X186460000Y-138440000D01*
X188540000Y-138440000D02*
X190020000Y-138440000D01*
X184989000Y-138400000D02*
X186460000Y-138400000D01*
X188540000Y-138400000D02*
X190011000Y-138400000D01*
X184999000Y-138360000D02*
X186460000Y-138360000D01*
X188540000Y-138360000D02*
X190001000Y-138360000D01*
X185009000Y-138320000D02*
X186460000Y-138320000D01*
X188540000Y-138320000D02*
X189991000Y-138320000D01*
X185020000Y-138279000D02*
X186460000Y-138279000D01*
X188540000Y-138279000D02*
X189980000Y-138279000D01*
X185032000Y-138239000D02*
X186460000Y-138239000D01*
X188540000Y-138239000D02*
X189968000Y-138239000D01*
X185045000Y-138199000D02*
X186460000Y-138199000D01*
X188540000Y-138199000D02*
X189955000Y-138199000D01*
X185058000Y-138159000D02*
X186460000Y-138159000D01*
X188540000Y-138159000D02*
X189942000Y-138159000D01*
X185072000Y-138119000D02*
X186460000Y-138119000D01*
X188540000Y-138119000D02*
X189928000Y-138119000D01*
X185086000Y-138079000D02*
X186460000Y-138079000D01*
X188540000Y-138079000D02*
X189914000Y-138079000D01*
X185102000Y-138039000D02*
X186460000Y-138039000D01*
X188540000Y-138039000D02*
X189898000Y-138039000D01*
X185118000Y-137999000D02*
X186460000Y-137999000D01*
X188540000Y-137999000D02*
X189882000Y-137999000D01*
X185135000Y-137959000D02*
X186460000Y-137959000D01*
X188540000Y-137959000D02*
X189865000Y-137959000D01*
X185152000Y-137919000D02*
X186460000Y-137919000D01*
X188540000Y-137919000D02*
X189848000Y-137919000D01*
X185171000Y-137879000D02*
X186460000Y-137879000D01*
X188540000Y-137879000D02*
X189829000Y-137879000D01*
X185190000Y-137839000D02*
X186460000Y-137839000D01*
X188540000Y-137839000D02*
X189810000Y-137839000D01*
X185210000Y-137799000D02*
X186460000Y-137799000D01*
X188540000Y-137799000D02*
X189790000Y-137799000D01*
X185232000Y-137759000D02*
X186460000Y-137759000D01*
X188540000Y-137759000D02*
X189768000Y-137759000D01*
X185253000Y-137719000D02*
X186460000Y-137719000D01*
X188540000Y-137719000D02*
X189747000Y-137719000D01*
X185276000Y-137679000D02*
X186460000Y-137679000D01*
X188540000Y-137679000D02*
X189724000Y-137679000D01*
X185300000Y-137639000D02*
X186460000Y-137639000D01*
X188540000Y-137639000D02*
X189700000Y-137639000D01*
X185325000Y-137599000D02*
X186460000Y-137599000D01*
X188540000Y-137599000D02*
X189675000Y-137599000D01*
X185351000Y-137559000D02*
X186460000Y-137559000D01*
X188540000Y-137559000D02*
X189649000Y-137559000D01*
X185378000Y-137519000D02*
X186460000Y-137519000D01*
X188540000Y-137519000D02*
X189622000Y-137519000D01*
X185405000Y-137479000D02*
X186460000Y-137479000D01*
X188540000Y-137479000D02*
X189595000Y-137479000D01*
X185435000Y-137439000D02*
X186460000Y-137439000D01*
X188540000Y-137439000D02*
X189565000Y-137439000D01*
X185465000Y-137399000D02*
X186460000Y-137399000D01*
X188540000Y-137399000D02*
X189535000Y-137399000D01*
X185496000Y-137359000D02*
X186460000Y-137359000D01*
X188540000Y-137359000D02*
X189504000Y-137359000D01*
X185529000Y-137319000D02*
X186460000Y-137319000D01*
X188540000Y-137319000D02*
X189471000Y-137319000D01*
X185563000Y-137279000D02*
X186460000Y-137279000D01*
X188540000Y-137279000D02*
X189437000Y-137279000D01*
X185599000Y-137239000D02*
X186460000Y-137239000D01*
X188540000Y-137239000D02*
X189401000Y-137239000D01*
X185636000Y-137199000D02*
X186460000Y-137199000D01*
X188540000Y-137199000D02*
X189364000Y-137199000D01*
X185674000Y-137159000D02*
X186460000Y-137159000D01*
X188540000Y-137159000D02*
X189326000Y-137159000D01*
X185715000Y-137119000D02*
X186460000Y-137119000D01*
X188540000Y-137119000D02*
X189285000Y-137119000D01*
X185757000Y-137079000D02*
X186460000Y-137079000D01*
X188540000Y-137079000D02*
X189243000Y-137079000D01*
X185801000Y-137039000D02*
X186460000Y-137039000D01*
X188540000Y-137039000D02*
X189199000Y-137039000D01*
X185847000Y-136999000D02*
X186460000Y-136999000D01*
X188540000Y-136999000D02*
X189153000Y-136999000D01*
X185895000Y-136959000D02*
X189105000Y-136959000D01*
X185946000Y-136919000D02*
X189054000Y-136919000D01*
X186000000Y-136879000D02*
X189000000Y-136879000D01*
X186057000Y-136839000D02*
X188943000Y-136839000D01*
X186117000Y-136799000D02*
X188883000Y-136799000D01*
X186181000Y-136759000D02*
X188819000Y-136759000D01*
X186249000Y-136719000D02*
X188751000Y-136719000D01*
X186322000Y-136679000D02*
X188678000Y-136679000D01*
X186402000Y-136639000D02*
X188598000Y-136639000D01*
X186489000Y-136599000D02*
X188511000Y-136599000D01*
X186585000Y-136559000D02*
X188415000Y-136559000D01*
X186695000Y-136519000D02*
X188305000Y-136519000D01*
X186823000Y-136479000D02*
X188177000Y-136479000D01*
X186982000Y-136439000D02*
X188018000Y-136439000D01*
X187216000Y-136399000D02*
X187784000Y-136399000D01*
X186025000Y-141804775D02*
X186025000Y-141304775D01*
X185775000Y-141554775D02*
X186275000Y-141554775D01*
X180037221Y-136810000D02*
X180362779Y-136810000D01*
X180037221Y-135790000D02*
X180362779Y-135790000D01*
X169920000Y-139000000D02*
G75*
G03*
X169920000Y-139000000I-2620000J0D01*
G01*
X168340000Y-139000000D02*
X169880000Y-139000000D01*
X164720000Y-139000000D02*
X166260000Y-139000000D01*
X168340000Y-138960000D02*
X169880000Y-138960000D01*
X164720000Y-138960000D02*
X166260000Y-138960000D01*
X164721000Y-138920000D02*
X166260000Y-138920000D01*
X168340000Y-138920000D02*
X169879000Y-138920000D01*
X164722000Y-138880000D02*
X166260000Y-138880000D01*
X168340000Y-138880000D02*
X169878000Y-138880000D01*
X164724000Y-138840000D02*
X166260000Y-138840000D01*
X168340000Y-138840000D02*
X169876000Y-138840000D01*
X164727000Y-138800000D02*
X166260000Y-138800000D01*
X168340000Y-138800000D02*
X169873000Y-138800000D01*
X164731000Y-138760000D02*
X166260000Y-138760000D01*
X168340000Y-138760000D02*
X169869000Y-138760000D01*
X164735000Y-138720000D02*
X166260000Y-138720000D01*
X168340000Y-138720000D02*
X169865000Y-138720000D01*
X164739000Y-138680000D02*
X166260000Y-138680000D01*
X168340000Y-138680000D02*
X169861000Y-138680000D01*
X164744000Y-138640000D02*
X166260000Y-138640000D01*
X168340000Y-138640000D02*
X169856000Y-138640000D01*
X164750000Y-138600000D02*
X166260000Y-138600000D01*
X168340000Y-138600000D02*
X169850000Y-138600000D01*
X164757000Y-138560000D02*
X166260000Y-138560000D01*
X168340000Y-138560000D02*
X169843000Y-138560000D01*
X164764000Y-138520000D02*
X166260000Y-138520000D01*
X168340000Y-138520000D02*
X169836000Y-138520000D01*
X164772000Y-138480000D02*
X166260000Y-138480000D01*
X168340000Y-138480000D02*
X169828000Y-138480000D01*
X164780000Y-138440000D02*
X166260000Y-138440000D01*
X168340000Y-138440000D02*
X169820000Y-138440000D01*
X164789000Y-138400000D02*
X166260000Y-138400000D01*
X168340000Y-138400000D02*
X169811000Y-138400000D01*
X164799000Y-138360000D02*
X166260000Y-138360000D01*
X168340000Y-138360000D02*
X169801000Y-138360000D01*
X164809000Y-138320000D02*
X166260000Y-138320000D01*
X168340000Y-138320000D02*
X169791000Y-138320000D01*
X164820000Y-138279000D02*
X166260000Y-138279000D01*
X168340000Y-138279000D02*
X169780000Y-138279000D01*
X164832000Y-138239000D02*
X166260000Y-138239000D01*
X168340000Y-138239000D02*
X169768000Y-138239000D01*
X164845000Y-138199000D02*
X166260000Y-138199000D01*
X168340000Y-138199000D02*
X169755000Y-138199000D01*
X164858000Y-138159000D02*
X166260000Y-138159000D01*
X168340000Y-138159000D02*
X169742000Y-138159000D01*
X164872000Y-138119000D02*
X166260000Y-138119000D01*
X168340000Y-138119000D02*
X169728000Y-138119000D01*
X164886000Y-138079000D02*
X166260000Y-138079000D01*
X168340000Y-138079000D02*
X169714000Y-138079000D01*
X164902000Y-138039000D02*
X166260000Y-138039000D01*
X168340000Y-138039000D02*
X169698000Y-138039000D01*
X164918000Y-137999000D02*
X166260000Y-137999000D01*
X168340000Y-137999000D02*
X169682000Y-137999000D01*
X164935000Y-137959000D02*
X166260000Y-137959000D01*
X168340000Y-137959000D02*
X169665000Y-137959000D01*
X164952000Y-137919000D02*
X166260000Y-137919000D01*
X168340000Y-137919000D02*
X169648000Y-137919000D01*
X164971000Y-137879000D02*
X166260000Y-137879000D01*
X168340000Y-137879000D02*
X169629000Y-137879000D01*
X164990000Y-137839000D02*
X166260000Y-137839000D01*
X168340000Y-137839000D02*
X169610000Y-137839000D01*
X165010000Y-137799000D02*
X166260000Y-137799000D01*
X168340000Y-137799000D02*
X169590000Y-137799000D01*
X165032000Y-137759000D02*
X166260000Y-137759000D01*
X168340000Y-137759000D02*
X169568000Y-137759000D01*
X165053000Y-137719000D02*
X166260000Y-137719000D01*
X168340000Y-137719000D02*
X169547000Y-137719000D01*
X165076000Y-137679000D02*
X166260000Y-137679000D01*
X168340000Y-137679000D02*
X169524000Y-137679000D01*
X165100000Y-137639000D02*
X166260000Y-137639000D01*
X168340000Y-137639000D02*
X169500000Y-137639000D01*
X165125000Y-137599000D02*
X166260000Y-137599000D01*
X168340000Y-137599000D02*
X169475000Y-137599000D01*
X165151000Y-137559000D02*
X166260000Y-137559000D01*
X168340000Y-137559000D02*
X169449000Y-137559000D01*
X165178000Y-137519000D02*
X166260000Y-137519000D01*
X168340000Y-137519000D02*
X169422000Y-137519000D01*
X165205000Y-137479000D02*
X166260000Y-137479000D01*
X168340000Y-137479000D02*
X169395000Y-137479000D01*
X165235000Y-137439000D02*
X166260000Y-137439000D01*
X168340000Y-137439000D02*
X169365000Y-137439000D01*
X165265000Y-137399000D02*
X166260000Y-137399000D01*
X168340000Y-137399000D02*
X169335000Y-137399000D01*
X165296000Y-137359000D02*
X166260000Y-137359000D01*
X168340000Y-137359000D02*
X169304000Y-137359000D01*
X165329000Y-137319000D02*
X166260000Y-137319000D01*
X168340000Y-137319000D02*
X169271000Y-137319000D01*
X165363000Y-137279000D02*
X166260000Y-137279000D01*
X168340000Y-137279000D02*
X169237000Y-137279000D01*
X165399000Y-137239000D02*
X166260000Y-137239000D01*
X168340000Y-137239000D02*
X169201000Y-137239000D01*
X165436000Y-137199000D02*
X166260000Y-137199000D01*
X168340000Y-137199000D02*
X169164000Y-137199000D01*
X165474000Y-137159000D02*
X166260000Y-137159000D01*
X168340000Y-137159000D02*
X169126000Y-137159000D01*
X165515000Y-137119000D02*
X166260000Y-137119000D01*
X168340000Y-137119000D02*
X169085000Y-137119000D01*
X165557000Y-137079000D02*
X166260000Y-137079000D01*
X168340000Y-137079000D02*
X169043000Y-137079000D01*
X165601000Y-137039000D02*
X166260000Y-137039000D01*
X168340000Y-137039000D02*
X168999000Y-137039000D01*
X165647000Y-136999000D02*
X166260000Y-136999000D01*
X168340000Y-136999000D02*
X168953000Y-136999000D01*
X165695000Y-136959000D02*
X168905000Y-136959000D01*
X165746000Y-136919000D02*
X168854000Y-136919000D01*
X165800000Y-136879000D02*
X168800000Y-136879000D01*
X165857000Y-136839000D02*
X168743000Y-136839000D01*
X165917000Y-136799000D02*
X168683000Y-136799000D01*
X165981000Y-136759000D02*
X168619000Y-136759000D01*
X166049000Y-136719000D02*
X168551000Y-136719000D01*
X166122000Y-136679000D02*
X168478000Y-136679000D01*
X166202000Y-136639000D02*
X168398000Y-136639000D01*
X166289000Y-136599000D02*
X168311000Y-136599000D01*
X166385000Y-136559000D02*
X168215000Y-136559000D01*
X166495000Y-136519000D02*
X168105000Y-136519000D01*
X166623000Y-136479000D02*
X167977000Y-136479000D01*
X166782000Y-136439000D02*
X167818000Y-136439000D01*
X167016000Y-136399000D02*
X167584000Y-136399000D01*
X165825000Y-141804775D02*
X165825000Y-141304775D01*
X165575000Y-141554775D02*
X166075000Y-141554775D01*
X175137221Y-136810000D02*
X175462779Y-136810000D01*
X175137221Y-135790000D02*
X175462779Y-135790000D01*
X145775000Y-141554775D02*
X146275000Y-141554775D01*
X146025000Y-141804775D02*
X146025000Y-141304775D01*
X147216000Y-136399000D02*
X147784000Y-136399000D01*
X146982000Y-136439000D02*
X148018000Y-136439000D01*
X146823000Y-136479000D02*
X148177000Y-136479000D01*
X146695000Y-136519000D02*
X148305000Y-136519000D01*
X146585000Y-136559000D02*
X148415000Y-136559000D01*
X146489000Y-136599000D02*
X148511000Y-136599000D01*
X146402000Y-136639000D02*
X148598000Y-136639000D01*
X146322000Y-136679000D02*
X148678000Y-136679000D01*
X146249000Y-136719000D02*
X148751000Y-136719000D01*
X146181000Y-136759000D02*
X148819000Y-136759000D01*
X146117000Y-136799000D02*
X148883000Y-136799000D01*
X146057000Y-136839000D02*
X148943000Y-136839000D01*
X146000000Y-136879000D02*
X149000000Y-136879000D01*
X145946000Y-136919000D02*
X149054000Y-136919000D01*
X145895000Y-136959000D02*
X149105000Y-136959000D01*
X148540000Y-136999000D02*
X149153000Y-136999000D01*
X145847000Y-136999000D02*
X146460000Y-136999000D01*
X148540000Y-137039000D02*
X149199000Y-137039000D01*
X145801000Y-137039000D02*
X146460000Y-137039000D01*
X148540000Y-137079000D02*
X149243000Y-137079000D01*
X145757000Y-137079000D02*
X146460000Y-137079000D01*
X148540000Y-137119000D02*
X149285000Y-137119000D01*
X145715000Y-137119000D02*
X146460000Y-137119000D01*
X148540000Y-137159000D02*
X149326000Y-137159000D01*
X145674000Y-137159000D02*
X146460000Y-137159000D01*
X148540000Y-137199000D02*
X149364000Y-137199000D01*
X145636000Y-137199000D02*
X146460000Y-137199000D01*
X148540000Y-137239000D02*
X149401000Y-137239000D01*
X145599000Y-137239000D02*
X146460000Y-137239000D01*
X148540000Y-137279000D02*
X149437000Y-137279000D01*
X145563000Y-137279000D02*
X146460000Y-137279000D01*
X148540000Y-137319000D02*
X149471000Y-137319000D01*
X145529000Y-137319000D02*
X146460000Y-137319000D01*
X148540000Y-137359000D02*
X149504000Y-137359000D01*
X145496000Y-137359000D02*
X146460000Y-137359000D01*
X148540000Y-137399000D02*
X149535000Y-137399000D01*
X145465000Y-137399000D02*
X146460000Y-137399000D01*
X148540000Y-137439000D02*
X149565000Y-137439000D01*
X145435000Y-137439000D02*
X146460000Y-137439000D01*
X148540000Y-137479000D02*
X149595000Y-137479000D01*
X145405000Y-137479000D02*
X146460000Y-137479000D01*
X148540000Y-137519000D02*
X149622000Y-137519000D01*
X145378000Y-137519000D02*
X146460000Y-137519000D01*
X148540000Y-137559000D02*
X149649000Y-137559000D01*
X145351000Y-137559000D02*
X146460000Y-137559000D01*
X148540000Y-137599000D02*
X149675000Y-137599000D01*
X145325000Y-137599000D02*
X146460000Y-137599000D01*
X148540000Y-137639000D02*
X149700000Y-137639000D01*
X145300000Y-137639000D02*
X146460000Y-137639000D01*
X148540000Y-137679000D02*
X149724000Y-137679000D01*
X145276000Y-137679000D02*
X146460000Y-137679000D01*
X148540000Y-137719000D02*
X149747000Y-137719000D01*
X145253000Y-137719000D02*
X146460000Y-137719000D01*
X148540000Y-137759000D02*
X149768000Y-137759000D01*
X145232000Y-137759000D02*
X146460000Y-137759000D01*
X148540000Y-137799000D02*
X149790000Y-137799000D01*
X145210000Y-137799000D02*
X146460000Y-137799000D01*
X148540000Y-137839000D02*
X149810000Y-137839000D01*
X145190000Y-137839000D02*
X146460000Y-137839000D01*
X148540000Y-137879000D02*
X149829000Y-137879000D01*
X145171000Y-137879000D02*
X146460000Y-137879000D01*
X148540000Y-137919000D02*
X149848000Y-137919000D01*
X145152000Y-137919000D02*
X146460000Y-137919000D01*
X148540000Y-137959000D02*
X149865000Y-137959000D01*
X145135000Y-137959000D02*
X146460000Y-137959000D01*
X148540000Y-137999000D02*
X149882000Y-137999000D01*
X145118000Y-137999000D02*
X146460000Y-137999000D01*
X148540000Y-138039000D02*
X149898000Y-138039000D01*
X145102000Y-138039000D02*
X146460000Y-138039000D01*
X148540000Y-138079000D02*
X149914000Y-138079000D01*
X145086000Y-138079000D02*
X146460000Y-138079000D01*
X148540000Y-138119000D02*
X149928000Y-138119000D01*
X145072000Y-138119000D02*
X146460000Y-138119000D01*
X148540000Y-138159000D02*
X149942000Y-138159000D01*
X145058000Y-138159000D02*
X146460000Y-138159000D01*
X148540000Y-138199000D02*
X149955000Y-138199000D01*
X145045000Y-138199000D02*
X146460000Y-138199000D01*
X148540000Y-138239000D02*
X149968000Y-138239000D01*
X145032000Y-138239000D02*
X146460000Y-138239000D01*
X148540000Y-138279000D02*
X149980000Y-138279000D01*
X145020000Y-138279000D02*
X146460000Y-138279000D01*
X148540000Y-138320000D02*
X149991000Y-138320000D01*
X145009000Y-138320000D02*
X146460000Y-138320000D01*
X148540000Y-138360000D02*
X150001000Y-138360000D01*
X144999000Y-138360000D02*
X146460000Y-138360000D01*
X148540000Y-138400000D02*
X150011000Y-138400000D01*
X144989000Y-138400000D02*
X146460000Y-138400000D01*
X148540000Y-138440000D02*
X150020000Y-138440000D01*
X144980000Y-138440000D02*
X146460000Y-138440000D01*
X148540000Y-138480000D02*
X150028000Y-138480000D01*
X144972000Y-138480000D02*
X146460000Y-138480000D01*
X148540000Y-138520000D02*
X150036000Y-138520000D01*
X144964000Y-138520000D02*
X146460000Y-138520000D01*
X148540000Y-138560000D02*
X150043000Y-138560000D01*
X144957000Y-138560000D02*
X146460000Y-138560000D01*
X148540000Y-138600000D02*
X150050000Y-138600000D01*
X144950000Y-138600000D02*
X146460000Y-138600000D01*
X148540000Y-138640000D02*
X150056000Y-138640000D01*
X144944000Y-138640000D02*
X146460000Y-138640000D01*
X148540000Y-138680000D02*
X150061000Y-138680000D01*
X144939000Y-138680000D02*
X146460000Y-138680000D01*
X148540000Y-138720000D02*
X150065000Y-138720000D01*
X144935000Y-138720000D02*
X146460000Y-138720000D01*
X148540000Y-138760000D02*
X150069000Y-138760000D01*
X144931000Y-138760000D02*
X146460000Y-138760000D01*
X148540000Y-138800000D02*
X150073000Y-138800000D01*
X144927000Y-138800000D02*
X146460000Y-138800000D01*
X148540000Y-138840000D02*
X150076000Y-138840000D01*
X144924000Y-138840000D02*
X146460000Y-138840000D01*
X148540000Y-138880000D02*
X150078000Y-138880000D01*
X144922000Y-138880000D02*
X146460000Y-138880000D01*
X148540000Y-138920000D02*
X150079000Y-138920000D01*
X144921000Y-138920000D02*
X146460000Y-138920000D01*
X144920000Y-138960000D02*
X146460000Y-138960000D01*
X148540000Y-138960000D02*
X150080000Y-138960000D01*
X144920000Y-139000000D02*
X146460000Y-139000000D01*
X148540000Y-139000000D02*
X150080000Y-139000000D01*
X150120000Y-139000000D02*
G75*
G03*
X150120000Y-139000000I-2620000J0D01*
G01*
X154937221Y-135790000D02*
X155262779Y-135790000D01*
X154937221Y-136810000D02*
X155262779Y-136810000D01*
X129820000Y-139000000D02*
G75*
G03*
X129820000Y-139000000I-2620000J0D01*
G01*
X128240000Y-139000000D02*
X129780000Y-139000000D01*
X124620000Y-139000000D02*
X126160000Y-139000000D01*
X128240000Y-138960000D02*
X129780000Y-138960000D01*
X124620000Y-138960000D02*
X126160000Y-138960000D01*
X124621000Y-138920000D02*
X126160000Y-138920000D01*
X128240000Y-138920000D02*
X129779000Y-138920000D01*
X124622000Y-138880000D02*
X126160000Y-138880000D01*
X128240000Y-138880000D02*
X129778000Y-138880000D01*
X124624000Y-138840000D02*
X126160000Y-138840000D01*
X128240000Y-138840000D02*
X129776000Y-138840000D01*
X124627000Y-138800000D02*
X126160000Y-138800000D01*
X128240000Y-138800000D02*
X129773000Y-138800000D01*
X124631000Y-138760000D02*
X126160000Y-138760000D01*
X128240000Y-138760000D02*
X129769000Y-138760000D01*
X124635000Y-138720000D02*
X126160000Y-138720000D01*
X128240000Y-138720000D02*
X129765000Y-138720000D01*
X124639000Y-138680000D02*
X126160000Y-138680000D01*
X128240000Y-138680000D02*
X129761000Y-138680000D01*
X124644000Y-138640000D02*
X126160000Y-138640000D01*
X128240000Y-138640000D02*
X129756000Y-138640000D01*
X124650000Y-138600000D02*
X126160000Y-138600000D01*
X128240000Y-138600000D02*
X129750000Y-138600000D01*
X124657000Y-138560000D02*
X126160000Y-138560000D01*
X128240000Y-138560000D02*
X129743000Y-138560000D01*
X124664000Y-138520000D02*
X126160000Y-138520000D01*
X128240000Y-138520000D02*
X129736000Y-138520000D01*
X124672000Y-138480000D02*
X126160000Y-138480000D01*
X128240000Y-138480000D02*
X129728000Y-138480000D01*
X124680000Y-138440000D02*
X126160000Y-138440000D01*
X128240000Y-138440000D02*
X129720000Y-138440000D01*
X124689000Y-138400000D02*
X126160000Y-138400000D01*
X128240000Y-138400000D02*
X129711000Y-138400000D01*
X124699000Y-138360000D02*
X126160000Y-138360000D01*
X128240000Y-138360000D02*
X129701000Y-138360000D01*
X124709000Y-138320000D02*
X126160000Y-138320000D01*
X128240000Y-138320000D02*
X129691000Y-138320000D01*
X124720000Y-138279000D02*
X126160000Y-138279000D01*
X128240000Y-138279000D02*
X129680000Y-138279000D01*
X124732000Y-138239000D02*
X126160000Y-138239000D01*
X128240000Y-138239000D02*
X129668000Y-138239000D01*
X124745000Y-138199000D02*
X126160000Y-138199000D01*
X128240000Y-138199000D02*
X129655000Y-138199000D01*
X124758000Y-138159000D02*
X126160000Y-138159000D01*
X128240000Y-138159000D02*
X129642000Y-138159000D01*
X124772000Y-138119000D02*
X126160000Y-138119000D01*
X128240000Y-138119000D02*
X129628000Y-138119000D01*
X124786000Y-138079000D02*
X126160000Y-138079000D01*
X128240000Y-138079000D02*
X129614000Y-138079000D01*
X124802000Y-138039000D02*
X126160000Y-138039000D01*
X128240000Y-138039000D02*
X129598000Y-138039000D01*
X124818000Y-137999000D02*
X126160000Y-137999000D01*
X128240000Y-137999000D02*
X129582000Y-137999000D01*
X124835000Y-137959000D02*
X126160000Y-137959000D01*
X128240000Y-137959000D02*
X129565000Y-137959000D01*
X124852000Y-137919000D02*
X126160000Y-137919000D01*
X128240000Y-137919000D02*
X129548000Y-137919000D01*
X124871000Y-137879000D02*
X126160000Y-137879000D01*
X128240000Y-137879000D02*
X129529000Y-137879000D01*
X124890000Y-137839000D02*
X126160000Y-137839000D01*
X128240000Y-137839000D02*
X129510000Y-137839000D01*
X124910000Y-137799000D02*
X126160000Y-137799000D01*
X128240000Y-137799000D02*
X129490000Y-137799000D01*
X124932000Y-137759000D02*
X126160000Y-137759000D01*
X128240000Y-137759000D02*
X129468000Y-137759000D01*
X124953000Y-137719000D02*
X126160000Y-137719000D01*
X128240000Y-137719000D02*
X129447000Y-137719000D01*
X124976000Y-137679000D02*
X126160000Y-137679000D01*
X128240000Y-137679000D02*
X129424000Y-137679000D01*
X125000000Y-137639000D02*
X126160000Y-137639000D01*
X128240000Y-137639000D02*
X129400000Y-137639000D01*
X125025000Y-137599000D02*
X126160000Y-137599000D01*
X128240000Y-137599000D02*
X129375000Y-137599000D01*
X125051000Y-137559000D02*
X126160000Y-137559000D01*
X128240000Y-137559000D02*
X129349000Y-137559000D01*
X125078000Y-137519000D02*
X126160000Y-137519000D01*
X128240000Y-137519000D02*
X129322000Y-137519000D01*
X125105000Y-137479000D02*
X126160000Y-137479000D01*
X128240000Y-137479000D02*
X129295000Y-137479000D01*
X125135000Y-137439000D02*
X126160000Y-137439000D01*
X128240000Y-137439000D02*
X129265000Y-137439000D01*
X125165000Y-137399000D02*
X126160000Y-137399000D01*
X128240000Y-137399000D02*
X129235000Y-137399000D01*
X125196000Y-137359000D02*
X126160000Y-137359000D01*
X128240000Y-137359000D02*
X129204000Y-137359000D01*
X125229000Y-137319000D02*
X126160000Y-137319000D01*
X128240000Y-137319000D02*
X129171000Y-137319000D01*
X125263000Y-137279000D02*
X126160000Y-137279000D01*
X128240000Y-137279000D02*
X129137000Y-137279000D01*
X125299000Y-137239000D02*
X126160000Y-137239000D01*
X128240000Y-137239000D02*
X129101000Y-137239000D01*
X125336000Y-137199000D02*
X126160000Y-137199000D01*
X128240000Y-137199000D02*
X129064000Y-137199000D01*
X125374000Y-137159000D02*
X126160000Y-137159000D01*
X128240000Y-137159000D02*
X129026000Y-137159000D01*
X125415000Y-137119000D02*
X126160000Y-137119000D01*
X128240000Y-137119000D02*
X128985000Y-137119000D01*
X125457000Y-137079000D02*
X126160000Y-137079000D01*
X128240000Y-137079000D02*
X128943000Y-137079000D01*
X125501000Y-137039000D02*
X126160000Y-137039000D01*
X128240000Y-137039000D02*
X128899000Y-137039000D01*
X125547000Y-136999000D02*
X126160000Y-136999000D01*
X128240000Y-136999000D02*
X128853000Y-136999000D01*
X125595000Y-136959000D02*
X128805000Y-136959000D01*
X125646000Y-136919000D02*
X128754000Y-136919000D01*
X125700000Y-136879000D02*
X128700000Y-136879000D01*
X125757000Y-136839000D02*
X128643000Y-136839000D01*
X125817000Y-136799000D02*
X128583000Y-136799000D01*
X125881000Y-136759000D02*
X128519000Y-136759000D01*
X125949000Y-136719000D02*
X128451000Y-136719000D01*
X126022000Y-136679000D02*
X128378000Y-136679000D01*
X126102000Y-136639000D02*
X128298000Y-136639000D01*
X126189000Y-136599000D02*
X128211000Y-136599000D01*
X126285000Y-136559000D02*
X128115000Y-136559000D01*
X126395000Y-136519000D02*
X128005000Y-136519000D01*
X126523000Y-136479000D02*
X127877000Y-136479000D01*
X126682000Y-136439000D02*
X127718000Y-136439000D01*
X126916000Y-136399000D02*
X127484000Y-136399000D01*
X125725000Y-141804775D02*
X125725000Y-141304775D01*
X125475000Y-141554775D02*
X125975000Y-141554775D01*
X134937221Y-136810000D02*
X135262779Y-136810000D01*
X134937221Y-135790000D02*
X135262779Y-135790000D01*
X125054775Y-78725000D02*
X125054775Y-78225000D01*
X125304775Y-78475000D02*
X124804775Y-78475000D01*
X119899000Y-77284000D02*
X119899000Y-76716000D01*
X119939000Y-77518000D02*
X119939000Y-76482000D01*
X119979000Y-77677000D02*
X119979000Y-76323000D01*
X120019000Y-77805000D02*
X120019000Y-76195000D01*
X120059000Y-77915000D02*
X120059000Y-76085000D01*
X120099000Y-78011000D02*
X120099000Y-75989000D01*
X120139000Y-78098000D02*
X120139000Y-75902000D01*
X120179000Y-78178000D02*
X120179000Y-75822000D01*
X120219000Y-78251000D02*
X120219000Y-75749000D01*
X120259000Y-78319000D02*
X120259000Y-75681000D01*
X120299000Y-78383000D02*
X120299000Y-75617000D01*
X120339000Y-78443000D02*
X120339000Y-75557000D01*
X120379000Y-78500000D02*
X120379000Y-75500000D01*
X120419000Y-78554000D02*
X120419000Y-75446000D01*
X120459000Y-78605000D02*
X120459000Y-75395000D01*
X120499000Y-75960000D02*
X120499000Y-75347000D01*
X120499000Y-78653000D02*
X120499000Y-78040000D01*
X120539000Y-75960000D02*
X120539000Y-75301000D01*
X120539000Y-78699000D02*
X120539000Y-78040000D01*
X120579000Y-75960000D02*
X120579000Y-75257000D01*
X120579000Y-78743000D02*
X120579000Y-78040000D01*
X120619000Y-75960000D02*
X120619000Y-75215000D01*
X120619000Y-78785000D02*
X120619000Y-78040000D01*
X120659000Y-75960000D02*
X120659000Y-75174000D01*
X120659000Y-78826000D02*
X120659000Y-78040000D01*
X120699000Y-75960000D02*
X120699000Y-75136000D01*
X120699000Y-78864000D02*
X120699000Y-78040000D01*
X120739000Y-75960000D02*
X120739000Y-75099000D01*
X120739000Y-78901000D02*
X120739000Y-78040000D01*
X120779000Y-75960000D02*
X120779000Y-75063000D01*
X120779000Y-78937000D02*
X120779000Y-78040000D01*
X120819000Y-75960000D02*
X120819000Y-75029000D01*
X120819000Y-78971000D02*
X120819000Y-78040000D01*
X120859000Y-75960000D02*
X120859000Y-74996000D01*
X120859000Y-79004000D02*
X120859000Y-78040000D01*
X120899000Y-75960000D02*
X120899000Y-74965000D01*
X120899000Y-79035000D02*
X120899000Y-78040000D01*
X120939000Y-75960000D02*
X120939000Y-74935000D01*
X120939000Y-79065000D02*
X120939000Y-78040000D01*
X120979000Y-75960000D02*
X120979000Y-74905000D01*
X120979000Y-79095000D02*
X120979000Y-78040000D01*
X121019000Y-75960000D02*
X121019000Y-74878000D01*
X121019000Y-79122000D02*
X121019000Y-78040000D01*
X121059000Y-75960000D02*
X121059000Y-74851000D01*
X121059000Y-79149000D02*
X121059000Y-78040000D01*
X121099000Y-75960000D02*
X121099000Y-74825000D01*
X121099000Y-79175000D02*
X121099000Y-78040000D01*
X121139000Y-75960000D02*
X121139000Y-74800000D01*
X121139000Y-79200000D02*
X121139000Y-78040000D01*
X121179000Y-75960000D02*
X121179000Y-74776000D01*
X121179000Y-79224000D02*
X121179000Y-78040000D01*
X121219000Y-75960000D02*
X121219000Y-74753000D01*
X121219000Y-79247000D02*
X121219000Y-78040000D01*
X121259000Y-75960000D02*
X121259000Y-74732000D01*
X121259000Y-79268000D02*
X121259000Y-78040000D01*
X121299000Y-75960000D02*
X121299000Y-74710000D01*
X121299000Y-79290000D02*
X121299000Y-78040000D01*
X121339000Y-75960000D02*
X121339000Y-74690000D01*
X121339000Y-79310000D02*
X121339000Y-78040000D01*
X121379000Y-75960000D02*
X121379000Y-74671000D01*
X121379000Y-79329000D02*
X121379000Y-78040000D01*
X121419000Y-75960000D02*
X121419000Y-74652000D01*
X121419000Y-79348000D02*
X121419000Y-78040000D01*
X121459000Y-75960000D02*
X121459000Y-74635000D01*
X121459000Y-79365000D02*
X121459000Y-78040000D01*
X121499000Y-75960000D02*
X121499000Y-74618000D01*
X121499000Y-79382000D02*
X121499000Y-78040000D01*
X121539000Y-75960000D02*
X121539000Y-74602000D01*
X121539000Y-79398000D02*
X121539000Y-78040000D01*
X121579000Y-75960000D02*
X121579000Y-74586000D01*
X121579000Y-79414000D02*
X121579000Y-78040000D01*
X121619000Y-75960000D02*
X121619000Y-74572000D01*
X121619000Y-79428000D02*
X121619000Y-78040000D01*
X121659000Y-75960000D02*
X121659000Y-74558000D01*
X121659000Y-79442000D02*
X121659000Y-78040000D01*
X121699000Y-75960000D02*
X121699000Y-74545000D01*
X121699000Y-79455000D02*
X121699000Y-78040000D01*
X121739000Y-75960000D02*
X121739000Y-74532000D01*
X121739000Y-79468000D02*
X121739000Y-78040000D01*
X121779000Y-75960000D02*
X121779000Y-74520000D01*
X121779000Y-79480000D02*
X121779000Y-78040000D01*
X121820000Y-75960000D02*
X121820000Y-74509000D01*
X121820000Y-79491000D02*
X121820000Y-78040000D01*
X121860000Y-75960000D02*
X121860000Y-74499000D01*
X121860000Y-79501000D02*
X121860000Y-78040000D01*
X121900000Y-75960000D02*
X121900000Y-74489000D01*
X121900000Y-79511000D02*
X121900000Y-78040000D01*
X121940000Y-75960000D02*
X121940000Y-74480000D01*
X121940000Y-79520000D02*
X121940000Y-78040000D01*
X121980000Y-75960000D02*
X121980000Y-74472000D01*
X121980000Y-79528000D02*
X121980000Y-78040000D01*
X122020000Y-75960000D02*
X122020000Y-74464000D01*
X122020000Y-79536000D02*
X122020000Y-78040000D01*
X122060000Y-75960000D02*
X122060000Y-74457000D01*
X122060000Y-79543000D02*
X122060000Y-78040000D01*
X122100000Y-75960000D02*
X122100000Y-74450000D01*
X122100000Y-79550000D02*
X122100000Y-78040000D01*
X122140000Y-75960000D02*
X122140000Y-74444000D01*
X122140000Y-79556000D02*
X122140000Y-78040000D01*
X122180000Y-75960000D02*
X122180000Y-74439000D01*
X122180000Y-79561000D02*
X122180000Y-78040000D01*
X122220000Y-75960000D02*
X122220000Y-74435000D01*
X122220000Y-79565000D02*
X122220000Y-78040000D01*
X122260000Y-75960000D02*
X122260000Y-74431000D01*
X122260000Y-79569000D02*
X122260000Y-78040000D01*
X122300000Y-75960000D02*
X122300000Y-74427000D01*
X122300000Y-79573000D02*
X122300000Y-78040000D01*
X122340000Y-75960000D02*
X122340000Y-74424000D01*
X122340000Y-79576000D02*
X122340000Y-78040000D01*
X122380000Y-75960000D02*
X122380000Y-74422000D01*
X122380000Y-79578000D02*
X122380000Y-78040000D01*
X122420000Y-75960000D02*
X122420000Y-74421000D01*
X122420000Y-79579000D02*
X122420000Y-78040000D01*
X122460000Y-79580000D02*
X122460000Y-78040000D01*
X122460000Y-75960000D02*
X122460000Y-74420000D01*
X122500000Y-79580000D02*
X122500000Y-78040000D01*
X122500000Y-75960000D02*
X122500000Y-74420000D01*
X125120000Y-77000000D02*
G75*
G03*
X125120000Y-77000000I-2620000J0D01*
G01*
X122837221Y-73010000D02*
X123162779Y-73010000D01*
X122837221Y-71990000D02*
X123162779Y-71990000D01*
X119620000Y-62500000D02*
G75*
G03*
X119620000Y-62500000I-2620000J0D01*
G01*
X117000000Y-61460000D02*
X117000000Y-59920000D01*
X117000000Y-65080000D02*
X117000000Y-63540000D01*
X116960000Y-61460000D02*
X116960000Y-59920000D01*
X116960000Y-65080000D02*
X116960000Y-63540000D01*
X116920000Y-65079000D02*
X116920000Y-63540000D01*
X116920000Y-61460000D02*
X116920000Y-59921000D01*
X116880000Y-65078000D02*
X116880000Y-63540000D01*
X116880000Y-61460000D02*
X116880000Y-59922000D01*
X116840000Y-65076000D02*
X116840000Y-63540000D01*
X116840000Y-61460000D02*
X116840000Y-59924000D01*
X116800000Y-65073000D02*
X116800000Y-63540000D01*
X116800000Y-61460000D02*
X116800000Y-59927000D01*
X116760000Y-65069000D02*
X116760000Y-63540000D01*
X116760000Y-61460000D02*
X116760000Y-59931000D01*
X116720000Y-65065000D02*
X116720000Y-63540000D01*
X116720000Y-61460000D02*
X116720000Y-59935000D01*
X116680000Y-65061000D02*
X116680000Y-63540000D01*
X116680000Y-61460000D02*
X116680000Y-59939000D01*
X116640000Y-65056000D02*
X116640000Y-63540000D01*
X116640000Y-61460000D02*
X116640000Y-59944000D01*
X116600000Y-65050000D02*
X116600000Y-63540000D01*
X116600000Y-61460000D02*
X116600000Y-59950000D01*
X116560000Y-65043000D02*
X116560000Y-63540000D01*
X116560000Y-61460000D02*
X116560000Y-59957000D01*
X116520000Y-65036000D02*
X116520000Y-63540000D01*
X116520000Y-61460000D02*
X116520000Y-59964000D01*
X116480000Y-65028000D02*
X116480000Y-63540000D01*
X116480000Y-61460000D02*
X116480000Y-59972000D01*
X116440000Y-65020000D02*
X116440000Y-63540000D01*
X116440000Y-61460000D02*
X116440000Y-59980000D01*
X116400000Y-65011000D02*
X116400000Y-63540000D01*
X116400000Y-61460000D02*
X116400000Y-59989000D01*
X116360000Y-65001000D02*
X116360000Y-63540000D01*
X116360000Y-61460000D02*
X116360000Y-59999000D01*
X116320000Y-64991000D02*
X116320000Y-63540000D01*
X116320000Y-61460000D02*
X116320000Y-60009000D01*
X116279000Y-64980000D02*
X116279000Y-63540000D01*
X116279000Y-61460000D02*
X116279000Y-60020000D01*
X116239000Y-64968000D02*
X116239000Y-63540000D01*
X116239000Y-61460000D02*
X116239000Y-60032000D01*
X116199000Y-64955000D02*
X116199000Y-63540000D01*
X116199000Y-61460000D02*
X116199000Y-60045000D01*
X116159000Y-64942000D02*
X116159000Y-63540000D01*
X116159000Y-61460000D02*
X116159000Y-60058000D01*
X116119000Y-64928000D02*
X116119000Y-63540000D01*
X116119000Y-61460000D02*
X116119000Y-60072000D01*
X116079000Y-64914000D02*
X116079000Y-63540000D01*
X116079000Y-61460000D02*
X116079000Y-60086000D01*
X116039000Y-64898000D02*
X116039000Y-63540000D01*
X116039000Y-61460000D02*
X116039000Y-60102000D01*
X115999000Y-64882000D02*
X115999000Y-63540000D01*
X115999000Y-61460000D02*
X115999000Y-60118000D01*
X115959000Y-64865000D02*
X115959000Y-63540000D01*
X115959000Y-61460000D02*
X115959000Y-60135000D01*
X115919000Y-64848000D02*
X115919000Y-63540000D01*
X115919000Y-61460000D02*
X115919000Y-60152000D01*
X115879000Y-64829000D02*
X115879000Y-63540000D01*
X115879000Y-61460000D02*
X115879000Y-60171000D01*
X115839000Y-64810000D02*
X115839000Y-63540000D01*
X115839000Y-61460000D02*
X115839000Y-60190000D01*
X115799000Y-64790000D02*
X115799000Y-63540000D01*
X115799000Y-61460000D02*
X115799000Y-60210000D01*
X115759000Y-64768000D02*
X115759000Y-63540000D01*
X115759000Y-61460000D02*
X115759000Y-60232000D01*
X115719000Y-64747000D02*
X115719000Y-63540000D01*
X115719000Y-61460000D02*
X115719000Y-60253000D01*
X115679000Y-64724000D02*
X115679000Y-63540000D01*
X115679000Y-61460000D02*
X115679000Y-60276000D01*
X115639000Y-64700000D02*
X115639000Y-63540000D01*
X115639000Y-61460000D02*
X115639000Y-60300000D01*
X115599000Y-64675000D02*
X115599000Y-63540000D01*
X115599000Y-61460000D02*
X115599000Y-60325000D01*
X115559000Y-64649000D02*
X115559000Y-63540000D01*
X115559000Y-61460000D02*
X115559000Y-60351000D01*
X115519000Y-64622000D02*
X115519000Y-63540000D01*
X115519000Y-61460000D02*
X115519000Y-60378000D01*
X115479000Y-64595000D02*
X115479000Y-63540000D01*
X115479000Y-61460000D02*
X115479000Y-60405000D01*
X115439000Y-64565000D02*
X115439000Y-63540000D01*
X115439000Y-61460000D02*
X115439000Y-60435000D01*
X115399000Y-64535000D02*
X115399000Y-63540000D01*
X115399000Y-61460000D02*
X115399000Y-60465000D01*
X115359000Y-64504000D02*
X115359000Y-63540000D01*
X115359000Y-61460000D02*
X115359000Y-60496000D01*
X115319000Y-64471000D02*
X115319000Y-63540000D01*
X115319000Y-61460000D02*
X115319000Y-60529000D01*
X115279000Y-64437000D02*
X115279000Y-63540000D01*
X115279000Y-61460000D02*
X115279000Y-60563000D01*
X115239000Y-64401000D02*
X115239000Y-63540000D01*
X115239000Y-61460000D02*
X115239000Y-60599000D01*
X115199000Y-64364000D02*
X115199000Y-63540000D01*
X115199000Y-61460000D02*
X115199000Y-60636000D01*
X115159000Y-64326000D02*
X115159000Y-63540000D01*
X115159000Y-61460000D02*
X115159000Y-60674000D01*
X115119000Y-64285000D02*
X115119000Y-63540000D01*
X115119000Y-61460000D02*
X115119000Y-60715000D01*
X115079000Y-64243000D02*
X115079000Y-63540000D01*
X115079000Y-61460000D02*
X115079000Y-60757000D01*
X115039000Y-64199000D02*
X115039000Y-63540000D01*
X115039000Y-61460000D02*
X115039000Y-60801000D01*
X114999000Y-64153000D02*
X114999000Y-63540000D01*
X114999000Y-61460000D02*
X114999000Y-60847000D01*
X114959000Y-64105000D02*
X114959000Y-60895000D01*
X114919000Y-64054000D02*
X114919000Y-60946000D01*
X114879000Y-64000000D02*
X114879000Y-61000000D01*
X114839000Y-63943000D02*
X114839000Y-61057000D01*
X114799000Y-63883000D02*
X114799000Y-61117000D01*
X114759000Y-63819000D02*
X114759000Y-61181000D01*
X114719000Y-63751000D02*
X114719000Y-61249000D01*
X114679000Y-63678000D02*
X114679000Y-61322000D01*
X114639000Y-63598000D02*
X114639000Y-61402000D01*
X114599000Y-63511000D02*
X114599000Y-61489000D01*
X114559000Y-63415000D02*
X114559000Y-61585000D01*
X114519000Y-63305000D02*
X114519000Y-61695000D01*
X114479000Y-63177000D02*
X114479000Y-61823000D01*
X114439000Y-63018000D02*
X114439000Y-61982000D01*
X114399000Y-62784000D02*
X114399000Y-62216000D01*
X119804775Y-63975000D02*
X119304775Y-63975000D01*
X119554775Y-64225000D02*
X119554775Y-63725000D01*
X122837221Y-69510000D02*
X123162779Y-69510000D01*
X122837221Y-68490000D02*
X123162779Y-68490000D01*
X237080000Y-117790000D02*
X237399000Y-117790000D01*
X234601000Y-117790000D02*
X234920000Y-117790000D01*
X234919276Y-113486758D02*
G75*
G03*
X234601251Y-117790000I1080724J-2243242D01*
G01*
X237080724Y-113486758D02*
G75*
G02*
X237398749Y-117790000I-1080724J-2243242D01*
G01*
X234919039Y-114047287D02*
G75*
G03*
X234920000Y-117413330I1080961J-1682713D01*
G01*
X237080961Y-114047287D02*
G75*
G02*
X237080000Y-117413330I-1080961J-1682713D01*
G01*
X213440000Y-127320000D02*
X214900000Y-127320000D01*
X213440000Y-130480000D02*
X215600000Y-130480000D01*
X213440000Y-130480000D02*
X213440000Y-129550000D01*
X213440000Y-127320000D02*
X213440000Y-128250000D01*
X128670000Y-131410000D02*
X131330000Y-131410000D01*
X128670000Y-126270000D02*
X128670000Y-131410000D01*
X131330000Y-126270000D02*
X131330000Y-131410000D01*
X128670000Y-126270000D02*
X131330000Y-126270000D01*
X128670000Y-125000000D02*
X128670000Y-123670000D01*
X128670000Y-123670000D02*
X130000000Y-123670000D01*
X145645000Y-109850000D02*
X145645000Y-112750000D01*
X152355000Y-109850000D02*
X152355000Y-112750000D01*
X147550000Y-114655000D02*
X150450000Y-114655000D01*
X147550000Y-107945000D02*
X150450000Y-107945000D01*
X221645000Y-114550000D02*
X221645000Y-117450000D01*
X228355000Y-114550000D02*
X228355000Y-117450000D01*
X223550000Y-119355000D02*
X226450000Y-119355000D01*
X223550000Y-112645000D02*
X226450000Y-112645000D01*
X169170000Y-119670000D02*
X170500000Y-119670000D01*
X169170000Y-121000000D02*
X169170000Y-119670000D01*
X169170000Y-122270000D02*
X171830000Y-122270000D01*
X171830000Y-122270000D02*
X171830000Y-127410000D01*
X169170000Y-122270000D02*
X169170000Y-127410000D01*
X169170000Y-127410000D02*
X171830000Y-127410000D01*
X173670000Y-127410000D02*
X176330000Y-127410000D01*
X173670000Y-122270000D02*
X173670000Y-127410000D01*
X176330000Y-122270000D02*
X176330000Y-127410000D01*
X173670000Y-122270000D02*
X176330000Y-122270000D01*
X173670000Y-121000000D02*
X173670000Y-119670000D01*
X173670000Y-119670000D02*
X175000000Y-119670000D01*
X109990000Y-122337221D02*
X109990000Y-122662779D01*
X111010000Y-122337221D02*
X111010000Y-122662779D01*
X111010000Y-135337221D02*
X111010000Y-135662779D01*
X109990000Y-135337221D02*
X109990000Y-135662779D01*
X161040000Y-112097936D02*
X161040000Y-113302064D01*
X163760000Y-112097936D02*
X163760000Y-113302064D01*
X235590000Y-110437221D02*
X235590000Y-110762779D01*
X236610000Y-110437221D02*
X236610000Y-110762779D01*
X227690000Y-109237221D02*
X227690000Y-109562779D01*
X228710000Y-109237221D02*
X228710000Y-109562779D01*
X184090000Y-106862779D02*
X184090000Y-106537221D01*
X185110000Y-106862779D02*
X185110000Y-106537221D01*
X187862779Y-106990000D02*
X187537221Y-106990000D01*
X187862779Y-108010000D02*
X187537221Y-108010000D01*
X205762779Y-109090000D02*
X205437221Y-109090000D01*
X205762779Y-110110000D02*
X205437221Y-110110000D01*
X182090000Y-111362779D02*
X182090000Y-111037221D01*
X183110000Y-111362779D02*
X183110000Y-111037221D01*
X198237221Y-101090000D02*
X198562779Y-101090000D01*
X198237221Y-102110000D02*
X198562779Y-102110000D01*
X206390000Y-106537221D02*
X206390000Y-106862779D01*
X207410000Y-106537221D02*
X207410000Y-106862779D01*
X204410000Y-106537221D02*
X204410000Y-106862779D01*
X203390000Y-106537221D02*
X203390000Y-106862779D01*
X180362779Y-118610000D02*
X180037221Y-118610000D01*
X180362779Y-117590000D02*
X180037221Y-117590000D01*
X228752064Y-134860000D02*
X227547936Y-134860000D01*
X228752064Y-132140000D02*
X227547936Y-132140000D01*
X194137221Y-100990000D02*
X194462779Y-100990000D01*
X194137221Y-102010000D02*
X194462779Y-102010000D01*
X194410000Y-105662779D02*
X194410000Y-105337221D01*
X193390000Y-105662779D02*
X193390000Y-105337221D01*
X207162779Y-103610000D02*
X206837221Y-103610000D01*
X207162779Y-102590000D02*
X206837221Y-102590000D01*
D11*
X121300000Y-118100000D02*
G75*
G03*
X121300000Y-118100000I-1400000J0D01*
G01*
X121300000Y-131500000D02*
G75*
G03*
X121300000Y-131500000I-1400000J0D01*
G01*
D13*
X109500000Y-92890000D02*
X106500000Y-92890000D01*
X109750000Y-97110000D02*
X106500000Y-97110000D01*
X199100000Y-109460000D02*
X201050000Y-109460000D01*
X199100000Y-109460000D02*
X197150000Y-109460000D01*
X199100000Y-104340000D02*
X201050000Y-104340000D01*
X199100000Y-104340000D02*
X195650000Y-104340000D01*
X182080000Y-143770000D02*
X171840000Y-143770000D01*
X182080000Y-139129000D02*
X171840000Y-139129000D01*
X182080000Y-143770000D02*
X182080000Y-139129000D01*
X171840000Y-143770000D02*
X171840000Y-139129000D01*
X182080000Y-142260000D02*
X171840000Y-142260000D01*
X178810000Y-143770000D02*
X178810000Y-142260000D01*
X175109000Y-143770000D02*
X175109000Y-142260000D01*
X155109000Y-143770000D02*
X155109000Y-142260000D01*
X158810000Y-143770000D02*
X158810000Y-142260000D01*
X162080000Y-142260000D02*
X151840000Y-142260000D01*
X151840000Y-143770000D02*
X151840000Y-139129000D01*
X162080000Y-143770000D02*
X162080000Y-139129000D01*
X162080000Y-139129000D02*
X151840000Y-139129000D01*
X162080000Y-143770000D02*
X151840000Y-143770000D01*
X142080000Y-143770000D02*
X131840000Y-143770000D01*
X142080000Y-139129000D02*
X131840000Y-139129000D01*
X142080000Y-143770000D02*
X142080000Y-139129000D01*
X131840000Y-143770000D02*
X131840000Y-139129000D01*
X142080000Y-142260000D02*
X131840000Y-142260000D01*
X138810000Y-143770000D02*
X138810000Y-142260000D01*
X135109000Y-143770000D02*
X135109000Y-142260000D01*
X112310000Y-79580000D02*
X112310000Y-69340000D01*
X96420000Y-79580000D02*
X96420000Y-69340000D01*
X96420000Y-79580000D02*
X112310000Y-79580000D01*
X96420000Y-69340000D02*
X112310000Y-69340000D01*
X112310000Y-77000000D02*
X114850000Y-77000000D01*
X112310000Y-74460000D02*
X114850000Y-74460000D01*
X112310000Y-71920000D02*
X114850000Y-71920000D01*
X108500000Y-115890000D02*
X105625000Y-115890000D01*
X108500000Y-115890000D02*
X110000000Y-115890000D01*
X108500000Y-120110000D02*
X107000000Y-120110000D01*
X108500000Y-120110000D02*
X110000000Y-120110000D01*
X108500000Y-133110000D02*
X110000000Y-133110000D01*
X108500000Y-133110000D02*
X107000000Y-133110000D01*
X108500000Y-128890000D02*
X110000000Y-128890000D01*
X108500000Y-128890000D02*
X105625000Y-128890000D01*
X172400000Y-109990000D02*
X169475000Y-109990000D01*
X172400000Y-109990000D02*
X173900000Y-109990000D01*
X172400000Y-113210000D02*
X170900000Y-113210000D01*
X172400000Y-113210000D02*
X173900000Y-113210000D01*
X187590000Y-117837221D02*
X187590000Y-118162779D01*
X188610000Y-117837221D02*
X188610000Y-118162779D01*
D14*
X208900000Y-129300000D02*
G75*
G03*
X208900000Y-129300000I-400000J0D01*
G01*
D11*
X200000000Y-117700000D02*
X200000000Y-130700000D01*
X212000000Y-117700000D02*
X200000000Y-117700000D01*
X212000000Y-130700000D02*
X212000000Y-117700000D01*
X200000000Y-130700000D02*
X212000000Y-130700000D01*
D13*
X228659420Y-82810000D02*
X228940580Y-82810000D01*
X228659420Y-81790000D02*
X228940580Y-81790000D01*
X228790000Y-85359420D02*
X228790000Y-85640580D01*
X229810000Y-85359420D02*
X229810000Y-85640580D01*
X218340580Y-89610000D02*
X218059420Y-89610000D01*
X218340580Y-88590000D02*
X218059420Y-88590000D01*
X213790000Y-63234420D02*
X213790000Y-63515580D01*
X214810000Y-63234420D02*
X214810000Y-63515580D01*
X166059420Y-64590000D02*
X166340580Y-64590000D01*
X166059420Y-65610000D02*
X166340580Y-65610000D01*
X214959420Y-71690000D02*
X215240580Y-71690000D01*
X214959420Y-72710000D02*
X215240580Y-72710000D01*
X196010000Y-72934420D02*
X196010000Y-73215580D01*
X194990000Y-72934420D02*
X194990000Y-73215580D01*
X201910000Y-63165580D02*
X201910000Y-62884420D01*
X200890000Y-63165580D02*
X200890000Y-62884420D01*
X97650000Y-54550000D02*
X93350000Y-54550000D01*
X93350000Y-54550000D02*
X93350000Y-60250000D01*
X97650000Y-54550000D02*
X97650000Y-60250000D01*
X94150000Y-135650000D02*
X94150000Y-129950000D01*
X98450000Y-135650000D02*
X98450000Y-129950000D01*
X94150000Y-135650000D02*
X98450000Y-135650000D01*
X233590000Y-82550000D02*
X234090000Y-82300000D01*
X233590000Y-82050000D02*
X233590000Y-82550000D01*
X234090000Y-82300000D02*
X233590000Y-82050000D01*
X158650000Y-61645000D02*
X161550000Y-61645000D01*
X158650000Y-68355000D02*
X161550000Y-68355000D01*
X163455000Y-63550000D02*
X163455000Y-66450000D01*
X156745000Y-63550000D02*
X156745000Y-66450000D01*
X233590000Y-60250000D02*
X234090000Y-60000000D01*
X233590000Y-59750000D02*
X233590000Y-60250000D01*
X234090000Y-60000000D02*
X233590000Y-59750000D01*
X190550000Y-47765000D02*
X192150000Y-47765000D01*
X190550000Y-92435000D02*
X192150000Y-92435000D01*
X196550000Y-47765000D02*
X198150000Y-47765000D01*
X196550000Y-92435000D02*
X198150000Y-92435000D01*
X202550000Y-47765000D02*
X204150000Y-47765000D01*
X202550000Y-92435000D02*
X204150000Y-92435000D01*
X208550000Y-47765000D02*
X210250000Y-47765000D01*
X208550000Y-92435000D02*
X210250000Y-92435000D01*
X214650000Y-47765000D02*
X216250000Y-47765000D01*
X214650000Y-92435000D02*
X216250000Y-92435000D01*
X220650000Y-47765000D02*
X222250000Y-47765000D01*
X220650000Y-92435000D02*
X222250000Y-92435000D01*
X226650000Y-47765000D02*
X228250000Y-47765000D01*
X226650000Y-92435000D02*
X228250000Y-92435000D01*
X187065000Y-51250000D02*
X187065000Y-52850000D01*
X231735000Y-51250000D02*
X231735000Y-52850000D01*
X187065000Y-57250000D02*
X187065000Y-58850000D01*
X231735000Y-57250000D02*
X231735000Y-58850000D01*
X187065000Y-63250000D02*
X187065000Y-64850000D01*
X231735000Y-63250000D02*
X231735000Y-64850000D01*
X187065000Y-69250000D02*
X187065000Y-70950000D01*
X231735000Y-69250000D02*
X231735000Y-70950000D01*
X187065000Y-75350000D02*
X187065000Y-76950000D01*
X231735000Y-75350000D02*
X231735000Y-76950000D01*
X187065000Y-81350000D02*
X187065000Y-82950000D01*
X231735000Y-81350000D02*
X231735000Y-82950000D01*
X187065000Y-87350000D02*
X187065000Y-88950000D01*
X231735000Y-87350000D02*
X231735000Y-88950000D01*
X234190000Y-130000000D02*
X233690000Y-129750000D01*
X233690000Y-129750000D02*
X233690000Y-130250000D01*
X233690000Y-130250000D02*
X234190000Y-130000000D01*
X219150000Y-80700000D02*
X219150000Y-81300000D01*
X217050000Y-80000000D02*
X218450000Y-80000000D01*
X216350000Y-81300000D02*
X216350000Y-80700000D01*
X218450000Y-82000000D02*
X217050000Y-82000000D01*
X217050000Y-82000000D02*
G75*
G02*
X216350000Y-81300000I0J700000D01*
G01*
X216350000Y-80700000D02*
G75*
G02*
X217050000Y-80000000I700000J0D01*
G01*
X218450000Y-80000000D02*
G75*
G02*
X219150000Y-80700000I0J-700000D01*
G01*
X219150000Y-81300000D02*
G75*
G02*
X218450000Y-82000000I-700000J0D01*
G01*
D14*
X106004000Y-50500000D02*
G75*
G03*
X106004000Y-50500000I-254000J0D01*
G01*
X102004000Y-50500000D02*
G75*
G03*
X102004000Y-50500000I-254000J0D01*
G01*
X104004000Y-50500000D02*
G75*
G03*
X104004000Y-50500000I-254000J0D01*
G01*
X102004000Y-52500000D02*
G75*
G03*
X102004000Y-52500000I-254000J0D01*
G01*
X104004000Y-52500000D02*
G75*
G03*
X104004000Y-52500000I-254000J0D01*
G01*
X106004000Y-52500000D02*
G75*
G03*
X106004000Y-52500000I-254000J0D01*
G01*
X106004000Y-54500000D02*
G75*
G03*
X106004000Y-54500000I-254000J0D01*
G01*
X104004000Y-54500000D02*
G75*
G03*
X104004000Y-54500000I-254000J0D01*
G01*
X102004000Y-54500000D02*
G75*
G03*
X102004000Y-54500000I-254000J0D01*
G01*
D13*
X222322500Y-81162742D02*
X222322500Y-81637258D01*
X221277500Y-81162742D02*
X221277500Y-81637258D01*
X191522500Y-66562742D02*
X191522500Y-67037258D01*
X190477500Y-66562742D02*
X190477500Y-67037258D01*
X226155000Y-80013763D02*
X226155000Y-81461237D01*
X223445000Y-80013763D02*
X223445000Y-81461237D01*
X193522500Y-67037258D02*
X193522500Y-66562742D01*
X192477500Y-67037258D02*
X192477500Y-66562742D01*
X218762742Y-96622500D02*
X219237258Y-96622500D01*
X218762742Y-95577500D02*
X219237258Y-95577500D01*
X224262742Y-89677500D02*
X224737258Y-89677500D01*
X224262742Y-90722500D02*
X224737258Y-90722500D01*
X218323737Y-87555000D02*
X216876263Y-87555000D01*
X218323737Y-84845000D02*
X216876263Y-84845000D01*
X193522500Y-70537258D02*
X193522500Y-70062742D01*
X192477500Y-70537258D02*
X192477500Y-70062742D01*
X169577500Y-66137258D02*
X169577500Y-65662742D01*
X170622500Y-66137258D02*
X170622500Y-65662742D01*
X227723737Y-56645000D02*
X226276263Y-56645000D01*
X227723737Y-59355000D02*
X226276263Y-59355000D01*
X207937258Y-67877500D02*
X207462742Y-67877500D01*
X207937258Y-68922500D02*
X207462742Y-68922500D01*
X216862742Y-63522500D02*
X217337258Y-63522500D01*
X216862742Y-62477500D02*
X217337258Y-62477500D01*
X210577500Y-69662742D02*
X210577500Y-70137258D01*
X211622500Y-69662742D02*
X211622500Y-70137258D01*
X222077500Y-69562742D02*
X222077500Y-70037258D01*
X223122500Y-69562742D02*
X223122500Y-70037258D01*
X211622500Y-66487742D02*
X211622500Y-66962258D01*
X210577500Y-66487742D02*
X210577500Y-66962258D01*
X222077500Y-66662258D02*
X222077500Y-66187742D01*
X223122500Y-66662258D02*
X223122500Y-66187742D01*
X241520000Y-99890000D02*
X222280000Y-99890000D01*
X241520000Y-94850000D02*
X222280000Y-94850000D01*
X241520000Y-99890000D02*
X241520000Y-94850000D01*
X222280000Y-99890000D02*
X222280000Y-94850000D01*
X243040000Y-98670000D02*
X241521000Y-98670000D01*
X243040000Y-96070000D02*
X241521000Y-96070000D01*
X243040000Y-98670000D02*
X243040000Y-96070000D01*
X241521000Y-98670000D02*
X241521000Y-96070000D01*
X243040000Y-97370000D02*
X242281000Y-97370000D01*
X223100000Y-106810000D02*
X224900000Y-106810000D01*
X224900000Y-103590000D02*
X222450000Y-103590000D01*
X198400000Y-70660000D02*
X200350000Y-70660000D01*
X198400000Y-70660000D02*
X196450000Y-70660000D01*
X198400000Y-65540000D02*
X200350000Y-65540000D01*
X198400000Y-65540000D02*
X194950000Y-65540000D01*
X224400000Y-83840000D02*
X222450000Y-83840000D01*
X224400000Y-83840000D02*
X226350000Y-83840000D01*
X224400000Y-88960000D02*
X222450000Y-88960000D01*
X224400000Y-88960000D02*
X227850000Y-88960000D01*
D11*
X183300000Y-81300000D02*
X173100000Y-81300000D01*
X183300000Y-61000000D02*
X183300000Y-81300000D01*
X173100000Y-61000000D02*
X183300000Y-61000000D01*
X173100000Y-81300000D02*
X173100000Y-61000000D01*
X215000000Y-70875000D02*
X219000000Y-70875000D01*
X213725000Y-65475000D02*
X219000000Y-65475000D01*
X116400000Y-98970000D02*
X122200000Y-98970000D01*
X116400000Y-91350000D02*
X122200000Y-91350000D01*
X121200000Y-98970000D02*
X121200000Y-91350000D01*
X122200000Y-98970000D02*
X122200000Y-91350000D01*
X116400000Y-98970000D02*
X116400000Y-91350000D01*
X93500000Y-99070000D02*
X93500000Y-91450000D01*
X99300000Y-99070000D02*
X99300000Y-91450000D01*
X98300000Y-99070000D02*
X98300000Y-91450000D01*
X93500000Y-91450000D02*
X99300000Y-91450000D01*
X93500000Y-99070000D02*
X99300000Y-99070000D01*
X175502380Y-99033333D02*
X176216666Y-99033333D01*
X176359523Y-99080952D01*
X176454761Y-99176190D01*
X176502380Y-99319047D01*
X176502380Y-99414285D01*
X175930952Y-98414285D02*
X175883333Y-98509523D01*
X175835714Y-98557142D01*
X175740476Y-98604761D01*
X175692857Y-98604761D01*
X175597619Y-98557142D01*
X175550000Y-98509523D01*
X175502380Y-98414285D01*
X175502380Y-98223809D01*
X175550000Y-98128571D01*
X175597619Y-98080952D01*
X175692857Y-98033333D01*
X175740476Y-98033333D01*
X175835714Y-98080952D01*
X175883333Y-98128571D01*
X175930952Y-98223809D01*
X175930952Y-98414285D01*
X175978571Y-98509523D01*
X176026190Y-98557142D01*
X176121428Y-98604761D01*
X176311904Y-98604761D01*
X176407142Y-98557142D01*
X176454761Y-98509523D01*
X176502380Y-98414285D01*
X176502380Y-98223809D01*
X176454761Y-98128571D01*
X176407142Y-98080952D01*
X176311904Y-98033333D01*
X176121428Y-98033333D01*
X176026190Y-98080952D01*
X175978571Y-98128571D01*
X175930952Y-98223809D01*
X184238095Y-115952380D02*
X184238095Y-116761904D01*
X184285714Y-116857142D01*
X184333333Y-116904761D01*
X184428571Y-116952380D01*
X184619047Y-116952380D01*
X184714285Y-116904761D01*
X184761904Y-116857142D01*
X184809523Y-116761904D01*
X184809523Y-115952380D01*
X185333333Y-116952380D02*
X185523809Y-116952380D01*
X185619047Y-116904761D01*
X185666666Y-116857142D01*
X185761904Y-116714285D01*
X185809523Y-116523809D01*
X185809523Y-116142857D01*
X185761904Y-116047619D01*
X185714285Y-116000000D01*
X185619047Y-115952380D01*
X185428571Y-115952380D01*
X185333333Y-116000000D01*
X185285714Y-116047619D01*
X185238095Y-116142857D01*
X185238095Y-116380952D01*
X185285714Y-116476190D01*
X185333333Y-116523809D01*
X185428571Y-116571428D01*
X185619047Y-116571428D01*
X185714285Y-116523809D01*
X185761904Y-116476190D01*
X185809523Y-116380952D01*
X101833333Y-101957142D02*
X101785714Y-102004761D01*
X101642857Y-102052380D01*
X101547619Y-102052380D01*
X101404761Y-102004761D01*
X101309523Y-101909523D01*
X101261904Y-101814285D01*
X101214285Y-101623809D01*
X101214285Y-101480952D01*
X101261904Y-101290476D01*
X101309523Y-101195238D01*
X101404761Y-101100000D01*
X101547619Y-101052380D01*
X101642857Y-101052380D01*
X101785714Y-101100000D01*
X101833333Y-101147619D01*
X102785714Y-102052380D02*
X102214285Y-102052380D01*
X102500000Y-102052380D02*
X102500000Y-101052380D01*
X102404761Y-101195238D01*
X102309523Y-101290476D01*
X102214285Y-101338095D01*
X101733333Y-88657142D02*
X101685714Y-88704761D01*
X101542857Y-88752380D01*
X101447619Y-88752380D01*
X101304761Y-88704761D01*
X101209523Y-88609523D01*
X101161904Y-88514285D01*
X101114285Y-88323809D01*
X101114285Y-88180952D01*
X101161904Y-87990476D01*
X101209523Y-87895238D01*
X101304761Y-87800000D01*
X101447619Y-87752380D01*
X101542857Y-87752380D01*
X101685714Y-87800000D01*
X101733333Y-87847619D01*
X102114285Y-87847619D02*
X102161904Y-87800000D01*
X102257142Y-87752380D01*
X102495238Y-87752380D01*
X102590476Y-87800000D01*
X102638095Y-87847619D01*
X102685714Y-87942857D01*
X102685714Y-88038095D01*
X102638095Y-88180952D01*
X102066666Y-88752380D01*
X102685714Y-88752380D01*
X105137142Y-118166666D02*
X105184761Y-118214285D01*
X105232380Y-118357142D01*
X105232380Y-118452380D01*
X105184761Y-118595238D01*
X105089523Y-118690476D01*
X104994285Y-118738095D01*
X104803809Y-118785714D01*
X104660952Y-118785714D01*
X104470476Y-118738095D01*
X104375238Y-118690476D01*
X104280000Y-118595238D01*
X104232380Y-118452380D01*
X104232380Y-118357142D01*
X104280000Y-118214285D01*
X104327619Y-118166666D01*
X104232380Y-117833333D02*
X104232380Y-117214285D01*
X104613333Y-117547619D01*
X104613333Y-117404761D01*
X104660952Y-117309523D01*
X104708571Y-117261904D01*
X104803809Y-117214285D01*
X105041904Y-117214285D01*
X105137142Y-117261904D01*
X105184761Y-117309523D01*
X105232380Y-117404761D01*
X105232380Y-117690476D01*
X105184761Y-117785714D01*
X105137142Y-117833333D01*
X105637142Y-131166666D02*
X105684761Y-131214285D01*
X105732380Y-131357142D01*
X105732380Y-131452380D01*
X105684761Y-131595238D01*
X105589523Y-131690476D01*
X105494285Y-131738095D01*
X105303809Y-131785714D01*
X105160952Y-131785714D01*
X104970476Y-131738095D01*
X104875238Y-131690476D01*
X104780000Y-131595238D01*
X104732380Y-131452380D01*
X104732380Y-131357142D01*
X104780000Y-131214285D01*
X104827619Y-131166666D01*
X105065714Y-130309523D02*
X105732380Y-130309523D01*
X104684761Y-130547619D02*
X105399047Y-130785714D01*
X105399047Y-130166666D01*
X110177142Y-123666666D02*
X110224761Y-123714285D01*
X110272380Y-123857142D01*
X110272380Y-123952380D01*
X110224761Y-124095238D01*
X110129523Y-124190476D01*
X110034285Y-124238095D01*
X109843809Y-124285714D01*
X109700952Y-124285714D01*
X109510476Y-124238095D01*
X109415238Y-124190476D01*
X109320000Y-124095238D01*
X109272380Y-123952380D01*
X109272380Y-123857142D01*
X109320000Y-123714285D01*
X109367619Y-123666666D01*
X109272380Y-122761904D02*
X109272380Y-123238095D01*
X109748571Y-123285714D01*
X109700952Y-123238095D01*
X109653333Y-123142857D01*
X109653333Y-122904761D01*
X109700952Y-122809523D01*
X109748571Y-122761904D01*
X109843809Y-122714285D01*
X110081904Y-122714285D01*
X110177142Y-122761904D01*
X110224761Y-122809523D01*
X110272380Y-122904761D01*
X110272380Y-123142857D01*
X110224761Y-123238095D01*
X110177142Y-123285714D01*
X110177142Y-136666666D02*
X110224761Y-136714285D01*
X110272380Y-136857142D01*
X110272380Y-136952380D01*
X110224761Y-137095238D01*
X110129523Y-137190476D01*
X110034285Y-137238095D01*
X109843809Y-137285714D01*
X109700952Y-137285714D01*
X109510476Y-137238095D01*
X109415238Y-137190476D01*
X109320000Y-137095238D01*
X109272380Y-136952380D01*
X109272380Y-136857142D01*
X109320000Y-136714285D01*
X109367619Y-136666666D01*
X109272380Y-135809523D02*
X109272380Y-136000000D01*
X109320000Y-136095238D01*
X109367619Y-136142857D01*
X109510476Y-136238095D01*
X109700952Y-136285714D01*
X110081904Y-136285714D01*
X110177142Y-136238095D01*
X110224761Y-136190476D01*
X110272380Y-136095238D01*
X110272380Y-135904761D01*
X110224761Y-135809523D01*
X110177142Y-135761904D01*
X110081904Y-135714285D01*
X109843809Y-135714285D01*
X109748571Y-135761904D01*
X109700952Y-135809523D01*
X109653333Y-135904761D01*
X109653333Y-136095238D01*
X109700952Y-136190476D01*
X109748571Y-136238095D01*
X109843809Y-136285714D01*
X107833333Y-101787142D02*
X107785714Y-101834761D01*
X107642857Y-101882380D01*
X107547619Y-101882380D01*
X107404761Y-101834761D01*
X107309523Y-101739523D01*
X107261904Y-101644285D01*
X107214285Y-101453809D01*
X107214285Y-101310952D01*
X107261904Y-101120476D01*
X107309523Y-101025238D01*
X107404761Y-100930000D01*
X107547619Y-100882380D01*
X107642857Y-100882380D01*
X107785714Y-100930000D01*
X107833333Y-100977619D01*
X108166666Y-100882380D02*
X108833333Y-100882380D01*
X108404761Y-101882380D01*
X108083333Y-89927142D02*
X108035714Y-89974761D01*
X107892857Y-90022380D01*
X107797619Y-90022380D01*
X107654761Y-89974761D01*
X107559523Y-89879523D01*
X107511904Y-89784285D01*
X107464285Y-89593809D01*
X107464285Y-89450952D01*
X107511904Y-89260476D01*
X107559523Y-89165238D01*
X107654761Y-89070000D01*
X107797619Y-89022380D01*
X107892857Y-89022380D01*
X108035714Y-89070000D01*
X108083333Y-89117619D01*
X108654761Y-89450952D02*
X108559523Y-89403333D01*
X108511904Y-89355714D01*
X108464285Y-89260476D01*
X108464285Y-89212857D01*
X108511904Y-89117619D01*
X108559523Y-89070000D01*
X108654761Y-89022380D01*
X108845238Y-89022380D01*
X108940476Y-89070000D01*
X108988095Y-89117619D01*
X109035714Y-89212857D01*
X109035714Y-89260476D01*
X108988095Y-89355714D01*
X108940476Y-89403333D01*
X108845238Y-89450952D01*
X108654761Y-89450952D01*
X108559523Y-89498571D01*
X108511904Y-89546190D01*
X108464285Y-89641428D01*
X108464285Y-89831904D01*
X108511904Y-89927142D01*
X108559523Y-89974761D01*
X108654761Y-90022380D01*
X108845238Y-90022380D01*
X108940476Y-89974761D01*
X108988095Y-89927142D01*
X109035714Y-89831904D01*
X109035714Y-89641428D01*
X108988095Y-89546190D01*
X108940476Y-89498571D01*
X108845238Y-89450952D01*
X111077142Y-98666666D02*
X111124761Y-98714285D01*
X111172380Y-98857142D01*
X111172380Y-98952380D01*
X111124761Y-99095238D01*
X111029523Y-99190476D01*
X110934285Y-99238095D01*
X110743809Y-99285714D01*
X110600952Y-99285714D01*
X110410476Y-99238095D01*
X110315238Y-99190476D01*
X110220000Y-99095238D01*
X110172380Y-98952380D01*
X110172380Y-98857142D01*
X110220000Y-98714285D01*
X110267619Y-98666666D01*
X111172380Y-98190476D02*
X111172380Y-98000000D01*
X111124761Y-97904761D01*
X111077142Y-97857142D01*
X110934285Y-97761904D01*
X110743809Y-97714285D01*
X110362857Y-97714285D01*
X110267619Y-97761904D01*
X110220000Y-97809523D01*
X110172380Y-97904761D01*
X110172380Y-98095238D01*
X110220000Y-98190476D01*
X110267619Y-98238095D01*
X110362857Y-98285714D01*
X110600952Y-98285714D01*
X110696190Y-98238095D01*
X110743809Y-98190476D01*
X110791428Y-98095238D01*
X110791428Y-97904761D01*
X110743809Y-97809523D01*
X110696190Y-97761904D01*
X110600952Y-97714285D01*
X111077142Y-92142857D02*
X111124761Y-92190476D01*
X111172380Y-92333333D01*
X111172380Y-92428571D01*
X111124761Y-92571428D01*
X111029523Y-92666666D01*
X110934285Y-92714285D01*
X110743809Y-92761904D01*
X110600952Y-92761904D01*
X110410476Y-92714285D01*
X110315238Y-92666666D01*
X110220000Y-92571428D01*
X110172380Y-92428571D01*
X110172380Y-92333333D01*
X110220000Y-92190476D01*
X110267619Y-92142857D01*
X111172380Y-91190476D02*
X111172380Y-91761904D01*
X111172380Y-91476190D02*
X110172380Y-91476190D01*
X110315238Y-91571428D01*
X110410476Y-91666666D01*
X110458095Y-91761904D01*
X110172380Y-90571428D02*
X110172380Y-90476190D01*
X110220000Y-90380952D01*
X110267619Y-90333333D01*
X110362857Y-90285714D01*
X110553333Y-90238095D01*
X110791428Y-90238095D01*
X110981904Y-90285714D01*
X111077142Y-90333333D01*
X111124761Y-90380952D01*
X111172380Y-90476190D01*
X111172380Y-90571428D01*
X111124761Y-90666666D01*
X111077142Y-90714285D01*
X110981904Y-90761904D01*
X110791428Y-90809523D01*
X110553333Y-90809523D01*
X110362857Y-90761904D01*
X110267619Y-90714285D01*
X110220000Y-90666666D01*
X110172380Y-90571428D01*
X117437142Y-118642857D02*
X117484761Y-118690476D01*
X117532380Y-118833333D01*
X117532380Y-118928571D01*
X117484761Y-119071428D01*
X117389523Y-119166666D01*
X117294285Y-119214285D01*
X117103809Y-119261904D01*
X116960952Y-119261904D01*
X116770476Y-119214285D01*
X116675238Y-119166666D01*
X116580000Y-119071428D01*
X116532380Y-118928571D01*
X116532380Y-118833333D01*
X116580000Y-118690476D01*
X116627619Y-118642857D01*
X117532380Y-117690476D02*
X117532380Y-118261904D01*
X117532380Y-117976190D02*
X116532380Y-117976190D01*
X116675238Y-118071428D01*
X116770476Y-118166666D01*
X116818095Y-118261904D01*
X117532380Y-116738095D02*
X117532380Y-117309523D01*
X117532380Y-117023809D02*
X116532380Y-117023809D01*
X116675238Y-117119047D01*
X116770476Y-117214285D01*
X116818095Y-117309523D01*
X117137142Y-131642857D02*
X117184761Y-131690476D01*
X117232380Y-131833333D01*
X117232380Y-131928571D01*
X117184761Y-132071428D01*
X117089523Y-132166666D01*
X116994285Y-132214285D01*
X116803809Y-132261904D01*
X116660952Y-132261904D01*
X116470476Y-132214285D01*
X116375238Y-132166666D01*
X116280000Y-132071428D01*
X116232380Y-131928571D01*
X116232380Y-131833333D01*
X116280000Y-131690476D01*
X116327619Y-131642857D01*
X117232380Y-130690476D02*
X117232380Y-131261904D01*
X117232380Y-130976190D02*
X116232380Y-130976190D01*
X116375238Y-131071428D01*
X116470476Y-131166666D01*
X116518095Y-131261904D01*
X116327619Y-130309523D02*
X116280000Y-130261904D01*
X116232380Y-130166666D01*
X116232380Y-129928571D01*
X116280000Y-129833333D01*
X116327619Y-129785714D01*
X116422857Y-129738095D01*
X116518095Y-129738095D01*
X116660952Y-129785714D01*
X117232380Y-130357142D01*
X117232380Y-129738095D01*
X157557142Y-113087142D02*
X157509523Y-113134761D01*
X157366666Y-113182380D01*
X157271428Y-113182380D01*
X157128571Y-113134761D01*
X157033333Y-113039523D01*
X156985714Y-112944285D01*
X156938095Y-112753809D01*
X156938095Y-112610952D01*
X156985714Y-112420476D01*
X157033333Y-112325238D01*
X157128571Y-112230000D01*
X157271428Y-112182380D01*
X157366666Y-112182380D01*
X157509523Y-112230000D01*
X157557142Y-112277619D01*
X158509523Y-113182380D02*
X157938095Y-113182380D01*
X158223809Y-113182380D02*
X158223809Y-112182380D01*
X158128571Y-112325238D01*
X158033333Y-112420476D01*
X157938095Y-112468095D01*
X158842857Y-112182380D02*
X159461904Y-112182380D01*
X159128571Y-112563333D01*
X159271428Y-112563333D01*
X159366666Y-112610952D01*
X159414285Y-112658571D01*
X159461904Y-112753809D01*
X159461904Y-112991904D01*
X159414285Y-113087142D01*
X159366666Y-113134761D01*
X159271428Y-113182380D01*
X158985714Y-113182380D01*
X158890476Y-113134761D01*
X158842857Y-113087142D01*
X166357142Y-113087142D02*
X166309523Y-113134761D01*
X166166666Y-113182380D01*
X166071428Y-113182380D01*
X165928571Y-113134761D01*
X165833333Y-113039523D01*
X165785714Y-112944285D01*
X165738095Y-112753809D01*
X165738095Y-112610952D01*
X165785714Y-112420476D01*
X165833333Y-112325238D01*
X165928571Y-112230000D01*
X166071428Y-112182380D01*
X166166666Y-112182380D01*
X166309523Y-112230000D01*
X166357142Y-112277619D01*
X167309523Y-113182380D02*
X166738095Y-113182380D01*
X167023809Y-113182380D02*
X167023809Y-112182380D01*
X166928571Y-112325238D01*
X166833333Y-112420476D01*
X166738095Y-112468095D01*
X168166666Y-112515714D02*
X168166666Y-113182380D01*
X167928571Y-112134761D02*
X167690476Y-112849047D01*
X168309523Y-112849047D01*
X172177142Y-107642857D02*
X172224761Y-107690476D01*
X172272380Y-107833333D01*
X172272380Y-107928571D01*
X172224761Y-108071428D01*
X172129523Y-108166666D01*
X172034285Y-108214285D01*
X171843809Y-108261904D01*
X171700952Y-108261904D01*
X171510476Y-108214285D01*
X171415238Y-108166666D01*
X171320000Y-108071428D01*
X171272380Y-107928571D01*
X171272380Y-107833333D01*
X171320000Y-107690476D01*
X171367619Y-107642857D01*
X172272380Y-106690476D02*
X172272380Y-107261904D01*
X172272380Y-106976190D02*
X171272380Y-106976190D01*
X171415238Y-107071428D01*
X171510476Y-107166666D01*
X171558095Y-107261904D01*
X171272380Y-105785714D02*
X171272380Y-106261904D01*
X171748571Y-106309523D01*
X171700952Y-106261904D01*
X171653333Y-106166666D01*
X171653333Y-105928571D01*
X171700952Y-105833333D01*
X171748571Y-105785714D01*
X171843809Y-105738095D01*
X172081904Y-105738095D01*
X172177142Y-105785714D01*
X172224761Y-105833333D01*
X172272380Y-105928571D01*
X172272380Y-106166666D01*
X172224761Y-106261904D01*
X172177142Y-106309523D01*
X227107142Y-110142857D02*
X227154761Y-110190476D01*
X227202380Y-110333333D01*
X227202380Y-110428571D01*
X227154761Y-110571428D01*
X227059523Y-110666666D01*
X226964285Y-110714285D01*
X226773809Y-110761904D01*
X226630952Y-110761904D01*
X226440476Y-110714285D01*
X226345238Y-110666666D01*
X226250000Y-110571428D01*
X226202380Y-110428571D01*
X226202380Y-110333333D01*
X226250000Y-110190476D01*
X226297619Y-110142857D01*
X227202380Y-109190476D02*
X227202380Y-109761904D01*
X227202380Y-109476190D02*
X226202380Y-109476190D01*
X226345238Y-109571428D01*
X226440476Y-109666666D01*
X226488095Y-109761904D01*
X226202380Y-108333333D02*
X226202380Y-108523809D01*
X226250000Y-108619047D01*
X226297619Y-108666666D01*
X226440476Y-108761904D01*
X226630952Y-108809523D01*
X227011904Y-108809523D01*
X227107142Y-108761904D01*
X227154761Y-108714285D01*
X227202380Y-108619047D01*
X227202380Y-108428571D01*
X227154761Y-108333333D01*
X227107142Y-108285714D01*
X227011904Y-108238095D01*
X226773809Y-108238095D01*
X226678571Y-108285714D01*
X226630952Y-108333333D01*
X226583333Y-108428571D01*
X226583333Y-108619047D01*
X226630952Y-108714285D01*
X226678571Y-108761904D01*
X226773809Y-108809523D01*
X179037142Y-106642857D02*
X179084761Y-106690476D01*
X179132380Y-106833333D01*
X179132380Y-106928571D01*
X179084761Y-107071428D01*
X178989523Y-107166666D01*
X178894285Y-107214285D01*
X178703809Y-107261904D01*
X178560952Y-107261904D01*
X178370476Y-107214285D01*
X178275238Y-107166666D01*
X178180000Y-107071428D01*
X178132380Y-106928571D01*
X178132380Y-106833333D01*
X178180000Y-106690476D01*
X178227619Y-106642857D01*
X179132380Y-105690476D02*
X179132380Y-106261904D01*
X179132380Y-105976190D02*
X178132380Y-105976190D01*
X178275238Y-106071428D01*
X178370476Y-106166666D01*
X178418095Y-106261904D01*
X178132380Y-105357142D02*
X178132380Y-104690476D01*
X179132380Y-105119047D01*
X182207142Y-101042857D02*
X182254761Y-101090476D01*
X182302380Y-101233333D01*
X182302380Y-101328571D01*
X182254761Y-101471428D01*
X182159523Y-101566666D01*
X182064285Y-101614285D01*
X181873809Y-101661904D01*
X181730952Y-101661904D01*
X181540476Y-101614285D01*
X181445238Y-101566666D01*
X181350000Y-101471428D01*
X181302380Y-101328571D01*
X181302380Y-101233333D01*
X181350000Y-101090476D01*
X181397619Y-101042857D01*
X182302380Y-100090476D02*
X182302380Y-100661904D01*
X182302380Y-100376190D02*
X181302380Y-100376190D01*
X181445238Y-100471428D01*
X181540476Y-100566666D01*
X181588095Y-100661904D01*
X181730952Y-99519047D02*
X181683333Y-99614285D01*
X181635714Y-99661904D01*
X181540476Y-99709523D01*
X181492857Y-99709523D01*
X181397619Y-99661904D01*
X181350000Y-99614285D01*
X181302380Y-99519047D01*
X181302380Y-99328571D01*
X181350000Y-99233333D01*
X181397619Y-99185714D01*
X181492857Y-99138095D01*
X181540476Y-99138095D01*
X181635714Y-99185714D01*
X181683333Y-99233333D01*
X181730952Y-99328571D01*
X181730952Y-99519047D01*
X181778571Y-99614285D01*
X181826190Y-99661904D01*
X181921428Y-99709523D01*
X182111904Y-99709523D01*
X182207142Y-99661904D01*
X182254761Y-99614285D01*
X182302380Y-99519047D01*
X182302380Y-99328571D01*
X182254761Y-99233333D01*
X182207142Y-99185714D01*
X182111904Y-99138095D01*
X181921428Y-99138095D01*
X181826190Y-99185714D01*
X181778571Y-99233333D01*
X181730952Y-99328571D01*
X177957142Y-113907142D02*
X177909523Y-113954761D01*
X177766666Y-114002380D01*
X177671428Y-114002380D01*
X177528571Y-113954761D01*
X177433333Y-113859523D01*
X177385714Y-113764285D01*
X177338095Y-113573809D01*
X177338095Y-113430952D01*
X177385714Y-113240476D01*
X177433333Y-113145238D01*
X177528571Y-113050000D01*
X177671428Y-113002380D01*
X177766666Y-113002380D01*
X177909523Y-113050000D01*
X177957142Y-113097619D01*
X178909523Y-114002380D02*
X178338095Y-114002380D01*
X178623809Y-114002380D02*
X178623809Y-113002380D01*
X178528571Y-113145238D01*
X178433333Y-113240476D01*
X178338095Y-113288095D01*
X179385714Y-114002380D02*
X179576190Y-114002380D01*
X179671428Y-113954761D01*
X179719047Y-113907142D01*
X179814285Y-113764285D01*
X179861904Y-113573809D01*
X179861904Y-113192857D01*
X179814285Y-113097619D01*
X179766666Y-113050000D01*
X179671428Y-113002380D01*
X179480952Y-113002380D01*
X179385714Y-113050000D01*
X179338095Y-113097619D01*
X179290476Y-113192857D01*
X179290476Y-113430952D01*
X179338095Y-113526190D01*
X179385714Y-113573809D01*
X179480952Y-113621428D01*
X179671428Y-113621428D01*
X179766666Y-113573809D01*
X179814285Y-113526190D01*
X179861904Y-113430952D01*
X189257142Y-105242857D02*
X189304761Y-105290476D01*
X189352380Y-105433333D01*
X189352380Y-105528571D01*
X189304761Y-105671428D01*
X189209523Y-105766666D01*
X189114285Y-105814285D01*
X188923809Y-105861904D01*
X188780952Y-105861904D01*
X188590476Y-105814285D01*
X188495238Y-105766666D01*
X188400000Y-105671428D01*
X188352380Y-105528571D01*
X188352380Y-105433333D01*
X188400000Y-105290476D01*
X188447619Y-105242857D01*
X188447619Y-104861904D02*
X188400000Y-104814285D01*
X188352380Y-104719047D01*
X188352380Y-104480952D01*
X188400000Y-104385714D01*
X188447619Y-104338095D01*
X188542857Y-104290476D01*
X188638095Y-104290476D01*
X188780952Y-104338095D01*
X189352380Y-104909523D01*
X189352380Y-104290476D01*
X188352380Y-103671428D02*
X188352380Y-103576190D01*
X188400000Y-103480952D01*
X188447619Y-103433333D01*
X188542857Y-103385714D01*
X188733333Y-103338095D01*
X188971428Y-103338095D01*
X189161904Y-103385714D01*
X189257142Y-103433333D01*
X189304761Y-103480952D01*
X189352380Y-103576190D01*
X189352380Y-103671428D01*
X189304761Y-103766666D01*
X189257142Y-103814285D01*
X189161904Y-103861904D01*
X188971428Y-103909523D01*
X188733333Y-103909523D01*
X188542857Y-103861904D01*
X188447619Y-103814285D01*
X188400000Y-103766666D01*
X188352380Y-103671428D01*
X184757142Y-113907142D02*
X184709523Y-113954761D01*
X184566666Y-114002380D01*
X184471428Y-114002380D01*
X184328571Y-113954761D01*
X184233333Y-113859523D01*
X184185714Y-113764285D01*
X184138095Y-113573809D01*
X184138095Y-113430952D01*
X184185714Y-113240476D01*
X184233333Y-113145238D01*
X184328571Y-113050000D01*
X184471428Y-113002380D01*
X184566666Y-113002380D01*
X184709523Y-113050000D01*
X184757142Y-113097619D01*
X185138095Y-113097619D02*
X185185714Y-113050000D01*
X185280952Y-113002380D01*
X185519047Y-113002380D01*
X185614285Y-113050000D01*
X185661904Y-113097619D01*
X185709523Y-113192857D01*
X185709523Y-113288095D01*
X185661904Y-113430952D01*
X185090476Y-114002380D01*
X185709523Y-114002380D01*
X186661904Y-114002380D02*
X186090476Y-114002380D01*
X186376190Y-114002380D02*
X186376190Y-113002380D01*
X186280952Y-113145238D01*
X186185714Y-113240476D01*
X186090476Y-113288095D01*
X194457142Y-111457142D02*
X194409523Y-111504761D01*
X194266666Y-111552380D01*
X194171428Y-111552380D01*
X194028571Y-111504761D01*
X193933333Y-111409523D01*
X193885714Y-111314285D01*
X193838095Y-111123809D01*
X193838095Y-110980952D01*
X193885714Y-110790476D01*
X193933333Y-110695238D01*
X194028571Y-110600000D01*
X194171428Y-110552380D01*
X194266666Y-110552380D01*
X194409523Y-110600000D01*
X194457142Y-110647619D01*
X194838095Y-110647619D02*
X194885714Y-110600000D01*
X194980952Y-110552380D01*
X195219047Y-110552380D01*
X195314285Y-110600000D01*
X195361904Y-110647619D01*
X195409523Y-110742857D01*
X195409523Y-110838095D01*
X195361904Y-110980952D01*
X194790476Y-111552380D01*
X195409523Y-111552380D01*
X195790476Y-110647619D02*
X195838095Y-110600000D01*
X195933333Y-110552380D01*
X196171428Y-110552380D01*
X196266666Y-110600000D01*
X196314285Y-110647619D01*
X196361904Y-110742857D01*
X196361904Y-110838095D01*
X196314285Y-110980952D01*
X195742857Y-111552380D01*
X196361904Y-111552380D01*
X201957142Y-101657142D02*
X201909523Y-101704761D01*
X201766666Y-101752380D01*
X201671428Y-101752380D01*
X201528571Y-101704761D01*
X201433333Y-101609523D01*
X201385714Y-101514285D01*
X201338095Y-101323809D01*
X201338095Y-101180952D01*
X201385714Y-100990476D01*
X201433333Y-100895238D01*
X201528571Y-100800000D01*
X201671428Y-100752380D01*
X201766666Y-100752380D01*
X201909523Y-100800000D01*
X201957142Y-100847619D01*
X202338095Y-100847619D02*
X202385714Y-100800000D01*
X202480952Y-100752380D01*
X202719047Y-100752380D01*
X202814285Y-100800000D01*
X202861904Y-100847619D01*
X202909523Y-100942857D01*
X202909523Y-101038095D01*
X202861904Y-101180952D01*
X202290476Y-101752380D01*
X202909523Y-101752380D01*
X203242857Y-100752380D02*
X203861904Y-100752380D01*
X203528571Y-101133333D01*
X203671428Y-101133333D01*
X203766666Y-101180952D01*
X203814285Y-101228571D01*
X203861904Y-101323809D01*
X203861904Y-101561904D01*
X203814285Y-101657142D01*
X203766666Y-101704761D01*
X203671428Y-101752380D01*
X203385714Y-101752380D01*
X203290476Y-101704761D01*
X203242857Y-101657142D01*
X208357142Y-112137142D02*
X208309523Y-112184761D01*
X208166666Y-112232380D01*
X208071428Y-112232380D01*
X207928571Y-112184761D01*
X207833333Y-112089523D01*
X207785714Y-111994285D01*
X207738095Y-111803809D01*
X207738095Y-111660952D01*
X207785714Y-111470476D01*
X207833333Y-111375238D01*
X207928571Y-111280000D01*
X208071428Y-111232380D01*
X208166666Y-111232380D01*
X208309523Y-111280000D01*
X208357142Y-111327619D01*
X208738095Y-111327619D02*
X208785714Y-111280000D01*
X208880952Y-111232380D01*
X209119047Y-111232380D01*
X209214285Y-111280000D01*
X209261904Y-111327619D01*
X209309523Y-111422857D01*
X209309523Y-111518095D01*
X209261904Y-111660952D01*
X208690476Y-112232380D01*
X209309523Y-112232380D01*
X210166666Y-111565714D02*
X210166666Y-112232380D01*
X209928571Y-111184761D02*
X209690476Y-111899047D01*
X210309523Y-111899047D01*
X181307142Y-115742857D02*
X181354761Y-115790476D01*
X181402380Y-115933333D01*
X181402380Y-116028571D01*
X181354761Y-116171428D01*
X181259523Y-116266666D01*
X181164285Y-116314285D01*
X180973809Y-116361904D01*
X180830952Y-116361904D01*
X180640476Y-116314285D01*
X180545238Y-116266666D01*
X180450000Y-116171428D01*
X180402380Y-116028571D01*
X180402380Y-115933333D01*
X180450000Y-115790476D01*
X180497619Y-115742857D01*
X180497619Y-115361904D02*
X180450000Y-115314285D01*
X180402380Y-115219047D01*
X180402380Y-114980952D01*
X180450000Y-114885714D01*
X180497619Y-114838095D01*
X180592857Y-114790476D01*
X180688095Y-114790476D01*
X180830952Y-114838095D01*
X181402380Y-115409523D01*
X181402380Y-114790476D01*
X180402380Y-113885714D02*
X180402380Y-114361904D01*
X180878571Y-114409523D01*
X180830952Y-114361904D01*
X180783333Y-114266666D01*
X180783333Y-114028571D01*
X180830952Y-113933333D01*
X180878571Y-113885714D01*
X180973809Y-113838095D01*
X181211904Y-113838095D01*
X181307142Y-113885714D01*
X181354761Y-113933333D01*
X181402380Y-114028571D01*
X181402380Y-114266666D01*
X181354761Y-114361904D01*
X181307142Y-114409523D01*
X220427142Y-110142857D02*
X220474761Y-110190476D01*
X220522380Y-110333333D01*
X220522380Y-110428571D01*
X220474761Y-110571428D01*
X220379523Y-110666666D01*
X220284285Y-110714285D01*
X220093809Y-110761904D01*
X219950952Y-110761904D01*
X219760476Y-110714285D01*
X219665238Y-110666666D01*
X219570000Y-110571428D01*
X219522380Y-110428571D01*
X219522380Y-110333333D01*
X219570000Y-110190476D01*
X219617619Y-110142857D01*
X219617619Y-109761904D02*
X219570000Y-109714285D01*
X219522380Y-109619047D01*
X219522380Y-109380952D01*
X219570000Y-109285714D01*
X219617619Y-109238095D01*
X219712857Y-109190476D01*
X219808095Y-109190476D01*
X219950952Y-109238095D01*
X220522380Y-109809523D01*
X220522380Y-109190476D01*
X220522380Y-108714285D02*
X220522380Y-108523809D01*
X220474761Y-108428571D01*
X220427142Y-108380952D01*
X220284285Y-108285714D01*
X220093809Y-108238095D01*
X219712857Y-108238095D01*
X219617619Y-108285714D01*
X219570000Y-108333333D01*
X219522380Y-108428571D01*
X219522380Y-108619047D01*
X219570000Y-108714285D01*
X219617619Y-108761904D01*
X219712857Y-108809523D01*
X219950952Y-108809523D01*
X220046190Y-108761904D01*
X220093809Y-108714285D01*
X220141428Y-108619047D01*
X220141428Y-108428571D01*
X220093809Y-108333333D01*
X220046190Y-108285714D01*
X219950952Y-108238095D01*
X227127142Y-105842857D02*
X227174761Y-105890476D01*
X227222380Y-106033333D01*
X227222380Y-106128571D01*
X227174761Y-106271428D01*
X227079523Y-106366666D01*
X226984285Y-106414285D01*
X226793809Y-106461904D01*
X226650952Y-106461904D01*
X226460476Y-106414285D01*
X226365238Y-106366666D01*
X226270000Y-106271428D01*
X226222380Y-106128571D01*
X226222380Y-106033333D01*
X226270000Y-105890476D01*
X226317619Y-105842857D01*
X226222380Y-105509523D02*
X226222380Y-104890476D01*
X226603333Y-105223809D01*
X226603333Y-105080952D01*
X226650952Y-104985714D01*
X226698571Y-104938095D01*
X226793809Y-104890476D01*
X227031904Y-104890476D01*
X227127142Y-104938095D01*
X227174761Y-104985714D01*
X227222380Y-105080952D01*
X227222380Y-105366666D01*
X227174761Y-105461904D01*
X227127142Y-105509523D01*
X226222380Y-104271428D02*
X226222380Y-104176190D01*
X226270000Y-104080952D01*
X226317619Y-104033333D01*
X226412857Y-103985714D01*
X226603333Y-103938095D01*
X226841428Y-103938095D01*
X227031904Y-103985714D01*
X227127142Y-104033333D01*
X227174761Y-104080952D01*
X227222380Y-104176190D01*
X227222380Y-104271428D01*
X227174761Y-104366666D01*
X227127142Y-104414285D01*
X227031904Y-104461904D01*
X226841428Y-104509523D01*
X226603333Y-104509523D01*
X226412857Y-104461904D01*
X226317619Y-104414285D01*
X226270000Y-104366666D01*
X226222380Y-104271428D01*
X180827142Y-123342857D02*
X180874761Y-123390476D01*
X180922380Y-123533333D01*
X180922380Y-123628571D01*
X180874761Y-123771428D01*
X180779523Y-123866666D01*
X180684285Y-123914285D01*
X180493809Y-123961904D01*
X180350952Y-123961904D01*
X180160476Y-123914285D01*
X180065238Y-123866666D01*
X179970000Y-123771428D01*
X179922380Y-123628571D01*
X179922380Y-123533333D01*
X179970000Y-123390476D01*
X180017619Y-123342857D01*
X179922380Y-123009523D02*
X179922380Y-122390476D01*
X180303333Y-122723809D01*
X180303333Y-122580952D01*
X180350952Y-122485714D01*
X180398571Y-122438095D01*
X180493809Y-122390476D01*
X180731904Y-122390476D01*
X180827142Y-122438095D01*
X180874761Y-122485714D01*
X180922380Y-122580952D01*
X180922380Y-122866666D01*
X180874761Y-122961904D01*
X180827142Y-123009523D01*
X180017619Y-122009523D02*
X179970000Y-121961904D01*
X179922380Y-121866666D01*
X179922380Y-121628571D01*
X179970000Y-121533333D01*
X180017619Y-121485714D01*
X180112857Y-121438095D01*
X180208095Y-121438095D01*
X180350952Y-121485714D01*
X180922380Y-122057142D01*
X180922380Y-121438095D01*
X184047142Y-139642857D02*
X184094761Y-139690476D01*
X184142380Y-139833333D01*
X184142380Y-139928571D01*
X184094761Y-140071428D01*
X183999523Y-140166666D01*
X183904285Y-140214285D01*
X183713809Y-140261904D01*
X183570952Y-140261904D01*
X183380476Y-140214285D01*
X183285238Y-140166666D01*
X183190000Y-140071428D01*
X183142380Y-139928571D01*
X183142380Y-139833333D01*
X183190000Y-139690476D01*
X183237619Y-139642857D01*
X183142380Y-139309523D02*
X183142380Y-138690476D01*
X183523333Y-139023809D01*
X183523333Y-138880952D01*
X183570952Y-138785714D01*
X183618571Y-138738095D01*
X183713809Y-138690476D01*
X183951904Y-138690476D01*
X184047142Y-138738095D01*
X184094761Y-138785714D01*
X184142380Y-138880952D01*
X184142380Y-139166666D01*
X184094761Y-139261904D01*
X184047142Y-139309523D01*
X183142380Y-138357142D02*
X183142380Y-137738095D01*
X183523333Y-138071428D01*
X183523333Y-137928571D01*
X183570952Y-137833333D01*
X183618571Y-137785714D01*
X183713809Y-137738095D01*
X183951904Y-137738095D01*
X184047142Y-137785714D01*
X184094761Y-137833333D01*
X184142380Y-137928571D01*
X184142380Y-138214285D01*
X184094761Y-138309523D01*
X184047142Y-138357142D01*
X179557142Y-135227142D02*
X179509523Y-135274761D01*
X179366666Y-135322380D01*
X179271428Y-135322380D01*
X179128571Y-135274761D01*
X179033333Y-135179523D01*
X178985714Y-135084285D01*
X178938095Y-134893809D01*
X178938095Y-134750952D01*
X178985714Y-134560476D01*
X179033333Y-134465238D01*
X179128571Y-134370000D01*
X179271428Y-134322380D01*
X179366666Y-134322380D01*
X179509523Y-134370000D01*
X179557142Y-134417619D01*
X179890476Y-134322380D02*
X180509523Y-134322380D01*
X180176190Y-134703333D01*
X180319047Y-134703333D01*
X180414285Y-134750952D01*
X180461904Y-134798571D01*
X180509523Y-134893809D01*
X180509523Y-135131904D01*
X180461904Y-135227142D01*
X180414285Y-135274761D01*
X180319047Y-135322380D01*
X180033333Y-135322380D01*
X179938095Y-135274761D01*
X179890476Y-135227142D01*
X181366666Y-134655714D02*
X181366666Y-135322380D01*
X181128571Y-134274761D02*
X180890476Y-134989047D01*
X181509523Y-134989047D01*
X163847142Y-139642857D02*
X163894761Y-139690476D01*
X163942380Y-139833333D01*
X163942380Y-139928571D01*
X163894761Y-140071428D01*
X163799523Y-140166666D01*
X163704285Y-140214285D01*
X163513809Y-140261904D01*
X163370952Y-140261904D01*
X163180476Y-140214285D01*
X163085238Y-140166666D01*
X162990000Y-140071428D01*
X162942380Y-139928571D01*
X162942380Y-139833333D01*
X162990000Y-139690476D01*
X163037619Y-139642857D01*
X162942380Y-139309523D02*
X162942380Y-138690476D01*
X163323333Y-139023809D01*
X163323333Y-138880952D01*
X163370952Y-138785714D01*
X163418571Y-138738095D01*
X163513809Y-138690476D01*
X163751904Y-138690476D01*
X163847142Y-138738095D01*
X163894761Y-138785714D01*
X163942380Y-138880952D01*
X163942380Y-139166666D01*
X163894761Y-139261904D01*
X163847142Y-139309523D01*
X162942380Y-138357142D02*
X162942380Y-137690476D01*
X163942380Y-138119047D01*
X174657142Y-135227142D02*
X174609523Y-135274761D01*
X174466666Y-135322380D01*
X174371428Y-135322380D01*
X174228571Y-135274761D01*
X174133333Y-135179523D01*
X174085714Y-135084285D01*
X174038095Y-134893809D01*
X174038095Y-134750952D01*
X174085714Y-134560476D01*
X174133333Y-134465238D01*
X174228571Y-134370000D01*
X174371428Y-134322380D01*
X174466666Y-134322380D01*
X174609523Y-134370000D01*
X174657142Y-134417619D01*
X174990476Y-134322380D02*
X175609523Y-134322380D01*
X175276190Y-134703333D01*
X175419047Y-134703333D01*
X175514285Y-134750952D01*
X175561904Y-134798571D01*
X175609523Y-134893809D01*
X175609523Y-135131904D01*
X175561904Y-135227142D01*
X175514285Y-135274761D01*
X175419047Y-135322380D01*
X175133333Y-135322380D01*
X175038095Y-135274761D01*
X174990476Y-135227142D01*
X176180952Y-134750952D02*
X176085714Y-134703333D01*
X176038095Y-134655714D01*
X175990476Y-134560476D01*
X175990476Y-134512857D01*
X176038095Y-134417619D01*
X176085714Y-134370000D01*
X176180952Y-134322380D01*
X176371428Y-134322380D01*
X176466666Y-134370000D01*
X176514285Y-134417619D01*
X176561904Y-134512857D01*
X176561904Y-134560476D01*
X176514285Y-134655714D01*
X176466666Y-134703333D01*
X176371428Y-134750952D01*
X176180952Y-134750952D01*
X176085714Y-134798571D01*
X176038095Y-134846190D01*
X175990476Y-134941428D01*
X175990476Y-135131904D01*
X176038095Y-135227142D01*
X176085714Y-135274761D01*
X176180952Y-135322380D01*
X176371428Y-135322380D01*
X176466666Y-135274761D01*
X176514285Y-135227142D01*
X176561904Y-135131904D01*
X176561904Y-134941428D01*
X176514285Y-134846190D01*
X176466666Y-134798571D01*
X176371428Y-134750952D01*
X144047142Y-139642857D02*
X144094761Y-139690476D01*
X144142380Y-139833333D01*
X144142380Y-139928571D01*
X144094761Y-140071428D01*
X143999523Y-140166666D01*
X143904285Y-140214285D01*
X143713809Y-140261904D01*
X143570952Y-140261904D01*
X143380476Y-140214285D01*
X143285238Y-140166666D01*
X143190000Y-140071428D01*
X143142380Y-139928571D01*
X143142380Y-139833333D01*
X143190000Y-139690476D01*
X143237619Y-139642857D01*
X143475714Y-138785714D02*
X144142380Y-138785714D01*
X143094761Y-139023809D02*
X143809047Y-139261904D01*
X143809047Y-138642857D01*
X143142380Y-138071428D02*
X143142380Y-137976190D01*
X143190000Y-137880952D01*
X143237619Y-137833333D01*
X143332857Y-137785714D01*
X143523333Y-137738095D01*
X143761428Y-137738095D01*
X143951904Y-137785714D01*
X144047142Y-137833333D01*
X144094761Y-137880952D01*
X144142380Y-137976190D01*
X144142380Y-138071428D01*
X144094761Y-138166666D01*
X144047142Y-138214285D01*
X143951904Y-138261904D01*
X143761428Y-138309523D01*
X143523333Y-138309523D01*
X143332857Y-138261904D01*
X143237619Y-138214285D01*
X143190000Y-138166666D01*
X143142380Y-138071428D01*
X154457142Y-135227142D02*
X154409523Y-135274761D01*
X154266666Y-135322380D01*
X154171428Y-135322380D01*
X154028571Y-135274761D01*
X153933333Y-135179523D01*
X153885714Y-135084285D01*
X153838095Y-134893809D01*
X153838095Y-134750952D01*
X153885714Y-134560476D01*
X153933333Y-134465238D01*
X154028571Y-134370000D01*
X154171428Y-134322380D01*
X154266666Y-134322380D01*
X154409523Y-134370000D01*
X154457142Y-134417619D01*
X155314285Y-134655714D02*
X155314285Y-135322380D01*
X155076190Y-134274761D02*
X154838095Y-134989047D01*
X155457142Y-134989047D01*
X155790476Y-134417619D02*
X155838095Y-134370000D01*
X155933333Y-134322380D01*
X156171428Y-134322380D01*
X156266666Y-134370000D01*
X156314285Y-134417619D01*
X156361904Y-134512857D01*
X156361904Y-134608095D01*
X156314285Y-134750952D01*
X155742857Y-135322380D01*
X156361904Y-135322380D01*
X123747142Y-139642857D02*
X123794761Y-139690476D01*
X123842380Y-139833333D01*
X123842380Y-139928571D01*
X123794761Y-140071428D01*
X123699523Y-140166666D01*
X123604285Y-140214285D01*
X123413809Y-140261904D01*
X123270952Y-140261904D01*
X123080476Y-140214285D01*
X122985238Y-140166666D01*
X122890000Y-140071428D01*
X122842380Y-139928571D01*
X122842380Y-139833333D01*
X122890000Y-139690476D01*
X122937619Y-139642857D01*
X123175714Y-138785714D02*
X123842380Y-138785714D01*
X122794761Y-139023809D02*
X123509047Y-139261904D01*
X123509047Y-138642857D01*
X122842380Y-138357142D02*
X122842380Y-137738095D01*
X123223333Y-138071428D01*
X123223333Y-137928571D01*
X123270952Y-137833333D01*
X123318571Y-137785714D01*
X123413809Y-137738095D01*
X123651904Y-137738095D01*
X123747142Y-137785714D01*
X123794761Y-137833333D01*
X123842380Y-137928571D01*
X123842380Y-138214285D01*
X123794761Y-138309523D01*
X123747142Y-138357142D01*
X134457142Y-135227142D02*
X134409523Y-135274761D01*
X134266666Y-135322380D01*
X134171428Y-135322380D01*
X134028571Y-135274761D01*
X133933333Y-135179523D01*
X133885714Y-135084285D01*
X133838095Y-134893809D01*
X133838095Y-134750952D01*
X133885714Y-134560476D01*
X133933333Y-134465238D01*
X134028571Y-134370000D01*
X134171428Y-134322380D01*
X134266666Y-134322380D01*
X134409523Y-134370000D01*
X134457142Y-134417619D01*
X135314285Y-134655714D02*
X135314285Y-135322380D01*
X135076190Y-134274761D02*
X134838095Y-134989047D01*
X135457142Y-134989047D01*
X136266666Y-134655714D02*
X136266666Y-135322380D01*
X136028571Y-134274761D02*
X135790476Y-134989047D01*
X136409523Y-134989047D01*
X121857142Y-81107142D02*
X121809523Y-81154761D01*
X121666666Y-81202380D01*
X121571428Y-81202380D01*
X121428571Y-81154761D01*
X121333333Y-81059523D01*
X121285714Y-80964285D01*
X121238095Y-80773809D01*
X121238095Y-80630952D01*
X121285714Y-80440476D01*
X121333333Y-80345238D01*
X121428571Y-80250000D01*
X121571428Y-80202380D01*
X121666666Y-80202380D01*
X121809523Y-80250000D01*
X121857142Y-80297619D01*
X122190476Y-80202380D02*
X122809523Y-80202380D01*
X122476190Y-80583333D01*
X122619047Y-80583333D01*
X122714285Y-80630952D01*
X122761904Y-80678571D01*
X122809523Y-80773809D01*
X122809523Y-81011904D01*
X122761904Y-81107142D01*
X122714285Y-81154761D01*
X122619047Y-81202380D01*
X122333333Y-81202380D01*
X122238095Y-81154761D01*
X122190476Y-81107142D01*
X123714285Y-80202380D02*
X123238095Y-80202380D01*
X123190476Y-80678571D01*
X123238095Y-80630952D01*
X123333333Y-80583333D01*
X123571428Y-80583333D01*
X123666666Y-80630952D01*
X123714285Y-80678571D01*
X123761904Y-80773809D01*
X123761904Y-81011904D01*
X123714285Y-81107142D01*
X123666666Y-81154761D01*
X123571428Y-81202380D01*
X123333333Y-81202380D01*
X123238095Y-81154761D01*
X123190476Y-81107142D01*
X122357142Y-71427142D02*
X122309523Y-71474761D01*
X122166666Y-71522380D01*
X122071428Y-71522380D01*
X121928571Y-71474761D01*
X121833333Y-71379523D01*
X121785714Y-71284285D01*
X121738095Y-71093809D01*
X121738095Y-70950952D01*
X121785714Y-70760476D01*
X121833333Y-70665238D01*
X121928571Y-70570000D01*
X122071428Y-70522380D01*
X122166666Y-70522380D01*
X122309523Y-70570000D01*
X122357142Y-70617619D01*
X122690476Y-70522380D02*
X123309523Y-70522380D01*
X122976190Y-70903333D01*
X123119047Y-70903333D01*
X123214285Y-70950952D01*
X123261904Y-70998571D01*
X123309523Y-71093809D01*
X123309523Y-71331904D01*
X123261904Y-71427142D01*
X123214285Y-71474761D01*
X123119047Y-71522380D01*
X122833333Y-71522380D01*
X122738095Y-71474761D01*
X122690476Y-71427142D01*
X124166666Y-70522380D02*
X123976190Y-70522380D01*
X123880952Y-70570000D01*
X123833333Y-70617619D01*
X123738095Y-70760476D01*
X123690476Y-70950952D01*
X123690476Y-71331904D01*
X123738095Y-71427142D01*
X123785714Y-71474761D01*
X123880952Y-71522380D01*
X124071428Y-71522380D01*
X124166666Y-71474761D01*
X124214285Y-71427142D01*
X124261904Y-71331904D01*
X124261904Y-71093809D01*
X124214285Y-70998571D01*
X124166666Y-70950952D01*
X124071428Y-70903333D01*
X123880952Y-70903333D01*
X123785714Y-70950952D01*
X123738095Y-70998571D01*
X123690476Y-71093809D01*
X116357142Y-66607142D02*
X116309523Y-66654761D01*
X116166666Y-66702380D01*
X116071428Y-66702380D01*
X115928571Y-66654761D01*
X115833333Y-66559523D01*
X115785714Y-66464285D01*
X115738095Y-66273809D01*
X115738095Y-66130952D01*
X115785714Y-65940476D01*
X115833333Y-65845238D01*
X115928571Y-65750000D01*
X116071428Y-65702380D01*
X116166666Y-65702380D01*
X116309523Y-65750000D01*
X116357142Y-65797619D01*
X116690476Y-65702380D02*
X117309523Y-65702380D01*
X116976190Y-66083333D01*
X117119047Y-66083333D01*
X117214285Y-66130952D01*
X117261904Y-66178571D01*
X117309523Y-66273809D01*
X117309523Y-66511904D01*
X117261904Y-66607142D01*
X117214285Y-66654761D01*
X117119047Y-66702380D01*
X116833333Y-66702380D01*
X116738095Y-66654761D01*
X116690476Y-66607142D01*
X117785714Y-66702380D02*
X117976190Y-66702380D01*
X118071428Y-66654761D01*
X118119047Y-66607142D01*
X118214285Y-66464285D01*
X118261904Y-66273809D01*
X118261904Y-65892857D01*
X118214285Y-65797619D01*
X118166666Y-65750000D01*
X118071428Y-65702380D01*
X117880952Y-65702380D01*
X117785714Y-65750000D01*
X117738095Y-65797619D01*
X117690476Y-65892857D01*
X117690476Y-66130952D01*
X117738095Y-66226190D01*
X117785714Y-66273809D01*
X117880952Y-66321428D01*
X118071428Y-66321428D01*
X118166666Y-66273809D01*
X118214285Y-66226190D01*
X118261904Y-66130952D01*
X122357142Y-67927142D02*
X122309523Y-67974761D01*
X122166666Y-68022380D01*
X122071428Y-68022380D01*
X121928571Y-67974761D01*
X121833333Y-67879523D01*
X121785714Y-67784285D01*
X121738095Y-67593809D01*
X121738095Y-67450952D01*
X121785714Y-67260476D01*
X121833333Y-67165238D01*
X121928571Y-67070000D01*
X122071428Y-67022380D01*
X122166666Y-67022380D01*
X122309523Y-67070000D01*
X122357142Y-67117619D01*
X123214285Y-67355714D02*
X123214285Y-68022380D01*
X122976190Y-66974761D02*
X122738095Y-67689047D01*
X123357142Y-67689047D01*
X124261904Y-68022380D02*
X123690476Y-68022380D01*
X123976190Y-68022380D02*
X123976190Y-67022380D01*
X123880952Y-67165238D01*
X123785714Y-67260476D01*
X123690476Y-67308095D01*
X233052380Y-116638095D02*
X232052380Y-116638095D01*
X232052380Y-116400000D01*
X232100000Y-116257142D01*
X232195238Y-116161904D01*
X232290476Y-116114285D01*
X232480952Y-116066666D01*
X232623809Y-116066666D01*
X232814285Y-116114285D01*
X232909523Y-116161904D01*
X233004761Y-116257142D01*
X233052380Y-116400000D01*
X233052380Y-116638095D01*
X233052380Y-115114285D02*
X233052380Y-115685714D01*
X233052380Y-115400000D02*
X232052380Y-115400000D01*
X232195238Y-115495238D01*
X232290476Y-115590476D01*
X232338095Y-115685714D01*
X213461904Y-131852380D02*
X213461904Y-130852380D01*
X213700000Y-130852380D01*
X213842857Y-130900000D01*
X213938095Y-130995238D01*
X213985714Y-131090476D01*
X214033333Y-131280952D01*
X214033333Y-131423809D01*
X213985714Y-131614285D01*
X213938095Y-131709523D01*
X213842857Y-131804761D01*
X213700000Y-131852380D01*
X213461904Y-131852380D01*
X214414285Y-130947619D02*
X214461904Y-130900000D01*
X214557142Y-130852380D01*
X214795238Y-130852380D01*
X214890476Y-130900000D01*
X214938095Y-130947619D01*
X214985714Y-131042857D01*
X214985714Y-131138095D01*
X214938095Y-131280952D01*
X214366666Y-131852380D01*
X214985714Y-131852380D01*
X129666666Y-122122380D02*
X129666666Y-122836666D01*
X129619047Y-122979523D01*
X129523809Y-123074761D01*
X129380952Y-123122380D01*
X129285714Y-123122380D01*
X130095238Y-122217619D02*
X130142857Y-122170000D01*
X130238095Y-122122380D01*
X130476190Y-122122380D01*
X130571428Y-122170000D01*
X130619047Y-122217619D01*
X130666666Y-122312857D01*
X130666666Y-122408095D01*
X130619047Y-122550952D01*
X130047619Y-123122380D01*
X130666666Y-123122380D01*
X147523809Y-116752380D02*
X147190476Y-116276190D01*
X146952380Y-116752380D02*
X146952380Y-115752380D01*
X147333333Y-115752380D01*
X147428571Y-115800000D01*
X147476190Y-115847619D01*
X147523809Y-115942857D01*
X147523809Y-116085714D01*
X147476190Y-116180952D01*
X147428571Y-116228571D01*
X147333333Y-116276190D01*
X146952380Y-116276190D01*
X148333333Y-116704761D02*
X148238095Y-116752380D01*
X148047619Y-116752380D01*
X147952380Y-116704761D01*
X147904761Y-116609523D01*
X147904761Y-116228571D01*
X147952380Y-116133333D01*
X148047619Y-116085714D01*
X148238095Y-116085714D01*
X148333333Y-116133333D01*
X148380952Y-116228571D01*
X148380952Y-116323809D01*
X147904761Y-116419047D01*
X148666666Y-116085714D02*
X149047619Y-116085714D01*
X148809523Y-116752380D02*
X148809523Y-115895238D01*
X148857142Y-115800000D01*
X148952380Y-115752380D01*
X149047619Y-115752380D01*
X149142857Y-116847619D02*
X149904761Y-116847619D01*
X150142857Y-116752380D02*
X150142857Y-115752380D01*
X150619047Y-116085714D02*
X150619047Y-116752380D01*
X150619047Y-116180952D02*
X150666666Y-116133333D01*
X150761904Y-116085714D01*
X150904761Y-116085714D01*
X151000000Y-116133333D01*
X151047619Y-116228571D01*
X151047619Y-116752380D01*
X222690476Y-121452380D02*
X222690476Y-120452380D01*
X223023809Y-121166666D01*
X223357142Y-120452380D01*
X223357142Y-121452380D01*
X223976190Y-121452380D02*
X223880952Y-121404761D01*
X223833333Y-121357142D01*
X223785714Y-121261904D01*
X223785714Y-120976190D01*
X223833333Y-120880952D01*
X223880952Y-120833333D01*
X223976190Y-120785714D01*
X224119047Y-120785714D01*
X224214285Y-120833333D01*
X224261904Y-120880952D01*
X224309523Y-120976190D01*
X224309523Y-121261904D01*
X224261904Y-121357142D01*
X224214285Y-121404761D01*
X224119047Y-121452380D01*
X223976190Y-121452380D01*
X225166666Y-121452380D02*
X225166666Y-120452380D01*
X225166666Y-121404761D02*
X225071428Y-121452380D01*
X224880952Y-121452380D01*
X224785714Y-121404761D01*
X224738095Y-121357142D01*
X224690476Y-121261904D01*
X224690476Y-120976190D01*
X224738095Y-120880952D01*
X224785714Y-120833333D01*
X224880952Y-120785714D01*
X225071428Y-120785714D01*
X225166666Y-120833333D01*
X225404761Y-121547619D02*
X226166666Y-121547619D01*
X226404761Y-121452380D02*
X226404761Y-120452380D01*
X226880952Y-120785714D02*
X226880952Y-121452380D01*
X226880952Y-120880952D02*
X226928571Y-120833333D01*
X227023809Y-120785714D01*
X227166666Y-120785714D01*
X227261904Y-120833333D01*
X227309523Y-120928571D01*
X227309523Y-121452380D01*
X112382380Y-122666666D02*
X111906190Y-123000000D01*
X112382380Y-123238095D02*
X111382380Y-123238095D01*
X111382380Y-122857142D01*
X111430000Y-122761904D01*
X111477619Y-122714285D01*
X111572857Y-122666666D01*
X111715714Y-122666666D01*
X111810952Y-122714285D01*
X111858571Y-122761904D01*
X111906190Y-122857142D01*
X111906190Y-123238095D01*
X112382380Y-121714285D02*
X112382380Y-122285714D01*
X112382380Y-122000000D02*
X111382380Y-122000000D01*
X111525238Y-122095238D01*
X111620476Y-122190476D01*
X111668095Y-122285714D01*
X112382380Y-135666666D02*
X111906190Y-136000000D01*
X112382380Y-136238095D02*
X111382380Y-136238095D01*
X111382380Y-135857142D01*
X111430000Y-135761904D01*
X111477619Y-135714285D01*
X111572857Y-135666666D01*
X111715714Y-135666666D01*
X111810952Y-135714285D01*
X111858571Y-135761904D01*
X111906190Y-135857142D01*
X111906190Y-136238095D01*
X111477619Y-135285714D02*
X111430000Y-135238095D01*
X111382380Y-135142857D01*
X111382380Y-134904761D01*
X111430000Y-134809523D01*
X111477619Y-134761904D01*
X111572857Y-134714285D01*
X111668095Y-134714285D01*
X111810952Y-134761904D01*
X112382380Y-135333333D01*
X112382380Y-134714285D01*
X165132380Y-112866666D02*
X164656190Y-113200000D01*
X165132380Y-113438095D02*
X164132380Y-113438095D01*
X164132380Y-113057142D01*
X164180000Y-112961904D01*
X164227619Y-112914285D01*
X164322857Y-112866666D01*
X164465714Y-112866666D01*
X164560952Y-112914285D01*
X164608571Y-112961904D01*
X164656190Y-113057142D01*
X164656190Y-113438095D01*
X164132380Y-112533333D02*
X164132380Y-111914285D01*
X164513333Y-112247619D01*
X164513333Y-112104761D01*
X164560952Y-112009523D01*
X164608571Y-111961904D01*
X164703809Y-111914285D01*
X164941904Y-111914285D01*
X165037142Y-111961904D01*
X165084761Y-112009523D01*
X165132380Y-112104761D01*
X165132380Y-112390476D01*
X165084761Y-112485714D01*
X165037142Y-112533333D01*
X237982380Y-110766666D02*
X237506190Y-111100000D01*
X237982380Y-111338095D02*
X236982380Y-111338095D01*
X236982380Y-110957142D01*
X237030000Y-110861904D01*
X237077619Y-110814285D01*
X237172857Y-110766666D01*
X237315714Y-110766666D01*
X237410952Y-110814285D01*
X237458571Y-110861904D01*
X237506190Y-110957142D01*
X237506190Y-111338095D01*
X236982380Y-109861904D02*
X236982380Y-110338095D01*
X237458571Y-110385714D01*
X237410952Y-110338095D01*
X237363333Y-110242857D01*
X237363333Y-110004761D01*
X237410952Y-109909523D01*
X237458571Y-109861904D01*
X237553809Y-109814285D01*
X237791904Y-109814285D01*
X237887142Y-109861904D01*
X237934761Y-109909523D01*
X237982380Y-110004761D01*
X237982380Y-110242857D01*
X237934761Y-110338095D01*
X237887142Y-110385714D01*
X230082380Y-109566666D02*
X229606190Y-109900000D01*
X230082380Y-110138095D02*
X229082380Y-110138095D01*
X229082380Y-109757142D01*
X229130000Y-109661904D01*
X229177619Y-109614285D01*
X229272857Y-109566666D01*
X229415714Y-109566666D01*
X229510952Y-109614285D01*
X229558571Y-109661904D01*
X229606190Y-109757142D01*
X229606190Y-110138095D01*
X229082380Y-108709523D02*
X229082380Y-108900000D01*
X229130000Y-108995238D01*
X229177619Y-109042857D01*
X229320476Y-109138095D01*
X229510952Y-109185714D01*
X229891904Y-109185714D01*
X229987142Y-109138095D01*
X230034761Y-109090476D01*
X230082380Y-108995238D01*
X230082380Y-108804761D01*
X230034761Y-108709523D01*
X229987142Y-108661904D01*
X229891904Y-108614285D01*
X229653809Y-108614285D01*
X229558571Y-108661904D01*
X229510952Y-108709523D01*
X229463333Y-108804761D01*
X229463333Y-108995238D01*
X229510952Y-109090476D01*
X229558571Y-109138095D01*
X229653809Y-109185714D01*
X183622380Y-106866666D02*
X183146190Y-107200000D01*
X183622380Y-107438095D02*
X182622380Y-107438095D01*
X182622380Y-107057142D01*
X182670000Y-106961904D01*
X182717619Y-106914285D01*
X182812857Y-106866666D01*
X182955714Y-106866666D01*
X183050952Y-106914285D01*
X183098571Y-106961904D01*
X183146190Y-107057142D01*
X183146190Y-107438095D01*
X182622380Y-106533333D02*
X182622380Y-105866666D01*
X183622380Y-106295238D01*
X187533333Y-109382380D02*
X187200000Y-108906190D01*
X186961904Y-109382380D02*
X186961904Y-108382380D01*
X187342857Y-108382380D01*
X187438095Y-108430000D01*
X187485714Y-108477619D01*
X187533333Y-108572857D01*
X187533333Y-108715714D01*
X187485714Y-108810952D01*
X187438095Y-108858571D01*
X187342857Y-108906190D01*
X186961904Y-108906190D01*
X188104761Y-108810952D02*
X188009523Y-108763333D01*
X187961904Y-108715714D01*
X187914285Y-108620476D01*
X187914285Y-108572857D01*
X187961904Y-108477619D01*
X188009523Y-108430000D01*
X188104761Y-108382380D01*
X188295238Y-108382380D01*
X188390476Y-108430000D01*
X188438095Y-108477619D01*
X188485714Y-108572857D01*
X188485714Y-108620476D01*
X188438095Y-108715714D01*
X188390476Y-108763333D01*
X188295238Y-108810952D01*
X188104761Y-108810952D01*
X188009523Y-108858571D01*
X187961904Y-108906190D01*
X187914285Y-109001428D01*
X187914285Y-109191904D01*
X187961904Y-109287142D01*
X188009523Y-109334761D01*
X188104761Y-109382380D01*
X188295238Y-109382380D01*
X188390476Y-109334761D01*
X188438095Y-109287142D01*
X188485714Y-109191904D01*
X188485714Y-109001428D01*
X188438095Y-108906190D01*
X188390476Y-108858571D01*
X188295238Y-108810952D01*
X205433333Y-111482380D02*
X205100000Y-111006190D01*
X204861904Y-111482380D02*
X204861904Y-110482380D01*
X205242857Y-110482380D01*
X205338095Y-110530000D01*
X205385714Y-110577619D01*
X205433333Y-110672857D01*
X205433333Y-110815714D01*
X205385714Y-110910952D01*
X205338095Y-110958571D01*
X205242857Y-111006190D01*
X204861904Y-111006190D01*
X205909523Y-111482380D02*
X206100000Y-111482380D01*
X206195238Y-111434761D01*
X206242857Y-111387142D01*
X206338095Y-111244285D01*
X206385714Y-111053809D01*
X206385714Y-110672857D01*
X206338095Y-110577619D01*
X206290476Y-110530000D01*
X206195238Y-110482380D01*
X206004761Y-110482380D01*
X205909523Y-110530000D01*
X205861904Y-110577619D01*
X205814285Y-110672857D01*
X205814285Y-110910952D01*
X205861904Y-111006190D01*
X205909523Y-111053809D01*
X206004761Y-111101428D01*
X206195238Y-111101428D01*
X206290476Y-111053809D01*
X206338095Y-111006190D01*
X206385714Y-110910952D01*
X181622380Y-111842857D02*
X181146190Y-112176190D01*
X181622380Y-112414285D02*
X180622380Y-112414285D01*
X180622380Y-112033333D01*
X180670000Y-111938095D01*
X180717619Y-111890476D01*
X180812857Y-111842857D01*
X180955714Y-111842857D01*
X181050952Y-111890476D01*
X181098571Y-111938095D01*
X181146190Y-112033333D01*
X181146190Y-112414285D01*
X181622380Y-110890476D02*
X181622380Y-111461904D01*
X181622380Y-111176190D02*
X180622380Y-111176190D01*
X180765238Y-111271428D01*
X180860476Y-111366666D01*
X180908095Y-111461904D01*
X180622380Y-110271428D02*
X180622380Y-110176190D01*
X180670000Y-110080952D01*
X180717619Y-110033333D01*
X180812857Y-109985714D01*
X181003333Y-109938095D01*
X181241428Y-109938095D01*
X181431904Y-109985714D01*
X181527142Y-110033333D01*
X181574761Y-110080952D01*
X181622380Y-110176190D01*
X181622380Y-110271428D01*
X181574761Y-110366666D01*
X181527142Y-110414285D01*
X181431904Y-110461904D01*
X181241428Y-110509523D01*
X181003333Y-110509523D01*
X180812857Y-110461904D01*
X180717619Y-110414285D01*
X180670000Y-110366666D01*
X180622380Y-110271428D01*
X197757142Y-100622380D02*
X197423809Y-100146190D01*
X197185714Y-100622380D02*
X197185714Y-99622380D01*
X197566666Y-99622380D01*
X197661904Y-99670000D01*
X197709523Y-99717619D01*
X197757142Y-99812857D01*
X197757142Y-99955714D01*
X197709523Y-100050952D01*
X197661904Y-100098571D01*
X197566666Y-100146190D01*
X197185714Y-100146190D01*
X198709523Y-100622380D02*
X198138095Y-100622380D01*
X198423809Y-100622380D02*
X198423809Y-99622380D01*
X198328571Y-99765238D01*
X198233333Y-99860476D01*
X198138095Y-99908095D01*
X199661904Y-100622380D02*
X199090476Y-100622380D01*
X199376190Y-100622380D02*
X199376190Y-99622380D01*
X199280952Y-99765238D01*
X199185714Y-99860476D01*
X199090476Y-99908095D01*
X208782380Y-107342857D02*
X208306190Y-107676190D01*
X208782380Y-107914285D02*
X207782380Y-107914285D01*
X207782380Y-107533333D01*
X207830000Y-107438095D01*
X207877619Y-107390476D01*
X207972857Y-107342857D01*
X208115714Y-107342857D01*
X208210952Y-107390476D01*
X208258571Y-107438095D01*
X208306190Y-107533333D01*
X208306190Y-107914285D01*
X208782380Y-106390476D02*
X208782380Y-106961904D01*
X208782380Y-106676190D02*
X207782380Y-106676190D01*
X207925238Y-106771428D01*
X208020476Y-106866666D01*
X208068095Y-106961904D01*
X207877619Y-106009523D02*
X207830000Y-105961904D01*
X207782380Y-105866666D01*
X207782380Y-105628571D01*
X207830000Y-105533333D01*
X207877619Y-105485714D01*
X207972857Y-105438095D01*
X208068095Y-105438095D01*
X208210952Y-105485714D01*
X208782380Y-106057142D01*
X208782380Y-105438095D01*
X205782380Y-107342857D02*
X205306190Y-107676190D01*
X205782380Y-107914285D02*
X204782380Y-107914285D01*
X204782380Y-107533333D01*
X204830000Y-107438095D01*
X204877619Y-107390476D01*
X204972857Y-107342857D01*
X205115714Y-107342857D01*
X205210952Y-107390476D01*
X205258571Y-107438095D01*
X205306190Y-107533333D01*
X205306190Y-107914285D01*
X205782380Y-106390476D02*
X205782380Y-106961904D01*
X205782380Y-106676190D02*
X204782380Y-106676190D01*
X204925238Y-106771428D01*
X205020476Y-106866666D01*
X205068095Y-106961904D01*
X204782380Y-106057142D02*
X204782380Y-105438095D01*
X205163333Y-105771428D01*
X205163333Y-105628571D01*
X205210952Y-105533333D01*
X205258571Y-105485714D01*
X205353809Y-105438095D01*
X205591904Y-105438095D01*
X205687142Y-105485714D01*
X205734761Y-105533333D01*
X205782380Y-105628571D01*
X205782380Y-105914285D01*
X205734761Y-106009523D01*
X205687142Y-106057142D01*
X179557142Y-119982380D02*
X179223809Y-119506190D01*
X178985714Y-119982380D02*
X178985714Y-118982380D01*
X179366666Y-118982380D01*
X179461904Y-119030000D01*
X179509523Y-119077619D01*
X179557142Y-119172857D01*
X179557142Y-119315714D01*
X179509523Y-119410952D01*
X179461904Y-119458571D01*
X179366666Y-119506190D01*
X178985714Y-119506190D01*
X180509523Y-119982380D02*
X179938095Y-119982380D01*
X180223809Y-119982380D02*
X180223809Y-118982380D01*
X180128571Y-119125238D01*
X180033333Y-119220476D01*
X179938095Y-119268095D01*
X181414285Y-118982380D02*
X180938095Y-118982380D01*
X180890476Y-119458571D01*
X180938095Y-119410952D01*
X181033333Y-119363333D01*
X181271428Y-119363333D01*
X181366666Y-119410952D01*
X181414285Y-119458571D01*
X181461904Y-119553809D01*
X181461904Y-119791904D01*
X181414285Y-119887142D01*
X181366666Y-119934761D01*
X181271428Y-119982380D01*
X181033333Y-119982380D01*
X180938095Y-119934761D01*
X180890476Y-119887142D01*
X227507142Y-136232380D02*
X227173809Y-135756190D01*
X226935714Y-136232380D02*
X226935714Y-135232380D01*
X227316666Y-135232380D01*
X227411904Y-135280000D01*
X227459523Y-135327619D01*
X227507142Y-135422857D01*
X227507142Y-135565714D01*
X227459523Y-135660952D01*
X227411904Y-135708571D01*
X227316666Y-135756190D01*
X226935714Y-135756190D01*
X228459523Y-136232380D02*
X227888095Y-136232380D01*
X228173809Y-136232380D02*
X228173809Y-135232380D01*
X228078571Y-135375238D01*
X227983333Y-135470476D01*
X227888095Y-135518095D01*
X229316666Y-135232380D02*
X229126190Y-135232380D01*
X229030952Y-135280000D01*
X228983333Y-135327619D01*
X228888095Y-135470476D01*
X228840476Y-135660952D01*
X228840476Y-136041904D01*
X228888095Y-136137142D01*
X228935714Y-136184761D01*
X229030952Y-136232380D01*
X229221428Y-136232380D01*
X229316666Y-136184761D01*
X229364285Y-136137142D01*
X229411904Y-136041904D01*
X229411904Y-135803809D01*
X229364285Y-135708571D01*
X229316666Y-135660952D01*
X229221428Y-135613333D01*
X229030952Y-135613333D01*
X228935714Y-135660952D01*
X228888095Y-135708571D01*
X228840476Y-135803809D01*
X193657142Y-100252380D02*
X193323809Y-99776190D01*
X193085714Y-100252380D02*
X193085714Y-99252380D01*
X193466666Y-99252380D01*
X193561904Y-99300000D01*
X193609523Y-99347619D01*
X193657142Y-99442857D01*
X193657142Y-99585714D01*
X193609523Y-99680952D01*
X193561904Y-99728571D01*
X193466666Y-99776190D01*
X193085714Y-99776190D01*
X194038095Y-99347619D02*
X194085714Y-99300000D01*
X194180952Y-99252380D01*
X194419047Y-99252380D01*
X194514285Y-99300000D01*
X194561904Y-99347619D01*
X194609523Y-99442857D01*
X194609523Y-99538095D01*
X194561904Y-99680952D01*
X193990476Y-100252380D01*
X194609523Y-100252380D01*
X195561904Y-100252380D02*
X194990476Y-100252380D01*
X195276190Y-100252380D02*
X195276190Y-99252380D01*
X195180952Y-99395238D01*
X195085714Y-99490476D01*
X194990476Y-99538095D01*
X193357142Y-103552380D02*
X193023809Y-103076190D01*
X192785714Y-103552380D02*
X192785714Y-102552380D01*
X193166666Y-102552380D01*
X193261904Y-102600000D01*
X193309523Y-102647619D01*
X193357142Y-102742857D01*
X193357142Y-102885714D01*
X193309523Y-102980952D01*
X193261904Y-103028571D01*
X193166666Y-103076190D01*
X192785714Y-103076190D01*
X193738095Y-102647619D02*
X193785714Y-102600000D01*
X193880952Y-102552380D01*
X194119047Y-102552380D01*
X194214285Y-102600000D01*
X194261904Y-102647619D01*
X194309523Y-102742857D01*
X194309523Y-102838095D01*
X194261904Y-102980952D01*
X193690476Y-103552380D01*
X194309523Y-103552380D01*
X194690476Y-102647619D02*
X194738095Y-102600000D01*
X194833333Y-102552380D01*
X195071428Y-102552380D01*
X195166666Y-102600000D01*
X195214285Y-102647619D01*
X195261904Y-102742857D01*
X195261904Y-102838095D01*
X195214285Y-102980952D01*
X194642857Y-103552380D01*
X195261904Y-103552380D01*
X206357142Y-101952380D02*
X206023809Y-101476190D01*
X205785714Y-101952380D02*
X205785714Y-100952380D01*
X206166666Y-100952380D01*
X206261904Y-101000000D01*
X206309523Y-101047619D01*
X206357142Y-101142857D01*
X206357142Y-101285714D01*
X206309523Y-101380952D01*
X206261904Y-101428571D01*
X206166666Y-101476190D01*
X205785714Y-101476190D01*
X206738095Y-101047619D02*
X206785714Y-101000000D01*
X206880952Y-100952380D01*
X207119047Y-100952380D01*
X207214285Y-101000000D01*
X207261904Y-101047619D01*
X207309523Y-101142857D01*
X207309523Y-101238095D01*
X207261904Y-101380952D01*
X206690476Y-101952380D01*
X207309523Y-101952380D01*
X207642857Y-100952380D02*
X208261904Y-100952380D01*
X207928571Y-101333333D01*
X208071428Y-101333333D01*
X208166666Y-101380952D01*
X208214285Y-101428571D01*
X208261904Y-101523809D01*
X208261904Y-101761904D01*
X208214285Y-101857142D01*
X208166666Y-101904761D01*
X208071428Y-101952380D01*
X207785714Y-101952380D01*
X207690476Y-101904761D01*
X207642857Y-101857142D01*
X117900000Y-120671428D02*
X118661904Y-120671428D01*
X118280952Y-121052380D02*
X118280952Y-120290476D01*
X119042857Y-120052380D02*
X119661904Y-120052380D01*
X119328571Y-120433333D01*
X119471428Y-120433333D01*
X119566666Y-120480952D01*
X119614285Y-120528571D01*
X119661904Y-120623809D01*
X119661904Y-120861904D01*
X119614285Y-120957142D01*
X119566666Y-121004761D01*
X119471428Y-121052380D01*
X119185714Y-121052380D01*
X119090476Y-121004761D01*
X119042857Y-120957142D01*
X120090476Y-120957142D02*
X120138095Y-121004761D01*
X120090476Y-121052380D01*
X120042857Y-121004761D01*
X120090476Y-120957142D01*
X120090476Y-121052380D01*
X120471428Y-120052380D02*
X121090476Y-120052380D01*
X120757142Y-120433333D01*
X120900000Y-120433333D01*
X120995238Y-120480952D01*
X121042857Y-120528571D01*
X121090476Y-120623809D01*
X121090476Y-120861904D01*
X121042857Y-120957142D01*
X120995238Y-121004761D01*
X120900000Y-121052380D01*
X120614285Y-121052380D01*
X120519047Y-121004761D01*
X120471428Y-120957142D01*
X121376190Y-120052380D02*
X121709523Y-121052380D01*
X122042857Y-120052380D01*
X117900000Y-134071428D02*
X118661904Y-134071428D01*
X118280952Y-134452380D02*
X118280952Y-133690476D01*
X119042857Y-133452380D02*
X119661904Y-133452380D01*
X119328571Y-133833333D01*
X119471428Y-133833333D01*
X119566666Y-133880952D01*
X119614285Y-133928571D01*
X119661904Y-134023809D01*
X119661904Y-134261904D01*
X119614285Y-134357142D01*
X119566666Y-134404761D01*
X119471428Y-134452380D01*
X119185714Y-134452380D01*
X119090476Y-134404761D01*
X119042857Y-134357142D01*
X120090476Y-134357142D02*
X120138095Y-134404761D01*
X120090476Y-134452380D01*
X120042857Y-134404761D01*
X120090476Y-134357142D01*
X120090476Y-134452380D01*
X120757142Y-133452380D02*
X120852380Y-133452380D01*
X120947619Y-133500000D01*
X120995238Y-133547619D01*
X121042857Y-133642857D01*
X121090476Y-133833333D01*
X121090476Y-134071428D01*
X121042857Y-134261904D01*
X120995238Y-134357142D01*
X120947619Y-134404761D01*
X120852380Y-134452380D01*
X120757142Y-134452380D01*
X120661904Y-134404761D01*
X120614285Y-134357142D01*
X120566666Y-134261904D01*
X120519047Y-134071428D01*
X120519047Y-133833333D01*
X120566666Y-133642857D01*
X120614285Y-133547619D01*
X120661904Y-133500000D01*
X120757142Y-133452380D01*
X121376190Y-133452380D02*
X121709523Y-134452380D01*
X122042857Y-133452380D01*
X107238095Y-97502380D02*
X107238095Y-98311904D01*
X107285714Y-98407142D01*
X107333333Y-98454761D01*
X107428571Y-98502380D01*
X107619047Y-98502380D01*
X107714285Y-98454761D01*
X107761904Y-98407142D01*
X107809523Y-98311904D01*
X107809523Y-97502380D01*
X108809523Y-98502380D02*
X108238095Y-98502380D01*
X108523809Y-98502380D02*
X108523809Y-97502380D01*
X108428571Y-97645238D01*
X108333333Y-97740476D01*
X108238095Y-97788095D01*
X197238095Y-102852380D02*
X197238095Y-103661904D01*
X197285714Y-103757142D01*
X197333333Y-103804761D01*
X197428571Y-103852380D01*
X197619047Y-103852380D01*
X197714285Y-103804761D01*
X197761904Y-103757142D01*
X197809523Y-103661904D01*
X197809523Y-102852380D01*
X198428571Y-103280952D02*
X198333333Y-103233333D01*
X198285714Y-103185714D01*
X198238095Y-103090476D01*
X198238095Y-103042857D01*
X198285714Y-102947619D01*
X198333333Y-102900000D01*
X198428571Y-102852380D01*
X198619047Y-102852380D01*
X198714285Y-102900000D01*
X198761904Y-102947619D01*
X198809523Y-103042857D01*
X198809523Y-103090476D01*
X198761904Y-103185714D01*
X198714285Y-103233333D01*
X198619047Y-103280952D01*
X198428571Y-103280952D01*
X198333333Y-103328571D01*
X198285714Y-103376190D01*
X198238095Y-103471428D01*
X198238095Y-103661904D01*
X198285714Y-103757142D01*
X198333333Y-103804761D01*
X198428571Y-103852380D01*
X198619047Y-103852380D01*
X198714285Y-103804761D01*
X198761904Y-103757142D01*
X198809523Y-103661904D01*
X198809523Y-103471428D01*
X198761904Y-103376190D01*
X198714285Y-103328571D01*
X198619047Y-103280952D01*
X176161904Y-137152380D02*
X176161904Y-137961904D01*
X176209523Y-138057142D01*
X176257142Y-138104761D01*
X176352380Y-138152380D01*
X176542857Y-138152380D01*
X176638095Y-138104761D01*
X176685714Y-138057142D01*
X176733333Y-137961904D01*
X176733333Y-137152380D01*
X177733333Y-138152380D02*
X177161904Y-138152380D01*
X177447619Y-138152380D02*
X177447619Y-137152380D01*
X177352380Y-137295238D01*
X177257142Y-137390476D01*
X177161904Y-137438095D01*
X178352380Y-137152380D02*
X178447619Y-137152380D01*
X178542857Y-137200000D01*
X178590476Y-137247619D01*
X178638095Y-137342857D01*
X178685714Y-137533333D01*
X178685714Y-137771428D01*
X178638095Y-137961904D01*
X178590476Y-138057142D01*
X178542857Y-138104761D01*
X178447619Y-138152380D01*
X178352380Y-138152380D01*
X178257142Y-138104761D01*
X178209523Y-138057142D01*
X178161904Y-137961904D01*
X178114285Y-137771428D01*
X178114285Y-137533333D01*
X178161904Y-137342857D01*
X178209523Y-137247619D01*
X178257142Y-137200000D01*
X178352380Y-137152380D01*
X158861904Y-136652380D02*
X158861904Y-137461904D01*
X158909523Y-137557142D01*
X158957142Y-137604761D01*
X159052380Y-137652380D01*
X159242857Y-137652380D01*
X159338095Y-137604761D01*
X159385714Y-137557142D01*
X159433333Y-137461904D01*
X159433333Y-136652380D01*
X160433333Y-137652380D02*
X159861904Y-137652380D01*
X160147619Y-137652380D02*
X160147619Y-136652380D01*
X160052380Y-136795238D01*
X159957142Y-136890476D01*
X159861904Y-136938095D01*
X160814285Y-136747619D02*
X160861904Y-136700000D01*
X160957142Y-136652380D01*
X161195238Y-136652380D01*
X161290476Y-136700000D01*
X161338095Y-136747619D01*
X161385714Y-136842857D01*
X161385714Y-136938095D01*
X161338095Y-137080952D01*
X160766666Y-137652380D01*
X161385714Y-137652380D01*
X138361904Y-136752380D02*
X138361904Y-137561904D01*
X138409523Y-137657142D01*
X138457142Y-137704761D01*
X138552380Y-137752380D01*
X138742857Y-137752380D01*
X138838095Y-137704761D01*
X138885714Y-137657142D01*
X138933333Y-137561904D01*
X138933333Y-136752380D01*
X139933333Y-137752380D02*
X139361904Y-137752380D01*
X139647619Y-137752380D02*
X139647619Y-136752380D01*
X139552380Y-136895238D01*
X139457142Y-136990476D01*
X139361904Y-137038095D01*
X140266666Y-136752380D02*
X140885714Y-136752380D01*
X140552380Y-137133333D01*
X140695238Y-137133333D01*
X140790476Y-137180952D01*
X140838095Y-137228571D01*
X140885714Y-137323809D01*
X140885714Y-137561904D01*
X140838095Y-137657142D01*
X140790476Y-137704761D01*
X140695238Y-137752380D01*
X140409523Y-137752380D01*
X140314285Y-137704761D01*
X140266666Y-137657142D01*
X94872380Y-75698095D02*
X95681904Y-75698095D01*
X95777142Y-75650476D01*
X95824761Y-75602857D01*
X95872380Y-75507619D01*
X95872380Y-75317142D01*
X95824761Y-75221904D01*
X95777142Y-75174285D01*
X95681904Y-75126666D01*
X94872380Y-75126666D01*
X95872380Y-74126666D02*
X95872380Y-74698095D01*
X95872380Y-74412380D02*
X94872380Y-74412380D01*
X95015238Y-74507619D01*
X95110476Y-74602857D01*
X95158095Y-74698095D01*
X95872380Y-73174285D02*
X95872380Y-73745714D01*
X95872380Y-73460000D02*
X94872380Y-73460000D01*
X95015238Y-73555238D01*
X95110476Y-73650476D01*
X95158095Y-73745714D01*
X107738095Y-114502380D02*
X107738095Y-115311904D01*
X107785714Y-115407142D01*
X107833333Y-115454761D01*
X107928571Y-115502380D01*
X108119047Y-115502380D01*
X108214285Y-115454761D01*
X108261904Y-115407142D01*
X108309523Y-115311904D01*
X108309523Y-114502380D01*
X108738095Y-114597619D02*
X108785714Y-114550000D01*
X108880952Y-114502380D01*
X109119047Y-114502380D01*
X109214285Y-114550000D01*
X109261904Y-114597619D01*
X109309523Y-114692857D01*
X109309523Y-114788095D01*
X109261904Y-114930952D01*
X108690476Y-115502380D01*
X109309523Y-115502380D01*
X107738095Y-127502380D02*
X107738095Y-128311904D01*
X107785714Y-128407142D01*
X107833333Y-128454761D01*
X107928571Y-128502380D01*
X108119047Y-128502380D01*
X108214285Y-128454761D01*
X108261904Y-128407142D01*
X108309523Y-128311904D01*
X108309523Y-127502380D01*
X108690476Y-127502380D02*
X109309523Y-127502380D01*
X108976190Y-127883333D01*
X109119047Y-127883333D01*
X109214285Y-127930952D01*
X109261904Y-127978571D01*
X109309523Y-128073809D01*
X109309523Y-128311904D01*
X109261904Y-128407142D01*
X109214285Y-128454761D01*
X109119047Y-128502380D01*
X108833333Y-128502380D01*
X108738095Y-128454761D01*
X108690476Y-128407142D01*
X171638095Y-108602380D02*
X171638095Y-109411904D01*
X171685714Y-109507142D01*
X171733333Y-109554761D01*
X171828571Y-109602380D01*
X172019047Y-109602380D01*
X172114285Y-109554761D01*
X172161904Y-109507142D01*
X172209523Y-109411904D01*
X172209523Y-108602380D01*
X173114285Y-108935714D02*
X173114285Y-109602380D01*
X172876190Y-108554761D02*
X172638095Y-109269047D01*
X173257142Y-109269047D01*
X189887142Y-118642857D02*
X189934761Y-118690476D01*
X189982380Y-118833333D01*
X189982380Y-118928571D01*
X189934761Y-119071428D01*
X189839523Y-119166666D01*
X189744285Y-119214285D01*
X189553809Y-119261904D01*
X189410952Y-119261904D01*
X189220476Y-119214285D01*
X189125238Y-119166666D01*
X189030000Y-119071428D01*
X188982380Y-118928571D01*
X188982380Y-118833333D01*
X189030000Y-118690476D01*
X189077619Y-118642857D01*
X188982380Y-118309523D02*
X188982380Y-117690476D01*
X189363333Y-118023809D01*
X189363333Y-117880952D01*
X189410952Y-117785714D01*
X189458571Y-117738095D01*
X189553809Y-117690476D01*
X189791904Y-117690476D01*
X189887142Y-117738095D01*
X189934761Y-117785714D01*
X189982380Y-117880952D01*
X189982380Y-118166666D01*
X189934761Y-118261904D01*
X189887142Y-118309523D01*
X189982380Y-116738095D02*
X189982380Y-117309523D01*
X189982380Y-117023809D02*
X188982380Y-117023809D01*
X189125238Y-117119047D01*
X189220476Y-117214285D01*
X189268095Y-117309523D01*
X198452380Y-130461904D02*
X199261904Y-130461904D01*
X199357142Y-130414285D01*
X199404761Y-130366666D01*
X199452380Y-130271428D01*
X199452380Y-130080952D01*
X199404761Y-129985714D01*
X199357142Y-129938095D01*
X199261904Y-129890476D01*
X198452380Y-129890476D01*
X198452380Y-128985714D02*
X198452380Y-129176190D01*
X198500000Y-129271428D01*
X198547619Y-129319047D01*
X198690476Y-129414285D01*
X198880952Y-129461904D01*
X199261904Y-129461904D01*
X199357142Y-129414285D01*
X199404761Y-129366666D01*
X199452380Y-129271428D01*
X199452380Y-129080952D01*
X199404761Y-128985714D01*
X199357142Y-128938095D01*
X199261904Y-128890476D01*
X199023809Y-128890476D01*
X198928571Y-128938095D01*
X198880952Y-128985714D01*
X198833333Y-129080952D01*
X198833333Y-129271428D01*
X198880952Y-129366666D01*
X198928571Y-129414285D01*
X199023809Y-129461904D01*
X228157142Y-81227142D02*
X228109523Y-81274761D01*
X227966666Y-81322380D01*
X227871428Y-81322380D01*
X227728571Y-81274761D01*
X227633333Y-81179523D01*
X227585714Y-81084285D01*
X227538095Y-80893809D01*
X227538095Y-80750952D01*
X227585714Y-80560476D01*
X227633333Y-80465238D01*
X227728571Y-80370000D01*
X227871428Y-80322380D01*
X227966666Y-80322380D01*
X228109523Y-80370000D01*
X228157142Y-80417619D01*
X228538095Y-80417619D02*
X228585714Y-80370000D01*
X228680952Y-80322380D01*
X228919047Y-80322380D01*
X229014285Y-80370000D01*
X229061904Y-80417619D01*
X229109523Y-80512857D01*
X229109523Y-80608095D01*
X229061904Y-80750952D01*
X228490476Y-81322380D01*
X229109523Y-81322380D01*
X229966666Y-80322380D02*
X229776190Y-80322380D01*
X229680952Y-80370000D01*
X229633333Y-80417619D01*
X229538095Y-80560476D01*
X229490476Y-80750952D01*
X229490476Y-81131904D01*
X229538095Y-81227142D01*
X229585714Y-81274761D01*
X229680952Y-81322380D01*
X229871428Y-81322380D01*
X229966666Y-81274761D01*
X230014285Y-81227142D01*
X230061904Y-81131904D01*
X230061904Y-80893809D01*
X230014285Y-80798571D01*
X229966666Y-80750952D01*
X229871428Y-80703333D01*
X229680952Y-80703333D01*
X229585714Y-80750952D01*
X229538095Y-80798571D01*
X229490476Y-80893809D01*
X231087142Y-86142857D02*
X231134761Y-86190476D01*
X231182380Y-86333333D01*
X231182380Y-86428571D01*
X231134761Y-86571428D01*
X231039523Y-86666666D01*
X230944285Y-86714285D01*
X230753809Y-86761904D01*
X230610952Y-86761904D01*
X230420476Y-86714285D01*
X230325238Y-86666666D01*
X230230000Y-86571428D01*
X230182380Y-86428571D01*
X230182380Y-86333333D01*
X230230000Y-86190476D01*
X230277619Y-86142857D01*
X230277619Y-85761904D02*
X230230000Y-85714285D01*
X230182380Y-85619047D01*
X230182380Y-85380952D01*
X230230000Y-85285714D01*
X230277619Y-85238095D01*
X230372857Y-85190476D01*
X230468095Y-85190476D01*
X230610952Y-85238095D01*
X231182380Y-85809523D01*
X231182380Y-85190476D01*
X230182380Y-84857142D02*
X230182380Y-84190476D01*
X231182380Y-84619047D01*
X217557142Y-90887142D02*
X217509523Y-90934761D01*
X217366666Y-90982380D01*
X217271428Y-90982380D01*
X217128571Y-90934761D01*
X217033333Y-90839523D01*
X216985714Y-90744285D01*
X216938095Y-90553809D01*
X216938095Y-90410952D01*
X216985714Y-90220476D01*
X217033333Y-90125238D01*
X217128571Y-90030000D01*
X217271428Y-89982380D01*
X217366666Y-89982380D01*
X217509523Y-90030000D01*
X217557142Y-90077619D01*
X217938095Y-90077619D02*
X217985714Y-90030000D01*
X218080952Y-89982380D01*
X218319047Y-89982380D01*
X218414285Y-90030000D01*
X218461904Y-90077619D01*
X218509523Y-90172857D01*
X218509523Y-90268095D01*
X218461904Y-90410952D01*
X217890476Y-90982380D01*
X218509523Y-90982380D01*
X219080952Y-90410952D02*
X218985714Y-90363333D01*
X218938095Y-90315714D01*
X218890476Y-90220476D01*
X218890476Y-90172857D01*
X218938095Y-90077619D01*
X218985714Y-90030000D01*
X219080952Y-89982380D01*
X219271428Y-89982380D01*
X219366666Y-90030000D01*
X219414285Y-90077619D01*
X219461904Y-90172857D01*
X219461904Y-90220476D01*
X219414285Y-90315714D01*
X219366666Y-90363333D01*
X219271428Y-90410952D01*
X219080952Y-90410952D01*
X218985714Y-90458571D01*
X218938095Y-90506190D01*
X218890476Y-90601428D01*
X218890476Y-90791904D01*
X218938095Y-90887142D01*
X218985714Y-90934761D01*
X219080952Y-90982380D01*
X219271428Y-90982380D01*
X219366666Y-90934761D01*
X219414285Y-90887142D01*
X219461904Y-90791904D01*
X219461904Y-90601428D01*
X219414285Y-90506190D01*
X219366666Y-90458571D01*
X219271428Y-90410952D01*
X214657142Y-60942857D02*
X214704761Y-60990476D01*
X214752380Y-61133333D01*
X214752380Y-61228571D01*
X214704761Y-61371428D01*
X214609523Y-61466666D01*
X214514285Y-61514285D01*
X214323809Y-61561904D01*
X214180952Y-61561904D01*
X213990476Y-61514285D01*
X213895238Y-61466666D01*
X213800000Y-61371428D01*
X213752380Y-61228571D01*
X213752380Y-61133333D01*
X213800000Y-60990476D01*
X213847619Y-60942857D01*
X214085714Y-60085714D02*
X214752380Y-60085714D01*
X213704761Y-60323809D02*
X214419047Y-60561904D01*
X214419047Y-59942857D01*
X213752380Y-59085714D02*
X213752380Y-59561904D01*
X214228571Y-59609523D01*
X214180952Y-59561904D01*
X214133333Y-59466666D01*
X214133333Y-59228571D01*
X214180952Y-59133333D01*
X214228571Y-59085714D01*
X214323809Y-59038095D01*
X214561904Y-59038095D01*
X214657142Y-59085714D01*
X214704761Y-59133333D01*
X214752380Y-59228571D01*
X214752380Y-59466666D01*
X214704761Y-59561904D01*
X214657142Y-59609523D01*
X165557142Y-64027142D02*
X165509523Y-64074761D01*
X165366666Y-64122380D01*
X165271428Y-64122380D01*
X165128571Y-64074761D01*
X165033333Y-63979523D01*
X164985714Y-63884285D01*
X164938095Y-63693809D01*
X164938095Y-63550952D01*
X164985714Y-63360476D01*
X165033333Y-63265238D01*
X165128571Y-63170000D01*
X165271428Y-63122380D01*
X165366666Y-63122380D01*
X165509523Y-63170000D01*
X165557142Y-63217619D01*
X166414285Y-63455714D02*
X166414285Y-64122380D01*
X166176190Y-63074761D02*
X165938095Y-63789047D01*
X166557142Y-63789047D01*
X167366666Y-63122380D02*
X167176190Y-63122380D01*
X167080952Y-63170000D01*
X167033333Y-63217619D01*
X166938095Y-63360476D01*
X166890476Y-63550952D01*
X166890476Y-63931904D01*
X166938095Y-64027142D01*
X166985714Y-64074761D01*
X167080952Y-64122380D01*
X167271428Y-64122380D01*
X167366666Y-64074761D01*
X167414285Y-64027142D01*
X167461904Y-63931904D01*
X167461904Y-63693809D01*
X167414285Y-63598571D01*
X167366666Y-63550952D01*
X167271428Y-63503333D01*
X167080952Y-63503333D01*
X166985714Y-63550952D01*
X166938095Y-63598571D01*
X166890476Y-63693809D01*
X217557142Y-72557142D02*
X217509523Y-72604761D01*
X217366666Y-72652380D01*
X217271428Y-72652380D01*
X217128571Y-72604761D01*
X217033333Y-72509523D01*
X216985714Y-72414285D01*
X216938095Y-72223809D01*
X216938095Y-72080952D01*
X216985714Y-71890476D01*
X217033333Y-71795238D01*
X217128571Y-71700000D01*
X217271428Y-71652380D01*
X217366666Y-71652380D01*
X217509523Y-71700000D01*
X217557142Y-71747619D01*
X218414285Y-71985714D02*
X218414285Y-72652380D01*
X218176190Y-71604761D02*
X217938095Y-72319047D01*
X218557142Y-72319047D01*
X218842857Y-71652380D02*
X219509523Y-71652380D01*
X219080952Y-72652380D01*
X197287142Y-73717857D02*
X197334761Y-73765476D01*
X197382380Y-73908333D01*
X197382380Y-74003571D01*
X197334761Y-74146428D01*
X197239523Y-74241666D01*
X197144285Y-74289285D01*
X196953809Y-74336904D01*
X196810952Y-74336904D01*
X196620476Y-74289285D01*
X196525238Y-74241666D01*
X196430000Y-74146428D01*
X196382380Y-74003571D01*
X196382380Y-73908333D01*
X196430000Y-73765476D01*
X196477619Y-73717857D01*
X196715714Y-72860714D02*
X197382380Y-72860714D01*
X196334761Y-73098809D02*
X197049047Y-73336904D01*
X197049047Y-72717857D01*
X196810952Y-72194047D02*
X196763333Y-72289285D01*
X196715714Y-72336904D01*
X196620476Y-72384523D01*
X196572857Y-72384523D01*
X196477619Y-72336904D01*
X196430000Y-72289285D01*
X196382380Y-72194047D01*
X196382380Y-72003571D01*
X196430000Y-71908333D01*
X196477619Y-71860714D01*
X196572857Y-71813095D01*
X196620476Y-71813095D01*
X196715714Y-71860714D01*
X196763333Y-71908333D01*
X196810952Y-72003571D01*
X196810952Y-72194047D01*
X196858571Y-72289285D01*
X196906190Y-72336904D01*
X197001428Y-72384523D01*
X197191904Y-72384523D01*
X197287142Y-72336904D01*
X197334761Y-72289285D01*
X197382380Y-72194047D01*
X197382380Y-72003571D01*
X197334761Y-71908333D01*
X197287142Y-71860714D01*
X197191904Y-71813095D01*
X197001428Y-71813095D01*
X196906190Y-71860714D01*
X196858571Y-71908333D01*
X196810952Y-72003571D01*
X201757142Y-60342857D02*
X201804761Y-60390476D01*
X201852380Y-60533333D01*
X201852380Y-60628571D01*
X201804761Y-60771428D01*
X201709523Y-60866666D01*
X201614285Y-60914285D01*
X201423809Y-60961904D01*
X201280952Y-60961904D01*
X201090476Y-60914285D01*
X200995238Y-60866666D01*
X200900000Y-60771428D01*
X200852380Y-60628571D01*
X200852380Y-60533333D01*
X200900000Y-60390476D01*
X200947619Y-60342857D01*
X201185714Y-59485714D02*
X201852380Y-59485714D01*
X200804761Y-59723809D02*
X201519047Y-59961904D01*
X201519047Y-59342857D01*
X201852380Y-58914285D02*
X201852380Y-58723809D01*
X201804761Y-58628571D01*
X201757142Y-58580952D01*
X201614285Y-58485714D01*
X201423809Y-58438095D01*
X201042857Y-58438095D01*
X200947619Y-58485714D01*
X200900000Y-58533333D01*
X200852380Y-58628571D01*
X200852380Y-58819047D01*
X200900000Y-58914285D01*
X200947619Y-58961904D01*
X201042857Y-59009523D01*
X201280952Y-59009523D01*
X201376190Y-58961904D01*
X201423809Y-58914285D01*
X201471428Y-58819047D01*
X201471428Y-58628571D01*
X201423809Y-58533333D01*
X201376190Y-58485714D01*
X201280952Y-58438095D01*
X98952380Y-58838095D02*
X97952380Y-58838095D01*
X97952380Y-58600000D01*
X98000000Y-58457142D01*
X98095238Y-58361904D01*
X98190476Y-58314285D01*
X98380952Y-58266666D01*
X98523809Y-58266666D01*
X98714285Y-58314285D01*
X98809523Y-58361904D01*
X98904761Y-58457142D01*
X98952380Y-58600000D01*
X98952380Y-58838095D01*
X97952380Y-57933333D02*
X97952380Y-57314285D01*
X98333333Y-57647619D01*
X98333333Y-57504761D01*
X98380952Y-57409523D01*
X98428571Y-57361904D01*
X98523809Y-57314285D01*
X98761904Y-57314285D01*
X98857142Y-57361904D01*
X98904761Y-57409523D01*
X98952380Y-57504761D01*
X98952380Y-57790476D01*
X98904761Y-57885714D01*
X98857142Y-57933333D01*
X93752380Y-132838095D02*
X92752380Y-132838095D01*
X92752380Y-132600000D01*
X92800000Y-132457142D01*
X92895238Y-132361904D01*
X92990476Y-132314285D01*
X93180952Y-132266666D01*
X93323809Y-132266666D01*
X93514285Y-132314285D01*
X93609523Y-132361904D01*
X93704761Y-132457142D01*
X93752380Y-132600000D01*
X93752380Y-132838095D01*
X93085714Y-131409523D02*
X93752380Y-131409523D01*
X92704761Y-131647619D02*
X93419047Y-131885714D01*
X93419047Y-131266666D01*
X234366666Y-89652380D02*
X234366666Y-88652380D01*
X234747619Y-88652380D01*
X234842857Y-88700000D01*
X234890476Y-88747619D01*
X234938095Y-88842857D01*
X234938095Y-88985714D01*
X234890476Y-89080952D01*
X234842857Y-89128571D01*
X234747619Y-89176190D01*
X234366666Y-89176190D01*
X235366666Y-89652380D02*
X235366666Y-88652380D01*
X235604761Y-88652380D01*
X235747619Y-88700000D01*
X235842857Y-88795238D01*
X235890476Y-88890476D01*
X235938095Y-89080952D01*
X235938095Y-89223809D01*
X235890476Y-89414285D01*
X235842857Y-89509523D01*
X235747619Y-89604761D01*
X235604761Y-89652380D01*
X235366666Y-89652380D01*
X236128571Y-89747619D02*
X236890476Y-89747619D01*
X237128571Y-89652380D02*
X237128571Y-88652380D01*
X237604761Y-88985714D02*
X237604761Y-89652380D01*
X237604761Y-89080952D02*
X237652380Y-89033333D01*
X237747619Y-88985714D01*
X237890476Y-88985714D01*
X237985714Y-89033333D01*
X238033333Y-89128571D01*
X238033333Y-89652380D01*
X159766666Y-59702380D02*
X159766666Y-60416666D01*
X159719047Y-60559523D01*
X159623809Y-60654761D01*
X159480952Y-60702380D01*
X159385714Y-60702380D01*
X160671428Y-60035714D02*
X160671428Y-60702380D01*
X160433333Y-59654761D02*
X160195238Y-60369047D01*
X160814285Y-60369047D01*
X232261904Y-66828571D02*
X232595238Y-66828571D01*
X232738095Y-67352380D02*
X232261904Y-67352380D01*
X232261904Y-66352380D01*
X232738095Y-66352380D01*
X233166666Y-67352380D02*
X233166666Y-66685714D01*
X233166666Y-66876190D02*
X233214285Y-66780952D01*
X233261904Y-66733333D01*
X233357142Y-66685714D01*
X233452380Y-66685714D01*
X233785714Y-67352380D02*
X233785714Y-66685714D01*
X233785714Y-66876190D02*
X233833333Y-66780952D01*
X233880952Y-66733333D01*
X233976190Y-66685714D01*
X234071428Y-66685714D01*
X234547619Y-67352380D02*
X234452380Y-67304761D01*
X234404761Y-67257142D01*
X234357142Y-67161904D01*
X234357142Y-66876190D01*
X234404761Y-66780952D01*
X234452380Y-66733333D01*
X234547619Y-66685714D01*
X234690476Y-66685714D01*
X234785714Y-66733333D01*
X234833333Y-66780952D01*
X234880952Y-66876190D01*
X234880952Y-67161904D01*
X234833333Y-67257142D01*
X234785714Y-67304761D01*
X234690476Y-67352380D01*
X234547619Y-67352380D01*
X235309523Y-67352380D02*
X235309523Y-66685714D01*
X235309523Y-66876190D02*
X235357142Y-66780952D01*
X235404761Y-66733333D01*
X235500000Y-66685714D01*
X235595238Y-66685714D01*
X235690476Y-67447619D02*
X236452380Y-67447619D01*
X236880952Y-66352380D02*
X237071428Y-66352380D01*
X237166666Y-66400000D01*
X237261904Y-66495238D01*
X237309523Y-66685714D01*
X237309523Y-67019047D01*
X237261904Y-67209523D01*
X237166666Y-67304761D01*
X237071428Y-67352380D01*
X236880952Y-67352380D01*
X236785714Y-67304761D01*
X236690476Y-67209523D01*
X236642857Y-67019047D01*
X236642857Y-66685714D01*
X236690476Y-66495238D01*
X236785714Y-66400000D01*
X236880952Y-66352380D01*
X238166666Y-66685714D02*
X238166666Y-67352380D01*
X237738095Y-66685714D02*
X237738095Y-67209523D01*
X237785714Y-67304761D01*
X237880952Y-67352380D01*
X238023809Y-67352380D01*
X238119047Y-67304761D01*
X238166666Y-67257142D01*
X238500000Y-66685714D02*
X238880952Y-66685714D01*
X238642857Y-66352380D02*
X238642857Y-67209523D01*
X238690476Y-67304761D01*
X238785714Y-67352380D01*
X238880952Y-67352380D01*
X209066666Y-45962380D02*
X209066666Y-46676666D01*
X209019047Y-46819523D01*
X208923809Y-46914761D01*
X208780952Y-46962380D01*
X208685714Y-46962380D01*
X209971428Y-45962380D02*
X209780952Y-45962380D01*
X209685714Y-46010000D01*
X209638095Y-46057619D01*
X209542857Y-46200476D01*
X209495238Y-46390952D01*
X209495238Y-46771904D01*
X209542857Y-46867142D01*
X209590476Y-46914761D01*
X209685714Y-46962380D01*
X209876190Y-46962380D01*
X209971428Y-46914761D01*
X210019047Y-46867142D01*
X210066666Y-46771904D01*
X210066666Y-46533809D01*
X210019047Y-46438571D01*
X209971428Y-46390952D01*
X209876190Y-46343333D01*
X209685714Y-46343333D01*
X209590476Y-46390952D01*
X209542857Y-46438571D01*
X209495238Y-46533809D01*
X232892380Y-127809523D02*
X233606666Y-127809523D01*
X233749523Y-127857142D01*
X233844761Y-127952380D01*
X233892380Y-128095238D01*
X233892380Y-128190476D01*
X233892380Y-126809523D02*
X233892380Y-127380952D01*
X233892380Y-127095238D02*
X232892380Y-127095238D01*
X233035238Y-127190476D01*
X233130476Y-127285714D01*
X233178095Y-127380952D01*
X232892380Y-126190476D02*
X232892380Y-126095238D01*
X232940000Y-126000000D01*
X232987619Y-125952380D01*
X233082857Y-125904761D01*
X233273333Y-125857142D01*
X233511428Y-125857142D01*
X233701904Y-125904761D01*
X233797142Y-125952380D01*
X233844761Y-126000000D01*
X233892380Y-126095238D01*
X233892380Y-126190476D01*
X233844761Y-126285714D01*
X233797142Y-126333333D01*
X233701904Y-126380952D01*
X233511428Y-126428571D01*
X233273333Y-126428571D01*
X233082857Y-126380952D01*
X232987619Y-126333333D01*
X232940000Y-126285714D01*
X232892380Y-126190476D01*
X212466666Y-79252380D02*
X212466666Y-78252380D01*
X213038095Y-79252380D01*
X213038095Y-78252380D01*
X213657142Y-79252380D02*
X213561904Y-79204761D01*
X213514285Y-79157142D01*
X213466666Y-79061904D01*
X213466666Y-78776190D01*
X213514285Y-78680952D01*
X213561904Y-78633333D01*
X213657142Y-78585714D01*
X213800000Y-78585714D01*
X213895238Y-78633333D01*
X213942857Y-78680952D01*
X213990476Y-78776190D01*
X213990476Y-79061904D01*
X213942857Y-79157142D01*
X213895238Y-79204761D01*
X213800000Y-79252380D01*
X213657142Y-79252380D01*
X214180952Y-79347619D02*
X214942857Y-79347619D01*
X215180952Y-79252380D02*
X215180952Y-78252380D01*
X215180952Y-78633333D02*
X215276190Y-78585714D01*
X215466666Y-78585714D01*
X215561904Y-78633333D01*
X215609523Y-78680952D01*
X215657142Y-78776190D01*
X215657142Y-79061904D01*
X215609523Y-79157142D01*
X215561904Y-79204761D01*
X215466666Y-79252380D01*
X215276190Y-79252380D01*
X215180952Y-79204761D01*
X216514285Y-78585714D02*
X216514285Y-79252380D01*
X216085714Y-78585714D02*
X216085714Y-79109523D01*
X216133333Y-79204761D01*
X216228571Y-79252380D01*
X216371428Y-79252380D01*
X216466666Y-79204761D01*
X216514285Y-79157142D01*
X216847619Y-78585714D02*
X217228571Y-78585714D01*
X216990476Y-79252380D02*
X216990476Y-78395238D01*
X217038095Y-78300000D01*
X217133333Y-78252380D01*
X217228571Y-78252380D01*
X217419047Y-78585714D02*
X217800000Y-78585714D01*
X217561904Y-79252380D02*
X217561904Y-78395238D01*
X217609523Y-78300000D01*
X217704761Y-78252380D01*
X217800000Y-78252380D01*
X218514285Y-79204761D02*
X218419047Y-79252380D01*
X218228571Y-79252380D01*
X218133333Y-79204761D01*
X218085714Y-79109523D01*
X218085714Y-78728571D01*
X218133333Y-78633333D01*
X218228571Y-78585714D01*
X218419047Y-78585714D01*
X218514285Y-78633333D01*
X218561904Y-78728571D01*
X218561904Y-78823809D01*
X218085714Y-78919047D01*
X218990476Y-79252380D02*
X218990476Y-78585714D01*
X218990476Y-78776190D02*
X219038095Y-78680952D01*
X219085714Y-78633333D01*
X219180952Y-78585714D01*
X219276190Y-78585714D01*
D15*
X107857619Y-53393333D02*
X109952857Y-53393333D01*
X107438571Y-54650476D02*
X108905238Y-50250476D01*
X110371904Y-54650476D01*
X111838571Y-54650476D02*
X111838571Y-50250476D01*
X113514761Y-50250476D01*
X113933809Y-50460000D01*
X114143333Y-50669523D01*
X114352857Y-51088571D01*
X114352857Y-51717142D01*
X114143333Y-52136190D01*
X113933809Y-52345714D01*
X113514761Y-52555238D01*
X111838571Y-52555238D01*
X119171904Y-55069523D02*
X118752857Y-54860000D01*
X118333809Y-54440952D01*
X117705238Y-53812380D01*
X117286190Y-53602857D01*
X116867142Y-53602857D01*
X117076666Y-54650476D02*
X116657619Y-54440952D01*
X116238571Y-54021904D01*
X116029047Y-53183809D01*
X116029047Y-51717142D01*
X116238571Y-50879047D01*
X116657619Y-50460000D01*
X117076666Y-50250476D01*
X117914761Y-50250476D01*
X118333809Y-50460000D01*
X118752857Y-50879047D01*
X118962380Y-51717142D01*
X118962380Y-53183809D01*
X118752857Y-54021904D01*
X118333809Y-54440952D01*
X117914761Y-54650476D01*
X117076666Y-54650476D01*
D11*
X222152380Y-78542857D02*
X221676190Y-78876190D01*
X222152380Y-79114285D02*
X221152380Y-79114285D01*
X221152380Y-78733333D01*
X221200000Y-78638095D01*
X221247619Y-78590476D01*
X221342857Y-78542857D01*
X221485714Y-78542857D01*
X221580952Y-78590476D01*
X221628571Y-78638095D01*
X221676190Y-78733333D01*
X221676190Y-79114285D01*
X222152380Y-77590476D02*
X222152380Y-78161904D01*
X222152380Y-77876190D02*
X221152380Y-77876190D01*
X221295238Y-77971428D01*
X221390476Y-78066666D01*
X221438095Y-78161904D01*
X221152380Y-77257142D02*
X221152380Y-76590476D01*
X222152380Y-77019047D01*
X191452380Y-64342857D02*
X190976190Y-64676190D01*
X191452380Y-64914285D02*
X190452380Y-64914285D01*
X190452380Y-64533333D01*
X190500000Y-64438095D01*
X190547619Y-64390476D01*
X190642857Y-64342857D01*
X190785714Y-64342857D01*
X190880952Y-64390476D01*
X190928571Y-64438095D01*
X190976190Y-64533333D01*
X190976190Y-64914285D01*
X191452380Y-63390476D02*
X191452380Y-63961904D01*
X191452380Y-63676190D02*
X190452380Y-63676190D01*
X190595238Y-63771428D01*
X190690476Y-63866666D01*
X190738095Y-63961904D01*
X190880952Y-62819047D02*
X190833333Y-62914285D01*
X190785714Y-62961904D01*
X190690476Y-63009523D01*
X190642857Y-63009523D01*
X190547619Y-62961904D01*
X190500000Y-62914285D01*
X190452380Y-62819047D01*
X190452380Y-62628571D01*
X190500000Y-62533333D01*
X190547619Y-62485714D01*
X190642857Y-62438095D01*
X190690476Y-62438095D01*
X190785714Y-62485714D01*
X190833333Y-62533333D01*
X190880952Y-62628571D01*
X190880952Y-62819047D01*
X190928571Y-62914285D01*
X190976190Y-62961904D01*
X191071428Y-63009523D01*
X191261904Y-63009523D01*
X191357142Y-62961904D01*
X191404761Y-62914285D01*
X191452380Y-62819047D01*
X191452380Y-62628571D01*
X191404761Y-62533333D01*
X191357142Y-62485714D01*
X191261904Y-62438095D01*
X191071428Y-62438095D01*
X190976190Y-62485714D01*
X190928571Y-62533333D01*
X190880952Y-62628571D01*
X225252380Y-77542857D02*
X224776190Y-77876190D01*
X225252380Y-78114285D02*
X224252380Y-78114285D01*
X224252380Y-77733333D01*
X224300000Y-77638095D01*
X224347619Y-77590476D01*
X224442857Y-77542857D01*
X224585714Y-77542857D01*
X224680952Y-77590476D01*
X224728571Y-77638095D01*
X224776190Y-77733333D01*
X224776190Y-78114285D01*
X225252380Y-76590476D02*
X225252380Y-77161904D01*
X225252380Y-76876190D02*
X224252380Y-76876190D01*
X224395238Y-76971428D01*
X224490476Y-77066666D01*
X224538095Y-77161904D01*
X225252380Y-76114285D02*
X225252380Y-75923809D01*
X225204761Y-75828571D01*
X225157142Y-75780952D01*
X225014285Y-75685714D01*
X224823809Y-75638095D01*
X224442857Y-75638095D01*
X224347619Y-75685714D01*
X224300000Y-75733333D01*
X224252380Y-75828571D01*
X224252380Y-76019047D01*
X224300000Y-76114285D01*
X224347619Y-76161904D01*
X224442857Y-76209523D01*
X224680952Y-76209523D01*
X224776190Y-76161904D01*
X224823809Y-76114285D01*
X224871428Y-76019047D01*
X224871428Y-75828571D01*
X224823809Y-75733333D01*
X224776190Y-75685714D01*
X224680952Y-75638095D01*
X193552380Y-64342857D02*
X193076190Y-64676190D01*
X193552380Y-64914285D02*
X192552380Y-64914285D01*
X192552380Y-64533333D01*
X192600000Y-64438095D01*
X192647619Y-64390476D01*
X192742857Y-64342857D01*
X192885714Y-64342857D01*
X192980952Y-64390476D01*
X193028571Y-64438095D01*
X193076190Y-64533333D01*
X193076190Y-64914285D01*
X192647619Y-63961904D02*
X192600000Y-63914285D01*
X192552380Y-63819047D01*
X192552380Y-63580952D01*
X192600000Y-63485714D01*
X192647619Y-63438095D01*
X192742857Y-63390476D01*
X192838095Y-63390476D01*
X192980952Y-63438095D01*
X193552380Y-64009523D01*
X193552380Y-63390476D01*
X192552380Y-62771428D02*
X192552380Y-62676190D01*
X192600000Y-62580952D01*
X192647619Y-62533333D01*
X192742857Y-62485714D01*
X192933333Y-62438095D01*
X193171428Y-62438095D01*
X193361904Y-62485714D01*
X193457142Y-62533333D01*
X193504761Y-62580952D01*
X193552380Y-62676190D01*
X193552380Y-62771428D01*
X193504761Y-62866666D01*
X193457142Y-62914285D01*
X193361904Y-62961904D01*
X193171428Y-63009523D01*
X192933333Y-63009523D01*
X192742857Y-62961904D01*
X192647619Y-62914285D01*
X192600000Y-62866666D01*
X192552380Y-62771428D01*
X218357142Y-95122380D02*
X218023809Y-94646190D01*
X217785714Y-95122380D02*
X217785714Y-94122380D01*
X218166666Y-94122380D01*
X218261904Y-94170000D01*
X218309523Y-94217619D01*
X218357142Y-94312857D01*
X218357142Y-94455714D01*
X218309523Y-94550952D01*
X218261904Y-94598571D01*
X218166666Y-94646190D01*
X217785714Y-94646190D01*
X218738095Y-94217619D02*
X218785714Y-94170000D01*
X218880952Y-94122380D01*
X219119047Y-94122380D01*
X219214285Y-94170000D01*
X219261904Y-94217619D01*
X219309523Y-94312857D01*
X219309523Y-94408095D01*
X219261904Y-94550952D01*
X218690476Y-95122380D01*
X219309523Y-95122380D01*
X220166666Y-94455714D02*
X220166666Y-95122380D01*
X219928571Y-94074761D02*
X219690476Y-94789047D01*
X220309523Y-94789047D01*
X220957142Y-90852380D02*
X220623809Y-90376190D01*
X220385714Y-90852380D02*
X220385714Y-89852380D01*
X220766666Y-89852380D01*
X220861904Y-89900000D01*
X220909523Y-89947619D01*
X220957142Y-90042857D01*
X220957142Y-90185714D01*
X220909523Y-90280952D01*
X220861904Y-90328571D01*
X220766666Y-90376190D01*
X220385714Y-90376190D01*
X221338095Y-89947619D02*
X221385714Y-89900000D01*
X221480952Y-89852380D01*
X221719047Y-89852380D01*
X221814285Y-89900000D01*
X221861904Y-89947619D01*
X221909523Y-90042857D01*
X221909523Y-90138095D01*
X221861904Y-90280952D01*
X221290476Y-90852380D01*
X221909523Y-90852380D01*
X222814285Y-89852380D02*
X222338095Y-89852380D01*
X222290476Y-90328571D01*
X222338095Y-90280952D01*
X222433333Y-90233333D01*
X222671428Y-90233333D01*
X222766666Y-90280952D01*
X222814285Y-90328571D01*
X222861904Y-90423809D01*
X222861904Y-90661904D01*
X222814285Y-90757142D01*
X222766666Y-90804761D01*
X222671428Y-90852380D01*
X222433333Y-90852380D01*
X222338095Y-90804761D01*
X222290476Y-90757142D01*
X216957142Y-83952380D02*
X216623809Y-83476190D01*
X216385714Y-83952380D02*
X216385714Y-82952380D01*
X216766666Y-82952380D01*
X216861904Y-83000000D01*
X216909523Y-83047619D01*
X216957142Y-83142857D01*
X216957142Y-83285714D01*
X216909523Y-83380952D01*
X216861904Y-83428571D01*
X216766666Y-83476190D01*
X216385714Y-83476190D01*
X217338095Y-83047619D02*
X217385714Y-83000000D01*
X217480952Y-82952380D01*
X217719047Y-82952380D01*
X217814285Y-83000000D01*
X217861904Y-83047619D01*
X217909523Y-83142857D01*
X217909523Y-83238095D01*
X217861904Y-83380952D01*
X217290476Y-83952380D01*
X217909523Y-83952380D01*
X218766666Y-82952380D02*
X218576190Y-82952380D01*
X218480952Y-83000000D01*
X218433333Y-83047619D01*
X218338095Y-83190476D01*
X218290476Y-83380952D01*
X218290476Y-83761904D01*
X218338095Y-83857142D01*
X218385714Y-83904761D01*
X218480952Y-83952380D01*
X218671428Y-83952380D01*
X218766666Y-83904761D01*
X218814285Y-83857142D01*
X218861904Y-83761904D01*
X218861904Y-83523809D01*
X218814285Y-83428571D01*
X218766666Y-83380952D01*
X218671428Y-83333333D01*
X218480952Y-83333333D01*
X218385714Y-83380952D01*
X218338095Y-83428571D01*
X218290476Y-83523809D01*
X192022380Y-70942857D02*
X191546190Y-71276190D01*
X192022380Y-71514285D02*
X191022380Y-71514285D01*
X191022380Y-71133333D01*
X191070000Y-71038095D01*
X191117619Y-70990476D01*
X191212857Y-70942857D01*
X191355714Y-70942857D01*
X191450952Y-70990476D01*
X191498571Y-71038095D01*
X191546190Y-71133333D01*
X191546190Y-71514285D01*
X191117619Y-70561904D02*
X191070000Y-70514285D01*
X191022380Y-70419047D01*
X191022380Y-70180952D01*
X191070000Y-70085714D01*
X191117619Y-70038095D01*
X191212857Y-69990476D01*
X191308095Y-69990476D01*
X191450952Y-70038095D01*
X192022380Y-70609523D01*
X192022380Y-69990476D01*
X191022380Y-69657142D02*
X191022380Y-68990476D01*
X192022380Y-69419047D01*
X169122380Y-66542857D02*
X168646190Y-66876190D01*
X169122380Y-67114285D02*
X168122380Y-67114285D01*
X168122380Y-66733333D01*
X168170000Y-66638095D01*
X168217619Y-66590476D01*
X168312857Y-66542857D01*
X168455714Y-66542857D01*
X168550952Y-66590476D01*
X168598571Y-66638095D01*
X168646190Y-66733333D01*
X168646190Y-67114285D01*
X168217619Y-66161904D02*
X168170000Y-66114285D01*
X168122380Y-66019047D01*
X168122380Y-65780952D01*
X168170000Y-65685714D01*
X168217619Y-65638095D01*
X168312857Y-65590476D01*
X168408095Y-65590476D01*
X168550952Y-65638095D01*
X169122380Y-66209523D01*
X169122380Y-65590476D01*
X168550952Y-65019047D02*
X168503333Y-65114285D01*
X168455714Y-65161904D01*
X168360476Y-65209523D01*
X168312857Y-65209523D01*
X168217619Y-65161904D01*
X168170000Y-65114285D01*
X168122380Y-65019047D01*
X168122380Y-64828571D01*
X168170000Y-64733333D01*
X168217619Y-64685714D01*
X168312857Y-64638095D01*
X168360476Y-64638095D01*
X168455714Y-64685714D01*
X168503333Y-64733333D01*
X168550952Y-64828571D01*
X168550952Y-65019047D01*
X168598571Y-65114285D01*
X168646190Y-65161904D01*
X168741428Y-65209523D01*
X168931904Y-65209523D01*
X169027142Y-65161904D01*
X169074761Y-65114285D01*
X169122380Y-65019047D01*
X169122380Y-64828571D01*
X169074761Y-64733333D01*
X169027142Y-64685714D01*
X168931904Y-64638095D01*
X168741428Y-64638095D01*
X168646190Y-64685714D01*
X168598571Y-64733333D01*
X168550952Y-64828571D01*
X226357142Y-60732380D02*
X226023809Y-60256190D01*
X225785714Y-60732380D02*
X225785714Y-59732380D01*
X226166666Y-59732380D01*
X226261904Y-59780000D01*
X226309523Y-59827619D01*
X226357142Y-59922857D01*
X226357142Y-60065714D01*
X226309523Y-60160952D01*
X226261904Y-60208571D01*
X226166666Y-60256190D01*
X225785714Y-60256190D01*
X226738095Y-59827619D02*
X226785714Y-59780000D01*
X226880952Y-59732380D01*
X227119047Y-59732380D01*
X227214285Y-59780000D01*
X227261904Y-59827619D01*
X227309523Y-59922857D01*
X227309523Y-60018095D01*
X227261904Y-60160952D01*
X226690476Y-60732380D01*
X227309523Y-60732380D01*
X227785714Y-60732380D02*
X227976190Y-60732380D01*
X228071428Y-60684761D01*
X228119047Y-60637142D01*
X228214285Y-60494285D01*
X228261904Y-60303809D01*
X228261904Y-59922857D01*
X228214285Y-59827619D01*
X228166666Y-59780000D01*
X228071428Y-59732380D01*
X227880952Y-59732380D01*
X227785714Y-59780000D01*
X227738095Y-59827619D01*
X227690476Y-59922857D01*
X227690476Y-60160952D01*
X227738095Y-60256190D01*
X227785714Y-60303809D01*
X227880952Y-60351428D01*
X228071428Y-60351428D01*
X228166666Y-60303809D01*
X228214285Y-60256190D01*
X228261904Y-60160952D01*
X206152380Y-70282380D02*
X205819047Y-69806190D01*
X205580952Y-70282380D02*
X205580952Y-69282380D01*
X205961904Y-69282380D01*
X206057142Y-69330000D01*
X206104761Y-69377619D01*
X206152380Y-69472857D01*
X206152380Y-69615714D01*
X206104761Y-69710952D01*
X206057142Y-69758571D01*
X205961904Y-69806190D01*
X205580952Y-69806190D01*
X207104761Y-70282380D02*
X206533333Y-70282380D01*
X206819047Y-70282380D02*
X206819047Y-69282380D01*
X206723809Y-69425238D01*
X206628571Y-69520476D01*
X206533333Y-69568095D01*
X208057142Y-70282380D02*
X207485714Y-70282380D01*
X207771428Y-70282380D02*
X207771428Y-69282380D01*
X207676190Y-69425238D01*
X207580952Y-69520476D01*
X207485714Y-69568095D01*
X208438095Y-69996666D02*
X208914285Y-69996666D01*
X208342857Y-70282380D02*
X208676190Y-69282380D01*
X209009523Y-70282380D01*
X209866666Y-70282380D02*
X209295238Y-70282380D01*
X209580952Y-70282380D02*
X209580952Y-69282380D01*
X209485714Y-69425238D01*
X209390476Y-69520476D01*
X209295238Y-69568095D01*
X216152380Y-61952380D02*
X215819047Y-61476190D01*
X215580952Y-61952380D02*
X215580952Y-60952380D01*
X215961904Y-60952380D01*
X216057142Y-61000000D01*
X216104761Y-61047619D01*
X216152380Y-61142857D01*
X216152380Y-61285714D01*
X216104761Y-61380952D01*
X216057142Y-61428571D01*
X215961904Y-61476190D01*
X215580952Y-61476190D01*
X217104761Y-61952380D02*
X216533333Y-61952380D01*
X216819047Y-61952380D02*
X216819047Y-60952380D01*
X216723809Y-61095238D01*
X216628571Y-61190476D01*
X216533333Y-61238095D01*
X217485714Y-61047619D02*
X217533333Y-61000000D01*
X217628571Y-60952380D01*
X217866666Y-60952380D01*
X217961904Y-61000000D01*
X218009523Y-61047619D01*
X218057142Y-61142857D01*
X218057142Y-61238095D01*
X218009523Y-61380952D01*
X217438095Y-61952380D01*
X218057142Y-61952380D01*
X218438095Y-61666666D02*
X218914285Y-61666666D01*
X218342857Y-61952380D02*
X218676190Y-60952380D01*
X219009523Y-61952380D01*
X219866666Y-61952380D02*
X219295238Y-61952380D01*
X219580952Y-61952380D02*
X219580952Y-60952380D01*
X219485714Y-61095238D01*
X219390476Y-61190476D01*
X219295238Y-61238095D01*
X211552380Y-75247619D02*
X211076190Y-75580952D01*
X211552380Y-75819047D02*
X210552380Y-75819047D01*
X210552380Y-75438095D01*
X210600000Y-75342857D01*
X210647619Y-75295238D01*
X210742857Y-75247619D01*
X210885714Y-75247619D01*
X210980952Y-75295238D01*
X211028571Y-75342857D01*
X211076190Y-75438095D01*
X211076190Y-75819047D01*
X210647619Y-74866666D02*
X210600000Y-74819047D01*
X210552380Y-74723809D01*
X210552380Y-74485714D01*
X210600000Y-74390476D01*
X210647619Y-74342857D01*
X210742857Y-74295238D01*
X210838095Y-74295238D01*
X210980952Y-74342857D01*
X211552380Y-74914285D01*
X211552380Y-74295238D01*
X211552380Y-73342857D02*
X211552380Y-73914285D01*
X211552380Y-73628571D02*
X210552380Y-73628571D01*
X210695238Y-73723809D01*
X210790476Y-73819047D01*
X210838095Y-73914285D01*
X211266666Y-72961904D02*
X211266666Y-72485714D01*
X211552380Y-73057142D02*
X210552380Y-72723809D01*
X211552380Y-72390476D01*
X211552380Y-71533333D02*
X211552380Y-72104761D01*
X211552380Y-71819047D02*
X210552380Y-71819047D01*
X210695238Y-71914285D01*
X210790476Y-72009523D01*
X210838095Y-72104761D01*
X223052380Y-75247619D02*
X222576190Y-75580952D01*
X223052380Y-75819047D02*
X222052380Y-75819047D01*
X222052380Y-75438095D01*
X222100000Y-75342857D01*
X222147619Y-75295238D01*
X222242857Y-75247619D01*
X222385714Y-75247619D01*
X222480952Y-75295238D01*
X222528571Y-75342857D01*
X222576190Y-75438095D01*
X222576190Y-75819047D01*
X222147619Y-74866666D02*
X222100000Y-74819047D01*
X222052380Y-74723809D01*
X222052380Y-74485714D01*
X222100000Y-74390476D01*
X222147619Y-74342857D01*
X222242857Y-74295238D01*
X222338095Y-74295238D01*
X222480952Y-74342857D01*
X223052380Y-74914285D01*
X223052380Y-74295238D01*
X222147619Y-73914285D02*
X222100000Y-73866666D01*
X222052380Y-73771428D01*
X222052380Y-73533333D01*
X222100000Y-73438095D01*
X222147619Y-73390476D01*
X222242857Y-73342857D01*
X222338095Y-73342857D01*
X222480952Y-73390476D01*
X223052380Y-73961904D01*
X223052380Y-73342857D01*
X222766666Y-72961904D02*
X222766666Y-72485714D01*
X223052380Y-73057142D02*
X222052380Y-72723809D01*
X223052380Y-72390476D01*
X223052380Y-71533333D02*
X223052380Y-72104761D01*
X223052380Y-71819047D02*
X222052380Y-71819047D01*
X222195238Y-71914285D01*
X222290476Y-72009523D01*
X222338095Y-72104761D01*
X211652380Y-64347619D02*
X211176190Y-64680952D01*
X211652380Y-64919047D02*
X210652380Y-64919047D01*
X210652380Y-64538095D01*
X210700000Y-64442857D01*
X210747619Y-64395238D01*
X210842857Y-64347619D01*
X210985714Y-64347619D01*
X211080952Y-64395238D01*
X211128571Y-64442857D01*
X211176190Y-64538095D01*
X211176190Y-64919047D01*
X210652380Y-64014285D02*
X210652380Y-63395238D01*
X211033333Y-63728571D01*
X211033333Y-63585714D01*
X211080952Y-63490476D01*
X211128571Y-63442857D01*
X211223809Y-63395238D01*
X211461904Y-63395238D01*
X211557142Y-63442857D01*
X211604761Y-63490476D01*
X211652380Y-63585714D01*
X211652380Y-63871428D01*
X211604761Y-63966666D01*
X211557142Y-64014285D01*
X211652380Y-62442857D02*
X211652380Y-63014285D01*
X211652380Y-62728571D02*
X210652380Y-62728571D01*
X210795238Y-62823809D01*
X210890476Y-62919047D01*
X210938095Y-63014285D01*
X211366666Y-62061904D02*
X211366666Y-61585714D01*
X211652380Y-62157142D02*
X210652380Y-61823809D01*
X211652380Y-61490476D01*
X211652380Y-60633333D02*
X211652380Y-61204761D01*
X211652380Y-60919047D02*
X210652380Y-60919047D01*
X210795238Y-61014285D01*
X210890476Y-61109523D01*
X210938095Y-61204761D01*
X223052380Y-63947619D02*
X222576190Y-64280952D01*
X223052380Y-64519047D02*
X222052380Y-64519047D01*
X222052380Y-64138095D01*
X222100000Y-64042857D01*
X222147619Y-63995238D01*
X222242857Y-63947619D01*
X222385714Y-63947619D01*
X222480952Y-63995238D01*
X222528571Y-64042857D01*
X222576190Y-64138095D01*
X222576190Y-64519047D01*
X222052380Y-63614285D02*
X222052380Y-62995238D01*
X222433333Y-63328571D01*
X222433333Y-63185714D01*
X222480952Y-63090476D01*
X222528571Y-63042857D01*
X222623809Y-62995238D01*
X222861904Y-62995238D01*
X222957142Y-63042857D01*
X223004761Y-63090476D01*
X223052380Y-63185714D01*
X223052380Y-63471428D01*
X223004761Y-63566666D01*
X222957142Y-63614285D01*
X222147619Y-62614285D02*
X222100000Y-62566666D01*
X222052380Y-62471428D01*
X222052380Y-62233333D01*
X222100000Y-62138095D01*
X222147619Y-62090476D01*
X222242857Y-62042857D01*
X222338095Y-62042857D01*
X222480952Y-62090476D01*
X223052380Y-62661904D01*
X223052380Y-62042857D01*
X222766666Y-61661904D02*
X222766666Y-61185714D01*
X223052380Y-61757142D02*
X222052380Y-61423809D01*
X223052380Y-61090476D01*
X223052380Y-60233333D02*
X223052380Y-60804761D01*
X223052380Y-60519047D02*
X222052380Y-60519047D01*
X222195238Y-60614285D01*
X222290476Y-60709523D01*
X222338095Y-60804761D01*
X232064761Y-101472380D02*
X231731428Y-100996190D01*
X231493333Y-101472380D02*
X231493333Y-100472380D01*
X231874285Y-100472380D01*
X231969523Y-100520000D01*
X232017142Y-100567619D01*
X232064761Y-100662857D01*
X232064761Y-100805714D01*
X232017142Y-100900952D01*
X231969523Y-100948571D01*
X231874285Y-100996190D01*
X231493333Y-100996190D01*
X232350476Y-100472380D02*
X232683809Y-101472380D01*
X233017142Y-100472380D01*
X233874285Y-101472380D02*
X233302857Y-101472380D01*
X233588571Y-101472380D02*
X233588571Y-100472380D01*
X233493333Y-100615238D01*
X233398095Y-100710476D01*
X233302857Y-100758095D01*
X223238095Y-101752380D02*
X223238095Y-102561904D01*
X223285714Y-102657142D01*
X223333333Y-102704761D01*
X223428571Y-102752380D01*
X223619047Y-102752380D01*
X223714285Y-102704761D01*
X223761904Y-102657142D01*
X223809523Y-102561904D01*
X223809523Y-101752380D01*
X224761904Y-101752380D02*
X224285714Y-101752380D01*
X224238095Y-102228571D01*
X224285714Y-102180952D01*
X224380952Y-102133333D01*
X224619047Y-102133333D01*
X224714285Y-102180952D01*
X224761904Y-102228571D01*
X224809523Y-102323809D01*
X224809523Y-102561904D01*
X224761904Y-102657142D01*
X224714285Y-102704761D01*
X224619047Y-102752380D01*
X224380952Y-102752380D01*
X224285714Y-102704761D01*
X224238095Y-102657142D01*
X197638095Y-64152380D02*
X197638095Y-64961904D01*
X197685714Y-65057142D01*
X197733333Y-65104761D01*
X197828571Y-65152380D01*
X198019047Y-65152380D01*
X198114285Y-65104761D01*
X198161904Y-65057142D01*
X198209523Y-64961904D01*
X198209523Y-64152380D01*
X198590476Y-64152380D02*
X199257142Y-64152380D01*
X198828571Y-65152380D01*
X226461904Y-89352380D02*
X226461904Y-90161904D01*
X226509523Y-90257142D01*
X226557142Y-90304761D01*
X226652380Y-90352380D01*
X226842857Y-90352380D01*
X226938095Y-90304761D01*
X226985714Y-90257142D01*
X227033333Y-90161904D01*
X227033333Y-89352380D01*
X228033333Y-90352380D02*
X227461904Y-90352380D01*
X227747619Y-90352380D02*
X227747619Y-89352380D01*
X227652380Y-89495238D01*
X227557142Y-89590476D01*
X227461904Y-89638095D01*
X228890476Y-89685714D02*
X228890476Y-90352380D01*
X228652380Y-89304761D02*
X228414285Y-90019047D01*
X229033333Y-90019047D01*
X171352380Y-81738095D02*
X172161904Y-81738095D01*
X172257142Y-81690476D01*
X172304761Y-81642857D01*
X172352380Y-81547619D01*
X172352380Y-81357142D01*
X172304761Y-81261904D01*
X172257142Y-81214285D01*
X172161904Y-81166666D01*
X171352380Y-81166666D01*
X172352380Y-80166666D02*
X172352380Y-80738095D01*
X172352380Y-80452380D02*
X171352380Y-80452380D01*
X171495238Y-80547619D01*
X171590476Y-80642857D01*
X171638095Y-80738095D01*
X171352380Y-79261904D02*
X171352380Y-79738095D01*
X171828571Y-79785714D01*
X171780952Y-79738095D01*
X171733333Y-79642857D01*
X171733333Y-79404761D01*
X171780952Y-79309523D01*
X171828571Y-79261904D01*
X171923809Y-79214285D01*
X172161904Y-79214285D01*
X172257142Y-79261904D01*
X172304761Y-79309523D01*
X172352380Y-79404761D01*
X172352380Y-79642857D01*
X172304761Y-79738095D01*
X172257142Y-79785714D01*
X178752380Y-80138095D02*
X177752380Y-80138095D01*
X178466666Y-79804761D01*
X177752380Y-79471428D01*
X178752380Y-79471428D01*
X178657142Y-78423809D02*
X178704761Y-78471428D01*
X178752380Y-78614285D01*
X178752380Y-78709523D01*
X178704761Y-78852380D01*
X178609523Y-78947619D01*
X178514285Y-78995238D01*
X178323809Y-79042857D01*
X178180952Y-79042857D01*
X177990476Y-78995238D01*
X177895238Y-78947619D01*
X177800000Y-78852380D01*
X177752380Y-78709523D01*
X177752380Y-78614285D01*
X177800000Y-78471428D01*
X177847619Y-78423809D01*
X178752380Y-77519047D02*
X178752380Y-77995238D01*
X177752380Y-77995238D01*
X173747619Y-80685714D02*
X173700000Y-80638095D01*
X173652380Y-80542857D01*
X173652380Y-80304761D01*
X173700000Y-80209523D01*
X173747619Y-80161904D01*
X173842857Y-80114285D01*
X173938095Y-80114285D01*
X174080952Y-80161904D01*
X174652380Y-80733333D01*
X174652380Y-80114285D01*
X215761904Y-64152380D02*
X215761904Y-64961904D01*
X215809523Y-65057142D01*
X215857142Y-65104761D01*
X215952380Y-65152380D01*
X216142857Y-65152380D01*
X216238095Y-65104761D01*
X216285714Y-65057142D01*
X216333333Y-64961904D01*
X216333333Y-64152380D01*
X217333333Y-65152380D02*
X216761904Y-65152380D01*
X217047619Y-65152380D02*
X217047619Y-64152380D01*
X216952380Y-64295238D01*
X216857142Y-64390476D01*
X216761904Y-64438095D01*
X218190476Y-64152380D02*
X218000000Y-64152380D01*
X217904761Y-64200000D01*
X217857142Y-64247619D01*
X217761904Y-64390476D01*
X217714285Y-64580952D01*
X217714285Y-64961904D01*
X217761904Y-65057142D01*
X217809523Y-65104761D01*
X217904761Y-65152380D01*
X218095238Y-65152380D01*
X218190476Y-65104761D01*
X218238095Y-65057142D01*
X218285714Y-64961904D01*
X218285714Y-64723809D01*
X218238095Y-64628571D01*
X218190476Y-64580952D01*
X218095238Y-64533333D01*
X217904761Y-64533333D01*
X217809523Y-64580952D01*
X217761904Y-64628571D01*
X217714285Y-64723809D01*
X123571428Y-100957142D02*
X123571428Y-100195238D01*
X123952380Y-100576190D02*
X123190476Y-100576190D01*
X122952380Y-99242857D02*
X122952380Y-99719047D01*
X123428571Y-99766666D01*
X123380952Y-99719047D01*
X123333333Y-99623809D01*
X123333333Y-99385714D01*
X123380952Y-99290476D01*
X123428571Y-99242857D01*
X123523809Y-99195238D01*
X123761904Y-99195238D01*
X123857142Y-99242857D01*
X123904761Y-99290476D01*
X123952380Y-99385714D01*
X123952380Y-99623809D01*
X123904761Y-99719047D01*
X123857142Y-99766666D01*
X122952380Y-98909523D02*
X123952380Y-98576190D01*
X122952380Y-98242857D01*
X123000000Y-95861904D02*
X122952380Y-95957142D01*
X122952380Y-96100000D01*
X123000000Y-96242857D01*
X123095238Y-96338095D01*
X123190476Y-96385714D01*
X123380952Y-96433333D01*
X123523809Y-96433333D01*
X123714285Y-96385714D01*
X123809523Y-96338095D01*
X123904761Y-96242857D01*
X123952380Y-96100000D01*
X123952380Y-96004761D01*
X123904761Y-95861904D01*
X123857142Y-95814285D01*
X123523809Y-95814285D01*
X123523809Y-96004761D01*
X123952380Y-95385714D02*
X122952380Y-95385714D01*
X123952380Y-94814285D01*
X122952380Y-94814285D01*
X123952380Y-94338095D02*
X122952380Y-94338095D01*
X122952380Y-94100000D01*
X123000000Y-93957142D01*
X123095238Y-93861904D01*
X123190476Y-93814285D01*
X123380952Y-93766666D01*
X123523809Y-93766666D01*
X123714285Y-93814285D01*
X123809523Y-93861904D01*
X123904761Y-93957142D01*
X123952380Y-94100000D01*
X123952380Y-94338095D01*
X123571428Y-91814285D02*
X123571428Y-91052380D01*
X122952380Y-90100000D02*
X122952380Y-90576190D01*
X123428571Y-90623809D01*
X123380952Y-90576190D01*
X123333333Y-90480952D01*
X123333333Y-90242857D01*
X123380952Y-90147619D01*
X123428571Y-90100000D01*
X123523809Y-90052380D01*
X123761904Y-90052380D01*
X123857142Y-90100000D01*
X123904761Y-90147619D01*
X123952380Y-90242857D01*
X123952380Y-90480952D01*
X123904761Y-90576190D01*
X123857142Y-90623809D01*
X122952380Y-89766666D02*
X123952380Y-89433333D01*
X122952380Y-89100000D01*
X119752380Y-99827285D02*
X119752380Y-100398714D01*
X119752380Y-100113000D02*
X118752380Y-100113000D01*
X118895238Y-100208238D01*
X118990476Y-100303476D01*
X119038095Y-100398714D01*
X92407428Y-101942523D02*
X92407428Y-101180619D01*
X92788380Y-101561571D02*
X92026476Y-101561571D01*
X92788380Y-100180619D02*
X92788380Y-100752047D01*
X92788380Y-100466333D02*
X91788380Y-100466333D01*
X91931238Y-100561571D01*
X92026476Y-100656809D01*
X92074095Y-100752047D01*
X91788380Y-99275857D02*
X91788380Y-99752047D01*
X92264571Y-99799666D01*
X92216952Y-99752047D01*
X92169333Y-99656809D01*
X92169333Y-99418714D01*
X92216952Y-99323476D01*
X92264571Y-99275857D01*
X92359809Y-99228238D01*
X92597904Y-99228238D01*
X92693142Y-99275857D01*
X92740761Y-99323476D01*
X92788380Y-99418714D01*
X92788380Y-99656809D01*
X92740761Y-99752047D01*
X92693142Y-99799666D01*
X91788380Y-98942523D02*
X92788380Y-98609190D01*
X91788380Y-98275857D01*
X91836000Y-95894904D02*
X91788380Y-95990142D01*
X91788380Y-96133000D01*
X91836000Y-96275857D01*
X91931238Y-96371095D01*
X92026476Y-96418714D01*
X92216952Y-96466333D01*
X92359809Y-96466333D01*
X92550285Y-96418714D01*
X92645523Y-96371095D01*
X92740761Y-96275857D01*
X92788380Y-96133000D01*
X92788380Y-96037761D01*
X92740761Y-95894904D01*
X92693142Y-95847285D01*
X92359809Y-95847285D01*
X92359809Y-96037761D01*
X92788380Y-95418714D02*
X91788380Y-95418714D01*
X92788380Y-94847285D01*
X91788380Y-94847285D01*
X92788380Y-94371095D02*
X91788380Y-94371095D01*
X91788380Y-94133000D01*
X91836000Y-93990142D01*
X91931238Y-93894904D01*
X92026476Y-93847285D01*
X92216952Y-93799666D01*
X92359809Y-93799666D01*
X92550285Y-93847285D01*
X92645523Y-93894904D01*
X92740761Y-93990142D01*
X92788380Y-94133000D01*
X92788380Y-94371095D01*
X92407428Y-91847285D02*
X92407428Y-91085380D01*
X92788380Y-90085380D02*
X92788380Y-90656809D01*
X92788380Y-90371095D02*
X91788380Y-90371095D01*
X91931238Y-90466333D01*
X92026476Y-90561571D01*
X92074095Y-90656809D01*
X91788380Y-89180619D02*
X91788380Y-89656809D01*
X92264571Y-89704428D01*
X92216952Y-89656809D01*
X92169333Y-89561571D01*
X92169333Y-89323476D01*
X92216952Y-89228238D01*
X92264571Y-89180619D01*
X92359809Y-89133000D01*
X92597904Y-89133000D01*
X92693142Y-89180619D01*
X92740761Y-89228238D01*
X92788380Y-89323476D01*
X92788380Y-89561571D01*
X92740761Y-89656809D01*
X92693142Y-89704428D01*
X91788380Y-88847285D02*
X92788380Y-88513952D01*
X91788380Y-88180619D01*
X96852380Y-99927285D02*
X96852380Y-100498714D01*
X96852380Y-100213000D02*
X95852380Y-100213000D01*
X95995238Y-100308238D01*
X96090476Y-100403476D01*
X96138095Y-100498714D01*
M02*
