G04 #@! TF.GenerationSoftware,KiCad,Pcbnew,(5.1.10)-1*
G04 #@! TF.CreationDate,2022-01-19T13:18:03+01:00*
G04 #@! TF.ProjectId,RF_frequency_modulator,52465f66-7265-4717-9565-6e63795f6d6f,1.3*
G04 #@! TF.SameCoordinates,Original*
G04 #@! TF.FileFunction,Soldermask,Bot*
G04 #@! TF.FilePolarity,Negative*
%FSLAX46Y46*%
G04 Gerber Fmt 4.6, Leading zero omitted, Abs format (unit mm)*
G04 Created by KiCad (PCBNEW (5.1.10)-1) date 2022-01-19 13:18:03*
%MOMM*%
%LPD*%
G01*
G04 APERTURE LIST*
%ADD10C,2.050000*%
%ADD11C,2.250000*%
%ADD12C,1.800000*%
%ADD13C,2.900000*%
%ADD14C,1.600000*%
%ADD15R,1.600000X1.600000*%
%ADD16R,1.800000X1.800000*%
%ADD17C,2.000000*%
%ADD18O,1.905000X2.000000*%
%ADD19R,1.905000X2.000000*%
%ADD20O,2.000000X1.905000*%
%ADD21R,2.000000X1.905000*%
%ADD22O,3.500000X3.500000*%
%ADD23R,5.080000X1.500000*%
%ADD24C,2.032000*%
%ADD25R,2.032000X2.032000*%
G04 APERTURE END LIST*
D10*
X171300000Y-98700000D03*
D11*
X168760000Y-101240000D03*
X173840000Y-101240000D03*
X173840000Y-96160000D03*
X168760000Y-96160000D03*
D12*
X85340000Y-134320000D03*
X85340000Y-131780000D03*
X85340000Y-126700000D03*
X85340000Y-129240000D03*
X85340000Y-124160000D03*
X85340000Y-121620000D03*
X85340000Y-119080000D03*
X85340000Y-116540000D03*
X85340000Y-114000000D03*
X85340000Y-111460000D03*
X85340000Y-108920000D03*
X85340000Y-106380000D03*
X85340000Y-103840000D03*
X85340000Y-101300000D03*
X85340000Y-98760000D03*
X85340000Y-96220000D03*
X85340000Y-93680000D03*
X85340000Y-91140000D03*
X85340000Y-88600000D03*
X85340000Y-86060000D03*
X85340000Y-83520000D03*
X85340000Y-80980000D03*
X85340000Y-78440000D03*
X85340000Y-75900000D03*
X85340000Y-73360000D03*
X85340000Y-70820000D03*
X85340000Y-68280000D03*
X85340000Y-65740000D03*
X85340000Y-63200000D03*
X85340000Y-60660000D03*
X85340000Y-58120000D03*
X85340000Y-55580000D03*
X90420000Y-134320000D03*
X90420000Y-131780000D03*
X90420000Y-126700000D03*
X90420000Y-129240000D03*
X90420000Y-124160000D03*
X90420000Y-121620000D03*
X90420000Y-119080000D03*
X90420000Y-116540000D03*
X90420000Y-114000000D03*
X90420000Y-111460000D03*
X90420000Y-108920000D03*
X90420000Y-106380000D03*
X90420000Y-103840000D03*
X90420000Y-101300000D03*
X90420000Y-98760000D03*
X90420000Y-96220000D03*
X90420000Y-93680000D03*
X90420000Y-91140000D03*
X90420000Y-88600000D03*
X90420000Y-86060000D03*
X90420000Y-83520000D03*
X90420000Y-80980000D03*
X90420000Y-78440000D03*
X90420000Y-75900000D03*
X90420000Y-73360000D03*
X90420000Y-70820000D03*
X90420000Y-68280000D03*
X90420000Y-65740000D03*
X90420000Y-63200000D03*
X90420000Y-60660000D03*
X90420000Y-58120000D03*
X90420000Y-55580000D03*
D13*
X82800000Y-50500000D03*
X82800000Y-139400000D03*
D14*
X184600000Y-102900000D03*
X184600000Y-97900000D03*
X187500000Y-138000000D03*
D15*
X187500000Y-140000000D03*
D14*
X167300000Y-138000000D03*
D15*
X167300000Y-140000000D03*
X147500000Y-140000000D03*
D14*
X147500000Y-138000000D03*
D15*
X114000000Y-61800000D03*
D14*
X114000000Y-63800000D03*
X113900000Y-80000000D03*
D15*
X113900000Y-82000000D03*
D16*
X236000000Y-117000000D03*
D12*
X236000000Y-114460000D03*
D11*
X139360000Y-113840000D03*
X139360000Y-108760000D03*
X144440000Y-108760000D03*
X144440000Y-113840000D03*
D10*
X141900000Y-111300000D03*
D17*
X119900000Y-131500000D03*
D18*
X174420000Y-140500000D03*
X176960000Y-140500000D03*
D19*
X179500000Y-140500000D03*
X159500000Y-140500000D03*
D18*
X156960000Y-140500000D03*
X154420000Y-140500000D03*
D20*
X115900000Y-69120000D03*
X115900000Y-71660000D03*
D21*
X115900000Y-74200000D03*
D22*
X99240000Y-71660000D03*
D23*
X237300000Y-86550000D03*
X237300000Y-78050000D03*
D11*
X176760000Y-78640000D03*
X176760000Y-73560000D03*
X181840000Y-73560000D03*
X181840000Y-78640000D03*
D10*
X179300000Y-76100000D03*
D23*
X237300000Y-64250000D03*
X237300000Y-55750000D03*
X237400000Y-125750000D03*
X237400000Y-134250000D03*
D12*
X225400000Y-96100000D03*
X233020000Y-98640000D03*
X238100000Y-96100000D03*
D24*
X119300000Y-92620000D03*
X119300000Y-95160000D03*
D25*
X119300000Y-97700000D03*
X96400000Y-97800000D03*
D24*
X96400000Y-95260000D03*
X96400000Y-92720000D03*
D25*
X130000000Y-130000000D03*
D24*
X130000000Y-127460000D03*
X130000000Y-124920000D03*
D10*
X224600000Y-109500000D03*
D11*
X227140000Y-112040000D03*
X227140000Y-106960000D03*
X222060000Y-106960000D03*
X222060000Y-112040000D03*
M02*
