M48
; DRILL file {KiCad (5.1.10)-1} date 01/19/22 13:18:06
; FORMAT={-:-/ absolute / metric / decimal}
; #@! TF.CreationDate,2022-01-19T13:18:06+01:00
; #@! TF.GenerationSoftware,Kicad,Pcbnew,(5.1.10)-1
; #@! TF.FileFunction,Plated,1,2,PTH
FMAT,2
METRIC
T1C0.300
T2C0.400
T3C0.508
T4C0.800
T5C0.900
T6C1.000
T7C1.016
T8C1.100
T9C1.500
T10C1.700
%
G90
G05
T1
X95.5Y-61.9
X95.5Y-63.5
X95.5Y-65.1
X96.3Y-127.3
X96.3Y-128.4
X96.4Y-126.1
X108.5Y-117.0
X108.5Y-118.0
X108.5Y-119.0
X108.5Y-130.0
X108.5Y-131.0
X108.5Y-132.0
X108.6Y-87.2
X108.6Y-88.1
X110.5Y-95.5
X123.4Y-84.4
X123.6Y-79.1
X124.75Y-76.85
X124.75Y-85.75
X124.75Y-95.45
X124.75Y-103.05
X124.78Y-92.12
X126.2Y-92.8
X126.2Y-95.0
X132.0Y-96.0
X132.0Y-102.0
X134.4Y-111.9
X134.4Y-115.8
X138.0Y-96.0
X154.4Y-106.8
X160.6Y-114.6
X162.3Y-105.7
X164.487Y-108.312
X164.5Y-93.8
X170.287Y-109.688
X176.375Y-114.825
X185.3Y-92.2
X185.4Y-90.4
X185.5Y-47.5
X185.5Y-50.0
X185.5Y-55.0
X185.5Y-61.0
X185.5Y-67.0
X185.5Y-73.0
X185.5Y-79.0
X185.5Y-85.0
X188.5Y-46.0
X190.9Y-64.3
X191.1Y-90.5
X192.4Y-60.5
X193.0Y-72.5
X194.1Y-85.9
X194.2Y-88.9
X194.3Y-90.6
X194.5Y-46.0
X195.5Y-75.5
X196.2Y-79.1
X196.5Y-64.75
X197.25Y-72.25
X197.3Y-77.2
X198.95Y-63.8
X200.5Y-46.0
X201.1Y-93.9
X201.25Y-60.75
X202.1Y-77.7
X204.75Y-65.5
X204.8Y-102.6
X205.25Y-72.25
X206.0Y-73.5
X206.3Y-93.8
X206.5Y-46.0
X207.5Y-63.75
X211.0Y-73.25
X212.5Y-46.0
X212.5Y-73.25
X212.6Y-93.9
X213.5Y-106.7
X214.25Y-73.5
X214.3Y-61.2
X215.6Y-64.4
X215.6Y-65.9
X215.9Y-112.8
X216.0Y-69.4
X216.0Y-89.0
X216.7Y-96.1
X217.0Y-67.75
X218.0Y-69.5
X218.0Y-72.25
X218.5Y-46.0
X218.5Y-93.6
X219.4Y-117.8
X219.5Y-64.4
X219.912Y-115.412
X220.193Y-88.684
X223.0Y-127.1
X224.4Y-93.8
X224.5Y-46.0
X224.9Y-77.4
X225.425Y-84.5
X228.3Y-115.4
X229.8Y-93.8
X230.0Y-46.0
X230.4Y-87.4
X231.0Y-134.9
X231.1Y-131.8
X232.3Y-130.6
X232.4Y-134.3
X232.7Y-93.4
X233.0Y-55.0
X233.0Y-61.0
X233.0Y-64.5
X233.0Y-67.0
X233.0Y-73.0
X233.1Y-79.2
X233.1Y-85.1
X233.1Y-90.4
X233.2Y-76.8
X233.5Y-46.0
X233.5Y-49.5
X233.5Y-129.4
X233.5Y-135.0
X233.5Y-136.5
X233.6Y-133.3
X234.0Y-123.5
X234.0Y-125.5
X234.0Y-127.5
X234.5Y-132.5
X234.5Y-136.5
X235.5Y-75.7
X236.0Y-80.2
X236.0Y-123.5
X236.0Y-127.5
X236.0Y-132.5
X236.0Y-136.5
X236.1Y-84.4
X236.1Y-88.8
X237.0Y-53.0
X237.0Y-57.5
X237.0Y-62.0
X237.0Y-67.0
X237.5Y-123.5
X237.5Y-127.5
X237.5Y-132.5
X237.5Y-136.5
X238.3Y-75.6
X238.4Y-80.1
X238.6Y-84.4
X238.6Y-88.8
X239.0Y-132.5
X239.0Y-136.5
T2
X102.5Y-120.9
X102.6Y-91.2
X103.0Y-134.1
X104.7Y-90.4
X110.5Y-124.3
X110.5Y-138.0
X114.3Y-91.0
X114.5Y-134.2
X114.8Y-120.9
X123.2Y-67.1
X123.4Y-81.5
X124.8Y-112.0
X124.8Y-106.7
X126.5Y-84.0
X129.8Y-107.1
X132.0Y-84.0
X134.4Y-106.0
X134.4Y-108.0
X134.4Y-110.0
X134.4Y-117.5
X134.4Y-120.0
X134.4Y-122.0
X134.4Y-124.0
X134.4Y-126.0
X134.4Y-128.0
X134.4Y-130.0
X134.7Y-103.7
X136.4Y-132.0
X136.7Y-103.7
X138.4Y-132.0
X138.7Y-103.7
X140.4Y-132.0
X140.7Y-103.7
X142.4Y-132.0
X142.7Y-103.7
X144.4Y-132.0
X144.7Y-103.7
X146.4Y-132.0
X146.7Y-103.7
X146.7Y-110.0
X146.7Y-112.55
X147.7Y-110.0
X147.7Y-112.55
X148.4Y-132.0
X148.5Y-113.7
X148.7Y-103.7
X148.7Y-110.0
X148.7Y-112.55
X149.7Y-110.0
X149.7Y-112.55
X150.4Y-132.0
X150.7Y-103.7
X150.7Y-110.0
X150.7Y-112.55
X151.7Y-110.0
X151.7Y-112.55
X152.4Y-132.0
X152.7Y-103.7
X152.7Y-110.0
X152.7Y-112.55
X153.7Y-110.0
X153.7Y-112.55
X154.4Y-132.0
X154.7Y-103.7
X154.7Y-110.0
X154.7Y-112.55
X155.7Y-110.0
X155.7Y-112.55
X156.4Y-132.0
X156.7Y-103.7
X157.3Y-136.3
X158.0Y-132.0
X159.0Y-103.7
X160.0Y-132.0
X161.0Y-103.7
X162.0Y-132.0
X163.2Y-103.7
X164.0Y-132.0
X164.8Y-110.0
X164.8Y-112.55
X165.5Y-132.0
X165.7Y-103.8
X165.8Y-110.0
X165.8Y-112.55
X166.8Y-110.0
X166.8Y-112.55
X167.5Y-132.0
X167.7Y-103.8
X167.8Y-110.0
X167.8Y-112.55
X168.5Y-114.0
X168.5Y-115.5
X168.8Y-110.0
X168.8Y-112.55
X169.5Y-132.0
X170.0Y-115.5
X170.2Y-103.8
X171.5Y-115.5
X171.5Y-132.0
X172.2Y-103.8
X172.2Y-112.8
X172.4Y-92.0
X173.0Y-105.0
X173.5Y-132.0
X174.0Y-106.0
X174.0Y-115.5
X174.6Y-109.4
X175.0Y-107.0
X175.5Y-132.0
X176.0Y-108.0
X176.8Y-108.9
X177.0Y-113.225
X177.5Y-115.5
X177.5Y-132.0
X177.5Y-136.3
X178.0Y-113.225
X178.263Y-110.463
X179.0Y-113.225
X179.263Y-110.463
X179.5Y-132.0
X180.0Y-113.225
X180.263Y-110.463
X180.5Y-103.3
X181.0Y-113.225
X181.263Y-110.463
X181.5Y-132.0
X181.9Y-124.9
X182.4Y-136.3
X183.0Y-121.5
X183.0Y-123.5
X183.0Y-125.5
X183.0Y-127.5
X183.0Y-129.5
X183.0Y-131.5
X184.0Y-113.225
X184.263Y-110.463
X184.3Y-122.0
X185.0Y-113.225
X185.263Y-110.463
X185.3Y-123.0
X186.0Y-113.225
X186.263Y-110.463
X186.3Y-120.0
X186.3Y-124.0
X187.0Y-113.225
X187.263Y-110.463
X187.3Y-121.0
X187.3Y-125.0
X188.0Y-113.225
X188.1Y-115.9
X188.263Y-110.463
X188.3Y-122.0
X188.3Y-126.0
X189.0Y-113.225
X189.263Y-110.463
X189.3Y-123.0
X189.3Y-127.0
X190.0Y-113.225
X190.0Y-120.5
X190.263Y-110.463
X190.3Y-124.0
X190.3Y-128.0
X190.8Y-102.9
X191.2Y-113.5
X191.263Y-110.463
X191.3Y-109.3
X191.3Y-125.0
X191.3Y-129.0
X192.2Y-114.5
X192.3Y-126.0
X192.3Y-130.0
X192.463Y-111.063
X192.5Y-94.625
X192.9Y-98.5
X193.2Y-115.5
X193.3Y-127.0
X193.3Y-131.0
X193.463Y-112.1
X194.2Y-108.4
X194.2Y-116.5
X194.3Y-128.0
X194.3Y-132.0
X194.463Y-113.1
X195.0Y-112.0
X195.1Y-100.1
X195.2Y-117.5
X195.3Y-129.0
X195.3Y-133.0
X195.463Y-114.1
X196.2Y-118.5
X196.3Y-130.0
X196.3Y-134.0
X196.463Y-115.1
X197.2Y-119.5
X197.3Y-131.0
X197.3Y-134.8
X197.463Y-116.1
X198.2Y-120.5
X198.3Y-131.7
X198.3Y-134.8
X198.463Y-117.1
X199.0Y-122.5
X199.0Y-124.2
X199.0Y-126.0
X199.0Y-128.7
X199.3Y-132.2
X199.3Y-134.8
X199.463Y-118.1
X199.5Y-121.0
X199.7Y-104.0
X200.3Y-132.2
X200.3Y-134.8
X201.3Y-132.2
X201.3Y-134.8
X201.5Y-130.5
X202.3Y-132.2
X202.3Y-134.8
X203.0Y-113.6
X203.0Y-116.5
X203.0Y-118.5
X203.0Y-120.5
X203.0Y-122.5
X203.0Y-124.6
X203.0Y-126.5
X203.0Y-128.5
X203.3Y-132.2
X203.3Y-134.8
X203.4Y-109.0
X203.5Y-130.5
X204.3Y-132.2
X204.3Y-134.8
X204.4Y-70.0
X204.5Y-67.6
X205.3Y-132.2
X205.3Y-134.8
X205.5Y-113.6
X205.9Y-116.5
X206.0Y-118.5
X206.0Y-120.5
X206.0Y-122.5
X206.0Y-124.5
X206.0Y-126.5
X206.0Y-128.5
X206.3Y-132.2
X206.3Y-134.8
X207.3Y-132.2
X207.3Y-134.8
X207.9Y-116.5
X208.0Y-118.5
X208.0Y-120.5
X208.0Y-122.5
X208.0Y-124.5
X208.0Y-126.5
X208.0Y-128.5
X208.3Y-132.2
X208.3Y-134.8
X208.5Y-105.7
X209.0Y-111.5
X209.1Y-70.3
X209.3Y-132.2
X209.3Y-134.8
X210.3Y-132.2
X210.3Y-134.8
X210.5Y-115.5
X211.0Y-111.5
X211.3Y-132.2
X211.3Y-134.8
X211.6Y-109.6
X212.3Y-132.2
X212.3Y-134.8
X213.0Y-111.5
X213.0Y-114.0
X213.0Y-118.0
X213.0Y-120.5
X213.0Y-123.0
X213.0Y-125.5
X213.3Y-132.2
X213.3Y-134.8
X214.3Y-132.2
X214.3Y-134.8
X214.7Y-93.9
X214.7Y-94.9
X214.7Y-95.9
X214.7Y-96.9
X214.7Y-97.9
X214.7Y-98.9
X214.7Y-99.9
X214.7Y-100.9
X214.8Y-108.7
X215.3Y-132.2
X215.3Y-134.8
X215.6Y-110.7
X215.7Y-100.9
X216.3Y-132.2
X216.3Y-134.8
X216.5Y-114.6
X216.5Y-116.6
X216.5Y-118.6
X216.5Y-120.6
X216.5Y-122.6
X216.5Y-124.6
X216.5Y-126.6
X216.5Y-128.6
X216.5Y-130.6
X216.7Y-100.9
X217.3Y-132.2
X217.3Y-134.8
X217.7Y-100.9
X218.3Y-132.2
X218.3Y-134.8
X218.7Y-100.9
X219.3Y-132.2
X219.3Y-134.8
X219.7Y-100.9
X220.3Y-132.2
X220.3Y-134.8
X220.7Y-100.9
X221.3Y-132.2
X221.3Y-134.8
X221.7Y-100.9
X222.3Y-132.2
X222.3Y-134.8
X222.7Y-100.9
X223.3Y-132.2
X223.3Y-134.8
X223.7Y-100.9
X224.3Y-132.2
X224.3Y-134.8
X224.7Y-100.9
X225.3Y-132.2
X225.3Y-134.8
X225.7Y-100.9
X226.7Y-100.9
X227.7Y-100.9
X228.7Y-100.9
X229.7Y-100.9
X230.7Y-100.9
X231.7Y-100.9
X232.7Y-100.9
X233.7Y-100.9
X234.7Y-100.9
X235.7Y-100.9
X236.7Y-100.9
X237.7Y-100.9
X238.7Y-100.9
T3
X199.796Y-80.702
X199.796Y-81.972
X199.796Y-87.052
X199.796Y-88.322
X200.685Y-79.432
X201.32Y-89.592
X203.225Y-79.432
X203.225Y-83.877
X203.225Y-85.147
X203.225Y-89.592
X205.13Y-89.592
X205.765Y-83.242
X205.765Y-87.052
X207.035Y-83.242
X207.035Y-87.052
X207.67Y-89.592
X209.575Y-79.432
X209.575Y-83.877
X209.575Y-85.147
X209.575Y-89.592
X211.48Y-89.592
X212.115Y-79.432
X213.004Y-80.702
X213.004Y-81.972
X213.004Y-87.052
X213.004Y-88.322
T4
X113.9Y-80.0
X113.9Y-82.0
X114.0Y-61.8
X114.0Y-63.8
X147.5Y-138.0
X147.5Y-140.0
X167.3Y-138.0
X167.3Y-140.0
X184.6Y-97.9
X184.6Y-102.9
X187.5Y-138.0
X187.5Y-140.0
T5
X236.0Y-114.46
X236.0Y-117.0
T6
X85.34Y-55.58
X85.34Y-58.12
X85.34Y-60.66
X85.34Y-63.2
X85.34Y-65.74
X85.34Y-68.28
X85.34Y-70.82
X85.34Y-73.36
X85.34Y-75.9
X85.34Y-78.44
X85.34Y-80.98
X85.34Y-83.52
X85.34Y-86.06
X85.34Y-88.6
X85.34Y-91.14
X85.34Y-93.68
X85.34Y-96.22
X85.34Y-98.76
X85.34Y-101.3
X85.34Y-103.84
X85.34Y-106.38
X85.34Y-108.92
X85.34Y-111.46
X85.34Y-114.0
X85.34Y-116.54
X85.34Y-119.08
X85.34Y-121.62
X85.34Y-124.16
X85.34Y-126.7
X85.34Y-129.24
X85.34Y-131.78
X85.34Y-134.32
X90.42Y-55.58
X90.42Y-58.12
X90.42Y-60.66
X90.42Y-63.2
X90.42Y-65.74
X90.42Y-68.28
X90.42Y-70.82
X90.42Y-73.36
X90.42Y-75.9
X90.42Y-78.44
X90.42Y-80.98
X90.42Y-83.52
X90.42Y-86.06
X90.42Y-88.6
X90.42Y-91.14
X90.42Y-93.68
X90.42Y-96.22
X90.42Y-98.76
X90.42Y-101.3
X90.42Y-103.84
X90.42Y-106.38
X90.42Y-108.92
X90.42Y-111.46
X90.42Y-114.0
X90.42Y-116.54
X90.42Y-119.08
X90.42Y-121.62
X90.42Y-124.16
X90.42Y-126.7
X90.42Y-129.24
X90.42Y-131.78
X90.42Y-134.32
X119.9Y-131.5
X225.4Y-96.1
X233.02Y-98.64
X238.1Y-96.1
T7
X96.4Y-92.72
X96.4Y-95.26
X96.4Y-97.8
X119.3Y-92.62
X119.3Y-95.16
X119.3Y-97.7
X130.0Y-124.92
X130.0Y-127.46
X130.0Y-130.0
T8
X115.9Y-69.12
X115.9Y-71.66
X115.9Y-74.2
X154.42Y-140.5
X156.96Y-140.5
X159.5Y-140.5
X174.42Y-140.5
X176.96Y-140.5
X179.5Y-140.5
T9
X141.9Y-111.3
X171.3Y-98.7
X179.3Y-76.1
X224.6Y-109.5
T10
X139.36Y-108.76
X139.36Y-113.84
X144.44Y-108.76
X144.44Y-113.84
X168.76Y-96.16
X168.76Y-101.24
X173.84Y-96.16
X173.84Y-101.24
X176.76Y-73.56
X176.76Y-78.64
X181.84Y-73.56
X181.84Y-78.64
X222.06Y-106.96
X222.06Y-112.04
X227.14Y-106.96
X227.14Y-112.04
T0
M30
