G04 #@! TF.GenerationSoftware,KiCad,Pcbnew,5.1.7*
G04 #@! TF.CreationDate,2020-10-15T00:36:44+02:00*
G04 #@! TF.ProjectId,RF_frequency_modulator,52465f66-7265-4717-9565-6e63795f6d6f,1.2*
G04 #@! TF.SameCoordinates,Original*
G04 #@! TF.FileFunction,Paste,Top*
G04 #@! TF.FilePolarity,Positive*
%FSLAX46Y46*%
G04 Gerber Fmt 4.6, Leading zero omitted, Abs format (unit mm)*
G04 Created by KiCad (PCBNEW 5.1.7) date 2020-10-15 00:36:44*
%MOMM*%
%LPD*%
G01*
G04 APERTURE LIST*
%ADD10R,1.500000X1.500000*%
%ADD11R,0.900000X0.800000*%
%ADD12R,0.700000X0.250000*%
%ADD13C,0.100000*%
%ADD14R,1.060000X0.650000*%
G04 APERTURE END LIST*
G36*
G01*
X214450000Y-63045000D02*
X214450000Y-62745000D01*
G75*
G02*
X214600000Y-62595000I150000J0D01*
G01*
X216250000Y-62595000D01*
G75*
G02*
X216400000Y-62745000I0J-150000D01*
G01*
X216400000Y-63045000D01*
G75*
G02*
X216250000Y-63195000I-150000J0D01*
G01*
X214600000Y-63195000D01*
G75*
G02*
X214450000Y-63045000I0J150000D01*
G01*
G37*
G36*
G01*
X214450000Y-64315000D02*
X214450000Y-64015000D01*
G75*
G02*
X214600000Y-63865000I150000J0D01*
G01*
X216250000Y-63865000D01*
G75*
G02*
X216400000Y-64015000I0J-150000D01*
G01*
X216400000Y-64315000D01*
G75*
G02*
X216250000Y-64465000I-150000J0D01*
G01*
X214600000Y-64465000D01*
G75*
G02*
X214450000Y-64315000I0J150000D01*
G01*
G37*
G36*
G01*
X214450000Y-65585000D02*
X214450000Y-65285000D01*
G75*
G02*
X214600000Y-65135000I150000J0D01*
G01*
X216250000Y-65135000D01*
G75*
G02*
X216400000Y-65285000I0J-150000D01*
G01*
X216400000Y-65585000D01*
G75*
G02*
X216250000Y-65735000I-150000J0D01*
G01*
X214600000Y-65735000D01*
G75*
G02*
X214450000Y-65585000I0J150000D01*
G01*
G37*
G36*
G01*
X214450000Y-66855000D02*
X214450000Y-66555000D01*
G75*
G02*
X214600000Y-66405000I150000J0D01*
G01*
X216250000Y-66405000D01*
G75*
G02*
X216400000Y-66555000I0J-150000D01*
G01*
X216400000Y-66855000D01*
G75*
G02*
X216250000Y-67005000I-150000J0D01*
G01*
X214600000Y-67005000D01*
G75*
G02*
X214450000Y-66855000I0J150000D01*
G01*
G37*
G36*
G01*
X219400000Y-66855000D02*
X219400000Y-66555000D01*
G75*
G02*
X219550000Y-66405000I150000J0D01*
G01*
X221200000Y-66405000D01*
G75*
G02*
X221350000Y-66555000I0J-150000D01*
G01*
X221350000Y-66855000D01*
G75*
G02*
X221200000Y-67005000I-150000J0D01*
G01*
X219550000Y-67005000D01*
G75*
G02*
X219400000Y-66855000I0J150000D01*
G01*
G37*
G36*
G01*
X219400000Y-65585000D02*
X219400000Y-65285000D01*
G75*
G02*
X219550000Y-65135000I150000J0D01*
G01*
X221200000Y-65135000D01*
G75*
G02*
X221350000Y-65285000I0J-150000D01*
G01*
X221350000Y-65585000D01*
G75*
G02*
X221200000Y-65735000I-150000J0D01*
G01*
X219550000Y-65735000D01*
G75*
G02*
X219400000Y-65585000I0J150000D01*
G01*
G37*
G36*
G01*
X219400000Y-64315000D02*
X219400000Y-64015000D01*
G75*
G02*
X219550000Y-63865000I150000J0D01*
G01*
X221200000Y-63865000D01*
G75*
G02*
X221350000Y-64015000I0J-150000D01*
G01*
X221350000Y-64315000D01*
G75*
G02*
X221200000Y-64465000I-150000J0D01*
G01*
X219550000Y-64465000D01*
G75*
G02*
X219400000Y-64315000I0J150000D01*
G01*
G37*
G36*
G01*
X219400000Y-63045000D02*
X219400000Y-62745000D01*
G75*
G02*
X219550000Y-62595000I150000J0D01*
G01*
X221200000Y-62595000D01*
G75*
G02*
X221350000Y-62745000I0J-150000D01*
G01*
X221350000Y-63045000D01*
G75*
G02*
X221200000Y-63195000I-150000J0D01*
G01*
X219550000Y-63195000D01*
G75*
G02*
X219400000Y-63045000I0J150000D01*
G01*
G37*
D10*
X214100000Y-123879000D03*
X214100000Y-121339000D03*
X214100000Y-118799000D03*
X214100000Y-116259000D03*
X211433000Y-114100000D03*
X208893000Y-114100000D03*
X206353000Y-114100000D03*
X203813000Y-114100000D03*
X201400000Y-117148000D03*
X201400000Y-119688000D03*
X201400000Y-122228000D03*
X201400000Y-124768000D03*
X203559000Y-126800000D03*
X206099000Y-126800000D03*
X208639000Y-126800000D03*
X211179000Y-126800000D03*
G36*
G01*
X103075000Y-100525000D02*
X100925000Y-100525000D01*
G75*
G02*
X100675000Y-100275000I0J250000D01*
G01*
X100675000Y-99525000D01*
G75*
G02*
X100925000Y-99275000I250000J0D01*
G01*
X103075000Y-99275000D01*
G75*
G02*
X103325000Y-99525000I0J-250000D01*
G01*
X103325000Y-100275000D01*
G75*
G02*
X103075000Y-100525000I-250000J0D01*
G01*
G37*
G36*
G01*
X103075000Y-97725000D02*
X100925000Y-97725000D01*
G75*
G02*
X100675000Y-97475000I0J250000D01*
G01*
X100675000Y-96725000D01*
G75*
G02*
X100925000Y-96475000I250000J0D01*
G01*
X103075000Y-96475000D01*
G75*
G02*
X103325000Y-96725000I0J-250000D01*
G01*
X103325000Y-97475000D01*
G75*
G02*
X103075000Y-97725000I-250000J0D01*
G01*
G37*
G36*
G01*
X103075000Y-90625000D02*
X100925000Y-90625000D01*
G75*
G02*
X100675000Y-90375000I0J250000D01*
G01*
X100675000Y-89625000D01*
G75*
G02*
X100925000Y-89375000I250000J0D01*
G01*
X103075000Y-89375000D01*
G75*
G02*
X103325000Y-89625000I0J-250000D01*
G01*
X103325000Y-90375000D01*
G75*
G02*
X103075000Y-90625000I-250000J0D01*
G01*
G37*
G36*
G01*
X103075000Y-93425000D02*
X100925000Y-93425000D01*
G75*
G02*
X100675000Y-93175000I0J250000D01*
G01*
X100675000Y-92425000D01*
G75*
G02*
X100925000Y-92175000I250000J0D01*
G01*
X103075000Y-92175000D01*
G75*
G02*
X103325000Y-92425000I0J-250000D01*
G01*
X103325000Y-93175000D01*
G75*
G02*
X103075000Y-93425000I-250000J0D01*
G01*
G37*
G36*
G01*
X101425000Y-118775000D02*
X103575000Y-118775000D01*
G75*
G02*
X103825000Y-119025000I0J-250000D01*
G01*
X103825000Y-119775000D01*
G75*
G02*
X103575000Y-120025000I-250000J0D01*
G01*
X101425000Y-120025000D01*
G75*
G02*
X101175000Y-119775000I0J250000D01*
G01*
X101175000Y-119025000D01*
G75*
G02*
X101425000Y-118775000I250000J0D01*
G01*
G37*
G36*
G01*
X101425000Y-115975000D02*
X103575000Y-115975000D01*
G75*
G02*
X103825000Y-116225000I0J-250000D01*
G01*
X103825000Y-116975000D01*
G75*
G02*
X103575000Y-117225000I-250000J0D01*
G01*
X101425000Y-117225000D01*
G75*
G02*
X101175000Y-116975000I0J250000D01*
G01*
X101175000Y-116225000D01*
G75*
G02*
X101425000Y-115975000I250000J0D01*
G01*
G37*
G36*
G01*
X101925000Y-128975000D02*
X104075000Y-128975000D01*
G75*
G02*
X104325000Y-129225000I0J-250000D01*
G01*
X104325000Y-129975000D01*
G75*
G02*
X104075000Y-130225000I-250000J0D01*
G01*
X101925000Y-130225000D01*
G75*
G02*
X101675000Y-129975000I0J250000D01*
G01*
X101675000Y-129225000D01*
G75*
G02*
X101925000Y-128975000I250000J0D01*
G01*
G37*
G36*
G01*
X101925000Y-131775000D02*
X104075000Y-131775000D01*
G75*
G02*
X104325000Y-132025000I0J-250000D01*
G01*
X104325000Y-132775000D01*
G75*
G02*
X104075000Y-133025000I-250000J0D01*
G01*
X101925000Y-133025000D01*
G75*
G02*
X101675000Y-132775000I0J250000D01*
G01*
X101675000Y-132025000D01*
G75*
G02*
X101925000Y-131775000I250000J0D01*
G01*
G37*
G36*
G01*
X107375000Y-124275000D02*
X108625000Y-124275000D01*
G75*
G02*
X108875000Y-124525000I0J-250000D01*
G01*
X108875000Y-125275000D01*
G75*
G02*
X108625000Y-125525000I-250000J0D01*
G01*
X107375000Y-125525000D01*
G75*
G02*
X107125000Y-125275000I0J250000D01*
G01*
X107125000Y-124525000D01*
G75*
G02*
X107375000Y-124275000I250000J0D01*
G01*
G37*
G36*
G01*
X107375000Y-121475000D02*
X108625000Y-121475000D01*
G75*
G02*
X108875000Y-121725000I0J-250000D01*
G01*
X108875000Y-122475000D01*
G75*
G02*
X108625000Y-122725000I-250000J0D01*
G01*
X107375000Y-122725000D01*
G75*
G02*
X107125000Y-122475000I0J250000D01*
G01*
X107125000Y-121725000D01*
G75*
G02*
X107375000Y-121475000I250000J0D01*
G01*
G37*
G36*
G01*
X107375000Y-134475000D02*
X108625000Y-134475000D01*
G75*
G02*
X108875000Y-134725000I0J-250000D01*
G01*
X108875000Y-135475000D01*
G75*
G02*
X108625000Y-135725000I-250000J0D01*
G01*
X107375000Y-135725000D01*
G75*
G02*
X107125000Y-135475000I0J250000D01*
G01*
X107125000Y-134725000D01*
G75*
G02*
X107375000Y-134475000I250000J0D01*
G01*
G37*
G36*
G01*
X107375000Y-137275000D02*
X108625000Y-137275000D01*
G75*
G02*
X108875000Y-137525000I0J-250000D01*
G01*
X108875000Y-138275000D01*
G75*
G02*
X108625000Y-138525000I-250000J0D01*
G01*
X107375000Y-138525000D01*
G75*
G02*
X107125000Y-138275000I0J250000D01*
G01*
X107125000Y-137525000D01*
G75*
G02*
X107375000Y-137275000I250000J0D01*
G01*
G37*
G36*
G01*
X109225000Y-99743750D02*
X109225000Y-100256250D01*
G75*
G02*
X109006250Y-100475000I-218750J0D01*
G01*
X108568750Y-100475000D01*
G75*
G02*
X108350000Y-100256250I0J218750D01*
G01*
X108350000Y-99743750D01*
G75*
G02*
X108568750Y-99525000I218750J0D01*
G01*
X109006250Y-99525000D01*
G75*
G02*
X109225000Y-99743750I0J-218750D01*
G01*
G37*
G36*
G01*
X107650000Y-99743750D02*
X107650000Y-100256250D01*
G75*
G02*
X107431250Y-100475000I-218750J0D01*
G01*
X106993750Y-100475000D01*
G75*
G02*
X106775000Y-100256250I0J218750D01*
G01*
X106775000Y-99743750D01*
G75*
G02*
X106993750Y-99525000I218750J0D01*
G01*
X107431250Y-99525000D01*
G75*
G02*
X107650000Y-99743750I0J-218750D01*
G01*
G37*
G36*
G01*
X108600000Y-91256250D02*
X108600000Y-90743750D01*
G75*
G02*
X108818750Y-90525000I218750J0D01*
G01*
X109256250Y-90525000D01*
G75*
G02*
X109475000Y-90743750I0J-218750D01*
G01*
X109475000Y-91256250D01*
G75*
G02*
X109256250Y-91475000I-218750J0D01*
G01*
X108818750Y-91475000D01*
G75*
G02*
X108600000Y-91256250I0J218750D01*
G01*
G37*
G36*
G01*
X107025000Y-91256250D02*
X107025000Y-90743750D01*
G75*
G02*
X107243750Y-90525000I218750J0D01*
G01*
X107681250Y-90525000D01*
G75*
G02*
X107900000Y-90743750I0J-218750D01*
G01*
X107900000Y-91256250D01*
G75*
G02*
X107681250Y-91475000I-218750J0D01*
G01*
X107243750Y-91475000D01*
G75*
G02*
X107025000Y-91256250I0J218750D01*
G01*
G37*
G36*
G01*
X114075000Y-97725000D02*
X111925000Y-97725000D01*
G75*
G02*
X111675000Y-97475000I0J250000D01*
G01*
X111675000Y-96725000D01*
G75*
G02*
X111925000Y-96475000I250000J0D01*
G01*
X114075000Y-96475000D01*
G75*
G02*
X114325000Y-96725000I0J-250000D01*
G01*
X114325000Y-97475000D01*
G75*
G02*
X114075000Y-97725000I-250000J0D01*
G01*
G37*
G36*
G01*
X114075000Y-100525000D02*
X111925000Y-100525000D01*
G75*
G02*
X111675000Y-100275000I0J250000D01*
G01*
X111675000Y-99525000D01*
G75*
G02*
X111925000Y-99275000I250000J0D01*
G01*
X114075000Y-99275000D01*
G75*
G02*
X114325000Y-99525000I0J-250000D01*
G01*
X114325000Y-100275000D01*
G75*
G02*
X114075000Y-100525000I-250000J0D01*
G01*
G37*
G36*
G01*
X114075000Y-93525000D02*
X111925000Y-93525000D01*
G75*
G02*
X111675000Y-93275000I0J250000D01*
G01*
X111675000Y-92525000D01*
G75*
G02*
X111925000Y-92275000I250000J0D01*
G01*
X114075000Y-92275000D01*
G75*
G02*
X114325000Y-92525000I0J-250000D01*
G01*
X114325000Y-93275000D01*
G75*
G02*
X114075000Y-93525000I-250000J0D01*
G01*
G37*
G36*
G01*
X114075000Y-90725000D02*
X111925000Y-90725000D01*
G75*
G02*
X111675000Y-90475000I0J250000D01*
G01*
X111675000Y-89725000D01*
G75*
G02*
X111925000Y-89475000I250000J0D01*
G01*
X114075000Y-89475000D01*
G75*
G02*
X114325000Y-89725000I0J-250000D01*
G01*
X114325000Y-90475000D01*
G75*
G02*
X114075000Y-90725000I-250000J0D01*
G01*
G37*
G36*
G01*
X113725000Y-115975000D02*
X115875000Y-115975000D01*
G75*
G02*
X116125000Y-116225000I0J-250000D01*
G01*
X116125000Y-116975000D01*
G75*
G02*
X115875000Y-117225000I-250000J0D01*
G01*
X113725000Y-117225000D01*
G75*
G02*
X113475000Y-116975000I0J250000D01*
G01*
X113475000Y-116225000D01*
G75*
G02*
X113725000Y-115975000I250000J0D01*
G01*
G37*
G36*
G01*
X113725000Y-118775000D02*
X115875000Y-118775000D01*
G75*
G02*
X116125000Y-119025000I0J-250000D01*
G01*
X116125000Y-119775000D01*
G75*
G02*
X115875000Y-120025000I-250000J0D01*
G01*
X113725000Y-120025000D01*
G75*
G02*
X113475000Y-119775000I0J250000D01*
G01*
X113475000Y-119025000D01*
G75*
G02*
X113725000Y-118775000I250000J0D01*
G01*
G37*
G36*
G01*
X113425000Y-131775000D02*
X115575000Y-131775000D01*
G75*
G02*
X115825000Y-132025000I0J-250000D01*
G01*
X115825000Y-132775000D01*
G75*
G02*
X115575000Y-133025000I-250000J0D01*
G01*
X113425000Y-133025000D01*
G75*
G02*
X113175000Y-132775000I0J250000D01*
G01*
X113175000Y-132025000D01*
G75*
G02*
X113425000Y-131775000I250000J0D01*
G01*
G37*
G36*
G01*
X113425000Y-128975000D02*
X115575000Y-128975000D01*
G75*
G02*
X115825000Y-129225000I0J-250000D01*
G01*
X115825000Y-129975000D01*
G75*
G02*
X115575000Y-130225000I-250000J0D01*
G01*
X113425000Y-130225000D01*
G75*
G02*
X113175000Y-129975000I0J250000D01*
G01*
X113175000Y-129225000D01*
G75*
G02*
X113425000Y-128975000I250000J0D01*
G01*
G37*
G36*
G01*
X159425000Y-111043750D02*
X159425000Y-111556250D01*
G75*
G02*
X159206250Y-111775000I-218750J0D01*
G01*
X158768750Y-111775000D01*
G75*
G02*
X158550000Y-111556250I0J218750D01*
G01*
X158550000Y-111043750D01*
G75*
G02*
X158768750Y-110825000I218750J0D01*
G01*
X159206250Y-110825000D01*
G75*
G02*
X159425000Y-111043750I0J-218750D01*
G01*
G37*
G36*
G01*
X157850000Y-111043750D02*
X157850000Y-111556250D01*
G75*
G02*
X157631250Y-111775000I-218750J0D01*
G01*
X157193750Y-111775000D01*
G75*
G02*
X156975000Y-111556250I0J218750D01*
G01*
X156975000Y-111043750D01*
G75*
G02*
X157193750Y-110825000I218750J0D01*
G01*
X157631250Y-110825000D01*
G75*
G02*
X157850000Y-111043750I0J-218750D01*
G01*
G37*
G36*
G01*
X166650000Y-111043750D02*
X166650000Y-111556250D01*
G75*
G02*
X166431250Y-111775000I-218750J0D01*
G01*
X165993750Y-111775000D01*
G75*
G02*
X165775000Y-111556250I0J218750D01*
G01*
X165775000Y-111043750D01*
G75*
G02*
X165993750Y-110825000I218750J0D01*
G01*
X166431250Y-110825000D01*
G75*
G02*
X166650000Y-111043750I0J-218750D01*
G01*
G37*
G36*
G01*
X168225000Y-111043750D02*
X168225000Y-111556250D01*
G75*
G02*
X168006250Y-111775000I-218750J0D01*
G01*
X167568750Y-111775000D01*
G75*
G02*
X167350000Y-111556250I0J218750D01*
G01*
X167350000Y-111043750D01*
G75*
G02*
X167568750Y-110825000I218750J0D01*
G01*
X168006250Y-110825000D01*
G75*
G02*
X168225000Y-111043750I0J-218750D01*
G01*
G37*
G36*
G01*
X169375000Y-107775000D02*
X170625000Y-107775000D01*
G75*
G02*
X170875000Y-108025000I0J-250000D01*
G01*
X170875000Y-108775000D01*
G75*
G02*
X170625000Y-109025000I-250000J0D01*
G01*
X169375000Y-109025000D01*
G75*
G02*
X169125000Y-108775000I0J250000D01*
G01*
X169125000Y-108025000D01*
G75*
G02*
X169375000Y-107775000I250000J0D01*
G01*
G37*
G36*
G01*
X169375000Y-104975000D02*
X170625000Y-104975000D01*
G75*
G02*
X170875000Y-105225000I0J-250000D01*
G01*
X170875000Y-105975000D01*
G75*
G02*
X170625000Y-106225000I-250000J0D01*
G01*
X169375000Y-106225000D01*
G75*
G02*
X169125000Y-105975000I0J250000D01*
G01*
X169125000Y-105225000D01*
G75*
G02*
X169375000Y-104975000I250000J0D01*
G01*
G37*
G36*
G01*
X226656250Y-106150000D02*
X225743750Y-106150000D01*
G75*
G02*
X225500000Y-105906250I0J243750D01*
G01*
X225500000Y-105418750D01*
G75*
G02*
X225743750Y-105175000I243750J0D01*
G01*
X226656250Y-105175000D01*
G75*
G02*
X226900000Y-105418750I0J-243750D01*
G01*
X226900000Y-105906250D01*
G75*
G02*
X226656250Y-106150000I-243750J0D01*
G01*
G37*
G36*
G01*
X226656250Y-108025000D02*
X225743750Y-108025000D01*
G75*
G02*
X225500000Y-107781250I0J243750D01*
G01*
X225500000Y-107293750D01*
G75*
G02*
X225743750Y-107050000I243750J0D01*
G01*
X226656250Y-107050000D01*
G75*
G02*
X226900000Y-107293750I0J-243750D01*
G01*
X226900000Y-107781250D01*
G75*
G02*
X226656250Y-108025000I-243750J0D01*
G01*
G37*
G36*
G01*
X181125000Y-105225000D02*
X179875000Y-105225000D01*
G75*
G02*
X179625000Y-104975000I0J250000D01*
G01*
X179625000Y-104225000D01*
G75*
G02*
X179875000Y-103975000I250000J0D01*
G01*
X181125000Y-103975000D01*
G75*
G02*
X181375000Y-104225000I0J-250000D01*
G01*
X181375000Y-104975000D01*
G75*
G02*
X181125000Y-105225000I-250000J0D01*
G01*
G37*
G36*
G01*
X181125000Y-108025000D02*
X179875000Y-108025000D01*
G75*
G02*
X179625000Y-107775000I0J250000D01*
G01*
X179625000Y-107025000D01*
G75*
G02*
X179875000Y-106775000I250000J0D01*
G01*
X181125000Y-106775000D01*
G75*
G02*
X181375000Y-107025000I0J-250000D01*
G01*
X181375000Y-107775000D01*
G75*
G02*
X181125000Y-108025000I-250000J0D01*
G01*
G37*
G36*
G01*
X178150000Y-111443750D02*
X178150000Y-112356250D01*
G75*
G02*
X177906250Y-112600000I-243750J0D01*
G01*
X177418750Y-112600000D01*
G75*
G02*
X177175000Y-112356250I0J243750D01*
G01*
X177175000Y-111443750D01*
G75*
G02*
X177418750Y-111200000I243750J0D01*
G01*
X177906250Y-111200000D01*
G75*
G02*
X178150000Y-111443750I0J-243750D01*
G01*
G37*
G36*
G01*
X180025000Y-111443750D02*
X180025000Y-112356250D01*
G75*
G02*
X179781250Y-112600000I-243750J0D01*
G01*
X179293750Y-112600000D01*
G75*
G02*
X179050000Y-112356250I0J243750D01*
G01*
X179050000Y-111443750D01*
G75*
G02*
X179293750Y-111200000I243750J0D01*
G01*
X179781250Y-111200000D01*
G75*
G02*
X180025000Y-111443750I0J-243750D01*
G01*
G37*
G36*
G01*
X191425000Y-108025000D02*
X190175000Y-108025000D01*
G75*
G02*
X189925000Y-107775000I0J250000D01*
G01*
X189925000Y-107025000D01*
G75*
G02*
X190175000Y-106775000I250000J0D01*
G01*
X191425000Y-106775000D01*
G75*
G02*
X191675000Y-107025000I0J-250000D01*
G01*
X191675000Y-107775000D01*
G75*
G02*
X191425000Y-108025000I-250000J0D01*
G01*
G37*
G36*
G01*
X191425000Y-105225000D02*
X190175000Y-105225000D01*
G75*
G02*
X189925000Y-104975000I0J250000D01*
G01*
X189925000Y-104225000D01*
G75*
G02*
X190175000Y-103975000I250000J0D01*
G01*
X191425000Y-103975000D01*
G75*
G02*
X191675000Y-104225000I0J-250000D01*
G01*
X191675000Y-104975000D01*
G75*
G02*
X191425000Y-105225000I-250000J0D01*
G01*
G37*
G36*
G01*
X186825000Y-111443750D02*
X186825000Y-112356250D01*
G75*
G02*
X186581250Y-112600000I-243750J0D01*
G01*
X186093750Y-112600000D01*
G75*
G02*
X185850000Y-112356250I0J243750D01*
G01*
X185850000Y-111443750D01*
G75*
G02*
X186093750Y-111200000I243750J0D01*
G01*
X186581250Y-111200000D01*
G75*
G02*
X186825000Y-111443750I0J-243750D01*
G01*
G37*
G36*
G01*
X184950000Y-111443750D02*
X184950000Y-112356250D01*
G75*
G02*
X184706250Y-112600000I-243750J0D01*
G01*
X184218750Y-112600000D01*
G75*
G02*
X183975000Y-112356250I0J243750D01*
G01*
X183975000Y-111443750D01*
G75*
G02*
X184218750Y-111200000I243750J0D01*
G01*
X184706250Y-111200000D01*
G75*
G02*
X184950000Y-111443750I0J-243750D01*
G01*
G37*
G36*
G01*
X192275000Y-109756250D02*
X192275000Y-109243750D01*
G75*
G02*
X192493750Y-109025000I218750J0D01*
G01*
X192931250Y-109025000D01*
G75*
G02*
X193150000Y-109243750I0J-218750D01*
G01*
X193150000Y-109756250D01*
G75*
G02*
X192931250Y-109975000I-218750J0D01*
G01*
X192493750Y-109975000D01*
G75*
G02*
X192275000Y-109756250I0J218750D01*
G01*
G37*
G36*
G01*
X193850000Y-109756250D02*
X193850000Y-109243750D01*
G75*
G02*
X194068750Y-109025000I218750J0D01*
G01*
X194506250Y-109025000D01*
G75*
G02*
X194725000Y-109243750I0J-218750D01*
G01*
X194725000Y-109756250D01*
G75*
G02*
X194506250Y-109975000I-218750J0D01*
G01*
X194068750Y-109975000D01*
G75*
G02*
X193850000Y-109756250I0J218750D01*
G01*
G37*
G36*
G01*
X202250000Y-102843750D02*
X202250000Y-103356250D01*
G75*
G02*
X202031250Y-103575000I-218750J0D01*
G01*
X201593750Y-103575000D01*
G75*
G02*
X201375000Y-103356250I0J218750D01*
G01*
X201375000Y-102843750D01*
G75*
G02*
X201593750Y-102625000I218750J0D01*
G01*
X202031250Y-102625000D01*
G75*
G02*
X202250000Y-102843750I0J-218750D01*
G01*
G37*
G36*
G01*
X203825000Y-102843750D02*
X203825000Y-103356250D01*
G75*
G02*
X203606250Y-103575000I-218750J0D01*
G01*
X203168750Y-103575000D01*
G75*
G02*
X202950000Y-103356250I0J218750D01*
G01*
X202950000Y-102843750D01*
G75*
G02*
X203168750Y-102625000I218750J0D01*
G01*
X203606250Y-102625000D01*
G75*
G02*
X203825000Y-102843750I0J-218750D01*
G01*
G37*
G36*
G01*
X209625000Y-129275000D02*
X209625000Y-130525000D01*
G75*
G02*
X209375000Y-130775000I-250000J0D01*
G01*
X208625000Y-130775000D01*
G75*
G02*
X208375000Y-130525000I0J250000D01*
G01*
X208375000Y-129275000D01*
G75*
G02*
X208625000Y-129025000I250000J0D01*
G01*
X209375000Y-129025000D01*
G75*
G02*
X209625000Y-129275000I0J-250000D01*
G01*
G37*
G36*
G01*
X206825000Y-129275000D02*
X206825000Y-130525000D01*
G75*
G02*
X206575000Y-130775000I-250000J0D01*
G01*
X205825000Y-130775000D01*
G75*
G02*
X205575000Y-130525000I0J250000D01*
G01*
X205575000Y-129275000D01*
G75*
G02*
X205825000Y-129025000I250000J0D01*
G01*
X206575000Y-129025000D01*
G75*
G02*
X206825000Y-129275000I0J-250000D01*
G01*
G37*
G36*
G01*
X183056250Y-116525000D02*
X182143750Y-116525000D01*
G75*
G02*
X181900000Y-116281250I0J243750D01*
G01*
X181900000Y-115793750D01*
G75*
G02*
X182143750Y-115550000I243750J0D01*
G01*
X183056250Y-115550000D01*
G75*
G02*
X183300000Y-115793750I0J-243750D01*
G01*
X183300000Y-116281250D01*
G75*
G02*
X183056250Y-116525000I-243750J0D01*
G01*
G37*
G36*
G01*
X183056250Y-114650000D02*
X182143750Y-114650000D01*
G75*
G02*
X181900000Y-114406250I0J243750D01*
G01*
X181900000Y-113918750D01*
G75*
G02*
X182143750Y-113675000I243750J0D01*
G01*
X183056250Y-113675000D01*
G75*
G02*
X183300000Y-113918750I0J-243750D01*
G01*
X183300000Y-114406250D01*
G75*
G02*
X183056250Y-114650000I-243750J0D01*
G01*
G37*
G36*
G01*
X206225000Y-64243750D02*
X206225000Y-64756250D01*
G75*
G02*
X206006250Y-64975000I-218750J0D01*
G01*
X205568750Y-64975000D01*
G75*
G02*
X205350000Y-64756250I0J218750D01*
G01*
X205350000Y-64243750D01*
G75*
G02*
X205568750Y-64025000I218750J0D01*
G01*
X206006250Y-64025000D01*
G75*
G02*
X206225000Y-64243750I0J-218750D01*
G01*
G37*
G36*
G01*
X204650000Y-64243750D02*
X204650000Y-64756250D01*
G75*
G02*
X204431250Y-64975000I-218750J0D01*
G01*
X203993750Y-64975000D01*
G75*
G02*
X203775000Y-64756250I0J218750D01*
G01*
X203775000Y-64243750D01*
G75*
G02*
X203993750Y-64025000I218750J0D01*
G01*
X204431250Y-64025000D01*
G75*
G02*
X204650000Y-64243750I0J-218750D01*
G01*
G37*
G36*
G01*
X215450000Y-68243750D02*
X215450000Y-68756250D01*
G75*
G02*
X215231250Y-68975000I-218750J0D01*
G01*
X214793750Y-68975000D01*
G75*
G02*
X214575000Y-68756250I0J218750D01*
G01*
X214575000Y-68243750D01*
G75*
G02*
X214793750Y-68025000I218750J0D01*
G01*
X215231250Y-68025000D01*
G75*
G02*
X215450000Y-68243750I0J-218750D01*
G01*
G37*
G36*
G01*
X217025000Y-68243750D02*
X217025000Y-68756250D01*
G75*
G02*
X216806250Y-68975000I-218750J0D01*
G01*
X216368750Y-68975000D01*
G75*
G02*
X216150000Y-68756250I0J218750D01*
G01*
X216150000Y-68243750D01*
G75*
G02*
X216368750Y-68025000I218750J0D01*
G01*
X216806250Y-68025000D01*
G75*
G02*
X217025000Y-68243750I0J-218750D01*
G01*
G37*
G36*
G01*
X223143750Y-61675000D02*
X223656250Y-61675000D01*
G75*
G02*
X223875000Y-61893750I0J-218750D01*
G01*
X223875000Y-62331250D01*
G75*
G02*
X223656250Y-62550000I-218750J0D01*
G01*
X223143750Y-62550000D01*
G75*
G02*
X222925000Y-62331250I0J218750D01*
G01*
X222925000Y-61893750D01*
G75*
G02*
X223143750Y-61675000I218750J0D01*
G01*
G37*
G36*
G01*
X223143750Y-63250000D02*
X223656250Y-63250000D01*
G75*
G02*
X223875000Y-63468750I0J-218750D01*
G01*
X223875000Y-63906250D01*
G75*
G02*
X223656250Y-64125000I-218750J0D01*
G01*
X223143750Y-64125000D01*
G75*
G02*
X222925000Y-63906250I0J218750D01*
G01*
X222925000Y-63468750D01*
G75*
G02*
X223143750Y-63250000I218750J0D01*
G01*
G37*
G36*
G01*
X221443750Y-103550000D02*
X221956250Y-103550000D01*
G75*
G02*
X222175000Y-103768750I0J-218750D01*
G01*
X222175000Y-104206250D01*
G75*
G02*
X221956250Y-104425000I-218750J0D01*
G01*
X221443750Y-104425000D01*
G75*
G02*
X221225000Y-104206250I0J218750D01*
G01*
X221225000Y-103768750D01*
G75*
G02*
X221443750Y-103550000I218750J0D01*
G01*
G37*
G36*
G01*
X221443750Y-101975000D02*
X221956250Y-101975000D01*
G75*
G02*
X222175000Y-102193750I0J-218750D01*
G01*
X222175000Y-102631250D01*
G75*
G02*
X221956250Y-102850000I-218750J0D01*
G01*
X221443750Y-102850000D01*
G75*
G02*
X221225000Y-102631250I0J218750D01*
G01*
X221225000Y-102193750D01*
G75*
G02*
X221443750Y-101975000I218750J0D01*
G01*
G37*
G36*
G01*
X218156250Y-114125000D02*
X217643750Y-114125000D01*
G75*
G02*
X217425000Y-113906250I0J218750D01*
G01*
X217425000Y-113468750D01*
G75*
G02*
X217643750Y-113250000I218750J0D01*
G01*
X218156250Y-113250000D01*
G75*
G02*
X218375000Y-113468750I0J-218750D01*
G01*
X218375000Y-113906250D01*
G75*
G02*
X218156250Y-114125000I-218750J0D01*
G01*
G37*
G36*
G01*
X218156250Y-112550000D02*
X217643750Y-112550000D01*
G75*
G02*
X217425000Y-112331250I0J218750D01*
G01*
X217425000Y-111893750D01*
G75*
G02*
X217643750Y-111675000I218750J0D01*
G01*
X218156250Y-111675000D01*
G75*
G02*
X218375000Y-111893750I0J-218750D01*
G01*
X218375000Y-112331250D01*
G75*
G02*
X218156250Y-112550000I-218750J0D01*
G01*
G37*
G36*
G01*
X182156250Y-123925000D02*
X181643750Y-123925000D01*
G75*
G02*
X181425000Y-123706250I0J218750D01*
G01*
X181425000Y-123268750D01*
G75*
G02*
X181643750Y-123050000I218750J0D01*
G01*
X182156250Y-123050000D01*
G75*
G02*
X182375000Y-123268750I0J-218750D01*
G01*
X182375000Y-123706250D01*
G75*
G02*
X182156250Y-123925000I-218750J0D01*
G01*
G37*
G36*
G01*
X182156250Y-122350000D02*
X181643750Y-122350000D01*
G75*
G02*
X181425000Y-122131250I0J218750D01*
G01*
X181425000Y-121693750D01*
G75*
G02*
X181643750Y-121475000I218750J0D01*
G01*
X182156250Y-121475000D01*
G75*
G02*
X182375000Y-121693750I0J-218750D01*
G01*
X182375000Y-122131250D01*
G75*
G02*
X182156250Y-122350000I-218750J0D01*
G01*
G37*
G36*
G01*
X178975000Y-136556250D02*
X178975000Y-136043750D01*
G75*
G02*
X179193750Y-135825000I218750J0D01*
G01*
X179631250Y-135825000D01*
G75*
G02*
X179850000Y-136043750I0J-218750D01*
G01*
X179850000Y-136556250D01*
G75*
G02*
X179631250Y-136775000I-218750J0D01*
G01*
X179193750Y-136775000D01*
G75*
G02*
X178975000Y-136556250I0J218750D01*
G01*
G37*
G36*
G01*
X180550000Y-136556250D02*
X180550000Y-136043750D01*
G75*
G02*
X180768750Y-135825000I218750J0D01*
G01*
X181206250Y-135825000D01*
G75*
G02*
X181425000Y-136043750I0J-218750D01*
G01*
X181425000Y-136556250D01*
G75*
G02*
X181206250Y-136775000I-218750J0D01*
G01*
X180768750Y-136775000D01*
G75*
G02*
X180550000Y-136556250I0J218750D01*
G01*
G37*
G36*
G01*
X175650000Y-136556250D02*
X175650000Y-136043750D01*
G75*
G02*
X175868750Y-135825000I218750J0D01*
G01*
X176306250Y-135825000D01*
G75*
G02*
X176525000Y-136043750I0J-218750D01*
G01*
X176525000Y-136556250D01*
G75*
G02*
X176306250Y-136775000I-218750J0D01*
G01*
X175868750Y-136775000D01*
G75*
G02*
X175650000Y-136556250I0J218750D01*
G01*
G37*
G36*
G01*
X174075000Y-136556250D02*
X174075000Y-136043750D01*
G75*
G02*
X174293750Y-135825000I218750J0D01*
G01*
X174731250Y-135825000D01*
G75*
G02*
X174950000Y-136043750I0J-218750D01*
G01*
X174950000Y-136556250D01*
G75*
G02*
X174731250Y-136775000I-218750J0D01*
G01*
X174293750Y-136775000D01*
G75*
G02*
X174075000Y-136556250I0J218750D01*
G01*
G37*
G36*
G01*
X153875000Y-136556250D02*
X153875000Y-136043750D01*
G75*
G02*
X154093750Y-135825000I218750J0D01*
G01*
X154531250Y-135825000D01*
G75*
G02*
X154750000Y-136043750I0J-218750D01*
G01*
X154750000Y-136556250D01*
G75*
G02*
X154531250Y-136775000I-218750J0D01*
G01*
X154093750Y-136775000D01*
G75*
G02*
X153875000Y-136556250I0J218750D01*
G01*
G37*
G36*
G01*
X155450000Y-136556250D02*
X155450000Y-136043750D01*
G75*
G02*
X155668750Y-135825000I218750J0D01*
G01*
X156106250Y-135825000D01*
G75*
G02*
X156325000Y-136043750I0J-218750D01*
G01*
X156325000Y-136556250D01*
G75*
G02*
X156106250Y-136775000I-218750J0D01*
G01*
X155668750Y-136775000D01*
G75*
G02*
X155450000Y-136556250I0J218750D01*
G01*
G37*
G36*
G01*
X135450000Y-136556250D02*
X135450000Y-136043750D01*
G75*
G02*
X135668750Y-135825000I218750J0D01*
G01*
X136106250Y-135825000D01*
G75*
G02*
X136325000Y-136043750I0J-218750D01*
G01*
X136325000Y-136556250D01*
G75*
G02*
X136106250Y-136775000I-218750J0D01*
G01*
X135668750Y-136775000D01*
G75*
G02*
X135450000Y-136556250I0J218750D01*
G01*
G37*
G36*
G01*
X133875000Y-136556250D02*
X133875000Y-136043750D01*
G75*
G02*
X134093750Y-135825000I218750J0D01*
G01*
X134531250Y-135825000D01*
G75*
G02*
X134750000Y-136043750I0J-218750D01*
G01*
X134750000Y-136556250D01*
G75*
G02*
X134531250Y-136775000I-218750J0D01*
G01*
X134093750Y-136775000D01*
G75*
G02*
X133875000Y-136556250I0J218750D01*
G01*
G37*
G36*
G01*
X123350000Y-72756250D02*
X123350000Y-72243750D01*
G75*
G02*
X123568750Y-72025000I218750J0D01*
G01*
X124006250Y-72025000D01*
G75*
G02*
X124225000Y-72243750I0J-218750D01*
G01*
X124225000Y-72756250D01*
G75*
G02*
X124006250Y-72975000I-218750J0D01*
G01*
X123568750Y-72975000D01*
G75*
G02*
X123350000Y-72756250I0J218750D01*
G01*
G37*
G36*
G01*
X121775000Y-72756250D02*
X121775000Y-72243750D01*
G75*
G02*
X121993750Y-72025000I218750J0D01*
G01*
X122431250Y-72025000D01*
G75*
G02*
X122650000Y-72243750I0J-218750D01*
G01*
X122650000Y-72756250D01*
G75*
G02*
X122431250Y-72975000I-218750J0D01*
G01*
X121993750Y-72975000D01*
G75*
G02*
X121775000Y-72756250I0J218750D01*
G01*
G37*
G36*
G01*
X123350000Y-69256250D02*
X123350000Y-68743750D01*
G75*
G02*
X123568750Y-68525000I218750J0D01*
G01*
X124006250Y-68525000D01*
G75*
G02*
X124225000Y-68743750I0J-218750D01*
G01*
X124225000Y-69256250D01*
G75*
G02*
X124006250Y-69475000I-218750J0D01*
G01*
X123568750Y-69475000D01*
G75*
G02*
X123350000Y-69256250I0J218750D01*
G01*
G37*
G36*
G01*
X121775000Y-69256250D02*
X121775000Y-68743750D01*
G75*
G02*
X121993750Y-68525000I218750J0D01*
G01*
X122431250Y-68525000D01*
G75*
G02*
X122650000Y-68743750I0J-218750D01*
G01*
X122650000Y-69256250D01*
G75*
G02*
X122431250Y-69475000I-218750J0D01*
G01*
X121993750Y-69475000D01*
G75*
G02*
X121775000Y-69256250I0J218750D01*
G01*
G37*
G36*
G01*
X224925000Y-133043750D02*
X224925000Y-133956250D01*
G75*
G02*
X224681250Y-134200000I-243750J0D01*
G01*
X224193750Y-134200000D01*
G75*
G02*
X223950000Y-133956250I0J243750D01*
G01*
X223950000Y-133043750D01*
G75*
G02*
X224193750Y-132800000I243750J0D01*
G01*
X224681250Y-132800000D01*
G75*
G02*
X224925000Y-133043750I0J-243750D01*
G01*
G37*
G36*
G01*
X223050000Y-133043750D02*
X223050000Y-133956250D01*
G75*
G02*
X222806250Y-134200000I-243750J0D01*
G01*
X222318750Y-134200000D01*
G75*
G02*
X222075000Y-133956250I0J243750D01*
G01*
X222075000Y-133043750D01*
G75*
G02*
X222318750Y-132800000I243750J0D01*
G01*
X222806250Y-132800000D01*
G75*
G02*
X223050000Y-133043750I0J-243750D01*
G01*
G37*
D11*
X220200000Y-122350000D03*
X220200000Y-120450000D03*
X218200000Y-121400000D03*
G36*
G01*
X110243750Y-121275000D02*
X110756250Y-121275000D01*
G75*
G02*
X110975000Y-121493750I0J-218750D01*
G01*
X110975000Y-121931250D01*
G75*
G02*
X110756250Y-122150000I-218750J0D01*
G01*
X110243750Y-122150000D01*
G75*
G02*
X110025000Y-121931250I0J218750D01*
G01*
X110025000Y-121493750D01*
G75*
G02*
X110243750Y-121275000I218750J0D01*
G01*
G37*
G36*
G01*
X110243750Y-122850000D02*
X110756250Y-122850000D01*
G75*
G02*
X110975000Y-123068750I0J-218750D01*
G01*
X110975000Y-123506250D01*
G75*
G02*
X110756250Y-123725000I-218750J0D01*
G01*
X110243750Y-123725000D01*
G75*
G02*
X110025000Y-123506250I0J218750D01*
G01*
X110025000Y-123068750D01*
G75*
G02*
X110243750Y-122850000I218750J0D01*
G01*
G37*
G36*
G01*
X110243750Y-135850000D02*
X110756250Y-135850000D01*
G75*
G02*
X110975000Y-136068750I0J-218750D01*
G01*
X110975000Y-136506250D01*
G75*
G02*
X110756250Y-136725000I-218750J0D01*
G01*
X110243750Y-136725000D01*
G75*
G02*
X110025000Y-136506250I0J218750D01*
G01*
X110025000Y-136068750D01*
G75*
G02*
X110243750Y-135850000I218750J0D01*
G01*
G37*
G36*
G01*
X110243750Y-134275000D02*
X110756250Y-134275000D01*
G75*
G02*
X110975000Y-134493750I0J-218750D01*
G01*
X110975000Y-134931250D01*
G75*
G02*
X110756250Y-135150000I-218750J0D01*
G01*
X110243750Y-135150000D01*
G75*
G02*
X110025000Y-134931250I0J218750D01*
G01*
X110025000Y-134493750D01*
G75*
G02*
X110243750Y-134275000I218750J0D01*
G01*
G37*
G36*
G01*
X161325000Y-110675000D02*
X163475000Y-110675000D01*
G75*
G02*
X163725000Y-110925000I0J-250000D01*
G01*
X163725000Y-111675000D01*
G75*
G02*
X163475000Y-111925000I-250000J0D01*
G01*
X161325000Y-111925000D01*
G75*
G02*
X161075000Y-111675000I0J250000D01*
G01*
X161075000Y-110925000D01*
G75*
G02*
X161325000Y-110675000I250000J0D01*
G01*
G37*
G36*
G01*
X161325000Y-113475000D02*
X163475000Y-113475000D01*
G75*
G02*
X163725000Y-113725000I0J-250000D01*
G01*
X163725000Y-114475000D01*
G75*
G02*
X163475000Y-114725000I-250000J0D01*
G01*
X161325000Y-114725000D01*
G75*
G02*
X161075000Y-114475000I0J250000D01*
G01*
X161075000Y-113725000D01*
G75*
G02*
X161325000Y-113475000I250000J0D01*
G01*
G37*
G36*
G01*
X221443750Y-115875000D02*
X221956250Y-115875000D01*
G75*
G02*
X222175000Y-116093750I0J-218750D01*
G01*
X222175000Y-116531250D01*
G75*
G02*
X221956250Y-116750000I-218750J0D01*
G01*
X221443750Y-116750000D01*
G75*
G02*
X221225000Y-116531250I0J218750D01*
G01*
X221225000Y-116093750D01*
G75*
G02*
X221443750Y-115875000I218750J0D01*
G01*
G37*
G36*
G01*
X221443750Y-117450000D02*
X221956250Y-117450000D01*
G75*
G02*
X222175000Y-117668750I0J-218750D01*
G01*
X222175000Y-118106250D01*
G75*
G02*
X221956250Y-118325000I-218750J0D01*
G01*
X221443750Y-118325000D01*
G75*
G02*
X221225000Y-118106250I0J218750D01*
G01*
X221225000Y-117668750D01*
G75*
G02*
X221443750Y-117450000I218750J0D01*
G01*
G37*
G36*
G01*
X235056250Y-105825000D02*
X234543750Y-105825000D01*
G75*
G02*
X234325000Y-105606250I0J218750D01*
G01*
X234325000Y-105168750D01*
G75*
G02*
X234543750Y-104950000I218750J0D01*
G01*
X235056250Y-104950000D01*
G75*
G02*
X235275000Y-105168750I0J-218750D01*
G01*
X235275000Y-105606250D01*
G75*
G02*
X235056250Y-105825000I-218750J0D01*
G01*
G37*
G36*
G01*
X235056250Y-104250000D02*
X234543750Y-104250000D01*
G75*
G02*
X234325000Y-104031250I0J218750D01*
G01*
X234325000Y-103593750D01*
G75*
G02*
X234543750Y-103375000I218750J0D01*
G01*
X235056250Y-103375000D01*
G75*
G02*
X235275000Y-103593750I0J-218750D01*
G01*
X235275000Y-104031250D01*
G75*
G02*
X235056250Y-104250000I-218750J0D01*
G01*
G37*
G36*
G01*
X223743750Y-111975000D02*
X224256250Y-111975000D01*
G75*
G02*
X224475000Y-112193750I0J-218750D01*
G01*
X224475000Y-112631250D01*
G75*
G02*
X224256250Y-112850000I-218750J0D01*
G01*
X223743750Y-112850000D01*
G75*
G02*
X223525000Y-112631250I0J218750D01*
G01*
X223525000Y-112193750D01*
G75*
G02*
X223743750Y-111975000I218750J0D01*
G01*
G37*
G36*
G01*
X223743750Y-113550000D02*
X224256250Y-113550000D01*
G75*
G02*
X224475000Y-113768750I0J-218750D01*
G01*
X224475000Y-114206250D01*
G75*
G02*
X224256250Y-114425000I-218750J0D01*
G01*
X223743750Y-114425000D01*
G75*
G02*
X223525000Y-114206250I0J218750D01*
G01*
X223525000Y-113768750D01*
G75*
G02*
X223743750Y-113550000I218750J0D01*
G01*
G37*
G36*
G01*
X184856250Y-106350000D02*
X184343750Y-106350000D01*
G75*
G02*
X184125000Y-106131250I0J218750D01*
G01*
X184125000Y-105693750D01*
G75*
G02*
X184343750Y-105475000I218750J0D01*
G01*
X184856250Y-105475000D01*
G75*
G02*
X185075000Y-105693750I0J-218750D01*
G01*
X185075000Y-106131250D01*
G75*
G02*
X184856250Y-106350000I-218750J0D01*
G01*
G37*
G36*
G01*
X184856250Y-107925000D02*
X184343750Y-107925000D01*
G75*
G02*
X184125000Y-107706250I0J218750D01*
G01*
X184125000Y-107268750D01*
G75*
G02*
X184343750Y-107050000I218750J0D01*
G01*
X184856250Y-107050000D01*
G75*
G02*
X185075000Y-107268750I0J-218750D01*
G01*
X185075000Y-107706250D01*
G75*
G02*
X184856250Y-107925000I-218750J0D01*
G01*
G37*
G36*
G01*
X188925000Y-107243750D02*
X188925000Y-107756250D01*
G75*
G02*
X188706250Y-107975000I-218750J0D01*
G01*
X188268750Y-107975000D01*
G75*
G02*
X188050000Y-107756250I0J218750D01*
G01*
X188050000Y-107243750D01*
G75*
G02*
X188268750Y-107025000I218750J0D01*
G01*
X188706250Y-107025000D01*
G75*
G02*
X188925000Y-107243750I0J-218750D01*
G01*
G37*
G36*
G01*
X187350000Y-107243750D02*
X187350000Y-107756250D01*
G75*
G02*
X187131250Y-107975000I-218750J0D01*
G01*
X186693750Y-107975000D01*
G75*
G02*
X186475000Y-107756250I0J218750D01*
G01*
X186475000Y-107243750D01*
G75*
G02*
X186693750Y-107025000I218750J0D01*
G01*
X187131250Y-107025000D01*
G75*
G02*
X187350000Y-107243750I0J-218750D01*
G01*
G37*
G36*
G01*
X206825000Y-109343750D02*
X206825000Y-109856250D01*
G75*
G02*
X206606250Y-110075000I-218750J0D01*
G01*
X206168750Y-110075000D01*
G75*
G02*
X205950000Y-109856250I0J218750D01*
G01*
X205950000Y-109343750D01*
G75*
G02*
X206168750Y-109125000I218750J0D01*
G01*
X206606250Y-109125000D01*
G75*
G02*
X206825000Y-109343750I0J-218750D01*
G01*
G37*
G36*
G01*
X205250000Y-109343750D02*
X205250000Y-109856250D01*
G75*
G02*
X205031250Y-110075000I-218750J0D01*
G01*
X204593750Y-110075000D01*
G75*
G02*
X204375000Y-109856250I0J218750D01*
G01*
X204375000Y-109343750D01*
G75*
G02*
X204593750Y-109125000I218750J0D01*
G01*
X205031250Y-109125000D01*
G75*
G02*
X205250000Y-109343750I0J-218750D01*
G01*
G37*
G36*
G01*
X182856250Y-110850000D02*
X182343750Y-110850000D01*
G75*
G02*
X182125000Y-110631250I0J218750D01*
G01*
X182125000Y-110193750D01*
G75*
G02*
X182343750Y-109975000I218750J0D01*
G01*
X182856250Y-109975000D01*
G75*
G02*
X183075000Y-110193750I0J-218750D01*
G01*
X183075000Y-110631250D01*
G75*
G02*
X182856250Y-110850000I-218750J0D01*
G01*
G37*
G36*
G01*
X182856250Y-112425000D02*
X182343750Y-112425000D01*
G75*
G02*
X182125000Y-112206250I0J218750D01*
G01*
X182125000Y-111768750D01*
G75*
G02*
X182343750Y-111550000I218750J0D01*
G01*
X182856250Y-111550000D01*
G75*
G02*
X183075000Y-111768750I0J-218750D01*
G01*
X183075000Y-112206250D01*
G75*
G02*
X182856250Y-112425000I-218750J0D01*
G01*
G37*
G36*
G01*
X198750000Y-101856250D02*
X198750000Y-101343750D01*
G75*
G02*
X198968750Y-101125000I218750J0D01*
G01*
X199406250Y-101125000D01*
G75*
G02*
X199625000Y-101343750I0J-218750D01*
G01*
X199625000Y-101856250D01*
G75*
G02*
X199406250Y-102075000I-218750J0D01*
G01*
X198968750Y-102075000D01*
G75*
G02*
X198750000Y-101856250I0J218750D01*
G01*
G37*
G36*
G01*
X197175000Y-101856250D02*
X197175000Y-101343750D01*
G75*
G02*
X197393750Y-101125000I218750J0D01*
G01*
X197831250Y-101125000D01*
G75*
G02*
X198050000Y-101343750I0J-218750D01*
G01*
X198050000Y-101856250D01*
G75*
G02*
X197831250Y-102075000I-218750J0D01*
G01*
X197393750Y-102075000D01*
G75*
G02*
X197175000Y-101856250I0J218750D01*
G01*
G37*
G36*
G01*
X206643750Y-105475000D02*
X207156250Y-105475000D01*
G75*
G02*
X207375000Y-105693750I0J-218750D01*
G01*
X207375000Y-106131250D01*
G75*
G02*
X207156250Y-106350000I-218750J0D01*
G01*
X206643750Y-106350000D01*
G75*
G02*
X206425000Y-106131250I0J218750D01*
G01*
X206425000Y-105693750D01*
G75*
G02*
X206643750Y-105475000I218750J0D01*
G01*
G37*
G36*
G01*
X206643750Y-107050000D02*
X207156250Y-107050000D01*
G75*
G02*
X207375000Y-107268750I0J-218750D01*
G01*
X207375000Y-107706250D01*
G75*
G02*
X207156250Y-107925000I-218750J0D01*
G01*
X206643750Y-107925000D01*
G75*
G02*
X206425000Y-107706250I0J218750D01*
G01*
X206425000Y-107268750D01*
G75*
G02*
X206643750Y-107050000I218750J0D01*
G01*
G37*
G36*
G01*
X203643750Y-107050000D02*
X204156250Y-107050000D01*
G75*
G02*
X204375000Y-107268750I0J-218750D01*
G01*
X204375000Y-107706250D01*
G75*
G02*
X204156250Y-107925000I-218750J0D01*
G01*
X203643750Y-107925000D01*
G75*
G02*
X203425000Y-107706250I0J218750D01*
G01*
X203425000Y-107268750D01*
G75*
G02*
X203643750Y-107050000I218750J0D01*
G01*
G37*
G36*
G01*
X203643750Y-105475000D02*
X204156250Y-105475000D01*
G75*
G02*
X204375000Y-105693750I0J-218750D01*
G01*
X204375000Y-106131250D01*
G75*
G02*
X204156250Y-106350000I-218750J0D01*
G01*
X203643750Y-106350000D01*
G75*
G02*
X203425000Y-106131250I0J218750D01*
G01*
X203425000Y-105693750D01*
G75*
G02*
X203643750Y-105475000I218750J0D01*
G01*
G37*
G36*
G01*
X220750000Y-113043750D02*
X220750000Y-113556250D01*
G75*
G02*
X220531250Y-113775000I-218750J0D01*
G01*
X220093750Y-113775000D01*
G75*
G02*
X219875000Y-113556250I0J218750D01*
G01*
X219875000Y-113043750D01*
G75*
G02*
X220093750Y-112825000I218750J0D01*
G01*
X220531250Y-112825000D01*
G75*
G02*
X220750000Y-113043750I0J-218750D01*
G01*
G37*
G36*
G01*
X222325000Y-113043750D02*
X222325000Y-113556250D01*
G75*
G02*
X222106250Y-113775000I-218750J0D01*
G01*
X221668750Y-113775000D01*
G75*
G02*
X221450000Y-113556250I0J218750D01*
G01*
X221450000Y-113043750D01*
G75*
G02*
X221668750Y-112825000I218750J0D01*
G01*
X222106250Y-112825000D01*
G75*
G02*
X222325000Y-113043750I0J-218750D01*
G01*
G37*
G36*
G01*
X179850000Y-117843750D02*
X179850000Y-118356250D01*
G75*
G02*
X179631250Y-118575000I-218750J0D01*
G01*
X179193750Y-118575000D01*
G75*
G02*
X178975000Y-118356250I0J218750D01*
G01*
X178975000Y-117843750D01*
G75*
G02*
X179193750Y-117625000I218750J0D01*
G01*
X179631250Y-117625000D01*
G75*
G02*
X179850000Y-117843750I0J-218750D01*
G01*
G37*
G36*
G01*
X181425000Y-117843750D02*
X181425000Y-118356250D01*
G75*
G02*
X181206250Y-118575000I-218750J0D01*
G01*
X180768750Y-118575000D01*
G75*
G02*
X180550000Y-118356250I0J218750D01*
G01*
X180550000Y-117843750D01*
G75*
G02*
X180768750Y-117625000I218750J0D01*
G01*
X181206250Y-117625000D01*
G75*
G02*
X181425000Y-117843750I0J-218750D01*
G01*
G37*
G36*
G01*
X227375000Y-132425000D02*
X227375000Y-134575000D01*
G75*
G02*
X227125000Y-134825000I-250000J0D01*
G01*
X226375000Y-134825000D01*
G75*
G02*
X226125000Y-134575000I0J250000D01*
G01*
X226125000Y-132425000D01*
G75*
G02*
X226375000Y-132175000I250000J0D01*
G01*
X227125000Y-132175000D01*
G75*
G02*
X227375000Y-132425000I0J-250000D01*
G01*
G37*
G36*
G01*
X230175000Y-132425000D02*
X230175000Y-134575000D01*
G75*
G02*
X229925000Y-134825000I-250000J0D01*
G01*
X229175000Y-134825000D01*
G75*
G02*
X228925000Y-134575000I0J250000D01*
G01*
X228925000Y-132425000D01*
G75*
G02*
X229175000Y-132175000I250000J0D01*
G01*
X229925000Y-132175000D01*
G75*
G02*
X230175000Y-132425000I0J-250000D01*
G01*
G37*
G36*
G01*
X210575000Y-65525000D02*
X208425000Y-65525000D01*
G75*
G02*
X208175000Y-65275000I0J250000D01*
G01*
X208175000Y-64525000D01*
G75*
G02*
X208425000Y-64275000I250000J0D01*
G01*
X210575000Y-64275000D01*
G75*
G02*
X210825000Y-64525000I0J-250000D01*
G01*
X210825000Y-65275000D01*
G75*
G02*
X210575000Y-65525000I-250000J0D01*
G01*
G37*
G36*
G01*
X210575000Y-62725000D02*
X208425000Y-62725000D01*
G75*
G02*
X208175000Y-62475000I0J250000D01*
G01*
X208175000Y-61725000D01*
G75*
G02*
X208425000Y-61475000I250000J0D01*
G01*
X210575000Y-61475000D01*
G75*
G02*
X210825000Y-61725000I0J-250000D01*
G01*
X210825000Y-62475000D01*
G75*
G02*
X210575000Y-62725000I-250000J0D01*
G01*
G37*
G36*
G01*
X211775000Y-59956250D02*
X211775000Y-59443750D01*
G75*
G02*
X211993750Y-59225000I218750J0D01*
G01*
X212431250Y-59225000D01*
G75*
G02*
X212650000Y-59443750I0J-218750D01*
G01*
X212650000Y-59956250D01*
G75*
G02*
X212431250Y-60175000I-218750J0D01*
G01*
X211993750Y-60175000D01*
G75*
G02*
X211775000Y-59956250I0J218750D01*
G01*
G37*
G36*
G01*
X213350000Y-59956250D02*
X213350000Y-59443750D01*
G75*
G02*
X213568750Y-59225000I218750J0D01*
G01*
X214006250Y-59225000D01*
G75*
G02*
X214225000Y-59443750I0J-218750D01*
G01*
X214225000Y-59956250D01*
G75*
G02*
X214006250Y-60175000I-218750J0D01*
G01*
X213568750Y-60175000D01*
G75*
G02*
X213350000Y-59956250I0J218750D01*
G01*
G37*
G36*
G01*
X212543750Y-62375000D02*
X213056250Y-62375000D01*
G75*
G02*
X213275000Y-62593750I0J-218750D01*
G01*
X213275000Y-63031250D01*
G75*
G02*
X213056250Y-63250000I-218750J0D01*
G01*
X212543750Y-63250000D01*
G75*
G02*
X212325000Y-63031250I0J218750D01*
G01*
X212325000Y-62593750D01*
G75*
G02*
X212543750Y-62375000I218750J0D01*
G01*
G37*
G36*
G01*
X212543750Y-63950000D02*
X213056250Y-63950000D01*
G75*
G02*
X213275000Y-64168750I0J-218750D01*
G01*
X213275000Y-64606250D01*
G75*
G02*
X213056250Y-64825000I-218750J0D01*
G01*
X212543750Y-64825000D01*
G75*
G02*
X212325000Y-64606250I0J218750D01*
G01*
X212325000Y-64168750D01*
G75*
G02*
X212543750Y-63950000I218750J0D01*
G01*
G37*
G36*
G01*
X230025000Y-63425000D02*
X230025000Y-65575000D01*
G75*
G02*
X229775000Y-65825000I-250000J0D01*
G01*
X229025000Y-65825000D01*
G75*
G02*
X228775000Y-65575000I0J250000D01*
G01*
X228775000Y-63425000D01*
G75*
G02*
X229025000Y-63175000I250000J0D01*
G01*
X229775000Y-63175000D01*
G75*
G02*
X230025000Y-63425000I0J-250000D01*
G01*
G37*
G36*
G01*
X227225000Y-63425000D02*
X227225000Y-65575000D01*
G75*
G02*
X226975000Y-65825000I-250000J0D01*
G01*
X226225000Y-65825000D01*
G75*
G02*
X225975000Y-65575000I0J250000D01*
G01*
X225975000Y-63425000D01*
G75*
G02*
X226225000Y-63175000I250000J0D01*
G01*
X226975000Y-63175000D01*
G75*
G02*
X227225000Y-63425000I0J-250000D01*
G01*
G37*
G36*
G01*
X194650000Y-101756250D02*
X194650000Y-101243750D01*
G75*
G02*
X194868750Y-101025000I218750J0D01*
G01*
X195306250Y-101025000D01*
G75*
G02*
X195525000Y-101243750I0J-218750D01*
G01*
X195525000Y-101756250D01*
G75*
G02*
X195306250Y-101975000I-218750J0D01*
G01*
X194868750Y-101975000D01*
G75*
G02*
X194650000Y-101756250I0J218750D01*
G01*
G37*
G36*
G01*
X193075000Y-101756250D02*
X193075000Y-101243750D01*
G75*
G02*
X193293750Y-101025000I218750J0D01*
G01*
X193731250Y-101025000D01*
G75*
G02*
X193950000Y-101243750I0J-218750D01*
G01*
X193950000Y-101756250D01*
G75*
G02*
X193731250Y-101975000I-218750J0D01*
G01*
X193293750Y-101975000D01*
G75*
G02*
X193075000Y-101756250I0J218750D01*
G01*
G37*
G36*
G01*
X194156250Y-106725000D02*
X193643750Y-106725000D01*
G75*
G02*
X193425000Y-106506250I0J218750D01*
G01*
X193425000Y-106068750D01*
G75*
G02*
X193643750Y-105850000I218750J0D01*
G01*
X194156250Y-105850000D01*
G75*
G02*
X194375000Y-106068750I0J-218750D01*
G01*
X194375000Y-106506250D01*
G75*
G02*
X194156250Y-106725000I-218750J0D01*
G01*
G37*
G36*
G01*
X194156250Y-105150000D02*
X193643750Y-105150000D01*
G75*
G02*
X193425000Y-104931250I0J218750D01*
G01*
X193425000Y-104493750D01*
G75*
G02*
X193643750Y-104275000I218750J0D01*
G01*
X194156250Y-104275000D01*
G75*
G02*
X194375000Y-104493750I0J-218750D01*
G01*
X194375000Y-104931250D01*
G75*
G02*
X194156250Y-105150000I-218750J0D01*
G01*
G37*
G36*
G01*
X206650000Y-102843750D02*
X206650000Y-103356250D01*
G75*
G02*
X206431250Y-103575000I-218750J0D01*
G01*
X205993750Y-103575000D01*
G75*
G02*
X205775000Y-103356250I0J218750D01*
G01*
X205775000Y-102843750D01*
G75*
G02*
X205993750Y-102625000I218750J0D01*
G01*
X206431250Y-102625000D01*
G75*
G02*
X206650000Y-102843750I0J-218750D01*
G01*
G37*
G36*
G01*
X208225000Y-102843750D02*
X208225000Y-103356250D01*
G75*
G02*
X208006250Y-103575000I-218750J0D01*
G01*
X207568750Y-103575000D01*
G75*
G02*
X207350000Y-103356250I0J218750D01*
G01*
X207350000Y-102843750D01*
G75*
G02*
X207568750Y-102625000I218750J0D01*
G01*
X208006250Y-102625000D01*
G75*
G02*
X208225000Y-102843750I0J-218750D01*
G01*
G37*
G36*
G01*
X227125000Y-129475000D02*
X229275000Y-129475000D01*
G75*
G02*
X229525000Y-129725000I0J-250000D01*
G01*
X229525000Y-130475000D01*
G75*
G02*
X229275000Y-130725000I-250000J0D01*
G01*
X227125000Y-130725000D01*
G75*
G02*
X226875000Y-130475000I0J250000D01*
G01*
X226875000Y-129725000D01*
G75*
G02*
X227125000Y-129475000I250000J0D01*
G01*
G37*
G36*
G01*
X227125000Y-126675000D02*
X229275000Y-126675000D01*
G75*
G02*
X229525000Y-126925000I0J-250000D01*
G01*
X229525000Y-127675000D01*
G75*
G02*
X229275000Y-127925000I-250000J0D01*
G01*
X227125000Y-127925000D01*
G75*
G02*
X226875000Y-127675000I0J250000D01*
G01*
X226875000Y-126925000D01*
G75*
G02*
X227125000Y-126675000I250000J0D01*
G01*
G37*
D12*
X106600000Y-96500000D03*
X106600000Y-96000000D03*
X106600000Y-95500000D03*
X106600000Y-95000000D03*
X106600000Y-94500000D03*
X106600000Y-93500000D03*
X109400000Y-93500000D03*
X109400000Y-94000000D03*
X109400000Y-94500000D03*
X109400000Y-95500000D03*
X109400000Y-96000000D03*
X109400000Y-96500000D03*
D13*
G36*
X107425000Y-94389699D02*
G01*
X107412733Y-94389699D01*
X107388317Y-94387294D01*
X107364255Y-94382508D01*
X107340778Y-94375386D01*
X107318111Y-94365997D01*
X107296474Y-94354432D01*
X107276075Y-94340802D01*
X107257110Y-94325238D01*
X107239762Y-94307890D01*
X107224198Y-94288925D01*
X107210568Y-94268526D01*
X107199003Y-94246889D01*
X107189614Y-94224222D01*
X107182492Y-94200745D01*
X107177706Y-94176683D01*
X107175301Y-94152267D01*
X107175301Y-94140000D01*
X107175000Y-94140000D01*
X107175000Y-94125000D01*
X106250000Y-94125000D01*
X106250000Y-93875000D01*
X107175000Y-93875000D01*
X107175000Y-93570000D01*
X107175301Y-93570000D01*
X107175301Y-93557733D01*
X107177706Y-93533317D01*
X107182492Y-93509255D01*
X107189614Y-93485778D01*
X107199003Y-93463111D01*
X107210568Y-93441474D01*
X107224198Y-93421075D01*
X107239762Y-93402110D01*
X107257110Y-93384762D01*
X107276075Y-93369198D01*
X107296474Y-93355568D01*
X107318111Y-93344003D01*
X107340778Y-93334614D01*
X107364255Y-93327492D01*
X107388317Y-93322706D01*
X107412733Y-93320301D01*
X107425000Y-93320301D01*
X107425000Y-93320000D01*
X108575000Y-93320000D01*
X108575000Y-93320301D01*
X108587267Y-93320301D01*
X108611683Y-93322706D01*
X108635745Y-93327492D01*
X108659222Y-93334614D01*
X108681889Y-93344003D01*
X108703526Y-93355568D01*
X108723925Y-93369198D01*
X108742890Y-93384762D01*
X108760238Y-93402110D01*
X108775802Y-93421075D01*
X108789432Y-93441474D01*
X108800997Y-93463111D01*
X108810386Y-93485778D01*
X108817508Y-93509255D01*
X108822294Y-93533317D01*
X108824699Y-93557733D01*
X108824699Y-93570000D01*
X108825000Y-93570000D01*
X108825000Y-94140000D01*
X108824699Y-94140000D01*
X108824699Y-94152267D01*
X108822294Y-94176683D01*
X108817508Y-94200745D01*
X108810386Y-94224222D01*
X108800997Y-94246889D01*
X108789432Y-94268526D01*
X108775802Y-94288925D01*
X108760238Y-94307890D01*
X108742890Y-94325238D01*
X108723925Y-94340802D01*
X108703526Y-94354432D01*
X108681889Y-94365997D01*
X108659222Y-94375386D01*
X108635745Y-94382508D01*
X108611683Y-94387294D01*
X108587267Y-94389699D01*
X108575000Y-94389699D01*
X108575000Y-94390000D01*
X107425000Y-94390000D01*
X107425000Y-94389699D01*
G37*
G36*
X107425000Y-96679699D02*
G01*
X107412733Y-96679699D01*
X107388317Y-96677294D01*
X107364255Y-96672508D01*
X107340778Y-96665386D01*
X107318111Y-96655997D01*
X107296474Y-96644432D01*
X107276075Y-96630802D01*
X107257110Y-96615238D01*
X107239762Y-96597890D01*
X107224198Y-96578925D01*
X107210568Y-96558526D01*
X107199003Y-96536889D01*
X107189614Y-96514222D01*
X107182492Y-96490745D01*
X107177706Y-96466683D01*
X107175301Y-96442267D01*
X107175301Y-96430000D01*
X107175000Y-96430000D01*
X107175000Y-95150000D01*
X107175301Y-95150000D01*
X107175301Y-95137733D01*
X107177706Y-95113317D01*
X107182492Y-95089255D01*
X107189614Y-95065778D01*
X107199003Y-95043111D01*
X107210568Y-95021474D01*
X107224198Y-95001075D01*
X107239762Y-94982110D01*
X107257110Y-94964762D01*
X107276075Y-94949198D01*
X107296474Y-94935568D01*
X107318111Y-94924003D01*
X107340778Y-94914614D01*
X107364255Y-94907492D01*
X107388317Y-94902706D01*
X107412733Y-94900301D01*
X107425000Y-94900301D01*
X107425000Y-94900000D01*
X108780000Y-94900000D01*
X108880000Y-94875000D01*
X109750000Y-94875000D01*
X109750000Y-95125000D01*
X109075500Y-95125000D01*
X109075490Y-95125098D01*
X109075462Y-95125191D01*
X109075416Y-95125278D01*
X109075354Y-95125354D01*
X109075278Y-95125416D01*
X109075191Y-95125462D01*
X109075050Y-95125498D01*
X109025097Y-95130493D01*
X108977199Y-95145461D01*
X108935277Y-95168419D01*
X108897358Y-95199353D01*
X108866421Y-95238273D01*
X108844464Y-95279193D01*
X108830492Y-95326099D01*
X108825497Y-95375051D01*
X108825478Y-95375147D01*
X108825440Y-95375237D01*
X108825385Y-95375319D01*
X108825316Y-95375388D01*
X108825234Y-95375442D01*
X108825143Y-95375479D01*
X108825047Y-95375498D01*
X108825000Y-95375498D01*
X108825000Y-96430000D01*
X108575000Y-96680000D01*
X107425000Y-96680000D01*
X107425000Y-96679699D01*
G37*
G36*
G01*
X221985000Y-108502500D02*
X221985000Y-109347500D01*
G75*
G02*
X221742500Y-109590000I-242500J0D01*
G01*
X221257500Y-109590000D01*
G75*
G02*
X221015000Y-109347500I0J242500D01*
G01*
X221015000Y-108502500D01*
G75*
G02*
X221257500Y-108260000I242500J0D01*
G01*
X221742500Y-108260000D01*
G75*
G02*
X221985000Y-108502500I0J-242500D01*
G01*
G37*
G36*
G01*
X221985000Y-106852500D02*
X221985000Y-107697500D01*
G75*
G02*
X221742500Y-107940000I-242500J0D01*
G01*
X221257500Y-107940000D01*
G75*
G02*
X221015000Y-107697500I0J242500D01*
G01*
X221015000Y-106852500D01*
G75*
G02*
X221257500Y-106610000I242500J0D01*
G01*
X221742500Y-106610000D01*
G75*
G02*
X221985000Y-106852500I0J-242500D01*
G01*
G37*
G36*
G01*
X220785000Y-108502500D02*
X220785000Y-109347500D01*
G75*
G02*
X220542500Y-109590000I-242500J0D01*
G01*
X220057500Y-109590000D01*
G75*
G02*
X219815000Y-109347500I0J242500D01*
G01*
X219815000Y-108502500D01*
G75*
G02*
X220057500Y-108260000I242500J0D01*
G01*
X220542500Y-108260000D01*
G75*
G02*
X220785000Y-108502500I0J-242500D01*
G01*
G37*
G36*
G01*
X220785000Y-106852500D02*
X220785000Y-107697500D01*
G75*
G02*
X220542500Y-107940000I-242500J0D01*
G01*
X220057500Y-107940000D01*
G75*
G02*
X219815000Y-107697500I0J242500D01*
G01*
X219815000Y-106852500D01*
G75*
G02*
X220057500Y-106610000I242500J0D01*
G01*
X220542500Y-106610000D01*
G75*
G02*
X220785000Y-106852500I0J-242500D01*
G01*
G37*
G36*
G01*
X224350000Y-109855000D02*
X224350000Y-110155000D01*
G75*
G02*
X224200000Y-110305000I-150000J0D01*
G01*
X222550000Y-110305000D01*
G75*
G02*
X222400000Y-110155000I0J150000D01*
G01*
X222400000Y-109855000D01*
G75*
G02*
X222550000Y-109705000I150000J0D01*
G01*
X224200000Y-109705000D01*
G75*
G02*
X224350000Y-109855000I0J-150000D01*
G01*
G37*
G36*
G01*
X224350000Y-108585000D02*
X224350000Y-108885000D01*
G75*
G02*
X224200000Y-109035000I-150000J0D01*
G01*
X222550000Y-109035000D01*
G75*
G02*
X222400000Y-108885000I0J150000D01*
G01*
X222400000Y-108585000D01*
G75*
G02*
X222550000Y-108435000I150000J0D01*
G01*
X224200000Y-108435000D01*
G75*
G02*
X224350000Y-108585000I0J-150000D01*
G01*
G37*
G36*
G01*
X224350000Y-107315000D02*
X224350000Y-107615000D01*
G75*
G02*
X224200000Y-107765000I-150000J0D01*
G01*
X222550000Y-107765000D01*
G75*
G02*
X222400000Y-107615000I0J150000D01*
G01*
X222400000Y-107315000D01*
G75*
G02*
X222550000Y-107165000I150000J0D01*
G01*
X224200000Y-107165000D01*
G75*
G02*
X224350000Y-107315000I0J-150000D01*
G01*
G37*
G36*
G01*
X224350000Y-106045000D02*
X224350000Y-106345000D01*
G75*
G02*
X224200000Y-106495000I-150000J0D01*
G01*
X222550000Y-106495000D01*
G75*
G02*
X222400000Y-106345000I0J150000D01*
G01*
X222400000Y-106045000D01*
G75*
G02*
X222550000Y-105895000I150000J0D01*
G01*
X224200000Y-105895000D01*
G75*
G02*
X224350000Y-106045000I0J-150000D01*
G01*
G37*
G36*
G01*
X219400000Y-106045000D02*
X219400000Y-106345000D01*
G75*
G02*
X219250000Y-106495000I-150000J0D01*
G01*
X217600000Y-106495000D01*
G75*
G02*
X217450000Y-106345000I0J150000D01*
G01*
X217450000Y-106045000D01*
G75*
G02*
X217600000Y-105895000I150000J0D01*
G01*
X219250000Y-105895000D01*
G75*
G02*
X219400000Y-106045000I0J-150000D01*
G01*
G37*
G36*
G01*
X219400000Y-107315000D02*
X219400000Y-107615000D01*
G75*
G02*
X219250000Y-107765000I-150000J0D01*
G01*
X217600000Y-107765000D01*
G75*
G02*
X217450000Y-107615000I0J150000D01*
G01*
X217450000Y-107315000D01*
G75*
G02*
X217600000Y-107165000I150000J0D01*
G01*
X219250000Y-107165000D01*
G75*
G02*
X219400000Y-107315000I0J-150000D01*
G01*
G37*
G36*
G01*
X219400000Y-108585000D02*
X219400000Y-108885000D01*
G75*
G02*
X219250000Y-109035000I-150000J0D01*
G01*
X217600000Y-109035000D01*
G75*
G02*
X217450000Y-108885000I0J150000D01*
G01*
X217450000Y-108585000D01*
G75*
G02*
X217600000Y-108435000I150000J0D01*
G01*
X219250000Y-108435000D01*
G75*
G02*
X219400000Y-108585000I0J-150000D01*
G01*
G37*
G36*
G01*
X219400000Y-109855000D02*
X219400000Y-110155000D01*
G75*
G02*
X219250000Y-110305000I-150000J0D01*
G01*
X217600000Y-110305000D01*
G75*
G02*
X217450000Y-110155000I0J150000D01*
G01*
X217450000Y-109855000D01*
G75*
G02*
X217600000Y-109705000I150000J0D01*
G01*
X219250000Y-109705000D01*
G75*
G02*
X219400000Y-109855000I0J-150000D01*
G01*
G37*
G36*
G01*
X198015000Y-106497500D02*
X198015000Y-105652500D01*
G75*
G02*
X198257500Y-105410000I242500J0D01*
G01*
X198742500Y-105410000D01*
G75*
G02*
X198985000Y-105652500I0J-242500D01*
G01*
X198985000Y-106497500D01*
G75*
G02*
X198742500Y-106740000I-242500J0D01*
G01*
X198257500Y-106740000D01*
G75*
G02*
X198015000Y-106497500I0J242500D01*
G01*
G37*
G36*
G01*
X198015000Y-108147500D02*
X198015000Y-107302500D01*
G75*
G02*
X198257500Y-107060000I242500J0D01*
G01*
X198742500Y-107060000D01*
G75*
G02*
X198985000Y-107302500I0J-242500D01*
G01*
X198985000Y-108147500D01*
G75*
G02*
X198742500Y-108390000I-242500J0D01*
G01*
X198257500Y-108390000D01*
G75*
G02*
X198015000Y-108147500I0J242500D01*
G01*
G37*
G36*
G01*
X199215000Y-106497500D02*
X199215000Y-105652500D01*
G75*
G02*
X199457500Y-105410000I242500J0D01*
G01*
X199942500Y-105410000D01*
G75*
G02*
X200185000Y-105652500I0J-242500D01*
G01*
X200185000Y-106497500D01*
G75*
G02*
X199942500Y-106740000I-242500J0D01*
G01*
X199457500Y-106740000D01*
G75*
G02*
X199215000Y-106497500I0J242500D01*
G01*
G37*
G36*
G01*
X199215000Y-108147500D02*
X199215000Y-107302500D01*
G75*
G02*
X199457500Y-107060000I242500J0D01*
G01*
X199942500Y-107060000D01*
G75*
G02*
X200185000Y-107302500I0J-242500D01*
G01*
X200185000Y-108147500D01*
G75*
G02*
X199942500Y-108390000I-242500J0D01*
G01*
X199457500Y-108390000D01*
G75*
G02*
X199215000Y-108147500I0J242500D01*
G01*
G37*
G36*
G01*
X195650000Y-105145000D02*
X195650000Y-104845000D01*
G75*
G02*
X195800000Y-104695000I150000J0D01*
G01*
X197450000Y-104695000D01*
G75*
G02*
X197600000Y-104845000I0J-150000D01*
G01*
X197600000Y-105145000D01*
G75*
G02*
X197450000Y-105295000I-150000J0D01*
G01*
X195800000Y-105295000D01*
G75*
G02*
X195650000Y-105145000I0J150000D01*
G01*
G37*
G36*
G01*
X195650000Y-106415000D02*
X195650000Y-106115000D01*
G75*
G02*
X195800000Y-105965000I150000J0D01*
G01*
X197450000Y-105965000D01*
G75*
G02*
X197600000Y-106115000I0J-150000D01*
G01*
X197600000Y-106415000D01*
G75*
G02*
X197450000Y-106565000I-150000J0D01*
G01*
X195800000Y-106565000D01*
G75*
G02*
X195650000Y-106415000I0J150000D01*
G01*
G37*
G36*
G01*
X195650000Y-107685000D02*
X195650000Y-107385000D01*
G75*
G02*
X195800000Y-107235000I150000J0D01*
G01*
X197450000Y-107235000D01*
G75*
G02*
X197600000Y-107385000I0J-150000D01*
G01*
X197600000Y-107685000D01*
G75*
G02*
X197450000Y-107835000I-150000J0D01*
G01*
X195800000Y-107835000D01*
G75*
G02*
X195650000Y-107685000I0J150000D01*
G01*
G37*
G36*
G01*
X195650000Y-108955000D02*
X195650000Y-108655000D01*
G75*
G02*
X195800000Y-108505000I150000J0D01*
G01*
X197450000Y-108505000D01*
G75*
G02*
X197600000Y-108655000I0J-150000D01*
G01*
X197600000Y-108955000D01*
G75*
G02*
X197450000Y-109105000I-150000J0D01*
G01*
X195800000Y-109105000D01*
G75*
G02*
X195650000Y-108955000I0J150000D01*
G01*
G37*
G36*
G01*
X200600000Y-108955000D02*
X200600000Y-108655000D01*
G75*
G02*
X200750000Y-108505000I150000J0D01*
G01*
X202400000Y-108505000D01*
G75*
G02*
X202550000Y-108655000I0J-150000D01*
G01*
X202550000Y-108955000D01*
G75*
G02*
X202400000Y-109105000I-150000J0D01*
G01*
X200750000Y-109105000D01*
G75*
G02*
X200600000Y-108955000I0J150000D01*
G01*
G37*
G36*
G01*
X200600000Y-107685000D02*
X200600000Y-107385000D01*
G75*
G02*
X200750000Y-107235000I150000J0D01*
G01*
X202400000Y-107235000D01*
G75*
G02*
X202550000Y-107385000I0J-150000D01*
G01*
X202550000Y-107685000D01*
G75*
G02*
X202400000Y-107835000I-150000J0D01*
G01*
X200750000Y-107835000D01*
G75*
G02*
X200600000Y-107685000I0J150000D01*
G01*
G37*
G36*
G01*
X200600000Y-106415000D02*
X200600000Y-106115000D01*
G75*
G02*
X200750000Y-105965000I150000J0D01*
G01*
X202400000Y-105965000D01*
G75*
G02*
X202550000Y-106115000I0J-150000D01*
G01*
X202550000Y-106415000D01*
G75*
G02*
X202400000Y-106565000I-150000J0D01*
G01*
X200750000Y-106565000D01*
G75*
G02*
X200600000Y-106415000I0J150000D01*
G01*
G37*
G36*
G01*
X200600000Y-105145000D02*
X200600000Y-104845000D01*
G75*
G02*
X200750000Y-104695000I150000J0D01*
G01*
X202400000Y-104695000D01*
G75*
G02*
X202550000Y-104845000I0J-150000D01*
G01*
X202550000Y-105145000D01*
G75*
G02*
X202400000Y-105295000I-150000J0D01*
G01*
X200750000Y-105295000D01*
G75*
G02*
X200600000Y-105145000I0J150000D01*
G01*
G37*
D14*
X184800000Y-120050000D03*
X184800000Y-119100000D03*
X184800000Y-118150000D03*
X182600000Y-118150000D03*
X182600000Y-120050000D03*
G36*
G01*
X109925000Y-116475000D02*
X109925000Y-116275000D01*
G75*
G02*
X110025000Y-116175000I100000J0D01*
G01*
X111275000Y-116175000D01*
G75*
G02*
X111375000Y-116275000I0J-100000D01*
G01*
X111375000Y-116475000D01*
G75*
G02*
X111275000Y-116575000I-100000J0D01*
G01*
X110025000Y-116575000D01*
G75*
G02*
X109925000Y-116475000I0J100000D01*
G01*
G37*
G36*
G01*
X109925000Y-117125000D02*
X109925000Y-116925000D01*
G75*
G02*
X110025000Y-116825000I100000J0D01*
G01*
X111275000Y-116825000D01*
G75*
G02*
X111375000Y-116925000I0J-100000D01*
G01*
X111375000Y-117125000D01*
G75*
G02*
X111275000Y-117225000I-100000J0D01*
G01*
X110025000Y-117225000D01*
G75*
G02*
X109925000Y-117125000I0J100000D01*
G01*
G37*
G36*
G01*
X109925000Y-117775000D02*
X109925000Y-117575000D01*
G75*
G02*
X110025000Y-117475000I100000J0D01*
G01*
X111275000Y-117475000D01*
G75*
G02*
X111375000Y-117575000I0J-100000D01*
G01*
X111375000Y-117775000D01*
G75*
G02*
X111275000Y-117875000I-100000J0D01*
G01*
X110025000Y-117875000D01*
G75*
G02*
X109925000Y-117775000I0J100000D01*
G01*
G37*
G36*
G01*
X109925000Y-118425000D02*
X109925000Y-118225000D01*
G75*
G02*
X110025000Y-118125000I100000J0D01*
G01*
X111275000Y-118125000D01*
G75*
G02*
X111375000Y-118225000I0J-100000D01*
G01*
X111375000Y-118425000D01*
G75*
G02*
X111275000Y-118525000I-100000J0D01*
G01*
X110025000Y-118525000D01*
G75*
G02*
X109925000Y-118425000I0J100000D01*
G01*
G37*
G36*
G01*
X109925000Y-119075000D02*
X109925000Y-118875000D01*
G75*
G02*
X110025000Y-118775000I100000J0D01*
G01*
X111275000Y-118775000D01*
G75*
G02*
X111375000Y-118875000I0J-100000D01*
G01*
X111375000Y-119075000D01*
G75*
G02*
X111275000Y-119175000I-100000J0D01*
G01*
X110025000Y-119175000D01*
G75*
G02*
X109925000Y-119075000I0J100000D01*
G01*
G37*
G36*
G01*
X109925000Y-119725000D02*
X109925000Y-119525000D01*
G75*
G02*
X110025000Y-119425000I100000J0D01*
G01*
X111275000Y-119425000D01*
G75*
G02*
X111375000Y-119525000I0J-100000D01*
G01*
X111375000Y-119725000D01*
G75*
G02*
X111275000Y-119825000I-100000J0D01*
G01*
X110025000Y-119825000D01*
G75*
G02*
X109925000Y-119725000I0J100000D01*
G01*
G37*
G36*
G01*
X105625000Y-119725000D02*
X105625000Y-119525000D01*
G75*
G02*
X105725000Y-119425000I100000J0D01*
G01*
X106975000Y-119425000D01*
G75*
G02*
X107075000Y-119525000I0J-100000D01*
G01*
X107075000Y-119725000D01*
G75*
G02*
X106975000Y-119825000I-100000J0D01*
G01*
X105725000Y-119825000D01*
G75*
G02*
X105625000Y-119725000I0J100000D01*
G01*
G37*
G36*
G01*
X105625000Y-119075000D02*
X105625000Y-118875000D01*
G75*
G02*
X105725000Y-118775000I100000J0D01*
G01*
X106975000Y-118775000D01*
G75*
G02*
X107075000Y-118875000I0J-100000D01*
G01*
X107075000Y-119075000D01*
G75*
G02*
X106975000Y-119175000I-100000J0D01*
G01*
X105725000Y-119175000D01*
G75*
G02*
X105625000Y-119075000I0J100000D01*
G01*
G37*
G36*
G01*
X105625000Y-118425000D02*
X105625000Y-118225000D01*
G75*
G02*
X105725000Y-118125000I100000J0D01*
G01*
X106975000Y-118125000D01*
G75*
G02*
X107075000Y-118225000I0J-100000D01*
G01*
X107075000Y-118425000D01*
G75*
G02*
X106975000Y-118525000I-100000J0D01*
G01*
X105725000Y-118525000D01*
G75*
G02*
X105625000Y-118425000I0J100000D01*
G01*
G37*
G36*
G01*
X105625000Y-117775000D02*
X105625000Y-117575000D01*
G75*
G02*
X105725000Y-117475000I100000J0D01*
G01*
X106975000Y-117475000D01*
G75*
G02*
X107075000Y-117575000I0J-100000D01*
G01*
X107075000Y-117775000D01*
G75*
G02*
X106975000Y-117875000I-100000J0D01*
G01*
X105725000Y-117875000D01*
G75*
G02*
X105625000Y-117775000I0J100000D01*
G01*
G37*
G36*
G01*
X105625000Y-117125000D02*
X105625000Y-116925000D01*
G75*
G02*
X105725000Y-116825000I100000J0D01*
G01*
X106975000Y-116825000D01*
G75*
G02*
X107075000Y-116925000I0J-100000D01*
G01*
X107075000Y-117125000D01*
G75*
G02*
X106975000Y-117225000I-100000J0D01*
G01*
X105725000Y-117225000D01*
G75*
G02*
X105625000Y-117125000I0J100000D01*
G01*
G37*
G36*
G01*
X105625000Y-116475000D02*
X105625000Y-116275000D01*
G75*
G02*
X105725000Y-116175000I100000J0D01*
G01*
X106975000Y-116175000D01*
G75*
G02*
X107075000Y-116275000I0J-100000D01*
G01*
X107075000Y-116475000D01*
G75*
G02*
X106975000Y-116575000I-100000J0D01*
G01*
X105725000Y-116575000D01*
G75*
G02*
X105625000Y-116475000I0J100000D01*
G01*
G37*
G36*
G01*
X108575000Y-119117500D02*
X108575000Y-118302500D01*
G75*
G02*
X108742500Y-118135000I167500J0D01*
G01*
X109077500Y-118135000D01*
G75*
G02*
X109245000Y-118302500I0J-167500D01*
G01*
X109245000Y-119117500D01*
G75*
G02*
X109077500Y-119285000I-167500J0D01*
G01*
X108742500Y-119285000D01*
G75*
G02*
X108575000Y-119117500I0J167500D01*
G01*
G37*
G36*
G01*
X108575000Y-117697500D02*
X108575000Y-116882500D01*
G75*
G02*
X108742500Y-116715000I167500J0D01*
G01*
X109077500Y-116715000D01*
G75*
G02*
X109245000Y-116882500I0J-167500D01*
G01*
X109245000Y-117697500D01*
G75*
G02*
X109077500Y-117865000I-167500J0D01*
G01*
X108742500Y-117865000D01*
G75*
G02*
X108575000Y-117697500I0J167500D01*
G01*
G37*
G36*
G01*
X107755000Y-119117500D02*
X107755000Y-118302500D01*
G75*
G02*
X107922500Y-118135000I167500J0D01*
G01*
X108257500Y-118135000D01*
G75*
G02*
X108425000Y-118302500I0J-167500D01*
G01*
X108425000Y-119117500D01*
G75*
G02*
X108257500Y-119285000I-167500J0D01*
G01*
X107922500Y-119285000D01*
G75*
G02*
X107755000Y-119117500I0J167500D01*
G01*
G37*
G36*
G01*
X107755000Y-117697500D02*
X107755000Y-116882500D01*
G75*
G02*
X107922500Y-116715000I167500J0D01*
G01*
X108257500Y-116715000D01*
G75*
G02*
X108425000Y-116882500I0J-167500D01*
G01*
X108425000Y-117697500D01*
G75*
G02*
X108257500Y-117865000I-167500J0D01*
G01*
X107922500Y-117865000D01*
G75*
G02*
X107755000Y-117697500I0J167500D01*
G01*
G37*
G36*
G01*
X107755000Y-130697500D02*
X107755000Y-129882500D01*
G75*
G02*
X107922500Y-129715000I167500J0D01*
G01*
X108257500Y-129715000D01*
G75*
G02*
X108425000Y-129882500I0J-167500D01*
G01*
X108425000Y-130697500D01*
G75*
G02*
X108257500Y-130865000I-167500J0D01*
G01*
X107922500Y-130865000D01*
G75*
G02*
X107755000Y-130697500I0J167500D01*
G01*
G37*
G36*
G01*
X107755000Y-132117500D02*
X107755000Y-131302500D01*
G75*
G02*
X107922500Y-131135000I167500J0D01*
G01*
X108257500Y-131135000D01*
G75*
G02*
X108425000Y-131302500I0J-167500D01*
G01*
X108425000Y-132117500D01*
G75*
G02*
X108257500Y-132285000I-167500J0D01*
G01*
X107922500Y-132285000D01*
G75*
G02*
X107755000Y-132117500I0J167500D01*
G01*
G37*
G36*
G01*
X108575000Y-130697500D02*
X108575000Y-129882500D01*
G75*
G02*
X108742500Y-129715000I167500J0D01*
G01*
X109077500Y-129715000D01*
G75*
G02*
X109245000Y-129882500I0J-167500D01*
G01*
X109245000Y-130697500D01*
G75*
G02*
X109077500Y-130865000I-167500J0D01*
G01*
X108742500Y-130865000D01*
G75*
G02*
X108575000Y-130697500I0J167500D01*
G01*
G37*
G36*
G01*
X108575000Y-132117500D02*
X108575000Y-131302500D01*
G75*
G02*
X108742500Y-131135000I167500J0D01*
G01*
X109077500Y-131135000D01*
G75*
G02*
X109245000Y-131302500I0J-167500D01*
G01*
X109245000Y-132117500D01*
G75*
G02*
X109077500Y-132285000I-167500J0D01*
G01*
X108742500Y-132285000D01*
G75*
G02*
X108575000Y-132117500I0J167500D01*
G01*
G37*
G36*
G01*
X105625000Y-129475000D02*
X105625000Y-129275000D01*
G75*
G02*
X105725000Y-129175000I100000J0D01*
G01*
X106975000Y-129175000D01*
G75*
G02*
X107075000Y-129275000I0J-100000D01*
G01*
X107075000Y-129475000D01*
G75*
G02*
X106975000Y-129575000I-100000J0D01*
G01*
X105725000Y-129575000D01*
G75*
G02*
X105625000Y-129475000I0J100000D01*
G01*
G37*
G36*
G01*
X105625000Y-130125000D02*
X105625000Y-129925000D01*
G75*
G02*
X105725000Y-129825000I100000J0D01*
G01*
X106975000Y-129825000D01*
G75*
G02*
X107075000Y-129925000I0J-100000D01*
G01*
X107075000Y-130125000D01*
G75*
G02*
X106975000Y-130225000I-100000J0D01*
G01*
X105725000Y-130225000D01*
G75*
G02*
X105625000Y-130125000I0J100000D01*
G01*
G37*
G36*
G01*
X105625000Y-130775000D02*
X105625000Y-130575000D01*
G75*
G02*
X105725000Y-130475000I100000J0D01*
G01*
X106975000Y-130475000D01*
G75*
G02*
X107075000Y-130575000I0J-100000D01*
G01*
X107075000Y-130775000D01*
G75*
G02*
X106975000Y-130875000I-100000J0D01*
G01*
X105725000Y-130875000D01*
G75*
G02*
X105625000Y-130775000I0J100000D01*
G01*
G37*
G36*
G01*
X105625000Y-131425000D02*
X105625000Y-131225000D01*
G75*
G02*
X105725000Y-131125000I100000J0D01*
G01*
X106975000Y-131125000D01*
G75*
G02*
X107075000Y-131225000I0J-100000D01*
G01*
X107075000Y-131425000D01*
G75*
G02*
X106975000Y-131525000I-100000J0D01*
G01*
X105725000Y-131525000D01*
G75*
G02*
X105625000Y-131425000I0J100000D01*
G01*
G37*
G36*
G01*
X105625000Y-132075000D02*
X105625000Y-131875000D01*
G75*
G02*
X105725000Y-131775000I100000J0D01*
G01*
X106975000Y-131775000D01*
G75*
G02*
X107075000Y-131875000I0J-100000D01*
G01*
X107075000Y-132075000D01*
G75*
G02*
X106975000Y-132175000I-100000J0D01*
G01*
X105725000Y-132175000D01*
G75*
G02*
X105625000Y-132075000I0J100000D01*
G01*
G37*
G36*
G01*
X105625000Y-132725000D02*
X105625000Y-132525000D01*
G75*
G02*
X105725000Y-132425000I100000J0D01*
G01*
X106975000Y-132425000D01*
G75*
G02*
X107075000Y-132525000I0J-100000D01*
G01*
X107075000Y-132725000D01*
G75*
G02*
X106975000Y-132825000I-100000J0D01*
G01*
X105725000Y-132825000D01*
G75*
G02*
X105625000Y-132725000I0J100000D01*
G01*
G37*
G36*
G01*
X109925000Y-132725000D02*
X109925000Y-132525000D01*
G75*
G02*
X110025000Y-132425000I100000J0D01*
G01*
X111275000Y-132425000D01*
G75*
G02*
X111375000Y-132525000I0J-100000D01*
G01*
X111375000Y-132725000D01*
G75*
G02*
X111275000Y-132825000I-100000J0D01*
G01*
X110025000Y-132825000D01*
G75*
G02*
X109925000Y-132725000I0J100000D01*
G01*
G37*
G36*
G01*
X109925000Y-132075000D02*
X109925000Y-131875000D01*
G75*
G02*
X110025000Y-131775000I100000J0D01*
G01*
X111275000Y-131775000D01*
G75*
G02*
X111375000Y-131875000I0J-100000D01*
G01*
X111375000Y-132075000D01*
G75*
G02*
X111275000Y-132175000I-100000J0D01*
G01*
X110025000Y-132175000D01*
G75*
G02*
X109925000Y-132075000I0J100000D01*
G01*
G37*
G36*
G01*
X109925000Y-131425000D02*
X109925000Y-131225000D01*
G75*
G02*
X110025000Y-131125000I100000J0D01*
G01*
X111275000Y-131125000D01*
G75*
G02*
X111375000Y-131225000I0J-100000D01*
G01*
X111375000Y-131425000D01*
G75*
G02*
X111275000Y-131525000I-100000J0D01*
G01*
X110025000Y-131525000D01*
G75*
G02*
X109925000Y-131425000I0J100000D01*
G01*
G37*
G36*
G01*
X109925000Y-130775000D02*
X109925000Y-130575000D01*
G75*
G02*
X110025000Y-130475000I100000J0D01*
G01*
X111275000Y-130475000D01*
G75*
G02*
X111375000Y-130575000I0J-100000D01*
G01*
X111375000Y-130775000D01*
G75*
G02*
X111275000Y-130875000I-100000J0D01*
G01*
X110025000Y-130875000D01*
G75*
G02*
X109925000Y-130775000I0J100000D01*
G01*
G37*
G36*
G01*
X109925000Y-130125000D02*
X109925000Y-129925000D01*
G75*
G02*
X110025000Y-129825000I100000J0D01*
G01*
X111275000Y-129825000D01*
G75*
G02*
X111375000Y-129925000I0J-100000D01*
G01*
X111375000Y-130125000D01*
G75*
G02*
X111275000Y-130225000I-100000J0D01*
G01*
X110025000Y-130225000D01*
G75*
G02*
X109925000Y-130125000I0J100000D01*
G01*
G37*
G36*
G01*
X109925000Y-129475000D02*
X109925000Y-129275000D01*
G75*
G02*
X110025000Y-129175000I100000J0D01*
G01*
X111275000Y-129175000D01*
G75*
G02*
X111375000Y-129275000I0J-100000D01*
G01*
X111375000Y-129475000D01*
G75*
G02*
X111275000Y-129575000I-100000J0D01*
G01*
X110025000Y-129575000D01*
G75*
G02*
X109925000Y-129475000I0J100000D01*
G01*
G37*
G36*
G01*
X169475000Y-110725000D02*
X169475000Y-110525000D01*
G75*
G02*
X169575000Y-110425000I100000J0D01*
G01*
X171000000Y-110425000D01*
G75*
G02*
X171100000Y-110525000I0J-100000D01*
G01*
X171100000Y-110725000D01*
G75*
G02*
X171000000Y-110825000I-100000J0D01*
G01*
X169575000Y-110825000D01*
G75*
G02*
X169475000Y-110725000I0J100000D01*
G01*
G37*
G36*
G01*
X169475000Y-111375000D02*
X169475000Y-111175000D01*
G75*
G02*
X169575000Y-111075000I100000J0D01*
G01*
X171000000Y-111075000D01*
G75*
G02*
X171100000Y-111175000I0J-100000D01*
G01*
X171100000Y-111375000D01*
G75*
G02*
X171000000Y-111475000I-100000J0D01*
G01*
X169575000Y-111475000D01*
G75*
G02*
X169475000Y-111375000I0J100000D01*
G01*
G37*
G36*
G01*
X169475000Y-112025000D02*
X169475000Y-111825000D01*
G75*
G02*
X169575000Y-111725000I100000J0D01*
G01*
X171000000Y-111725000D01*
G75*
G02*
X171100000Y-111825000I0J-100000D01*
G01*
X171100000Y-112025000D01*
G75*
G02*
X171000000Y-112125000I-100000J0D01*
G01*
X169575000Y-112125000D01*
G75*
G02*
X169475000Y-112025000I0J100000D01*
G01*
G37*
G36*
G01*
X169475000Y-112675000D02*
X169475000Y-112475000D01*
G75*
G02*
X169575000Y-112375000I100000J0D01*
G01*
X171000000Y-112375000D01*
G75*
G02*
X171100000Y-112475000I0J-100000D01*
G01*
X171100000Y-112675000D01*
G75*
G02*
X171000000Y-112775000I-100000J0D01*
G01*
X169575000Y-112775000D01*
G75*
G02*
X169475000Y-112675000I0J100000D01*
G01*
G37*
G36*
G01*
X173700000Y-112675000D02*
X173700000Y-112475000D01*
G75*
G02*
X173800000Y-112375000I100000J0D01*
G01*
X175225000Y-112375000D01*
G75*
G02*
X175325000Y-112475000I0J-100000D01*
G01*
X175325000Y-112675000D01*
G75*
G02*
X175225000Y-112775000I-100000J0D01*
G01*
X173800000Y-112775000D01*
G75*
G02*
X173700000Y-112675000I0J100000D01*
G01*
G37*
G36*
G01*
X173700000Y-112025000D02*
X173700000Y-111825000D01*
G75*
G02*
X173800000Y-111725000I100000J0D01*
G01*
X175225000Y-111725000D01*
G75*
G02*
X175325000Y-111825000I0J-100000D01*
G01*
X175325000Y-112025000D01*
G75*
G02*
X175225000Y-112125000I-100000J0D01*
G01*
X173800000Y-112125000D01*
G75*
G02*
X173700000Y-112025000I0J100000D01*
G01*
G37*
G36*
G01*
X173700000Y-111375000D02*
X173700000Y-111175000D01*
G75*
G02*
X173800000Y-111075000I100000J0D01*
G01*
X175225000Y-111075000D01*
G75*
G02*
X175325000Y-111175000I0J-100000D01*
G01*
X175325000Y-111375000D01*
G75*
G02*
X175225000Y-111475000I-100000J0D01*
G01*
X173800000Y-111475000D01*
G75*
G02*
X173700000Y-111375000I0J100000D01*
G01*
G37*
G36*
G01*
X173700000Y-110725000D02*
X173700000Y-110525000D01*
G75*
G02*
X173800000Y-110425000I100000J0D01*
G01*
X175225000Y-110425000D01*
G75*
G02*
X175325000Y-110525000I0J-100000D01*
G01*
X175325000Y-110725000D01*
G75*
G02*
X175225000Y-110825000I-100000J0D01*
G01*
X173800000Y-110825000D01*
G75*
G02*
X173700000Y-110725000I0J100000D01*
G01*
G37*
M02*
