G04 #@! TF.GenerationSoftware,KiCad,Pcbnew,(5.1.5)-3*
G04 #@! TF.CreationDate,2020-10-06T23:22:57+02:00*
G04 #@! TF.ProjectId,RF_frequency_modulator,52465f66-7265-4717-9565-6e63795f6d6f,1.2*
G04 #@! TF.SameCoordinates,Original*
G04 #@! TF.FileFunction,Soldermask,Bot*
G04 #@! TF.FilePolarity,Negative*
%FSLAX46Y46*%
G04 Gerber Fmt 4.6, Leading zero omitted, Abs format (unit mm)*
G04 Created by KiCad (PCBNEW (5.1.5)-3) date 2020-10-06 23:22:57*
%MOMM*%
%LPD*%
G04 APERTURE LIST*
%ADD10C,0.100000*%
G04 APERTURE END LIST*
D10*
G36*
X177156720Y-139463520D02*
G01*
X177345881Y-139520901D01*
X177520212Y-139614083D01*
X177673015Y-139739485D01*
X177798417Y-139892288D01*
X177842182Y-139974167D01*
X177891598Y-140066617D01*
X177891599Y-140066620D01*
X177948980Y-140255781D01*
X177963500Y-140403207D01*
X177963500Y-140596794D01*
X177948980Y-140744220D01*
X177891599Y-140933381D01*
X177798417Y-141107712D01*
X177673015Y-141260515D01*
X177520212Y-141385917D01*
X177438333Y-141429682D01*
X177345883Y-141479098D01*
X177345880Y-141479099D01*
X177156719Y-141536480D01*
X176960000Y-141555855D01*
X176763280Y-141536480D01*
X176574119Y-141479099D01*
X176399788Y-141385917D01*
X176246985Y-141260515D01*
X176121583Y-141107712D01*
X176077818Y-141025833D01*
X176028402Y-140933383D01*
X176018579Y-140901000D01*
X175971020Y-140744219D01*
X175956500Y-140596793D01*
X175956500Y-140403206D01*
X175971020Y-140255780D01*
X176028401Y-140066619D01*
X176121583Y-139892288D01*
X176246985Y-139739485D01*
X176399788Y-139614083D01*
X176574120Y-139520901D01*
X176763281Y-139463520D01*
X176960000Y-139444145D01*
X177156720Y-139463520D01*
G37*
G36*
X134616720Y-139463520D02*
G01*
X134805881Y-139520901D01*
X134980212Y-139614083D01*
X135133015Y-139739485D01*
X135258417Y-139892288D01*
X135302182Y-139974167D01*
X135351598Y-140066617D01*
X135351599Y-140066620D01*
X135408980Y-140255781D01*
X135423500Y-140403207D01*
X135423500Y-140596794D01*
X135408980Y-140744220D01*
X135351599Y-140933381D01*
X135258417Y-141107712D01*
X135133015Y-141260515D01*
X134980212Y-141385917D01*
X134898333Y-141429682D01*
X134805883Y-141479098D01*
X134805880Y-141479099D01*
X134616719Y-141536480D01*
X134420000Y-141555855D01*
X134223280Y-141536480D01*
X134034119Y-141479099D01*
X133859788Y-141385917D01*
X133706985Y-141260515D01*
X133581583Y-141107712D01*
X133537818Y-141025833D01*
X133488402Y-140933383D01*
X133478579Y-140901000D01*
X133431020Y-140744219D01*
X133416500Y-140596793D01*
X133416500Y-140403206D01*
X133431020Y-140255780D01*
X133488401Y-140066619D01*
X133581583Y-139892288D01*
X133706985Y-139739485D01*
X133859788Y-139614083D01*
X134034120Y-139520901D01*
X134223281Y-139463520D01*
X134420000Y-139444145D01*
X134616720Y-139463520D01*
G37*
G36*
X137156720Y-139463520D02*
G01*
X137345881Y-139520901D01*
X137520212Y-139614083D01*
X137673015Y-139739485D01*
X137798417Y-139892288D01*
X137842182Y-139974167D01*
X137891598Y-140066617D01*
X137891599Y-140066620D01*
X137948980Y-140255781D01*
X137963500Y-140403207D01*
X137963500Y-140596794D01*
X137948980Y-140744220D01*
X137891599Y-140933381D01*
X137798417Y-141107712D01*
X137673015Y-141260515D01*
X137520212Y-141385917D01*
X137438333Y-141429682D01*
X137345883Y-141479098D01*
X137345880Y-141479099D01*
X137156719Y-141536480D01*
X136960000Y-141555855D01*
X136763280Y-141536480D01*
X136574119Y-141479099D01*
X136399788Y-141385917D01*
X136246985Y-141260515D01*
X136121583Y-141107712D01*
X136077818Y-141025833D01*
X136028402Y-140933383D01*
X136018579Y-140901000D01*
X135971020Y-140744219D01*
X135956500Y-140596793D01*
X135956500Y-140403206D01*
X135971020Y-140255780D01*
X136028401Y-140066619D01*
X136121583Y-139892288D01*
X136246985Y-139739485D01*
X136399788Y-139614083D01*
X136574120Y-139520901D01*
X136763281Y-139463520D01*
X136960000Y-139444145D01*
X137156720Y-139463520D01*
G37*
G36*
X157156720Y-139463520D02*
G01*
X157345881Y-139520901D01*
X157520212Y-139614083D01*
X157673015Y-139739485D01*
X157798417Y-139892288D01*
X157842182Y-139974167D01*
X157891598Y-140066617D01*
X157891599Y-140066620D01*
X157948980Y-140255781D01*
X157963500Y-140403207D01*
X157963500Y-140596794D01*
X157948980Y-140744220D01*
X157891599Y-140933381D01*
X157798417Y-141107712D01*
X157673015Y-141260515D01*
X157520212Y-141385917D01*
X157438333Y-141429682D01*
X157345883Y-141479098D01*
X157345880Y-141479099D01*
X157156719Y-141536480D01*
X156960000Y-141555855D01*
X156763280Y-141536480D01*
X156574119Y-141479099D01*
X156399788Y-141385917D01*
X156246985Y-141260515D01*
X156121583Y-141107712D01*
X156077818Y-141025833D01*
X156028402Y-140933383D01*
X156018579Y-140901000D01*
X155971020Y-140744219D01*
X155956500Y-140596793D01*
X155956500Y-140403206D01*
X155971020Y-140255780D01*
X156028401Y-140066619D01*
X156121583Y-139892288D01*
X156246985Y-139739485D01*
X156399788Y-139614083D01*
X156574120Y-139520901D01*
X156763281Y-139463520D01*
X156960000Y-139444145D01*
X157156720Y-139463520D01*
G37*
G36*
X174616720Y-139463520D02*
G01*
X174805881Y-139520901D01*
X174980212Y-139614083D01*
X175133015Y-139739485D01*
X175258417Y-139892288D01*
X175302182Y-139974167D01*
X175351598Y-140066617D01*
X175351599Y-140066620D01*
X175408980Y-140255781D01*
X175423500Y-140403207D01*
X175423500Y-140596794D01*
X175408980Y-140744220D01*
X175351599Y-140933381D01*
X175258417Y-141107712D01*
X175133015Y-141260515D01*
X174980212Y-141385917D01*
X174898333Y-141429682D01*
X174805883Y-141479098D01*
X174805880Y-141479099D01*
X174616719Y-141536480D01*
X174420000Y-141555855D01*
X174223280Y-141536480D01*
X174034119Y-141479099D01*
X173859788Y-141385917D01*
X173706985Y-141260515D01*
X173581583Y-141107712D01*
X173537818Y-141025833D01*
X173488402Y-140933383D01*
X173478579Y-140901000D01*
X173431020Y-140744219D01*
X173416500Y-140596793D01*
X173416500Y-140403206D01*
X173431020Y-140255780D01*
X173488401Y-140066619D01*
X173581583Y-139892288D01*
X173706985Y-139739485D01*
X173859788Y-139614083D01*
X174034120Y-139520901D01*
X174223281Y-139463520D01*
X174420000Y-139444145D01*
X174616720Y-139463520D01*
G37*
G36*
X154616720Y-139463520D02*
G01*
X154805881Y-139520901D01*
X154980212Y-139614083D01*
X155133015Y-139739485D01*
X155258417Y-139892288D01*
X155302182Y-139974167D01*
X155351598Y-140066617D01*
X155351599Y-140066620D01*
X155408980Y-140255781D01*
X155423500Y-140403207D01*
X155423500Y-140596794D01*
X155408980Y-140744220D01*
X155351599Y-140933381D01*
X155258417Y-141107712D01*
X155133015Y-141260515D01*
X154980212Y-141385917D01*
X154898333Y-141429682D01*
X154805883Y-141479098D01*
X154805880Y-141479099D01*
X154616719Y-141536480D01*
X154420000Y-141555855D01*
X154223280Y-141536480D01*
X154034119Y-141479099D01*
X153859788Y-141385917D01*
X153706985Y-141260515D01*
X153581583Y-141107712D01*
X153537818Y-141025833D01*
X153488402Y-140933383D01*
X153478579Y-140901000D01*
X153431020Y-140744219D01*
X153416500Y-140596793D01*
X153416500Y-140403206D01*
X153431020Y-140255780D01*
X153488401Y-140066619D01*
X153581583Y-139892288D01*
X153706985Y-139739485D01*
X153859788Y-139614083D01*
X154034120Y-139520901D01*
X154223281Y-139463520D01*
X154420000Y-139444145D01*
X154616720Y-139463520D01*
G37*
G36*
X140503500Y-141551000D02*
G01*
X138496500Y-141551000D01*
X138496500Y-139449000D01*
X140503500Y-139449000D01*
X140503500Y-141551000D01*
G37*
G36*
X160503500Y-141551000D02*
G01*
X158496500Y-141551000D01*
X158496500Y-139449000D01*
X160503500Y-139449000D01*
X160503500Y-141551000D01*
G37*
G36*
X180503500Y-141551000D02*
G01*
X178496500Y-141551000D01*
X178496500Y-139449000D01*
X180503500Y-139449000D01*
X180503500Y-141551000D01*
G37*
G36*
X83034227Y-137916184D02*
G01*
X83237826Y-137956682D01*
X83350974Y-138003550D01*
X83510989Y-138069830D01*
X83510990Y-138069831D01*
X83756832Y-138234097D01*
X83965903Y-138443168D01*
X83965904Y-138443170D01*
X84130170Y-138689011D01*
X84183721Y-138818295D01*
X84243318Y-138962174D01*
X84301000Y-139252164D01*
X84301000Y-139547836D01*
X84243318Y-139837826D01*
X84196450Y-139950974D01*
X84130170Y-140110989D01*
X84130169Y-140110990D01*
X83965903Y-140356832D01*
X83756832Y-140565903D01*
X83633076Y-140648594D01*
X83510989Y-140730170D01*
X83350974Y-140796450D01*
X83237826Y-140843318D01*
X83092831Y-140872159D01*
X82947837Y-140901000D01*
X82652163Y-140901000D01*
X82507169Y-140872159D01*
X82362174Y-140843318D01*
X82249026Y-140796450D01*
X82089011Y-140730170D01*
X81966924Y-140648594D01*
X81843168Y-140565903D01*
X81634097Y-140356832D01*
X81469831Y-140110990D01*
X81469830Y-140110989D01*
X81403550Y-139950974D01*
X81356682Y-139837826D01*
X81299000Y-139547836D01*
X81299000Y-139252164D01*
X81356682Y-138962174D01*
X81416279Y-138818295D01*
X81469830Y-138689011D01*
X81634096Y-138443170D01*
X81634097Y-138443168D01*
X81843168Y-138234097D01*
X82089010Y-138069831D01*
X82089011Y-138069830D01*
X82249026Y-138003550D01*
X82362174Y-137956682D01*
X82565773Y-137916184D01*
X82652163Y-137899000D01*
X82947837Y-137899000D01*
X83034227Y-137916184D01*
G37*
G36*
X128051000Y-140851000D02*
G01*
X126349000Y-140851000D01*
X126349000Y-139149000D01*
X128051000Y-139149000D01*
X128051000Y-140851000D01*
G37*
G36*
X148351000Y-140851000D02*
G01*
X146649000Y-140851000D01*
X146649000Y-139149000D01*
X148351000Y-139149000D01*
X148351000Y-140851000D01*
G37*
G36*
X168151000Y-140851000D02*
G01*
X166449000Y-140851000D01*
X166449000Y-139149000D01*
X168151000Y-139149000D01*
X168151000Y-140851000D01*
G37*
G36*
X188351000Y-140851000D02*
G01*
X186649000Y-140851000D01*
X186649000Y-139149000D01*
X188351000Y-139149000D01*
X188351000Y-140851000D01*
G37*
G36*
X127448228Y-137181703D02*
G01*
X127603100Y-137245853D01*
X127742481Y-137338985D01*
X127861015Y-137457519D01*
X127954147Y-137596900D01*
X128018297Y-137751772D01*
X128051000Y-137916184D01*
X128051000Y-138083816D01*
X128018297Y-138248228D01*
X127954147Y-138403100D01*
X127861015Y-138542481D01*
X127742481Y-138661015D01*
X127603100Y-138754147D01*
X127448228Y-138818297D01*
X127283816Y-138851000D01*
X127116184Y-138851000D01*
X126951772Y-138818297D01*
X126796900Y-138754147D01*
X126657519Y-138661015D01*
X126538985Y-138542481D01*
X126445853Y-138403100D01*
X126381703Y-138248228D01*
X126349000Y-138083816D01*
X126349000Y-137916184D01*
X126381703Y-137751772D01*
X126445853Y-137596900D01*
X126538985Y-137457519D01*
X126657519Y-137338985D01*
X126796900Y-137245853D01*
X126951772Y-137181703D01*
X127116184Y-137149000D01*
X127283816Y-137149000D01*
X127448228Y-137181703D01*
G37*
G36*
X147748228Y-137181703D02*
G01*
X147903100Y-137245853D01*
X148042481Y-137338985D01*
X148161015Y-137457519D01*
X148254147Y-137596900D01*
X148318297Y-137751772D01*
X148351000Y-137916184D01*
X148351000Y-138083816D01*
X148318297Y-138248228D01*
X148254147Y-138403100D01*
X148161015Y-138542481D01*
X148042481Y-138661015D01*
X147903100Y-138754147D01*
X147748228Y-138818297D01*
X147583816Y-138851000D01*
X147416184Y-138851000D01*
X147251772Y-138818297D01*
X147096900Y-138754147D01*
X146957519Y-138661015D01*
X146838985Y-138542481D01*
X146745853Y-138403100D01*
X146681703Y-138248228D01*
X146649000Y-138083816D01*
X146649000Y-137916184D01*
X146681703Y-137751772D01*
X146745853Y-137596900D01*
X146838985Y-137457519D01*
X146957519Y-137338985D01*
X147096900Y-137245853D01*
X147251772Y-137181703D01*
X147416184Y-137149000D01*
X147583816Y-137149000D01*
X147748228Y-137181703D01*
G37*
G36*
X167548228Y-137181703D02*
G01*
X167703100Y-137245853D01*
X167842481Y-137338985D01*
X167961015Y-137457519D01*
X168054147Y-137596900D01*
X168118297Y-137751772D01*
X168151000Y-137916184D01*
X168151000Y-138083816D01*
X168118297Y-138248228D01*
X168054147Y-138403100D01*
X167961015Y-138542481D01*
X167842481Y-138661015D01*
X167703100Y-138754147D01*
X167548228Y-138818297D01*
X167383816Y-138851000D01*
X167216184Y-138851000D01*
X167051772Y-138818297D01*
X166896900Y-138754147D01*
X166757519Y-138661015D01*
X166638985Y-138542481D01*
X166545853Y-138403100D01*
X166481703Y-138248228D01*
X166449000Y-138083816D01*
X166449000Y-137916184D01*
X166481703Y-137751772D01*
X166545853Y-137596900D01*
X166638985Y-137457519D01*
X166757519Y-137338985D01*
X166896900Y-137245853D01*
X167051772Y-137181703D01*
X167216184Y-137149000D01*
X167383816Y-137149000D01*
X167548228Y-137181703D01*
G37*
G36*
X187748228Y-137181703D02*
G01*
X187903100Y-137245853D01*
X188042481Y-137338985D01*
X188161015Y-137457519D01*
X188254147Y-137596900D01*
X188318297Y-137751772D01*
X188351000Y-137916184D01*
X188351000Y-138083816D01*
X188318297Y-138248228D01*
X188254147Y-138403100D01*
X188161015Y-138542481D01*
X188042481Y-138661015D01*
X187903100Y-138754147D01*
X187748228Y-138818297D01*
X187583816Y-138851000D01*
X187416184Y-138851000D01*
X187251772Y-138818297D01*
X187096900Y-138754147D01*
X186957519Y-138661015D01*
X186838985Y-138542481D01*
X186745853Y-138403100D01*
X186681703Y-138248228D01*
X186649000Y-138083816D01*
X186649000Y-137916184D01*
X186681703Y-137751772D01*
X186745853Y-137596900D01*
X186838985Y-137457519D01*
X186957519Y-137338985D01*
X187096900Y-137245853D01*
X187251772Y-137181703D01*
X187416184Y-137149000D01*
X187583816Y-137149000D01*
X187748228Y-137181703D01*
G37*
G36*
X237731560Y-134879064D02*
G01*
X237883027Y-134909193D01*
X238097045Y-134997842D01*
X238097046Y-134997843D01*
X238289654Y-135126539D01*
X238453461Y-135290346D01*
X238539258Y-135418751D01*
X238582158Y-135482955D01*
X238670807Y-135696973D01*
X238716000Y-135924174D01*
X238716000Y-136155826D01*
X238670807Y-136383027D01*
X238582158Y-136597045D01*
X238582157Y-136597046D01*
X238453461Y-136789654D01*
X238289654Y-136953461D01*
X238161249Y-137039258D01*
X238097045Y-137082158D01*
X237883027Y-137170807D01*
X237731560Y-137200936D01*
X237655827Y-137216000D01*
X237424173Y-137216000D01*
X237348440Y-137200936D01*
X237196973Y-137170807D01*
X236982955Y-137082158D01*
X236918751Y-137039258D01*
X236790346Y-136953461D01*
X236626539Y-136789654D01*
X236497843Y-136597046D01*
X236497842Y-136597045D01*
X236409193Y-136383027D01*
X236364000Y-136155826D01*
X236364000Y-135924174D01*
X236409193Y-135696973D01*
X236497842Y-135482955D01*
X236540742Y-135418751D01*
X236626539Y-135290346D01*
X236790346Y-135126539D01*
X236982954Y-134997843D01*
X236982955Y-134997842D01*
X237196973Y-134909193D01*
X237348440Y-134879064D01*
X237424173Y-134864000D01*
X237655827Y-134864000D01*
X237731560Y-134879064D01*
G37*
G36*
X232651560Y-134879064D02*
G01*
X232803027Y-134909193D01*
X233017045Y-134997842D01*
X233017046Y-134997843D01*
X233209654Y-135126539D01*
X233373461Y-135290346D01*
X233459258Y-135418751D01*
X233502158Y-135482955D01*
X233590807Y-135696973D01*
X233636000Y-135924174D01*
X233636000Y-136155826D01*
X233590807Y-136383027D01*
X233502158Y-136597045D01*
X233502157Y-136597046D01*
X233373461Y-136789654D01*
X233209654Y-136953461D01*
X233081249Y-137039258D01*
X233017045Y-137082158D01*
X232803027Y-137170807D01*
X232651560Y-137200936D01*
X232575827Y-137216000D01*
X232344173Y-137216000D01*
X232268440Y-137200936D01*
X232116973Y-137170807D01*
X231902955Y-137082158D01*
X231838751Y-137039258D01*
X231710346Y-136953461D01*
X231546539Y-136789654D01*
X231417843Y-136597046D01*
X231417842Y-136597045D01*
X231329193Y-136383027D01*
X231284000Y-136155826D01*
X231284000Y-135924174D01*
X231329193Y-135696973D01*
X231417842Y-135482955D01*
X231460742Y-135418751D01*
X231546539Y-135290346D01*
X231710346Y-135126539D01*
X231902954Y-134997843D01*
X231902955Y-134997842D01*
X232116973Y-134909193D01*
X232268440Y-134879064D01*
X232344173Y-134864000D01*
X232575827Y-134864000D01*
X232651560Y-134879064D01*
G37*
G36*
X90697395Y-133405546D02*
G01*
X90870466Y-133477234D01*
X90870467Y-133477235D01*
X91026227Y-133581310D01*
X91158690Y-133713773D01*
X91158691Y-133713775D01*
X91262766Y-133869534D01*
X91334454Y-134042605D01*
X91371000Y-134226333D01*
X91371000Y-134413667D01*
X91334454Y-134597395D01*
X91262766Y-134770466D01*
X91262765Y-134770467D01*
X91158690Y-134926227D01*
X91026227Y-135058690D01*
X90947818Y-135111081D01*
X90870466Y-135162766D01*
X90697395Y-135234454D01*
X90513667Y-135271000D01*
X90326333Y-135271000D01*
X90142605Y-135234454D01*
X89969534Y-135162766D01*
X89892182Y-135111081D01*
X89813773Y-135058690D01*
X89681310Y-134926227D01*
X89577235Y-134770467D01*
X89577234Y-134770466D01*
X89505546Y-134597395D01*
X89469000Y-134413667D01*
X89469000Y-134226333D01*
X89505546Y-134042605D01*
X89577234Y-133869534D01*
X89681309Y-133713775D01*
X89681310Y-133713773D01*
X89813773Y-133581310D01*
X89969533Y-133477235D01*
X89969534Y-133477234D01*
X90142605Y-133405546D01*
X90326333Y-133369000D01*
X90513667Y-133369000D01*
X90697395Y-133405546D01*
G37*
G36*
X85617395Y-133405546D02*
G01*
X85790466Y-133477234D01*
X85790467Y-133477235D01*
X85946227Y-133581310D01*
X86078690Y-133713773D01*
X86078691Y-133713775D01*
X86182766Y-133869534D01*
X86254454Y-134042605D01*
X86291000Y-134226333D01*
X86291000Y-134413667D01*
X86254454Y-134597395D01*
X86182766Y-134770466D01*
X86182765Y-134770467D01*
X86078690Y-134926227D01*
X85946227Y-135058690D01*
X85867818Y-135111081D01*
X85790466Y-135162766D01*
X85617395Y-135234454D01*
X85433667Y-135271000D01*
X85246333Y-135271000D01*
X85062605Y-135234454D01*
X84889534Y-135162766D01*
X84812182Y-135111081D01*
X84733773Y-135058690D01*
X84601310Y-134926227D01*
X84497235Y-134770467D01*
X84497234Y-134770466D01*
X84425546Y-134597395D01*
X84389000Y-134413667D01*
X84389000Y-134226333D01*
X84425546Y-134042605D01*
X84497234Y-133869534D01*
X84601309Y-133713775D01*
X84601310Y-133713773D01*
X84733773Y-133581310D01*
X84889533Y-133477235D01*
X84889534Y-133477234D01*
X85062605Y-133405546D01*
X85246333Y-133369000D01*
X85433667Y-133369000D01*
X85617395Y-133405546D01*
G37*
G36*
X235191560Y-132339064D02*
G01*
X235343027Y-132369193D01*
X235557045Y-132457842D01*
X235557046Y-132457843D01*
X235749654Y-132586539D01*
X235913461Y-132750346D01*
X235999258Y-132878751D01*
X236042158Y-132942955D01*
X236130807Y-133156973D01*
X236176000Y-133384174D01*
X236176000Y-133615826D01*
X236130807Y-133843027D01*
X236042158Y-134057045D01*
X236042157Y-134057046D01*
X235913461Y-134249654D01*
X235749654Y-134413461D01*
X235621249Y-134499258D01*
X235557045Y-134542158D01*
X235343027Y-134630807D01*
X235191560Y-134660936D01*
X235115827Y-134676000D01*
X234884173Y-134676000D01*
X234808440Y-134660936D01*
X234656973Y-134630807D01*
X234442955Y-134542158D01*
X234378751Y-134499258D01*
X234250346Y-134413461D01*
X234086539Y-134249654D01*
X233957843Y-134057046D01*
X233957842Y-134057045D01*
X233869193Y-133843027D01*
X233824000Y-133615826D01*
X233824000Y-133384174D01*
X233869193Y-133156973D01*
X233957842Y-132942955D01*
X234000742Y-132878751D01*
X234086539Y-132750346D01*
X234250346Y-132586539D01*
X234442954Y-132457843D01*
X234442955Y-132457842D01*
X234656973Y-132369193D01*
X234808440Y-132339064D01*
X234884173Y-132324000D01*
X235115827Y-132324000D01*
X235191560Y-132339064D01*
G37*
G36*
X90697395Y-130865546D02*
G01*
X90870466Y-130937234D01*
X90870467Y-130937235D01*
X91026227Y-131041310D01*
X91158690Y-131173773D01*
X91171828Y-131193436D01*
X91262766Y-131329534D01*
X91334454Y-131502605D01*
X91371000Y-131686333D01*
X91371000Y-131873667D01*
X91334454Y-132057395D01*
X91262766Y-132230466D01*
X91262765Y-132230467D01*
X91158690Y-132386227D01*
X91026227Y-132518690D01*
X90977871Y-132551000D01*
X90870466Y-132622766D01*
X90697395Y-132694454D01*
X90513667Y-132731000D01*
X90326333Y-132731000D01*
X90142605Y-132694454D01*
X89969534Y-132622766D01*
X89862129Y-132551000D01*
X89813773Y-132518690D01*
X89681310Y-132386227D01*
X89577235Y-132230467D01*
X89577234Y-132230466D01*
X89505546Y-132057395D01*
X89469000Y-131873667D01*
X89469000Y-131686333D01*
X89505546Y-131502605D01*
X89577234Y-131329534D01*
X89668172Y-131193436D01*
X89681310Y-131173773D01*
X89813773Y-131041310D01*
X89969533Y-130937235D01*
X89969534Y-130937234D01*
X90142605Y-130865546D01*
X90326333Y-130829000D01*
X90513667Y-130829000D01*
X90697395Y-130865546D01*
G37*
G36*
X85617395Y-130865546D02*
G01*
X85790466Y-130937234D01*
X85790467Y-130937235D01*
X85946227Y-131041310D01*
X86078690Y-131173773D01*
X86091828Y-131193436D01*
X86182766Y-131329534D01*
X86254454Y-131502605D01*
X86291000Y-131686333D01*
X86291000Y-131873667D01*
X86254454Y-132057395D01*
X86182766Y-132230466D01*
X86182765Y-132230467D01*
X86078690Y-132386227D01*
X85946227Y-132518690D01*
X85897871Y-132551000D01*
X85790466Y-132622766D01*
X85617395Y-132694454D01*
X85433667Y-132731000D01*
X85246333Y-132731000D01*
X85062605Y-132694454D01*
X84889534Y-132622766D01*
X84782129Y-132551000D01*
X84733773Y-132518690D01*
X84601310Y-132386227D01*
X84497235Y-132230467D01*
X84497234Y-132230466D01*
X84425546Y-132057395D01*
X84389000Y-131873667D01*
X84389000Y-131686333D01*
X84425546Y-131502605D01*
X84497234Y-131329534D01*
X84588172Y-131193436D01*
X84601310Y-131173773D01*
X84733773Y-131041310D01*
X84889533Y-130937235D01*
X84889534Y-130937234D01*
X85062605Y-130865546D01*
X85246333Y-130829000D01*
X85433667Y-130829000D01*
X85617395Y-130865546D01*
G37*
G36*
X120206564Y-130489389D02*
G01*
X120397833Y-130568615D01*
X120397835Y-130568616D01*
X120470206Y-130616973D01*
X120569973Y-130683635D01*
X120716365Y-130830027D01*
X120831385Y-131002167D01*
X120910611Y-131193436D01*
X120951000Y-131396484D01*
X120951000Y-131603516D01*
X120910611Y-131806564D01*
X120882816Y-131873667D01*
X120831384Y-131997835D01*
X120716365Y-132169973D01*
X120569973Y-132316365D01*
X120397835Y-132431384D01*
X120397834Y-132431385D01*
X120397833Y-132431385D01*
X120206564Y-132510611D01*
X120003516Y-132551000D01*
X119796484Y-132551000D01*
X119593436Y-132510611D01*
X119402167Y-132431385D01*
X119402166Y-132431385D01*
X119402165Y-132431384D01*
X119230027Y-132316365D01*
X119083635Y-132169973D01*
X118968616Y-131997835D01*
X118917184Y-131873667D01*
X118889389Y-131806564D01*
X118849000Y-131603516D01*
X118849000Y-131396484D01*
X118889389Y-131193436D01*
X118968615Y-131002167D01*
X119083635Y-130830027D01*
X119230027Y-130683635D01*
X119329794Y-130616973D01*
X119402165Y-130568616D01*
X119402167Y-130568615D01*
X119593436Y-130489389D01*
X119796484Y-130449000D01*
X120003516Y-130449000D01*
X120206564Y-130489389D01*
G37*
G36*
X237731560Y-129799064D02*
G01*
X237883027Y-129829193D01*
X238097045Y-129917842D01*
X238097046Y-129917843D01*
X238289654Y-130046539D01*
X238453461Y-130210346D01*
X238539258Y-130338751D01*
X238582158Y-130402955D01*
X238670807Y-130616973D01*
X238716000Y-130844174D01*
X238716000Y-131075826D01*
X238670807Y-131303027D01*
X238582158Y-131517045D01*
X238582157Y-131517046D01*
X238453461Y-131709654D01*
X238289654Y-131873461D01*
X238161249Y-131959258D01*
X238097045Y-132002158D01*
X237883027Y-132090807D01*
X237731560Y-132120936D01*
X237655827Y-132136000D01*
X237424173Y-132136000D01*
X237348440Y-132120936D01*
X237196973Y-132090807D01*
X236982955Y-132002158D01*
X236918751Y-131959258D01*
X236790346Y-131873461D01*
X236626539Y-131709654D01*
X236497843Y-131517046D01*
X236497842Y-131517045D01*
X236409193Y-131303027D01*
X236364000Y-131075826D01*
X236364000Y-130844174D01*
X236409193Y-130616973D01*
X236497842Y-130402955D01*
X236540742Y-130338751D01*
X236626539Y-130210346D01*
X236790346Y-130046539D01*
X236982954Y-129917843D01*
X236982955Y-129917842D01*
X237196973Y-129829193D01*
X237348440Y-129799064D01*
X237424173Y-129784000D01*
X237655827Y-129784000D01*
X237731560Y-129799064D01*
G37*
G36*
X232651560Y-129799064D02*
G01*
X232803027Y-129829193D01*
X233017045Y-129917842D01*
X233017046Y-129917843D01*
X233209654Y-130046539D01*
X233373461Y-130210346D01*
X233459258Y-130338751D01*
X233502158Y-130402955D01*
X233590807Y-130616973D01*
X233636000Y-130844174D01*
X233636000Y-131075826D01*
X233590807Y-131303027D01*
X233502158Y-131517045D01*
X233502157Y-131517046D01*
X233373461Y-131709654D01*
X233209654Y-131873461D01*
X233081249Y-131959258D01*
X233017045Y-132002158D01*
X232803027Y-132090807D01*
X232651560Y-132120936D01*
X232575827Y-132136000D01*
X232344173Y-132136000D01*
X232268440Y-132120936D01*
X232116973Y-132090807D01*
X231902955Y-132002158D01*
X231838751Y-131959258D01*
X231710346Y-131873461D01*
X231546539Y-131709654D01*
X231417843Y-131517046D01*
X231417842Y-131517045D01*
X231329193Y-131303027D01*
X231284000Y-131075826D01*
X231284000Y-130844174D01*
X231329193Y-130616973D01*
X231417842Y-130402955D01*
X231460742Y-130338751D01*
X231546539Y-130210346D01*
X231710346Y-130046539D01*
X231902954Y-129917843D01*
X231902955Y-129917842D01*
X232116973Y-129829193D01*
X232268440Y-129799064D01*
X232344173Y-129784000D01*
X232575827Y-129784000D01*
X232651560Y-129799064D01*
G37*
G36*
X130113512Y-129183927D02*
G01*
X130262812Y-129213624D01*
X130426784Y-129281544D01*
X130574354Y-129380147D01*
X130699853Y-129505646D01*
X130798456Y-129653216D01*
X130866376Y-129817188D01*
X130901000Y-129991259D01*
X130901000Y-130168741D01*
X130866376Y-130342812D01*
X130798456Y-130506784D01*
X130699853Y-130654354D01*
X130574354Y-130779853D01*
X130426784Y-130878456D01*
X130262812Y-130946376D01*
X130113512Y-130976073D01*
X130088742Y-130981000D01*
X129911258Y-130981000D01*
X129886488Y-130976073D01*
X129737188Y-130946376D01*
X129573216Y-130878456D01*
X129425646Y-130779853D01*
X129300147Y-130654354D01*
X129201544Y-130506784D01*
X129133624Y-130342812D01*
X129099000Y-130168741D01*
X129099000Y-129991259D01*
X129133624Y-129817188D01*
X129201544Y-129653216D01*
X129300147Y-129505646D01*
X129425646Y-129380147D01*
X129573216Y-129281544D01*
X129737188Y-129213624D01*
X129886488Y-129183927D01*
X129911258Y-129179000D01*
X130088742Y-129179000D01*
X130113512Y-129183927D01*
G37*
G36*
X185748228Y-129181703D02*
G01*
X185903100Y-129245853D01*
X186042481Y-129338985D01*
X186161015Y-129457519D01*
X186254147Y-129596900D01*
X186318297Y-129751772D01*
X186351000Y-129916184D01*
X186351000Y-130083816D01*
X186318297Y-130248228D01*
X186254147Y-130403100D01*
X186161015Y-130542481D01*
X186042481Y-130661015D01*
X185903100Y-130754147D01*
X185748228Y-130818297D01*
X185583816Y-130851000D01*
X185416184Y-130851000D01*
X185251772Y-130818297D01*
X185096900Y-130754147D01*
X184957519Y-130661015D01*
X184838985Y-130542481D01*
X184745853Y-130403100D01*
X184681703Y-130248228D01*
X184649000Y-130083816D01*
X184649000Y-129916184D01*
X184681703Y-129751772D01*
X184745853Y-129596900D01*
X184838985Y-129457519D01*
X184957519Y-129338985D01*
X185096900Y-129245853D01*
X185251772Y-129181703D01*
X185416184Y-129149000D01*
X185583816Y-129149000D01*
X185748228Y-129181703D01*
G37*
G36*
X180748228Y-129181703D02*
G01*
X180903100Y-129245853D01*
X181042481Y-129338985D01*
X181161015Y-129457519D01*
X181254147Y-129596900D01*
X181318297Y-129751772D01*
X181351000Y-129916184D01*
X181351000Y-130083816D01*
X181318297Y-130248228D01*
X181254147Y-130403100D01*
X181161015Y-130542481D01*
X181042481Y-130661015D01*
X180903100Y-130754147D01*
X180748228Y-130818297D01*
X180583816Y-130851000D01*
X180416184Y-130851000D01*
X180251772Y-130818297D01*
X180096900Y-130754147D01*
X179957519Y-130661015D01*
X179838985Y-130542481D01*
X179745853Y-130403100D01*
X179681703Y-130248228D01*
X179649000Y-130083816D01*
X179649000Y-129916184D01*
X179681703Y-129751772D01*
X179745853Y-129596900D01*
X179838985Y-129457519D01*
X179957519Y-129338985D01*
X180096900Y-129245853D01*
X180251772Y-129181703D01*
X180416184Y-129149000D01*
X180583816Y-129149000D01*
X180748228Y-129181703D01*
G37*
G36*
X85617395Y-128325546D02*
G01*
X85790466Y-128397234D01*
X85790467Y-128397235D01*
X85946227Y-128501310D01*
X86078690Y-128633773D01*
X86078691Y-128633775D01*
X86182766Y-128789534D01*
X86254454Y-128962605D01*
X86291000Y-129146333D01*
X86291000Y-129333667D01*
X86254454Y-129517395D01*
X86182766Y-129690466D01*
X86182765Y-129690467D01*
X86078690Y-129846227D01*
X85946227Y-129978690D01*
X85927416Y-129991259D01*
X85790466Y-130082766D01*
X85617395Y-130154454D01*
X85433667Y-130191000D01*
X85246333Y-130191000D01*
X85062605Y-130154454D01*
X84889534Y-130082766D01*
X84752584Y-129991259D01*
X84733773Y-129978690D01*
X84601310Y-129846227D01*
X84497235Y-129690467D01*
X84497234Y-129690466D01*
X84425546Y-129517395D01*
X84389000Y-129333667D01*
X84389000Y-129146333D01*
X84425546Y-128962605D01*
X84497234Y-128789534D01*
X84601309Y-128633775D01*
X84601310Y-128633773D01*
X84733773Y-128501310D01*
X84889533Y-128397235D01*
X84889534Y-128397234D01*
X85062605Y-128325546D01*
X85246333Y-128289000D01*
X85433667Y-128289000D01*
X85617395Y-128325546D01*
G37*
G36*
X90697395Y-128325546D02*
G01*
X90870466Y-128397234D01*
X90870467Y-128397235D01*
X91026227Y-128501310D01*
X91158690Y-128633773D01*
X91158691Y-128633775D01*
X91262766Y-128789534D01*
X91334454Y-128962605D01*
X91371000Y-129146333D01*
X91371000Y-129333667D01*
X91334454Y-129517395D01*
X91262766Y-129690466D01*
X91262765Y-129690467D01*
X91158690Y-129846227D01*
X91026227Y-129978690D01*
X91007416Y-129991259D01*
X90870466Y-130082766D01*
X90697395Y-130154454D01*
X90513667Y-130191000D01*
X90326333Y-130191000D01*
X90142605Y-130154454D01*
X89969534Y-130082766D01*
X89832584Y-129991259D01*
X89813773Y-129978690D01*
X89681310Y-129846227D01*
X89577235Y-129690467D01*
X89577234Y-129690466D01*
X89505546Y-129517395D01*
X89469000Y-129333667D01*
X89469000Y-129146333D01*
X89505546Y-128962605D01*
X89577234Y-128789534D01*
X89681309Y-128633775D01*
X89681310Y-128633773D01*
X89813773Y-128501310D01*
X89969533Y-128397235D01*
X89969534Y-128397234D01*
X90142605Y-128325546D01*
X90326333Y-128289000D01*
X90513667Y-128289000D01*
X90697395Y-128325546D01*
G37*
G36*
X130113512Y-126643927D02*
G01*
X130262812Y-126673624D01*
X130426784Y-126741544D01*
X130574354Y-126840147D01*
X130699853Y-126965646D01*
X130798456Y-127113216D01*
X130866376Y-127277188D01*
X130901000Y-127451259D01*
X130901000Y-127628741D01*
X130866376Y-127802812D01*
X130798456Y-127966784D01*
X130699853Y-128114354D01*
X130574354Y-128239853D01*
X130426784Y-128338456D01*
X130262812Y-128406376D01*
X130113512Y-128436073D01*
X130088742Y-128441000D01*
X129911258Y-128441000D01*
X129886488Y-128436073D01*
X129737188Y-128406376D01*
X129573216Y-128338456D01*
X129425646Y-128239853D01*
X129300147Y-128114354D01*
X129201544Y-127966784D01*
X129133624Y-127802812D01*
X129099000Y-127628741D01*
X129099000Y-127451259D01*
X129133624Y-127277188D01*
X129201544Y-127113216D01*
X129300147Y-126965646D01*
X129425646Y-126840147D01*
X129573216Y-126741544D01*
X129737188Y-126673624D01*
X129886488Y-126643927D01*
X129911258Y-126639000D01*
X130088742Y-126639000D01*
X130113512Y-126643927D01*
G37*
G36*
X85617395Y-125785546D02*
G01*
X85790466Y-125857234D01*
X85790467Y-125857235D01*
X85946227Y-125961310D01*
X86078690Y-126093773D01*
X86078691Y-126093775D01*
X86182766Y-126249534D01*
X86254454Y-126422605D01*
X86291000Y-126606333D01*
X86291000Y-126793667D01*
X86254454Y-126977395D01*
X86182766Y-127150466D01*
X86182765Y-127150467D01*
X86078690Y-127306227D01*
X85946227Y-127438690D01*
X85927416Y-127451259D01*
X85790466Y-127542766D01*
X85617395Y-127614454D01*
X85433667Y-127651000D01*
X85246333Y-127651000D01*
X85062605Y-127614454D01*
X84889534Y-127542766D01*
X84752584Y-127451259D01*
X84733773Y-127438690D01*
X84601310Y-127306227D01*
X84497235Y-127150467D01*
X84497234Y-127150466D01*
X84425546Y-126977395D01*
X84389000Y-126793667D01*
X84389000Y-126606333D01*
X84425546Y-126422605D01*
X84497234Y-126249534D01*
X84601309Y-126093775D01*
X84601310Y-126093773D01*
X84733773Y-125961310D01*
X84889533Y-125857235D01*
X84889534Y-125857234D01*
X85062605Y-125785546D01*
X85246333Y-125749000D01*
X85433667Y-125749000D01*
X85617395Y-125785546D01*
G37*
G36*
X90697395Y-125785546D02*
G01*
X90870466Y-125857234D01*
X90870467Y-125857235D01*
X91026227Y-125961310D01*
X91158690Y-126093773D01*
X91158691Y-126093775D01*
X91262766Y-126249534D01*
X91334454Y-126422605D01*
X91371000Y-126606333D01*
X91371000Y-126793667D01*
X91334454Y-126977395D01*
X91262766Y-127150466D01*
X91262765Y-127150467D01*
X91158690Y-127306227D01*
X91026227Y-127438690D01*
X91007416Y-127451259D01*
X90870466Y-127542766D01*
X90697395Y-127614454D01*
X90513667Y-127651000D01*
X90326333Y-127651000D01*
X90142605Y-127614454D01*
X89969534Y-127542766D01*
X89832584Y-127451259D01*
X89813773Y-127438690D01*
X89681310Y-127306227D01*
X89577235Y-127150467D01*
X89577234Y-127150466D01*
X89505546Y-126977395D01*
X89469000Y-126793667D01*
X89469000Y-126606333D01*
X89505546Y-126422605D01*
X89577234Y-126249534D01*
X89681309Y-126093775D01*
X89681310Y-126093773D01*
X89813773Y-125961310D01*
X89969533Y-125857235D01*
X89969534Y-125857234D01*
X90142605Y-125785546D01*
X90326333Y-125749000D01*
X90513667Y-125749000D01*
X90697395Y-125785546D01*
G37*
G36*
X170713512Y-124983927D02*
G01*
X170862812Y-125013624D01*
X171026784Y-125081544D01*
X171174354Y-125180147D01*
X171299853Y-125305646D01*
X171398456Y-125453216D01*
X171466376Y-125617188D01*
X171492594Y-125749000D01*
X171500500Y-125788742D01*
X171501000Y-125791259D01*
X171501000Y-125968741D01*
X171466376Y-126142812D01*
X171398456Y-126306784D01*
X171299853Y-126454354D01*
X171174354Y-126579853D01*
X171026784Y-126678456D01*
X170862812Y-126746376D01*
X170713512Y-126776073D01*
X170688742Y-126781000D01*
X170511258Y-126781000D01*
X170486488Y-126776073D01*
X170337188Y-126746376D01*
X170173216Y-126678456D01*
X170025646Y-126579853D01*
X169900147Y-126454354D01*
X169801544Y-126306784D01*
X169733624Y-126142812D01*
X169699000Y-125968741D01*
X169699000Y-125791259D01*
X169699501Y-125788742D01*
X169707406Y-125749000D01*
X169733624Y-125617188D01*
X169801544Y-125453216D01*
X169900147Y-125305646D01*
X170025646Y-125180147D01*
X170173216Y-125081544D01*
X170337188Y-125013624D01*
X170486488Y-124983927D01*
X170511258Y-124979000D01*
X170688742Y-124979000D01*
X170713512Y-124983927D01*
G37*
G36*
X175313512Y-124803927D02*
G01*
X175462812Y-124833624D01*
X175626784Y-124901544D01*
X175774354Y-125000147D01*
X175899853Y-125125646D01*
X175998456Y-125273216D01*
X176066376Y-125437188D01*
X176096073Y-125586488D01*
X176101000Y-125611258D01*
X176101000Y-125788742D01*
X176100499Y-125791259D01*
X176066376Y-125962812D01*
X175998456Y-126126784D01*
X175899853Y-126274354D01*
X175774354Y-126399853D01*
X175626784Y-126498456D01*
X175462812Y-126566376D01*
X175313512Y-126596073D01*
X175288742Y-126601000D01*
X175111258Y-126601000D01*
X175086488Y-126596073D01*
X174937188Y-126566376D01*
X174773216Y-126498456D01*
X174625646Y-126399853D01*
X174500147Y-126274354D01*
X174401544Y-126126784D01*
X174333624Y-125962812D01*
X174299501Y-125791259D01*
X174299000Y-125788742D01*
X174299000Y-125611258D01*
X174303927Y-125586488D01*
X174333624Y-125437188D01*
X174401544Y-125273216D01*
X174500147Y-125125646D01*
X174625646Y-125000147D01*
X174773216Y-124901544D01*
X174937188Y-124833624D01*
X175086488Y-124803927D01*
X175111258Y-124799000D01*
X175288742Y-124799000D01*
X175313512Y-124803927D01*
G37*
G36*
X130901000Y-125901000D02*
G01*
X129099000Y-125901000D01*
X129099000Y-124099000D01*
X130901000Y-124099000D01*
X130901000Y-125901000D01*
G37*
G36*
X90697395Y-123245546D02*
G01*
X90870466Y-123317234D01*
X90870467Y-123317235D01*
X91026227Y-123421310D01*
X91158690Y-123553773D01*
X91158691Y-123553775D01*
X91262766Y-123709534D01*
X91334454Y-123882605D01*
X91371000Y-124066333D01*
X91371000Y-124253667D01*
X91334454Y-124437395D01*
X91262766Y-124610466D01*
X91262765Y-124610467D01*
X91158690Y-124766227D01*
X91026227Y-124898690D01*
X90947818Y-124951081D01*
X90870466Y-125002766D01*
X90697395Y-125074454D01*
X90513667Y-125111000D01*
X90326333Y-125111000D01*
X90142605Y-125074454D01*
X89969534Y-125002766D01*
X89892182Y-124951081D01*
X89813773Y-124898690D01*
X89681310Y-124766227D01*
X89577235Y-124610467D01*
X89577234Y-124610466D01*
X89505546Y-124437395D01*
X89469000Y-124253667D01*
X89469000Y-124066333D01*
X89505546Y-123882605D01*
X89577234Y-123709534D01*
X89681309Y-123553775D01*
X89681310Y-123553773D01*
X89813773Y-123421310D01*
X89969533Y-123317235D01*
X89969534Y-123317234D01*
X90142605Y-123245546D01*
X90326333Y-123209000D01*
X90513667Y-123209000D01*
X90697395Y-123245546D01*
G37*
G36*
X85617395Y-123245546D02*
G01*
X85790466Y-123317234D01*
X85790467Y-123317235D01*
X85946227Y-123421310D01*
X86078690Y-123553773D01*
X86078691Y-123553775D01*
X86182766Y-123709534D01*
X86254454Y-123882605D01*
X86291000Y-124066333D01*
X86291000Y-124253667D01*
X86254454Y-124437395D01*
X86182766Y-124610466D01*
X86182765Y-124610467D01*
X86078690Y-124766227D01*
X85946227Y-124898690D01*
X85867818Y-124951081D01*
X85790466Y-125002766D01*
X85617395Y-125074454D01*
X85433667Y-125111000D01*
X85246333Y-125111000D01*
X85062605Y-125074454D01*
X84889534Y-125002766D01*
X84812182Y-124951081D01*
X84733773Y-124898690D01*
X84601310Y-124766227D01*
X84497235Y-124610467D01*
X84497234Y-124610466D01*
X84425546Y-124437395D01*
X84389000Y-124253667D01*
X84389000Y-124066333D01*
X84425546Y-123882605D01*
X84497234Y-123709534D01*
X84601309Y-123553775D01*
X84601310Y-123553773D01*
X84733773Y-123421310D01*
X84889533Y-123317235D01*
X84889534Y-123317234D01*
X85062605Y-123245546D01*
X85246333Y-123209000D01*
X85433667Y-123209000D01*
X85617395Y-123245546D01*
G37*
G36*
X170713512Y-122443927D02*
G01*
X170862812Y-122473624D01*
X171026784Y-122541544D01*
X171174354Y-122640147D01*
X171299853Y-122765646D01*
X171398456Y-122913216D01*
X171466376Y-123077188D01*
X171492594Y-123209000D01*
X171500500Y-123248742D01*
X171501000Y-123251259D01*
X171501000Y-123428741D01*
X171466376Y-123602812D01*
X171398456Y-123766784D01*
X171299853Y-123914354D01*
X171174354Y-124039853D01*
X171026784Y-124138456D01*
X170862812Y-124206376D01*
X170713512Y-124236073D01*
X170688742Y-124241000D01*
X170511258Y-124241000D01*
X170486488Y-124236073D01*
X170337188Y-124206376D01*
X170173216Y-124138456D01*
X170025646Y-124039853D01*
X169900147Y-123914354D01*
X169801544Y-123766784D01*
X169733624Y-123602812D01*
X169699000Y-123428741D01*
X169699000Y-123251259D01*
X169699501Y-123248742D01*
X169707406Y-123209000D01*
X169733624Y-123077188D01*
X169801544Y-122913216D01*
X169900147Y-122765646D01*
X170025646Y-122640147D01*
X170173216Y-122541544D01*
X170337188Y-122473624D01*
X170486488Y-122443927D01*
X170511258Y-122439000D01*
X170688742Y-122439000D01*
X170713512Y-122443927D01*
G37*
G36*
X175313512Y-122263927D02*
G01*
X175462812Y-122293624D01*
X175626784Y-122361544D01*
X175774354Y-122460147D01*
X175899853Y-122585646D01*
X175998456Y-122733216D01*
X176066376Y-122897188D01*
X176096073Y-123046488D01*
X176101000Y-123071258D01*
X176101000Y-123248742D01*
X176100499Y-123251259D01*
X176066376Y-123422812D01*
X175998456Y-123586784D01*
X175899853Y-123734354D01*
X175774354Y-123859853D01*
X175626784Y-123958456D01*
X175462812Y-124026376D01*
X175313512Y-124056073D01*
X175288742Y-124061000D01*
X175111258Y-124061000D01*
X175086488Y-124056073D01*
X174937188Y-124026376D01*
X174773216Y-123958456D01*
X174625646Y-123859853D01*
X174500147Y-123734354D01*
X174401544Y-123586784D01*
X174333624Y-123422812D01*
X174299501Y-123251259D01*
X174299000Y-123248742D01*
X174299000Y-123071258D01*
X174303927Y-123046488D01*
X174333624Y-122897188D01*
X174401544Y-122733216D01*
X174500147Y-122585646D01*
X174625646Y-122460147D01*
X174773216Y-122361544D01*
X174937188Y-122293624D01*
X175086488Y-122263927D01*
X175111258Y-122259000D01*
X175288742Y-122259000D01*
X175313512Y-122263927D01*
G37*
G36*
X90697395Y-120705546D02*
G01*
X90870466Y-120777234D01*
X90870467Y-120777235D01*
X91026227Y-120881310D01*
X91158690Y-121013773D01*
X91158691Y-121013775D01*
X91262766Y-121169534D01*
X91334454Y-121342605D01*
X91371000Y-121526333D01*
X91371000Y-121713667D01*
X91334454Y-121897395D01*
X91262766Y-122070466D01*
X91262765Y-122070467D01*
X91158690Y-122226227D01*
X91026227Y-122358690D01*
X90947818Y-122411081D01*
X90870466Y-122462766D01*
X90697395Y-122534454D01*
X90513667Y-122571000D01*
X90326333Y-122571000D01*
X90142605Y-122534454D01*
X89969534Y-122462766D01*
X89892182Y-122411081D01*
X89813773Y-122358690D01*
X89681310Y-122226227D01*
X89577235Y-122070467D01*
X89577234Y-122070466D01*
X89505546Y-121897395D01*
X89469000Y-121713667D01*
X89469000Y-121526333D01*
X89505546Y-121342605D01*
X89577234Y-121169534D01*
X89681309Y-121013775D01*
X89681310Y-121013773D01*
X89813773Y-120881310D01*
X89969533Y-120777235D01*
X89969534Y-120777234D01*
X90142605Y-120705546D01*
X90326333Y-120669000D01*
X90513667Y-120669000D01*
X90697395Y-120705546D01*
G37*
G36*
X85617395Y-120705546D02*
G01*
X85790466Y-120777234D01*
X85790467Y-120777235D01*
X85946227Y-120881310D01*
X86078690Y-121013773D01*
X86078691Y-121013775D01*
X86182766Y-121169534D01*
X86254454Y-121342605D01*
X86291000Y-121526333D01*
X86291000Y-121713667D01*
X86254454Y-121897395D01*
X86182766Y-122070466D01*
X86182765Y-122070467D01*
X86078690Y-122226227D01*
X85946227Y-122358690D01*
X85867818Y-122411081D01*
X85790466Y-122462766D01*
X85617395Y-122534454D01*
X85433667Y-122571000D01*
X85246333Y-122571000D01*
X85062605Y-122534454D01*
X84889534Y-122462766D01*
X84812182Y-122411081D01*
X84733773Y-122358690D01*
X84601310Y-122226227D01*
X84497235Y-122070467D01*
X84497234Y-122070466D01*
X84425546Y-121897395D01*
X84389000Y-121713667D01*
X84389000Y-121526333D01*
X84425546Y-121342605D01*
X84497234Y-121169534D01*
X84601309Y-121013775D01*
X84601310Y-121013773D01*
X84733773Y-120881310D01*
X84889533Y-120777235D01*
X84889534Y-120777234D01*
X85062605Y-120705546D01*
X85246333Y-120669000D01*
X85433667Y-120669000D01*
X85617395Y-120705546D01*
G37*
G36*
X171501000Y-121701000D02*
G01*
X169699000Y-121701000D01*
X169699000Y-119899000D01*
X171501000Y-119899000D01*
X171501000Y-121701000D01*
G37*
G36*
X176101000Y-121521000D02*
G01*
X174299000Y-121521000D01*
X174299000Y-119719000D01*
X176101000Y-119719000D01*
X176101000Y-121521000D01*
G37*
G36*
X85617395Y-118165546D02*
G01*
X85790466Y-118237234D01*
X85790467Y-118237235D01*
X85946227Y-118341310D01*
X86078690Y-118473773D01*
X86078691Y-118473775D01*
X86182766Y-118629534D01*
X86254454Y-118802605D01*
X86291000Y-118986333D01*
X86291000Y-119173667D01*
X86254454Y-119357395D01*
X86182766Y-119530466D01*
X86182765Y-119530467D01*
X86078690Y-119686227D01*
X85946227Y-119818690D01*
X85867818Y-119871081D01*
X85790466Y-119922766D01*
X85617395Y-119994454D01*
X85433667Y-120031000D01*
X85246333Y-120031000D01*
X85062605Y-119994454D01*
X84889534Y-119922766D01*
X84812182Y-119871081D01*
X84733773Y-119818690D01*
X84601310Y-119686227D01*
X84497235Y-119530467D01*
X84497234Y-119530466D01*
X84425546Y-119357395D01*
X84389000Y-119173667D01*
X84389000Y-118986333D01*
X84425546Y-118802605D01*
X84497234Y-118629534D01*
X84601309Y-118473775D01*
X84601310Y-118473773D01*
X84733773Y-118341310D01*
X84889533Y-118237235D01*
X84889534Y-118237234D01*
X85062605Y-118165546D01*
X85246333Y-118129000D01*
X85433667Y-118129000D01*
X85617395Y-118165546D01*
G37*
G36*
X90697395Y-118165546D02*
G01*
X90870466Y-118237234D01*
X90870467Y-118237235D01*
X91026227Y-118341310D01*
X91158690Y-118473773D01*
X91158691Y-118473775D01*
X91262766Y-118629534D01*
X91334454Y-118802605D01*
X91371000Y-118986333D01*
X91371000Y-119173667D01*
X91334454Y-119357395D01*
X91262766Y-119530466D01*
X91262765Y-119530467D01*
X91158690Y-119686227D01*
X91026227Y-119818690D01*
X90947818Y-119871081D01*
X90870466Y-119922766D01*
X90697395Y-119994454D01*
X90513667Y-120031000D01*
X90326333Y-120031000D01*
X90142605Y-119994454D01*
X89969534Y-119922766D01*
X89892182Y-119871081D01*
X89813773Y-119818690D01*
X89681310Y-119686227D01*
X89577235Y-119530467D01*
X89577234Y-119530466D01*
X89505546Y-119357395D01*
X89469000Y-119173667D01*
X89469000Y-118986333D01*
X89505546Y-118802605D01*
X89577234Y-118629534D01*
X89681309Y-118473775D01*
X89681310Y-118473773D01*
X89813773Y-118341310D01*
X89969533Y-118237235D01*
X89969534Y-118237234D01*
X90142605Y-118165546D01*
X90326333Y-118129000D01*
X90513667Y-118129000D01*
X90697395Y-118165546D01*
G37*
G36*
X120206564Y-117089389D02*
G01*
X120343783Y-117146227D01*
X120397835Y-117168616D01*
X120562572Y-117278690D01*
X120569973Y-117283635D01*
X120716365Y-117430027D01*
X120831385Y-117602167D01*
X120910611Y-117793436D01*
X120951000Y-117996484D01*
X120951000Y-118203516D01*
X120910611Y-118406564D01*
X120882772Y-118473773D01*
X120831384Y-118597835D01*
X120716365Y-118769973D01*
X120569973Y-118916365D01*
X120397835Y-119031384D01*
X120397834Y-119031385D01*
X120397833Y-119031385D01*
X120206564Y-119110611D01*
X120003516Y-119151000D01*
X119796484Y-119151000D01*
X119593436Y-119110611D01*
X119402167Y-119031385D01*
X119402166Y-119031385D01*
X119402165Y-119031384D01*
X119230027Y-118916365D01*
X119083635Y-118769973D01*
X118968616Y-118597835D01*
X118917228Y-118473773D01*
X118889389Y-118406564D01*
X118849000Y-118203516D01*
X118849000Y-117996484D01*
X118889389Y-117793436D01*
X118968615Y-117602167D01*
X119083635Y-117430027D01*
X119230027Y-117283635D01*
X119237428Y-117278690D01*
X119402165Y-117168616D01*
X119456217Y-117146227D01*
X119593436Y-117089389D01*
X119796484Y-117049000D01*
X120003516Y-117049000D01*
X120206564Y-117089389D01*
G37*
G36*
X85617395Y-115625546D02*
G01*
X85790466Y-115697234D01*
X85790467Y-115697235D01*
X85946227Y-115801310D01*
X86078690Y-115933773D01*
X86078691Y-115933775D01*
X86182766Y-116089534D01*
X86254454Y-116262605D01*
X86291000Y-116446333D01*
X86291000Y-116633667D01*
X86254454Y-116817395D01*
X86182766Y-116990466D01*
X86182765Y-116990467D01*
X86078690Y-117146227D01*
X85946227Y-117278690D01*
X85938826Y-117283635D01*
X85790466Y-117382766D01*
X85617395Y-117454454D01*
X85433667Y-117491000D01*
X85246333Y-117491000D01*
X85062605Y-117454454D01*
X84889534Y-117382766D01*
X84741174Y-117283635D01*
X84733773Y-117278690D01*
X84601310Y-117146227D01*
X84497235Y-116990467D01*
X84497234Y-116990466D01*
X84425546Y-116817395D01*
X84389000Y-116633667D01*
X84389000Y-116446333D01*
X84425546Y-116262605D01*
X84497234Y-116089534D01*
X84601309Y-115933775D01*
X84601310Y-115933773D01*
X84733773Y-115801310D01*
X84889533Y-115697235D01*
X84889534Y-115697234D01*
X85062605Y-115625546D01*
X85246333Y-115589000D01*
X85433667Y-115589000D01*
X85617395Y-115625546D01*
G37*
G36*
X90697395Y-115625546D02*
G01*
X90870466Y-115697234D01*
X90870467Y-115697235D01*
X91026227Y-115801310D01*
X91158690Y-115933773D01*
X91158691Y-115933775D01*
X91262766Y-116089534D01*
X91334454Y-116262605D01*
X91371000Y-116446333D01*
X91371000Y-116633667D01*
X91334454Y-116817395D01*
X91262766Y-116990466D01*
X91262765Y-116990467D01*
X91158690Y-117146227D01*
X91026227Y-117278690D01*
X91018826Y-117283635D01*
X90870466Y-117382766D01*
X90697395Y-117454454D01*
X90513667Y-117491000D01*
X90326333Y-117491000D01*
X90142605Y-117454454D01*
X89969534Y-117382766D01*
X89821174Y-117283635D01*
X89813773Y-117278690D01*
X89681310Y-117146227D01*
X89577235Y-116990467D01*
X89577234Y-116990466D01*
X89505546Y-116817395D01*
X89469000Y-116633667D01*
X89469000Y-116446333D01*
X89505546Y-116262605D01*
X89577234Y-116089534D01*
X89681309Y-115933775D01*
X89681310Y-115933773D01*
X89813773Y-115801310D01*
X89969533Y-115697235D01*
X89969534Y-115697234D01*
X90142605Y-115625546D01*
X90326333Y-115589000D01*
X90513667Y-115589000D01*
X90697395Y-115625546D01*
G37*
G36*
X232651560Y-113979064D02*
G01*
X232803027Y-114009193D01*
X233017045Y-114097842D01*
X233017046Y-114097843D01*
X233209654Y-114226539D01*
X233373461Y-114390346D01*
X233413632Y-114450467D01*
X233502158Y-114582955D01*
X233590807Y-114796973D01*
X233636000Y-115024174D01*
X233636000Y-115255826D01*
X233590807Y-115483027D01*
X233502158Y-115697045D01*
X233502031Y-115697235D01*
X233373461Y-115889654D01*
X233209654Y-116053461D01*
X233081249Y-116139258D01*
X233017045Y-116182158D01*
X232803027Y-116270807D01*
X232651560Y-116300936D01*
X232575827Y-116316000D01*
X232344173Y-116316000D01*
X232268440Y-116300936D01*
X232116973Y-116270807D01*
X231902955Y-116182158D01*
X231838751Y-116139258D01*
X231710346Y-116053461D01*
X231546539Y-115889654D01*
X231417969Y-115697235D01*
X231417842Y-115697045D01*
X231329193Y-115483027D01*
X231284000Y-115255826D01*
X231284000Y-115024174D01*
X231329193Y-114796973D01*
X231417842Y-114582955D01*
X231506368Y-114450467D01*
X231546539Y-114390346D01*
X231710346Y-114226539D01*
X231902954Y-114097843D01*
X231902955Y-114097842D01*
X232116973Y-114009193D01*
X232268440Y-113979064D01*
X232344173Y-113964000D01*
X232575827Y-113964000D01*
X232651560Y-113979064D01*
G37*
G36*
X237731560Y-113979064D02*
G01*
X237883027Y-114009193D01*
X238097045Y-114097842D01*
X238097046Y-114097843D01*
X238289654Y-114226539D01*
X238453461Y-114390346D01*
X238493632Y-114450467D01*
X238582158Y-114582955D01*
X238670807Y-114796973D01*
X238716000Y-115024174D01*
X238716000Y-115255826D01*
X238670807Y-115483027D01*
X238582158Y-115697045D01*
X238582031Y-115697235D01*
X238453461Y-115889654D01*
X238289654Y-116053461D01*
X238161249Y-116139258D01*
X238097045Y-116182158D01*
X237883027Y-116270807D01*
X237731560Y-116300936D01*
X237655827Y-116316000D01*
X237424173Y-116316000D01*
X237348440Y-116300936D01*
X237196973Y-116270807D01*
X236982955Y-116182158D01*
X236918751Y-116139258D01*
X236790346Y-116053461D01*
X236626539Y-115889654D01*
X236497969Y-115697235D01*
X236497842Y-115697045D01*
X236409193Y-115483027D01*
X236364000Y-115255826D01*
X236364000Y-115024174D01*
X236409193Y-114796973D01*
X236497842Y-114582955D01*
X236586368Y-114450467D01*
X236626539Y-114390346D01*
X236790346Y-114226539D01*
X236982954Y-114097843D01*
X236982955Y-114097842D01*
X237196973Y-114009193D01*
X237348440Y-113979064D01*
X237424173Y-113964000D01*
X237655827Y-113964000D01*
X237731560Y-113979064D01*
G37*
G36*
X151731560Y-112679064D02*
G01*
X151883027Y-112709193D01*
X152097045Y-112797842D01*
X152097046Y-112797843D01*
X152289654Y-112926539D01*
X152453461Y-113090346D01*
X152539258Y-113218751D01*
X152582158Y-113282955D01*
X152670807Y-113496973D01*
X152716000Y-113724174D01*
X152716000Y-113955826D01*
X152670807Y-114183027D01*
X152582158Y-114397045D01*
X152582157Y-114397046D01*
X152453461Y-114589654D01*
X152289654Y-114753461D01*
X152224533Y-114796973D01*
X152097045Y-114882158D01*
X151883027Y-114970807D01*
X151731560Y-115000936D01*
X151655827Y-115016000D01*
X151424173Y-115016000D01*
X151348440Y-115000936D01*
X151196973Y-114970807D01*
X150982955Y-114882158D01*
X150855467Y-114796973D01*
X150790346Y-114753461D01*
X150626539Y-114589654D01*
X150497843Y-114397046D01*
X150497842Y-114397045D01*
X150409193Y-114183027D01*
X150364000Y-113955826D01*
X150364000Y-113724174D01*
X150409193Y-113496973D01*
X150497842Y-113282955D01*
X150540742Y-113218751D01*
X150626539Y-113090346D01*
X150790346Y-112926539D01*
X150982954Y-112797843D01*
X150982955Y-112797842D01*
X151196973Y-112709193D01*
X151348440Y-112679064D01*
X151424173Y-112664000D01*
X151655827Y-112664000D01*
X151731560Y-112679064D01*
G37*
G36*
X146651560Y-112679064D02*
G01*
X146803027Y-112709193D01*
X147017045Y-112797842D01*
X147017046Y-112797843D01*
X147209654Y-112926539D01*
X147373461Y-113090346D01*
X147459258Y-113218751D01*
X147502158Y-113282955D01*
X147590807Y-113496973D01*
X147636000Y-113724174D01*
X147636000Y-113955826D01*
X147590807Y-114183027D01*
X147502158Y-114397045D01*
X147502157Y-114397046D01*
X147373461Y-114589654D01*
X147209654Y-114753461D01*
X147144533Y-114796973D01*
X147017045Y-114882158D01*
X146803027Y-114970807D01*
X146651560Y-115000936D01*
X146575827Y-115016000D01*
X146344173Y-115016000D01*
X146268440Y-115000936D01*
X146116973Y-114970807D01*
X145902955Y-114882158D01*
X145775467Y-114796973D01*
X145710346Y-114753461D01*
X145546539Y-114589654D01*
X145417843Y-114397046D01*
X145417842Y-114397045D01*
X145329193Y-114183027D01*
X145284000Y-113955826D01*
X145284000Y-113724174D01*
X145329193Y-113496973D01*
X145417842Y-113282955D01*
X145460742Y-113218751D01*
X145546539Y-113090346D01*
X145710346Y-112926539D01*
X145902954Y-112797843D01*
X145902955Y-112797842D01*
X146116973Y-112709193D01*
X146268440Y-112679064D01*
X146344173Y-112664000D01*
X146575827Y-112664000D01*
X146651560Y-112679064D01*
G37*
G36*
X85617395Y-113085546D02*
G01*
X85790466Y-113157234D01*
X85790467Y-113157235D01*
X85946227Y-113261310D01*
X86078690Y-113393773D01*
X86078691Y-113393775D01*
X86182766Y-113549534D01*
X86254454Y-113722605D01*
X86291000Y-113906333D01*
X86291000Y-114093667D01*
X86254454Y-114277395D01*
X86182766Y-114450466D01*
X86182765Y-114450467D01*
X86078690Y-114606227D01*
X85946227Y-114738690D01*
X85867818Y-114791081D01*
X85790466Y-114842766D01*
X85617395Y-114914454D01*
X85433667Y-114951000D01*
X85246333Y-114951000D01*
X85062605Y-114914454D01*
X84889534Y-114842766D01*
X84812182Y-114791081D01*
X84733773Y-114738690D01*
X84601310Y-114606227D01*
X84497235Y-114450467D01*
X84497234Y-114450466D01*
X84425546Y-114277395D01*
X84389000Y-114093667D01*
X84389000Y-113906333D01*
X84425546Y-113722605D01*
X84497234Y-113549534D01*
X84601309Y-113393775D01*
X84601310Y-113393773D01*
X84733773Y-113261310D01*
X84889533Y-113157235D01*
X84889534Y-113157234D01*
X85062605Y-113085546D01*
X85246333Y-113049000D01*
X85433667Y-113049000D01*
X85617395Y-113085546D01*
G37*
G36*
X90697395Y-113085546D02*
G01*
X90870466Y-113157234D01*
X90870467Y-113157235D01*
X91026227Y-113261310D01*
X91158690Y-113393773D01*
X91158691Y-113393775D01*
X91262766Y-113549534D01*
X91334454Y-113722605D01*
X91371000Y-113906333D01*
X91371000Y-114093667D01*
X91334454Y-114277395D01*
X91262766Y-114450466D01*
X91262765Y-114450467D01*
X91158690Y-114606227D01*
X91026227Y-114738690D01*
X90947818Y-114791081D01*
X90870466Y-114842766D01*
X90697395Y-114914454D01*
X90513667Y-114951000D01*
X90326333Y-114951000D01*
X90142605Y-114914454D01*
X89969534Y-114842766D01*
X89892182Y-114791081D01*
X89813773Y-114738690D01*
X89681310Y-114606227D01*
X89577235Y-114450467D01*
X89577234Y-114450466D01*
X89505546Y-114277395D01*
X89469000Y-114093667D01*
X89469000Y-113906333D01*
X89505546Y-113722605D01*
X89577234Y-113549534D01*
X89681309Y-113393775D01*
X89681310Y-113393773D01*
X89813773Y-113261310D01*
X89969533Y-113157235D01*
X89969534Y-113157234D01*
X90142605Y-113085546D01*
X90326333Y-113049000D01*
X90513667Y-113049000D01*
X90697395Y-113085546D01*
G37*
G36*
X235191560Y-111439064D02*
G01*
X235343027Y-111469193D01*
X235557045Y-111557842D01*
X235557046Y-111557843D01*
X235749654Y-111686539D01*
X235913461Y-111850346D01*
X235953632Y-111910467D01*
X236042158Y-112042955D01*
X236130807Y-112256973D01*
X236176000Y-112484174D01*
X236176000Y-112715826D01*
X236130807Y-112943027D01*
X236042158Y-113157045D01*
X236042031Y-113157235D01*
X235913461Y-113349654D01*
X235749654Y-113513461D01*
X235621249Y-113599258D01*
X235557045Y-113642158D01*
X235343027Y-113730807D01*
X235191560Y-113760936D01*
X235115827Y-113776000D01*
X234884173Y-113776000D01*
X234808440Y-113760936D01*
X234656973Y-113730807D01*
X234442955Y-113642158D01*
X234378751Y-113599258D01*
X234250346Y-113513461D01*
X234086539Y-113349654D01*
X233957969Y-113157235D01*
X233957842Y-113157045D01*
X233869193Y-112943027D01*
X233824000Y-112715826D01*
X233824000Y-112484174D01*
X233869193Y-112256973D01*
X233957842Y-112042955D01*
X234046368Y-111910467D01*
X234086539Y-111850346D01*
X234250346Y-111686539D01*
X234442954Y-111557843D01*
X234442955Y-111557842D01*
X234656973Y-111469193D01*
X234808440Y-111439064D01*
X234884173Y-111424000D01*
X235115827Y-111424000D01*
X235191560Y-111439064D01*
G37*
G36*
X85617395Y-110545546D02*
G01*
X85790466Y-110617234D01*
X85790467Y-110617235D01*
X85946227Y-110721310D01*
X86078690Y-110853773D01*
X86078691Y-110853775D01*
X86182766Y-111009534D01*
X86254454Y-111182605D01*
X86291000Y-111366333D01*
X86291000Y-111553667D01*
X86254454Y-111737395D01*
X86182766Y-111910466D01*
X86182765Y-111910467D01*
X86078690Y-112066227D01*
X85946227Y-112198690D01*
X85867818Y-112251081D01*
X85790466Y-112302766D01*
X85617395Y-112374454D01*
X85433667Y-112411000D01*
X85246333Y-112411000D01*
X85062605Y-112374454D01*
X84889534Y-112302766D01*
X84812182Y-112251081D01*
X84733773Y-112198690D01*
X84601310Y-112066227D01*
X84497235Y-111910467D01*
X84497234Y-111910466D01*
X84425546Y-111737395D01*
X84389000Y-111553667D01*
X84389000Y-111366333D01*
X84425546Y-111182605D01*
X84497234Y-111009534D01*
X84601309Y-110853775D01*
X84601310Y-110853773D01*
X84733773Y-110721310D01*
X84889533Y-110617235D01*
X84889534Y-110617234D01*
X85062605Y-110545546D01*
X85246333Y-110509000D01*
X85433667Y-110509000D01*
X85617395Y-110545546D01*
G37*
G36*
X90697395Y-110545546D02*
G01*
X90870466Y-110617234D01*
X90870467Y-110617235D01*
X91026227Y-110721310D01*
X91158690Y-110853773D01*
X91158691Y-110853775D01*
X91262766Y-111009534D01*
X91334454Y-111182605D01*
X91371000Y-111366333D01*
X91371000Y-111553667D01*
X91334454Y-111737395D01*
X91262766Y-111910466D01*
X91262765Y-111910467D01*
X91158690Y-112066227D01*
X91026227Y-112198690D01*
X90947818Y-112251081D01*
X90870466Y-112302766D01*
X90697395Y-112374454D01*
X90513667Y-112411000D01*
X90326333Y-112411000D01*
X90142605Y-112374454D01*
X89969534Y-112302766D01*
X89892182Y-112251081D01*
X89813773Y-112198690D01*
X89681310Y-112066227D01*
X89577235Y-111910467D01*
X89577234Y-111910466D01*
X89505546Y-111737395D01*
X89469000Y-111553667D01*
X89469000Y-111366333D01*
X89505546Y-111182605D01*
X89577234Y-111009534D01*
X89681309Y-110853775D01*
X89681310Y-110853773D01*
X89813773Y-110721310D01*
X89969533Y-110617235D01*
X89969534Y-110617234D01*
X90142605Y-110545546D01*
X90326333Y-110509000D01*
X90513667Y-110509000D01*
X90697395Y-110545546D01*
G37*
G36*
X149175271Y-110237783D02*
G01*
X149313858Y-110265350D01*
X149509677Y-110346461D01*
X149685910Y-110464216D01*
X149835784Y-110614090D01*
X149953539Y-110790323D01*
X150034650Y-110986142D01*
X150076000Y-111194023D01*
X150076000Y-111405977D01*
X150034650Y-111613858D01*
X149953539Y-111809677D01*
X149835784Y-111985910D01*
X149685910Y-112135784D01*
X149509677Y-112253539D01*
X149313858Y-112334650D01*
X149175271Y-112362217D01*
X149105978Y-112376000D01*
X148894022Y-112376000D01*
X148824729Y-112362217D01*
X148686142Y-112334650D01*
X148490323Y-112253539D01*
X148314090Y-112135784D01*
X148164216Y-111985910D01*
X148046461Y-111809677D01*
X147965350Y-111613858D01*
X147924000Y-111405977D01*
X147924000Y-111194023D01*
X147965350Y-110986142D01*
X148046461Y-110790323D01*
X148164216Y-110614090D01*
X148314090Y-110464216D01*
X148490323Y-110346461D01*
X148686142Y-110265350D01*
X148824729Y-110237783D01*
X148894022Y-110224000D01*
X149105978Y-110224000D01*
X149175271Y-110237783D01*
G37*
G36*
X232651560Y-108899064D02*
G01*
X232803027Y-108929193D01*
X233017045Y-109017842D01*
X233017046Y-109017843D01*
X233209654Y-109146539D01*
X233373461Y-109310346D01*
X233413632Y-109370467D01*
X233502158Y-109502955D01*
X233590807Y-109716973D01*
X233636000Y-109944174D01*
X233636000Y-110175826D01*
X233590807Y-110403027D01*
X233502158Y-110617045D01*
X233502031Y-110617235D01*
X233373461Y-110809654D01*
X233209654Y-110973461D01*
X233081249Y-111059258D01*
X233017045Y-111102158D01*
X232803027Y-111190807D01*
X232651560Y-111220936D01*
X232575827Y-111236000D01*
X232344173Y-111236000D01*
X232268440Y-111220936D01*
X232116973Y-111190807D01*
X231902955Y-111102158D01*
X231838751Y-111059258D01*
X231710346Y-110973461D01*
X231546539Y-110809654D01*
X231417969Y-110617235D01*
X231417842Y-110617045D01*
X231329193Y-110403027D01*
X231284000Y-110175826D01*
X231284000Y-109944174D01*
X231329193Y-109716973D01*
X231417842Y-109502955D01*
X231506368Y-109370467D01*
X231546539Y-109310346D01*
X231710346Y-109146539D01*
X231902954Y-109017843D01*
X231902955Y-109017842D01*
X232116973Y-108929193D01*
X232268440Y-108899064D01*
X232344173Y-108884000D01*
X232575827Y-108884000D01*
X232651560Y-108899064D01*
G37*
G36*
X237731560Y-108899064D02*
G01*
X237883027Y-108929193D01*
X238097045Y-109017842D01*
X238097046Y-109017843D01*
X238289654Y-109146539D01*
X238453461Y-109310346D01*
X238493632Y-109370467D01*
X238582158Y-109502955D01*
X238670807Y-109716973D01*
X238716000Y-109944174D01*
X238716000Y-110175826D01*
X238670807Y-110403027D01*
X238582158Y-110617045D01*
X238582031Y-110617235D01*
X238453461Y-110809654D01*
X238289654Y-110973461D01*
X238161249Y-111059258D01*
X238097045Y-111102158D01*
X237883027Y-111190807D01*
X237731560Y-111220936D01*
X237655827Y-111236000D01*
X237424173Y-111236000D01*
X237348440Y-111220936D01*
X237196973Y-111190807D01*
X236982955Y-111102158D01*
X236918751Y-111059258D01*
X236790346Y-110973461D01*
X236626539Y-110809654D01*
X236497969Y-110617235D01*
X236497842Y-110617045D01*
X236409193Y-110403027D01*
X236364000Y-110175826D01*
X236364000Y-109944174D01*
X236409193Y-109716973D01*
X236497842Y-109502955D01*
X236586368Y-109370467D01*
X236626539Y-109310346D01*
X236790346Y-109146539D01*
X236982954Y-109017843D01*
X236982955Y-109017842D01*
X237196973Y-108929193D01*
X237348440Y-108899064D01*
X237424173Y-108884000D01*
X237655827Y-108884000D01*
X237731560Y-108899064D01*
G37*
G36*
X151731560Y-107599064D02*
G01*
X151883027Y-107629193D01*
X152097045Y-107717842D01*
X152097046Y-107717843D01*
X152289654Y-107846539D01*
X152453461Y-108010346D01*
X152539258Y-108138751D01*
X152582158Y-108202955D01*
X152670807Y-108416973D01*
X152716000Y-108644174D01*
X152716000Y-108875826D01*
X152670807Y-109103027D01*
X152582158Y-109317045D01*
X152582157Y-109317046D01*
X152453461Y-109509654D01*
X152289654Y-109673461D01*
X152224533Y-109716973D01*
X152097045Y-109802158D01*
X151883027Y-109890807D01*
X151731560Y-109920936D01*
X151655827Y-109936000D01*
X151424173Y-109936000D01*
X151348440Y-109920936D01*
X151196973Y-109890807D01*
X150982955Y-109802158D01*
X150855467Y-109716973D01*
X150790346Y-109673461D01*
X150626539Y-109509654D01*
X150497843Y-109317046D01*
X150497842Y-109317045D01*
X150409193Y-109103027D01*
X150364000Y-108875826D01*
X150364000Y-108644174D01*
X150409193Y-108416973D01*
X150497842Y-108202955D01*
X150540742Y-108138751D01*
X150626539Y-108010346D01*
X150790346Y-107846539D01*
X150982954Y-107717843D01*
X150982955Y-107717842D01*
X151196973Y-107629193D01*
X151348440Y-107599064D01*
X151424173Y-107584000D01*
X151655827Y-107584000D01*
X151731560Y-107599064D01*
G37*
G36*
X146651560Y-107599064D02*
G01*
X146803027Y-107629193D01*
X147017045Y-107717842D01*
X147017046Y-107717843D01*
X147209654Y-107846539D01*
X147373461Y-108010346D01*
X147459258Y-108138751D01*
X147502158Y-108202955D01*
X147590807Y-108416973D01*
X147636000Y-108644174D01*
X147636000Y-108875826D01*
X147590807Y-109103027D01*
X147502158Y-109317045D01*
X147502157Y-109317046D01*
X147373461Y-109509654D01*
X147209654Y-109673461D01*
X147144533Y-109716973D01*
X147017045Y-109802158D01*
X146803027Y-109890807D01*
X146651560Y-109920936D01*
X146575827Y-109936000D01*
X146344173Y-109936000D01*
X146268440Y-109920936D01*
X146116973Y-109890807D01*
X145902955Y-109802158D01*
X145775467Y-109716973D01*
X145710346Y-109673461D01*
X145546539Y-109509654D01*
X145417843Y-109317046D01*
X145417842Y-109317045D01*
X145329193Y-109103027D01*
X145284000Y-108875826D01*
X145284000Y-108644174D01*
X145329193Y-108416973D01*
X145417842Y-108202955D01*
X145460742Y-108138751D01*
X145546539Y-108010346D01*
X145710346Y-107846539D01*
X145902954Y-107717843D01*
X145902955Y-107717842D01*
X146116973Y-107629193D01*
X146268440Y-107599064D01*
X146344173Y-107584000D01*
X146575827Y-107584000D01*
X146651560Y-107599064D01*
G37*
G36*
X90697395Y-108005546D02*
G01*
X90870466Y-108077234D01*
X90870467Y-108077235D01*
X91026227Y-108181310D01*
X91158690Y-108313773D01*
X91158691Y-108313775D01*
X91262766Y-108469534D01*
X91334454Y-108642605D01*
X91371000Y-108826333D01*
X91371000Y-109013667D01*
X91334454Y-109197395D01*
X91262766Y-109370466D01*
X91262765Y-109370467D01*
X91158690Y-109526227D01*
X91026227Y-109658690D01*
X90947818Y-109711081D01*
X90870466Y-109762766D01*
X90697395Y-109834454D01*
X90513667Y-109871000D01*
X90326333Y-109871000D01*
X90142605Y-109834454D01*
X89969534Y-109762766D01*
X89892182Y-109711081D01*
X89813773Y-109658690D01*
X89681310Y-109526227D01*
X89577235Y-109370467D01*
X89577234Y-109370466D01*
X89505546Y-109197395D01*
X89469000Y-109013667D01*
X89469000Y-108826333D01*
X89505546Y-108642605D01*
X89577234Y-108469534D01*
X89681309Y-108313775D01*
X89681310Y-108313773D01*
X89813773Y-108181310D01*
X89969533Y-108077235D01*
X89969534Y-108077234D01*
X90142605Y-108005546D01*
X90326333Y-107969000D01*
X90513667Y-107969000D01*
X90697395Y-108005546D01*
G37*
G36*
X85617395Y-108005546D02*
G01*
X85790466Y-108077234D01*
X85790467Y-108077235D01*
X85946227Y-108181310D01*
X86078690Y-108313773D01*
X86078691Y-108313775D01*
X86182766Y-108469534D01*
X86254454Y-108642605D01*
X86291000Y-108826333D01*
X86291000Y-109013667D01*
X86254454Y-109197395D01*
X86182766Y-109370466D01*
X86182765Y-109370467D01*
X86078690Y-109526227D01*
X85946227Y-109658690D01*
X85867818Y-109711081D01*
X85790466Y-109762766D01*
X85617395Y-109834454D01*
X85433667Y-109871000D01*
X85246333Y-109871000D01*
X85062605Y-109834454D01*
X84889534Y-109762766D01*
X84812182Y-109711081D01*
X84733773Y-109658690D01*
X84601310Y-109526227D01*
X84497235Y-109370467D01*
X84497234Y-109370466D01*
X84425546Y-109197395D01*
X84389000Y-109013667D01*
X84389000Y-108826333D01*
X84425546Y-108642605D01*
X84497234Y-108469534D01*
X84601309Y-108313775D01*
X84601310Y-108313773D01*
X84733773Y-108181310D01*
X84889533Y-108077235D01*
X84889534Y-108077234D01*
X85062605Y-108005546D01*
X85246333Y-107969000D01*
X85433667Y-107969000D01*
X85617395Y-108005546D01*
G37*
G36*
X90697395Y-105465546D02*
G01*
X90870466Y-105537234D01*
X90870467Y-105537235D01*
X91026227Y-105641310D01*
X91158690Y-105773773D01*
X91158691Y-105773775D01*
X91262766Y-105929534D01*
X91334454Y-106102605D01*
X91371000Y-106286333D01*
X91371000Y-106473667D01*
X91334454Y-106657395D01*
X91262766Y-106830466D01*
X91262765Y-106830467D01*
X91158690Y-106986227D01*
X91026227Y-107118690D01*
X90947818Y-107171081D01*
X90870466Y-107222766D01*
X90697395Y-107294454D01*
X90513667Y-107331000D01*
X90326333Y-107331000D01*
X90142605Y-107294454D01*
X89969534Y-107222766D01*
X89892182Y-107171081D01*
X89813773Y-107118690D01*
X89681310Y-106986227D01*
X89577235Y-106830467D01*
X89577234Y-106830466D01*
X89505546Y-106657395D01*
X89469000Y-106473667D01*
X89469000Y-106286333D01*
X89505546Y-106102605D01*
X89577234Y-105929534D01*
X89681309Y-105773775D01*
X89681310Y-105773773D01*
X89813773Y-105641310D01*
X89969533Y-105537235D01*
X89969534Y-105537234D01*
X90142605Y-105465546D01*
X90326333Y-105429000D01*
X90513667Y-105429000D01*
X90697395Y-105465546D01*
G37*
G36*
X85617395Y-105465546D02*
G01*
X85790466Y-105537234D01*
X85790467Y-105537235D01*
X85946227Y-105641310D01*
X86078690Y-105773773D01*
X86078691Y-105773775D01*
X86182766Y-105929534D01*
X86254454Y-106102605D01*
X86291000Y-106286333D01*
X86291000Y-106473667D01*
X86254454Y-106657395D01*
X86182766Y-106830466D01*
X86182765Y-106830467D01*
X86078690Y-106986227D01*
X85946227Y-107118690D01*
X85867818Y-107171081D01*
X85790466Y-107222766D01*
X85617395Y-107294454D01*
X85433667Y-107331000D01*
X85246333Y-107331000D01*
X85062605Y-107294454D01*
X84889534Y-107222766D01*
X84812182Y-107171081D01*
X84733773Y-107118690D01*
X84601310Y-106986227D01*
X84497235Y-106830467D01*
X84497234Y-106830466D01*
X84425546Y-106657395D01*
X84389000Y-106473667D01*
X84389000Y-106286333D01*
X84425546Y-106102605D01*
X84497234Y-105929534D01*
X84601309Y-105773775D01*
X84601310Y-105773773D01*
X84733773Y-105641310D01*
X84889533Y-105537235D01*
X84889534Y-105537234D01*
X85062605Y-105465546D01*
X85246333Y-105429000D01*
X85433667Y-105429000D01*
X85617395Y-105465546D01*
G37*
G36*
X85617395Y-102925546D02*
G01*
X85790466Y-102997234D01*
X85790467Y-102997235D01*
X85946227Y-103101310D01*
X86078690Y-103233773D01*
X86078691Y-103233775D01*
X86182766Y-103389534D01*
X86254454Y-103562605D01*
X86291000Y-103746333D01*
X86291000Y-103933667D01*
X86254454Y-104117395D01*
X86182766Y-104290466D01*
X86182765Y-104290467D01*
X86078690Y-104446227D01*
X85946227Y-104578690D01*
X85867818Y-104631081D01*
X85790466Y-104682766D01*
X85617395Y-104754454D01*
X85433667Y-104791000D01*
X85246333Y-104791000D01*
X85062605Y-104754454D01*
X84889534Y-104682766D01*
X84812182Y-104631081D01*
X84733773Y-104578690D01*
X84601310Y-104446227D01*
X84497235Y-104290467D01*
X84497234Y-104290466D01*
X84425546Y-104117395D01*
X84389000Y-103933667D01*
X84389000Y-103746333D01*
X84425546Y-103562605D01*
X84497234Y-103389534D01*
X84601309Y-103233775D01*
X84601310Y-103233773D01*
X84733773Y-103101310D01*
X84889533Y-102997235D01*
X84889534Y-102997234D01*
X85062605Y-102925546D01*
X85246333Y-102889000D01*
X85433667Y-102889000D01*
X85617395Y-102925546D01*
G37*
G36*
X90697395Y-102925546D02*
G01*
X90870466Y-102997234D01*
X90870467Y-102997235D01*
X91026227Y-103101310D01*
X91158690Y-103233773D01*
X91158691Y-103233775D01*
X91262766Y-103389534D01*
X91334454Y-103562605D01*
X91371000Y-103746333D01*
X91371000Y-103933667D01*
X91334454Y-104117395D01*
X91262766Y-104290466D01*
X91262765Y-104290467D01*
X91158690Y-104446227D01*
X91026227Y-104578690D01*
X90947818Y-104631081D01*
X90870466Y-104682766D01*
X90697395Y-104754454D01*
X90513667Y-104791000D01*
X90326333Y-104791000D01*
X90142605Y-104754454D01*
X89969534Y-104682766D01*
X89892182Y-104631081D01*
X89813773Y-104578690D01*
X89681310Y-104446227D01*
X89577235Y-104290467D01*
X89577234Y-104290466D01*
X89505546Y-104117395D01*
X89469000Y-103933667D01*
X89469000Y-103746333D01*
X89505546Y-103562605D01*
X89577234Y-103389534D01*
X89681309Y-103233775D01*
X89681310Y-103233773D01*
X89813773Y-103101310D01*
X89969533Y-102997235D01*
X89969534Y-102997234D01*
X90142605Y-102925546D01*
X90326333Y-102889000D01*
X90513667Y-102889000D01*
X90697395Y-102925546D01*
G37*
G36*
X184848228Y-102081703D02*
G01*
X185003100Y-102145853D01*
X185142481Y-102238985D01*
X185261015Y-102357519D01*
X185354147Y-102496900D01*
X185418297Y-102651772D01*
X185451000Y-102816184D01*
X185451000Y-102983816D01*
X185418297Y-103148228D01*
X185354147Y-103303100D01*
X185261015Y-103442481D01*
X185142481Y-103561015D01*
X185003100Y-103654147D01*
X184848228Y-103718297D01*
X184683816Y-103751000D01*
X184516184Y-103751000D01*
X184351772Y-103718297D01*
X184196900Y-103654147D01*
X184057519Y-103561015D01*
X183938985Y-103442481D01*
X183845853Y-103303100D01*
X183781703Y-103148228D01*
X183749000Y-102983816D01*
X183749000Y-102816184D01*
X183781703Y-102651772D01*
X183845853Y-102496900D01*
X183938985Y-102357519D01*
X184057519Y-102238985D01*
X184196900Y-102145853D01*
X184351772Y-102081703D01*
X184516184Y-102049000D01*
X184683816Y-102049000D01*
X184848228Y-102081703D01*
G37*
G36*
X90697395Y-100385546D02*
G01*
X90870466Y-100457234D01*
X90870467Y-100457235D01*
X91026227Y-100561310D01*
X91158690Y-100693773D01*
X91158691Y-100693775D01*
X91262766Y-100849534D01*
X91334454Y-101022605D01*
X91371000Y-101206333D01*
X91371000Y-101393667D01*
X91334454Y-101577395D01*
X91262766Y-101750466D01*
X91262765Y-101750467D01*
X91158690Y-101906227D01*
X91026227Y-102038690D01*
X91010797Y-102049000D01*
X90870466Y-102142766D01*
X90697395Y-102214454D01*
X90513667Y-102251000D01*
X90326333Y-102251000D01*
X90142605Y-102214454D01*
X89969534Y-102142766D01*
X89829203Y-102049000D01*
X89813773Y-102038690D01*
X89681310Y-101906227D01*
X89577235Y-101750467D01*
X89577234Y-101750466D01*
X89505546Y-101577395D01*
X89469000Y-101393667D01*
X89469000Y-101206333D01*
X89505546Y-101022605D01*
X89577234Y-100849534D01*
X89681309Y-100693775D01*
X89681310Y-100693773D01*
X89813773Y-100561310D01*
X89969533Y-100457235D01*
X89969534Y-100457234D01*
X90142605Y-100385546D01*
X90326333Y-100349000D01*
X90513667Y-100349000D01*
X90697395Y-100385546D01*
G37*
G36*
X85617395Y-100385546D02*
G01*
X85790466Y-100457234D01*
X85790467Y-100457235D01*
X85946227Y-100561310D01*
X86078690Y-100693773D01*
X86078691Y-100693775D01*
X86182766Y-100849534D01*
X86254454Y-101022605D01*
X86291000Y-101206333D01*
X86291000Y-101393667D01*
X86254454Y-101577395D01*
X86182766Y-101750466D01*
X86182765Y-101750467D01*
X86078690Y-101906227D01*
X85946227Y-102038690D01*
X85930797Y-102049000D01*
X85790466Y-102142766D01*
X85617395Y-102214454D01*
X85433667Y-102251000D01*
X85246333Y-102251000D01*
X85062605Y-102214454D01*
X84889534Y-102142766D01*
X84749203Y-102049000D01*
X84733773Y-102038690D01*
X84601310Y-101906227D01*
X84497235Y-101750467D01*
X84497234Y-101750466D01*
X84425546Y-101577395D01*
X84389000Y-101393667D01*
X84389000Y-101206333D01*
X84425546Y-101022605D01*
X84497234Y-100849534D01*
X84601309Y-100693775D01*
X84601310Y-100693773D01*
X84733773Y-100561310D01*
X84889533Y-100457235D01*
X84889534Y-100457234D01*
X85062605Y-100385546D01*
X85246333Y-100349000D01*
X85433667Y-100349000D01*
X85617395Y-100385546D01*
G37*
G36*
X235077395Y-100225546D02*
G01*
X235250466Y-100297234D01*
X235250467Y-100297235D01*
X235406227Y-100401310D01*
X235538690Y-100533773D01*
X235581493Y-100597833D01*
X235642766Y-100689534D01*
X235714454Y-100862605D01*
X235751000Y-101046333D01*
X235751000Y-101233667D01*
X235714454Y-101417395D01*
X235642766Y-101590466D01*
X235642765Y-101590467D01*
X235538690Y-101746227D01*
X235406227Y-101878690D01*
X235365018Y-101906225D01*
X235250466Y-101982766D01*
X235077395Y-102054454D01*
X234893667Y-102091000D01*
X234706333Y-102091000D01*
X234522605Y-102054454D01*
X234349534Y-101982766D01*
X234234982Y-101906225D01*
X234193773Y-101878690D01*
X234061310Y-101746227D01*
X233957235Y-101590467D01*
X233957234Y-101590466D01*
X233885546Y-101417395D01*
X233849000Y-101233667D01*
X233849000Y-101046333D01*
X233885546Y-100862605D01*
X233957234Y-100689534D01*
X234018507Y-100597833D01*
X234061310Y-100533773D01*
X234193773Y-100401310D01*
X234349533Y-100297235D01*
X234349534Y-100297234D01*
X234522605Y-100225546D01*
X234706333Y-100189000D01*
X234893667Y-100189000D01*
X235077395Y-100225546D01*
G37*
G36*
X120206564Y-99089389D02*
G01*
X120397833Y-99168615D01*
X120397835Y-99168616D01*
X120569973Y-99283635D01*
X120716365Y-99430027D01*
X120797197Y-99551000D01*
X120831385Y-99602167D01*
X120910611Y-99793436D01*
X120951000Y-99996484D01*
X120951000Y-100203516D01*
X120910611Y-100406564D01*
X120846513Y-100561310D01*
X120831384Y-100597835D01*
X120716365Y-100769973D01*
X120569973Y-100916365D01*
X120397835Y-101031384D01*
X120397834Y-101031385D01*
X120397833Y-101031385D01*
X120206564Y-101110611D01*
X120003516Y-101151000D01*
X119796484Y-101151000D01*
X119593436Y-101110611D01*
X119402167Y-101031385D01*
X119402166Y-101031385D01*
X119402165Y-101031384D01*
X119230027Y-100916365D01*
X119083635Y-100769973D01*
X118968616Y-100597835D01*
X118953487Y-100561310D01*
X118889389Y-100406564D01*
X118849000Y-100203516D01*
X118849000Y-99996484D01*
X118889389Y-99793436D01*
X118968615Y-99602167D01*
X119002804Y-99551000D01*
X119083635Y-99430027D01*
X119230027Y-99283635D01*
X119402165Y-99168616D01*
X119402167Y-99168615D01*
X119593436Y-99089389D01*
X119796484Y-99049000D01*
X120003516Y-99049000D01*
X120206564Y-99089389D01*
G37*
G36*
X90697395Y-97845546D02*
G01*
X90870466Y-97917234D01*
X90870467Y-97917235D01*
X91026227Y-98021310D01*
X91158690Y-98153773D01*
X91158691Y-98153775D01*
X91262766Y-98309534D01*
X91334454Y-98482605D01*
X91371000Y-98666333D01*
X91371000Y-98853667D01*
X91334454Y-99037395D01*
X91262766Y-99210466D01*
X91262765Y-99210467D01*
X91158690Y-99366227D01*
X91026227Y-99498690D01*
X90947939Y-99551000D01*
X90870466Y-99602766D01*
X90697395Y-99674454D01*
X90513667Y-99711000D01*
X90326333Y-99711000D01*
X90142605Y-99674454D01*
X89969534Y-99602766D01*
X89892061Y-99551000D01*
X89813773Y-99498690D01*
X89681310Y-99366227D01*
X89577235Y-99210467D01*
X89577234Y-99210466D01*
X89505546Y-99037395D01*
X89469000Y-98853667D01*
X89469000Y-98666333D01*
X89505546Y-98482605D01*
X89577234Y-98309534D01*
X89681309Y-98153775D01*
X89681310Y-98153773D01*
X89813773Y-98021310D01*
X89969533Y-97917235D01*
X89969534Y-97917234D01*
X90142605Y-97845546D01*
X90326333Y-97809000D01*
X90513667Y-97809000D01*
X90697395Y-97845546D01*
G37*
G36*
X85617395Y-97845546D02*
G01*
X85790466Y-97917234D01*
X85790467Y-97917235D01*
X85946227Y-98021310D01*
X86078690Y-98153773D01*
X86078691Y-98153775D01*
X86182766Y-98309534D01*
X86254454Y-98482605D01*
X86291000Y-98666333D01*
X86291000Y-98853667D01*
X86254454Y-99037395D01*
X86182766Y-99210466D01*
X86182765Y-99210467D01*
X86078690Y-99366227D01*
X85946227Y-99498690D01*
X85867939Y-99551000D01*
X85790466Y-99602766D01*
X85617395Y-99674454D01*
X85433667Y-99711000D01*
X85246333Y-99711000D01*
X85062605Y-99674454D01*
X84889534Y-99602766D01*
X84812061Y-99551000D01*
X84733773Y-99498690D01*
X84601310Y-99366227D01*
X84497235Y-99210467D01*
X84497234Y-99210466D01*
X84425546Y-99037395D01*
X84389000Y-98853667D01*
X84389000Y-98666333D01*
X84425546Y-98482605D01*
X84497234Y-98309534D01*
X84601309Y-98153775D01*
X84601310Y-98153773D01*
X84733773Y-98021310D01*
X84889533Y-97917235D01*
X84889534Y-97917234D01*
X85062605Y-97845546D01*
X85246333Y-97809000D01*
X85433667Y-97809000D01*
X85617395Y-97845546D01*
G37*
G36*
X235751000Y-99551000D02*
G01*
X233849000Y-99551000D01*
X233849000Y-97649000D01*
X235751000Y-97649000D01*
X235751000Y-99551000D01*
G37*
G36*
X184848228Y-97081703D02*
G01*
X185003100Y-97145853D01*
X185142481Y-97238985D01*
X185261015Y-97357519D01*
X185354147Y-97496900D01*
X185418297Y-97651772D01*
X185451000Y-97816184D01*
X185451000Y-97983816D01*
X185418297Y-98148228D01*
X185354147Y-98303100D01*
X185261015Y-98442481D01*
X185142481Y-98561015D01*
X185003100Y-98654147D01*
X184848228Y-98718297D01*
X184683816Y-98751000D01*
X184516184Y-98751000D01*
X184351772Y-98718297D01*
X184196900Y-98654147D01*
X184057519Y-98561015D01*
X183938985Y-98442481D01*
X183845853Y-98303100D01*
X183781703Y-98148228D01*
X183749000Y-97983816D01*
X183749000Y-97816184D01*
X183781703Y-97651772D01*
X183845853Y-97496900D01*
X183938985Y-97357519D01*
X184057519Y-97238985D01*
X184196900Y-97145853D01*
X184351772Y-97081703D01*
X184516184Y-97049000D01*
X184683816Y-97049000D01*
X184848228Y-97081703D01*
G37*
G36*
X90697395Y-95305546D02*
G01*
X90870466Y-95377234D01*
X90870467Y-95377235D01*
X91026227Y-95481310D01*
X91158690Y-95613773D01*
X91158691Y-95613775D01*
X91262766Y-95769534D01*
X91334454Y-95942605D01*
X91371000Y-96126333D01*
X91371000Y-96313667D01*
X91334454Y-96497395D01*
X91262766Y-96670466D01*
X91262765Y-96670467D01*
X91158690Y-96826227D01*
X91026227Y-96958690D01*
X90947818Y-97011081D01*
X90870466Y-97062766D01*
X90697395Y-97134454D01*
X90513667Y-97171000D01*
X90326333Y-97171000D01*
X90142605Y-97134454D01*
X89969534Y-97062766D01*
X89892182Y-97011081D01*
X89813773Y-96958690D01*
X89681310Y-96826227D01*
X89577235Y-96670467D01*
X89577234Y-96670466D01*
X89505546Y-96497395D01*
X89469000Y-96313667D01*
X89469000Y-96126333D01*
X89505546Y-95942605D01*
X89577234Y-95769534D01*
X89681309Y-95613775D01*
X89681310Y-95613773D01*
X89813773Y-95481310D01*
X89969533Y-95377235D01*
X89969534Y-95377234D01*
X90142605Y-95305546D01*
X90326333Y-95269000D01*
X90513667Y-95269000D01*
X90697395Y-95305546D01*
G37*
G36*
X85617395Y-95305546D02*
G01*
X85790466Y-95377234D01*
X85790467Y-95377235D01*
X85946227Y-95481310D01*
X86078690Y-95613773D01*
X86078691Y-95613775D01*
X86182766Y-95769534D01*
X86254454Y-95942605D01*
X86291000Y-96126333D01*
X86291000Y-96313667D01*
X86254454Y-96497395D01*
X86182766Y-96670466D01*
X86182765Y-96670467D01*
X86078690Y-96826227D01*
X85946227Y-96958690D01*
X85867818Y-97011081D01*
X85790466Y-97062766D01*
X85617395Y-97134454D01*
X85433667Y-97171000D01*
X85246333Y-97171000D01*
X85062605Y-97134454D01*
X84889534Y-97062766D01*
X84812182Y-97011081D01*
X84733773Y-96958690D01*
X84601310Y-96826227D01*
X84497235Y-96670467D01*
X84497234Y-96670466D01*
X84425546Y-96497395D01*
X84389000Y-96313667D01*
X84389000Y-96126333D01*
X84425546Y-95942605D01*
X84497234Y-95769534D01*
X84601309Y-95613775D01*
X84601310Y-95613773D01*
X84733773Y-95481310D01*
X84889533Y-95377235D01*
X84889534Y-95377234D01*
X85062605Y-95305546D01*
X85246333Y-95269000D01*
X85433667Y-95269000D01*
X85617395Y-95305546D01*
G37*
G36*
X222731560Y-93779064D02*
G01*
X222883027Y-93809193D01*
X223097045Y-93897842D01*
X223097046Y-93897843D01*
X223289654Y-94026539D01*
X223453461Y-94190346D01*
X223517525Y-94286225D01*
X223582158Y-94382955D01*
X223670807Y-94596973D01*
X223716000Y-94824174D01*
X223716000Y-95055826D01*
X223670807Y-95283027D01*
X223582158Y-95497045D01*
X223582157Y-95497046D01*
X223453461Y-95689654D01*
X223289654Y-95853461D01*
X223173033Y-95931384D01*
X223097045Y-95982158D01*
X222883027Y-96070807D01*
X222731560Y-96100936D01*
X222655827Y-96116000D01*
X222424173Y-96116000D01*
X222348440Y-96100936D01*
X222196973Y-96070807D01*
X221982955Y-95982158D01*
X221906967Y-95931384D01*
X221790346Y-95853461D01*
X221626539Y-95689654D01*
X221497843Y-95497046D01*
X221497842Y-95497045D01*
X221409193Y-95283027D01*
X221364000Y-95055826D01*
X221364000Y-94824174D01*
X221409193Y-94596973D01*
X221497842Y-94382955D01*
X221562475Y-94286225D01*
X221626539Y-94190346D01*
X221790346Y-94026539D01*
X221982954Y-93897843D01*
X221982955Y-93897842D01*
X222196973Y-93809193D01*
X222348440Y-93779064D01*
X222424173Y-93764000D01*
X222655827Y-93764000D01*
X222731560Y-93779064D01*
G37*
G36*
X217651560Y-93779064D02*
G01*
X217803027Y-93809193D01*
X218017045Y-93897842D01*
X218017046Y-93897843D01*
X218209654Y-94026539D01*
X218373461Y-94190346D01*
X218437525Y-94286225D01*
X218502158Y-94382955D01*
X218590807Y-94596973D01*
X218636000Y-94824174D01*
X218636000Y-95055826D01*
X218590807Y-95283027D01*
X218502158Y-95497045D01*
X218502157Y-95497046D01*
X218373461Y-95689654D01*
X218209654Y-95853461D01*
X218093033Y-95931384D01*
X218017045Y-95982158D01*
X217803027Y-96070807D01*
X217651560Y-96100936D01*
X217575827Y-96116000D01*
X217344173Y-96116000D01*
X217268440Y-96100936D01*
X217116973Y-96070807D01*
X216902955Y-95982158D01*
X216826967Y-95931384D01*
X216710346Y-95853461D01*
X216546539Y-95689654D01*
X216417843Y-95497046D01*
X216417842Y-95497045D01*
X216329193Y-95283027D01*
X216284000Y-95055826D01*
X216284000Y-94824174D01*
X216329193Y-94596973D01*
X216417842Y-94382955D01*
X216482475Y-94286225D01*
X216546539Y-94190346D01*
X216710346Y-94026539D01*
X216902954Y-93897843D01*
X216902955Y-93897842D01*
X217116973Y-93809193D01*
X217268440Y-93779064D01*
X217344173Y-93764000D01*
X217575827Y-93764000D01*
X217651560Y-93779064D01*
G37*
G36*
X120306564Y-93989389D02*
G01*
X120497833Y-94068615D01*
X120497835Y-94068616D01*
X120669973Y-94183635D01*
X120816365Y-94330027D01*
X120931385Y-94502167D01*
X121010611Y-94693436D01*
X121051000Y-94896484D01*
X121051000Y-95103516D01*
X121010611Y-95306564D01*
X120981338Y-95377235D01*
X120931384Y-95497835D01*
X120816365Y-95669973D01*
X120669973Y-95816365D01*
X120497835Y-95931384D01*
X120497834Y-95931385D01*
X120497833Y-95931385D01*
X120306564Y-96010611D01*
X120103516Y-96051000D01*
X119896484Y-96051000D01*
X119693436Y-96010611D01*
X119502167Y-95931385D01*
X119502166Y-95931385D01*
X119502165Y-95931384D01*
X119330027Y-95816365D01*
X119183635Y-95669973D01*
X119068616Y-95497835D01*
X119018662Y-95377235D01*
X118989389Y-95306564D01*
X118949000Y-95103516D01*
X118949000Y-94896484D01*
X118989389Y-94693436D01*
X119068615Y-94502167D01*
X119183635Y-94330027D01*
X119330027Y-94183635D01*
X119502165Y-94068616D01*
X119502167Y-94068615D01*
X119693436Y-93989389D01*
X119896484Y-93949000D01*
X120103516Y-93949000D01*
X120306564Y-93989389D01*
G37*
G36*
X85617395Y-92765546D02*
G01*
X85790466Y-92837234D01*
X85790467Y-92837235D01*
X85946227Y-92941310D01*
X86078690Y-93073773D01*
X86131081Y-93152182D01*
X86182766Y-93229534D01*
X86254454Y-93402605D01*
X86291000Y-93586333D01*
X86291000Y-93773667D01*
X86254454Y-93957395D01*
X86182766Y-94130466D01*
X86142757Y-94190344D01*
X86078690Y-94286227D01*
X85946227Y-94418690D01*
X85867818Y-94471081D01*
X85790466Y-94522766D01*
X85617395Y-94594454D01*
X85433667Y-94631000D01*
X85246333Y-94631000D01*
X85062605Y-94594454D01*
X84889534Y-94522766D01*
X84812182Y-94471081D01*
X84733773Y-94418690D01*
X84601310Y-94286227D01*
X84537243Y-94190344D01*
X84497234Y-94130466D01*
X84425546Y-93957395D01*
X84389000Y-93773667D01*
X84389000Y-93586333D01*
X84425546Y-93402605D01*
X84497234Y-93229534D01*
X84548919Y-93152182D01*
X84601310Y-93073773D01*
X84733773Y-92941310D01*
X84889533Y-92837235D01*
X84889534Y-92837234D01*
X85062605Y-92765546D01*
X85246333Y-92729000D01*
X85433667Y-92729000D01*
X85617395Y-92765546D01*
G37*
G36*
X90697395Y-92765546D02*
G01*
X90870466Y-92837234D01*
X90870467Y-92837235D01*
X91026227Y-92941310D01*
X91158690Y-93073773D01*
X91211081Y-93152182D01*
X91262766Y-93229534D01*
X91334454Y-93402605D01*
X91371000Y-93586333D01*
X91371000Y-93773667D01*
X91334454Y-93957395D01*
X91262766Y-94130466D01*
X91222757Y-94190344D01*
X91158690Y-94286227D01*
X91026227Y-94418690D01*
X90947818Y-94471081D01*
X90870466Y-94522766D01*
X90697395Y-94594454D01*
X90513667Y-94631000D01*
X90326333Y-94631000D01*
X90142605Y-94594454D01*
X89969534Y-94522766D01*
X89892182Y-94471081D01*
X89813773Y-94418690D01*
X89681310Y-94286227D01*
X89617243Y-94190344D01*
X89577234Y-94130466D01*
X89505546Y-93957395D01*
X89469000Y-93773667D01*
X89469000Y-93586333D01*
X89505546Y-93402605D01*
X89577234Y-93229534D01*
X89628919Y-93152182D01*
X89681310Y-93073773D01*
X89813773Y-92941310D01*
X89969533Y-92837235D01*
X89969534Y-92837234D01*
X90142605Y-92765546D01*
X90326333Y-92729000D01*
X90513667Y-92729000D01*
X90697395Y-92765546D01*
G37*
G36*
X220175271Y-91337783D02*
G01*
X220313858Y-91365350D01*
X220509677Y-91446461D01*
X220685910Y-91564216D01*
X220835784Y-91714090D01*
X220953539Y-91890323D01*
X221034650Y-92086142D01*
X221076000Y-92294023D01*
X221076000Y-92505977D01*
X221034650Y-92713858D01*
X220953539Y-92909677D01*
X220835784Y-93085910D01*
X220685910Y-93235784D01*
X220509677Y-93353539D01*
X220313858Y-93434650D01*
X220175271Y-93462217D01*
X220105978Y-93476000D01*
X219894022Y-93476000D01*
X219824729Y-93462217D01*
X219686142Y-93434650D01*
X219490323Y-93353539D01*
X219314090Y-93235784D01*
X219164216Y-93085910D01*
X219046461Y-92909677D01*
X218965350Y-92713858D01*
X218924000Y-92505977D01*
X218924000Y-92294023D01*
X218965350Y-92086142D01*
X219046461Y-91890323D01*
X219164216Y-91714090D01*
X219314090Y-91564216D01*
X219490323Y-91446461D01*
X219686142Y-91365350D01*
X219824729Y-91337783D01*
X219894022Y-91324000D01*
X220105978Y-91324000D01*
X220175271Y-91337783D01*
G37*
G36*
X90697395Y-90225546D02*
G01*
X90870466Y-90297234D01*
X90870467Y-90297235D01*
X91026227Y-90401310D01*
X91158690Y-90533773D01*
X91158691Y-90533775D01*
X91262766Y-90689534D01*
X91334454Y-90862605D01*
X91371000Y-91046333D01*
X91371000Y-91233667D01*
X91334454Y-91417395D01*
X91262766Y-91590466D01*
X91262765Y-91590467D01*
X91158690Y-91746227D01*
X91026227Y-91878690D01*
X91008818Y-91890322D01*
X90870466Y-91982766D01*
X90697395Y-92054454D01*
X90513667Y-92091000D01*
X90326333Y-92091000D01*
X90142605Y-92054454D01*
X89969534Y-91982766D01*
X89831182Y-91890322D01*
X89813773Y-91878690D01*
X89681310Y-91746227D01*
X89577235Y-91590467D01*
X89577234Y-91590466D01*
X89505546Y-91417395D01*
X89469000Y-91233667D01*
X89469000Y-91046333D01*
X89505546Y-90862605D01*
X89577234Y-90689534D01*
X89681309Y-90533775D01*
X89681310Y-90533773D01*
X89813773Y-90401310D01*
X89969533Y-90297235D01*
X89969534Y-90297234D01*
X90142605Y-90225546D01*
X90326333Y-90189000D01*
X90513667Y-90189000D01*
X90697395Y-90225546D01*
G37*
G36*
X85617395Y-90225546D02*
G01*
X85790466Y-90297234D01*
X85790467Y-90297235D01*
X85946227Y-90401310D01*
X86078690Y-90533773D01*
X86078691Y-90533775D01*
X86182766Y-90689534D01*
X86254454Y-90862605D01*
X86291000Y-91046333D01*
X86291000Y-91233667D01*
X86254454Y-91417395D01*
X86182766Y-91590466D01*
X86182765Y-91590467D01*
X86078690Y-91746227D01*
X85946227Y-91878690D01*
X85928818Y-91890322D01*
X85790466Y-91982766D01*
X85617395Y-92054454D01*
X85433667Y-92091000D01*
X85246333Y-92091000D01*
X85062605Y-92054454D01*
X84889534Y-91982766D01*
X84751182Y-91890322D01*
X84733773Y-91878690D01*
X84601310Y-91746227D01*
X84497235Y-91590467D01*
X84497234Y-91590466D01*
X84425546Y-91417395D01*
X84389000Y-91233667D01*
X84389000Y-91046333D01*
X84425546Y-90862605D01*
X84497234Y-90689534D01*
X84601309Y-90533775D01*
X84601310Y-90533773D01*
X84733773Y-90401310D01*
X84889533Y-90297235D01*
X84889534Y-90297234D01*
X85062605Y-90225546D01*
X85246333Y-90189000D01*
X85433667Y-90189000D01*
X85617395Y-90225546D01*
G37*
G36*
X120306564Y-89089389D02*
G01*
X120497833Y-89168615D01*
X120497835Y-89168616D01*
X120669973Y-89283635D01*
X120816365Y-89430027D01*
X120897197Y-89551000D01*
X120931385Y-89602167D01*
X121010611Y-89793436D01*
X121051000Y-89996484D01*
X121051000Y-90203516D01*
X121010611Y-90406564D01*
X120931385Y-90597833D01*
X120931384Y-90597835D01*
X120816365Y-90769973D01*
X120669973Y-90916365D01*
X120497835Y-91031384D01*
X120497834Y-91031385D01*
X120497833Y-91031385D01*
X120306564Y-91110611D01*
X120103516Y-91151000D01*
X119896484Y-91151000D01*
X119693436Y-91110611D01*
X119502167Y-91031385D01*
X119502166Y-91031385D01*
X119502165Y-91031384D01*
X119330027Y-90916365D01*
X119183635Y-90769973D01*
X119068616Y-90597835D01*
X119068615Y-90597833D01*
X118989389Y-90406564D01*
X118949000Y-90203516D01*
X118949000Y-89996484D01*
X118989389Y-89793436D01*
X119068615Y-89602167D01*
X119102804Y-89551000D01*
X119183635Y-89430027D01*
X119330027Y-89283635D01*
X119502165Y-89168616D01*
X119502167Y-89168615D01*
X119693436Y-89089389D01*
X119896484Y-89049000D01*
X120103516Y-89049000D01*
X120306564Y-89089389D01*
G37*
G36*
X222731560Y-88699064D02*
G01*
X222883027Y-88729193D01*
X223097045Y-88817842D01*
X223097046Y-88817843D01*
X223289654Y-88946539D01*
X223453461Y-89110346D01*
X223517525Y-89206225D01*
X223582158Y-89302955D01*
X223670807Y-89516973D01*
X223670807Y-89516975D01*
X223716000Y-89744173D01*
X223716000Y-89975827D01*
X223700936Y-90051560D01*
X223670807Y-90203027D01*
X223582158Y-90417045D01*
X223582157Y-90417046D01*
X223453461Y-90609654D01*
X223289654Y-90773461D01*
X223161249Y-90859258D01*
X223097045Y-90902158D01*
X222883027Y-90990807D01*
X222731560Y-91020936D01*
X222655827Y-91036000D01*
X222424173Y-91036000D01*
X222348440Y-91020936D01*
X222196973Y-90990807D01*
X221982955Y-90902158D01*
X221918751Y-90859258D01*
X221790346Y-90773461D01*
X221626539Y-90609654D01*
X221497843Y-90417046D01*
X221497842Y-90417045D01*
X221409193Y-90203027D01*
X221379064Y-90051560D01*
X221364000Y-89975827D01*
X221364000Y-89744173D01*
X221409193Y-89516975D01*
X221409193Y-89516973D01*
X221497842Y-89302955D01*
X221562475Y-89206225D01*
X221626539Y-89110346D01*
X221790346Y-88946539D01*
X221982954Y-88817843D01*
X221982955Y-88817842D01*
X222196973Y-88729193D01*
X222348440Y-88699064D01*
X222424173Y-88684000D01*
X222655827Y-88684000D01*
X222731560Y-88699064D01*
G37*
G36*
X217651560Y-88699064D02*
G01*
X217803027Y-88729193D01*
X218017045Y-88817842D01*
X218017046Y-88817843D01*
X218209654Y-88946539D01*
X218373461Y-89110346D01*
X218437525Y-89206225D01*
X218502158Y-89302955D01*
X218590807Y-89516973D01*
X218590807Y-89516975D01*
X218636000Y-89744173D01*
X218636000Y-89975827D01*
X218620936Y-90051560D01*
X218590807Y-90203027D01*
X218502158Y-90417045D01*
X218502157Y-90417046D01*
X218373461Y-90609654D01*
X218209654Y-90773461D01*
X218081249Y-90859258D01*
X218017045Y-90902158D01*
X217803027Y-90990807D01*
X217651560Y-91020936D01*
X217575827Y-91036000D01*
X217344173Y-91036000D01*
X217268440Y-91020936D01*
X217116973Y-90990807D01*
X216902955Y-90902158D01*
X216838751Y-90859258D01*
X216710346Y-90773461D01*
X216546539Y-90609654D01*
X216417843Y-90417046D01*
X216417842Y-90417045D01*
X216329193Y-90203027D01*
X216299064Y-90051560D01*
X216284000Y-89975827D01*
X216284000Y-89744173D01*
X216329193Y-89516975D01*
X216329193Y-89516973D01*
X216417842Y-89302955D01*
X216482475Y-89206225D01*
X216546539Y-89110346D01*
X216710346Y-88946539D01*
X216902954Y-88817843D01*
X216902955Y-88817842D01*
X217116973Y-88729193D01*
X217268440Y-88699064D01*
X217344173Y-88684000D01*
X217575827Y-88684000D01*
X217651560Y-88699064D01*
G37*
G36*
X90697395Y-87685546D02*
G01*
X90870466Y-87757234D01*
X90870467Y-87757235D01*
X91026227Y-87861310D01*
X91158690Y-87993773D01*
X91158691Y-87993775D01*
X91262766Y-88149534D01*
X91334454Y-88322605D01*
X91371000Y-88506333D01*
X91371000Y-88693667D01*
X91334454Y-88877395D01*
X91262766Y-89050466D01*
X91262765Y-89050467D01*
X91158690Y-89206227D01*
X91026227Y-89338690D01*
X90947818Y-89391081D01*
X90870466Y-89442766D01*
X90697395Y-89514454D01*
X90513667Y-89551000D01*
X90326333Y-89551000D01*
X90142605Y-89514454D01*
X89969534Y-89442766D01*
X89892182Y-89391081D01*
X89813773Y-89338690D01*
X89681310Y-89206227D01*
X89577235Y-89050467D01*
X89577234Y-89050466D01*
X89505546Y-88877395D01*
X89469000Y-88693667D01*
X89469000Y-88506333D01*
X89505546Y-88322605D01*
X89577234Y-88149534D01*
X89681309Y-87993775D01*
X89681310Y-87993773D01*
X89813773Y-87861310D01*
X89969533Y-87757235D01*
X89969534Y-87757234D01*
X90142605Y-87685546D01*
X90326333Y-87649000D01*
X90513667Y-87649000D01*
X90697395Y-87685546D01*
G37*
G36*
X85617395Y-87685546D02*
G01*
X85790466Y-87757234D01*
X85790467Y-87757235D01*
X85946227Y-87861310D01*
X86078690Y-87993773D01*
X86078691Y-87993775D01*
X86182766Y-88149534D01*
X86254454Y-88322605D01*
X86291000Y-88506333D01*
X86291000Y-88693667D01*
X86254454Y-88877395D01*
X86182766Y-89050466D01*
X86182765Y-89050467D01*
X86078690Y-89206227D01*
X85946227Y-89338690D01*
X85867818Y-89391081D01*
X85790466Y-89442766D01*
X85617395Y-89514454D01*
X85433667Y-89551000D01*
X85246333Y-89551000D01*
X85062605Y-89514454D01*
X84889534Y-89442766D01*
X84812182Y-89391081D01*
X84733773Y-89338690D01*
X84601310Y-89206227D01*
X84497235Y-89050467D01*
X84497234Y-89050466D01*
X84425546Y-88877395D01*
X84389000Y-88693667D01*
X84389000Y-88506333D01*
X84425546Y-88322605D01*
X84497234Y-88149534D01*
X84601309Y-87993775D01*
X84601310Y-87993773D01*
X84733773Y-87861310D01*
X84889533Y-87757235D01*
X84889534Y-87757234D01*
X85062605Y-87685546D01*
X85246333Y-87649000D01*
X85433667Y-87649000D01*
X85617395Y-87685546D01*
G37*
G36*
X85617395Y-85145546D02*
G01*
X85790466Y-85217234D01*
X85790467Y-85217235D01*
X85946227Y-85321310D01*
X86078690Y-85453773D01*
X86078691Y-85453775D01*
X86182766Y-85609534D01*
X86254454Y-85782605D01*
X86291000Y-85966333D01*
X86291000Y-86153667D01*
X86254454Y-86337395D01*
X86182766Y-86510466D01*
X86182765Y-86510467D01*
X86078690Y-86666227D01*
X85946227Y-86798690D01*
X85867818Y-86851081D01*
X85790466Y-86902766D01*
X85617395Y-86974454D01*
X85433667Y-87011000D01*
X85246333Y-87011000D01*
X85062605Y-86974454D01*
X84889534Y-86902766D01*
X84812182Y-86851081D01*
X84733773Y-86798690D01*
X84601310Y-86666227D01*
X84497235Y-86510467D01*
X84497234Y-86510466D01*
X84425546Y-86337395D01*
X84389000Y-86153667D01*
X84389000Y-85966333D01*
X84425546Y-85782605D01*
X84497234Y-85609534D01*
X84601309Y-85453775D01*
X84601310Y-85453773D01*
X84733773Y-85321310D01*
X84889533Y-85217235D01*
X84889534Y-85217234D01*
X85062605Y-85145546D01*
X85246333Y-85109000D01*
X85433667Y-85109000D01*
X85617395Y-85145546D01*
G37*
G36*
X90697395Y-85145546D02*
G01*
X90870466Y-85217234D01*
X90870467Y-85217235D01*
X91026227Y-85321310D01*
X91158690Y-85453773D01*
X91158691Y-85453775D01*
X91262766Y-85609534D01*
X91334454Y-85782605D01*
X91371000Y-85966333D01*
X91371000Y-86153667D01*
X91334454Y-86337395D01*
X91262766Y-86510466D01*
X91262765Y-86510467D01*
X91158690Y-86666227D01*
X91026227Y-86798690D01*
X90947818Y-86851081D01*
X90870466Y-86902766D01*
X90697395Y-86974454D01*
X90513667Y-87011000D01*
X90326333Y-87011000D01*
X90142605Y-86974454D01*
X89969534Y-86902766D01*
X89892182Y-86851081D01*
X89813773Y-86798690D01*
X89681310Y-86666227D01*
X89577235Y-86510467D01*
X89577234Y-86510466D01*
X89505546Y-86337395D01*
X89469000Y-86153667D01*
X89469000Y-85966333D01*
X89505546Y-85782605D01*
X89577234Y-85609534D01*
X89681309Y-85453775D01*
X89681310Y-85453773D01*
X89813773Y-85321310D01*
X89969533Y-85217235D01*
X89969534Y-85217234D01*
X90142605Y-85145546D01*
X90326333Y-85109000D01*
X90513667Y-85109000D01*
X90697395Y-85145546D01*
G37*
G36*
X85617395Y-82605546D02*
G01*
X85790466Y-82677234D01*
X85790467Y-82677235D01*
X85946227Y-82781310D01*
X86078690Y-82913773D01*
X86078691Y-82913775D01*
X86182766Y-83069534D01*
X86254454Y-83242605D01*
X86291000Y-83426333D01*
X86291000Y-83613667D01*
X86254454Y-83797395D01*
X86182766Y-83970466D01*
X86182765Y-83970467D01*
X86078690Y-84126227D01*
X85946227Y-84258690D01*
X85867818Y-84311081D01*
X85790466Y-84362766D01*
X85617395Y-84434454D01*
X85433667Y-84471000D01*
X85246333Y-84471000D01*
X85062605Y-84434454D01*
X84889534Y-84362766D01*
X84812182Y-84311081D01*
X84733773Y-84258690D01*
X84601310Y-84126227D01*
X84497235Y-83970467D01*
X84497234Y-83970466D01*
X84425546Y-83797395D01*
X84389000Y-83613667D01*
X84389000Y-83426333D01*
X84425546Y-83242605D01*
X84497234Y-83069534D01*
X84601309Y-82913775D01*
X84601310Y-82913773D01*
X84733773Y-82781310D01*
X84889533Y-82677235D01*
X84889534Y-82677234D01*
X85062605Y-82605546D01*
X85246333Y-82569000D01*
X85433667Y-82569000D01*
X85617395Y-82605546D01*
G37*
G36*
X90697395Y-82605546D02*
G01*
X90870466Y-82677234D01*
X90870467Y-82677235D01*
X91026227Y-82781310D01*
X91158690Y-82913773D01*
X91158691Y-82913775D01*
X91262766Y-83069534D01*
X91334454Y-83242605D01*
X91371000Y-83426333D01*
X91371000Y-83613667D01*
X91334454Y-83797395D01*
X91262766Y-83970466D01*
X91262765Y-83970467D01*
X91158690Y-84126227D01*
X91026227Y-84258690D01*
X90947818Y-84311081D01*
X90870466Y-84362766D01*
X90697395Y-84434454D01*
X90513667Y-84471000D01*
X90326333Y-84471000D01*
X90142605Y-84434454D01*
X89969534Y-84362766D01*
X89892182Y-84311081D01*
X89813773Y-84258690D01*
X89681310Y-84126227D01*
X89577235Y-83970467D01*
X89577234Y-83970466D01*
X89505546Y-83797395D01*
X89469000Y-83613667D01*
X89469000Y-83426333D01*
X89505546Y-83242605D01*
X89577234Y-83069534D01*
X89681309Y-82913775D01*
X89681310Y-82913773D01*
X89813773Y-82781310D01*
X89969533Y-82677235D01*
X89969534Y-82677234D01*
X90142605Y-82605546D01*
X90326333Y-82569000D01*
X90513667Y-82569000D01*
X90697395Y-82605546D01*
G37*
G36*
X85617395Y-80065546D02*
G01*
X85790466Y-80137234D01*
X85790467Y-80137235D01*
X85946227Y-80241310D01*
X86078690Y-80373773D01*
X86078691Y-80373775D01*
X86182766Y-80529534D01*
X86254454Y-80702605D01*
X86291000Y-80886333D01*
X86291000Y-81073667D01*
X86254454Y-81257395D01*
X86182766Y-81430466D01*
X86182765Y-81430467D01*
X86078690Y-81586227D01*
X85946227Y-81718690D01*
X85867818Y-81771081D01*
X85790466Y-81822766D01*
X85617395Y-81894454D01*
X85433667Y-81931000D01*
X85246333Y-81931000D01*
X85062605Y-81894454D01*
X84889534Y-81822766D01*
X84812182Y-81771081D01*
X84733773Y-81718690D01*
X84601310Y-81586227D01*
X84497235Y-81430467D01*
X84497234Y-81430466D01*
X84425546Y-81257395D01*
X84389000Y-81073667D01*
X84389000Y-80886333D01*
X84425546Y-80702605D01*
X84497234Y-80529534D01*
X84601309Y-80373775D01*
X84601310Y-80373773D01*
X84733773Y-80241310D01*
X84889533Y-80137235D01*
X84889534Y-80137234D01*
X85062605Y-80065546D01*
X85246333Y-80029000D01*
X85433667Y-80029000D01*
X85617395Y-80065546D01*
G37*
G36*
X90697395Y-80065546D02*
G01*
X90870466Y-80137234D01*
X90870467Y-80137235D01*
X91026227Y-80241310D01*
X91158690Y-80373773D01*
X91158691Y-80373775D01*
X91262766Y-80529534D01*
X91334454Y-80702605D01*
X91371000Y-80886333D01*
X91371000Y-81073667D01*
X91334454Y-81257395D01*
X91262766Y-81430466D01*
X91262765Y-81430467D01*
X91158690Y-81586227D01*
X91026227Y-81718690D01*
X90947818Y-81771081D01*
X90870466Y-81822766D01*
X90697395Y-81894454D01*
X90513667Y-81931000D01*
X90326333Y-81931000D01*
X90142605Y-81894454D01*
X89969534Y-81822766D01*
X89892182Y-81771081D01*
X89813773Y-81718690D01*
X89681310Y-81586227D01*
X89577235Y-81430467D01*
X89577234Y-81430466D01*
X89505546Y-81257395D01*
X89469000Y-81073667D01*
X89469000Y-80886333D01*
X89505546Y-80702605D01*
X89577234Y-80529534D01*
X89681309Y-80373775D01*
X89681310Y-80373773D01*
X89813773Y-80241310D01*
X89969533Y-80137235D01*
X89969534Y-80137234D01*
X90142605Y-80065546D01*
X90326333Y-80029000D01*
X90513667Y-80029000D01*
X90697395Y-80065546D01*
G37*
G36*
X90697395Y-77525546D02*
G01*
X90870466Y-77597234D01*
X90870467Y-77597235D01*
X91026227Y-77701310D01*
X91158690Y-77833773D01*
X91211081Y-77912182D01*
X91262766Y-77989534D01*
X91334454Y-78162605D01*
X91371000Y-78346333D01*
X91371000Y-78533667D01*
X91334454Y-78717395D01*
X91262766Y-78890466D01*
X91262765Y-78890467D01*
X91158690Y-79046227D01*
X91026227Y-79178690D01*
X90947818Y-79231081D01*
X90870466Y-79282766D01*
X90697395Y-79354454D01*
X90513667Y-79391000D01*
X90326333Y-79391000D01*
X90142605Y-79354454D01*
X89969534Y-79282766D01*
X89892182Y-79231081D01*
X89813773Y-79178690D01*
X89681310Y-79046227D01*
X89577235Y-78890467D01*
X89577234Y-78890466D01*
X89505546Y-78717395D01*
X89469000Y-78533667D01*
X89469000Y-78346333D01*
X89505546Y-78162605D01*
X89577234Y-77989534D01*
X89628919Y-77912182D01*
X89681310Y-77833773D01*
X89813773Y-77701310D01*
X89969533Y-77597235D01*
X89969534Y-77597234D01*
X90142605Y-77525546D01*
X90326333Y-77489000D01*
X90513667Y-77489000D01*
X90697395Y-77525546D01*
G37*
G36*
X85617395Y-77525546D02*
G01*
X85790466Y-77597234D01*
X85790467Y-77597235D01*
X85946227Y-77701310D01*
X86078690Y-77833773D01*
X86131081Y-77912182D01*
X86182766Y-77989534D01*
X86254454Y-78162605D01*
X86291000Y-78346333D01*
X86291000Y-78533667D01*
X86254454Y-78717395D01*
X86182766Y-78890466D01*
X86182765Y-78890467D01*
X86078690Y-79046227D01*
X85946227Y-79178690D01*
X85867818Y-79231081D01*
X85790466Y-79282766D01*
X85617395Y-79354454D01*
X85433667Y-79391000D01*
X85246333Y-79391000D01*
X85062605Y-79354454D01*
X84889534Y-79282766D01*
X84812182Y-79231081D01*
X84733773Y-79178690D01*
X84601310Y-79046227D01*
X84497235Y-78890467D01*
X84497234Y-78890466D01*
X84425546Y-78717395D01*
X84389000Y-78533667D01*
X84389000Y-78346333D01*
X84425546Y-78162605D01*
X84497234Y-77989534D01*
X84548919Y-77912182D01*
X84601310Y-77833773D01*
X84733773Y-77701310D01*
X84889533Y-77597235D01*
X84889534Y-77597234D01*
X85062605Y-77525546D01*
X85246333Y-77489000D01*
X85433667Y-77489000D01*
X85617395Y-77525546D01*
G37*
G36*
X117051000Y-78003500D02*
G01*
X114949000Y-78003500D01*
X114949000Y-75996500D01*
X117051000Y-75996500D01*
X117051000Y-78003500D01*
G37*
G36*
X121748228Y-76181703D02*
G01*
X121903100Y-76245853D01*
X122042481Y-76338985D01*
X122161015Y-76457519D01*
X122254147Y-76596900D01*
X122318297Y-76751772D01*
X122351000Y-76916184D01*
X122351000Y-77083816D01*
X122318297Y-77248228D01*
X122254147Y-77403100D01*
X122161015Y-77542481D01*
X122042481Y-77661015D01*
X121903100Y-77754147D01*
X121748228Y-77818297D01*
X121583816Y-77851000D01*
X121416184Y-77851000D01*
X121251772Y-77818297D01*
X121096900Y-77754147D01*
X120957519Y-77661015D01*
X120838985Y-77542481D01*
X120745853Y-77403100D01*
X120681703Y-77248228D01*
X120649000Y-77083816D01*
X120649000Y-76916184D01*
X120681703Y-76751772D01*
X120745853Y-76596900D01*
X120838985Y-76457519D01*
X120957519Y-76338985D01*
X121096900Y-76245853D01*
X121251772Y-76181703D01*
X121416184Y-76149000D01*
X121583816Y-76149000D01*
X121748228Y-76181703D01*
G37*
G36*
X124351000Y-77851000D02*
G01*
X122649000Y-77851000D01*
X122649000Y-76149000D01*
X124351000Y-76149000D01*
X124351000Y-77851000D01*
G37*
G36*
X85617395Y-74985546D02*
G01*
X85790466Y-75057234D01*
X85790467Y-75057235D01*
X85946227Y-75161310D01*
X86078690Y-75293773D01*
X86078691Y-75293775D01*
X86182766Y-75449534D01*
X86254454Y-75622605D01*
X86291000Y-75806333D01*
X86291000Y-75993667D01*
X86254454Y-76177395D01*
X86182766Y-76350466D01*
X86182765Y-76350467D01*
X86078690Y-76506227D01*
X85946227Y-76638690D01*
X85867818Y-76691081D01*
X85790466Y-76742766D01*
X85617395Y-76814454D01*
X85433667Y-76851000D01*
X85246333Y-76851000D01*
X85062605Y-76814454D01*
X84889534Y-76742766D01*
X84812182Y-76691081D01*
X84733773Y-76638690D01*
X84601310Y-76506227D01*
X84497235Y-76350467D01*
X84497234Y-76350466D01*
X84425546Y-76177395D01*
X84389000Y-75993667D01*
X84389000Y-75806333D01*
X84425546Y-75622605D01*
X84497234Y-75449534D01*
X84601309Y-75293775D01*
X84601310Y-75293773D01*
X84733773Y-75161310D01*
X84889533Y-75057235D01*
X84889534Y-75057234D01*
X85062605Y-74985546D01*
X85246333Y-74949000D01*
X85433667Y-74949000D01*
X85617395Y-74985546D01*
G37*
G36*
X90697395Y-74985546D02*
G01*
X90870466Y-75057234D01*
X90870467Y-75057235D01*
X91026227Y-75161310D01*
X91158690Y-75293773D01*
X91158691Y-75293775D01*
X91262766Y-75449534D01*
X91334454Y-75622605D01*
X91371000Y-75806333D01*
X91371000Y-75993667D01*
X91334454Y-76177395D01*
X91262766Y-76350466D01*
X91262765Y-76350467D01*
X91158690Y-76506227D01*
X91026227Y-76638690D01*
X90947818Y-76691081D01*
X90870466Y-76742766D01*
X90697395Y-76814454D01*
X90513667Y-76851000D01*
X90326333Y-76851000D01*
X90142605Y-76814454D01*
X89969534Y-76742766D01*
X89892182Y-76691081D01*
X89813773Y-76638690D01*
X89681310Y-76506227D01*
X89577235Y-76350467D01*
X89577234Y-76350466D01*
X89505546Y-76177395D01*
X89469000Y-75993667D01*
X89469000Y-75806333D01*
X89505546Y-75622605D01*
X89577234Y-75449534D01*
X89681309Y-75293775D01*
X89681310Y-75293773D01*
X89813773Y-75161310D01*
X89969533Y-75057235D01*
X89969534Y-75057234D01*
X90142605Y-74985546D01*
X90326333Y-74949000D01*
X90513667Y-74949000D01*
X90697395Y-74985546D01*
G37*
G36*
X99865331Y-72728211D02*
G01*
X100193092Y-72863974D01*
X100488070Y-73061072D01*
X100738928Y-73311930D01*
X100936026Y-73606908D01*
X101071789Y-73934669D01*
X101141000Y-74282616D01*
X101141000Y-74637384D01*
X101071789Y-74985331D01*
X100936026Y-75313092D01*
X100738928Y-75608070D01*
X100488070Y-75858928D01*
X100193092Y-76056026D01*
X99865331Y-76191789D01*
X99517384Y-76261000D01*
X99162616Y-76261000D01*
X98814669Y-76191789D01*
X98486908Y-76056026D01*
X98191930Y-75858928D01*
X97941072Y-75608070D01*
X97743974Y-75313092D01*
X97608211Y-74985331D01*
X97539000Y-74637384D01*
X97539000Y-74282616D01*
X97608211Y-73934669D01*
X97743974Y-73606908D01*
X97941072Y-73311930D01*
X98191930Y-73061072D01*
X98486908Y-72863974D01*
X98814669Y-72728211D01*
X99162616Y-72659000D01*
X99517384Y-72659000D01*
X99865331Y-72728211D01*
G37*
G36*
X116145936Y-73461340D02*
G01*
X116244220Y-73471020D01*
X116433381Y-73528401D01*
X116607712Y-73621583D01*
X116760515Y-73746985D01*
X116885917Y-73899788D01*
X116979099Y-74074119D01*
X117036480Y-74263280D01*
X117055855Y-74460000D01*
X117036480Y-74656720D01*
X116979099Y-74845881D01*
X116885917Y-75020212D01*
X116760515Y-75173015D01*
X116607712Y-75298417D01*
X116433381Y-75391599D01*
X116244220Y-75448980D01*
X116145936Y-75458660D01*
X116096795Y-75463500D01*
X115903205Y-75463500D01*
X115854064Y-75458660D01*
X115755780Y-75448980D01*
X115566619Y-75391599D01*
X115392288Y-75298417D01*
X115239485Y-75173015D01*
X115114083Y-75020212D01*
X115020901Y-74845881D01*
X114963520Y-74656720D01*
X114944145Y-74460000D01*
X114963520Y-74263280D01*
X115020901Y-74074119D01*
X115114083Y-73899788D01*
X115239485Y-73746985D01*
X115392288Y-73621583D01*
X115566619Y-73528401D01*
X115755780Y-73471020D01*
X115854064Y-73461340D01*
X115903205Y-73456500D01*
X116096795Y-73456500D01*
X116145936Y-73461340D01*
G37*
G36*
X90697395Y-72445546D02*
G01*
X90870466Y-72517234D01*
X90870467Y-72517235D01*
X91026227Y-72621310D01*
X91158690Y-72753773D01*
X91158691Y-72753775D01*
X91262766Y-72909534D01*
X91334454Y-73082605D01*
X91371000Y-73266333D01*
X91371000Y-73453667D01*
X91334454Y-73637395D01*
X91262766Y-73810466D01*
X91262765Y-73810467D01*
X91158690Y-73966227D01*
X91026227Y-74098690D01*
X90947818Y-74151081D01*
X90870466Y-74202766D01*
X90697395Y-74274454D01*
X90513667Y-74311000D01*
X90326333Y-74311000D01*
X90142605Y-74274454D01*
X89969534Y-74202766D01*
X89892182Y-74151081D01*
X89813773Y-74098690D01*
X89681310Y-73966227D01*
X89577235Y-73810467D01*
X89577234Y-73810466D01*
X89505546Y-73637395D01*
X89469000Y-73453667D01*
X89469000Y-73266333D01*
X89505546Y-73082605D01*
X89577234Y-72909534D01*
X89681309Y-72753775D01*
X89681310Y-72753773D01*
X89813773Y-72621310D01*
X89969533Y-72517235D01*
X89969534Y-72517234D01*
X90142605Y-72445546D01*
X90326333Y-72409000D01*
X90513667Y-72409000D01*
X90697395Y-72445546D01*
G37*
G36*
X85617395Y-72445546D02*
G01*
X85790466Y-72517234D01*
X85790467Y-72517235D01*
X85946227Y-72621310D01*
X86078690Y-72753773D01*
X86078691Y-72753775D01*
X86182766Y-72909534D01*
X86254454Y-73082605D01*
X86291000Y-73266333D01*
X86291000Y-73453667D01*
X86254454Y-73637395D01*
X86182766Y-73810466D01*
X86182765Y-73810467D01*
X86078690Y-73966227D01*
X85946227Y-74098690D01*
X85867818Y-74151081D01*
X85790466Y-74202766D01*
X85617395Y-74274454D01*
X85433667Y-74311000D01*
X85246333Y-74311000D01*
X85062605Y-74274454D01*
X84889534Y-74202766D01*
X84812182Y-74151081D01*
X84733773Y-74098690D01*
X84601310Y-73966227D01*
X84497235Y-73810467D01*
X84497234Y-73810466D01*
X84425546Y-73637395D01*
X84389000Y-73453667D01*
X84389000Y-73266333D01*
X84425546Y-73082605D01*
X84497234Y-72909534D01*
X84601309Y-72753775D01*
X84601310Y-72753773D01*
X84733773Y-72621310D01*
X84889533Y-72517235D01*
X84889534Y-72517234D01*
X85062605Y-72445546D01*
X85246333Y-72409000D01*
X85433667Y-72409000D01*
X85617395Y-72445546D01*
G37*
G36*
X116145936Y-70921340D02*
G01*
X116244220Y-70931020D01*
X116433381Y-70988401D01*
X116607712Y-71081583D01*
X116760515Y-71206985D01*
X116885917Y-71359788D01*
X116979099Y-71534119D01*
X117036480Y-71723280D01*
X117055855Y-71920000D01*
X117036480Y-72116720D01*
X116979099Y-72305881D01*
X116885917Y-72480212D01*
X116760515Y-72633015D01*
X116607712Y-72758417D01*
X116433381Y-72851599D01*
X116244220Y-72908980D01*
X116145936Y-72918660D01*
X116096795Y-72923500D01*
X115903205Y-72923500D01*
X115854064Y-72918660D01*
X115755780Y-72908980D01*
X115566619Y-72851599D01*
X115392288Y-72758417D01*
X115239485Y-72633015D01*
X115114083Y-72480212D01*
X115020901Y-72305881D01*
X114963520Y-72116720D01*
X114944145Y-71920000D01*
X114963520Y-71723280D01*
X115020901Y-71534119D01*
X115114083Y-71359788D01*
X115239485Y-71206985D01*
X115392288Y-71081583D01*
X115566619Y-70988401D01*
X115755780Y-70931020D01*
X115854064Y-70921340D01*
X115903205Y-70916500D01*
X116096795Y-70916500D01*
X116145936Y-70921340D01*
G37*
G36*
X85617395Y-69905546D02*
G01*
X85790466Y-69977234D01*
X85790467Y-69977235D01*
X85946227Y-70081310D01*
X86078690Y-70213773D01*
X86078691Y-70213775D01*
X86182766Y-70369534D01*
X86254454Y-70542605D01*
X86291000Y-70726333D01*
X86291000Y-70913667D01*
X86254454Y-71097395D01*
X86182766Y-71270466D01*
X86182765Y-71270467D01*
X86078690Y-71426227D01*
X85946227Y-71558690D01*
X85867818Y-71611081D01*
X85790466Y-71662766D01*
X85617395Y-71734454D01*
X85433667Y-71771000D01*
X85246333Y-71771000D01*
X85062605Y-71734454D01*
X84889534Y-71662766D01*
X84812182Y-71611081D01*
X84733773Y-71558690D01*
X84601310Y-71426227D01*
X84497235Y-71270467D01*
X84497234Y-71270466D01*
X84425546Y-71097395D01*
X84389000Y-70913667D01*
X84389000Y-70726333D01*
X84425546Y-70542605D01*
X84497234Y-70369534D01*
X84601309Y-70213775D01*
X84601310Y-70213773D01*
X84733773Y-70081310D01*
X84889533Y-69977235D01*
X84889534Y-69977234D01*
X85062605Y-69905546D01*
X85246333Y-69869000D01*
X85433667Y-69869000D01*
X85617395Y-69905546D01*
G37*
G36*
X90697395Y-69905546D02*
G01*
X90870466Y-69977234D01*
X90870467Y-69977235D01*
X91026227Y-70081310D01*
X91158690Y-70213773D01*
X91158691Y-70213775D01*
X91262766Y-70369534D01*
X91334454Y-70542605D01*
X91371000Y-70726333D01*
X91371000Y-70913667D01*
X91334454Y-71097395D01*
X91262766Y-71270466D01*
X91262765Y-71270467D01*
X91158690Y-71426227D01*
X91026227Y-71558690D01*
X90947818Y-71611081D01*
X90870466Y-71662766D01*
X90697395Y-71734454D01*
X90513667Y-71771000D01*
X90326333Y-71771000D01*
X90142605Y-71734454D01*
X89969534Y-71662766D01*
X89892182Y-71611081D01*
X89813773Y-71558690D01*
X89681310Y-71426227D01*
X89577235Y-71270467D01*
X89577234Y-71270466D01*
X89505546Y-71097395D01*
X89469000Y-70913667D01*
X89469000Y-70726333D01*
X89505546Y-70542605D01*
X89577234Y-70369534D01*
X89681309Y-70213775D01*
X89681310Y-70213773D01*
X89813773Y-70081310D01*
X89969533Y-69977235D01*
X89969534Y-69977234D01*
X90142605Y-69905546D01*
X90326333Y-69869000D01*
X90513667Y-69869000D01*
X90697395Y-69905546D01*
G37*
G36*
X90697395Y-67365546D02*
G01*
X90870466Y-67437234D01*
X90870467Y-67437235D01*
X91026227Y-67541310D01*
X91158690Y-67673773D01*
X91158691Y-67673775D01*
X91262766Y-67829534D01*
X91334454Y-68002605D01*
X91371000Y-68186333D01*
X91371000Y-68373667D01*
X91334454Y-68557395D01*
X91262766Y-68730466D01*
X91262765Y-68730467D01*
X91158690Y-68886227D01*
X91026227Y-69018690D01*
X90947818Y-69071081D01*
X90870466Y-69122766D01*
X90697395Y-69194454D01*
X90513667Y-69231000D01*
X90326333Y-69231000D01*
X90142605Y-69194454D01*
X89969534Y-69122766D01*
X89892182Y-69071081D01*
X89813773Y-69018690D01*
X89681310Y-68886227D01*
X89577235Y-68730467D01*
X89577234Y-68730466D01*
X89505546Y-68557395D01*
X89469000Y-68373667D01*
X89469000Y-68186333D01*
X89505546Y-68002605D01*
X89577234Y-67829534D01*
X89681309Y-67673775D01*
X89681310Y-67673773D01*
X89813773Y-67541310D01*
X89969533Y-67437235D01*
X89969534Y-67437234D01*
X90142605Y-67365546D01*
X90326333Y-67329000D01*
X90513667Y-67329000D01*
X90697395Y-67365546D01*
G37*
G36*
X85617395Y-67365546D02*
G01*
X85790466Y-67437234D01*
X85790467Y-67437235D01*
X85946227Y-67541310D01*
X86078690Y-67673773D01*
X86078691Y-67673775D01*
X86182766Y-67829534D01*
X86254454Y-68002605D01*
X86291000Y-68186333D01*
X86291000Y-68373667D01*
X86254454Y-68557395D01*
X86182766Y-68730466D01*
X86182765Y-68730467D01*
X86078690Y-68886227D01*
X85946227Y-69018690D01*
X85867818Y-69071081D01*
X85790466Y-69122766D01*
X85617395Y-69194454D01*
X85433667Y-69231000D01*
X85246333Y-69231000D01*
X85062605Y-69194454D01*
X84889534Y-69122766D01*
X84812182Y-69071081D01*
X84733773Y-69018690D01*
X84601310Y-68886227D01*
X84497235Y-68730467D01*
X84497234Y-68730466D01*
X84425546Y-68557395D01*
X84389000Y-68373667D01*
X84389000Y-68186333D01*
X84425546Y-68002605D01*
X84497234Y-67829534D01*
X84601309Y-67673775D01*
X84601310Y-67673773D01*
X84733773Y-67541310D01*
X84889533Y-67437235D01*
X84889534Y-67437234D01*
X85062605Y-67365546D01*
X85246333Y-67329000D01*
X85433667Y-67329000D01*
X85617395Y-67365546D01*
G37*
G36*
X232651560Y-65879064D02*
G01*
X232803027Y-65909193D01*
X233017045Y-65997842D01*
X233081249Y-66040742D01*
X233209654Y-66126539D01*
X233373461Y-66290346D01*
X233410798Y-66346225D01*
X233502158Y-66482955D01*
X233590807Y-66696973D01*
X233636000Y-66924174D01*
X233636000Y-67155826D01*
X233590807Y-67383027D01*
X233502158Y-67597045D01*
X233502157Y-67597046D01*
X233373461Y-67789654D01*
X233209654Y-67953461D01*
X233136106Y-68002604D01*
X233017045Y-68082158D01*
X232803027Y-68170807D01*
X232651560Y-68200936D01*
X232575827Y-68216000D01*
X232344173Y-68216000D01*
X232268440Y-68200936D01*
X232116973Y-68170807D01*
X231902955Y-68082158D01*
X231783894Y-68002604D01*
X231710346Y-67953461D01*
X231546539Y-67789654D01*
X231417843Y-67597046D01*
X231417842Y-67597045D01*
X231329193Y-67383027D01*
X231284000Y-67155826D01*
X231284000Y-66924174D01*
X231329193Y-66696973D01*
X231417842Y-66482955D01*
X231509202Y-66346225D01*
X231546539Y-66290346D01*
X231710346Y-66126539D01*
X231838751Y-66040742D01*
X231902955Y-65997842D01*
X232116973Y-65909193D01*
X232268440Y-65879064D01*
X232344173Y-65864000D01*
X232575827Y-65864000D01*
X232651560Y-65879064D01*
G37*
G36*
X237731560Y-65879064D02*
G01*
X237883027Y-65909193D01*
X238097045Y-65997842D01*
X238161249Y-66040742D01*
X238289654Y-66126539D01*
X238453461Y-66290346D01*
X238490798Y-66346225D01*
X238582158Y-66482955D01*
X238670807Y-66696973D01*
X238716000Y-66924174D01*
X238716000Y-67155826D01*
X238670807Y-67383027D01*
X238582158Y-67597045D01*
X238582157Y-67597046D01*
X238453461Y-67789654D01*
X238289654Y-67953461D01*
X238216106Y-68002604D01*
X238097045Y-68082158D01*
X237883027Y-68170807D01*
X237731560Y-68200936D01*
X237655827Y-68216000D01*
X237424173Y-68216000D01*
X237348440Y-68200936D01*
X237196973Y-68170807D01*
X236982955Y-68082158D01*
X236863894Y-68002604D01*
X236790346Y-67953461D01*
X236626539Y-67789654D01*
X236497843Y-67597046D01*
X236497842Y-67597045D01*
X236409193Y-67383027D01*
X236364000Y-67155826D01*
X236364000Y-66924174D01*
X236409193Y-66696973D01*
X236497842Y-66482955D01*
X236589202Y-66346225D01*
X236626539Y-66290346D01*
X236790346Y-66126539D01*
X236918751Y-66040742D01*
X236982955Y-65997842D01*
X237196973Y-65909193D01*
X237348440Y-65879064D01*
X237424173Y-65864000D01*
X237655827Y-65864000D01*
X237731560Y-65879064D01*
G37*
G36*
X196151560Y-65879064D02*
G01*
X196303027Y-65909193D01*
X196517045Y-65997842D01*
X196581249Y-66040742D01*
X196709654Y-66126539D01*
X196873461Y-66290346D01*
X196910798Y-66346225D01*
X197002158Y-66482955D01*
X197090807Y-66696973D01*
X197136000Y-66924174D01*
X197136000Y-67155826D01*
X197090807Y-67383027D01*
X197002158Y-67597045D01*
X197002157Y-67597046D01*
X196873461Y-67789654D01*
X196709654Y-67953461D01*
X196636106Y-68002604D01*
X196517045Y-68082158D01*
X196303027Y-68170807D01*
X196151560Y-68200936D01*
X196075827Y-68216000D01*
X195844173Y-68216000D01*
X195768440Y-68200936D01*
X195616973Y-68170807D01*
X195402955Y-68082158D01*
X195283894Y-68002604D01*
X195210346Y-67953461D01*
X195046539Y-67789654D01*
X194917843Y-67597046D01*
X194917842Y-67597045D01*
X194829193Y-67383027D01*
X194784000Y-67155826D01*
X194784000Y-66924174D01*
X194829193Y-66696973D01*
X194917842Y-66482955D01*
X195009202Y-66346225D01*
X195046539Y-66290346D01*
X195210346Y-66126539D01*
X195338751Y-66040742D01*
X195402955Y-65997842D01*
X195616973Y-65909193D01*
X195768440Y-65879064D01*
X195844173Y-65864000D01*
X196075827Y-65864000D01*
X196151560Y-65879064D01*
G37*
G36*
X201231560Y-65879064D02*
G01*
X201383027Y-65909193D01*
X201597045Y-65997842D01*
X201661249Y-66040742D01*
X201789654Y-66126539D01*
X201953461Y-66290346D01*
X201990798Y-66346225D01*
X202082158Y-66482955D01*
X202170807Y-66696973D01*
X202216000Y-66924174D01*
X202216000Y-67155826D01*
X202170807Y-67383027D01*
X202082158Y-67597045D01*
X202082157Y-67597046D01*
X201953461Y-67789654D01*
X201789654Y-67953461D01*
X201716106Y-68002604D01*
X201597045Y-68082158D01*
X201383027Y-68170807D01*
X201231560Y-68200936D01*
X201155827Y-68216000D01*
X200924173Y-68216000D01*
X200848440Y-68200936D01*
X200696973Y-68170807D01*
X200482955Y-68082158D01*
X200363894Y-68002604D01*
X200290346Y-67953461D01*
X200126539Y-67789654D01*
X199997843Y-67597046D01*
X199997842Y-67597045D01*
X199909193Y-67383027D01*
X199864000Y-67155826D01*
X199864000Y-66924174D01*
X199909193Y-66696973D01*
X199997842Y-66482955D01*
X200089202Y-66346225D01*
X200126539Y-66290346D01*
X200290346Y-66126539D01*
X200418751Y-66040742D01*
X200482955Y-65997842D01*
X200696973Y-65909193D01*
X200848440Y-65879064D01*
X200924173Y-65864000D01*
X201155827Y-65864000D01*
X201231560Y-65879064D01*
G37*
G36*
X85617395Y-64825546D02*
G01*
X85790466Y-64897234D01*
X85790467Y-64897235D01*
X85946227Y-65001310D01*
X86078690Y-65133773D01*
X86078691Y-65133775D01*
X86182766Y-65289534D01*
X86254454Y-65462605D01*
X86291000Y-65646333D01*
X86291000Y-65833667D01*
X86254454Y-66017395D01*
X86182766Y-66190466D01*
X86182765Y-66190467D01*
X86078690Y-66346227D01*
X85946227Y-66478690D01*
X85867818Y-66531081D01*
X85790466Y-66582766D01*
X85617395Y-66654454D01*
X85433667Y-66691000D01*
X85246333Y-66691000D01*
X85062605Y-66654454D01*
X84889534Y-66582766D01*
X84812182Y-66531081D01*
X84733773Y-66478690D01*
X84601310Y-66346227D01*
X84497235Y-66190467D01*
X84497234Y-66190466D01*
X84425546Y-66017395D01*
X84389000Y-65833667D01*
X84389000Y-65646333D01*
X84425546Y-65462605D01*
X84497234Y-65289534D01*
X84601309Y-65133775D01*
X84601310Y-65133773D01*
X84733773Y-65001310D01*
X84889533Y-64897235D01*
X84889534Y-64897234D01*
X85062605Y-64825546D01*
X85246333Y-64789000D01*
X85433667Y-64789000D01*
X85617395Y-64825546D01*
G37*
G36*
X90697395Y-64825546D02*
G01*
X90870466Y-64897234D01*
X90870467Y-64897235D01*
X91026227Y-65001310D01*
X91158690Y-65133773D01*
X91158691Y-65133775D01*
X91262766Y-65289534D01*
X91334454Y-65462605D01*
X91371000Y-65646333D01*
X91371000Y-65833667D01*
X91334454Y-66017395D01*
X91262766Y-66190466D01*
X91262765Y-66190467D01*
X91158690Y-66346227D01*
X91026227Y-66478690D01*
X90947818Y-66531081D01*
X90870466Y-66582766D01*
X90697395Y-66654454D01*
X90513667Y-66691000D01*
X90326333Y-66691000D01*
X90142605Y-66654454D01*
X89969534Y-66582766D01*
X89892182Y-66531081D01*
X89813773Y-66478690D01*
X89681310Y-66346227D01*
X89577235Y-66190467D01*
X89577234Y-66190466D01*
X89505546Y-66017395D01*
X89469000Y-65833667D01*
X89469000Y-65646333D01*
X89505546Y-65462605D01*
X89577234Y-65289534D01*
X89681309Y-65133775D01*
X89681310Y-65133773D01*
X89813773Y-65001310D01*
X89969533Y-64897235D01*
X89969534Y-64897234D01*
X90142605Y-64825546D01*
X90326333Y-64789000D01*
X90513667Y-64789000D01*
X90697395Y-64825546D01*
G37*
G36*
X235191560Y-63339064D02*
G01*
X235343027Y-63369193D01*
X235557045Y-63457842D01*
X235621249Y-63500742D01*
X235749654Y-63586539D01*
X235913461Y-63750346D01*
X235950798Y-63806225D01*
X236042158Y-63942955D01*
X236130807Y-64156973D01*
X236176000Y-64384174D01*
X236176000Y-64615826D01*
X236130807Y-64843027D01*
X236042158Y-65057045D01*
X236042157Y-65057046D01*
X235913461Y-65249654D01*
X235749654Y-65413461D01*
X235676106Y-65462604D01*
X235557045Y-65542158D01*
X235343027Y-65630807D01*
X235191560Y-65660936D01*
X235115827Y-65676000D01*
X234884173Y-65676000D01*
X234808440Y-65660936D01*
X234656973Y-65630807D01*
X234442955Y-65542158D01*
X234323894Y-65462604D01*
X234250346Y-65413461D01*
X234086539Y-65249654D01*
X233957843Y-65057046D01*
X233957842Y-65057045D01*
X233869193Y-64843027D01*
X233824000Y-64615826D01*
X233824000Y-64384174D01*
X233869193Y-64156973D01*
X233957842Y-63942955D01*
X234049202Y-63806225D01*
X234086539Y-63750346D01*
X234250346Y-63586539D01*
X234378751Y-63500742D01*
X234442955Y-63457842D01*
X234656973Y-63369193D01*
X234808440Y-63339064D01*
X234884173Y-63324000D01*
X235115827Y-63324000D01*
X235191560Y-63339064D01*
G37*
G36*
X198675271Y-63437783D02*
G01*
X198813858Y-63465350D01*
X199009677Y-63546461D01*
X199185910Y-63664216D01*
X199335784Y-63814090D01*
X199453539Y-63990323D01*
X199534650Y-64186142D01*
X199576000Y-64394023D01*
X199576000Y-64605977D01*
X199534650Y-64813858D01*
X199453539Y-65009677D01*
X199335784Y-65185910D01*
X199185910Y-65335784D01*
X199009677Y-65453539D01*
X198813858Y-65534650D01*
X198675271Y-65562217D01*
X198605978Y-65576000D01*
X198394022Y-65576000D01*
X198324729Y-65562217D01*
X198186142Y-65534650D01*
X197990323Y-65453539D01*
X197814090Y-65335784D01*
X197664216Y-65185910D01*
X197546461Y-65009677D01*
X197465350Y-64813858D01*
X197424000Y-64605977D01*
X197424000Y-64394023D01*
X197465350Y-64186142D01*
X197546461Y-63990323D01*
X197664216Y-63814090D01*
X197814090Y-63664216D01*
X197990323Y-63546461D01*
X198186142Y-63465350D01*
X198324729Y-63437783D01*
X198394022Y-63424000D01*
X198605978Y-63424000D01*
X198675271Y-63437783D01*
G37*
G36*
X90697395Y-62285546D02*
G01*
X90870466Y-62357234D01*
X90870467Y-62357235D01*
X91026227Y-62461310D01*
X91158690Y-62593773D01*
X91158691Y-62593775D01*
X91262766Y-62749534D01*
X91334454Y-62922605D01*
X91371000Y-63106333D01*
X91371000Y-63293667D01*
X91334454Y-63477395D01*
X91262766Y-63650466D01*
X91211081Y-63727818D01*
X91158690Y-63806227D01*
X91026227Y-63938690D01*
X90948954Y-63990322D01*
X90870466Y-64042766D01*
X90697395Y-64114454D01*
X90513667Y-64151000D01*
X90326333Y-64151000D01*
X90142605Y-64114454D01*
X89969534Y-64042766D01*
X89891046Y-63990322D01*
X89813773Y-63938690D01*
X89681310Y-63806227D01*
X89628919Y-63727818D01*
X89577234Y-63650466D01*
X89505546Y-63477395D01*
X89469000Y-63293667D01*
X89469000Y-63106333D01*
X89505546Y-62922605D01*
X89577234Y-62749534D01*
X89681309Y-62593775D01*
X89681310Y-62593773D01*
X89813773Y-62461310D01*
X89969533Y-62357235D01*
X89969534Y-62357234D01*
X90142605Y-62285546D01*
X90326333Y-62249000D01*
X90513667Y-62249000D01*
X90697395Y-62285546D01*
G37*
G36*
X85617395Y-62285546D02*
G01*
X85790466Y-62357234D01*
X85790467Y-62357235D01*
X85946227Y-62461310D01*
X86078690Y-62593773D01*
X86078691Y-62593775D01*
X86182766Y-62749534D01*
X86254454Y-62922605D01*
X86291000Y-63106333D01*
X86291000Y-63293667D01*
X86254454Y-63477395D01*
X86182766Y-63650466D01*
X86131081Y-63727818D01*
X86078690Y-63806227D01*
X85946227Y-63938690D01*
X85868954Y-63990322D01*
X85790466Y-64042766D01*
X85617395Y-64114454D01*
X85433667Y-64151000D01*
X85246333Y-64151000D01*
X85062605Y-64114454D01*
X84889534Y-64042766D01*
X84811046Y-63990322D01*
X84733773Y-63938690D01*
X84601310Y-63806227D01*
X84548919Y-63727818D01*
X84497234Y-63650466D01*
X84425546Y-63477395D01*
X84389000Y-63293667D01*
X84389000Y-63106333D01*
X84425546Y-62922605D01*
X84497234Y-62749534D01*
X84601309Y-62593775D01*
X84601310Y-62593773D01*
X84733773Y-62461310D01*
X84889533Y-62357235D01*
X84889534Y-62357234D01*
X85062605Y-62285546D01*
X85246333Y-62249000D01*
X85433667Y-62249000D01*
X85617395Y-62285546D01*
G37*
G36*
X116248228Y-61681703D02*
G01*
X116403100Y-61745853D01*
X116542481Y-61838985D01*
X116661015Y-61957519D01*
X116754147Y-62096900D01*
X116818297Y-62251772D01*
X116851000Y-62416184D01*
X116851000Y-62583816D01*
X116818297Y-62748228D01*
X116754147Y-62903100D01*
X116661015Y-63042481D01*
X116542481Y-63161015D01*
X116403100Y-63254147D01*
X116248228Y-63318297D01*
X116083816Y-63351000D01*
X115916184Y-63351000D01*
X115751772Y-63318297D01*
X115596900Y-63254147D01*
X115457519Y-63161015D01*
X115338985Y-63042481D01*
X115245853Y-62903100D01*
X115181703Y-62748228D01*
X115149000Y-62583816D01*
X115149000Y-62416184D01*
X115181703Y-62251772D01*
X115245853Y-62096900D01*
X115338985Y-61957519D01*
X115457519Y-61838985D01*
X115596900Y-61745853D01*
X115751772Y-61681703D01*
X115916184Y-61649000D01*
X116083816Y-61649000D01*
X116248228Y-61681703D01*
G37*
G36*
X118851000Y-63351000D02*
G01*
X117149000Y-63351000D01*
X117149000Y-61649000D01*
X118851000Y-61649000D01*
X118851000Y-63351000D01*
G37*
G36*
X201231560Y-60799064D02*
G01*
X201383027Y-60829193D01*
X201597045Y-60917842D01*
X201661249Y-60960742D01*
X201789654Y-61046539D01*
X201953461Y-61210346D01*
X201990798Y-61266225D01*
X202082158Y-61402955D01*
X202170807Y-61616973D01*
X202216000Y-61844174D01*
X202216000Y-62075826D01*
X202170807Y-62303027D01*
X202082158Y-62517045D01*
X202082157Y-62517046D01*
X201953461Y-62709654D01*
X201789654Y-62873461D01*
X201716106Y-62922604D01*
X201597045Y-63002158D01*
X201383027Y-63090807D01*
X201231560Y-63120936D01*
X201155827Y-63136000D01*
X200924173Y-63136000D01*
X200848440Y-63120936D01*
X200696973Y-63090807D01*
X200482955Y-63002158D01*
X200363894Y-62922604D01*
X200290346Y-62873461D01*
X200126539Y-62709654D01*
X199997843Y-62517046D01*
X199997842Y-62517045D01*
X199909193Y-62303027D01*
X199864000Y-62075826D01*
X199864000Y-61844174D01*
X199909193Y-61616973D01*
X199997842Y-61402955D01*
X200089202Y-61266225D01*
X200126539Y-61210346D01*
X200290346Y-61046539D01*
X200418751Y-60960742D01*
X200482955Y-60917842D01*
X200696973Y-60829193D01*
X200848440Y-60799064D01*
X200924173Y-60784000D01*
X201155827Y-60784000D01*
X201231560Y-60799064D01*
G37*
G36*
X196151560Y-60799064D02*
G01*
X196303027Y-60829193D01*
X196517045Y-60917842D01*
X196581249Y-60960742D01*
X196709654Y-61046539D01*
X196873461Y-61210346D01*
X196910798Y-61266225D01*
X197002158Y-61402955D01*
X197090807Y-61616973D01*
X197136000Y-61844174D01*
X197136000Y-62075826D01*
X197090807Y-62303027D01*
X197002158Y-62517045D01*
X197002157Y-62517046D01*
X196873461Y-62709654D01*
X196709654Y-62873461D01*
X196636106Y-62922604D01*
X196517045Y-63002158D01*
X196303027Y-63090807D01*
X196151560Y-63120936D01*
X196075827Y-63136000D01*
X195844173Y-63136000D01*
X195768440Y-63120936D01*
X195616973Y-63090807D01*
X195402955Y-63002158D01*
X195283894Y-62922604D01*
X195210346Y-62873461D01*
X195046539Y-62709654D01*
X194917843Y-62517046D01*
X194917842Y-62517045D01*
X194829193Y-62303027D01*
X194784000Y-62075826D01*
X194784000Y-61844174D01*
X194829193Y-61616973D01*
X194917842Y-61402955D01*
X195009202Y-61266225D01*
X195046539Y-61210346D01*
X195210346Y-61046539D01*
X195338751Y-60960742D01*
X195402955Y-60917842D01*
X195616973Y-60829193D01*
X195768440Y-60799064D01*
X195844173Y-60784000D01*
X196075827Y-60784000D01*
X196151560Y-60799064D01*
G37*
G36*
X232651560Y-60799064D02*
G01*
X232803027Y-60829193D01*
X233017045Y-60917842D01*
X233081249Y-60960742D01*
X233209654Y-61046539D01*
X233373461Y-61210346D01*
X233410798Y-61266225D01*
X233502158Y-61402955D01*
X233590807Y-61616973D01*
X233636000Y-61844174D01*
X233636000Y-62075826D01*
X233590807Y-62303027D01*
X233502158Y-62517045D01*
X233502157Y-62517046D01*
X233373461Y-62709654D01*
X233209654Y-62873461D01*
X233136106Y-62922604D01*
X233017045Y-63002158D01*
X232803027Y-63090807D01*
X232651560Y-63120936D01*
X232575827Y-63136000D01*
X232344173Y-63136000D01*
X232268440Y-63120936D01*
X232116973Y-63090807D01*
X231902955Y-63002158D01*
X231783894Y-62922604D01*
X231710346Y-62873461D01*
X231546539Y-62709654D01*
X231417843Y-62517046D01*
X231417842Y-62517045D01*
X231329193Y-62303027D01*
X231284000Y-62075826D01*
X231284000Y-61844174D01*
X231329193Y-61616973D01*
X231417842Y-61402955D01*
X231509202Y-61266225D01*
X231546539Y-61210346D01*
X231710346Y-61046539D01*
X231838751Y-60960742D01*
X231902955Y-60917842D01*
X232116973Y-60829193D01*
X232268440Y-60799064D01*
X232344173Y-60784000D01*
X232575827Y-60784000D01*
X232651560Y-60799064D01*
G37*
G36*
X237731560Y-60799064D02*
G01*
X237883027Y-60829193D01*
X238097045Y-60917842D01*
X238161249Y-60960742D01*
X238289654Y-61046539D01*
X238453461Y-61210346D01*
X238490798Y-61266225D01*
X238582158Y-61402955D01*
X238670807Y-61616973D01*
X238716000Y-61844174D01*
X238716000Y-62075826D01*
X238670807Y-62303027D01*
X238582158Y-62517045D01*
X238582157Y-62517046D01*
X238453461Y-62709654D01*
X238289654Y-62873461D01*
X238216106Y-62922604D01*
X238097045Y-63002158D01*
X237883027Y-63090807D01*
X237731560Y-63120936D01*
X237655827Y-63136000D01*
X237424173Y-63136000D01*
X237348440Y-63120936D01*
X237196973Y-63090807D01*
X236982955Y-63002158D01*
X236863894Y-62922604D01*
X236790346Y-62873461D01*
X236626539Y-62709654D01*
X236497843Y-62517046D01*
X236497842Y-62517045D01*
X236409193Y-62303027D01*
X236364000Y-62075826D01*
X236364000Y-61844174D01*
X236409193Y-61616973D01*
X236497842Y-61402955D01*
X236589202Y-61266225D01*
X236626539Y-61210346D01*
X236790346Y-61046539D01*
X236918751Y-60960742D01*
X236982955Y-60917842D01*
X237196973Y-60829193D01*
X237348440Y-60799064D01*
X237424173Y-60784000D01*
X237655827Y-60784000D01*
X237731560Y-60799064D01*
G37*
G36*
X85617395Y-59745546D02*
G01*
X85790466Y-59817234D01*
X85790467Y-59817235D01*
X85946227Y-59921310D01*
X86078690Y-60053773D01*
X86078691Y-60053775D01*
X86182766Y-60209534D01*
X86254454Y-60382605D01*
X86291000Y-60566333D01*
X86291000Y-60753667D01*
X86254454Y-60937395D01*
X86182766Y-61110466D01*
X86182765Y-61110467D01*
X86078690Y-61266227D01*
X85946227Y-61398690D01*
X85867818Y-61451081D01*
X85790466Y-61502766D01*
X85617395Y-61574454D01*
X85433667Y-61611000D01*
X85246333Y-61611000D01*
X85062605Y-61574454D01*
X84889534Y-61502766D01*
X84812182Y-61451081D01*
X84733773Y-61398690D01*
X84601310Y-61266227D01*
X84497235Y-61110467D01*
X84497234Y-61110466D01*
X84425546Y-60937395D01*
X84389000Y-60753667D01*
X84389000Y-60566333D01*
X84425546Y-60382605D01*
X84497234Y-60209534D01*
X84601309Y-60053775D01*
X84601310Y-60053773D01*
X84733773Y-59921310D01*
X84889533Y-59817235D01*
X84889534Y-59817234D01*
X85062605Y-59745546D01*
X85246333Y-59709000D01*
X85433667Y-59709000D01*
X85617395Y-59745546D01*
G37*
G36*
X90697395Y-59745546D02*
G01*
X90870466Y-59817234D01*
X90870467Y-59817235D01*
X91026227Y-59921310D01*
X91158690Y-60053773D01*
X91158691Y-60053775D01*
X91262766Y-60209534D01*
X91334454Y-60382605D01*
X91371000Y-60566333D01*
X91371000Y-60753667D01*
X91334454Y-60937395D01*
X91262766Y-61110466D01*
X91262765Y-61110467D01*
X91158690Y-61266227D01*
X91026227Y-61398690D01*
X90947818Y-61451081D01*
X90870466Y-61502766D01*
X90697395Y-61574454D01*
X90513667Y-61611000D01*
X90326333Y-61611000D01*
X90142605Y-61574454D01*
X89969534Y-61502766D01*
X89892182Y-61451081D01*
X89813773Y-61398690D01*
X89681310Y-61266227D01*
X89577235Y-61110467D01*
X89577234Y-61110466D01*
X89505546Y-60937395D01*
X89469000Y-60753667D01*
X89469000Y-60566333D01*
X89505546Y-60382605D01*
X89577234Y-60209534D01*
X89681309Y-60053775D01*
X89681310Y-60053773D01*
X89813773Y-59921310D01*
X89969533Y-59817235D01*
X89969534Y-59817234D01*
X90142605Y-59745546D01*
X90326333Y-59709000D01*
X90513667Y-59709000D01*
X90697395Y-59745546D01*
G37*
G36*
X90697395Y-57205546D02*
G01*
X90870466Y-57277234D01*
X90870467Y-57277235D01*
X91026227Y-57381310D01*
X91158690Y-57513773D01*
X91158691Y-57513775D01*
X91262766Y-57669534D01*
X91334454Y-57842605D01*
X91371000Y-58026333D01*
X91371000Y-58213667D01*
X91334454Y-58397395D01*
X91262766Y-58570466D01*
X91262765Y-58570467D01*
X91158690Y-58726227D01*
X91026227Y-58858690D01*
X90947818Y-58911081D01*
X90870466Y-58962766D01*
X90697395Y-59034454D01*
X90513667Y-59071000D01*
X90326333Y-59071000D01*
X90142605Y-59034454D01*
X89969534Y-58962766D01*
X89892182Y-58911081D01*
X89813773Y-58858690D01*
X89681310Y-58726227D01*
X89577235Y-58570467D01*
X89577234Y-58570466D01*
X89505546Y-58397395D01*
X89469000Y-58213667D01*
X89469000Y-58026333D01*
X89505546Y-57842605D01*
X89577234Y-57669534D01*
X89681309Y-57513775D01*
X89681310Y-57513773D01*
X89813773Y-57381310D01*
X89969533Y-57277235D01*
X89969534Y-57277234D01*
X90142605Y-57205546D01*
X90326333Y-57169000D01*
X90513667Y-57169000D01*
X90697395Y-57205546D01*
G37*
G36*
X85617395Y-57205546D02*
G01*
X85790466Y-57277234D01*
X85790467Y-57277235D01*
X85946227Y-57381310D01*
X86078690Y-57513773D01*
X86078691Y-57513775D01*
X86182766Y-57669534D01*
X86254454Y-57842605D01*
X86291000Y-58026333D01*
X86291000Y-58213667D01*
X86254454Y-58397395D01*
X86182766Y-58570466D01*
X86182765Y-58570467D01*
X86078690Y-58726227D01*
X85946227Y-58858690D01*
X85867818Y-58911081D01*
X85790466Y-58962766D01*
X85617395Y-59034454D01*
X85433667Y-59071000D01*
X85246333Y-59071000D01*
X85062605Y-59034454D01*
X84889534Y-58962766D01*
X84812182Y-58911081D01*
X84733773Y-58858690D01*
X84601310Y-58726227D01*
X84497235Y-58570467D01*
X84497234Y-58570466D01*
X84425546Y-58397395D01*
X84389000Y-58213667D01*
X84389000Y-58026333D01*
X84425546Y-57842605D01*
X84497234Y-57669534D01*
X84601309Y-57513775D01*
X84601310Y-57513773D01*
X84733773Y-57381310D01*
X84889533Y-57277235D01*
X84889534Y-57277234D01*
X85062605Y-57205546D01*
X85246333Y-57169000D01*
X85433667Y-57169000D01*
X85617395Y-57205546D01*
G37*
G36*
X90697395Y-54665546D02*
G01*
X90870466Y-54737234D01*
X90870467Y-54737235D01*
X91026227Y-54841310D01*
X91158690Y-54973773D01*
X91158691Y-54973775D01*
X91262766Y-55129534D01*
X91334454Y-55302605D01*
X91371000Y-55486333D01*
X91371000Y-55673667D01*
X91334454Y-55857395D01*
X91262766Y-56030466D01*
X91262765Y-56030467D01*
X91158690Y-56186227D01*
X91026227Y-56318690D01*
X90947818Y-56371081D01*
X90870466Y-56422766D01*
X90697395Y-56494454D01*
X90513667Y-56531000D01*
X90326333Y-56531000D01*
X90142605Y-56494454D01*
X89969534Y-56422766D01*
X89892182Y-56371081D01*
X89813773Y-56318690D01*
X89681310Y-56186227D01*
X89577235Y-56030467D01*
X89577234Y-56030466D01*
X89505546Y-55857395D01*
X89469000Y-55673667D01*
X89469000Y-55486333D01*
X89505546Y-55302605D01*
X89577234Y-55129534D01*
X89681309Y-54973775D01*
X89681310Y-54973773D01*
X89813773Y-54841310D01*
X89969533Y-54737235D01*
X89969534Y-54737234D01*
X90142605Y-54665546D01*
X90326333Y-54629000D01*
X90513667Y-54629000D01*
X90697395Y-54665546D01*
G37*
G36*
X85617395Y-54665546D02*
G01*
X85790466Y-54737234D01*
X85790467Y-54737235D01*
X85946227Y-54841310D01*
X86078690Y-54973773D01*
X86078691Y-54973775D01*
X86182766Y-55129534D01*
X86254454Y-55302605D01*
X86291000Y-55486333D01*
X86291000Y-55673667D01*
X86254454Y-55857395D01*
X86182766Y-56030466D01*
X86182765Y-56030467D01*
X86078690Y-56186227D01*
X85946227Y-56318690D01*
X85867818Y-56371081D01*
X85790466Y-56422766D01*
X85617395Y-56494454D01*
X85433667Y-56531000D01*
X85246333Y-56531000D01*
X85062605Y-56494454D01*
X84889534Y-56422766D01*
X84812182Y-56371081D01*
X84733773Y-56318690D01*
X84601310Y-56186227D01*
X84497235Y-56030467D01*
X84497234Y-56030466D01*
X84425546Y-55857395D01*
X84389000Y-55673667D01*
X84389000Y-55486333D01*
X84425546Y-55302605D01*
X84497234Y-55129534D01*
X84601309Y-54973775D01*
X84601310Y-54973773D01*
X84733773Y-54841310D01*
X84889533Y-54737235D01*
X84889534Y-54737234D01*
X85062605Y-54665546D01*
X85246333Y-54629000D01*
X85433667Y-54629000D01*
X85617395Y-54665546D01*
G37*
G36*
X83092831Y-49027841D02*
G01*
X83237826Y-49056682D01*
X83350974Y-49103550D01*
X83510989Y-49169830D01*
X83510990Y-49169831D01*
X83756832Y-49334097D01*
X83965903Y-49543168D01*
X83965904Y-49543170D01*
X84130170Y-49789011D01*
X84243318Y-50062175D01*
X84301000Y-50352163D01*
X84301000Y-50647837D01*
X84243318Y-50937825D01*
X84130170Y-51210989D01*
X84130169Y-51210990D01*
X83965903Y-51456832D01*
X83756832Y-51665903D01*
X83633076Y-51748594D01*
X83510989Y-51830170D01*
X83350974Y-51896450D01*
X83237826Y-51943318D01*
X83092831Y-51972159D01*
X82947837Y-52001000D01*
X82652163Y-52001000D01*
X82507169Y-51972159D01*
X82362174Y-51943318D01*
X82249026Y-51896450D01*
X82089011Y-51830170D01*
X81966924Y-51748594D01*
X81843168Y-51665903D01*
X81634097Y-51456832D01*
X81469831Y-51210990D01*
X81469830Y-51210989D01*
X81356682Y-50937825D01*
X81299000Y-50647837D01*
X81299000Y-50352163D01*
X81356682Y-50062175D01*
X81469830Y-49789011D01*
X81634096Y-49543170D01*
X81634097Y-49543168D01*
X81843168Y-49334097D01*
X82089010Y-49169831D01*
X82089011Y-49169830D01*
X82249026Y-49103550D01*
X82362174Y-49056682D01*
X82507169Y-49027841D01*
X82652163Y-48999000D01*
X82947837Y-48999000D01*
X83092831Y-49027841D01*
G37*
M02*
