G04 #@! TF.GenerationSoftware,KiCad,Pcbnew,(5.1.9)-1*
G04 #@! TF.CreationDate,2021-01-23T21:36:54+01:00*
G04 #@! TF.ProjectId,RF_frequency_modulator,52465f66-7265-4717-9565-6e63795f6d6f,1.2*
G04 #@! TF.SameCoordinates,Original*
G04 #@! TF.FileFunction,Legend,Bot*
G04 #@! TF.FilePolarity,Positive*
%FSLAX46Y46*%
G04 Gerber Fmt 4.6, Leading zero omitted, Abs format (unit mm)*
G04 Created by KiCad (PCBNEW (5.1.9)-1) date 2021-01-23 21:36:54*
%MOMM*%
%LPD*%
G01*
G04 APERTURE LIST*
%ADD10C,0.250000*%
%ADD11C,0.010000*%
G04 APERTURE END LIST*
D10*
X226980357Y-52428571D02*
X226980357Y-50928571D01*
X226623214Y-50928571D01*
X226408928Y-51000000D01*
X226266071Y-51142857D01*
X226194642Y-51285714D01*
X226123214Y-51571428D01*
X226123214Y-51785714D01*
X226194642Y-52071428D01*
X226266071Y-52214285D01*
X226408928Y-52357142D01*
X226623214Y-52428571D01*
X226980357Y-52428571D01*
X224908928Y-52357142D02*
X225051785Y-52428571D01*
X225337500Y-52428571D01*
X225480357Y-52357142D01*
X225551785Y-52214285D01*
X225551785Y-51642857D01*
X225480357Y-51500000D01*
X225337500Y-51428571D01*
X225051785Y-51428571D01*
X224908928Y-51500000D01*
X224837500Y-51642857D01*
X224837500Y-51785714D01*
X225551785Y-51928571D01*
X224266071Y-52357142D02*
X224123214Y-52428571D01*
X223837500Y-52428571D01*
X223694642Y-52357142D01*
X223623214Y-52214285D01*
X223623214Y-52142857D01*
X223694642Y-52000000D01*
X223837500Y-51928571D01*
X224051785Y-51928571D01*
X224194642Y-51857142D01*
X224266071Y-51714285D01*
X224266071Y-51642857D01*
X224194642Y-51500000D01*
X224051785Y-51428571D01*
X223837500Y-51428571D01*
X223694642Y-51500000D01*
X222980357Y-52428571D02*
X222980357Y-51428571D01*
X222980357Y-50928571D02*
X223051785Y-51000000D01*
X222980357Y-51071428D01*
X222908928Y-51000000D01*
X222980357Y-50928571D01*
X222980357Y-51071428D01*
X221623214Y-51428571D02*
X221623214Y-52642857D01*
X221694642Y-52785714D01*
X221766071Y-52857142D01*
X221908928Y-52928571D01*
X222123214Y-52928571D01*
X222266071Y-52857142D01*
X221623214Y-52357142D02*
X221766071Y-52428571D01*
X222051785Y-52428571D01*
X222194642Y-52357142D01*
X222266071Y-52285714D01*
X222337500Y-52142857D01*
X222337500Y-51714285D01*
X222266071Y-51571428D01*
X222194642Y-51500000D01*
X222051785Y-51428571D01*
X221766071Y-51428571D01*
X221623214Y-51500000D01*
X220908928Y-51428571D02*
X220908928Y-52428571D01*
X220908928Y-51571428D02*
X220837500Y-51500000D01*
X220694642Y-51428571D01*
X220480357Y-51428571D01*
X220337500Y-51500000D01*
X220266071Y-51642857D01*
X220266071Y-52428571D01*
X218408928Y-52428571D02*
X218408928Y-50928571D01*
X218408928Y-51500000D02*
X218266071Y-51428571D01*
X217980357Y-51428571D01*
X217837500Y-51500000D01*
X217766071Y-51571428D01*
X217694642Y-51714285D01*
X217694642Y-52142857D01*
X217766071Y-52285714D01*
X217837500Y-52357142D01*
X217980357Y-52428571D01*
X218266071Y-52428571D01*
X218408928Y-52357142D01*
X217194642Y-51428571D02*
X216837500Y-52428571D01*
X216480357Y-51428571D02*
X216837500Y-52428571D01*
X216980357Y-52785714D01*
X217051785Y-52857142D01*
X217194642Y-52928571D01*
X215908928Y-52285714D02*
X215837500Y-52357142D01*
X215908928Y-52428571D01*
X215980357Y-52357142D01*
X215908928Y-52285714D01*
X215908928Y-52428571D01*
X215908928Y-51500000D02*
X215837500Y-51571428D01*
X215908928Y-51642857D01*
X215980357Y-51571428D01*
X215908928Y-51500000D01*
X215908928Y-51642857D01*
X214266071Y-50928571D02*
X213408928Y-50928571D01*
X213837500Y-52428571D02*
X213837500Y-50928571D01*
X212908928Y-52428571D02*
X212908928Y-51428571D01*
X212908928Y-50928571D02*
X212980357Y-51000000D01*
X212908928Y-51071428D01*
X212837500Y-51000000D01*
X212908928Y-50928571D01*
X212908928Y-51071428D01*
X211980357Y-52428571D02*
X212123214Y-52357142D01*
X212194642Y-52214285D01*
X212194642Y-50928571D01*
X211408928Y-52428571D02*
X211408928Y-51428571D01*
X211408928Y-51571428D02*
X211337500Y-51500000D01*
X211194642Y-51428571D01*
X210980357Y-51428571D01*
X210837500Y-51500000D01*
X210766071Y-51642857D01*
X210766071Y-52428571D01*
X210766071Y-51642857D02*
X210694642Y-51500000D01*
X210551785Y-51428571D01*
X210337500Y-51428571D01*
X210194642Y-51500000D01*
X210123214Y-51642857D01*
X210123214Y-52428571D01*
X208766071Y-52428571D02*
X208766071Y-51642857D01*
X208837500Y-51500000D01*
X208980357Y-51428571D01*
X209266071Y-51428571D01*
X209408928Y-51500000D01*
X208766071Y-52357142D02*
X208908928Y-52428571D01*
X209266071Y-52428571D01*
X209408928Y-52357142D01*
X209480357Y-52214285D01*
X209480357Y-52071428D01*
X209408928Y-51928571D01*
X209266071Y-51857142D01*
X208908928Y-51857142D01*
X208766071Y-51785714D01*
X208051785Y-51428571D02*
X208051785Y-52428571D01*
X208051785Y-51571428D02*
X207980357Y-51500000D01*
X207837500Y-51428571D01*
X207623214Y-51428571D01*
X207480357Y-51500000D01*
X207408928Y-51642857D01*
X207408928Y-52428571D01*
X205551785Y-52428571D02*
X205551785Y-50928571D01*
X204980357Y-50928571D01*
X204837500Y-51000000D01*
X204766071Y-51071428D01*
X204694642Y-51214285D01*
X204694642Y-51428571D01*
X204766071Y-51571428D01*
X204837500Y-51642857D01*
X204980357Y-51714285D01*
X205551785Y-51714285D01*
X204051785Y-52428571D02*
X204051785Y-51428571D01*
X204051785Y-51714285D02*
X203980357Y-51571428D01*
X203908928Y-51500000D01*
X203766071Y-51428571D01*
X203623214Y-51428571D01*
X202551785Y-52357142D02*
X202694642Y-52428571D01*
X202980357Y-52428571D01*
X203123214Y-52357142D01*
X203194642Y-52214285D01*
X203194642Y-51642857D01*
X203123214Y-51500000D01*
X202980357Y-51428571D01*
X202694642Y-51428571D01*
X202551785Y-51500000D01*
X202480357Y-51642857D01*
X202480357Y-51785714D01*
X203194642Y-51928571D01*
X201194642Y-51428571D02*
X201194642Y-52428571D01*
X201837500Y-51428571D02*
X201837500Y-52214285D01*
X201766071Y-52357142D01*
X201623214Y-52428571D01*
X201408928Y-52428571D01*
X201266071Y-52357142D01*
X201194642Y-52285714D01*
X200551785Y-52357142D02*
X200408928Y-52428571D01*
X200123214Y-52428571D01*
X199980357Y-52357142D01*
X199908928Y-52214285D01*
X199908928Y-52142857D01*
X199980357Y-52000000D01*
X200123214Y-51928571D01*
X200337500Y-51928571D01*
X200480357Y-51857142D01*
X200551785Y-51714285D01*
X200551785Y-51642857D01*
X200480357Y-51500000D01*
X200337500Y-51428571D01*
X200123214Y-51428571D01*
X199980357Y-51500000D01*
X198623214Y-52357142D02*
X198766071Y-52428571D01*
X199051785Y-52428571D01*
X199194642Y-52357142D01*
X199266071Y-52285714D01*
X199337500Y-52142857D01*
X199337500Y-51714285D01*
X199266071Y-51571428D01*
X199194642Y-51500000D01*
X199051785Y-51428571D01*
X198766071Y-51428571D01*
X198623214Y-51500000D01*
X197980357Y-52428571D02*
X197980357Y-50928571D01*
X197337500Y-52428571D02*
X197337500Y-51642857D01*
X197408928Y-51500000D01*
X197551785Y-51428571D01*
X197766071Y-51428571D01*
X197908928Y-51500000D01*
X197980357Y-51571428D01*
X196408928Y-52428571D02*
X196551785Y-52357142D01*
X196623214Y-52285714D01*
X196694642Y-52142857D01*
X196694642Y-51714285D01*
X196623214Y-51571428D01*
X196551785Y-51500000D01*
X196408928Y-51428571D01*
X196194642Y-51428571D01*
X196051785Y-51500000D01*
X195980357Y-51571428D01*
X195908928Y-51714285D01*
X195908928Y-52142857D01*
X195980357Y-52285714D01*
X196051785Y-52357142D01*
X196194642Y-52428571D01*
X196408928Y-52428571D01*
X195480357Y-51428571D02*
X194908928Y-51428571D01*
X195266071Y-52428571D02*
X195266071Y-51142857D01*
X195194642Y-51000000D01*
X195051785Y-50928571D01*
X194908928Y-50928571D01*
X194623214Y-51428571D02*
X194051785Y-51428571D01*
X194408928Y-52428571D02*
X194408928Y-51142857D01*
X194337500Y-51000000D01*
X194194642Y-50928571D01*
X194051785Y-50928571D01*
X226980357Y-54928571D02*
X226980357Y-53428571D01*
X226337500Y-54928571D02*
X226337500Y-54142857D01*
X226408928Y-54000000D01*
X226551785Y-53928571D01*
X226766071Y-53928571D01*
X226908928Y-54000000D01*
X226980357Y-54071428D01*
X225837500Y-53928571D02*
X225266071Y-53928571D01*
X225623214Y-53428571D02*
X225623214Y-54714285D01*
X225551785Y-54857142D01*
X225408928Y-54928571D01*
X225266071Y-54928571D01*
X224980357Y-53928571D02*
X224408928Y-53928571D01*
X224766071Y-53428571D02*
X224766071Y-54714285D01*
X224694642Y-54857142D01*
X224551785Y-54928571D01*
X224408928Y-54928571D01*
X223908928Y-53928571D02*
X223908928Y-55428571D01*
X223908928Y-54000000D02*
X223766071Y-53928571D01*
X223480357Y-53928571D01*
X223337500Y-54000000D01*
X223266071Y-54071428D01*
X223194642Y-54214285D01*
X223194642Y-54642857D01*
X223266071Y-54785714D01*
X223337500Y-54857142D01*
X223480357Y-54928571D01*
X223766071Y-54928571D01*
X223908928Y-54857142D01*
X222623214Y-54857142D02*
X222480357Y-54928571D01*
X222194642Y-54928571D01*
X222051785Y-54857142D01*
X221980357Y-54714285D01*
X221980357Y-54642857D01*
X222051785Y-54500000D01*
X222194642Y-54428571D01*
X222408928Y-54428571D01*
X222551785Y-54357142D01*
X222623214Y-54214285D01*
X222623214Y-54142857D01*
X222551785Y-54000000D01*
X222408928Y-53928571D01*
X222194642Y-53928571D01*
X222051785Y-54000000D01*
X221337500Y-54785714D02*
X221266071Y-54857142D01*
X221337500Y-54928571D01*
X221408928Y-54857142D01*
X221337500Y-54785714D01*
X221337500Y-54928571D01*
X221337500Y-54000000D02*
X221266071Y-54071428D01*
X221337500Y-54142857D01*
X221408928Y-54071428D01*
X221337500Y-54000000D01*
X221337500Y-54142857D01*
X219551785Y-53357142D02*
X220837500Y-55285714D01*
X217980357Y-53357142D02*
X219266071Y-55285714D01*
X216837500Y-53928571D02*
X216837500Y-55142857D01*
X216908928Y-55285714D01*
X216980357Y-55357142D01*
X217123214Y-55428571D01*
X217337500Y-55428571D01*
X217480357Y-55357142D01*
X216837500Y-54857142D02*
X216980357Y-54928571D01*
X217266071Y-54928571D01*
X217408928Y-54857142D01*
X217480357Y-54785714D01*
X217551785Y-54642857D01*
X217551785Y-54214285D01*
X217480357Y-54071428D01*
X217408928Y-54000000D01*
X217266071Y-53928571D01*
X216980357Y-53928571D01*
X216837500Y-54000000D01*
X216123214Y-54928571D02*
X216123214Y-53928571D01*
X216123214Y-53428571D02*
X216194642Y-53500000D01*
X216123214Y-53571428D01*
X216051785Y-53500000D01*
X216123214Y-53428571D01*
X216123214Y-53571428D01*
X215623214Y-53928571D02*
X215051785Y-53928571D01*
X215408928Y-53428571D02*
X215408928Y-54714285D01*
X215337500Y-54857142D01*
X215194642Y-54928571D01*
X215051785Y-54928571D01*
X214551785Y-54928571D02*
X214551785Y-53428571D01*
X213908928Y-54928571D02*
X213908928Y-54142857D01*
X213980357Y-54000000D01*
X214123214Y-53928571D01*
X214337500Y-53928571D01*
X214480357Y-54000000D01*
X214551785Y-54071428D01*
X212551785Y-53928571D02*
X212551785Y-54928571D01*
X213194642Y-53928571D02*
X213194642Y-54714285D01*
X213123214Y-54857142D01*
X212980357Y-54928571D01*
X212766071Y-54928571D01*
X212623214Y-54857142D01*
X212551785Y-54785714D01*
X211837500Y-54928571D02*
X211837500Y-53428571D01*
X211837500Y-54000000D02*
X211694642Y-53928571D01*
X211408928Y-53928571D01*
X211266071Y-54000000D01*
X211194642Y-54071428D01*
X211123214Y-54214285D01*
X211123214Y-54642857D01*
X211194642Y-54785714D01*
X211266071Y-54857142D01*
X211408928Y-54928571D01*
X211694642Y-54928571D01*
X211837500Y-54857142D01*
X210480357Y-54785714D02*
X210408928Y-54857142D01*
X210480357Y-54928571D01*
X210551785Y-54857142D01*
X210480357Y-54785714D01*
X210480357Y-54928571D01*
X209123214Y-54857142D02*
X209266071Y-54928571D01*
X209551785Y-54928571D01*
X209694642Y-54857142D01*
X209766071Y-54785714D01*
X209837500Y-54642857D01*
X209837500Y-54214285D01*
X209766071Y-54071428D01*
X209694642Y-54000000D01*
X209551785Y-53928571D01*
X209266071Y-53928571D01*
X209123214Y-54000000D01*
X208266071Y-54928571D02*
X208408928Y-54857142D01*
X208480357Y-54785714D01*
X208551785Y-54642857D01*
X208551785Y-54214285D01*
X208480357Y-54071428D01*
X208408928Y-54000000D01*
X208266071Y-53928571D01*
X208051785Y-53928571D01*
X207908928Y-54000000D01*
X207837500Y-54071428D01*
X207766071Y-54214285D01*
X207766071Y-54642857D01*
X207837500Y-54785714D01*
X207908928Y-54857142D01*
X208051785Y-54928571D01*
X208266071Y-54928571D01*
X207123214Y-54928571D02*
X207123214Y-53928571D01*
X207123214Y-54071428D02*
X207051785Y-54000000D01*
X206908928Y-53928571D01*
X206694642Y-53928571D01*
X206551785Y-54000000D01*
X206480357Y-54142857D01*
X206480357Y-54928571D01*
X206480357Y-54142857D02*
X206408928Y-54000000D01*
X206266071Y-53928571D01*
X206051785Y-53928571D01*
X205908928Y-54000000D01*
X205837500Y-54142857D01*
X205837500Y-54928571D01*
X204051785Y-53357142D02*
X205337500Y-55285714D01*
X203766071Y-53428571D02*
X202908928Y-53428571D01*
X203337500Y-54928571D02*
X203337500Y-53428571D01*
X202408928Y-53428571D02*
X202408928Y-54642857D01*
X202337500Y-54785714D01*
X202266071Y-54857142D01*
X202123214Y-54928571D01*
X201837500Y-54928571D01*
X201694642Y-54857142D01*
X201623214Y-54785714D01*
X201551785Y-54642857D01*
X201551785Y-53428571D01*
X200837500Y-54357142D02*
X199694642Y-54357142D01*
X198980357Y-54928571D02*
X198980357Y-53428571D01*
X198623214Y-53428571D01*
X198408928Y-53500000D01*
X198266071Y-53642857D01*
X198194642Y-53785714D01*
X198123214Y-54071428D01*
X198123214Y-54285714D01*
X198194642Y-54571428D01*
X198266071Y-54714285D01*
X198408928Y-54857142D01*
X198623214Y-54928571D01*
X198980357Y-54928571D01*
X196837500Y-54928571D02*
X196837500Y-54142857D01*
X196908928Y-54000000D01*
X197051785Y-53928571D01*
X197337500Y-53928571D01*
X197480357Y-54000000D01*
X196837500Y-54857142D02*
X196980357Y-54928571D01*
X197337500Y-54928571D01*
X197480357Y-54857142D01*
X197551785Y-54714285D01*
X197551785Y-54571428D01*
X197480357Y-54428571D01*
X197337500Y-54357142D01*
X196980357Y-54357142D01*
X196837500Y-54285714D01*
X196123214Y-54928571D02*
X196123214Y-53928571D01*
X196123214Y-54214285D02*
X196051785Y-54071428D01*
X195980357Y-54000000D01*
X195837500Y-53928571D01*
X195694642Y-53928571D01*
X195194642Y-54928571D02*
X195194642Y-53928571D01*
X195194642Y-54071428D02*
X195123214Y-54000000D01*
X194980357Y-53928571D01*
X194766071Y-53928571D01*
X194623214Y-54000000D01*
X194551785Y-54142857D01*
X194551785Y-54928571D01*
X194551785Y-54142857D02*
X194480357Y-54000000D01*
X194337500Y-53928571D01*
X194123214Y-53928571D01*
X193980357Y-54000000D01*
X193908928Y-54142857D01*
X193908928Y-54928571D01*
X193266071Y-54857142D02*
X193123214Y-54928571D01*
X192837500Y-54928571D01*
X192694642Y-54857142D01*
X192623214Y-54714285D01*
X192623214Y-54642857D01*
X192694642Y-54500000D01*
X192837500Y-54428571D01*
X193051785Y-54428571D01*
X193194642Y-54357142D01*
X193266071Y-54214285D01*
X193266071Y-54142857D01*
X193194642Y-54000000D01*
X193051785Y-53928571D01*
X192837500Y-53928571D01*
X192694642Y-54000000D01*
X192194642Y-53928571D02*
X191623214Y-53928571D01*
X191980357Y-53428571D02*
X191980357Y-54714285D01*
X191908928Y-54857142D01*
X191766071Y-54928571D01*
X191623214Y-54928571D01*
X190480357Y-54928571D02*
X190480357Y-54142857D01*
X190551785Y-54000000D01*
X190694642Y-53928571D01*
X190980357Y-53928571D01*
X191123214Y-54000000D01*
X190480357Y-54857142D02*
X190623214Y-54928571D01*
X190980357Y-54928571D01*
X191123214Y-54857142D01*
X191194642Y-54714285D01*
X191194642Y-54571428D01*
X191123214Y-54428571D01*
X190980357Y-54357142D01*
X190623214Y-54357142D01*
X190480357Y-54285714D01*
X189123214Y-54928571D02*
X189123214Y-53428571D01*
X189123214Y-54857142D02*
X189266071Y-54928571D01*
X189551785Y-54928571D01*
X189694642Y-54857142D01*
X189766071Y-54785714D01*
X189837500Y-54642857D01*
X189837500Y-54214285D01*
X189766071Y-54071428D01*
X189694642Y-54000000D01*
X189551785Y-53928571D01*
X189266071Y-53928571D01*
X189123214Y-54000000D01*
X188623214Y-53928571D02*
X188051785Y-53928571D01*
X188408928Y-53428571D02*
X188408928Y-54714285D01*
X188337500Y-54857142D01*
X188194642Y-54928571D01*
X188051785Y-54928571D01*
X187551785Y-54357142D02*
X186408928Y-54357142D01*
X185766071Y-54500000D02*
X185051785Y-54500000D01*
X185908928Y-54928571D02*
X185408928Y-53428571D01*
X184908928Y-54928571D01*
X184408928Y-54928571D02*
X184408928Y-53428571D01*
X183837499Y-53428571D01*
X183694642Y-53500000D01*
X183623214Y-53571428D01*
X183551785Y-53714285D01*
X183551785Y-53928571D01*
X183623214Y-54071428D01*
X183694642Y-54142857D01*
X183837499Y-54214285D01*
X184408928Y-54214285D01*
X181908928Y-55071428D02*
X182051785Y-55000000D01*
X182194642Y-54857142D01*
X182408928Y-54642857D01*
X182551785Y-54571428D01*
X182694642Y-54571428D01*
X182623214Y-54928571D02*
X182766071Y-54857142D01*
X182908928Y-54714285D01*
X182980357Y-54428571D01*
X182980357Y-53928571D01*
X182908928Y-53642857D01*
X182766071Y-53500000D01*
X182623214Y-53428571D01*
X182337499Y-53428571D01*
X182194642Y-53500000D01*
X182051785Y-53642857D01*
X181980357Y-53928571D01*
X181980357Y-54428571D01*
X182051785Y-54714285D01*
X182194642Y-54857142D01*
X182337499Y-54928571D01*
X182623214Y-54928571D01*
X180266071Y-53357142D02*
X181551785Y-55285714D01*
X178908928Y-54928571D02*
X179408928Y-54214285D01*
X179766071Y-54928571D02*
X179766071Y-53428571D01*
X179194642Y-53428571D01*
X179051785Y-53500000D01*
X178980357Y-53571428D01*
X178908928Y-53714285D01*
X178908928Y-53928571D01*
X178980357Y-54071428D01*
X179051785Y-54142857D01*
X179194642Y-54214285D01*
X179766071Y-54214285D01*
X177766071Y-54142857D02*
X178266071Y-54142857D01*
X178266071Y-54928571D02*
X178266071Y-53428571D01*
X177551785Y-53428571D01*
X177337499Y-55071428D02*
X176194642Y-55071428D01*
X176051785Y-53928571D02*
X175480357Y-53928571D01*
X175837499Y-54928571D02*
X175837499Y-53642857D01*
X175766071Y-53500000D01*
X175623214Y-53428571D01*
X175480357Y-53428571D01*
X174980357Y-54928571D02*
X174980357Y-53928571D01*
X174980357Y-54214285D02*
X174908928Y-54071428D01*
X174837499Y-54000000D01*
X174694642Y-53928571D01*
X174551785Y-53928571D01*
X173480357Y-54857142D02*
X173623214Y-54928571D01*
X173908928Y-54928571D01*
X174051785Y-54857142D01*
X174123214Y-54714285D01*
X174123214Y-54142857D01*
X174051785Y-54000000D01*
X173908928Y-53928571D01*
X173623214Y-53928571D01*
X173480357Y-54000000D01*
X173408928Y-54142857D01*
X173408928Y-54285714D01*
X174123214Y-54428571D01*
X172123214Y-53928571D02*
X172123214Y-55428571D01*
X172123214Y-54857142D02*
X172266071Y-54928571D01*
X172551785Y-54928571D01*
X172694642Y-54857142D01*
X172766071Y-54785714D01*
X172837499Y-54642857D01*
X172837499Y-54214285D01*
X172766071Y-54071428D01*
X172694642Y-54000000D01*
X172551785Y-53928571D01*
X172266071Y-53928571D01*
X172123214Y-54000000D01*
X170766071Y-53928571D02*
X170766071Y-54928571D01*
X171408928Y-53928571D02*
X171408928Y-54714285D01*
X171337499Y-54857142D01*
X171194642Y-54928571D01*
X170980357Y-54928571D01*
X170837499Y-54857142D01*
X170766071Y-54785714D01*
X169480357Y-54857142D02*
X169623214Y-54928571D01*
X169908928Y-54928571D01*
X170051785Y-54857142D01*
X170123214Y-54714285D01*
X170123214Y-54142857D01*
X170051785Y-54000000D01*
X169908928Y-53928571D01*
X169623214Y-53928571D01*
X169480357Y-54000000D01*
X169408928Y-54142857D01*
X169408928Y-54285714D01*
X170123214Y-54428571D01*
X168766071Y-53928571D02*
X168766071Y-54928571D01*
X168766071Y-54071428D02*
X168694642Y-54000000D01*
X168551785Y-53928571D01*
X168337499Y-53928571D01*
X168194642Y-54000000D01*
X168123214Y-54142857D01*
X168123214Y-54928571D01*
X166766071Y-54857142D02*
X166908928Y-54928571D01*
X167194642Y-54928571D01*
X167337499Y-54857142D01*
X167408928Y-54785714D01*
X167480357Y-54642857D01*
X167480357Y-54214285D01*
X167408928Y-54071428D01*
X167337499Y-54000000D01*
X167194642Y-53928571D01*
X166908928Y-53928571D01*
X166766071Y-54000000D01*
X166266071Y-53928571D02*
X165908928Y-54928571D01*
X165551785Y-53928571D02*
X165908928Y-54928571D01*
X166051785Y-55285714D01*
X166123214Y-55357142D01*
X166266071Y-55428571D01*
X165337499Y-55071428D02*
X164194642Y-55071428D01*
X163837499Y-54928571D02*
X163837499Y-53928571D01*
X163837499Y-54071428D02*
X163766071Y-54000000D01*
X163623214Y-53928571D01*
X163408928Y-53928571D01*
X163266071Y-54000000D01*
X163194642Y-54142857D01*
X163194642Y-54928571D01*
X163194642Y-54142857D02*
X163123214Y-54000000D01*
X162980357Y-53928571D01*
X162766071Y-53928571D01*
X162623214Y-54000000D01*
X162551785Y-54142857D01*
X162551785Y-54928571D01*
X161623214Y-54928571D02*
X161766071Y-54857142D01*
X161837499Y-54785714D01*
X161908928Y-54642857D01*
X161908928Y-54214285D01*
X161837499Y-54071428D01*
X161766071Y-54000000D01*
X161623214Y-53928571D01*
X161408928Y-53928571D01*
X161266071Y-54000000D01*
X161194642Y-54071428D01*
X161123214Y-54214285D01*
X161123214Y-54642857D01*
X161194642Y-54785714D01*
X161266071Y-54857142D01*
X161408928Y-54928571D01*
X161623214Y-54928571D01*
X159837499Y-54928571D02*
X159837499Y-53428571D01*
X159837499Y-54857142D02*
X159980357Y-54928571D01*
X160266071Y-54928571D01*
X160408928Y-54857142D01*
X160480357Y-54785714D01*
X160551785Y-54642857D01*
X160551785Y-54214285D01*
X160480357Y-54071428D01*
X160408928Y-54000000D01*
X160266071Y-53928571D01*
X159980357Y-53928571D01*
X159837499Y-54000000D01*
X158480357Y-53928571D02*
X158480357Y-54928571D01*
X159123214Y-53928571D02*
X159123214Y-54714285D01*
X159051785Y-54857142D01*
X158908928Y-54928571D01*
X158694642Y-54928571D01*
X158551785Y-54857142D01*
X158480357Y-54785714D01*
X157551785Y-54928571D02*
X157694642Y-54857142D01*
X157766071Y-54714285D01*
X157766071Y-53428571D01*
X156337499Y-54928571D02*
X156337499Y-54142857D01*
X156408928Y-54000000D01*
X156551785Y-53928571D01*
X156837499Y-53928571D01*
X156980357Y-54000000D01*
X156337499Y-54857142D02*
X156480357Y-54928571D01*
X156837499Y-54928571D01*
X156980357Y-54857142D01*
X157051785Y-54714285D01*
X157051785Y-54571428D01*
X156980357Y-54428571D01*
X156837499Y-54357142D01*
X156480357Y-54357142D01*
X156337499Y-54285714D01*
X155837499Y-53928571D02*
X155266071Y-53928571D01*
X155623214Y-53428571D02*
X155623214Y-54714285D01*
X155551785Y-54857142D01*
X155408928Y-54928571D01*
X155266071Y-54928571D01*
X154551785Y-54928571D02*
X154694642Y-54857142D01*
X154766071Y-54785714D01*
X154837499Y-54642857D01*
X154837499Y-54214285D01*
X154766071Y-54071428D01*
X154694642Y-54000000D01*
X154551785Y-53928571D01*
X154337499Y-53928571D01*
X154194642Y-54000000D01*
X154123214Y-54071428D01*
X154051785Y-54214285D01*
X154051785Y-54642857D01*
X154123214Y-54785714D01*
X154194642Y-54857142D01*
X154337499Y-54928571D01*
X154551785Y-54928571D01*
X153408928Y-54928571D02*
X153408928Y-53928571D01*
X153408928Y-54214285D02*
X153337499Y-54071428D01*
X153266071Y-54000000D01*
X153123214Y-53928571D01*
X152980357Y-53928571D01*
D11*
G36*
X233408759Y-53969184D02*
G01*
X233382247Y-53982282D01*
X233349553Y-54005106D01*
X233325725Y-54029996D01*
X233309406Y-54061249D01*
X233299240Y-54103166D01*
X233293872Y-54160044D01*
X233291944Y-54236184D01*
X233291831Y-54268917D01*
X233292161Y-54340656D01*
X233293527Y-54391927D01*
X233296500Y-54427404D01*
X233301649Y-54451763D01*
X233309543Y-54469680D01*
X233317757Y-54481902D01*
X233370187Y-54533905D01*
X233431930Y-54565184D01*
X233498536Y-54574592D01*
X233565558Y-54560980D01*
X233586792Y-54551354D01*
X233637624Y-54524859D01*
X233637624Y-54940052D01*
X233600525Y-54920868D01*
X233551643Y-54906025D01*
X233491561Y-54902222D01*
X233431564Y-54909243D01*
X233386256Y-54925013D01*
X233348675Y-54955047D01*
X233316564Y-54998024D01*
X233314150Y-55002436D01*
X233303967Y-55023221D01*
X233296530Y-55044170D01*
X233291411Y-55069548D01*
X233288181Y-55103618D01*
X233286413Y-55150641D01*
X233285677Y-55214882D01*
X233285544Y-55287176D01*
X233285544Y-55517822D01*
X233423861Y-55517822D01*
X233423861Y-55092533D01*
X233462549Y-55059979D01*
X233502738Y-55033940D01*
X233540797Y-55029205D01*
X233579066Y-55041389D01*
X233599462Y-55053320D01*
X233614642Y-55070313D01*
X233625438Y-55095995D01*
X233632683Y-55133991D01*
X233637208Y-55187926D01*
X233639844Y-55261425D01*
X233640772Y-55310347D01*
X233643911Y-55511535D01*
X233709926Y-55515336D01*
X233775940Y-55519136D01*
X233775940Y-54270650D01*
X233637624Y-54270650D01*
X233634097Y-54340254D01*
X233622215Y-54388569D01*
X233600020Y-54418631D01*
X233565559Y-54433471D01*
X233530742Y-54436436D01*
X233491329Y-54433028D01*
X233465171Y-54419617D01*
X233448814Y-54401896D01*
X233435937Y-54382835D01*
X233428272Y-54361601D01*
X233424861Y-54331849D01*
X233424749Y-54287236D01*
X233425897Y-54249880D01*
X233428532Y-54193604D01*
X233432456Y-54156658D01*
X233439063Y-54133223D01*
X233449749Y-54117480D01*
X233459833Y-54108380D01*
X233501970Y-54088537D01*
X233551840Y-54085332D01*
X233580476Y-54092168D01*
X233608828Y-54116464D01*
X233627609Y-54163728D01*
X233636712Y-54233624D01*
X233637624Y-54270650D01*
X233775940Y-54270650D01*
X233775940Y-53958614D01*
X233706782Y-53958614D01*
X233665260Y-53960256D01*
X233643838Y-53966087D01*
X233637626Y-53977461D01*
X233637624Y-53977798D01*
X233634742Y-53988938D01*
X233622030Y-53987673D01*
X233596757Y-53975433D01*
X233537869Y-53956707D01*
X233471615Y-53954739D01*
X233408759Y-53969184D01*
G37*
X233408759Y-53969184D02*
X233382247Y-53982282D01*
X233349553Y-54005106D01*
X233325725Y-54029996D01*
X233309406Y-54061249D01*
X233299240Y-54103166D01*
X233293872Y-54160044D01*
X233291944Y-54236184D01*
X233291831Y-54268917D01*
X233292161Y-54340656D01*
X233293527Y-54391927D01*
X233296500Y-54427404D01*
X233301649Y-54451763D01*
X233309543Y-54469680D01*
X233317757Y-54481902D01*
X233370187Y-54533905D01*
X233431930Y-54565184D01*
X233498536Y-54574592D01*
X233565558Y-54560980D01*
X233586792Y-54551354D01*
X233637624Y-54524859D01*
X233637624Y-54940052D01*
X233600525Y-54920868D01*
X233551643Y-54906025D01*
X233491561Y-54902222D01*
X233431564Y-54909243D01*
X233386256Y-54925013D01*
X233348675Y-54955047D01*
X233316564Y-54998024D01*
X233314150Y-55002436D01*
X233303967Y-55023221D01*
X233296530Y-55044170D01*
X233291411Y-55069548D01*
X233288181Y-55103618D01*
X233286413Y-55150641D01*
X233285677Y-55214882D01*
X233285544Y-55287176D01*
X233285544Y-55517822D01*
X233423861Y-55517822D01*
X233423861Y-55092533D01*
X233462549Y-55059979D01*
X233502738Y-55033940D01*
X233540797Y-55029205D01*
X233579066Y-55041389D01*
X233599462Y-55053320D01*
X233614642Y-55070313D01*
X233625438Y-55095995D01*
X233632683Y-55133991D01*
X233637208Y-55187926D01*
X233639844Y-55261425D01*
X233640772Y-55310347D01*
X233643911Y-55511535D01*
X233709926Y-55515336D01*
X233775940Y-55519136D01*
X233775940Y-54270650D01*
X233637624Y-54270650D01*
X233634097Y-54340254D01*
X233622215Y-54388569D01*
X233600020Y-54418631D01*
X233565559Y-54433471D01*
X233530742Y-54436436D01*
X233491329Y-54433028D01*
X233465171Y-54419617D01*
X233448814Y-54401896D01*
X233435937Y-54382835D01*
X233428272Y-54361601D01*
X233424861Y-54331849D01*
X233424749Y-54287236D01*
X233425897Y-54249880D01*
X233428532Y-54193604D01*
X233432456Y-54156658D01*
X233439063Y-54133223D01*
X233449749Y-54117480D01*
X233459833Y-54108380D01*
X233501970Y-54088537D01*
X233551840Y-54085332D01*
X233580476Y-54092168D01*
X233608828Y-54116464D01*
X233627609Y-54163728D01*
X233636712Y-54233624D01*
X233637624Y-54270650D01*
X233775940Y-54270650D01*
X233775940Y-53958614D01*
X233706782Y-53958614D01*
X233665260Y-53960256D01*
X233643838Y-53966087D01*
X233637626Y-53977461D01*
X233637624Y-53977798D01*
X233634742Y-53988938D01*
X233622030Y-53987673D01*
X233596757Y-53975433D01*
X233537869Y-53956707D01*
X233471615Y-53954739D01*
X233408759Y-53969184D01*
G36*
X232884210Y-54906555D02*
G01*
X232825055Y-54922339D01*
X232780023Y-54950948D01*
X232748246Y-54988419D01*
X232738366Y-55004411D01*
X232731073Y-55021163D01*
X232725974Y-55042592D01*
X232722679Y-55072616D01*
X232720797Y-55115154D01*
X232719937Y-55174122D01*
X232719707Y-55253440D01*
X232719703Y-55274484D01*
X232719703Y-55517822D01*
X232780059Y-55517822D01*
X232818557Y-55515126D01*
X232847023Y-55508295D01*
X232854155Y-55504083D01*
X232873652Y-55496813D01*
X232893566Y-55504083D01*
X232926353Y-55513160D01*
X232973978Y-55516813D01*
X233026764Y-55515228D01*
X233075036Y-55508589D01*
X233103218Y-55500072D01*
X233157753Y-55465063D01*
X233191835Y-55416479D01*
X233207157Y-55351882D01*
X233207299Y-55350223D01*
X233205955Y-55321566D01*
X233084356Y-55321566D01*
X233073726Y-55354161D01*
X233056410Y-55372505D01*
X233021652Y-55386379D01*
X232975773Y-55391917D01*
X232928988Y-55389191D01*
X232891514Y-55378274D01*
X232881015Y-55371269D01*
X232862668Y-55338904D01*
X232858020Y-55302111D01*
X232858020Y-55253763D01*
X232927582Y-55253763D01*
X232993667Y-55258850D01*
X233043764Y-55273263D01*
X233074929Y-55295729D01*
X233084356Y-55321566D01*
X233205955Y-55321566D01*
X233203987Y-55279647D01*
X233180710Y-55223845D01*
X233136948Y-55181647D01*
X233130899Y-55177808D01*
X233104907Y-55165309D01*
X233072735Y-55157740D01*
X233027760Y-55154061D01*
X232974331Y-55153216D01*
X232858020Y-55153169D01*
X232858020Y-55104411D01*
X232862953Y-55066581D01*
X232875543Y-55041236D01*
X232877017Y-55039887D01*
X232905034Y-55028800D01*
X232947326Y-55024503D01*
X232994064Y-55026615D01*
X233035418Y-55034756D01*
X233059957Y-55046965D01*
X233073253Y-55056746D01*
X233087294Y-55058613D01*
X233106671Y-55050600D01*
X233135976Y-55030739D01*
X233179803Y-54997063D01*
X233183825Y-54993909D01*
X233181764Y-54982236D01*
X233164568Y-54962822D01*
X233138433Y-54941248D01*
X233109552Y-54923096D01*
X233100478Y-54918809D01*
X233067380Y-54910256D01*
X233018880Y-54904155D01*
X232964695Y-54901708D01*
X232962161Y-54901703D01*
X232884210Y-54906555D01*
G37*
X232884210Y-54906555D02*
X232825055Y-54922339D01*
X232780023Y-54950948D01*
X232748246Y-54988419D01*
X232738366Y-55004411D01*
X232731073Y-55021163D01*
X232725974Y-55042592D01*
X232722679Y-55072616D01*
X232720797Y-55115154D01*
X232719937Y-55174122D01*
X232719707Y-55253440D01*
X232719703Y-55274484D01*
X232719703Y-55517822D01*
X232780059Y-55517822D01*
X232818557Y-55515126D01*
X232847023Y-55508295D01*
X232854155Y-55504083D01*
X232873652Y-55496813D01*
X232893566Y-55504083D01*
X232926353Y-55513160D01*
X232973978Y-55516813D01*
X233026764Y-55515228D01*
X233075036Y-55508589D01*
X233103218Y-55500072D01*
X233157753Y-55465063D01*
X233191835Y-55416479D01*
X233207157Y-55351882D01*
X233207299Y-55350223D01*
X233205955Y-55321566D01*
X233084356Y-55321566D01*
X233073726Y-55354161D01*
X233056410Y-55372505D01*
X233021652Y-55386379D01*
X232975773Y-55391917D01*
X232928988Y-55389191D01*
X232891514Y-55378274D01*
X232881015Y-55371269D01*
X232862668Y-55338904D01*
X232858020Y-55302111D01*
X232858020Y-55253763D01*
X232927582Y-55253763D01*
X232993667Y-55258850D01*
X233043764Y-55273263D01*
X233074929Y-55295729D01*
X233084356Y-55321566D01*
X233205955Y-55321566D01*
X233203987Y-55279647D01*
X233180710Y-55223845D01*
X233136948Y-55181647D01*
X233130899Y-55177808D01*
X233104907Y-55165309D01*
X233072735Y-55157740D01*
X233027760Y-55154061D01*
X232974331Y-55153216D01*
X232858020Y-55153169D01*
X232858020Y-55104411D01*
X232862953Y-55066581D01*
X232875543Y-55041236D01*
X232877017Y-55039887D01*
X232905034Y-55028800D01*
X232947326Y-55024503D01*
X232994064Y-55026615D01*
X233035418Y-55034756D01*
X233059957Y-55046965D01*
X233073253Y-55056746D01*
X233087294Y-55058613D01*
X233106671Y-55050600D01*
X233135976Y-55030739D01*
X233179803Y-54997063D01*
X233183825Y-54993909D01*
X233181764Y-54982236D01*
X233164568Y-54962822D01*
X233138433Y-54941248D01*
X233109552Y-54923096D01*
X233100478Y-54918809D01*
X233067380Y-54910256D01*
X233018880Y-54904155D01*
X232964695Y-54901708D01*
X232962161Y-54901703D01*
X232884210Y-54906555D01*
G36*
X232493356Y-54903020D02*
G01*
X232474539Y-54908660D01*
X232468473Y-54921053D01*
X232468218Y-54926647D01*
X232467129Y-54942230D01*
X232459632Y-54944676D01*
X232439381Y-54933993D01*
X232427351Y-54926694D01*
X232389400Y-54911063D01*
X232344072Y-54903334D01*
X232296544Y-54902740D01*
X232251995Y-54908513D01*
X232215602Y-54919884D01*
X232192543Y-54936088D01*
X232187996Y-54956355D01*
X232190291Y-54961843D01*
X232207020Y-54984626D01*
X232232963Y-55012647D01*
X232237655Y-55017177D01*
X232262383Y-55038005D01*
X232283718Y-55044735D01*
X232313555Y-55040038D01*
X232325508Y-55036917D01*
X232362705Y-55029421D01*
X232388859Y-55032792D01*
X232410946Y-55044681D01*
X232431178Y-55060635D01*
X232446079Y-55080700D01*
X232456434Y-55108702D01*
X232463029Y-55148467D01*
X232466649Y-55203823D01*
X232468078Y-55278594D01*
X232468218Y-55323740D01*
X232468218Y-55517822D01*
X232593960Y-55517822D01*
X232593960Y-54901683D01*
X232531089Y-54901683D01*
X232493356Y-54903020D01*
G37*
X232493356Y-54903020D02*
X232474539Y-54908660D01*
X232468473Y-54921053D01*
X232468218Y-54926647D01*
X232467129Y-54942230D01*
X232459632Y-54944676D01*
X232439381Y-54933993D01*
X232427351Y-54926694D01*
X232389400Y-54911063D01*
X232344072Y-54903334D01*
X232296544Y-54902740D01*
X232251995Y-54908513D01*
X232215602Y-54919884D01*
X232192543Y-54936088D01*
X232187996Y-54956355D01*
X232190291Y-54961843D01*
X232207020Y-54984626D01*
X232232963Y-55012647D01*
X232237655Y-55017177D01*
X232262383Y-55038005D01*
X232283718Y-55044735D01*
X232313555Y-55040038D01*
X232325508Y-55036917D01*
X232362705Y-55029421D01*
X232388859Y-55032792D01*
X232410946Y-55044681D01*
X232431178Y-55060635D01*
X232446079Y-55080700D01*
X232456434Y-55108702D01*
X232463029Y-55148467D01*
X232466649Y-55203823D01*
X232468078Y-55278594D01*
X232468218Y-55323740D01*
X232468218Y-55517822D01*
X232593960Y-55517822D01*
X232593960Y-54901683D01*
X232531089Y-54901683D01*
X232493356Y-54903020D01*
G36*
X231701188Y-55517822D02*
G01*
X231770346Y-55517822D01*
X231810488Y-55516645D01*
X231831394Y-55511772D01*
X231838922Y-55501186D01*
X231839505Y-55494029D01*
X231840774Y-55479676D01*
X231848779Y-55476923D01*
X231869815Y-55485771D01*
X231886173Y-55494029D01*
X231948977Y-55513597D01*
X232017248Y-55514729D01*
X232072752Y-55500135D01*
X232124438Y-55464877D01*
X232163838Y-55412835D01*
X232185413Y-55351450D01*
X232185962Y-55348018D01*
X232189167Y-55310571D01*
X232190761Y-55256813D01*
X232190633Y-55216155D01*
X232053279Y-55216155D01*
X232050097Y-55270194D01*
X232042859Y-55314735D01*
X232033060Y-55339888D01*
X231995989Y-55374260D01*
X231951974Y-55386582D01*
X231906584Y-55376618D01*
X231867797Y-55346895D01*
X231853108Y-55326905D01*
X231844519Y-55303050D01*
X231840496Y-55268230D01*
X231839505Y-55215930D01*
X231841278Y-55164139D01*
X231845963Y-55118634D01*
X231852603Y-55088181D01*
X231853710Y-55085452D01*
X231880491Y-55053000D01*
X231919579Y-55035183D01*
X231963315Y-55032306D01*
X232004038Y-55044674D01*
X232034087Y-55072593D01*
X232037204Y-55078148D01*
X232046961Y-55112022D01*
X232052277Y-55160728D01*
X232053279Y-55216155D01*
X232190633Y-55216155D01*
X232190568Y-55195540D01*
X232189664Y-55162563D01*
X232183514Y-55080981D01*
X232170733Y-55019730D01*
X232149471Y-54974449D01*
X232117878Y-54940779D01*
X232087207Y-54921014D01*
X232044354Y-54907120D01*
X231991056Y-54902354D01*
X231936480Y-54906236D01*
X231889792Y-54918282D01*
X231865124Y-54932693D01*
X231839505Y-54955878D01*
X231839505Y-54662773D01*
X231701188Y-54662773D01*
X231701188Y-55517822D01*
G37*
X231701188Y-55517822D02*
X231770346Y-55517822D01*
X231810488Y-55516645D01*
X231831394Y-55511772D01*
X231838922Y-55501186D01*
X231839505Y-55494029D01*
X231840774Y-55479676D01*
X231848779Y-55476923D01*
X231869815Y-55485771D01*
X231886173Y-55494029D01*
X231948977Y-55513597D01*
X232017248Y-55514729D01*
X232072752Y-55500135D01*
X232124438Y-55464877D01*
X232163838Y-55412835D01*
X232185413Y-55351450D01*
X232185962Y-55348018D01*
X232189167Y-55310571D01*
X232190761Y-55256813D01*
X232190633Y-55216155D01*
X232053279Y-55216155D01*
X232050097Y-55270194D01*
X232042859Y-55314735D01*
X232033060Y-55339888D01*
X231995989Y-55374260D01*
X231951974Y-55386582D01*
X231906584Y-55376618D01*
X231867797Y-55346895D01*
X231853108Y-55326905D01*
X231844519Y-55303050D01*
X231840496Y-55268230D01*
X231839505Y-55215930D01*
X231841278Y-55164139D01*
X231845963Y-55118634D01*
X231852603Y-55088181D01*
X231853710Y-55085452D01*
X231880491Y-55053000D01*
X231919579Y-55035183D01*
X231963315Y-55032306D01*
X232004038Y-55044674D01*
X232034087Y-55072593D01*
X232037204Y-55078148D01*
X232046961Y-55112022D01*
X232052277Y-55160728D01*
X232053279Y-55216155D01*
X232190633Y-55216155D01*
X232190568Y-55195540D01*
X232189664Y-55162563D01*
X232183514Y-55080981D01*
X232170733Y-55019730D01*
X232149471Y-54974449D01*
X232117878Y-54940779D01*
X232087207Y-54921014D01*
X232044354Y-54907120D01*
X231991056Y-54902354D01*
X231936480Y-54906236D01*
X231889792Y-54918282D01*
X231865124Y-54932693D01*
X231839505Y-54955878D01*
X231839505Y-54662773D01*
X231701188Y-54662773D01*
X231701188Y-55517822D01*
G36*
X231218476Y-54904237D02*
G01*
X231168745Y-54907971D01*
X231038709Y-55297773D01*
X231018322Y-55228614D01*
X231006054Y-55185874D01*
X230989915Y-55128115D01*
X230972488Y-55064625D01*
X230963274Y-55030570D01*
X230928612Y-54901683D01*
X230785609Y-54901683D01*
X230828354Y-55036857D01*
X230849404Y-55103342D01*
X230874833Y-55183539D01*
X230901390Y-55267193D01*
X230925098Y-55341782D01*
X230979098Y-55511535D01*
X231037402Y-55515328D01*
X231095705Y-55519122D01*
X231127321Y-55414734D01*
X231146818Y-55349889D01*
X231168096Y-55278400D01*
X231186692Y-55215263D01*
X231187426Y-55212750D01*
X231201316Y-55169969D01*
X231213571Y-55140779D01*
X231222154Y-55129741D01*
X231223918Y-55131018D01*
X231230109Y-55148130D01*
X231241872Y-55184787D01*
X231257775Y-55236378D01*
X231276386Y-55298294D01*
X231286457Y-55332352D01*
X231340993Y-55517822D01*
X231456736Y-55517822D01*
X231549263Y-55225471D01*
X231575256Y-55143462D01*
X231598934Y-55068987D01*
X231619180Y-55005544D01*
X231634874Y-54956632D01*
X231644898Y-54925749D01*
X231647945Y-54916726D01*
X231645533Y-54907487D01*
X231626592Y-54903441D01*
X231587177Y-54903846D01*
X231581007Y-54904152D01*
X231507914Y-54907971D01*
X231460043Y-55084010D01*
X231442447Y-55148211D01*
X231426723Y-55204649D01*
X231414254Y-55248422D01*
X231406426Y-55274630D01*
X231404980Y-55278903D01*
X231398986Y-55273990D01*
X231386899Y-55248532D01*
X231370107Y-55205997D01*
X231349997Y-55149850D01*
X231332997Y-55099130D01*
X231268206Y-54900504D01*
X231218476Y-54904237D01*
G37*
X231218476Y-54904237D02*
X231168745Y-54907971D01*
X231038709Y-55297773D01*
X231018322Y-55228614D01*
X231006054Y-55185874D01*
X230989915Y-55128115D01*
X230972488Y-55064625D01*
X230963274Y-55030570D01*
X230928612Y-54901683D01*
X230785609Y-54901683D01*
X230828354Y-55036857D01*
X230849404Y-55103342D01*
X230874833Y-55183539D01*
X230901390Y-55267193D01*
X230925098Y-55341782D01*
X230979098Y-55511535D01*
X231037402Y-55515328D01*
X231095705Y-55519122D01*
X231127321Y-55414734D01*
X231146818Y-55349889D01*
X231168096Y-55278400D01*
X231186692Y-55215263D01*
X231187426Y-55212750D01*
X231201316Y-55169969D01*
X231213571Y-55140779D01*
X231222154Y-55129741D01*
X231223918Y-55131018D01*
X231230109Y-55148130D01*
X231241872Y-55184787D01*
X231257775Y-55236378D01*
X231276386Y-55298294D01*
X231286457Y-55332352D01*
X231340993Y-55517822D01*
X231456736Y-55517822D01*
X231549263Y-55225471D01*
X231575256Y-55143462D01*
X231598934Y-55068987D01*
X231619180Y-55005544D01*
X231634874Y-54956632D01*
X231644898Y-54925749D01*
X231647945Y-54916726D01*
X231645533Y-54907487D01*
X231626592Y-54903441D01*
X231587177Y-54903846D01*
X231581007Y-54904152D01*
X231507914Y-54907971D01*
X231460043Y-55084010D01*
X231442447Y-55148211D01*
X231426723Y-55204649D01*
X231414254Y-55248422D01*
X231406426Y-55274630D01*
X231404980Y-55278903D01*
X231398986Y-55273990D01*
X231386899Y-55248532D01*
X231370107Y-55205997D01*
X231349997Y-55149850D01*
X231332997Y-55099130D01*
X231268206Y-54900504D01*
X231218476Y-54904237D01*
G36*
X230461589Y-54905417D02*
G01*
X230408589Y-54918290D01*
X230393269Y-54925110D01*
X230363572Y-54942974D01*
X230340780Y-54963093D01*
X230323917Y-54988962D01*
X230312002Y-55024073D01*
X230304058Y-55071920D01*
X230299106Y-55135996D01*
X230296169Y-55219794D01*
X230295053Y-55275768D01*
X230290948Y-55517822D01*
X230361068Y-55517822D01*
X230403607Y-55516038D01*
X230425524Y-55509942D01*
X230431188Y-55499706D01*
X230434179Y-55488637D01*
X230447549Y-55490754D01*
X230465767Y-55499629D01*
X230511376Y-55513233D01*
X230569993Y-55516899D01*
X230631646Y-55510903D01*
X230686362Y-55495521D01*
X230691270Y-55493386D01*
X230741277Y-55458255D01*
X230774244Y-55409419D01*
X230789413Y-55352333D01*
X230788254Y-55331824D01*
X230664492Y-55331824D01*
X230653587Y-55359425D01*
X230621255Y-55379204D01*
X230569090Y-55389819D01*
X230541213Y-55391228D01*
X230494753Y-55387620D01*
X230463871Y-55373597D01*
X230456336Y-55366931D01*
X230435924Y-55330666D01*
X230431188Y-55297773D01*
X230431188Y-55253763D01*
X230492487Y-55253763D01*
X230563744Y-55257395D01*
X230613724Y-55268818D01*
X230645304Y-55288824D01*
X230652374Y-55297743D01*
X230664492Y-55331824D01*
X230788254Y-55331824D01*
X230786029Y-55292456D01*
X230763337Y-55235244D01*
X230732376Y-55196580D01*
X230713624Y-55179864D01*
X230695267Y-55168878D01*
X230671381Y-55162180D01*
X230636043Y-55158326D01*
X230583331Y-55155873D01*
X230562423Y-55155168D01*
X230431188Y-55150879D01*
X230431380Y-55111158D01*
X230436463Y-55069405D01*
X230454838Y-55044158D01*
X230491961Y-55028030D01*
X230492957Y-55027742D01*
X230545590Y-55021400D01*
X230597094Y-55029684D01*
X230635370Y-55049827D01*
X230650728Y-55059773D01*
X230667270Y-55058397D01*
X230692725Y-55043987D01*
X230707672Y-55033817D01*
X230736909Y-55012088D01*
X230755020Y-54995800D01*
X230757926Y-54991137D01*
X230745960Y-54967005D01*
X230710604Y-54938185D01*
X230695247Y-54928461D01*
X230651099Y-54911714D01*
X230591602Y-54902227D01*
X230525513Y-54900095D01*
X230461589Y-54905417D01*
G37*
X230461589Y-54905417D02*
X230408589Y-54918290D01*
X230393269Y-54925110D01*
X230363572Y-54942974D01*
X230340780Y-54963093D01*
X230323917Y-54988962D01*
X230312002Y-55024073D01*
X230304058Y-55071920D01*
X230299106Y-55135996D01*
X230296169Y-55219794D01*
X230295053Y-55275768D01*
X230290948Y-55517822D01*
X230361068Y-55517822D01*
X230403607Y-55516038D01*
X230425524Y-55509942D01*
X230431188Y-55499706D01*
X230434179Y-55488637D01*
X230447549Y-55490754D01*
X230465767Y-55499629D01*
X230511376Y-55513233D01*
X230569993Y-55516899D01*
X230631646Y-55510903D01*
X230686362Y-55495521D01*
X230691270Y-55493386D01*
X230741277Y-55458255D01*
X230774244Y-55409419D01*
X230789413Y-55352333D01*
X230788254Y-55331824D01*
X230664492Y-55331824D01*
X230653587Y-55359425D01*
X230621255Y-55379204D01*
X230569090Y-55389819D01*
X230541213Y-55391228D01*
X230494753Y-55387620D01*
X230463871Y-55373597D01*
X230456336Y-55366931D01*
X230435924Y-55330666D01*
X230431188Y-55297773D01*
X230431188Y-55253763D01*
X230492487Y-55253763D01*
X230563744Y-55257395D01*
X230613724Y-55268818D01*
X230645304Y-55288824D01*
X230652374Y-55297743D01*
X230664492Y-55331824D01*
X230788254Y-55331824D01*
X230786029Y-55292456D01*
X230763337Y-55235244D01*
X230732376Y-55196580D01*
X230713624Y-55179864D01*
X230695267Y-55168878D01*
X230671381Y-55162180D01*
X230636043Y-55158326D01*
X230583331Y-55155873D01*
X230562423Y-55155168D01*
X230431188Y-55150879D01*
X230431380Y-55111158D01*
X230436463Y-55069405D01*
X230454838Y-55044158D01*
X230491961Y-55028030D01*
X230492957Y-55027742D01*
X230545590Y-55021400D01*
X230597094Y-55029684D01*
X230635370Y-55049827D01*
X230650728Y-55059773D01*
X230667270Y-55058397D01*
X230692725Y-55043987D01*
X230707672Y-55033817D01*
X230736909Y-55012088D01*
X230755020Y-54995800D01*
X230757926Y-54991137D01*
X230745960Y-54967005D01*
X230710604Y-54938185D01*
X230695247Y-54928461D01*
X230651099Y-54911714D01*
X230591602Y-54902227D01*
X230525513Y-54900095D01*
X230461589Y-54905417D01*
G36*
X229864745Y-54901486D02*
G01*
X229816405Y-54911015D01*
X229788886Y-54925125D01*
X229759936Y-54948568D01*
X229801124Y-55000571D01*
X229826518Y-55032064D01*
X229843762Y-55047428D01*
X229860898Y-55049776D01*
X229885973Y-55042217D01*
X229897743Y-55037941D01*
X229945730Y-55031631D01*
X229989676Y-55045156D01*
X230021940Y-55075710D01*
X230027181Y-55085452D01*
X230032888Y-55111258D01*
X230037294Y-55158817D01*
X230040189Y-55224758D01*
X230041369Y-55305710D01*
X230041386Y-55317226D01*
X230041386Y-55517822D01*
X230179703Y-55517822D01*
X230179703Y-54901683D01*
X230110544Y-54901683D01*
X230070667Y-54902725D01*
X230049893Y-54907358D01*
X230042211Y-54917849D01*
X230041386Y-54927745D01*
X230041386Y-54953806D01*
X230008255Y-54927745D01*
X229970265Y-54909965D01*
X229919230Y-54901174D01*
X229864745Y-54901486D01*
G37*
X229864745Y-54901486D02*
X229816405Y-54911015D01*
X229788886Y-54925125D01*
X229759936Y-54948568D01*
X229801124Y-55000571D01*
X229826518Y-55032064D01*
X229843762Y-55047428D01*
X229860898Y-55049776D01*
X229885973Y-55042217D01*
X229897743Y-55037941D01*
X229945730Y-55031631D01*
X229989676Y-55045156D01*
X230021940Y-55075710D01*
X230027181Y-55085452D01*
X230032888Y-55111258D01*
X230037294Y-55158817D01*
X230040189Y-55224758D01*
X230041369Y-55305710D01*
X230041386Y-55317226D01*
X230041386Y-55517822D01*
X230179703Y-55517822D01*
X230179703Y-54901683D01*
X230110544Y-54901683D01*
X230070667Y-54902725D01*
X230049893Y-54907358D01*
X230042211Y-54917849D01*
X230041386Y-54927745D01*
X230041386Y-54953806D01*
X230008255Y-54927745D01*
X229970265Y-54909965D01*
X229919230Y-54901174D01*
X229864745Y-54901486D01*
G36*
X229467419Y-54904970D02*
G01*
X229407315Y-54920597D01*
X229356979Y-54952848D01*
X229332607Y-54976940D01*
X229292655Y-55033895D01*
X229269758Y-55099965D01*
X229261892Y-55181182D01*
X229261852Y-55187748D01*
X229261782Y-55253763D01*
X229641736Y-55253763D01*
X229633637Y-55288342D01*
X229619013Y-55319659D01*
X229593419Y-55352291D01*
X229588065Y-55357500D01*
X229542057Y-55385694D01*
X229489590Y-55390475D01*
X229429197Y-55371926D01*
X229418960Y-55366931D01*
X229387561Y-55351745D01*
X229366530Y-55343094D01*
X229362861Y-55342293D01*
X229350052Y-55350063D01*
X229325622Y-55369072D01*
X229313221Y-55379460D01*
X229287524Y-55403321D01*
X229279085Y-55419077D01*
X229284942Y-55433571D01*
X229288072Y-55437534D01*
X229309275Y-55454879D01*
X229344262Y-55475959D01*
X229368663Y-55488265D01*
X229437928Y-55509946D01*
X229514612Y-55516971D01*
X229587235Y-55508647D01*
X229607574Y-55502686D01*
X229670524Y-55468952D01*
X229717185Y-55417045D01*
X229747827Y-55346459D01*
X229762718Y-55256692D01*
X229764353Y-55209753D01*
X229759579Y-55141413D01*
X229639010Y-55141413D01*
X229627348Y-55146465D01*
X229596002Y-55150429D01*
X229550429Y-55152768D01*
X229519554Y-55153169D01*
X229464019Y-55152783D01*
X229428967Y-55150975D01*
X229409738Y-55146773D01*
X229401670Y-55139203D01*
X229400099Y-55128218D01*
X229410879Y-55094381D01*
X229438020Y-55060940D01*
X229473723Y-55035272D01*
X229509440Y-55024772D01*
X229557952Y-55034086D01*
X229599947Y-55061013D01*
X229629064Y-55099827D01*
X229639010Y-55141413D01*
X229759579Y-55141413D01*
X229757401Y-55110236D01*
X229735945Y-55030949D01*
X229699530Y-54971263D01*
X229647703Y-54930549D01*
X229580010Y-54908179D01*
X229543338Y-54903871D01*
X229467419Y-54904970D01*
G37*
X229467419Y-54904970D02*
X229407315Y-54920597D01*
X229356979Y-54952848D01*
X229332607Y-54976940D01*
X229292655Y-55033895D01*
X229269758Y-55099965D01*
X229261892Y-55181182D01*
X229261852Y-55187748D01*
X229261782Y-55253763D01*
X229641736Y-55253763D01*
X229633637Y-55288342D01*
X229619013Y-55319659D01*
X229593419Y-55352291D01*
X229588065Y-55357500D01*
X229542057Y-55385694D01*
X229489590Y-55390475D01*
X229429197Y-55371926D01*
X229418960Y-55366931D01*
X229387561Y-55351745D01*
X229366530Y-55343094D01*
X229362861Y-55342293D01*
X229350052Y-55350063D01*
X229325622Y-55369072D01*
X229313221Y-55379460D01*
X229287524Y-55403321D01*
X229279085Y-55419077D01*
X229284942Y-55433571D01*
X229288072Y-55437534D01*
X229309275Y-55454879D01*
X229344262Y-55475959D01*
X229368663Y-55488265D01*
X229437928Y-55509946D01*
X229514612Y-55516971D01*
X229587235Y-55508647D01*
X229607574Y-55502686D01*
X229670524Y-55468952D01*
X229717185Y-55417045D01*
X229747827Y-55346459D01*
X229762718Y-55256692D01*
X229764353Y-55209753D01*
X229759579Y-55141413D01*
X229639010Y-55141413D01*
X229627348Y-55146465D01*
X229596002Y-55150429D01*
X229550429Y-55152768D01*
X229519554Y-55153169D01*
X229464019Y-55152783D01*
X229428967Y-55150975D01*
X229409738Y-55146773D01*
X229401670Y-55139203D01*
X229400099Y-55128218D01*
X229410879Y-55094381D01*
X229438020Y-55060940D01*
X229473723Y-55035272D01*
X229509440Y-55024772D01*
X229557952Y-55034086D01*
X229599947Y-55061013D01*
X229629064Y-55099827D01*
X229639010Y-55141413D01*
X229759579Y-55141413D01*
X229757401Y-55110236D01*
X229735945Y-55030949D01*
X229699530Y-54971263D01*
X229647703Y-54930549D01*
X229580010Y-54908179D01*
X229543338Y-54903871D01*
X229467419Y-54904970D01*
G36*
X234038261Y-53965148D02*
G01*
X233972479Y-53994231D01*
X233922540Y-54042793D01*
X233888374Y-54110908D01*
X233869907Y-54198651D01*
X233868583Y-54212351D01*
X233867546Y-54308939D01*
X233880993Y-54393602D01*
X233908108Y-54462221D01*
X233922627Y-54484294D01*
X233973201Y-54531011D01*
X234037609Y-54561268D01*
X234109666Y-54573824D01*
X234183185Y-54567439D01*
X234239072Y-54547772D01*
X234287132Y-54514629D01*
X234326412Y-54471175D01*
X234327092Y-54470158D01*
X234343044Y-54443338D01*
X234353410Y-54416368D01*
X234359688Y-54382332D01*
X234363373Y-54334310D01*
X234364997Y-54294931D01*
X234365672Y-54259219D01*
X234239955Y-54259219D01*
X234238726Y-54294770D01*
X234234266Y-54342094D01*
X234226397Y-54372465D01*
X234212207Y-54394072D01*
X234198917Y-54406694D01*
X234151802Y-54433122D01*
X234102505Y-54436653D01*
X234056593Y-54417639D01*
X234033638Y-54396331D01*
X234017096Y-54374859D01*
X234007421Y-54354313D01*
X234003174Y-54327574D01*
X234002920Y-54287523D01*
X234004228Y-54250638D01*
X234007043Y-54197947D01*
X234011505Y-54163772D01*
X234019548Y-54141480D01*
X234033103Y-54124442D01*
X234043845Y-54114703D01*
X234088777Y-54089123D01*
X234137249Y-54087847D01*
X234177894Y-54102999D01*
X234212567Y-54134642D01*
X234233224Y-54186620D01*
X234239955Y-54259219D01*
X234365672Y-54259219D01*
X234366479Y-54216621D01*
X234363948Y-54158056D01*
X234356362Y-54114007D01*
X234342681Y-54079248D01*
X234321865Y-54048551D01*
X234314147Y-54039436D01*
X234265889Y-53994021D01*
X234214128Y-53967493D01*
X234150828Y-53956379D01*
X234119961Y-53955471D01*
X234038261Y-53965148D01*
G37*
X234038261Y-53965148D02*
X233972479Y-53994231D01*
X233922540Y-54042793D01*
X233888374Y-54110908D01*
X233869907Y-54198651D01*
X233868583Y-54212351D01*
X233867546Y-54308939D01*
X233880993Y-54393602D01*
X233908108Y-54462221D01*
X233922627Y-54484294D01*
X233973201Y-54531011D01*
X234037609Y-54561268D01*
X234109666Y-54573824D01*
X234183185Y-54567439D01*
X234239072Y-54547772D01*
X234287132Y-54514629D01*
X234326412Y-54471175D01*
X234327092Y-54470158D01*
X234343044Y-54443338D01*
X234353410Y-54416368D01*
X234359688Y-54382332D01*
X234363373Y-54334310D01*
X234364997Y-54294931D01*
X234365672Y-54259219D01*
X234239955Y-54259219D01*
X234238726Y-54294770D01*
X234234266Y-54342094D01*
X234226397Y-54372465D01*
X234212207Y-54394072D01*
X234198917Y-54406694D01*
X234151802Y-54433122D01*
X234102505Y-54436653D01*
X234056593Y-54417639D01*
X234033638Y-54396331D01*
X234017096Y-54374859D01*
X234007421Y-54354313D01*
X234003174Y-54327574D01*
X234002920Y-54287523D01*
X234004228Y-54250638D01*
X234007043Y-54197947D01*
X234011505Y-54163772D01*
X234019548Y-54141480D01*
X234033103Y-54124442D01*
X234043845Y-54114703D01*
X234088777Y-54089123D01*
X234137249Y-54087847D01*
X234177894Y-54102999D01*
X234212567Y-54134642D01*
X234233224Y-54186620D01*
X234239955Y-54259219D01*
X234365672Y-54259219D01*
X234366479Y-54216621D01*
X234363948Y-54158056D01*
X234356362Y-54114007D01*
X234342681Y-54079248D01*
X234321865Y-54048551D01*
X234314147Y-54039436D01*
X234265889Y-53994021D01*
X234214128Y-53967493D01*
X234150828Y-53956379D01*
X234119961Y-53955471D01*
X234038261Y-53965148D01*
G36*
X232856699Y-53972614D02*
G01*
X232844168Y-53978514D01*
X232800799Y-54010283D01*
X232759790Y-54056646D01*
X232729168Y-54107696D01*
X232720459Y-54131166D01*
X232712512Y-54173091D01*
X232707774Y-54223757D01*
X232707199Y-54244679D01*
X232707129Y-54310693D01*
X233087083Y-54310693D01*
X233078983Y-54345273D01*
X233059104Y-54386170D01*
X233024347Y-54421514D01*
X232982998Y-54444282D01*
X232956649Y-54449010D01*
X232920916Y-54443273D01*
X232878282Y-54428882D01*
X232863799Y-54422262D01*
X232810240Y-54395513D01*
X232764533Y-54430376D01*
X232738158Y-54453955D01*
X232724124Y-54473417D01*
X232723414Y-54479129D01*
X232735951Y-54492973D01*
X232763428Y-54514012D01*
X232788366Y-54530425D01*
X232855664Y-54559930D01*
X232931110Y-54573284D01*
X233005888Y-54569812D01*
X233065495Y-54551663D01*
X233126941Y-54512784D01*
X233170608Y-54461595D01*
X233197926Y-54395367D01*
X233210322Y-54311371D01*
X233211421Y-54272936D01*
X233207022Y-54184861D01*
X233206482Y-54182299D01*
X233080582Y-54182299D01*
X233077115Y-54190558D01*
X233062863Y-54195113D01*
X233033470Y-54197065D01*
X232984575Y-54197517D01*
X232965748Y-54197525D01*
X232908467Y-54196843D01*
X232872141Y-54194364D01*
X232852604Y-54189443D01*
X232845690Y-54181434D01*
X232845445Y-54178862D01*
X232853336Y-54158423D01*
X232873085Y-54129789D01*
X232881575Y-54119763D01*
X232913094Y-54091408D01*
X232945949Y-54080259D01*
X232963651Y-54079327D01*
X233011539Y-54090981D01*
X233051699Y-54122285D01*
X233077173Y-54167752D01*
X233077625Y-54169233D01*
X233080582Y-54182299D01*
X233206482Y-54182299D01*
X233192392Y-54115510D01*
X233166038Y-54060025D01*
X233133807Y-54020639D01*
X233074217Y-53977931D01*
X233004168Y-53955109D01*
X232929661Y-53953046D01*
X232856699Y-53972614D01*
G37*
X232856699Y-53972614D02*
X232844168Y-53978514D01*
X232800799Y-54010283D01*
X232759790Y-54056646D01*
X232729168Y-54107696D01*
X232720459Y-54131166D01*
X232712512Y-54173091D01*
X232707774Y-54223757D01*
X232707199Y-54244679D01*
X232707129Y-54310693D01*
X233087083Y-54310693D01*
X233078983Y-54345273D01*
X233059104Y-54386170D01*
X233024347Y-54421514D01*
X232982998Y-54444282D01*
X232956649Y-54449010D01*
X232920916Y-54443273D01*
X232878282Y-54428882D01*
X232863799Y-54422262D01*
X232810240Y-54395513D01*
X232764533Y-54430376D01*
X232738158Y-54453955D01*
X232724124Y-54473417D01*
X232723414Y-54479129D01*
X232735951Y-54492973D01*
X232763428Y-54514012D01*
X232788366Y-54530425D01*
X232855664Y-54559930D01*
X232931110Y-54573284D01*
X233005888Y-54569812D01*
X233065495Y-54551663D01*
X233126941Y-54512784D01*
X233170608Y-54461595D01*
X233197926Y-54395367D01*
X233210322Y-54311371D01*
X233211421Y-54272936D01*
X233207022Y-54184861D01*
X233206482Y-54182299D01*
X233080582Y-54182299D01*
X233077115Y-54190558D01*
X233062863Y-54195113D01*
X233033470Y-54197065D01*
X232984575Y-54197517D01*
X232965748Y-54197525D01*
X232908467Y-54196843D01*
X232872141Y-54194364D01*
X232852604Y-54189443D01*
X232845690Y-54181434D01*
X232845445Y-54178862D01*
X232853336Y-54158423D01*
X232873085Y-54129789D01*
X232881575Y-54119763D01*
X232913094Y-54091408D01*
X232945949Y-54080259D01*
X232963651Y-54079327D01*
X233011539Y-54090981D01*
X233051699Y-54122285D01*
X233077173Y-54167752D01*
X233077625Y-54169233D01*
X233080582Y-54182299D01*
X233206482Y-54182299D01*
X233192392Y-54115510D01*
X233166038Y-54060025D01*
X233133807Y-54020639D01*
X233074217Y-53977931D01*
X233004168Y-53955109D01*
X232929661Y-53953046D01*
X232856699Y-53972614D01*
G36*
X231485983Y-53956452D02*
G01*
X231438366Y-53965482D01*
X231388966Y-53984370D01*
X231383688Y-53986777D01*
X231346226Y-54006476D01*
X231320283Y-54024781D01*
X231311897Y-54036508D01*
X231319883Y-54055632D01*
X231339280Y-54083850D01*
X231347890Y-54094384D01*
X231383372Y-54135847D01*
X231429115Y-54108858D01*
X231472650Y-54090878D01*
X231522950Y-54081267D01*
X231571188Y-54080660D01*
X231608533Y-54089691D01*
X231617495Y-54095327D01*
X231634563Y-54121171D01*
X231636637Y-54150941D01*
X231623866Y-54174197D01*
X231616312Y-54178708D01*
X231593675Y-54184309D01*
X231553885Y-54190892D01*
X231504834Y-54197183D01*
X231495785Y-54198170D01*
X231417004Y-54211798D01*
X231359864Y-54234946D01*
X231321970Y-54269752D01*
X231300921Y-54318354D01*
X231294365Y-54377718D01*
X231303423Y-54445198D01*
X231332836Y-54498188D01*
X231382722Y-54536783D01*
X231453200Y-54561081D01*
X231531435Y-54570667D01*
X231595234Y-54570552D01*
X231646984Y-54561845D01*
X231682327Y-54549825D01*
X231726983Y-54528880D01*
X231768253Y-54504574D01*
X231782921Y-54493876D01*
X231820643Y-54463084D01*
X231775148Y-54417049D01*
X231729653Y-54371013D01*
X231677928Y-54405243D01*
X231626048Y-54430952D01*
X231570649Y-54444399D01*
X231517395Y-54445818D01*
X231471951Y-54435443D01*
X231439984Y-54413507D01*
X231429662Y-54394998D01*
X231431211Y-54365314D01*
X231456860Y-54342615D01*
X231506540Y-54326940D01*
X231560969Y-54319695D01*
X231644736Y-54305873D01*
X231706967Y-54279796D01*
X231748493Y-54240699D01*
X231770147Y-54187820D01*
X231773147Y-54125126D01*
X231758329Y-54059642D01*
X231724546Y-54010144D01*
X231671495Y-53976408D01*
X231598874Y-53958207D01*
X231545072Y-53954639D01*
X231485983Y-53956452D01*
G37*
X231485983Y-53956452D02*
X231438366Y-53965482D01*
X231388966Y-53984370D01*
X231383688Y-53986777D01*
X231346226Y-54006476D01*
X231320283Y-54024781D01*
X231311897Y-54036508D01*
X231319883Y-54055632D01*
X231339280Y-54083850D01*
X231347890Y-54094384D01*
X231383372Y-54135847D01*
X231429115Y-54108858D01*
X231472650Y-54090878D01*
X231522950Y-54081267D01*
X231571188Y-54080660D01*
X231608533Y-54089691D01*
X231617495Y-54095327D01*
X231634563Y-54121171D01*
X231636637Y-54150941D01*
X231623866Y-54174197D01*
X231616312Y-54178708D01*
X231593675Y-54184309D01*
X231553885Y-54190892D01*
X231504834Y-54197183D01*
X231495785Y-54198170D01*
X231417004Y-54211798D01*
X231359864Y-54234946D01*
X231321970Y-54269752D01*
X231300921Y-54318354D01*
X231294365Y-54377718D01*
X231303423Y-54445198D01*
X231332836Y-54498188D01*
X231382722Y-54536783D01*
X231453200Y-54561081D01*
X231531435Y-54570667D01*
X231595234Y-54570552D01*
X231646984Y-54561845D01*
X231682327Y-54549825D01*
X231726983Y-54528880D01*
X231768253Y-54504574D01*
X231782921Y-54493876D01*
X231820643Y-54463084D01*
X231775148Y-54417049D01*
X231729653Y-54371013D01*
X231677928Y-54405243D01*
X231626048Y-54430952D01*
X231570649Y-54444399D01*
X231517395Y-54445818D01*
X231471951Y-54435443D01*
X231439984Y-54413507D01*
X231429662Y-54394998D01*
X231431211Y-54365314D01*
X231456860Y-54342615D01*
X231506540Y-54326940D01*
X231560969Y-54319695D01*
X231644736Y-54305873D01*
X231706967Y-54279796D01*
X231748493Y-54240699D01*
X231770147Y-54187820D01*
X231773147Y-54125126D01*
X231758329Y-54059642D01*
X231724546Y-54010144D01*
X231671495Y-53976408D01*
X231598874Y-53958207D01*
X231545072Y-53954639D01*
X231485983Y-53956452D01*
G36*
X230889238Y-53966055D02*
G01*
X230825637Y-54000692D01*
X230775877Y-54055372D01*
X230752432Y-54099842D01*
X230742366Y-54139121D01*
X230735844Y-54195116D01*
X230733049Y-54259621D01*
X230734164Y-54324429D01*
X230739374Y-54381334D01*
X230745459Y-54411727D01*
X230765986Y-54453306D01*
X230801537Y-54497468D01*
X230844381Y-54536087D01*
X230886789Y-54561034D01*
X230887823Y-54561430D01*
X230940447Y-54572331D01*
X231002812Y-54572601D01*
X231062076Y-54562676D01*
X231084960Y-54554722D01*
X231143898Y-54521300D01*
X231186110Y-54477511D01*
X231213844Y-54419538D01*
X231229349Y-54343565D01*
X231232857Y-54303771D01*
X231232410Y-54253766D01*
X231097624Y-54253766D01*
X231093083Y-54326732D01*
X231080014Y-54382334D01*
X231059244Y-54417861D01*
X231044448Y-54428020D01*
X231006536Y-54435104D01*
X230961473Y-54433007D01*
X230922513Y-54422812D01*
X230912296Y-54417204D01*
X230885341Y-54384538D01*
X230867549Y-54334545D01*
X230859976Y-54273705D01*
X230863675Y-54208497D01*
X230871943Y-54169253D01*
X230895680Y-54123805D01*
X230933151Y-54095396D01*
X230978280Y-54085573D01*
X231024989Y-54095887D01*
X231060868Y-54121112D01*
X231079723Y-54141925D01*
X231090728Y-54162439D01*
X231095974Y-54190203D01*
X231097551Y-54232762D01*
X231097624Y-54253766D01*
X231232410Y-54253766D01*
X231231906Y-54197580D01*
X231214612Y-54110501D01*
X231180971Y-54042530D01*
X231130982Y-53993664D01*
X231064644Y-53963899D01*
X231050399Y-53960448D01*
X230964790Y-53952345D01*
X230889238Y-53966055D01*
G37*
X230889238Y-53966055D02*
X230825637Y-54000692D01*
X230775877Y-54055372D01*
X230752432Y-54099842D01*
X230742366Y-54139121D01*
X230735844Y-54195116D01*
X230733049Y-54259621D01*
X230734164Y-54324429D01*
X230739374Y-54381334D01*
X230745459Y-54411727D01*
X230765986Y-54453306D01*
X230801537Y-54497468D01*
X230844381Y-54536087D01*
X230886789Y-54561034D01*
X230887823Y-54561430D01*
X230940447Y-54572331D01*
X231002812Y-54572601D01*
X231062076Y-54562676D01*
X231084960Y-54554722D01*
X231143898Y-54521300D01*
X231186110Y-54477511D01*
X231213844Y-54419538D01*
X231229349Y-54343565D01*
X231232857Y-54303771D01*
X231232410Y-54253766D01*
X231097624Y-54253766D01*
X231093083Y-54326732D01*
X231080014Y-54382334D01*
X231059244Y-54417861D01*
X231044448Y-54428020D01*
X231006536Y-54435104D01*
X230961473Y-54433007D01*
X230922513Y-54422812D01*
X230912296Y-54417204D01*
X230885341Y-54384538D01*
X230867549Y-54334545D01*
X230859976Y-54273705D01*
X230863675Y-54208497D01*
X230871943Y-54169253D01*
X230895680Y-54123805D01*
X230933151Y-54095396D01*
X230978280Y-54085573D01*
X231024989Y-54095887D01*
X231060868Y-54121112D01*
X231079723Y-54141925D01*
X231090728Y-54162439D01*
X231095974Y-54190203D01*
X231097551Y-54232762D01*
X231097624Y-54253766D01*
X231232410Y-54253766D01*
X231231906Y-54197580D01*
X231214612Y-54110501D01*
X231180971Y-54042530D01*
X231130982Y-53993664D01*
X231064644Y-53963899D01*
X231050399Y-53960448D01*
X230964790Y-53952345D01*
X230889238Y-53966055D01*
G36*
X230506633Y-54154342D02*
G01*
X230505445Y-54246563D01*
X230501103Y-54316610D01*
X230492442Y-54367381D01*
X230478296Y-54401772D01*
X230457500Y-54422679D01*
X230428890Y-54433000D01*
X230393465Y-54435636D01*
X230356364Y-54432682D01*
X230328182Y-54421889D01*
X230307757Y-54400360D01*
X230293921Y-54365199D01*
X230285509Y-54313510D01*
X230281357Y-54242394D01*
X230280297Y-54154342D01*
X230280297Y-53958614D01*
X230141980Y-53958614D01*
X230141980Y-54562179D01*
X230211138Y-54562179D01*
X230252830Y-54560489D01*
X230274299Y-54554556D01*
X230280297Y-54543293D01*
X230283909Y-54533261D01*
X230298286Y-54535383D01*
X230327264Y-54549580D01*
X230393681Y-54571480D01*
X230464125Y-54569928D01*
X230531623Y-54546147D01*
X230563767Y-54527362D01*
X230588285Y-54507022D01*
X230606196Y-54481573D01*
X230618521Y-54447458D01*
X230626277Y-54401121D01*
X230630484Y-54339007D01*
X230632160Y-54257561D01*
X230632376Y-54194578D01*
X230632376Y-53958614D01*
X230506633Y-53958614D01*
X230506633Y-54154342D01*
G37*
X230506633Y-54154342D02*
X230505445Y-54246563D01*
X230501103Y-54316610D01*
X230492442Y-54367381D01*
X230478296Y-54401772D01*
X230457500Y-54422679D01*
X230428890Y-54433000D01*
X230393465Y-54435636D01*
X230356364Y-54432682D01*
X230328182Y-54421889D01*
X230307757Y-54400360D01*
X230293921Y-54365199D01*
X230285509Y-54313510D01*
X230281357Y-54242394D01*
X230280297Y-54154342D01*
X230280297Y-53958614D01*
X230141980Y-53958614D01*
X230141980Y-54562179D01*
X230211138Y-54562179D01*
X230252830Y-54560489D01*
X230274299Y-54554556D01*
X230280297Y-54543293D01*
X230283909Y-54533261D01*
X230298286Y-54535383D01*
X230327264Y-54549580D01*
X230393681Y-54571480D01*
X230464125Y-54569928D01*
X230531623Y-54546147D01*
X230563767Y-54527362D01*
X230588285Y-54507022D01*
X230606196Y-54481573D01*
X230618521Y-54447458D01*
X230626277Y-54401121D01*
X230630484Y-54339007D01*
X230632160Y-54257561D01*
X230632376Y-54194578D01*
X230632376Y-53958614D01*
X230506633Y-53958614D01*
X230506633Y-54154342D01*
G36*
X229282774Y-53963880D02*
G01*
X229209920Y-53994830D01*
X229186973Y-54009895D01*
X229157646Y-54033048D01*
X229139236Y-54051253D01*
X229136039Y-54057183D01*
X229145065Y-54070340D01*
X229168163Y-54092667D01*
X229186656Y-54108250D01*
X229237272Y-54148926D01*
X229277240Y-54115295D01*
X229308126Y-54093584D01*
X229338241Y-54086090D01*
X229372708Y-54087920D01*
X229427439Y-54101528D01*
X229465114Y-54129772D01*
X229488009Y-54175433D01*
X229498403Y-54241289D01*
X229498405Y-54241331D01*
X229497506Y-54314939D01*
X229483537Y-54368946D01*
X229455672Y-54405716D01*
X229436675Y-54418168D01*
X229386224Y-54433673D01*
X229332337Y-54433683D01*
X229285454Y-54418638D01*
X229274356Y-54411287D01*
X229246524Y-54392511D01*
X229224764Y-54389434D01*
X229201296Y-54403409D01*
X229175351Y-54428510D01*
X229134284Y-54470880D01*
X229179879Y-54508464D01*
X229250326Y-54550882D01*
X229329767Y-54571785D01*
X229412785Y-54570272D01*
X229467306Y-54556411D01*
X229531030Y-54522135D01*
X229581995Y-54468212D01*
X229605149Y-54430149D01*
X229623901Y-54375536D01*
X229633285Y-54306369D01*
X229633357Y-54231407D01*
X229624176Y-54159409D01*
X229605801Y-54099137D01*
X229602907Y-54092958D01*
X229560048Y-54032351D01*
X229502021Y-53988224D01*
X229433409Y-53961493D01*
X229358799Y-53953073D01*
X229282774Y-53963880D01*
G37*
X229282774Y-53963880D02*
X229209920Y-53994830D01*
X229186973Y-54009895D01*
X229157646Y-54033048D01*
X229139236Y-54051253D01*
X229136039Y-54057183D01*
X229145065Y-54070340D01*
X229168163Y-54092667D01*
X229186656Y-54108250D01*
X229237272Y-54148926D01*
X229277240Y-54115295D01*
X229308126Y-54093584D01*
X229338241Y-54086090D01*
X229372708Y-54087920D01*
X229427439Y-54101528D01*
X229465114Y-54129772D01*
X229488009Y-54175433D01*
X229498403Y-54241289D01*
X229498405Y-54241331D01*
X229497506Y-54314939D01*
X229483537Y-54368946D01*
X229455672Y-54405716D01*
X229436675Y-54418168D01*
X229386224Y-54433673D01*
X229332337Y-54433683D01*
X229285454Y-54418638D01*
X229274356Y-54411287D01*
X229246524Y-54392511D01*
X229224764Y-54389434D01*
X229201296Y-54403409D01*
X229175351Y-54428510D01*
X229134284Y-54470880D01*
X229179879Y-54508464D01*
X229250326Y-54550882D01*
X229329767Y-54571785D01*
X229412785Y-54570272D01*
X229467306Y-54556411D01*
X229531030Y-54522135D01*
X229581995Y-54468212D01*
X229605149Y-54430149D01*
X229623901Y-54375536D01*
X229633285Y-54306369D01*
X229633357Y-54231407D01*
X229624176Y-54159409D01*
X229605801Y-54099137D01*
X229602907Y-54092958D01*
X229560048Y-54032351D01*
X229502021Y-53988224D01*
X229433409Y-53961493D01*
X229358799Y-53953073D01*
X229282774Y-53963880D01*
G36*
X228822102Y-53956457D02*
G01*
X228789904Y-53964279D01*
X228728175Y-53992921D01*
X228675390Y-54036667D01*
X228638859Y-54089117D01*
X228633840Y-54100893D01*
X228626955Y-54131740D01*
X228622136Y-54177371D01*
X228620495Y-54223492D01*
X228620495Y-54310693D01*
X228802822Y-54310693D01*
X228878021Y-54310978D01*
X228930997Y-54312704D01*
X228964675Y-54317181D01*
X228981980Y-54325720D01*
X228985837Y-54339630D01*
X228979171Y-54360222D01*
X228967230Y-54384315D01*
X228933920Y-54424525D01*
X228887632Y-54444558D01*
X228831056Y-54443905D01*
X228766969Y-54422101D01*
X228711583Y-54395193D01*
X228665625Y-54431532D01*
X228619667Y-54467872D01*
X228662904Y-54507819D01*
X228720626Y-54545563D01*
X228791614Y-54568320D01*
X228867971Y-54574688D01*
X228941801Y-54563268D01*
X228953713Y-54559393D01*
X229018601Y-54525506D01*
X229066870Y-54474986D01*
X229099535Y-54406325D01*
X229117615Y-54318014D01*
X229117825Y-54316121D01*
X229119444Y-54219878D01*
X229112900Y-54185542D01*
X228985148Y-54185542D01*
X228973416Y-54190822D01*
X228941562Y-54194867D01*
X228894603Y-54197176D01*
X228864846Y-54197525D01*
X228809352Y-54197306D01*
X228774654Y-54195916D01*
X228756399Y-54192251D01*
X228750234Y-54185210D01*
X228751805Y-54173690D01*
X228753122Y-54169233D01*
X228775618Y-54127355D01*
X228810997Y-54093604D01*
X228842220Y-54078773D01*
X228883699Y-54079668D01*
X228925731Y-54098164D01*
X228960988Y-54128786D01*
X228982146Y-54166062D01*
X228985148Y-54185542D01*
X229112900Y-54185542D01*
X229103310Y-54135229D01*
X229071302Y-54064191D01*
X229025299Y-54008779D01*
X228967179Y-53971009D01*
X228898820Y-53952896D01*
X228822102Y-53956457D01*
G37*
X228822102Y-53956457D02*
X228789904Y-53964279D01*
X228728175Y-53992921D01*
X228675390Y-54036667D01*
X228638859Y-54089117D01*
X228633840Y-54100893D01*
X228626955Y-54131740D01*
X228622136Y-54177371D01*
X228620495Y-54223492D01*
X228620495Y-54310693D01*
X228802822Y-54310693D01*
X228878021Y-54310978D01*
X228930997Y-54312704D01*
X228964675Y-54317181D01*
X228981980Y-54325720D01*
X228985837Y-54339630D01*
X228979171Y-54360222D01*
X228967230Y-54384315D01*
X228933920Y-54424525D01*
X228887632Y-54444558D01*
X228831056Y-54443905D01*
X228766969Y-54422101D01*
X228711583Y-54395193D01*
X228665625Y-54431532D01*
X228619667Y-54467872D01*
X228662904Y-54507819D01*
X228720626Y-54545563D01*
X228791614Y-54568320D01*
X228867971Y-54574688D01*
X228941801Y-54563268D01*
X228953713Y-54559393D01*
X229018601Y-54525506D01*
X229066870Y-54474986D01*
X229099535Y-54406325D01*
X229117615Y-54318014D01*
X229117825Y-54316121D01*
X229119444Y-54219878D01*
X229112900Y-54185542D01*
X228985148Y-54185542D01*
X228973416Y-54190822D01*
X228941562Y-54194867D01*
X228894603Y-54197176D01*
X228864846Y-54197525D01*
X228809352Y-54197306D01*
X228774654Y-54195916D01*
X228756399Y-54192251D01*
X228750234Y-54185210D01*
X228751805Y-54173690D01*
X228753122Y-54169233D01*
X228775618Y-54127355D01*
X228810997Y-54093604D01*
X228842220Y-54078773D01*
X228883699Y-54079668D01*
X228925731Y-54098164D01*
X228960988Y-54128786D01*
X228982146Y-54166062D01*
X228985148Y-54185542D01*
X229112900Y-54185542D01*
X229103310Y-54135229D01*
X229071302Y-54064191D01*
X229025299Y-54008779D01*
X228967179Y-53971009D01*
X228898820Y-53952896D01*
X228822102Y-53956457D01*
G36*
X232254012Y-53969002D02*
G01*
X232222717Y-53983950D01*
X232192409Y-54005541D01*
X232169318Y-54030391D01*
X232152500Y-54062087D01*
X232141006Y-54104214D01*
X232133891Y-54160358D01*
X232130207Y-54234106D01*
X232129008Y-54329044D01*
X232128989Y-54338985D01*
X232128713Y-54562179D01*
X232267030Y-54562179D01*
X232267030Y-54356418D01*
X232267128Y-54280189D01*
X232267809Y-54224939D01*
X232269651Y-54186501D01*
X232273233Y-54160706D01*
X232279132Y-54143384D01*
X232287927Y-54130368D01*
X232300180Y-54117507D01*
X232343047Y-54089873D01*
X232389843Y-54084745D01*
X232434424Y-54102217D01*
X232449928Y-54115221D01*
X232461310Y-54127447D01*
X232469481Y-54140540D01*
X232474974Y-54158615D01*
X232478320Y-54185787D01*
X232480051Y-54226170D01*
X232480697Y-54283879D01*
X232480792Y-54354132D01*
X232480792Y-54562179D01*
X232619109Y-54562179D01*
X232619109Y-53958614D01*
X232549950Y-53958614D01*
X232508428Y-53960256D01*
X232487006Y-53966087D01*
X232480795Y-53977461D01*
X232480792Y-53977798D01*
X232477910Y-53988938D01*
X232465199Y-53987674D01*
X232439926Y-53975434D01*
X232382605Y-53957424D01*
X232317037Y-53955421D01*
X232254012Y-53969002D01*
G37*
X232254012Y-53969002D02*
X232222717Y-53983950D01*
X232192409Y-54005541D01*
X232169318Y-54030391D01*
X232152500Y-54062087D01*
X232141006Y-54104214D01*
X232133891Y-54160358D01*
X232130207Y-54234106D01*
X232129008Y-54329044D01*
X232128989Y-54338985D01*
X232128713Y-54562179D01*
X232267030Y-54562179D01*
X232267030Y-54356418D01*
X232267128Y-54280189D01*
X232267809Y-54224939D01*
X232269651Y-54186501D01*
X232273233Y-54160706D01*
X232279132Y-54143384D01*
X232287927Y-54130368D01*
X232300180Y-54117507D01*
X232343047Y-54089873D01*
X232389843Y-54084745D01*
X232434424Y-54102217D01*
X232449928Y-54115221D01*
X232461310Y-54127447D01*
X232469481Y-54140540D01*
X232474974Y-54158615D01*
X232478320Y-54185787D01*
X232480051Y-54226170D01*
X232480697Y-54283879D01*
X232480792Y-54354132D01*
X232480792Y-54562179D01*
X232619109Y-54562179D01*
X232619109Y-53958614D01*
X232549950Y-53958614D01*
X232508428Y-53960256D01*
X232487006Y-53966087D01*
X232480795Y-53977461D01*
X232480792Y-53977798D01*
X232477910Y-53988938D01*
X232465199Y-53987674D01*
X232439926Y-53975434D01*
X232382605Y-53957424D01*
X232317037Y-53955421D01*
X232254012Y-53969002D01*
G36*
X229700540Y-53958030D02*
G01*
X229657289Y-53971245D01*
X229629442Y-53987941D01*
X229620371Y-54001145D01*
X229622868Y-54016797D01*
X229639069Y-54041385D01*
X229652768Y-54058800D01*
X229681008Y-54090283D01*
X229702225Y-54103529D01*
X229720312Y-54102664D01*
X229773965Y-54089010D01*
X229813370Y-54089630D01*
X229845368Y-54105104D01*
X229856110Y-54114161D01*
X229890495Y-54146027D01*
X229890495Y-54562179D01*
X230028812Y-54562179D01*
X230028812Y-53958614D01*
X229959653Y-53958614D01*
X229918131Y-53960256D01*
X229896709Y-53966087D01*
X229890498Y-53977461D01*
X229890495Y-53977798D01*
X229887561Y-53989713D01*
X229874296Y-53988159D01*
X229855916Y-53979563D01*
X229817954Y-53963568D01*
X229787128Y-53953945D01*
X229747464Y-53951478D01*
X229700540Y-53958030D01*
G37*
X229700540Y-53958030D02*
X229657289Y-53971245D01*
X229629442Y-53987941D01*
X229620371Y-54001145D01*
X229622868Y-54016797D01*
X229639069Y-54041385D01*
X229652768Y-54058800D01*
X229681008Y-54090283D01*
X229702225Y-54103529D01*
X229720312Y-54102664D01*
X229773965Y-54089010D01*
X229813370Y-54089630D01*
X229845368Y-54105104D01*
X229856110Y-54114161D01*
X229890495Y-54146027D01*
X229890495Y-54562179D01*
X230028812Y-54562179D01*
X230028812Y-53958614D01*
X229959653Y-53958614D01*
X229918131Y-53960256D01*
X229896709Y-53966087D01*
X229890498Y-53977461D01*
X229890495Y-53977798D01*
X229887561Y-53989713D01*
X229874296Y-53988159D01*
X229855916Y-53979563D01*
X229817954Y-53963568D01*
X229787128Y-53953945D01*
X229747464Y-53951478D01*
X229700540Y-53958030D01*
G36*
X231123036Y-49790018D02*
G01*
X231066188Y-50091570D01*
X230646662Y-50264512D01*
X230395016Y-50093395D01*
X230324542Y-50045750D01*
X230260837Y-50003210D01*
X230206874Y-49967715D01*
X230165627Y-49941210D01*
X230140066Y-49925636D01*
X230133105Y-49922278D01*
X230120565Y-49930914D01*
X230093769Y-49954792D01*
X230055720Y-49990859D01*
X230009421Y-50036067D01*
X229957877Y-50087364D01*
X229904091Y-50141701D01*
X229851065Y-50196028D01*
X229801805Y-50247295D01*
X229759313Y-50292451D01*
X229726593Y-50328446D01*
X229706649Y-50352230D01*
X229701881Y-50360190D01*
X229708743Y-50374865D01*
X229727980Y-50407014D01*
X229757570Y-50453492D01*
X229795490Y-50511156D01*
X229839718Y-50576860D01*
X229865346Y-50614336D01*
X229912059Y-50682768D01*
X229953568Y-50744520D01*
X229987860Y-50796519D01*
X230012920Y-50835692D01*
X230026736Y-50858965D01*
X230028812Y-50863855D01*
X230024105Y-50877755D01*
X230011277Y-50910150D01*
X229992262Y-50956485D01*
X229968997Y-51012206D01*
X229943416Y-51072758D01*
X229917455Y-51133586D01*
X229893050Y-51190136D01*
X229872137Y-51237852D01*
X229856651Y-51272181D01*
X229848528Y-51288568D01*
X229848048Y-51289212D01*
X229835293Y-51292341D01*
X229801323Y-51299321D01*
X229749660Y-51309467D01*
X229683824Y-51322092D01*
X229607336Y-51336509D01*
X229562710Y-51344823D01*
X229480979Y-51360384D01*
X229407157Y-51375192D01*
X229344979Y-51388436D01*
X229298178Y-51399305D01*
X229270491Y-51406989D01*
X229264926Y-51409427D01*
X229259474Y-51425930D01*
X229255076Y-51463200D01*
X229251728Y-51516880D01*
X229249426Y-51582612D01*
X229248168Y-51656037D01*
X229247952Y-51732796D01*
X229248773Y-51808532D01*
X229250629Y-51878886D01*
X229253518Y-51939500D01*
X229257435Y-51986016D01*
X229262378Y-52014075D01*
X229265343Y-52019916D01*
X229283066Y-52026917D01*
X229320619Y-52036927D01*
X229373036Y-52048769D01*
X229435348Y-52061267D01*
X229457100Y-52065310D01*
X229561976Y-52084520D01*
X229644820Y-52099991D01*
X229708370Y-52112337D01*
X229755363Y-52122173D01*
X229788537Y-52130114D01*
X229810629Y-52136776D01*
X229824376Y-52142773D01*
X229832516Y-52148719D01*
X229833655Y-52149894D01*
X229845023Y-52168826D01*
X229862365Y-52205669D01*
X229883950Y-52255913D01*
X229908046Y-52315046D01*
X229932921Y-52378556D01*
X229956843Y-52441932D01*
X229978081Y-52500662D01*
X229994903Y-52550235D01*
X230005578Y-52586139D01*
X230008373Y-52603862D01*
X230008140Y-52604483D01*
X229998669Y-52618970D01*
X229977182Y-52650844D01*
X229945937Y-52696789D01*
X229907193Y-52753485D01*
X229863207Y-52817617D01*
X229850681Y-52835842D01*
X229806016Y-52901914D01*
X229766712Y-52962200D01*
X229734912Y-53013235D01*
X229712755Y-53051560D01*
X229702383Y-53073711D01*
X229701881Y-53076432D01*
X229710595Y-53090736D01*
X229734675Y-53119072D01*
X229771024Y-53158396D01*
X229816547Y-53205661D01*
X229868148Y-53257823D01*
X229922733Y-53311835D01*
X229977206Y-53364653D01*
X230028471Y-53413231D01*
X230073433Y-53454523D01*
X230108996Y-53485485D01*
X230132065Y-53503070D01*
X230138446Y-53505941D01*
X230153301Y-53499178D01*
X230183714Y-53480939D01*
X230224732Y-53454297D01*
X230256291Y-53432852D01*
X230313475Y-53393503D01*
X230381194Y-53347171D01*
X230449120Y-53300913D01*
X230485639Y-53276155D01*
X230609248Y-53192547D01*
X230713009Y-53248650D01*
X230760280Y-53273228D01*
X230800477Y-53292331D01*
X230827674Y-53303227D01*
X230834598Y-53304743D01*
X230842923Y-53293549D01*
X230859346Y-53261917D01*
X230882643Y-53212765D01*
X230911586Y-53149010D01*
X230944950Y-53073571D01*
X230981509Y-52989364D01*
X231020036Y-52899308D01*
X231059306Y-52806321D01*
X231098092Y-52713320D01*
X231135170Y-52623223D01*
X231169311Y-52538948D01*
X231199292Y-52463413D01*
X231223884Y-52399534D01*
X231241864Y-52350231D01*
X231252003Y-52318421D01*
X231253634Y-52307496D01*
X231240709Y-52293561D01*
X231212411Y-52270940D01*
X231174654Y-52244333D01*
X231171485Y-52242228D01*
X231073900Y-52164114D01*
X230995214Y-52072982D01*
X230936109Y-51971745D01*
X230897268Y-51863318D01*
X230879372Y-51750614D01*
X230883103Y-51636548D01*
X230909143Y-51524034D01*
X230958175Y-51415985D01*
X230972600Y-51392345D01*
X231047631Y-51296887D01*
X231136270Y-51220232D01*
X231235451Y-51162780D01*
X231342105Y-51124929D01*
X231453164Y-51107078D01*
X231565561Y-51109625D01*
X231676227Y-51132970D01*
X231782094Y-51177510D01*
X231880095Y-51243645D01*
X231910410Y-51270487D01*
X231987562Y-51354512D01*
X232043782Y-51442966D01*
X232082347Y-51542115D01*
X232103826Y-51640303D01*
X232109128Y-51750697D01*
X232091448Y-51861640D01*
X232052581Y-51969381D01*
X231994323Y-52070169D01*
X231918469Y-52160256D01*
X231826817Y-52235892D01*
X231814772Y-52243864D01*
X231776611Y-52269974D01*
X231747601Y-52292595D01*
X231733732Y-52307039D01*
X231733531Y-52307496D01*
X231736508Y-52323121D01*
X231748311Y-52358582D01*
X231767714Y-52410962D01*
X231793488Y-52477345D01*
X231824409Y-52554814D01*
X231859249Y-52640450D01*
X231896783Y-52731337D01*
X231935783Y-52824559D01*
X231975023Y-52917197D01*
X232013276Y-53006335D01*
X232049317Y-53089055D01*
X232081917Y-53162441D01*
X232109852Y-53223575D01*
X232131895Y-53269541D01*
X232146818Y-53297421D01*
X232152828Y-53304743D01*
X232171191Y-53299041D01*
X232205552Y-53283749D01*
X232249984Y-53261599D01*
X232274417Y-53248650D01*
X232378178Y-53192547D01*
X232501787Y-53276155D01*
X232564886Y-53318987D01*
X232633970Y-53366122D01*
X232698707Y-53410503D01*
X232731134Y-53432852D01*
X232776741Y-53463477D01*
X232815360Y-53487747D01*
X232841952Y-53502587D01*
X232850590Y-53505724D01*
X232863161Y-53497261D01*
X232890984Y-53473636D01*
X232931361Y-53437302D01*
X232981595Y-53390711D01*
X233038988Y-53336317D01*
X233075286Y-53301392D01*
X233138790Y-53238996D01*
X233193673Y-53183188D01*
X233237714Y-53136354D01*
X233268695Y-53100882D01*
X233284398Y-53079161D01*
X233285905Y-53074752D01*
X233278914Y-53057985D01*
X233259594Y-53024082D01*
X233230091Y-52976476D01*
X233192545Y-52918599D01*
X233149100Y-52853884D01*
X233136745Y-52835842D01*
X233091727Y-52770267D01*
X233051340Y-52711228D01*
X233017840Y-52662042D01*
X232993486Y-52626028D01*
X232980536Y-52606502D01*
X232979285Y-52604483D01*
X232981156Y-52588922D01*
X232991087Y-52554709D01*
X233007347Y-52506355D01*
X233028205Y-52448371D01*
X233051927Y-52385270D01*
X233076784Y-52321563D01*
X233101042Y-52261761D01*
X233122971Y-52210376D01*
X233140838Y-52171919D01*
X233152913Y-52150902D01*
X233153771Y-52149894D01*
X233161154Y-52143888D01*
X233173625Y-52137948D01*
X233193920Y-52131460D01*
X233224778Y-52123809D01*
X233268934Y-52114380D01*
X233329126Y-52102559D01*
X233408093Y-52087729D01*
X233508570Y-52069277D01*
X233530325Y-52065310D01*
X233594802Y-52052853D01*
X233651011Y-52040666D01*
X233693987Y-52029926D01*
X233718760Y-52021809D01*
X233722082Y-52019916D01*
X233727556Y-52003138D01*
X233732006Y-51965645D01*
X233735428Y-51911794D01*
X233737819Y-51845944D01*
X233739177Y-51772453D01*
X233739499Y-51695680D01*
X233738781Y-51619983D01*
X233737021Y-51549720D01*
X233734216Y-51489250D01*
X233730362Y-51442930D01*
X233725457Y-51415119D01*
X233722500Y-51409427D01*
X233706037Y-51403686D01*
X233668551Y-51394345D01*
X233613775Y-51382215D01*
X233545445Y-51368107D01*
X233467294Y-51352830D01*
X233424716Y-51344823D01*
X233343929Y-51329721D01*
X233271887Y-51316040D01*
X233212111Y-51304467D01*
X233168121Y-51295687D01*
X233143439Y-51290387D01*
X233139377Y-51289212D01*
X233132511Y-51275965D01*
X233117998Y-51244057D01*
X233097771Y-51198047D01*
X233073766Y-51142492D01*
X233047918Y-51081953D01*
X233022160Y-51020986D01*
X232998427Y-50964151D01*
X232978654Y-50916006D01*
X232964776Y-50881110D01*
X232958726Y-50864021D01*
X232958614Y-50863274D01*
X232965472Y-50849793D01*
X232984698Y-50818770D01*
X233014272Y-50773289D01*
X233052173Y-50716432D01*
X233096380Y-50651283D01*
X233122079Y-50613862D01*
X233168907Y-50545247D01*
X233210499Y-50482952D01*
X233244825Y-50430129D01*
X233269857Y-50389927D01*
X233283565Y-50365500D01*
X233285544Y-50360024D01*
X233277034Y-50347278D01*
X233253507Y-50320063D01*
X233217968Y-50281428D01*
X233173423Y-50234423D01*
X233122877Y-50182095D01*
X233069336Y-50127495D01*
X233015805Y-50073670D01*
X232965289Y-50023670D01*
X232920794Y-49980543D01*
X232885325Y-49947339D01*
X232861887Y-49927106D01*
X232854046Y-49922278D01*
X232841280Y-49929067D01*
X232810744Y-49948142D01*
X232765410Y-49977561D01*
X232708244Y-50015381D01*
X232642216Y-50059661D01*
X232592410Y-50093395D01*
X232340764Y-50264512D01*
X232131001Y-50178041D01*
X231921237Y-50091570D01*
X231864389Y-49790018D01*
X231807540Y-49488466D01*
X231179885Y-49488466D01*
X231123036Y-49790018D01*
G37*
X231123036Y-49790018D02*
X231066188Y-50091570D01*
X230646662Y-50264512D01*
X230395016Y-50093395D01*
X230324542Y-50045750D01*
X230260837Y-50003210D01*
X230206874Y-49967715D01*
X230165627Y-49941210D01*
X230140066Y-49925636D01*
X230133105Y-49922278D01*
X230120565Y-49930914D01*
X230093769Y-49954792D01*
X230055720Y-49990859D01*
X230009421Y-50036067D01*
X229957877Y-50087364D01*
X229904091Y-50141701D01*
X229851065Y-50196028D01*
X229801805Y-50247295D01*
X229759313Y-50292451D01*
X229726593Y-50328446D01*
X229706649Y-50352230D01*
X229701881Y-50360190D01*
X229708743Y-50374865D01*
X229727980Y-50407014D01*
X229757570Y-50453492D01*
X229795490Y-50511156D01*
X229839718Y-50576860D01*
X229865346Y-50614336D01*
X229912059Y-50682768D01*
X229953568Y-50744520D01*
X229987860Y-50796519D01*
X230012920Y-50835692D01*
X230026736Y-50858965D01*
X230028812Y-50863855D01*
X230024105Y-50877755D01*
X230011277Y-50910150D01*
X229992262Y-50956485D01*
X229968997Y-51012206D01*
X229943416Y-51072758D01*
X229917455Y-51133586D01*
X229893050Y-51190136D01*
X229872137Y-51237852D01*
X229856651Y-51272181D01*
X229848528Y-51288568D01*
X229848048Y-51289212D01*
X229835293Y-51292341D01*
X229801323Y-51299321D01*
X229749660Y-51309467D01*
X229683824Y-51322092D01*
X229607336Y-51336509D01*
X229562710Y-51344823D01*
X229480979Y-51360384D01*
X229407157Y-51375192D01*
X229344979Y-51388436D01*
X229298178Y-51399305D01*
X229270491Y-51406989D01*
X229264926Y-51409427D01*
X229259474Y-51425930D01*
X229255076Y-51463200D01*
X229251728Y-51516880D01*
X229249426Y-51582612D01*
X229248168Y-51656037D01*
X229247952Y-51732796D01*
X229248773Y-51808532D01*
X229250629Y-51878886D01*
X229253518Y-51939500D01*
X229257435Y-51986016D01*
X229262378Y-52014075D01*
X229265343Y-52019916D01*
X229283066Y-52026917D01*
X229320619Y-52036927D01*
X229373036Y-52048769D01*
X229435348Y-52061267D01*
X229457100Y-52065310D01*
X229561976Y-52084520D01*
X229644820Y-52099991D01*
X229708370Y-52112337D01*
X229755363Y-52122173D01*
X229788537Y-52130114D01*
X229810629Y-52136776D01*
X229824376Y-52142773D01*
X229832516Y-52148719D01*
X229833655Y-52149894D01*
X229845023Y-52168826D01*
X229862365Y-52205669D01*
X229883950Y-52255913D01*
X229908046Y-52315046D01*
X229932921Y-52378556D01*
X229956843Y-52441932D01*
X229978081Y-52500662D01*
X229994903Y-52550235D01*
X230005578Y-52586139D01*
X230008373Y-52603862D01*
X230008140Y-52604483D01*
X229998669Y-52618970D01*
X229977182Y-52650844D01*
X229945937Y-52696789D01*
X229907193Y-52753485D01*
X229863207Y-52817617D01*
X229850681Y-52835842D01*
X229806016Y-52901914D01*
X229766712Y-52962200D01*
X229734912Y-53013235D01*
X229712755Y-53051560D01*
X229702383Y-53073711D01*
X229701881Y-53076432D01*
X229710595Y-53090736D01*
X229734675Y-53119072D01*
X229771024Y-53158396D01*
X229816547Y-53205661D01*
X229868148Y-53257823D01*
X229922733Y-53311835D01*
X229977206Y-53364653D01*
X230028471Y-53413231D01*
X230073433Y-53454523D01*
X230108996Y-53485485D01*
X230132065Y-53503070D01*
X230138446Y-53505941D01*
X230153301Y-53499178D01*
X230183714Y-53480939D01*
X230224732Y-53454297D01*
X230256291Y-53432852D01*
X230313475Y-53393503D01*
X230381194Y-53347171D01*
X230449120Y-53300913D01*
X230485639Y-53276155D01*
X230609248Y-53192547D01*
X230713009Y-53248650D01*
X230760280Y-53273228D01*
X230800477Y-53292331D01*
X230827674Y-53303227D01*
X230834598Y-53304743D01*
X230842923Y-53293549D01*
X230859346Y-53261917D01*
X230882643Y-53212765D01*
X230911586Y-53149010D01*
X230944950Y-53073571D01*
X230981509Y-52989364D01*
X231020036Y-52899308D01*
X231059306Y-52806321D01*
X231098092Y-52713320D01*
X231135170Y-52623223D01*
X231169311Y-52538948D01*
X231199292Y-52463413D01*
X231223884Y-52399534D01*
X231241864Y-52350231D01*
X231252003Y-52318421D01*
X231253634Y-52307496D01*
X231240709Y-52293561D01*
X231212411Y-52270940D01*
X231174654Y-52244333D01*
X231171485Y-52242228D01*
X231073900Y-52164114D01*
X230995214Y-52072982D01*
X230936109Y-51971745D01*
X230897268Y-51863318D01*
X230879372Y-51750614D01*
X230883103Y-51636548D01*
X230909143Y-51524034D01*
X230958175Y-51415985D01*
X230972600Y-51392345D01*
X231047631Y-51296887D01*
X231136270Y-51220232D01*
X231235451Y-51162780D01*
X231342105Y-51124929D01*
X231453164Y-51107078D01*
X231565561Y-51109625D01*
X231676227Y-51132970D01*
X231782094Y-51177510D01*
X231880095Y-51243645D01*
X231910410Y-51270487D01*
X231987562Y-51354512D01*
X232043782Y-51442966D01*
X232082347Y-51542115D01*
X232103826Y-51640303D01*
X232109128Y-51750697D01*
X232091448Y-51861640D01*
X232052581Y-51969381D01*
X231994323Y-52070169D01*
X231918469Y-52160256D01*
X231826817Y-52235892D01*
X231814772Y-52243864D01*
X231776611Y-52269974D01*
X231747601Y-52292595D01*
X231733732Y-52307039D01*
X231733531Y-52307496D01*
X231736508Y-52323121D01*
X231748311Y-52358582D01*
X231767714Y-52410962D01*
X231793488Y-52477345D01*
X231824409Y-52554814D01*
X231859249Y-52640450D01*
X231896783Y-52731337D01*
X231935783Y-52824559D01*
X231975023Y-52917197D01*
X232013276Y-53006335D01*
X232049317Y-53089055D01*
X232081917Y-53162441D01*
X232109852Y-53223575D01*
X232131895Y-53269541D01*
X232146818Y-53297421D01*
X232152828Y-53304743D01*
X232171191Y-53299041D01*
X232205552Y-53283749D01*
X232249984Y-53261599D01*
X232274417Y-53248650D01*
X232378178Y-53192547D01*
X232501787Y-53276155D01*
X232564886Y-53318987D01*
X232633970Y-53366122D01*
X232698707Y-53410503D01*
X232731134Y-53432852D01*
X232776741Y-53463477D01*
X232815360Y-53487747D01*
X232841952Y-53502587D01*
X232850590Y-53505724D01*
X232863161Y-53497261D01*
X232890984Y-53473636D01*
X232931361Y-53437302D01*
X232981595Y-53390711D01*
X233038988Y-53336317D01*
X233075286Y-53301392D01*
X233138790Y-53238996D01*
X233193673Y-53183188D01*
X233237714Y-53136354D01*
X233268695Y-53100882D01*
X233284398Y-53079161D01*
X233285905Y-53074752D01*
X233278914Y-53057985D01*
X233259594Y-53024082D01*
X233230091Y-52976476D01*
X233192545Y-52918599D01*
X233149100Y-52853884D01*
X233136745Y-52835842D01*
X233091727Y-52770267D01*
X233051340Y-52711228D01*
X233017840Y-52662042D01*
X232993486Y-52626028D01*
X232980536Y-52606502D01*
X232979285Y-52604483D01*
X232981156Y-52588922D01*
X232991087Y-52554709D01*
X233007347Y-52506355D01*
X233028205Y-52448371D01*
X233051927Y-52385270D01*
X233076784Y-52321563D01*
X233101042Y-52261761D01*
X233122971Y-52210376D01*
X233140838Y-52171919D01*
X233152913Y-52150902D01*
X233153771Y-52149894D01*
X233161154Y-52143888D01*
X233173625Y-52137948D01*
X233193920Y-52131460D01*
X233224778Y-52123809D01*
X233268934Y-52114380D01*
X233329126Y-52102559D01*
X233408093Y-52087729D01*
X233508570Y-52069277D01*
X233530325Y-52065310D01*
X233594802Y-52052853D01*
X233651011Y-52040666D01*
X233693987Y-52029926D01*
X233718760Y-52021809D01*
X233722082Y-52019916D01*
X233727556Y-52003138D01*
X233732006Y-51965645D01*
X233735428Y-51911794D01*
X233737819Y-51845944D01*
X233739177Y-51772453D01*
X233739499Y-51695680D01*
X233738781Y-51619983D01*
X233737021Y-51549720D01*
X233734216Y-51489250D01*
X233730362Y-51442930D01*
X233725457Y-51415119D01*
X233722500Y-51409427D01*
X233706037Y-51403686D01*
X233668551Y-51394345D01*
X233613775Y-51382215D01*
X233545445Y-51368107D01*
X233467294Y-51352830D01*
X233424716Y-51344823D01*
X233343929Y-51329721D01*
X233271887Y-51316040D01*
X233212111Y-51304467D01*
X233168121Y-51295687D01*
X233143439Y-51290387D01*
X233139377Y-51289212D01*
X233132511Y-51275965D01*
X233117998Y-51244057D01*
X233097771Y-51198047D01*
X233073766Y-51142492D01*
X233047918Y-51081953D01*
X233022160Y-51020986D01*
X232998427Y-50964151D01*
X232978654Y-50916006D01*
X232964776Y-50881110D01*
X232958726Y-50864021D01*
X232958614Y-50863274D01*
X232965472Y-50849793D01*
X232984698Y-50818770D01*
X233014272Y-50773289D01*
X233052173Y-50716432D01*
X233096380Y-50651283D01*
X233122079Y-50613862D01*
X233168907Y-50545247D01*
X233210499Y-50482952D01*
X233244825Y-50430129D01*
X233269857Y-50389927D01*
X233283565Y-50365500D01*
X233285544Y-50360024D01*
X233277034Y-50347278D01*
X233253507Y-50320063D01*
X233217968Y-50281428D01*
X233173423Y-50234423D01*
X233122877Y-50182095D01*
X233069336Y-50127495D01*
X233015805Y-50073670D01*
X232965289Y-50023670D01*
X232920794Y-49980543D01*
X232885325Y-49947339D01*
X232861887Y-49927106D01*
X232854046Y-49922278D01*
X232841280Y-49929067D01*
X232810744Y-49948142D01*
X232765410Y-49977561D01*
X232708244Y-50015381D01*
X232642216Y-50059661D01*
X232592410Y-50093395D01*
X232340764Y-50264512D01*
X232131001Y-50178041D01*
X231921237Y-50091570D01*
X231864389Y-49790018D01*
X231807540Y-49488466D01*
X231179885Y-49488466D01*
X231123036Y-49790018D01*
M02*
