G04 #@! TF.GenerationSoftware,KiCad,Pcbnew,5.1.7*
G04 #@! TF.CreationDate,2020-10-15T00:22:55+02:00*
G04 #@! TF.ProjectId,RF_frequency_modulator,52465f66-7265-4717-9565-6e63795f6d6f,1.2*
G04 #@! TF.SameCoordinates,Original*
G04 #@! TF.FileFunction,Legend,Bot*
G04 #@! TF.FilePolarity,Positive*
%FSLAX46Y46*%
G04 Gerber Fmt 4.6, Leading zero omitted, Abs format (unit mm)*
G04 Created by KiCad (PCBNEW 5.1.7) date 2020-10-15 00:22:55*
%MOMM*%
%LPD*%
G01*
G04 APERTURE LIST*
%ADD10C,0.250000*%
%ADD11C,0.010000*%
G04 APERTURE END LIST*
D10*
X223980357Y-50928571D02*
X223980357Y-49428571D01*
X223623214Y-49428571D01*
X223408928Y-49500000D01*
X223266071Y-49642857D01*
X223194642Y-49785714D01*
X223123214Y-50071428D01*
X223123214Y-50285714D01*
X223194642Y-50571428D01*
X223266071Y-50714285D01*
X223408928Y-50857142D01*
X223623214Y-50928571D01*
X223980357Y-50928571D01*
X221908928Y-50857142D02*
X222051785Y-50928571D01*
X222337500Y-50928571D01*
X222480357Y-50857142D01*
X222551785Y-50714285D01*
X222551785Y-50142857D01*
X222480357Y-50000000D01*
X222337500Y-49928571D01*
X222051785Y-49928571D01*
X221908928Y-50000000D01*
X221837500Y-50142857D01*
X221837500Y-50285714D01*
X222551785Y-50428571D01*
X221266071Y-50857142D02*
X221123214Y-50928571D01*
X220837500Y-50928571D01*
X220694642Y-50857142D01*
X220623214Y-50714285D01*
X220623214Y-50642857D01*
X220694642Y-50500000D01*
X220837500Y-50428571D01*
X221051785Y-50428571D01*
X221194642Y-50357142D01*
X221266071Y-50214285D01*
X221266071Y-50142857D01*
X221194642Y-50000000D01*
X221051785Y-49928571D01*
X220837500Y-49928571D01*
X220694642Y-50000000D01*
X219980357Y-50928571D02*
X219980357Y-49928571D01*
X219980357Y-49428571D02*
X220051785Y-49500000D01*
X219980357Y-49571428D01*
X219908928Y-49500000D01*
X219980357Y-49428571D01*
X219980357Y-49571428D01*
X218623214Y-49928571D02*
X218623214Y-51142857D01*
X218694642Y-51285714D01*
X218766071Y-51357142D01*
X218908928Y-51428571D01*
X219123214Y-51428571D01*
X219266071Y-51357142D01*
X218623214Y-50857142D02*
X218766071Y-50928571D01*
X219051785Y-50928571D01*
X219194642Y-50857142D01*
X219266071Y-50785714D01*
X219337500Y-50642857D01*
X219337500Y-50214285D01*
X219266071Y-50071428D01*
X219194642Y-50000000D01*
X219051785Y-49928571D01*
X218766071Y-49928571D01*
X218623214Y-50000000D01*
X217908928Y-49928571D02*
X217908928Y-50928571D01*
X217908928Y-50071428D02*
X217837500Y-50000000D01*
X217694642Y-49928571D01*
X217480357Y-49928571D01*
X217337500Y-50000000D01*
X217266071Y-50142857D01*
X217266071Y-50928571D01*
X215408928Y-50928571D02*
X215408928Y-49428571D01*
X215408928Y-50000000D02*
X215266071Y-49928571D01*
X214980357Y-49928571D01*
X214837500Y-50000000D01*
X214766071Y-50071428D01*
X214694642Y-50214285D01*
X214694642Y-50642857D01*
X214766071Y-50785714D01*
X214837500Y-50857142D01*
X214980357Y-50928571D01*
X215266071Y-50928571D01*
X215408928Y-50857142D01*
X214194642Y-49928571D02*
X213837500Y-50928571D01*
X213480357Y-49928571D02*
X213837500Y-50928571D01*
X213980357Y-51285714D01*
X214051785Y-51357142D01*
X214194642Y-51428571D01*
X212908928Y-50785714D02*
X212837500Y-50857142D01*
X212908928Y-50928571D01*
X212980357Y-50857142D01*
X212908928Y-50785714D01*
X212908928Y-50928571D01*
X212908928Y-50000000D02*
X212837500Y-50071428D01*
X212908928Y-50142857D01*
X212980357Y-50071428D01*
X212908928Y-50000000D01*
X212908928Y-50142857D01*
X211266071Y-49428571D02*
X210408928Y-49428571D01*
X210837500Y-50928571D02*
X210837500Y-49428571D01*
X209908928Y-50928571D02*
X209908928Y-49928571D01*
X209908928Y-49428571D02*
X209980357Y-49500000D01*
X209908928Y-49571428D01*
X209837500Y-49500000D01*
X209908928Y-49428571D01*
X209908928Y-49571428D01*
X208980357Y-50928571D02*
X209123214Y-50857142D01*
X209194642Y-50714285D01*
X209194642Y-49428571D01*
X208408928Y-50928571D02*
X208408928Y-49928571D01*
X208408928Y-50071428D02*
X208337500Y-50000000D01*
X208194642Y-49928571D01*
X207980357Y-49928571D01*
X207837500Y-50000000D01*
X207766071Y-50142857D01*
X207766071Y-50928571D01*
X207766071Y-50142857D02*
X207694642Y-50000000D01*
X207551785Y-49928571D01*
X207337500Y-49928571D01*
X207194642Y-50000000D01*
X207123214Y-50142857D01*
X207123214Y-50928571D01*
X205766071Y-50928571D02*
X205766071Y-50142857D01*
X205837500Y-50000000D01*
X205980357Y-49928571D01*
X206266071Y-49928571D01*
X206408928Y-50000000D01*
X205766071Y-50857142D02*
X205908928Y-50928571D01*
X206266071Y-50928571D01*
X206408928Y-50857142D01*
X206480357Y-50714285D01*
X206480357Y-50571428D01*
X206408928Y-50428571D01*
X206266071Y-50357142D01*
X205908928Y-50357142D01*
X205766071Y-50285714D01*
X205051785Y-49928571D02*
X205051785Y-50928571D01*
X205051785Y-50071428D02*
X204980357Y-50000000D01*
X204837500Y-49928571D01*
X204623214Y-49928571D01*
X204480357Y-50000000D01*
X204408928Y-50142857D01*
X204408928Y-50928571D01*
X202551785Y-50928571D02*
X202551785Y-49428571D01*
X201980357Y-49428571D01*
X201837500Y-49500000D01*
X201766071Y-49571428D01*
X201694642Y-49714285D01*
X201694642Y-49928571D01*
X201766071Y-50071428D01*
X201837500Y-50142857D01*
X201980357Y-50214285D01*
X202551785Y-50214285D01*
X201051785Y-50928571D02*
X201051785Y-49928571D01*
X201051785Y-50214285D02*
X200980357Y-50071428D01*
X200908928Y-50000000D01*
X200766071Y-49928571D01*
X200623214Y-49928571D01*
X199551785Y-50857142D02*
X199694642Y-50928571D01*
X199980357Y-50928571D01*
X200123214Y-50857142D01*
X200194642Y-50714285D01*
X200194642Y-50142857D01*
X200123214Y-50000000D01*
X199980357Y-49928571D01*
X199694642Y-49928571D01*
X199551785Y-50000000D01*
X199480357Y-50142857D01*
X199480357Y-50285714D01*
X200194642Y-50428571D01*
X198194642Y-49928571D02*
X198194642Y-50928571D01*
X198837500Y-49928571D02*
X198837500Y-50714285D01*
X198766071Y-50857142D01*
X198623214Y-50928571D01*
X198408928Y-50928571D01*
X198266071Y-50857142D01*
X198194642Y-50785714D01*
X197551785Y-50857142D02*
X197408928Y-50928571D01*
X197123214Y-50928571D01*
X196980357Y-50857142D01*
X196908928Y-50714285D01*
X196908928Y-50642857D01*
X196980357Y-50500000D01*
X197123214Y-50428571D01*
X197337500Y-50428571D01*
X197480357Y-50357142D01*
X197551785Y-50214285D01*
X197551785Y-50142857D01*
X197480357Y-50000000D01*
X197337500Y-49928571D01*
X197123214Y-49928571D01*
X196980357Y-50000000D01*
X195623214Y-50857142D02*
X195766071Y-50928571D01*
X196051785Y-50928571D01*
X196194642Y-50857142D01*
X196266071Y-50785714D01*
X196337500Y-50642857D01*
X196337500Y-50214285D01*
X196266071Y-50071428D01*
X196194642Y-50000000D01*
X196051785Y-49928571D01*
X195766071Y-49928571D01*
X195623214Y-50000000D01*
X194980357Y-50928571D02*
X194980357Y-49428571D01*
X194337500Y-50928571D02*
X194337500Y-50142857D01*
X194408928Y-50000000D01*
X194551785Y-49928571D01*
X194766071Y-49928571D01*
X194908928Y-50000000D01*
X194980357Y-50071428D01*
X193408928Y-50928571D02*
X193551785Y-50857142D01*
X193623214Y-50785714D01*
X193694642Y-50642857D01*
X193694642Y-50214285D01*
X193623214Y-50071428D01*
X193551785Y-50000000D01*
X193408928Y-49928571D01*
X193194642Y-49928571D01*
X193051785Y-50000000D01*
X192980357Y-50071428D01*
X192908928Y-50214285D01*
X192908928Y-50642857D01*
X192980357Y-50785714D01*
X193051785Y-50857142D01*
X193194642Y-50928571D01*
X193408928Y-50928571D01*
X192480357Y-49928571D02*
X191908928Y-49928571D01*
X192266071Y-50928571D02*
X192266071Y-49642857D01*
X192194642Y-49500000D01*
X192051785Y-49428571D01*
X191908928Y-49428571D01*
X191623214Y-49928571D02*
X191051785Y-49928571D01*
X191408928Y-50928571D02*
X191408928Y-49642857D01*
X191337500Y-49500000D01*
X191194642Y-49428571D01*
X191051785Y-49428571D01*
X223980357Y-53428571D02*
X223980357Y-51928571D01*
X223337500Y-53428571D02*
X223337500Y-52642857D01*
X223408928Y-52500000D01*
X223551785Y-52428571D01*
X223766071Y-52428571D01*
X223908928Y-52500000D01*
X223980357Y-52571428D01*
X222837500Y-52428571D02*
X222266071Y-52428571D01*
X222623214Y-51928571D02*
X222623214Y-53214285D01*
X222551785Y-53357142D01*
X222408928Y-53428571D01*
X222266071Y-53428571D01*
X221980357Y-52428571D02*
X221408928Y-52428571D01*
X221766071Y-51928571D02*
X221766071Y-53214285D01*
X221694642Y-53357142D01*
X221551785Y-53428571D01*
X221408928Y-53428571D01*
X220908928Y-52428571D02*
X220908928Y-53928571D01*
X220908928Y-52500000D02*
X220766071Y-52428571D01*
X220480357Y-52428571D01*
X220337500Y-52500000D01*
X220266071Y-52571428D01*
X220194642Y-52714285D01*
X220194642Y-53142857D01*
X220266071Y-53285714D01*
X220337500Y-53357142D01*
X220480357Y-53428571D01*
X220766071Y-53428571D01*
X220908928Y-53357142D01*
X219623214Y-53357142D02*
X219480357Y-53428571D01*
X219194642Y-53428571D01*
X219051785Y-53357142D01*
X218980357Y-53214285D01*
X218980357Y-53142857D01*
X219051785Y-53000000D01*
X219194642Y-52928571D01*
X219408928Y-52928571D01*
X219551785Y-52857142D01*
X219623214Y-52714285D01*
X219623214Y-52642857D01*
X219551785Y-52500000D01*
X219408928Y-52428571D01*
X219194642Y-52428571D01*
X219051785Y-52500000D01*
X218337500Y-53285714D02*
X218266071Y-53357142D01*
X218337500Y-53428571D01*
X218408928Y-53357142D01*
X218337500Y-53285714D01*
X218337500Y-53428571D01*
X218337500Y-52500000D02*
X218266071Y-52571428D01*
X218337500Y-52642857D01*
X218408928Y-52571428D01*
X218337500Y-52500000D01*
X218337500Y-52642857D01*
X216551785Y-51857142D02*
X217837500Y-53785714D01*
X214980357Y-51857142D02*
X216266071Y-53785714D01*
X213837500Y-52428571D02*
X213837500Y-53642857D01*
X213908928Y-53785714D01*
X213980357Y-53857142D01*
X214123214Y-53928571D01*
X214337500Y-53928571D01*
X214480357Y-53857142D01*
X213837500Y-53357142D02*
X213980357Y-53428571D01*
X214266071Y-53428571D01*
X214408928Y-53357142D01*
X214480357Y-53285714D01*
X214551785Y-53142857D01*
X214551785Y-52714285D01*
X214480357Y-52571428D01*
X214408928Y-52500000D01*
X214266071Y-52428571D01*
X213980357Y-52428571D01*
X213837500Y-52500000D01*
X213123214Y-53428571D02*
X213123214Y-52428571D01*
X213123214Y-51928571D02*
X213194642Y-52000000D01*
X213123214Y-52071428D01*
X213051785Y-52000000D01*
X213123214Y-51928571D01*
X213123214Y-52071428D01*
X212623214Y-52428571D02*
X212051785Y-52428571D01*
X212408928Y-51928571D02*
X212408928Y-53214285D01*
X212337500Y-53357142D01*
X212194642Y-53428571D01*
X212051785Y-53428571D01*
X211551785Y-53428571D02*
X211551785Y-51928571D01*
X210908928Y-53428571D02*
X210908928Y-52642857D01*
X210980357Y-52500000D01*
X211123214Y-52428571D01*
X211337500Y-52428571D01*
X211480357Y-52500000D01*
X211551785Y-52571428D01*
X209551785Y-52428571D02*
X209551785Y-53428571D01*
X210194642Y-52428571D02*
X210194642Y-53214285D01*
X210123214Y-53357142D01*
X209980357Y-53428571D01*
X209766071Y-53428571D01*
X209623214Y-53357142D01*
X209551785Y-53285714D01*
X208837500Y-53428571D02*
X208837500Y-51928571D01*
X208837500Y-52500000D02*
X208694642Y-52428571D01*
X208408928Y-52428571D01*
X208266071Y-52500000D01*
X208194642Y-52571428D01*
X208123214Y-52714285D01*
X208123214Y-53142857D01*
X208194642Y-53285714D01*
X208266071Y-53357142D01*
X208408928Y-53428571D01*
X208694642Y-53428571D01*
X208837500Y-53357142D01*
X207480357Y-53285714D02*
X207408928Y-53357142D01*
X207480357Y-53428571D01*
X207551785Y-53357142D01*
X207480357Y-53285714D01*
X207480357Y-53428571D01*
X206123214Y-53357142D02*
X206266071Y-53428571D01*
X206551785Y-53428571D01*
X206694642Y-53357142D01*
X206766071Y-53285714D01*
X206837500Y-53142857D01*
X206837500Y-52714285D01*
X206766071Y-52571428D01*
X206694642Y-52500000D01*
X206551785Y-52428571D01*
X206266071Y-52428571D01*
X206123214Y-52500000D01*
X205266071Y-53428571D02*
X205408928Y-53357142D01*
X205480357Y-53285714D01*
X205551785Y-53142857D01*
X205551785Y-52714285D01*
X205480357Y-52571428D01*
X205408928Y-52500000D01*
X205266071Y-52428571D01*
X205051785Y-52428571D01*
X204908928Y-52500000D01*
X204837500Y-52571428D01*
X204766071Y-52714285D01*
X204766071Y-53142857D01*
X204837500Y-53285714D01*
X204908928Y-53357142D01*
X205051785Y-53428571D01*
X205266071Y-53428571D01*
X204123214Y-53428571D02*
X204123214Y-52428571D01*
X204123214Y-52571428D02*
X204051785Y-52500000D01*
X203908928Y-52428571D01*
X203694642Y-52428571D01*
X203551785Y-52500000D01*
X203480357Y-52642857D01*
X203480357Y-53428571D01*
X203480357Y-52642857D02*
X203408928Y-52500000D01*
X203266071Y-52428571D01*
X203051785Y-52428571D01*
X202908928Y-52500000D01*
X202837500Y-52642857D01*
X202837500Y-53428571D01*
X201051785Y-51857142D02*
X202337500Y-53785714D01*
X200766071Y-51928571D02*
X199908928Y-51928571D01*
X200337500Y-53428571D02*
X200337500Y-51928571D01*
X199408928Y-51928571D02*
X199408928Y-53142857D01*
X199337500Y-53285714D01*
X199266071Y-53357142D01*
X199123214Y-53428571D01*
X198837500Y-53428571D01*
X198694642Y-53357142D01*
X198623214Y-53285714D01*
X198551785Y-53142857D01*
X198551785Y-51928571D01*
X197837500Y-52857142D02*
X196694642Y-52857142D01*
X195980357Y-53428571D02*
X195980357Y-51928571D01*
X195623214Y-51928571D01*
X195408928Y-52000000D01*
X195266071Y-52142857D01*
X195194642Y-52285714D01*
X195123214Y-52571428D01*
X195123214Y-52785714D01*
X195194642Y-53071428D01*
X195266071Y-53214285D01*
X195408928Y-53357142D01*
X195623214Y-53428571D01*
X195980357Y-53428571D01*
X193837500Y-53428571D02*
X193837500Y-52642857D01*
X193908928Y-52500000D01*
X194051785Y-52428571D01*
X194337500Y-52428571D01*
X194480357Y-52500000D01*
X193837500Y-53357142D02*
X193980357Y-53428571D01*
X194337500Y-53428571D01*
X194480357Y-53357142D01*
X194551785Y-53214285D01*
X194551785Y-53071428D01*
X194480357Y-52928571D01*
X194337500Y-52857142D01*
X193980357Y-52857142D01*
X193837500Y-52785714D01*
X193123214Y-53428571D02*
X193123214Y-52428571D01*
X193123214Y-52714285D02*
X193051785Y-52571428D01*
X192980357Y-52500000D01*
X192837500Y-52428571D01*
X192694642Y-52428571D01*
X192194642Y-53428571D02*
X192194642Y-52428571D01*
X192194642Y-52571428D02*
X192123214Y-52500000D01*
X191980357Y-52428571D01*
X191766071Y-52428571D01*
X191623214Y-52500000D01*
X191551785Y-52642857D01*
X191551785Y-53428571D01*
X191551785Y-52642857D02*
X191480357Y-52500000D01*
X191337500Y-52428571D01*
X191123214Y-52428571D01*
X190980357Y-52500000D01*
X190908928Y-52642857D01*
X190908928Y-53428571D01*
X190266071Y-53357142D02*
X190123214Y-53428571D01*
X189837500Y-53428571D01*
X189694642Y-53357142D01*
X189623214Y-53214285D01*
X189623214Y-53142857D01*
X189694642Y-53000000D01*
X189837500Y-52928571D01*
X190051785Y-52928571D01*
X190194642Y-52857142D01*
X190266071Y-52714285D01*
X190266071Y-52642857D01*
X190194642Y-52500000D01*
X190051785Y-52428571D01*
X189837500Y-52428571D01*
X189694642Y-52500000D01*
X189194642Y-52428571D02*
X188623214Y-52428571D01*
X188980357Y-51928571D02*
X188980357Y-53214285D01*
X188908928Y-53357142D01*
X188766071Y-53428571D01*
X188623214Y-53428571D01*
X187480357Y-53428571D02*
X187480357Y-52642857D01*
X187551785Y-52500000D01*
X187694642Y-52428571D01*
X187980357Y-52428571D01*
X188123214Y-52500000D01*
X187480357Y-53357142D02*
X187623214Y-53428571D01*
X187980357Y-53428571D01*
X188123214Y-53357142D01*
X188194642Y-53214285D01*
X188194642Y-53071428D01*
X188123214Y-52928571D01*
X187980357Y-52857142D01*
X187623214Y-52857142D01*
X187480357Y-52785714D01*
X186123214Y-53428571D02*
X186123214Y-51928571D01*
X186123214Y-53357142D02*
X186266071Y-53428571D01*
X186551785Y-53428571D01*
X186694642Y-53357142D01*
X186766071Y-53285714D01*
X186837500Y-53142857D01*
X186837500Y-52714285D01*
X186766071Y-52571428D01*
X186694642Y-52500000D01*
X186551785Y-52428571D01*
X186266071Y-52428571D01*
X186123214Y-52500000D01*
X185623214Y-52428571D02*
X185051785Y-52428571D01*
X185408928Y-51928571D02*
X185408928Y-53214285D01*
X185337500Y-53357142D01*
X185194642Y-53428571D01*
X185051785Y-53428571D01*
X184551785Y-52857142D02*
X183408928Y-52857142D01*
X182766071Y-53000000D02*
X182051785Y-53000000D01*
X182908928Y-53428571D02*
X182408928Y-51928571D01*
X181908928Y-53428571D01*
X181408928Y-53428571D02*
X181408928Y-51928571D01*
X180837499Y-51928571D01*
X180694642Y-52000000D01*
X180623214Y-52071428D01*
X180551785Y-52214285D01*
X180551785Y-52428571D01*
X180623214Y-52571428D01*
X180694642Y-52642857D01*
X180837499Y-52714285D01*
X181408928Y-52714285D01*
X178908928Y-53571428D02*
X179051785Y-53500000D01*
X179194642Y-53357142D01*
X179408928Y-53142857D01*
X179551785Y-53071428D01*
X179694642Y-53071428D01*
X179623214Y-53428571D02*
X179766071Y-53357142D01*
X179908928Y-53214285D01*
X179980357Y-52928571D01*
X179980357Y-52428571D01*
X179908928Y-52142857D01*
X179766071Y-52000000D01*
X179623214Y-51928571D01*
X179337499Y-51928571D01*
X179194642Y-52000000D01*
X179051785Y-52142857D01*
X178980357Y-52428571D01*
X178980357Y-52928571D01*
X179051785Y-53214285D01*
X179194642Y-53357142D01*
X179337499Y-53428571D01*
X179623214Y-53428571D01*
X177266071Y-51857142D02*
X178551785Y-53785714D01*
X175908928Y-53428571D02*
X176408928Y-52714285D01*
X176766071Y-53428571D02*
X176766071Y-51928571D01*
X176194642Y-51928571D01*
X176051785Y-52000000D01*
X175980357Y-52071428D01*
X175908928Y-52214285D01*
X175908928Y-52428571D01*
X175980357Y-52571428D01*
X176051785Y-52642857D01*
X176194642Y-52714285D01*
X176766071Y-52714285D01*
X174766071Y-52642857D02*
X175266071Y-52642857D01*
X175266071Y-53428571D02*
X175266071Y-51928571D01*
X174551785Y-51928571D01*
X174337499Y-53571428D02*
X173194642Y-53571428D01*
X173051785Y-52428571D02*
X172480357Y-52428571D01*
X172837499Y-53428571D02*
X172837499Y-52142857D01*
X172766071Y-52000000D01*
X172623214Y-51928571D01*
X172480357Y-51928571D01*
X171980357Y-53428571D02*
X171980357Y-52428571D01*
X171980357Y-52714285D02*
X171908928Y-52571428D01*
X171837499Y-52500000D01*
X171694642Y-52428571D01*
X171551785Y-52428571D01*
X170480357Y-53357142D02*
X170623214Y-53428571D01*
X170908928Y-53428571D01*
X171051785Y-53357142D01*
X171123214Y-53214285D01*
X171123214Y-52642857D01*
X171051785Y-52500000D01*
X170908928Y-52428571D01*
X170623214Y-52428571D01*
X170480357Y-52500000D01*
X170408928Y-52642857D01*
X170408928Y-52785714D01*
X171123214Y-52928571D01*
X169123214Y-52428571D02*
X169123214Y-53928571D01*
X169123214Y-53357142D02*
X169266071Y-53428571D01*
X169551785Y-53428571D01*
X169694642Y-53357142D01*
X169766071Y-53285714D01*
X169837499Y-53142857D01*
X169837499Y-52714285D01*
X169766071Y-52571428D01*
X169694642Y-52500000D01*
X169551785Y-52428571D01*
X169266071Y-52428571D01*
X169123214Y-52500000D01*
X167766071Y-52428571D02*
X167766071Y-53428571D01*
X168408928Y-52428571D02*
X168408928Y-53214285D01*
X168337499Y-53357142D01*
X168194642Y-53428571D01*
X167980357Y-53428571D01*
X167837499Y-53357142D01*
X167766071Y-53285714D01*
X166480357Y-53357142D02*
X166623214Y-53428571D01*
X166908928Y-53428571D01*
X167051785Y-53357142D01*
X167123214Y-53214285D01*
X167123214Y-52642857D01*
X167051785Y-52500000D01*
X166908928Y-52428571D01*
X166623214Y-52428571D01*
X166480357Y-52500000D01*
X166408928Y-52642857D01*
X166408928Y-52785714D01*
X167123214Y-52928571D01*
X165766071Y-52428571D02*
X165766071Y-53428571D01*
X165766071Y-52571428D02*
X165694642Y-52500000D01*
X165551785Y-52428571D01*
X165337499Y-52428571D01*
X165194642Y-52500000D01*
X165123214Y-52642857D01*
X165123214Y-53428571D01*
X163766071Y-53357142D02*
X163908928Y-53428571D01*
X164194642Y-53428571D01*
X164337499Y-53357142D01*
X164408928Y-53285714D01*
X164480357Y-53142857D01*
X164480357Y-52714285D01*
X164408928Y-52571428D01*
X164337499Y-52500000D01*
X164194642Y-52428571D01*
X163908928Y-52428571D01*
X163766071Y-52500000D01*
X163266071Y-52428571D02*
X162908928Y-53428571D01*
X162551785Y-52428571D02*
X162908928Y-53428571D01*
X163051785Y-53785714D01*
X163123214Y-53857142D01*
X163266071Y-53928571D01*
X162337499Y-53571428D02*
X161194642Y-53571428D01*
X160837499Y-53428571D02*
X160837499Y-52428571D01*
X160837499Y-52571428D02*
X160766071Y-52500000D01*
X160623214Y-52428571D01*
X160408928Y-52428571D01*
X160266071Y-52500000D01*
X160194642Y-52642857D01*
X160194642Y-53428571D01*
X160194642Y-52642857D02*
X160123214Y-52500000D01*
X159980357Y-52428571D01*
X159766071Y-52428571D01*
X159623214Y-52500000D01*
X159551785Y-52642857D01*
X159551785Y-53428571D01*
X158623214Y-53428571D02*
X158766071Y-53357142D01*
X158837499Y-53285714D01*
X158908928Y-53142857D01*
X158908928Y-52714285D01*
X158837499Y-52571428D01*
X158766071Y-52500000D01*
X158623214Y-52428571D01*
X158408928Y-52428571D01*
X158266071Y-52500000D01*
X158194642Y-52571428D01*
X158123214Y-52714285D01*
X158123214Y-53142857D01*
X158194642Y-53285714D01*
X158266071Y-53357142D01*
X158408928Y-53428571D01*
X158623214Y-53428571D01*
X156837499Y-53428571D02*
X156837499Y-51928571D01*
X156837499Y-53357142D02*
X156980357Y-53428571D01*
X157266071Y-53428571D01*
X157408928Y-53357142D01*
X157480357Y-53285714D01*
X157551785Y-53142857D01*
X157551785Y-52714285D01*
X157480357Y-52571428D01*
X157408928Y-52500000D01*
X157266071Y-52428571D01*
X156980357Y-52428571D01*
X156837499Y-52500000D01*
X155480357Y-52428571D02*
X155480357Y-53428571D01*
X156123214Y-52428571D02*
X156123214Y-53214285D01*
X156051785Y-53357142D01*
X155908928Y-53428571D01*
X155694642Y-53428571D01*
X155551785Y-53357142D01*
X155480357Y-53285714D01*
X154551785Y-53428571D02*
X154694642Y-53357142D01*
X154766071Y-53214285D01*
X154766071Y-51928571D01*
X153337499Y-53428571D02*
X153337499Y-52642857D01*
X153408928Y-52500000D01*
X153551785Y-52428571D01*
X153837499Y-52428571D01*
X153980357Y-52500000D01*
X153337499Y-53357142D02*
X153480357Y-53428571D01*
X153837499Y-53428571D01*
X153980357Y-53357142D01*
X154051785Y-53214285D01*
X154051785Y-53071428D01*
X153980357Y-52928571D01*
X153837499Y-52857142D01*
X153480357Y-52857142D01*
X153337499Y-52785714D01*
X152837499Y-52428571D02*
X152266071Y-52428571D01*
X152623214Y-51928571D02*
X152623214Y-53214285D01*
X152551785Y-53357142D01*
X152408928Y-53428571D01*
X152266071Y-53428571D01*
X151551785Y-53428571D02*
X151694642Y-53357142D01*
X151766071Y-53285714D01*
X151837499Y-53142857D01*
X151837499Y-52714285D01*
X151766071Y-52571428D01*
X151694642Y-52500000D01*
X151551785Y-52428571D01*
X151337499Y-52428571D01*
X151194642Y-52500000D01*
X151123214Y-52571428D01*
X151051785Y-52714285D01*
X151051785Y-53142857D01*
X151123214Y-53285714D01*
X151194642Y-53357142D01*
X151337499Y-53428571D01*
X151551785Y-53428571D01*
X150408928Y-53428571D02*
X150408928Y-52428571D01*
X150408928Y-52714285D02*
X150337499Y-52571428D01*
X150266071Y-52500000D01*
X150123214Y-52428571D01*
X149980357Y-52428571D01*
D11*
G36*
X231408759Y-51969184D02*
G01*
X231382247Y-51982282D01*
X231349553Y-52005106D01*
X231325725Y-52029996D01*
X231309406Y-52061249D01*
X231299240Y-52103166D01*
X231293872Y-52160044D01*
X231291944Y-52236184D01*
X231291831Y-52268917D01*
X231292161Y-52340656D01*
X231293527Y-52391927D01*
X231296500Y-52427404D01*
X231301649Y-52451763D01*
X231309543Y-52469680D01*
X231317757Y-52481902D01*
X231370187Y-52533905D01*
X231431930Y-52565184D01*
X231498536Y-52574592D01*
X231565558Y-52560980D01*
X231586792Y-52551354D01*
X231637624Y-52524859D01*
X231637624Y-52940052D01*
X231600525Y-52920868D01*
X231551643Y-52906025D01*
X231491561Y-52902222D01*
X231431564Y-52909243D01*
X231386256Y-52925013D01*
X231348675Y-52955047D01*
X231316564Y-52998024D01*
X231314150Y-53002436D01*
X231303967Y-53023221D01*
X231296530Y-53044170D01*
X231291411Y-53069548D01*
X231288181Y-53103618D01*
X231286413Y-53150641D01*
X231285677Y-53214882D01*
X231285544Y-53287176D01*
X231285544Y-53517822D01*
X231423861Y-53517822D01*
X231423861Y-53092533D01*
X231462549Y-53059979D01*
X231502738Y-53033940D01*
X231540797Y-53029205D01*
X231579066Y-53041389D01*
X231599462Y-53053320D01*
X231614642Y-53070313D01*
X231625438Y-53095995D01*
X231632683Y-53133991D01*
X231637208Y-53187926D01*
X231639844Y-53261425D01*
X231640772Y-53310347D01*
X231643911Y-53511535D01*
X231709926Y-53515336D01*
X231775940Y-53519136D01*
X231775940Y-52270650D01*
X231637624Y-52270650D01*
X231634097Y-52340254D01*
X231622215Y-52388569D01*
X231600020Y-52418631D01*
X231565559Y-52433471D01*
X231530742Y-52436436D01*
X231491329Y-52433028D01*
X231465171Y-52419617D01*
X231448814Y-52401896D01*
X231435937Y-52382835D01*
X231428272Y-52361601D01*
X231424861Y-52331849D01*
X231424749Y-52287236D01*
X231425897Y-52249880D01*
X231428532Y-52193604D01*
X231432456Y-52156658D01*
X231439063Y-52133223D01*
X231449749Y-52117480D01*
X231459833Y-52108380D01*
X231501970Y-52088537D01*
X231551840Y-52085332D01*
X231580476Y-52092168D01*
X231608828Y-52116464D01*
X231627609Y-52163728D01*
X231636712Y-52233624D01*
X231637624Y-52270650D01*
X231775940Y-52270650D01*
X231775940Y-51958614D01*
X231706782Y-51958614D01*
X231665260Y-51960256D01*
X231643838Y-51966087D01*
X231637626Y-51977461D01*
X231637624Y-51977798D01*
X231634742Y-51988938D01*
X231622030Y-51987673D01*
X231596757Y-51975433D01*
X231537869Y-51956707D01*
X231471615Y-51954739D01*
X231408759Y-51969184D01*
G37*
X231408759Y-51969184D02*
X231382247Y-51982282D01*
X231349553Y-52005106D01*
X231325725Y-52029996D01*
X231309406Y-52061249D01*
X231299240Y-52103166D01*
X231293872Y-52160044D01*
X231291944Y-52236184D01*
X231291831Y-52268917D01*
X231292161Y-52340656D01*
X231293527Y-52391927D01*
X231296500Y-52427404D01*
X231301649Y-52451763D01*
X231309543Y-52469680D01*
X231317757Y-52481902D01*
X231370187Y-52533905D01*
X231431930Y-52565184D01*
X231498536Y-52574592D01*
X231565558Y-52560980D01*
X231586792Y-52551354D01*
X231637624Y-52524859D01*
X231637624Y-52940052D01*
X231600525Y-52920868D01*
X231551643Y-52906025D01*
X231491561Y-52902222D01*
X231431564Y-52909243D01*
X231386256Y-52925013D01*
X231348675Y-52955047D01*
X231316564Y-52998024D01*
X231314150Y-53002436D01*
X231303967Y-53023221D01*
X231296530Y-53044170D01*
X231291411Y-53069548D01*
X231288181Y-53103618D01*
X231286413Y-53150641D01*
X231285677Y-53214882D01*
X231285544Y-53287176D01*
X231285544Y-53517822D01*
X231423861Y-53517822D01*
X231423861Y-53092533D01*
X231462549Y-53059979D01*
X231502738Y-53033940D01*
X231540797Y-53029205D01*
X231579066Y-53041389D01*
X231599462Y-53053320D01*
X231614642Y-53070313D01*
X231625438Y-53095995D01*
X231632683Y-53133991D01*
X231637208Y-53187926D01*
X231639844Y-53261425D01*
X231640772Y-53310347D01*
X231643911Y-53511535D01*
X231709926Y-53515336D01*
X231775940Y-53519136D01*
X231775940Y-52270650D01*
X231637624Y-52270650D01*
X231634097Y-52340254D01*
X231622215Y-52388569D01*
X231600020Y-52418631D01*
X231565559Y-52433471D01*
X231530742Y-52436436D01*
X231491329Y-52433028D01*
X231465171Y-52419617D01*
X231448814Y-52401896D01*
X231435937Y-52382835D01*
X231428272Y-52361601D01*
X231424861Y-52331849D01*
X231424749Y-52287236D01*
X231425897Y-52249880D01*
X231428532Y-52193604D01*
X231432456Y-52156658D01*
X231439063Y-52133223D01*
X231449749Y-52117480D01*
X231459833Y-52108380D01*
X231501970Y-52088537D01*
X231551840Y-52085332D01*
X231580476Y-52092168D01*
X231608828Y-52116464D01*
X231627609Y-52163728D01*
X231636712Y-52233624D01*
X231637624Y-52270650D01*
X231775940Y-52270650D01*
X231775940Y-51958614D01*
X231706782Y-51958614D01*
X231665260Y-51960256D01*
X231643838Y-51966087D01*
X231637626Y-51977461D01*
X231637624Y-51977798D01*
X231634742Y-51988938D01*
X231622030Y-51987673D01*
X231596757Y-51975433D01*
X231537869Y-51956707D01*
X231471615Y-51954739D01*
X231408759Y-51969184D01*
G36*
X230884210Y-52906555D02*
G01*
X230825055Y-52922339D01*
X230780023Y-52950948D01*
X230748246Y-52988419D01*
X230738366Y-53004411D01*
X230731073Y-53021163D01*
X230725974Y-53042592D01*
X230722679Y-53072616D01*
X230720797Y-53115154D01*
X230719937Y-53174122D01*
X230719707Y-53253440D01*
X230719703Y-53274484D01*
X230719703Y-53517822D01*
X230780059Y-53517822D01*
X230818557Y-53515126D01*
X230847023Y-53508295D01*
X230854155Y-53504083D01*
X230873652Y-53496813D01*
X230893566Y-53504083D01*
X230926353Y-53513160D01*
X230973978Y-53516813D01*
X231026764Y-53515228D01*
X231075036Y-53508589D01*
X231103218Y-53500072D01*
X231157753Y-53465063D01*
X231191835Y-53416479D01*
X231207157Y-53351882D01*
X231207299Y-53350223D01*
X231205955Y-53321566D01*
X231084356Y-53321566D01*
X231073726Y-53354161D01*
X231056410Y-53372505D01*
X231021652Y-53386379D01*
X230975773Y-53391917D01*
X230928988Y-53389191D01*
X230891514Y-53378274D01*
X230881015Y-53371269D01*
X230862668Y-53338904D01*
X230858020Y-53302111D01*
X230858020Y-53253763D01*
X230927582Y-53253763D01*
X230993667Y-53258850D01*
X231043764Y-53273263D01*
X231074929Y-53295729D01*
X231084356Y-53321566D01*
X231205955Y-53321566D01*
X231203987Y-53279647D01*
X231180710Y-53223845D01*
X231136948Y-53181647D01*
X231130899Y-53177808D01*
X231104907Y-53165309D01*
X231072735Y-53157740D01*
X231027760Y-53154061D01*
X230974331Y-53153216D01*
X230858020Y-53153169D01*
X230858020Y-53104411D01*
X230862953Y-53066581D01*
X230875543Y-53041236D01*
X230877017Y-53039887D01*
X230905034Y-53028800D01*
X230947326Y-53024503D01*
X230994064Y-53026615D01*
X231035418Y-53034756D01*
X231059957Y-53046965D01*
X231073253Y-53056746D01*
X231087294Y-53058613D01*
X231106671Y-53050600D01*
X231135976Y-53030739D01*
X231179803Y-52997063D01*
X231183825Y-52993909D01*
X231181764Y-52982236D01*
X231164568Y-52962822D01*
X231138433Y-52941248D01*
X231109552Y-52923096D01*
X231100478Y-52918809D01*
X231067380Y-52910256D01*
X231018880Y-52904155D01*
X230964695Y-52901708D01*
X230962161Y-52901703D01*
X230884210Y-52906555D01*
G37*
X230884210Y-52906555D02*
X230825055Y-52922339D01*
X230780023Y-52950948D01*
X230748246Y-52988419D01*
X230738366Y-53004411D01*
X230731073Y-53021163D01*
X230725974Y-53042592D01*
X230722679Y-53072616D01*
X230720797Y-53115154D01*
X230719937Y-53174122D01*
X230719707Y-53253440D01*
X230719703Y-53274484D01*
X230719703Y-53517822D01*
X230780059Y-53517822D01*
X230818557Y-53515126D01*
X230847023Y-53508295D01*
X230854155Y-53504083D01*
X230873652Y-53496813D01*
X230893566Y-53504083D01*
X230926353Y-53513160D01*
X230973978Y-53516813D01*
X231026764Y-53515228D01*
X231075036Y-53508589D01*
X231103218Y-53500072D01*
X231157753Y-53465063D01*
X231191835Y-53416479D01*
X231207157Y-53351882D01*
X231207299Y-53350223D01*
X231205955Y-53321566D01*
X231084356Y-53321566D01*
X231073726Y-53354161D01*
X231056410Y-53372505D01*
X231021652Y-53386379D01*
X230975773Y-53391917D01*
X230928988Y-53389191D01*
X230891514Y-53378274D01*
X230881015Y-53371269D01*
X230862668Y-53338904D01*
X230858020Y-53302111D01*
X230858020Y-53253763D01*
X230927582Y-53253763D01*
X230993667Y-53258850D01*
X231043764Y-53273263D01*
X231074929Y-53295729D01*
X231084356Y-53321566D01*
X231205955Y-53321566D01*
X231203987Y-53279647D01*
X231180710Y-53223845D01*
X231136948Y-53181647D01*
X231130899Y-53177808D01*
X231104907Y-53165309D01*
X231072735Y-53157740D01*
X231027760Y-53154061D01*
X230974331Y-53153216D01*
X230858020Y-53153169D01*
X230858020Y-53104411D01*
X230862953Y-53066581D01*
X230875543Y-53041236D01*
X230877017Y-53039887D01*
X230905034Y-53028800D01*
X230947326Y-53024503D01*
X230994064Y-53026615D01*
X231035418Y-53034756D01*
X231059957Y-53046965D01*
X231073253Y-53056746D01*
X231087294Y-53058613D01*
X231106671Y-53050600D01*
X231135976Y-53030739D01*
X231179803Y-52997063D01*
X231183825Y-52993909D01*
X231181764Y-52982236D01*
X231164568Y-52962822D01*
X231138433Y-52941248D01*
X231109552Y-52923096D01*
X231100478Y-52918809D01*
X231067380Y-52910256D01*
X231018880Y-52904155D01*
X230964695Y-52901708D01*
X230962161Y-52901703D01*
X230884210Y-52906555D01*
G36*
X230493356Y-52903020D02*
G01*
X230474539Y-52908660D01*
X230468473Y-52921053D01*
X230468218Y-52926647D01*
X230467129Y-52942230D01*
X230459632Y-52944676D01*
X230439381Y-52933993D01*
X230427351Y-52926694D01*
X230389400Y-52911063D01*
X230344072Y-52903334D01*
X230296544Y-52902740D01*
X230251995Y-52908513D01*
X230215602Y-52919884D01*
X230192543Y-52936088D01*
X230187996Y-52956355D01*
X230190291Y-52961843D01*
X230207020Y-52984626D01*
X230232963Y-53012647D01*
X230237655Y-53017177D01*
X230262383Y-53038005D01*
X230283718Y-53044735D01*
X230313555Y-53040038D01*
X230325508Y-53036917D01*
X230362705Y-53029421D01*
X230388859Y-53032792D01*
X230410946Y-53044681D01*
X230431178Y-53060635D01*
X230446079Y-53080700D01*
X230456434Y-53108702D01*
X230463029Y-53148467D01*
X230466649Y-53203823D01*
X230468078Y-53278594D01*
X230468218Y-53323740D01*
X230468218Y-53517822D01*
X230593960Y-53517822D01*
X230593960Y-52901683D01*
X230531089Y-52901683D01*
X230493356Y-52903020D01*
G37*
X230493356Y-52903020D02*
X230474539Y-52908660D01*
X230468473Y-52921053D01*
X230468218Y-52926647D01*
X230467129Y-52942230D01*
X230459632Y-52944676D01*
X230439381Y-52933993D01*
X230427351Y-52926694D01*
X230389400Y-52911063D01*
X230344072Y-52903334D01*
X230296544Y-52902740D01*
X230251995Y-52908513D01*
X230215602Y-52919884D01*
X230192543Y-52936088D01*
X230187996Y-52956355D01*
X230190291Y-52961843D01*
X230207020Y-52984626D01*
X230232963Y-53012647D01*
X230237655Y-53017177D01*
X230262383Y-53038005D01*
X230283718Y-53044735D01*
X230313555Y-53040038D01*
X230325508Y-53036917D01*
X230362705Y-53029421D01*
X230388859Y-53032792D01*
X230410946Y-53044681D01*
X230431178Y-53060635D01*
X230446079Y-53080700D01*
X230456434Y-53108702D01*
X230463029Y-53148467D01*
X230466649Y-53203823D01*
X230468078Y-53278594D01*
X230468218Y-53323740D01*
X230468218Y-53517822D01*
X230593960Y-53517822D01*
X230593960Y-52901683D01*
X230531089Y-52901683D01*
X230493356Y-52903020D01*
G36*
X229701188Y-53517822D02*
G01*
X229770346Y-53517822D01*
X229810488Y-53516645D01*
X229831394Y-53511772D01*
X229838922Y-53501186D01*
X229839505Y-53494029D01*
X229840774Y-53479676D01*
X229848779Y-53476923D01*
X229869815Y-53485771D01*
X229886173Y-53494029D01*
X229948977Y-53513597D01*
X230017248Y-53514729D01*
X230072752Y-53500135D01*
X230124438Y-53464877D01*
X230163838Y-53412835D01*
X230185413Y-53351450D01*
X230185962Y-53348018D01*
X230189167Y-53310571D01*
X230190761Y-53256813D01*
X230190633Y-53216155D01*
X230053279Y-53216155D01*
X230050097Y-53270194D01*
X230042859Y-53314735D01*
X230033060Y-53339888D01*
X229995989Y-53374260D01*
X229951974Y-53386582D01*
X229906584Y-53376618D01*
X229867797Y-53346895D01*
X229853108Y-53326905D01*
X229844519Y-53303050D01*
X229840496Y-53268230D01*
X229839505Y-53215930D01*
X229841278Y-53164139D01*
X229845963Y-53118634D01*
X229852603Y-53088181D01*
X229853710Y-53085452D01*
X229880491Y-53053000D01*
X229919579Y-53035183D01*
X229963315Y-53032306D01*
X230004038Y-53044674D01*
X230034087Y-53072593D01*
X230037204Y-53078148D01*
X230046961Y-53112022D01*
X230052277Y-53160728D01*
X230053279Y-53216155D01*
X230190633Y-53216155D01*
X230190568Y-53195540D01*
X230189664Y-53162563D01*
X230183514Y-53080981D01*
X230170733Y-53019730D01*
X230149471Y-52974449D01*
X230117878Y-52940779D01*
X230087207Y-52921014D01*
X230044354Y-52907120D01*
X229991056Y-52902354D01*
X229936480Y-52906236D01*
X229889792Y-52918282D01*
X229865124Y-52932693D01*
X229839505Y-52955878D01*
X229839505Y-52662773D01*
X229701188Y-52662773D01*
X229701188Y-53517822D01*
G37*
X229701188Y-53517822D02*
X229770346Y-53517822D01*
X229810488Y-53516645D01*
X229831394Y-53511772D01*
X229838922Y-53501186D01*
X229839505Y-53494029D01*
X229840774Y-53479676D01*
X229848779Y-53476923D01*
X229869815Y-53485771D01*
X229886173Y-53494029D01*
X229948977Y-53513597D01*
X230017248Y-53514729D01*
X230072752Y-53500135D01*
X230124438Y-53464877D01*
X230163838Y-53412835D01*
X230185413Y-53351450D01*
X230185962Y-53348018D01*
X230189167Y-53310571D01*
X230190761Y-53256813D01*
X230190633Y-53216155D01*
X230053279Y-53216155D01*
X230050097Y-53270194D01*
X230042859Y-53314735D01*
X230033060Y-53339888D01*
X229995989Y-53374260D01*
X229951974Y-53386582D01*
X229906584Y-53376618D01*
X229867797Y-53346895D01*
X229853108Y-53326905D01*
X229844519Y-53303050D01*
X229840496Y-53268230D01*
X229839505Y-53215930D01*
X229841278Y-53164139D01*
X229845963Y-53118634D01*
X229852603Y-53088181D01*
X229853710Y-53085452D01*
X229880491Y-53053000D01*
X229919579Y-53035183D01*
X229963315Y-53032306D01*
X230004038Y-53044674D01*
X230034087Y-53072593D01*
X230037204Y-53078148D01*
X230046961Y-53112022D01*
X230052277Y-53160728D01*
X230053279Y-53216155D01*
X230190633Y-53216155D01*
X230190568Y-53195540D01*
X230189664Y-53162563D01*
X230183514Y-53080981D01*
X230170733Y-53019730D01*
X230149471Y-52974449D01*
X230117878Y-52940779D01*
X230087207Y-52921014D01*
X230044354Y-52907120D01*
X229991056Y-52902354D01*
X229936480Y-52906236D01*
X229889792Y-52918282D01*
X229865124Y-52932693D01*
X229839505Y-52955878D01*
X229839505Y-52662773D01*
X229701188Y-52662773D01*
X229701188Y-53517822D01*
G36*
X229218476Y-52904237D02*
G01*
X229168745Y-52907971D01*
X229038709Y-53297773D01*
X229018322Y-53228614D01*
X229006054Y-53185874D01*
X228989915Y-53128115D01*
X228972488Y-53064625D01*
X228963274Y-53030570D01*
X228928612Y-52901683D01*
X228785609Y-52901683D01*
X228828354Y-53036857D01*
X228849404Y-53103342D01*
X228874833Y-53183539D01*
X228901390Y-53267193D01*
X228925098Y-53341782D01*
X228979098Y-53511535D01*
X229037402Y-53515328D01*
X229095705Y-53519122D01*
X229127321Y-53414734D01*
X229146818Y-53349889D01*
X229168096Y-53278400D01*
X229186692Y-53215263D01*
X229187426Y-53212750D01*
X229201316Y-53169969D01*
X229213571Y-53140779D01*
X229222154Y-53129741D01*
X229223918Y-53131018D01*
X229230109Y-53148130D01*
X229241872Y-53184787D01*
X229257775Y-53236378D01*
X229276386Y-53298294D01*
X229286457Y-53332352D01*
X229340993Y-53517822D01*
X229456736Y-53517822D01*
X229549263Y-53225471D01*
X229575256Y-53143462D01*
X229598934Y-53068987D01*
X229619180Y-53005544D01*
X229634874Y-52956632D01*
X229644898Y-52925749D01*
X229647945Y-52916726D01*
X229645533Y-52907487D01*
X229626592Y-52903441D01*
X229587177Y-52903846D01*
X229581007Y-52904152D01*
X229507914Y-52907971D01*
X229460043Y-53084010D01*
X229442447Y-53148211D01*
X229426723Y-53204649D01*
X229414254Y-53248422D01*
X229406426Y-53274630D01*
X229404980Y-53278903D01*
X229398986Y-53273990D01*
X229386899Y-53248532D01*
X229370107Y-53205997D01*
X229349997Y-53149850D01*
X229332997Y-53099130D01*
X229268206Y-52900504D01*
X229218476Y-52904237D01*
G37*
X229218476Y-52904237D02*
X229168745Y-52907971D01*
X229038709Y-53297773D01*
X229018322Y-53228614D01*
X229006054Y-53185874D01*
X228989915Y-53128115D01*
X228972488Y-53064625D01*
X228963274Y-53030570D01*
X228928612Y-52901683D01*
X228785609Y-52901683D01*
X228828354Y-53036857D01*
X228849404Y-53103342D01*
X228874833Y-53183539D01*
X228901390Y-53267193D01*
X228925098Y-53341782D01*
X228979098Y-53511535D01*
X229037402Y-53515328D01*
X229095705Y-53519122D01*
X229127321Y-53414734D01*
X229146818Y-53349889D01*
X229168096Y-53278400D01*
X229186692Y-53215263D01*
X229187426Y-53212750D01*
X229201316Y-53169969D01*
X229213571Y-53140779D01*
X229222154Y-53129741D01*
X229223918Y-53131018D01*
X229230109Y-53148130D01*
X229241872Y-53184787D01*
X229257775Y-53236378D01*
X229276386Y-53298294D01*
X229286457Y-53332352D01*
X229340993Y-53517822D01*
X229456736Y-53517822D01*
X229549263Y-53225471D01*
X229575256Y-53143462D01*
X229598934Y-53068987D01*
X229619180Y-53005544D01*
X229634874Y-52956632D01*
X229644898Y-52925749D01*
X229647945Y-52916726D01*
X229645533Y-52907487D01*
X229626592Y-52903441D01*
X229587177Y-52903846D01*
X229581007Y-52904152D01*
X229507914Y-52907971D01*
X229460043Y-53084010D01*
X229442447Y-53148211D01*
X229426723Y-53204649D01*
X229414254Y-53248422D01*
X229406426Y-53274630D01*
X229404980Y-53278903D01*
X229398986Y-53273990D01*
X229386899Y-53248532D01*
X229370107Y-53205997D01*
X229349997Y-53149850D01*
X229332997Y-53099130D01*
X229268206Y-52900504D01*
X229218476Y-52904237D01*
G36*
X228461589Y-52905417D02*
G01*
X228408589Y-52918290D01*
X228393269Y-52925110D01*
X228363572Y-52942974D01*
X228340780Y-52963093D01*
X228323917Y-52988962D01*
X228312002Y-53024073D01*
X228304058Y-53071920D01*
X228299106Y-53135996D01*
X228296169Y-53219794D01*
X228295053Y-53275768D01*
X228290948Y-53517822D01*
X228361068Y-53517822D01*
X228403607Y-53516038D01*
X228425524Y-53509942D01*
X228431188Y-53499706D01*
X228434179Y-53488637D01*
X228447549Y-53490754D01*
X228465767Y-53499629D01*
X228511376Y-53513233D01*
X228569993Y-53516899D01*
X228631646Y-53510903D01*
X228686362Y-53495521D01*
X228691270Y-53493386D01*
X228741277Y-53458255D01*
X228774244Y-53409419D01*
X228789413Y-53352333D01*
X228788254Y-53331824D01*
X228664492Y-53331824D01*
X228653587Y-53359425D01*
X228621255Y-53379204D01*
X228569090Y-53389819D01*
X228541213Y-53391228D01*
X228494753Y-53387620D01*
X228463871Y-53373597D01*
X228456336Y-53366931D01*
X228435924Y-53330666D01*
X228431188Y-53297773D01*
X228431188Y-53253763D01*
X228492487Y-53253763D01*
X228563744Y-53257395D01*
X228613724Y-53268818D01*
X228645304Y-53288824D01*
X228652374Y-53297743D01*
X228664492Y-53331824D01*
X228788254Y-53331824D01*
X228786029Y-53292456D01*
X228763337Y-53235244D01*
X228732376Y-53196580D01*
X228713624Y-53179864D01*
X228695267Y-53168878D01*
X228671381Y-53162180D01*
X228636043Y-53158326D01*
X228583331Y-53155873D01*
X228562423Y-53155168D01*
X228431188Y-53150879D01*
X228431380Y-53111158D01*
X228436463Y-53069405D01*
X228454838Y-53044158D01*
X228491961Y-53028030D01*
X228492957Y-53027742D01*
X228545590Y-53021400D01*
X228597094Y-53029684D01*
X228635370Y-53049827D01*
X228650728Y-53059773D01*
X228667270Y-53058397D01*
X228692725Y-53043987D01*
X228707672Y-53033817D01*
X228736909Y-53012088D01*
X228755020Y-52995800D01*
X228757926Y-52991137D01*
X228745960Y-52967005D01*
X228710604Y-52938185D01*
X228695247Y-52928461D01*
X228651099Y-52911714D01*
X228591602Y-52902227D01*
X228525513Y-52900095D01*
X228461589Y-52905417D01*
G37*
X228461589Y-52905417D02*
X228408589Y-52918290D01*
X228393269Y-52925110D01*
X228363572Y-52942974D01*
X228340780Y-52963093D01*
X228323917Y-52988962D01*
X228312002Y-53024073D01*
X228304058Y-53071920D01*
X228299106Y-53135996D01*
X228296169Y-53219794D01*
X228295053Y-53275768D01*
X228290948Y-53517822D01*
X228361068Y-53517822D01*
X228403607Y-53516038D01*
X228425524Y-53509942D01*
X228431188Y-53499706D01*
X228434179Y-53488637D01*
X228447549Y-53490754D01*
X228465767Y-53499629D01*
X228511376Y-53513233D01*
X228569993Y-53516899D01*
X228631646Y-53510903D01*
X228686362Y-53495521D01*
X228691270Y-53493386D01*
X228741277Y-53458255D01*
X228774244Y-53409419D01*
X228789413Y-53352333D01*
X228788254Y-53331824D01*
X228664492Y-53331824D01*
X228653587Y-53359425D01*
X228621255Y-53379204D01*
X228569090Y-53389819D01*
X228541213Y-53391228D01*
X228494753Y-53387620D01*
X228463871Y-53373597D01*
X228456336Y-53366931D01*
X228435924Y-53330666D01*
X228431188Y-53297773D01*
X228431188Y-53253763D01*
X228492487Y-53253763D01*
X228563744Y-53257395D01*
X228613724Y-53268818D01*
X228645304Y-53288824D01*
X228652374Y-53297743D01*
X228664492Y-53331824D01*
X228788254Y-53331824D01*
X228786029Y-53292456D01*
X228763337Y-53235244D01*
X228732376Y-53196580D01*
X228713624Y-53179864D01*
X228695267Y-53168878D01*
X228671381Y-53162180D01*
X228636043Y-53158326D01*
X228583331Y-53155873D01*
X228562423Y-53155168D01*
X228431188Y-53150879D01*
X228431380Y-53111158D01*
X228436463Y-53069405D01*
X228454838Y-53044158D01*
X228491961Y-53028030D01*
X228492957Y-53027742D01*
X228545590Y-53021400D01*
X228597094Y-53029684D01*
X228635370Y-53049827D01*
X228650728Y-53059773D01*
X228667270Y-53058397D01*
X228692725Y-53043987D01*
X228707672Y-53033817D01*
X228736909Y-53012088D01*
X228755020Y-52995800D01*
X228757926Y-52991137D01*
X228745960Y-52967005D01*
X228710604Y-52938185D01*
X228695247Y-52928461D01*
X228651099Y-52911714D01*
X228591602Y-52902227D01*
X228525513Y-52900095D01*
X228461589Y-52905417D01*
G36*
X227864745Y-52901486D02*
G01*
X227816405Y-52911015D01*
X227788886Y-52925125D01*
X227759936Y-52948568D01*
X227801124Y-53000571D01*
X227826518Y-53032064D01*
X227843762Y-53047428D01*
X227860898Y-53049776D01*
X227885973Y-53042217D01*
X227897743Y-53037941D01*
X227945730Y-53031631D01*
X227989676Y-53045156D01*
X228021940Y-53075710D01*
X228027181Y-53085452D01*
X228032888Y-53111258D01*
X228037294Y-53158817D01*
X228040189Y-53224758D01*
X228041369Y-53305710D01*
X228041386Y-53317226D01*
X228041386Y-53517822D01*
X228179703Y-53517822D01*
X228179703Y-52901683D01*
X228110544Y-52901683D01*
X228070667Y-52902725D01*
X228049893Y-52907358D01*
X228042211Y-52917849D01*
X228041386Y-52927745D01*
X228041386Y-52953806D01*
X228008255Y-52927745D01*
X227970265Y-52909965D01*
X227919230Y-52901174D01*
X227864745Y-52901486D01*
G37*
X227864745Y-52901486D02*
X227816405Y-52911015D01*
X227788886Y-52925125D01*
X227759936Y-52948568D01*
X227801124Y-53000571D01*
X227826518Y-53032064D01*
X227843762Y-53047428D01*
X227860898Y-53049776D01*
X227885973Y-53042217D01*
X227897743Y-53037941D01*
X227945730Y-53031631D01*
X227989676Y-53045156D01*
X228021940Y-53075710D01*
X228027181Y-53085452D01*
X228032888Y-53111258D01*
X228037294Y-53158817D01*
X228040189Y-53224758D01*
X228041369Y-53305710D01*
X228041386Y-53317226D01*
X228041386Y-53517822D01*
X228179703Y-53517822D01*
X228179703Y-52901683D01*
X228110544Y-52901683D01*
X228070667Y-52902725D01*
X228049893Y-52907358D01*
X228042211Y-52917849D01*
X228041386Y-52927745D01*
X228041386Y-52953806D01*
X228008255Y-52927745D01*
X227970265Y-52909965D01*
X227919230Y-52901174D01*
X227864745Y-52901486D01*
G36*
X227467419Y-52904970D02*
G01*
X227407315Y-52920597D01*
X227356979Y-52952848D01*
X227332607Y-52976940D01*
X227292655Y-53033895D01*
X227269758Y-53099965D01*
X227261892Y-53181182D01*
X227261852Y-53187748D01*
X227261782Y-53253763D01*
X227641736Y-53253763D01*
X227633637Y-53288342D01*
X227619013Y-53319659D01*
X227593419Y-53352291D01*
X227588065Y-53357500D01*
X227542057Y-53385694D01*
X227489590Y-53390475D01*
X227429197Y-53371926D01*
X227418960Y-53366931D01*
X227387561Y-53351745D01*
X227366530Y-53343094D01*
X227362861Y-53342293D01*
X227350052Y-53350063D01*
X227325622Y-53369072D01*
X227313221Y-53379460D01*
X227287524Y-53403321D01*
X227279085Y-53419077D01*
X227284942Y-53433571D01*
X227288072Y-53437534D01*
X227309275Y-53454879D01*
X227344262Y-53475959D01*
X227368663Y-53488265D01*
X227437928Y-53509946D01*
X227514612Y-53516971D01*
X227587235Y-53508647D01*
X227607574Y-53502686D01*
X227670524Y-53468952D01*
X227717185Y-53417045D01*
X227747827Y-53346459D01*
X227762718Y-53256692D01*
X227764353Y-53209753D01*
X227759579Y-53141413D01*
X227639010Y-53141413D01*
X227627348Y-53146465D01*
X227596002Y-53150429D01*
X227550429Y-53152768D01*
X227519554Y-53153169D01*
X227464019Y-53152783D01*
X227428967Y-53150975D01*
X227409738Y-53146773D01*
X227401670Y-53139203D01*
X227400099Y-53128218D01*
X227410879Y-53094381D01*
X227438020Y-53060940D01*
X227473723Y-53035272D01*
X227509440Y-53024772D01*
X227557952Y-53034086D01*
X227599947Y-53061013D01*
X227629064Y-53099827D01*
X227639010Y-53141413D01*
X227759579Y-53141413D01*
X227757401Y-53110236D01*
X227735945Y-53030949D01*
X227699530Y-52971263D01*
X227647703Y-52930549D01*
X227580010Y-52908179D01*
X227543338Y-52903871D01*
X227467419Y-52904970D01*
G37*
X227467419Y-52904970D02*
X227407315Y-52920597D01*
X227356979Y-52952848D01*
X227332607Y-52976940D01*
X227292655Y-53033895D01*
X227269758Y-53099965D01*
X227261892Y-53181182D01*
X227261852Y-53187748D01*
X227261782Y-53253763D01*
X227641736Y-53253763D01*
X227633637Y-53288342D01*
X227619013Y-53319659D01*
X227593419Y-53352291D01*
X227588065Y-53357500D01*
X227542057Y-53385694D01*
X227489590Y-53390475D01*
X227429197Y-53371926D01*
X227418960Y-53366931D01*
X227387561Y-53351745D01*
X227366530Y-53343094D01*
X227362861Y-53342293D01*
X227350052Y-53350063D01*
X227325622Y-53369072D01*
X227313221Y-53379460D01*
X227287524Y-53403321D01*
X227279085Y-53419077D01*
X227284942Y-53433571D01*
X227288072Y-53437534D01*
X227309275Y-53454879D01*
X227344262Y-53475959D01*
X227368663Y-53488265D01*
X227437928Y-53509946D01*
X227514612Y-53516971D01*
X227587235Y-53508647D01*
X227607574Y-53502686D01*
X227670524Y-53468952D01*
X227717185Y-53417045D01*
X227747827Y-53346459D01*
X227762718Y-53256692D01*
X227764353Y-53209753D01*
X227759579Y-53141413D01*
X227639010Y-53141413D01*
X227627348Y-53146465D01*
X227596002Y-53150429D01*
X227550429Y-53152768D01*
X227519554Y-53153169D01*
X227464019Y-53152783D01*
X227428967Y-53150975D01*
X227409738Y-53146773D01*
X227401670Y-53139203D01*
X227400099Y-53128218D01*
X227410879Y-53094381D01*
X227438020Y-53060940D01*
X227473723Y-53035272D01*
X227509440Y-53024772D01*
X227557952Y-53034086D01*
X227599947Y-53061013D01*
X227629064Y-53099827D01*
X227639010Y-53141413D01*
X227759579Y-53141413D01*
X227757401Y-53110236D01*
X227735945Y-53030949D01*
X227699530Y-52971263D01*
X227647703Y-52930549D01*
X227580010Y-52908179D01*
X227543338Y-52903871D01*
X227467419Y-52904970D01*
G36*
X232038261Y-51965148D02*
G01*
X231972479Y-51994231D01*
X231922540Y-52042793D01*
X231888374Y-52110908D01*
X231869907Y-52198651D01*
X231868583Y-52212351D01*
X231867546Y-52308939D01*
X231880993Y-52393602D01*
X231908108Y-52462221D01*
X231922627Y-52484294D01*
X231973201Y-52531011D01*
X232037609Y-52561268D01*
X232109666Y-52573824D01*
X232183185Y-52567439D01*
X232239072Y-52547772D01*
X232287132Y-52514629D01*
X232326412Y-52471175D01*
X232327092Y-52470158D01*
X232343044Y-52443338D01*
X232353410Y-52416368D01*
X232359688Y-52382332D01*
X232363373Y-52334310D01*
X232364997Y-52294931D01*
X232365672Y-52259219D01*
X232239955Y-52259219D01*
X232238726Y-52294770D01*
X232234266Y-52342094D01*
X232226397Y-52372465D01*
X232212207Y-52394072D01*
X232198917Y-52406694D01*
X232151802Y-52433122D01*
X232102505Y-52436653D01*
X232056593Y-52417639D01*
X232033638Y-52396331D01*
X232017096Y-52374859D01*
X232007421Y-52354313D01*
X232003174Y-52327574D01*
X232002920Y-52287523D01*
X232004228Y-52250638D01*
X232007043Y-52197947D01*
X232011505Y-52163772D01*
X232019548Y-52141480D01*
X232033103Y-52124442D01*
X232043845Y-52114703D01*
X232088777Y-52089123D01*
X232137249Y-52087847D01*
X232177894Y-52102999D01*
X232212567Y-52134642D01*
X232233224Y-52186620D01*
X232239955Y-52259219D01*
X232365672Y-52259219D01*
X232366479Y-52216621D01*
X232363948Y-52158056D01*
X232356362Y-52114007D01*
X232342681Y-52079248D01*
X232321865Y-52048551D01*
X232314147Y-52039436D01*
X232265889Y-51994021D01*
X232214128Y-51967493D01*
X232150828Y-51956379D01*
X232119961Y-51955471D01*
X232038261Y-51965148D01*
G37*
X232038261Y-51965148D02*
X231972479Y-51994231D01*
X231922540Y-52042793D01*
X231888374Y-52110908D01*
X231869907Y-52198651D01*
X231868583Y-52212351D01*
X231867546Y-52308939D01*
X231880993Y-52393602D01*
X231908108Y-52462221D01*
X231922627Y-52484294D01*
X231973201Y-52531011D01*
X232037609Y-52561268D01*
X232109666Y-52573824D01*
X232183185Y-52567439D01*
X232239072Y-52547772D01*
X232287132Y-52514629D01*
X232326412Y-52471175D01*
X232327092Y-52470158D01*
X232343044Y-52443338D01*
X232353410Y-52416368D01*
X232359688Y-52382332D01*
X232363373Y-52334310D01*
X232364997Y-52294931D01*
X232365672Y-52259219D01*
X232239955Y-52259219D01*
X232238726Y-52294770D01*
X232234266Y-52342094D01*
X232226397Y-52372465D01*
X232212207Y-52394072D01*
X232198917Y-52406694D01*
X232151802Y-52433122D01*
X232102505Y-52436653D01*
X232056593Y-52417639D01*
X232033638Y-52396331D01*
X232017096Y-52374859D01*
X232007421Y-52354313D01*
X232003174Y-52327574D01*
X232002920Y-52287523D01*
X232004228Y-52250638D01*
X232007043Y-52197947D01*
X232011505Y-52163772D01*
X232019548Y-52141480D01*
X232033103Y-52124442D01*
X232043845Y-52114703D01*
X232088777Y-52089123D01*
X232137249Y-52087847D01*
X232177894Y-52102999D01*
X232212567Y-52134642D01*
X232233224Y-52186620D01*
X232239955Y-52259219D01*
X232365672Y-52259219D01*
X232366479Y-52216621D01*
X232363948Y-52158056D01*
X232356362Y-52114007D01*
X232342681Y-52079248D01*
X232321865Y-52048551D01*
X232314147Y-52039436D01*
X232265889Y-51994021D01*
X232214128Y-51967493D01*
X232150828Y-51956379D01*
X232119961Y-51955471D01*
X232038261Y-51965148D01*
G36*
X230856699Y-51972614D02*
G01*
X230844168Y-51978514D01*
X230800799Y-52010283D01*
X230759790Y-52056646D01*
X230729168Y-52107696D01*
X230720459Y-52131166D01*
X230712512Y-52173091D01*
X230707774Y-52223757D01*
X230707199Y-52244679D01*
X230707129Y-52310693D01*
X231087083Y-52310693D01*
X231078983Y-52345273D01*
X231059104Y-52386170D01*
X231024347Y-52421514D01*
X230982998Y-52444282D01*
X230956649Y-52449010D01*
X230920916Y-52443273D01*
X230878282Y-52428882D01*
X230863799Y-52422262D01*
X230810240Y-52395513D01*
X230764533Y-52430376D01*
X230738158Y-52453955D01*
X230724124Y-52473417D01*
X230723414Y-52479129D01*
X230735951Y-52492973D01*
X230763428Y-52514012D01*
X230788366Y-52530425D01*
X230855664Y-52559930D01*
X230931110Y-52573284D01*
X231005888Y-52569812D01*
X231065495Y-52551663D01*
X231126941Y-52512784D01*
X231170608Y-52461595D01*
X231197926Y-52395367D01*
X231210322Y-52311371D01*
X231211421Y-52272936D01*
X231207022Y-52184861D01*
X231206482Y-52182299D01*
X231080582Y-52182299D01*
X231077115Y-52190558D01*
X231062863Y-52195113D01*
X231033470Y-52197065D01*
X230984575Y-52197517D01*
X230965748Y-52197525D01*
X230908467Y-52196843D01*
X230872141Y-52194364D01*
X230852604Y-52189443D01*
X230845690Y-52181434D01*
X230845445Y-52178862D01*
X230853336Y-52158423D01*
X230873085Y-52129789D01*
X230881575Y-52119763D01*
X230913094Y-52091408D01*
X230945949Y-52080259D01*
X230963651Y-52079327D01*
X231011539Y-52090981D01*
X231051699Y-52122285D01*
X231077173Y-52167752D01*
X231077625Y-52169233D01*
X231080582Y-52182299D01*
X231206482Y-52182299D01*
X231192392Y-52115510D01*
X231166038Y-52060025D01*
X231133807Y-52020639D01*
X231074217Y-51977931D01*
X231004168Y-51955109D01*
X230929661Y-51953046D01*
X230856699Y-51972614D01*
G37*
X230856699Y-51972614D02*
X230844168Y-51978514D01*
X230800799Y-52010283D01*
X230759790Y-52056646D01*
X230729168Y-52107696D01*
X230720459Y-52131166D01*
X230712512Y-52173091D01*
X230707774Y-52223757D01*
X230707199Y-52244679D01*
X230707129Y-52310693D01*
X231087083Y-52310693D01*
X231078983Y-52345273D01*
X231059104Y-52386170D01*
X231024347Y-52421514D01*
X230982998Y-52444282D01*
X230956649Y-52449010D01*
X230920916Y-52443273D01*
X230878282Y-52428882D01*
X230863799Y-52422262D01*
X230810240Y-52395513D01*
X230764533Y-52430376D01*
X230738158Y-52453955D01*
X230724124Y-52473417D01*
X230723414Y-52479129D01*
X230735951Y-52492973D01*
X230763428Y-52514012D01*
X230788366Y-52530425D01*
X230855664Y-52559930D01*
X230931110Y-52573284D01*
X231005888Y-52569812D01*
X231065495Y-52551663D01*
X231126941Y-52512784D01*
X231170608Y-52461595D01*
X231197926Y-52395367D01*
X231210322Y-52311371D01*
X231211421Y-52272936D01*
X231207022Y-52184861D01*
X231206482Y-52182299D01*
X231080582Y-52182299D01*
X231077115Y-52190558D01*
X231062863Y-52195113D01*
X231033470Y-52197065D01*
X230984575Y-52197517D01*
X230965748Y-52197525D01*
X230908467Y-52196843D01*
X230872141Y-52194364D01*
X230852604Y-52189443D01*
X230845690Y-52181434D01*
X230845445Y-52178862D01*
X230853336Y-52158423D01*
X230873085Y-52129789D01*
X230881575Y-52119763D01*
X230913094Y-52091408D01*
X230945949Y-52080259D01*
X230963651Y-52079327D01*
X231011539Y-52090981D01*
X231051699Y-52122285D01*
X231077173Y-52167752D01*
X231077625Y-52169233D01*
X231080582Y-52182299D01*
X231206482Y-52182299D01*
X231192392Y-52115510D01*
X231166038Y-52060025D01*
X231133807Y-52020639D01*
X231074217Y-51977931D01*
X231004168Y-51955109D01*
X230929661Y-51953046D01*
X230856699Y-51972614D01*
G36*
X229485983Y-51956452D02*
G01*
X229438366Y-51965482D01*
X229388966Y-51984370D01*
X229383688Y-51986777D01*
X229346226Y-52006476D01*
X229320283Y-52024781D01*
X229311897Y-52036508D01*
X229319883Y-52055632D01*
X229339280Y-52083850D01*
X229347890Y-52094384D01*
X229383372Y-52135847D01*
X229429115Y-52108858D01*
X229472650Y-52090878D01*
X229522950Y-52081267D01*
X229571188Y-52080660D01*
X229608533Y-52089691D01*
X229617495Y-52095327D01*
X229634563Y-52121171D01*
X229636637Y-52150941D01*
X229623866Y-52174197D01*
X229616312Y-52178708D01*
X229593675Y-52184309D01*
X229553885Y-52190892D01*
X229504834Y-52197183D01*
X229495785Y-52198170D01*
X229417004Y-52211798D01*
X229359864Y-52234946D01*
X229321970Y-52269752D01*
X229300921Y-52318354D01*
X229294365Y-52377718D01*
X229303423Y-52445198D01*
X229332836Y-52498188D01*
X229382722Y-52536783D01*
X229453200Y-52561081D01*
X229531435Y-52570667D01*
X229595234Y-52570552D01*
X229646984Y-52561845D01*
X229682327Y-52549825D01*
X229726983Y-52528880D01*
X229768253Y-52504574D01*
X229782921Y-52493876D01*
X229820643Y-52463084D01*
X229775148Y-52417049D01*
X229729653Y-52371013D01*
X229677928Y-52405243D01*
X229626048Y-52430952D01*
X229570649Y-52444399D01*
X229517395Y-52445818D01*
X229471951Y-52435443D01*
X229439984Y-52413507D01*
X229429662Y-52394998D01*
X229431211Y-52365314D01*
X229456860Y-52342615D01*
X229506540Y-52326940D01*
X229560969Y-52319695D01*
X229644736Y-52305873D01*
X229706967Y-52279796D01*
X229748493Y-52240699D01*
X229770147Y-52187820D01*
X229773147Y-52125126D01*
X229758329Y-52059642D01*
X229724546Y-52010144D01*
X229671495Y-51976408D01*
X229598874Y-51958207D01*
X229545072Y-51954639D01*
X229485983Y-51956452D01*
G37*
X229485983Y-51956452D02*
X229438366Y-51965482D01*
X229388966Y-51984370D01*
X229383688Y-51986777D01*
X229346226Y-52006476D01*
X229320283Y-52024781D01*
X229311897Y-52036508D01*
X229319883Y-52055632D01*
X229339280Y-52083850D01*
X229347890Y-52094384D01*
X229383372Y-52135847D01*
X229429115Y-52108858D01*
X229472650Y-52090878D01*
X229522950Y-52081267D01*
X229571188Y-52080660D01*
X229608533Y-52089691D01*
X229617495Y-52095327D01*
X229634563Y-52121171D01*
X229636637Y-52150941D01*
X229623866Y-52174197D01*
X229616312Y-52178708D01*
X229593675Y-52184309D01*
X229553885Y-52190892D01*
X229504834Y-52197183D01*
X229495785Y-52198170D01*
X229417004Y-52211798D01*
X229359864Y-52234946D01*
X229321970Y-52269752D01*
X229300921Y-52318354D01*
X229294365Y-52377718D01*
X229303423Y-52445198D01*
X229332836Y-52498188D01*
X229382722Y-52536783D01*
X229453200Y-52561081D01*
X229531435Y-52570667D01*
X229595234Y-52570552D01*
X229646984Y-52561845D01*
X229682327Y-52549825D01*
X229726983Y-52528880D01*
X229768253Y-52504574D01*
X229782921Y-52493876D01*
X229820643Y-52463084D01*
X229775148Y-52417049D01*
X229729653Y-52371013D01*
X229677928Y-52405243D01*
X229626048Y-52430952D01*
X229570649Y-52444399D01*
X229517395Y-52445818D01*
X229471951Y-52435443D01*
X229439984Y-52413507D01*
X229429662Y-52394998D01*
X229431211Y-52365314D01*
X229456860Y-52342615D01*
X229506540Y-52326940D01*
X229560969Y-52319695D01*
X229644736Y-52305873D01*
X229706967Y-52279796D01*
X229748493Y-52240699D01*
X229770147Y-52187820D01*
X229773147Y-52125126D01*
X229758329Y-52059642D01*
X229724546Y-52010144D01*
X229671495Y-51976408D01*
X229598874Y-51958207D01*
X229545072Y-51954639D01*
X229485983Y-51956452D01*
G36*
X228889238Y-51966055D02*
G01*
X228825637Y-52000692D01*
X228775877Y-52055372D01*
X228752432Y-52099842D01*
X228742366Y-52139121D01*
X228735844Y-52195116D01*
X228733049Y-52259621D01*
X228734164Y-52324429D01*
X228739374Y-52381334D01*
X228745459Y-52411727D01*
X228765986Y-52453306D01*
X228801537Y-52497468D01*
X228844381Y-52536087D01*
X228886789Y-52561034D01*
X228887823Y-52561430D01*
X228940447Y-52572331D01*
X229002812Y-52572601D01*
X229062076Y-52562676D01*
X229084960Y-52554722D01*
X229143898Y-52521300D01*
X229186110Y-52477511D01*
X229213844Y-52419538D01*
X229229349Y-52343565D01*
X229232857Y-52303771D01*
X229232410Y-52253766D01*
X229097624Y-52253766D01*
X229093083Y-52326732D01*
X229080014Y-52382334D01*
X229059244Y-52417861D01*
X229044448Y-52428020D01*
X229006536Y-52435104D01*
X228961473Y-52433007D01*
X228922513Y-52422812D01*
X228912296Y-52417204D01*
X228885341Y-52384538D01*
X228867549Y-52334545D01*
X228859976Y-52273705D01*
X228863675Y-52208497D01*
X228871943Y-52169253D01*
X228895680Y-52123805D01*
X228933151Y-52095396D01*
X228978280Y-52085573D01*
X229024989Y-52095887D01*
X229060868Y-52121112D01*
X229079723Y-52141925D01*
X229090728Y-52162439D01*
X229095974Y-52190203D01*
X229097551Y-52232762D01*
X229097624Y-52253766D01*
X229232410Y-52253766D01*
X229231906Y-52197580D01*
X229214612Y-52110501D01*
X229180971Y-52042530D01*
X229130982Y-51993664D01*
X229064644Y-51963899D01*
X229050399Y-51960448D01*
X228964790Y-51952345D01*
X228889238Y-51966055D01*
G37*
X228889238Y-51966055D02*
X228825637Y-52000692D01*
X228775877Y-52055372D01*
X228752432Y-52099842D01*
X228742366Y-52139121D01*
X228735844Y-52195116D01*
X228733049Y-52259621D01*
X228734164Y-52324429D01*
X228739374Y-52381334D01*
X228745459Y-52411727D01*
X228765986Y-52453306D01*
X228801537Y-52497468D01*
X228844381Y-52536087D01*
X228886789Y-52561034D01*
X228887823Y-52561430D01*
X228940447Y-52572331D01*
X229002812Y-52572601D01*
X229062076Y-52562676D01*
X229084960Y-52554722D01*
X229143898Y-52521300D01*
X229186110Y-52477511D01*
X229213844Y-52419538D01*
X229229349Y-52343565D01*
X229232857Y-52303771D01*
X229232410Y-52253766D01*
X229097624Y-52253766D01*
X229093083Y-52326732D01*
X229080014Y-52382334D01*
X229059244Y-52417861D01*
X229044448Y-52428020D01*
X229006536Y-52435104D01*
X228961473Y-52433007D01*
X228922513Y-52422812D01*
X228912296Y-52417204D01*
X228885341Y-52384538D01*
X228867549Y-52334545D01*
X228859976Y-52273705D01*
X228863675Y-52208497D01*
X228871943Y-52169253D01*
X228895680Y-52123805D01*
X228933151Y-52095396D01*
X228978280Y-52085573D01*
X229024989Y-52095887D01*
X229060868Y-52121112D01*
X229079723Y-52141925D01*
X229090728Y-52162439D01*
X229095974Y-52190203D01*
X229097551Y-52232762D01*
X229097624Y-52253766D01*
X229232410Y-52253766D01*
X229231906Y-52197580D01*
X229214612Y-52110501D01*
X229180971Y-52042530D01*
X229130982Y-51993664D01*
X229064644Y-51963899D01*
X229050399Y-51960448D01*
X228964790Y-51952345D01*
X228889238Y-51966055D01*
G36*
X228506633Y-52154342D02*
G01*
X228505445Y-52246563D01*
X228501103Y-52316610D01*
X228492442Y-52367381D01*
X228478296Y-52401772D01*
X228457500Y-52422679D01*
X228428890Y-52433000D01*
X228393465Y-52435636D01*
X228356364Y-52432682D01*
X228328182Y-52421889D01*
X228307757Y-52400360D01*
X228293921Y-52365199D01*
X228285509Y-52313510D01*
X228281357Y-52242394D01*
X228280297Y-52154342D01*
X228280297Y-51958614D01*
X228141980Y-51958614D01*
X228141980Y-52562179D01*
X228211138Y-52562179D01*
X228252830Y-52560489D01*
X228274299Y-52554556D01*
X228280297Y-52543293D01*
X228283909Y-52533261D01*
X228298286Y-52535383D01*
X228327264Y-52549580D01*
X228393681Y-52571480D01*
X228464125Y-52569928D01*
X228531623Y-52546147D01*
X228563767Y-52527362D01*
X228588285Y-52507022D01*
X228606196Y-52481573D01*
X228618521Y-52447458D01*
X228626277Y-52401121D01*
X228630484Y-52339007D01*
X228632160Y-52257561D01*
X228632376Y-52194578D01*
X228632376Y-51958614D01*
X228506633Y-51958614D01*
X228506633Y-52154342D01*
G37*
X228506633Y-52154342D02*
X228505445Y-52246563D01*
X228501103Y-52316610D01*
X228492442Y-52367381D01*
X228478296Y-52401772D01*
X228457500Y-52422679D01*
X228428890Y-52433000D01*
X228393465Y-52435636D01*
X228356364Y-52432682D01*
X228328182Y-52421889D01*
X228307757Y-52400360D01*
X228293921Y-52365199D01*
X228285509Y-52313510D01*
X228281357Y-52242394D01*
X228280297Y-52154342D01*
X228280297Y-51958614D01*
X228141980Y-51958614D01*
X228141980Y-52562179D01*
X228211138Y-52562179D01*
X228252830Y-52560489D01*
X228274299Y-52554556D01*
X228280297Y-52543293D01*
X228283909Y-52533261D01*
X228298286Y-52535383D01*
X228327264Y-52549580D01*
X228393681Y-52571480D01*
X228464125Y-52569928D01*
X228531623Y-52546147D01*
X228563767Y-52527362D01*
X228588285Y-52507022D01*
X228606196Y-52481573D01*
X228618521Y-52447458D01*
X228626277Y-52401121D01*
X228630484Y-52339007D01*
X228632160Y-52257561D01*
X228632376Y-52194578D01*
X228632376Y-51958614D01*
X228506633Y-51958614D01*
X228506633Y-52154342D01*
G36*
X227282774Y-51963880D02*
G01*
X227209920Y-51994830D01*
X227186973Y-52009895D01*
X227157646Y-52033048D01*
X227139236Y-52051253D01*
X227136039Y-52057183D01*
X227145065Y-52070340D01*
X227168163Y-52092667D01*
X227186656Y-52108250D01*
X227237272Y-52148926D01*
X227277240Y-52115295D01*
X227308126Y-52093584D01*
X227338241Y-52086090D01*
X227372708Y-52087920D01*
X227427439Y-52101528D01*
X227465114Y-52129772D01*
X227488009Y-52175433D01*
X227498403Y-52241289D01*
X227498405Y-52241331D01*
X227497506Y-52314939D01*
X227483537Y-52368946D01*
X227455672Y-52405716D01*
X227436675Y-52418168D01*
X227386224Y-52433673D01*
X227332337Y-52433683D01*
X227285454Y-52418638D01*
X227274356Y-52411287D01*
X227246524Y-52392511D01*
X227224764Y-52389434D01*
X227201296Y-52403409D01*
X227175351Y-52428510D01*
X227134284Y-52470880D01*
X227179879Y-52508464D01*
X227250326Y-52550882D01*
X227329767Y-52571785D01*
X227412785Y-52570272D01*
X227467306Y-52556411D01*
X227531030Y-52522135D01*
X227581995Y-52468212D01*
X227605149Y-52430149D01*
X227623901Y-52375536D01*
X227633285Y-52306369D01*
X227633357Y-52231407D01*
X227624176Y-52159409D01*
X227605801Y-52099137D01*
X227602907Y-52092958D01*
X227560048Y-52032351D01*
X227502021Y-51988224D01*
X227433409Y-51961493D01*
X227358799Y-51953073D01*
X227282774Y-51963880D01*
G37*
X227282774Y-51963880D02*
X227209920Y-51994830D01*
X227186973Y-52009895D01*
X227157646Y-52033048D01*
X227139236Y-52051253D01*
X227136039Y-52057183D01*
X227145065Y-52070340D01*
X227168163Y-52092667D01*
X227186656Y-52108250D01*
X227237272Y-52148926D01*
X227277240Y-52115295D01*
X227308126Y-52093584D01*
X227338241Y-52086090D01*
X227372708Y-52087920D01*
X227427439Y-52101528D01*
X227465114Y-52129772D01*
X227488009Y-52175433D01*
X227498403Y-52241289D01*
X227498405Y-52241331D01*
X227497506Y-52314939D01*
X227483537Y-52368946D01*
X227455672Y-52405716D01*
X227436675Y-52418168D01*
X227386224Y-52433673D01*
X227332337Y-52433683D01*
X227285454Y-52418638D01*
X227274356Y-52411287D01*
X227246524Y-52392511D01*
X227224764Y-52389434D01*
X227201296Y-52403409D01*
X227175351Y-52428510D01*
X227134284Y-52470880D01*
X227179879Y-52508464D01*
X227250326Y-52550882D01*
X227329767Y-52571785D01*
X227412785Y-52570272D01*
X227467306Y-52556411D01*
X227531030Y-52522135D01*
X227581995Y-52468212D01*
X227605149Y-52430149D01*
X227623901Y-52375536D01*
X227633285Y-52306369D01*
X227633357Y-52231407D01*
X227624176Y-52159409D01*
X227605801Y-52099137D01*
X227602907Y-52092958D01*
X227560048Y-52032351D01*
X227502021Y-51988224D01*
X227433409Y-51961493D01*
X227358799Y-51953073D01*
X227282774Y-51963880D01*
G36*
X226822102Y-51956457D02*
G01*
X226789904Y-51964279D01*
X226728175Y-51992921D01*
X226675390Y-52036667D01*
X226638859Y-52089117D01*
X226633840Y-52100893D01*
X226626955Y-52131740D01*
X226622136Y-52177371D01*
X226620495Y-52223492D01*
X226620495Y-52310693D01*
X226802822Y-52310693D01*
X226878021Y-52310978D01*
X226930997Y-52312704D01*
X226964675Y-52317181D01*
X226981980Y-52325720D01*
X226985837Y-52339630D01*
X226979171Y-52360222D01*
X226967230Y-52384315D01*
X226933920Y-52424525D01*
X226887632Y-52444558D01*
X226831056Y-52443905D01*
X226766969Y-52422101D01*
X226711583Y-52395193D01*
X226665625Y-52431532D01*
X226619667Y-52467872D01*
X226662904Y-52507819D01*
X226720626Y-52545563D01*
X226791614Y-52568320D01*
X226867971Y-52574688D01*
X226941801Y-52563268D01*
X226953713Y-52559393D01*
X227018601Y-52525506D01*
X227066870Y-52474986D01*
X227099535Y-52406325D01*
X227117615Y-52318014D01*
X227117825Y-52316121D01*
X227119444Y-52219878D01*
X227112900Y-52185542D01*
X226985148Y-52185542D01*
X226973416Y-52190822D01*
X226941562Y-52194867D01*
X226894603Y-52197176D01*
X226864846Y-52197525D01*
X226809352Y-52197306D01*
X226774654Y-52195916D01*
X226756399Y-52192251D01*
X226750234Y-52185210D01*
X226751805Y-52173690D01*
X226753122Y-52169233D01*
X226775618Y-52127355D01*
X226810997Y-52093604D01*
X226842220Y-52078773D01*
X226883699Y-52079668D01*
X226925731Y-52098164D01*
X226960988Y-52128786D01*
X226982146Y-52166062D01*
X226985148Y-52185542D01*
X227112900Y-52185542D01*
X227103310Y-52135229D01*
X227071302Y-52064191D01*
X227025299Y-52008779D01*
X226967179Y-51971009D01*
X226898820Y-51952896D01*
X226822102Y-51956457D01*
G37*
X226822102Y-51956457D02*
X226789904Y-51964279D01*
X226728175Y-51992921D01*
X226675390Y-52036667D01*
X226638859Y-52089117D01*
X226633840Y-52100893D01*
X226626955Y-52131740D01*
X226622136Y-52177371D01*
X226620495Y-52223492D01*
X226620495Y-52310693D01*
X226802822Y-52310693D01*
X226878021Y-52310978D01*
X226930997Y-52312704D01*
X226964675Y-52317181D01*
X226981980Y-52325720D01*
X226985837Y-52339630D01*
X226979171Y-52360222D01*
X226967230Y-52384315D01*
X226933920Y-52424525D01*
X226887632Y-52444558D01*
X226831056Y-52443905D01*
X226766969Y-52422101D01*
X226711583Y-52395193D01*
X226665625Y-52431532D01*
X226619667Y-52467872D01*
X226662904Y-52507819D01*
X226720626Y-52545563D01*
X226791614Y-52568320D01*
X226867971Y-52574688D01*
X226941801Y-52563268D01*
X226953713Y-52559393D01*
X227018601Y-52525506D01*
X227066870Y-52474986D01*
X227099535Y-52406325D01*
X227117615Y-52318014D01*
X227117825Y-52316121D01*
X227119444Y-52219878D01*
X227112900Y-52185542D01*
X226985148Y-52185542D01*
X226973416Y-52190822D01*
X226941562Y-52194867D01*
X226894603Y-52197176D01*
X226864846Y-52197525D01*
X226809352Y-52197306D01*
X226774654Y-52195916D01*
X226756399Y-52192251D01*
X226750234Y-52185210D01*
X226751805Y-52173690D01*
X226753122Y-52169233D01*
X226775618Y-52127355D01*
X226810997Y-52093604D01*
X226842220Y-52078773D01*
X226883699Y-52079668D01*
X226925731Y-52098164D01*
X226960988Y-52128786D01*
X226982146Y-52166062D01*
X226985148Y-52185542D01*
X227112900Y-52185542D01*
X227103310Y-52135229D01*
X227071302Y-52064191D01*
X227025299Y-52008779D01*
X226967179Y-51971009D01*
X226898820Y-51952896D01*
X226822102Y-51956457D01*
G36*
X230254012Y-51969002D02*
G01*
X230222717Y-51983950D01*
X230192409Y-52005541D01*
X230169318Y-52030391D01*
X230152500Y-52062087D01*
X230141006Y-52104214D01*
X230133891Y-52160358D01*
X230130207Y-52234106D01*
X230129008Y-52329044D01*
X230128989Y-52338985D01*
X230128713Y-52562179D01*
X230267030Y-52562179D01*
X230267030Y-52356418D01*
X230267128Y-52280189D01*
X230267809Y-52224939D01*
X230269651Y-52186501D01*
X230273233Y-52160706D01*
X230279132Y-52143384D01*
X230287927Y-52130368D01*
X230300180Y-52117507D01*
X230343047Y-52089873D01*
X230389843Y-52084745D01*
X230434424Y-52102217D01*
X230449928Y-52115221D01*
X230461310Y-52127447D01*
X230469481Y-52140540D01*
X230474974Y-52158615D01*
X230478320Y-52185787D01*
X230480051Y-52226170D01*
X230480697Y-52283879D01*
X230480792Y-52354132D01*
X230480792Y-52562179D01*
X230619109Y-52562179D01*
X230619109Y-51958614D01*
X230549950Y-51958614D01*
X230508428Y-51960256D01*
X230487006Y-51966087D01*
X230480795Y-51977461D01*
X230480792Y-51977798D01*
X230477910Y-51988938D01*
X230465199Y-51987674D01*
X230439926Y-51975434D01*
X230382605Y-51957424D01*
X230317037Y-51955421D01*
X230254012Y-51969002D01*
G37*
X230254012Y-51969002D02*
X230222717Y-51983950D01*
X230192409Y-52005541D01*
X230169318Y-52030391D01*
X230152500Y-52062087D01*
X230141006Y-52104214D01*
X230133891Y-52160358D01*
X230130207Y-52234106D01*
X230129008Y-52329044D01*
X230128989Y-52338985D01*
X230128713Y-52562179D01*
X230267030Y-52562179D01*
X230267030Y-52356418D01*
X230267128Y-52280189D01*
X230267809Y-52224939D01*
X230269651Y-52186501D01*
X230273233Y-52160706D01*
X230279132Y-52143384D01*
X230287927Y-52130368D01*
X230300180Y-52117507D01*
X230343047Y-52089873D01*
X230389843Y-52084745D01*
X230434424Y-52102217D01*
X230449928Y-52115221D01*
X230461310Y-52127447D01*
X230469481Y-52140540D01*
X230474974Y-52158615D01*
X230478320Y-52185787D01*
X230480051Y-52226170D01*
X230480697Y-52283879D01*
X230480792Y-52354132D01*
X230480792Y-52562179D01*
X230619109Y-52562179D01*
X230619109Y-51958614D01*
X230549950Y-51958614D01*
X230508428Y-51960256D01*
X230487006Y-51966087D01*
X230480795Y-51977461D01*
X230480792Y-51977798D01*
X230477910Y-51988938D01*
X230465199Y-51987674D01*
X230439926Y-51975434D01*
X230382605Y-51957424D01*
X230317037Y-51955421D01*
X230254012Y-51969002D01*
G36*
X227700540Y-51958030D02*
G01*
X227657289Y-51971245D01*
X227629442Y-51987941D01*
X227620371Y-52001145D01*
X227622868Y-52016797D01*
X227639069Y-52041385D01*
X227652768Y-52058800D01*
X227681008Y-52090283D01*
X227702225Y-52103529D01*
X227720312Y-52102664D01*
X227773965Y-52089010D01*
X227813370Y-52089630D01*
X227845368Y-52105104D01*
X227856110Y-52114161D01*
X227890495Y-52146027D01*
X227890495Y-52562179D01*
X228028812Y-52562179D01*
X228028812Y-51958614D01*
X227959653Y-51958614D01*
X227918131Y-51960256D01*
X227896709Y-51966087D01*
X227890498Y-51977461D01*
X227890495Y-51977798D01*
X227887561Y-51989713D01*
X227874296Y-51988159D01*
X227855916Y-51979563D01*
X227817954Y-51963568D01*
X227787128Y-51953945D01*
X227747464Y-51951478D01*
X227700540Y-51958030D01*
G37*
X227700540Y-51958030D02*
X227657289Y-51971245D01*
X227629442Y-51987941D01*
X227620371Y-52001145D01*
X227622868Y-52016797D01*
X227639069Y-52041385D01*
X227652768Y-52058800D01*
X227681008Y-52090283D01*
X227702225Y-52103529D01*
X227720312Y-52102664D01*
X227773965Y-52089010D01*
X227813370Y-52089630D01*
X227845368Y-52105104D01*
X227856110Y-52114161D01*
X227890495Y-52146027D01*
X227890495Y-52562179D01*
X228028812Y-52562179D01*
X228028812Y-51958614D01*
X227959653Y-51958614D01*
X227918131Y-51960256D01*
X227896709Y-51966087D01*
X227890498Y-51977461D01*
X227890495Y-51977798D01*
X227887561Y-51989713D01*
X227874296Y-51988159D01*
X227855916Y-51979563D01*
X227817954Y-51963568D01*
X227787128Y-51953945D01*
X227747464Y-51951478D01*
X227700540Y-51958030D01*
G36*
X229123036Y-47790018D02*
G01*
X229066188Y-48091570D01*
X228646662Y-48264512D01*
X228395016Y-48093395D01*
X228324542Y-48045750D01*
X228260837Y-48003210D01*
X228206874Y-47967715D01*
X228165627Y-47941210D01*
X228140066Y-47925636D01*
X228133105Y-47922278D01*
X228120565Y-47930914D01*
X228093769Y-47954792D01*
X228055720Y-47990859D01*
X228009421Y-48036067D01*
X227957877Y-48087364D01*
X227904091Y-48141701D01*
X227851065Y-48196028D01*
X227801805Y-48247295D01*
X227759313Y-48292451D01*
X227726593Y-48328446D01*
X227706649Y-48352230D01*
X227701881Y-48360190D01*
X227708743Y-48374865D01*
X227727980Y-48407014D01*
X227757570Y-48453492D01*
X227795490Y-48511156D01*
X227839718Y-48576860D01*
X227865346Y-48614336D01*
X227912059Y-48682768D01*
X227953568Y-48744520D01*
X227987860Y-48796519D01*
X228012920Y-48835692D01*
X228026736Y-48858965D01*
X228028812Y-48863855D01*
X228024105Y-48877755D01*
X228011277Y-48910150D01*
X227992262Y-48956485D01*
X227968997Y-49012206D01*
X227943416Y-49072758D01*
X227917455Y-49133586D01*
X227893050Y-49190136D01*
X227872137Y-49237852D01*
X227856651Y-49272181D01*
X227848528Y-49288568D01*
X227848048Y-49289212D01*
X227835293Y-49292341D01*
X227801323Y-49299321D01*
X227749660Y-49309467D01*
X227683824Y-49322092D01*
X227607336Y-49336509D01*
X227562710Y-49344823D01*
X227480979Y-49360384D01*
X227407157Y-49375192D01*
X227344979Y-49388436D01*
X227298178Y-49399305D01*
X227270491Y-49406989D01*
X227264926Y-49409427D01*
X227259474Y-49425930D01*
X227255076Y-49463200D01*
X227251728Y-49516880D01*
X227249426Y-49582612D01*
X227248168Y-49656037D01*
X227247952Y-49732796D01*
X227248773Y-49808532D01*
X227250629Y-49878886D01*
X227253518Y-49939500D01*
X227257435Y-49986016D01*
X227262378Y-50014075D01*
X227265343Y-50019916D01*
X227283066Y-50026917D01*
X227320619Y-50036927D01*
X227373036Y-50048769D01*
X227435348Y-50061267D01*
X227457100Y-50065310D01*
X227561976Y-50084520D01*
X227644820Y-50099991D01*
X227708370Y-50112337D01*
X227755363Y-50122173D01*
X227788537Y-50130114D01*
X227810629Y-50136776D01*
X227824376Y-50142773D01*
X227832516Y-50148719D01*
X227833655Y-50149894D01*
X227845023Y-50168826D01*
X227862365Y-50205669D01*
X227883950Y-50255913D01*
X227908046Y-50315046D01*
X227932921Y-50378556D01*
X227956843Y-50441932D01*
X227978081Y-50500662D01*
X227994903Y-50550235D01*
X228005578Y-50586139D01*
X228008373Y-50603862D01*
X228008140Y-50604483D01*
X227998669Y-50618970D01*
X227977182Y-50650844D01*
X227945937Y-50696789D01*
X227907193Y-50753485D01*
X227863207Y-50817617D01*
X227850681Y-50835842D01*
X227806016Y-50901914D01*
X227766712Y-50962200D01*
X227734912Y-51013235D01*
X227712755Y-51051560D01*
X227702383Y-51073711D01*
X227701881Y-51076432D01*
X227710595Y-51090736D01*
X227734675Y-51119072D01*
X227771024Y-51158396D01*
X227816547Y-51205661D01*
X227868148Y-51257823D01*
X227922733Y-51311835D01*
X227977206Y-51364653D01*
X228028471Y-51413231D01*
X228073433Y-51454523D01*
X228108996Y-51485485D01*
X228132065Y-51503070D01*
X228138446Y-51505941D01*
X228153301Y-51499178D01*
X228183714Y-51480939D01*
X228224732Y-51454297D01*
X228256291Y-51432852D01*
X228313475Y-51393503D01*
X228381194Y-51347171D01*
X228449120Y-51300913D01*
X228485639Y-51276155D01*
X228609248Y-51192547D01*
X228713009Y-51248650D01*
X228760280Y-51273228D01*
X228800477Y-51292331D01*
X228827674Y-51303227D01*
X228834598Y-51304743D01*
X228842923Y-51293549D01*
X228859346Y-51261917D01*
X228882643Y-51212765D01*
X228911586Y-51149010D01*
X228944950Y-51073571D01*
X228981509Y-50989364D01*
X229020036Y-50899308D01*
X229059306Y-50806321D01*
X229098092Y-50713320D01*
X229135170Y-50623223D01*
X229169311Y-50538948D01*
X229199292Y-50463413D01*
X229223884Y-50399534D01*
X229241864Y-50350231D01*
X229252003Y-50318421D01*
X229253634Y-50307496D01*
X229240709Y-50293561D01*
X229212411Y-50270940D01*
X229174654Y-50244333D01*
X229171485Y-50242228D01*
X229073900Y-50164114D01*
X228995214Y-50072982D01*
X228936109Y-49971745D01*
X228897268Y-49863318D01*
X228879372Y-49750614D01*
X228883103Y-49636548D01*
X228909143Y-49524034D01*
X228958175Y-49415985D01*
X228972600Y-49392345D01*
X229047631Y-49296887D01*
X229136270Y-49220232D01*
X229235451Y-49162780D01*
X229342105Y-49124929D01*
X229453164Y-49107078D01*
X229565561Y-49109625D01*
X229676227Y-49132970D01*
X229782094Y-49177510D01*
X229880095Y-49243645D01*
X229910410Y-49270487D01*
X229987562Y-49354512D01*
X230043782Y-49442966D01*
X230082347Y-49542115D01*
X230103826Y-49640303D01*
X230109128Y-49750697D01*
X230091448Y-49861640D01*
X230052581Y-49969381D01*
X229994323Y-50070169D01*
X229918469Y-50160256D01*
X229826817Y-50235892D01*
X229814772Y-50243864D01*
X229776611Y-50269974D01*
X229747601Y-50292595D01*
X229733732Y-50307039D01*
X229733531Y-50307496D01*
X229736508Y-50323121D01*
X229748311Y-50358582D01*
X229767714Y-50410962D01*
X229793488Y-50477345D01*
X229824409Y-50554814D01*
X229859249Y-50640450D01*
X229896783Y-50731337D01*
X229935783Y-50824559D01*
X229975023Y-50917197D01*
X230013276Y-51006335D01*
X230049317Y-51089055D01*
X230081917Y-51162441D01*
X230109852Y-51223575D01*
X230131895Y-51269541D01*
X230146818Y-51297421D01*
X230152828Y-51304743D01*
X230171191Y-51299041D01*
X230205552Y-51283749D01*
X230249984Y-51261599D01*
X230274417Y-51248650D01*
X230378178Y-51192547D01*
X230501787Y-51276155D01*
X230564886Y-51318987D01*
X230633970Y-51366122D01*
X230698707Y-51410503D01*
X230731134Y-51432852D01*
X230776741Y-51463477D01*
X230815360Y-51487747D01*
X230841952Y-51502587D01*
X230850590Y-51505724D01*
X230863161Y-51497261D01*
X230890984Y-51473636D01*
X230931361Y-51437302D01*
X230981595Y-51390711D01*
X231038988Y-51336317D01*
X231075286Y-51301392D01*
X231138790Y-51238996D01*
X231193673Y-51183188D01*
X231237714Y-51136354D01*
X231268695Y-51100882D01*
X231284398Y-51079161D01*
X231285905Y-51074752D01*
X231278914Y-51057985D01*
X231259594Y-51024082D01*
X231230091Y-50976476D01*
X231192545Y-50918599D01*
X231149100Y-50853884D01*
X231136745Y-50835842D01*
X231091727Y-50770267D01*
X231051340Y-50711228D01*
X231017840Y-50662042D01*
X230993486Y-50626028D01*
X230980536Y-50606502D01*
X230979285Y-50604483D01*
X230981156Y-50588922D01*
X230991087Y-50554709D01*
X231007347Y-50506355D01*
X231028205Y-50448371D01*
X231051927Y-50385270D01*
X231076784Y-50321563D01*
X231101042Y-50261761D01*
X231122971Y-50210376D01*
X231140838Y-50171919D01*
X231152913Y-50150902D01*
X231153771Y-50149894D01*
X231161154Y-50143888D01*
X231173625Y-50137948D01*
X231193920Y-50131460D01*
X231224778Y-50123809D01*
X231268934Y-50114380D01*
X231329126Y-50102559D01*
X231408093Y-50087729D01*
X231508570Y-50069277D01*
X231530325Y-50065310D01*
X231594802Y-50052853D01*
X231651011Y-50040666D01*
X231693987Y-50029926D01*
X231718760Y-50021809D01*
X231722082Y-50019916D01*
X231727556Y-50003138D01*
X231732006Y-49965645D01*
X231735428Y-49911794D01*
X231737819Y-49845944D01*
X231739177Y-49772453D01*
X231739499Y-49695680D01*
X231738781Y-49619983D01*
X231737021Y-49549720D01*
X231734216Y-49489250D01*
X231730362Y-49442930D01*
X231725457Y-49415119D01*
X231722500Y-49409427D01*
X231706037Y-49403686D01*
X231668551Y-49394345D01*
X231613775Y-49382215D01*
X231545445Y-49368107D01*
X231467294Y-49352830D01*
X231424716Y-49344823D01*
X231343929Y-49329721D01*
X231271887Y-49316040D01*
X231212111Y-49304467D01*
X231168121Y-49295687D01*
X231143439Y-49290387D01*
X231139377Y-49289212D01*
X231132511Y-49275965D01*
X231117998Y-49244057D01*
X231097771Y-49198047D01*
X231073766Y-49142492D01*
X231047918Y-49081953D01*
X231022160Y-49020986D01*
X230998427Y-48964151D01*
X230978654Y-48916006D01*
X230964776Y-48881110D01*
X230958726Y-48864021D01*
X230958614Y-48863274D01*
X230965472Y-48849793D01*
X230984698Y-48818770D01*
X231014272Y-48773289D01*
X231052173Y-48716432D01*
X231096380Y-48651283D01*
X231122079Y-48613862D01*
X231168907Y-48545247D01*
X231210499Y-48482952D01*
X231244825Y-48430129D01*
X231269857Y-48389927D01*
X231283565Y-48365500D01*
X231285544Y-48360024D01*
X231277034Y-48347278D01*
X231253507Y-48320063D01*
X231217968Y-48281428D01*
X231173423Y-48234423D01*
X231122877Y-48182095D01*
X231069336Y-48127495D01*
X231015805Y-48073670D01*
X230965289Y-48023670D01*
X230920794Y-47980543D01*
X230885325Y-47947339D01*
X230861887Y-47927106D01*
X230854046Y-47922278D01*
X230841280Y-47929067D01*
X230810744Y-47948142D01*
X230765410Y-47977561D01*
X230708244Y-48015381D01*
X230642216Y-48059661D01*
X230592410Y-48093395D01*
X230340764Y-48264512D01*
X230131001Y-48178041D01*
X229921237Y-48091570D01*
X229864389Y-47790018D01*
X229807540Y-47488466D01*
X229179885Y-47488466D01*
X229123036Y-47790018D01*
G37*
X229123036Y-47790018D02*
X229066188Y-48091570D01*
X228646662Y-48264512D01*
X228395016Y-48093395D01*
X228324542Y-48045750D01*
X228260837Y-48003210D01*
X228206874Y-47967715D01*
X228165627Y-47941210D01*
X228140066Y-47925636D01*
X228133105Y-47922278D01*
X228120565Y-47930914D01*
X228093769Y-47954792D01*
X228055720Y-47990859D01*
X228009421Y-48036067D01*
X227957877Y-48087364D01*
X227904091Y-48141701D01*
X227851065Y-48196028D01*
X227801805Y-48247295D01*
X227759313Y-48292451D01*
X227726593Y-48328446D01*
X227706649Y-48352230D01*
X227701881Y-48360190D01*
X227708743Y-48374865D01*
X227727980Y-48407014D01*
X227757570Y-48453492D01*
X227795490Y-48511156D01*
X227839718Y-48576860D01*
X227865346Y-48614336D01*
X227912059Y-48682768D01*
X227953568Y-48744520D01*
X227987860Y-48796519D01*
X228012920Y-48835692D01*
X228026736Y-48858965D01*
X228028812Y-48863855D01*
X228024105Y-48877755D01*
X228011277Y-48910150D01*
X227992262Y-48956485D01*
X227968997Y-49012206D01*
X227943416Y-49072758D01*
X227917455Y-49133586D01*
X227893050Y-49190136D01*
X227872137Y-49237852D01*
X227856651Y-49272181D01*
X227848528Y-49288568D01*
X227848048Y-49289212D01*
X227835293Y-49292341D01*
X227801323Y-49299321D01*
X227749660Y-49309467D01*
X227683824Y-49322092D01*
X227607336Y-49336509D01*
X227562710Y-49344823D01*
X227480979Y-49360384D01*
X227407157Y-49375192D01*
X227344979Y-49388436D01*
X227298178Y-49399305D01*
X227270491Y-49406989D01*
X227264926Y-49409427D01*
X227259474Y-49425930D01*
X227255076Y-49463200D01*
X227251728Y-49516880D01*
X227249426Y-49582612D01*
X227248168Y-49656037D01*
X227247952Y-49732796D01*
X227248773Y-49808532D01*
X227250629Y-49878886D01*
X227253518Y-49939500D01*
X227257435Y-49986016D01*
X227262378Y-50014075D01*
X227265343Y-50019916D01*
X227283066Y-50026917D01*
X227320619Y-50036927D01*
X227373036Y-50048769D01*
X227435348Y-50061267D01*
X227457100Y-50065310D01*
X227561976Y-50084520D01*
X227644820Y-50099991D01*
X227708370Y-50112337D01*
X227755363Y-50122173D01*
X227788537Y-50130114D01*
X227810629Y-50136776D01*
X227824376Y-50142773D01*
X227832516Y-50148719D01*
X227833655Y-50149894D01*
X227845023Y-50168826D01*
X227862365Y-50205669D01*
X227883950Y-50255913D01*
X227908046Y-50315046D01*
X227932921Y-50378556D01*
X227956843Y-50441932D01*
X227978081Y-50500662D01*
X227994903Y-50550235D01*
X228005578Y-50586139D01*
X228008373Y-50603862D01*
X228008140Y-50604483D01*
X227998669Y-50618970D01*
X227977182Y-50650844D01*
X227945937Y-50696789D01*
X227907193Y-50753485D01*
X227863207Y-50817617D01*
X227850681Y-50835842D01*
X227806016Y-50901914D01*
X227766712Y-50962200D01*
X227734912Y-51013235D01*
X227712755Y-51051560D01*
X227702383Y-51073711D01*
X227701881Y-51076432D01*
X227710595Y-51090736D01*
X227734675Y-51119072D01*
X227771024Y-51158396D01*
X227816547Y-51205661D01*
X227868148Y-51257823D01*
X227922733Y-51311835D01*
X227977206Y-51364653D01*
X228028471Y-51413231D01*
X228073433Y-51454523D01*
X228108996Y-51485485D01*
X228132065Y-51503070D01*
X228138446Y-51505941D01*
X228153301Y-51499178D01*
X228183714Y-51480939D01*
X228224732Y-51454297D01*
X228256291Y-51432852D01*
X228313475Y-51393503D01*
X228381194Y-51347171D01*
X228449120Y-51300913D01*
X228485639Y-51276155D01*
X228609248Y-51192547D01*
X228713009Y-51248650D01*
X228760280Y-51273228D01*
X228800477Y-51292331D01*
X228827674Y-51303227D01*
X228834598Y-51304743D01*
X228842923Y-51293549D01*
X228859346Y-51261917D01*
X228882643Y-51212765D01*
X228911586Y-51149010D01*
X228944950Y-51073571D01*
X228981509Y-50989364D01*
X229020036Y-50899308D01*
X229059306Y-50806321D01*
X229098092Y-50713320D01*
X229135170Y-50623223D01*
X229169311Y-50538948D01*
X229199292Y-50463413D01*
X229223884Y-50399534D01*
X229241864Y-50350231D01*
X229252003Y-50318421D01*
X229253634Y-50307496D01*
X229240709Y-50293561D01*
X229212411Y-50270940D01*
X229174654Y-50244333D01*
X229171485Y-50242228D01*
X229073900Y-50164114D01*
X228995214Y-50072982D01*
X228936109Y-49971745D01*
X228897268Y-49863318D01*
X228879372Y-49750614D01*
X228883103Y-49636548D01*
X228909143Y-49524034D01*
X228958175Y-49415985D01*
X228972600Y-49392345D01*
X229047631Y-49296887D01*
X229136270Y-49220232D01*
X229235451Y-49162780D01*
X229342105Y-49124929D01*
X229453164Y-49107078D01*
X229565561Y-49109625D01*
X229676227Y-49132970D01*
X229782094Y-49177510D01*
X229880095Y-49243645D01*
X229910410Y-49270487D01*
X229987562Y-49354512D01*
X230043782Y-49442966D01*
X230082347Y-49542115D01*
X230103826Y-49640303D01*
X230109128Y-49750697D01*
X230091448Y-49861640D01*
X230052581Y-49969381D01*
X229994323Y-50070169D01*
X229918469Y-50160256D01*
X229826817Y-50235892D01*
X229814772Y-50243864D01*
X229776611Y-50269974D01*
X229747601Y-50292595D01*
X229733732Y-50307039D01*
X229733531Y-50307496D01*
X229736508Y-50323121D01*
X229748311Y-50358582D01*
X229767714Y-50410962D01*
X229793488Y-50477345D01*
X229824409Y-50554814D01*
X229859249Y-50640450D01*
X229896783Y-50731337D01*
X229935783Y-50824559D01*
X229975023Y-50917197D01*
X230013276Y-51006335D01*
X230049317Y-51089055D01*
X230081917Y-51162441D01*
X230109852Y-51223575D01*
X230131895Y-51269541D01*
X230146818Y-51297421D01*
X230152828Y-51304743D01*
X230171191Y-51299041D01*
X230205552Y-51283749D01*
X230249984Y-51261599D01*
X230274417Y-51248650D01*
X230378178Y-51192547D01*
X230501787Y-51276155D01*
X230564886Y-51318987D01*
X230633970Y-51366122D01*
X230698707Y-51410503D01*
X230731134Y-51432852D01*
X230776741Y-51463477D01*
X230815360Y-51487747D01*
X230841952Y-51502587D01*
X230850590Y-51505724D01*
X230863161Y-51497261D01*
X230890984Y-51473636D01*
X230931361Y-51437302D01*
X230981595Y-51390711D01*
X231038988Y-51336317D01*
X231075286Y-51301392D01*
X231138790Y-51238996D01*
X231193673Y-51183188D01*
X231237714Y-51136354D01*
X231268695Y-51100882D01*
X231284398Y-51079161D01*
X231285905Y-51074752D01*
X231278914Y-51057985D01*
X231259594Y-51024082D01*
X231230091Y-50976476D01*
X231192545Y-50918599D01*
X231149100Y-50853884D01*
X231136745Y-50835842D01*
X231091727Y-50770267D01*
X231051340Y-50711228D01*
X231017840Y-50662042D01*
X230993486Y-50626028D01*
X230980536Y-50606502D01*
X230979285Y-50604483D01*
X230981156Y-50588922D01*
X230991087Y-50554709D01*
X231007347Y-50506355D01*
X231028205Y-50448371D01*
X231051927Y-50385270D01*
X231076784Y-50321563D01*
X231101042Y-50261761D01*
X231122971Y-50210376D01*
X231140838Y-50171919D01*
X231152913Y-50150902D01*
X231153771Y-50149894D01*
X231161154Y-50143888D01*
X231173625Y-50137948D01*
X231193920Y-50131460D01*
X231224778Y-50123809D01*
X231268934Y-50114380D01*
X231329126Y-50102559D01*
X231408093Y-50087729D01*
X231508570Y-50069277D01*
X231530325Y-50065310D01*
X231594802Y-50052853D01*
X231651011Y-50040666D01*
X231693987Y-50029926D01*
X231718760Y-50021809D01*
X231722082Y-50019916D01*
X231727556Y-50003138D01*
X231732006Y-49965645D01*
X231735428Y-49911794D01*
X231737819Y-49845944D01*
X231739177Y-49772453D01*
X231739499Y-49695680D01*
X231738781Y-49619983D01*
X231737021Y-49549720D01*
X231734216Y-49489250D01*
X231730362Y-49442930D01*
X231725457Y-49415119D01*
X231722500Y-49409427D01*
X231706037Y-49403686D01*
X231668551Y-49394345D01*
X231613775Y-49382215D01*
X231545445Y-49368107D01*
X231467294Y-49352830D01*
X231424716Y-49344823D01*
X231343929Y-49329721D01*
X231271887Y-49316040D01*
X231212111Y-49304467D01*
X231168121Y-49295687D01*
X231143439Y-49290387D01*
X231139377Y-49289212D01*
X231132511Y-49275965D01*
X231117998Y-49244057D01*
X231097771Y-49198047D01*
X231073766Y-49142492D01*
X231047918Y-49081953D01*
X231022160Y-49020986D01*
X230998427Y-48964151D01*
X230978654Y-48916006D01*
X230964776Y-48881110D01*
X230958726Y-48864021D01*
X230958614Y-48863274D01*
X230965472Y-48849793D01*
X230984698Y-48818770D01*
X231014272Y-48773289D01*
X231052173Y-48716432D01*
X231096380Y-48651283D01*
X231122079Y-48613862D01*
X231168907Y-48545247D01*
X231210499Y-48482952D01*
X231244825Y-48430129D01*
X231269857Y-48389927D01*
X231283565Y-48365500D01*
X231285544Y-48360024D01*
X231277034Y-48347278D01*
X231253507Y-48320063D01*
X231217968Y-48281428D01*
X231173423Y-48234423D01*
X231122877Y-48182095D01*
X231069336Y-48127495D01*
X231015805Y-48073670D01*
X230965289Y-48023670D01*
X230920794Y-47980543D01*
X230885325Y-47947339D01*
X230861887Y-47927106D01*
X230854046Y-47922278D01*
X230841280Y-47929067D01*
X230810744Y-47948142D01*
X230765410Y-47977561D01*
X230708244Y-48015381D01*
X230642216Y-48059661D01*
X230592410Y-48093395D01*
X230340764Y-48264512D01*
X230131001Y-48178041D01*
X229921237Y-48091570D01*
X229864389Y-47790018D01*
X229807540Y-47488466D01*
X229179885Y-47488466D01*
X229123036Y-47790018D01*
M02*
