%TF.GenerationSoftware,KiCad,Pcbnew,(5.1.9)-1*%
%TF.CreationDate,2021-09-07T11:59:18+02:00*%
%TF.ProjectId,DDS_mount,4444535f-6d6f-4756-9e74-2e6b69636164,rev?*%
%TF.SameCoordinates,Original*%
%TF.FileFunction,Copper,L1,Top*%
%TF.FilePolarity,Positive*%
%FSLAX46Y46*%
G04 Gerber Fmt 4.6, Leading zero omitted, Abs format (unit mm)*
G04 Created by KiCad (PCBNEW (5.1.9)-1) date 2021-09-07 11:59:18*
%MOMM*%
%LPD*%
G01*
G04 APERTURE LIST*
%TA.AperFunction,ComponentPad*%
%ADD10C,5.600000*%
%TD*%
%TA.AperFunction,ComponentPad*%
%ADD11O,1.700000X1.700000*%
%TD*%
%TA.AperFunction,ComponentPad*%
%ADD12R,1.700000X1.700000*%
%TD*%
%TA.AperFunction,ComponentPad*%
%ADD13C,11.500000*%
%TD*%
%TA.AperFunction,Conductor*%
%ADD14C,0.250000*%
%TD*%
%TA.AperFunction,Conductor*%
%ADD15C,0.254000*%
%TD*%
%TA.AperFunction,Conductor*%
%ADD16C,0.100000*%
%TD*%
G04 APERTURE END LIST*
D10*
%TO.P,J1,~*%
%TO.N,N/C*%
X206500000Y-90000000D03*
X149500000Y-90000000D03*
X206500000Y-139000000D03*
X149500000Y-139000000D03*
D11*
%TO.P,J1,20*%
%TO.N,Net-(J1-Pad20)*%
X164790000Y-138440000D03*
%TO.P,J1,19*%
%TO.N,Net-(J1-Pad19)*%
X164790000Y-135900000D03*
%TO.P,J1,18*%
%TO.N,Net-(J1-Pad18)*%
X167330000Y-138440000D03*
%TO.P,J1,17*%
%TO.N,Net-(J1-Pad17)*%
X167330000Y-135900000D03*
%TO.P,J1,16*%
%TO.N,Net-(J1-Pad16)*%
X169870000Y-138440000D03*
%TO.P,J1,15*%
%TO.N,Net-(J1-Pad15)*%
X169870000Y-135900000D03*
%TO.P,J1,14*%
%TO.N,Net-(J1-Pad14)*%
X172410000Y-138440000D03*
%TO.P,J1,13*%
%TO.N,Net-(J1-Pad13)*%
X172410000Y-135900000D03*
%TO.P,J1,12*%
%TO.N,Net-(J1-Pad12)*%
X174950000Y-138440000D03*
%TO.P,J1,11*%
%TO.N,Net-(J1-Pad11)*%
X174950000Y-135900000D03*
%TO.P,J1,10*%
%TO.N,Net-(J1-Pad10)*%
X177490000Y-138440000D03*
%TO.P,J1,9*%
%TO.N,Net-(J1-Pad9)*%
X177490000Y-135900000D03*
%TO.P,J1,8*%
%TO.N,Net-(J1-Pad8)*%
X180030000Y-138440000D03*
%TO.P,J1,7*%
%TO.N,Net-(J1-Pad7)*%
X180030000Y-135900000D03*
%TO.P,J1,6*%
%TO.N,Net-(J1-Pad6)*%
X182570000Y-138440000D03*
%TO.P,J1,5*%
%TO.N,Net-(J1-Pad5)*%
X182570000Y-135900000D03*
%TO.P,J1,4*%
%TO.N,Net-(J1-Pad4)*%
X185110000Y-138440000D03*
%TO.P,J1,3*%
%TO.N,Net-(J1-Pad3)*%
X185110000Y-135900000D03*
%TO.P,J1,2*%
%TO.N,Net-(J1-Pad2)*%
X187650000Y-138440000D03*
D12*
%TO.P,J1,1*%
%TO.N,Net-(J1-Pad1)*%
X187650000Y-135900000D03*
%TD*%
D13*
%TO.P,J2,~*%
%TO.N,N/C*%
X167750000Y-79250000D03*
X167750000Y-66250000D03*
X78250000Y-79250000D03*
X78250000Y-66250000D03*
D10*
X169000000Y-126500000D03*
X169000000Y-57500000D03*
X77000000Y-57500000D03*
X77000000Y-126500000D03*
D11*
%TO.P,J2,20*%
%TO.N,Net-(J1-Pad20)*%
X117860000Y-116960000D03*
%TO.P,J2,19*%
%TO.N,Net-(J1-Pad19)*%
X117860000Y-119500000D03*
%TO.P,J2,18*%
%TO.N,Net-(J1-Pad18)*%
X115320000Y-116960000D03*
%TO.P,J2,17*%
%TO.N,Net-(J1-Pad17)*%
X115320000Y-119500000D03*
%TO.P,J2,16*%
%TO.N,Net-(J1-Pad16)*%
X112780000Y-116960000D03*
%TO.P,J2,15*%
%TO.N,Net-(J1-Pad15)*%
X112780000Y-119500000D03*
%TO.P,J2,14*%
%TO.N,Net-(J1-Pad14)*%
X110240000Y-116960000D03*
%TO.P,J2,13*%
%TO.N,Net-(J1-Pad13)*%
X110240000Y-119500000D03*
%TO.P,J2,12*%
%TO.N,Net-(J1-Pad12)*%
X107700000Y-116960000D03*
%TO.P,J2,11*%
%TO.N,Net-(J1-Pad11)*%
X107700000Y-119500000D03*
%TO.P,J2,10*%
%TO.N,Net-(J1-Pad10)*%
X105160000Y-116960000D03*
%TO.P,J2,9*%
%TO.N,Net-(J1-Pad9)*%
X105160000Y-119500000D03*
%TO.P,J2,8*%
%TO.N,Net-(J1-Pad8)*%
X102620000Y-116960000D03*
%TO.P,J2,7*%
%TO.N,Net-(J1-Pad7)*%
X102620000Y-119500000D03*
%TO.P,J2,6*%
%TO.N,Net-(J1-Pad6)*%
X100080000Y-116960000D03*
%TO.P,J2,5*%
%TO.N,Net-(J1-Pad5)*%
X100080000Y-119500000D03*
%TO.P,J2,4*%
%TO.N,Net-(J1-Pad4)*%
X97540000Y-116960000D03*
%TO.P,J2,3*%
%TO.N,Net-(J1-Pad3)*%
X97540000Y-119500000D03*
%TO.P,J2,2*%
%TO.N,Net-(J1-Pad2)*%
X95000000Y-116960000D03*
D12*
%TO.P,J2,1*%
%TO.N,Net-(J1-Pad1)*%
X95000000Y-119500000D03*
%TD*%
%TO.P,J3,1*%
%TO.N,GND*%
%TA.AperFunction,ComponentPad*%
G36*
G01*
X116725000Y-142025001D02*
X116725000Y-139974999D01*
G75*
G02*
X116974999Y-139725000I249999J0D01*
G01*
X119025001Y-139725000D01*
G75*
G02*
X119275000Y-139974999I0J-249999D01*
G01*
X119275000Y-142025001D01*
G75*
G02*
X119025001Y-142275000I-249999J0D01*
G01*
X116974999Y-142275000D01*
G75*
G02*
X116725000Y-142025001I0J249999D01*
G01*
G37*
%TD.AperFunction*%
%TD*%
D14*
%TO.N,Net-(J1-Pad1)*%
X95000000Y-119500000D02*
X95000000Y-119300000D01*
X96364999Y-117935001D02*
X96364999Y-115235001D01*
X95000000Y-119300000D02*
X96364999Y-117935001D01*
X96364999Y-115235001D02*
X100600000Y-111000000D01*
X100600000Y-111000000D02*
X145700000Y-111000000D01*
X165720511Y-131020511D02*
X182679489Y-131020511D01*
X145700000Y-111000000D02*
X165720511Y-131020511D01*
X187558978Y-135900000D02*
X187650000Y-135900000D01*
X182679489Y-131020511D02*
X187558978Y-135900000D01*
%TO.N,Net-(J1-Pad2)*%
X93824999Y-118135001D02*
X95000000Y-116960000D01*
X93824999Y-122549999D02*
X93824999Y-118135001D01*
X96975050Y-125700050D02*
X93824999Y-122549999D01*
X143181592Y-125700050D02*
X96975050Y-125700050D01*
X160696617Y-143215075D02*
X143181592Y-125700050D01*
X182874925Y-143215075D02*
X160696617Y-143215075D01*
X187650000Y-138440000D02*
X182874925Y-143215075D01*
%TO.N,Net-(J1-Pad3)*%
X98715001Y-118324999D02*
X97540000Y-119500000D01*
X98715001Y-116584999D02*
X98715001Y-118324999D01*
X145556676Y-111549990D02*
X103750010Y-111549990D01*
X103750010Y-111549990D02*
X98715001Y-116584999D01*
X165477207Y-131470521D02*
X145556676Y-111549990D01*
X180680521Y-131470521D02*
X165477207Y-131470521D01*
X185110000Y-135900000D02*
X180680521Y-131470521D01*
%TO.N,Net-(J1-Pad4)*%
X96364999Y-120064001D02*
X101551038Y-125250040D01*
X96364999Y-118910001D02*
X96364999Y-120064001D01*
X97540000Y-117735000D02*
X96364999Y-118910001D01*
X97540000Y-116960000D02*
X97540000Y-117735000D01*
X180784934Y-142765066D02*
X185110000Y-138440000D01*
X160883018Y-142765066D02*
X180784934Y-142765066D01*
X143367990Y-125250040D02*
X160883018Y-142765066D01*
X101551038Y-125250040D02*
X143367990Y-125250040D01*
%TO.N,Net-(J1-Pad5)*%
X101255001Y-116585997D02*
X105840998Y-112000000D01*
X101255001Y-118324999D02*
X101255001Y-116585997D01*
X100080000Y-119500000D02*
X101255001Y-118324999D01*
X145370276Y-112000000D02*
X165290807Y-131920531D01*
X105840998Y-112000000D02*
X145370276Y-112000000D01*
X178590531Y-131920531D02*
X182570000Y-135900000D01*
X165290807Y-131920531D02*
X178590531Y-131920531D01*
%TO.N,Net-(J1-Pad6)*%
X178694942Y-142315058D02*
X161069417Y-142315057D01*
X182570000Y-138440000D02*
X178694942Y-142315058D01*
X143554390Y-124800030D02*
X102175030Y-124800030D01*
X161069417Y-142315057D02*
X143554390Y-124800030D01*
X100080000Y-117596410D02*
X100080000Y-116960000D01*
X98904999Y-118771411D02*
X100080000Y-117596410D01*
X98904999Y-121529999D02*
X98904999Y-118771411D01*
X102175030Y-124800030D02*
X98904999Y-121529999D01*
%TO.N,Net-(J1-Pad7)*%
X103550000Y-118570000D02*
X102620000Y-119500000D01*
X103550000Y-117769002D02*
X103550000Y-118570000D01*
X103795001Y-117524001D02*
X103550000Y-117769002D01*
X103775000Y-116375998D02*
X103795001Y-116395999D01*
X103775000Y-115725000D02*
X103775000Y-116375998D01*
X106950009Y-112549991D02*
X103775000Y-115725000D01*
X145283857Y-112549991D02*
X106950009Y-112549991D01*
X103795001Y-116395999D02*
X103795001Y-117524001D01*
X165104407Y-132370541D02*
X145283857Y-112549991D01*
X176500541Y-132370541D02*
X165104407Y-132370541D01*
X180030000Y-135900000D02*
X176500541Y-132370541D01*
%TO.N,Net-(J1-Pad8)*%
X102620000Y-116960000D02*
X102620000Y-117760998D01*
X102620000Y-117760998D02*
X101444999Y-118935999D01*
X101444999Y-118935999D02*
X101444999Y-120956409D01*
X161255818Y-141865048D02*
X176604952Y-141865048D01*
X101444999Y-120956409D02*
X104838610Y-124350020D01*
X104838610Y-124350020D02*
X143740790Y-124350020D01*
X143740790Y-124350020D02*
X161255818Y-141865048D01*
X176604952Y-141865048D02*
X180030000Y-138440000D01*
%TO.N,Net-(J1-Pad9)*%
X106524999Y-116395999D02*
X109920998Y-113000000D01*
X106524999Y-118135001D02*
X106524999Y-116395999D01*
X105160000Y-119500000D02*
X106524999Y-118135001D01*
X128500000Y-113000000D02*
X128599980Y-113099980D01*
X128599980Y-113099980D02*
X145197437Y-113099981D01*
X109920998Y-113000000D02*
X128500000Y-113000000D01*
X165022415Y-132924959D02*
X174924959Y-132924959D01*
X145197437Y-113099981D02*
X165022415Y-132924959D01*
X177490000Y-135490000D02*
X177490000Y-135900000D01*
X174924959Y-132924959D02*
X177490000Y-135490000D01*
%TO.N,Net-(J1-Pad10)*%
X105160000Y-116960000D02*
X105160000Y-117596410D01*
X103984999Y-118771411D02*
X103984999Y-122859999D01*
X161442218Y-141415038D02*
X143927190Y-123900010D01*
X177490000Y-138440000D02*
X174514962Y-141415038D01*
X174514962Y-141415038D02*
X161442218Y-141415038D01*
X105160000Y-117596410D02*
X103984999Y-118771411D01*
X143927190Y-123900010D02*
X105025010Y-123900010D01*
X105025010Y-123900010D02*
X103984999Y-122859999D01*
%TO.N,Net-(J1-Pad11)*%
X174950000Y-135900000D02*
X172424969Y-133374969D01*
X172424969Y-133374969D02*
X164836015Y-133374969D01*
X145011036Y-113549990D02*
X110950010Y-113549990D01*
X164836015Y-133374969D02*
X145011036Y-113549990D01*
X110950010Y-113549990D02*
X109000000Y-115500000D01*
X109000000Y-118200000D02*
X107700000Y-119500000D01*
X109000000Y-115500000D02*
X109000000Y-118200000D01*
%TO.N,Net-(J1-Pad12)*%
X109910998Y-123450000D02*
X144113590Y-123450000D01*
X161628619Y-140965029D02*
X172424971Y-140965029D01*
X144113590Y-123450000D02*
X161628619Y-140965029D01*
X106524999Y-118935999D02*
X106524999Y-120064001D01*
X107700000Y-117760998D02*
X106524999Y-118935999D01*
X172424971Y-140965029D02*
X174950000Y-138440000D01*
X107700000Y-116960000D02*
X107700000Y-117760998D01*
X106524999Y-120064001D02*
X109910998Y-123450000D01*
%TO.N,Net-(J1-Pad13)*%
X111415001Y-116585997D02*
X114000998Y-114000000D01*
X111415001Y-118324999D02*
X111415001Y-116585997D01*
X110240000Y-119500000D02*
X111415001Y-118324999D01*
X114000998Y-114000000D02*
X144824636Y-114000000D01*
X164649615Y-133824979D02*
X170824979Y-133824979D01*
X144824636Y-114000000D02*
X164649615Y-133824979D01*
X172410000Y-135410000D02*
X172410000Y-135900000D01*
X170824979Y-133824979D02*
X172410000Y-135410000D01*
%TO.N,Net-(J1-Pad14)*%
X110325010Y-122925010D02*
X109064999Y-121664999D01*
X170334980Y-140515020D02*
X161815020Y-140515020D01*
X161815020Y-140515020D02*
X144225010Y-122925010D01*
X172410000Y-138440000D02*
X170334980Y-140515020D01*
X144225010Y-122925010D02*
X110325010Y-122925010D01*
X110240000Y-117596410D02*
X110240000Y-116960000D01*
X109064999Y-121664999D02*
X109064999Y-118771411D01*
X109064999Y-118771411D02*
X110240000Y-117596410D01*
%TO.N,Net-(J1-Pad15)*%
X169870000Y-135900000D02*
X168244989Y-134274989D01*
X144762801Y-114599981D02*
X114900019Y-114599981D01*
X164437809Y-134274989D02*
X144762801Y-114599981D01*
X168244989Y-134274989D02*
X164437809Y-134274989D01*
X114900019Y-114599981D02*
X114000000Y-115500000D01*
X114000000Y-118280000D02*
X112780000Y-119500000D01*
X114000000Y-115500000D02*
X114000000Y-118280000D01*
%TO.N,Net-(J1-Pad16)*%
X111930001Y-118619999D02*
X111425000Y-119125000D01*
X111425000Y-119125000D02*
X111425000Y-120054002D01*
X169870000Y-138555000D02*
X169870000Y-138440000D01*
X112780000Y-116960000D02*
X111930001Y-117809999D01*
X111930001Y-117809999D02*
X111930001Y-118619999D01*
X111425000Y-120054002D02*
X113845998Y-122475000D01*
X113845998Y-122475000D02*
X144438590Y-122475000D01*
X144438590Y-122475000D02*
X162028601Y-140065011D01*
X162028601Y-140065011D02*
X168359989Y-140065011D01*
X168359989Y-140065011D02*
X169870000Y-138555000D01*
%TO.N,Net-(J1-Pad17)*%
X116495001Y-116585997D02*
X116495001Y-118324999D01*
X118031007Y-115049991D02*
X116495001Y-116585997D01*
X144576401Y-115049991D02*
X118031007Y-115049991D01*
X164251409Y-134724999D02*
X144576401Y-115049991D01*
X116495001Y-118324999D02*
X115320000Y-119500000D01*
X166154999Y-134724999D02*
X164775001Y-134724999D01*
X167330000Y-135900000D02*
X166154999Y-134724999D01*
X164775001Y-134724999D02*
X164251409Y-134724999D01*
X165354001Y-134724999D02*
X164775001Y-134724999D01*
%TO.N,Net-(J1-Pad18)*%
X114050000Y-121550000D02*
X114050000Y-118866410D01*
X115320000Y-117596410D02*
X115320000Y-116960000D01*
X166154999Y-139615001D02*
X162215001Y-139615001D01*
X162215001Y-139615001D02*
X144600010Y-122000010D01*
X167330000Y-138440000D02*
X166154999Y-139615001D01*
X144600010Y-122000010D02*
X114500010Y-122000010D01*
X114500010Y-122000010D02*
X114050000Y-121550000D01*
X114050000Y-118866410D02*
X115320000Y-117596410D01*
%TO.N,Net-(J1-Pad19)*%
X117860000Y-119500000D02*
X121000000Y-119500000D01*
X121000000Y-119500000D02*
X125000000Y-115500000D01*
X144390000Y-115500000D02*
X164790000Y-135900000D01*
X125000000Y-115500000D02*
X144390000Y-115500000D01*
%TO.N,Net-(J1-Pad20)*%
X144800000Y-121550000D02*
X161690000Y-138440000D01*
X118170998Y-121550000D02*
X144800000Y-121550000D01*
X116684999Y-120064001D02*
X118170998Y-121550000D01*
X116684999Y-118935999D02*
X116684999Y-120064001D01*
X161690000Y-138440000D02*
X164790000Y-138440000D01*
X117860000Y-117760998D02*
X116684999Y-118935999D01*
X117860000Y-116960000D02*
X117860000Y-117760998D01*
%TD*%
D15*
%TO.N,GND*%
X209340001Y-88067526D02*
X209168138Y-87810315D01*
X208689685Y-87331862D01*
X208127082Y-86955943D01*
X207501952Y-86697006D01*
X206838318Y-86565000D01*
X206161682Y-86565000D01*
X205498048Y-86697006D01*
X204872918Y-86955943D01*
X204310315Y-87331862D01*
X203831862Y-87810315D01*
X203455943Y-88372918D01*
X203197006Y-88998048D01*
X203065000Y-89661682D01*
X203065000Y-90338318D01*
X203197006Y-91001952D01*
X203455943Y-91627082D01*
X203831862Y-92189685D01*
X204310315Y-92668138D01*
X204872918Y-93044057D01*
X205498048Y-93302994D01*
X206161682Y-93435000D01*
X206838318Y-93435000D01*
X207501952Y-93302994D01*
X208127082Y-93044057D01*
X208689685Y-92668138D01*
X209168138Y-92189685D01*
X209340001Y-91932474D01*
X209340001Y-103340000D01*
X192967581Y-103340000D01*
X192939326Y-103342783D01*
X192933199Y-103342740D01*
X192924028Y-103343640D01*
X192729931Y-103364041D01*
X192671348Y-103376066D01*
X192612577Y-103387277D01*
X192603755Y-103389941D01*
X192417317Y-103447653D01*
X192362162Y-103470838D01*
X192306709Y-103493242D01*
X192298573Y-103497568D01*
X192126896Y-103590393D01*
X192077278Y-103623861D01*
X192027247Y-103656600D01*
X192020106Y-103662424D01*
X191869728Y-103786828D01*
X191827589Y-103829263D01*
X191784839Y-103871126D01*
X191778966Y-103878227D01*
X191655616Y-104029469D01*
X191622534Y-104079262D01*
X191588716Y-104128651D01*
X191584333Y-104136757D01*
X191492708Y-104309079D01*
X191469909Y-104364394D01*
X191446348Y-104419366D01*
X191443623Y-104428169D01*
X191387214Y-104615005D01*
X191375594Y-104673693D01*
X191363158Y-104732196D01*
X191362195Y-104741361D01*
X191343150Y-104935595D01*
X191340000Y-104967582D01*
X191340001Y-118032419D01*
X191342783Y-118060664D01*
X191342740Y-118066801D01*
X191343640Y-118075972D01*
X191364041Y-118270069D01*
X191376068Y-118328658D01*
X191387277Y-118387423D01*
X191389941Y-118396245D01*
X191447653Y-118582683D01*
X191470838Y-118637838D01*
X191493242Y-118693291D01*
X191497568Y-118701427D01*
X191590393Y-118873104D01*
X191623846Y-118922699D01*
X191656600Y-118972753D01*
X191662424Y-118979894D01*
X191786828Y-119130272D01*
X191829263Y-119172411D01*
X191871126Y-119215161D01*
X191878227Y-119221034D01*
X192029469Y-119344384D01*
X192079277Y-119377477D01*
X192128651Y-119411284D01*
X192136757Y-119415667D01*
X192309080Y-119507292D01*
X192364392Y-119530090D01*
X192419366Y-119553652D01*
X192428169Y-119556377D01*
X192615006Y-119612786D01*
X192673686Y-119624405D01*
X192732196Y-119636842D01*
X192741361Y-119637805D01*
X192935594Y-119656850D01*
X192935598Y-119656850D01*
X192967581Y-119660000D01*
X209340000Y-119660000D01*
X209340001Y-137067526D01*
X209168138Y-136810315D01*
X208689685Y-136331862D01*
X208127082Y-135955943D01*
X207501952Y-135697006D01*
X206838318Y-135565000D01*
X206161682Y-135565000D01*
X205498048Y-135697006D01*
X204872918Y-135955943D01*
X204310315Y-136331862D01*
X203831862Y-136810315D01*
X203455943Y-137372918D01*
X203197006Y-137998048D01*
X203065000Y-138661682D01*
X203065000Y-139338318D01*
X203197006Y-140001952D01*
X203455943Y-140627082D01*
X203831862Y-141189685D01*
X204310315Y-141668138D01*
X204872918Y-142044057D01*
X205498048Y-142302994D01*
X206161682Y-142435000D01*
X206838318Y-142435000D01*
X207501952Y-142302994D01*
X208127082Y-142044057D01*
X208689685Y-141668138D01*
X209168138Y-141189685D01*
X209340001Y-140932474D01*
X209340001Y-149340000D01*
X154660000Y-149340000D01*
X154660000Y-144967581D01*
X154657217Y-144939326D01*
X154657260Y-144933199D01*
X154656360Y-144924028D01*
X154635959Y-144729931D01*
X154623934Y-144671348D01*
X154612723Y-144612577D01*
X154610059Y-144603755D01*
X154552347Y-144417317D01*
X154529162Y-144362162D01*
X154506758Y-144306709D01*
X154502432Y-144298573D01*
X154409607Y-144126896D01*
X154376139Y-144077278D01*
X154343400Y-144027247D01*
X154337576Y-144020106D01*
X154213172Y-143869728D01*
X154170737Y-143827589D01*
X154128874Y-143784839D01*
X154121773Y-143778966D01*
X153970531Y-143655616D01*
X153920738Y-143622534D01*
X153871349Y-143588716D01*
X153863243Y-143584333D01*
X153690921Y-143492708D01*
X153635606Y-143469909D01*
X153580634Y-143446348D01*
X153571831Y-143443623D01*
X153384995Y-143387214D01*
X153326307Y-143375594D01*
X153267804Y-143363158D01*
X153258639Y-143362195D01*
X153064405Y-143343150D01*
X153064402Y-143343150D01*
X153032419Y-143340000D01*
X137967581Y-143340000D01*
X137939326Y-143342783D01*
X137933199Y-143342740D01*
X137924028Y-143343640D01*
X137729931Y-143364041D01*
X137671348Y-143376066D01*
X137612577Y-143387277D01*
X137603755Y-143389941D01*
X137417317Y-143447653D01*
X137362162Y-143470838D01*
X137306709Y-143493242D01*
X137298573Y-143497568D01*
X137126896Y-143590393D01*
X137077278Y-143623861D01*
X137027247Y-143656600D01*
X137020106Y-143662424D01*
X136869728Y-143786828D01*
X136827589Y-143829263D01*
X136784839Y-143871126D01*
X136778966Y-143878227D01*
X136655616Y-144029469D01*
X136622534Y-144079262D01*
X136588716Y-144128651D01*
X136584333Y-144136757D01*
X136492708Y-144309079D01*
X136469909Y-144364394D01*
X136446348Y-144419366D01*
X136443623Y-144428169D01*
X136387214Y-144615005D01*
X136375594Y-144673693D01*
X136363158Y-144732196D01*
X136362195Y-144741361D01*
X136343150Y-144935595D01*
X136340000Y-144967582D01*
X136340001Y-149340000D01*
X50660000Y-149340000D01*
X50660000Y-142275000D01*
X116086928Y-142275000D01*
X116099188Y-142399482D01*
X116135498Y-142519180D01*
X116194463Y-142629494D01*
X116273815Y-142726185D01*
X116370506Y-142805537D01*
X116480820Y-142864502D01*
X116600518Y-142900812D01*
X116725000Y-142913072D01*
X117714250Y-142910000D01*
X117873000Y-142751250D01*
X117873000Y-141127000D01*
X118127000Y-141127000D01*
X118127000Y-142751250D01*
X118285750Y-142910000D01*
X119275000Y-142913072D01*
X119399482Y-142900812D01*
X119519180Y-142864502D01*
X119629494Y-142805537D01*
X119726185Y-142726185D01*
X119805537Y-142629494D01*
X119864502Y-142519180D01*
X119900812Y-142399482D01*
X119913072Y-142275000D01*
X119910000Y-141285750D01*
X119751250Y-141127000D01*
X118127000Y-141127000D01*
X117873000Y-141127000D01*
X116248750Y-141127000D01*
X116090000Y-141285750D01*
X116086928Y-142275000D01*
X50660000Y-142275000D01*
X50660000Y-139725000D01*
X116086928Y-139725000D01*
X116090000Y-140714250D01*
X116248750Y-140873000D01*
X117873000Y-140873000D01*
X117873000Y-139248750D01*
X118127000Y-139248750D01*
X118127000Y-140873000D01*
X119751250Y-140873000D01*
X119910000Y-140714250D01*
X119913072Y-139725000D01*
X119900812Y-139600518D01*
X119864502Y-139480820D01*
X119805537Y-139370506D01*
X119726185Y-139273815D01*
X119629494Y-139194463D01*
X119519180Y-139135498D01*
X119399482Y-139099188D01*
X119275000Y-139086928D01*
X118285750Y-139090000D01*
X118127000Y-139248750D01*
X117873000Y-139248750D01*
X117714250Y-139090000D01*
X116725000Y-139086928D01*
X116600518Y-139099188D01*
X116480820Y-139135498D01*
X116370506Y-139194463D01*
X116273815Y-139273815D01*
X116194463Y-139370506D01*
X116135498Y-139480820D01*
X116099188Y-139600518D01*
X116086928Y-139725000D01*
X50660000Y-139725000D01*
X50660000Y-138661682D01*
X146065000Y-138661682D01*
X146065000Y-139338318D01*
X146197006Y-140001952D01*
X146455943Y-140627082D01*
X146831862Y-141189685D01*
X147310315Y-141668138D01*
X147872918Y-142044057D01*
X148498048Y-142302994D01*
X149161682Y-142435000D01*
X149838318Y-142435000D01*
X150501952Y-142302994D01*
X151127082Y-142044057D01*
X151689685Y-141668138D01*
X152168138Y-141189685D01*
X152544057Y-140627082D01*
X152802994Y-140001952D01*
X152935000Y-139338318D01*
X152935000Y-138661682D01*
X152802994Y-137998048D01*
X152544057Y-137372918D01*
X152168138Y-136810315D01*
X151689685Y-136331862D01*
X151127082Y-135955943D01*
X150501952Y-135697006D01*
X149838318Y-135565000D01*
X149161682Y-135565000D01*
X148498048Y-135697006D01*
X147872918Y-135955943D01*
X147310315Y-136331862D01*
X146831862Y-136810315D01*
X146455943Y-137372918D01*
X146197006Y-137998048D01*
X146065000Y-138661682D01*
X50660000Y-138661682D01*
X50660000Y-126161682D01*
X73565000Y-126161682D01*
X73565000Y-126838318D01*
X73697006Y-127501952D01*
X73955943Y-128127082D01*
X74331862Y-128689685D01*
X74810315Y-129168138D01*
X75372918Y-129544057D01*
X75998048Y-129802994D01*
X76661682Y-129935000D01*
X77338318Y-129935000D01*
X78001952Y-129802994D01*
X78627082Y-129544057D01*
X79189685Y-129168138D01*
X79668138Y-128689685D01*
X80044057Y-128127082D01*
X80302994Y-127501952D01*
X80435000Y-126838318D01*
X80435000Y-126161682D01*
X80302994Y-125498048D01*
X80044057Y-124872918D01*
X79668138Y-124310315D01*
X79189685Y-123831862D01*
X78627082Y-123455943D01*
X78001952Y-123197006D01*
X77338318Y-123065000D01*
X76661682Y-123065000D01*
X75998048Y-123197006D01*
X75372918Y-123455943D01*
X74810315Y-123831862D01*
X74331862Y-124310315D01*
X73955943Y-124872918D01*
X73697006Y-125498048D01*
X73565000Y-126161682D01*
X50660000Y-126161682D01*
X50660000Y-118135001D01*
X93061323Y-118135001D01*
X93065000Y-118172333D01*
X93064999Y-122512676D01*
X93061323Y-122549999D01*
X93064999Y-122587321D01*
X93064999Y-122587331D01*
X93075996Y-122698984D01*
X93119453Y-122842245D01*
X93190025Y-122974275D01*
X93218510Y-123008984D01*
X93284998Y-123090000D01*
X93314002Y-123113803D01*
X96411250Y-126211052D01*
X96435049Y-126240051D01*
X96550774Y-126335024D01*
X96682803Y-126405596D01*
X96826064Y-126449053D01*
X96937717Y-126460050D01*
X96937727Y-126460050D01*
X96975050Y-126463726D01*
X97012373Y-126460050D01*
X142866791Y-126460050D01*
X160132818Y-143726078D01*
X160156616Y-143755076D01*
X160185614Y-143778874D01*
X160272340Y-143850049D01*
X160345414Y-143889108D01*
X160404370Y-143920621D01*
X160547631Y-143964078D01*
X160659284Y-143975075D01*
X160659294Y-143975075D01*
X160696617Y-143978751D01*
X160733940Y-143975075D01*
X182837603Y-143975075D01*
X182874925Y-143978751D01*
X182912247Y-143975075D01*
X182912258Y-143975075D01*
X183023911Y-143964078D01*
X183167172Y-143920621D01*
X183299201Y-143850049D01*
X183414926Y-143755076D01*
X183438729Y-143726072D01*
X187283592Y-139881210D01*
X187503740Y-139925000D01*
X187796260Y-139925000D01*
X188083158Y-139867932D01*
X188353411Y-139755990D01*
X188596632Y-139593475D01*
X188803475Y-139386632D01*
X188965990Y-139143411D01*
X189077932Y-138873158D01*
X189135000Y-138586260D01*
X189135000Y-138293740D01*
X189077932Y-138006842D01*
X188965990Y-137736589D01*
X188803475Y-137493368D01*
X188671620Y-137361513D01*
X188744180Y-137339502D01*
X188854494Y-137280537D01*
X188951185Y-137201185D01*
X189030537Y-137104494D01*
X189089502Y-136994180D01*
X189125812Y-136874482D01*
X189138072Y-136750000D01*
X189138072Y-135050000D01*
X189125812Y-134925518D01*
X189089502Y-134805820D01*
X189030537Y-134695506D01*
X188951185Y-134598815D01*
X188854494Y-134519463D01*
X188744180Y-134460498D01*
X188624482Y-134424188D01*
X188500000Y-134411928D01*
X187145708Y-134411928D01*
X183243293Y-130509514D01*
X183219490Y-130480510D01*
X183103765Y-130385537D01*
X182971736Y-130314965D01*
X182828475Y-130271508D01*
X182716822Y-130260511D01*
X182716811Y-130260511D01*
X182679489Y-130256835D01*
X182642167Y-130260511D01*
X166035313Y-130260511D01*
X161936484Y-126161682D01*
X165565000Y-126161682D01*
X165565000Y-126838318D01*
X165697006Y-127501952D01*
X165955943Y-128127082D01*
X166331862Y-128689685D01*
X166810315Y-129168138D01*
X167372918Y-129544057D01*
X167998048Y-129802994D01*
X168661682Y-129935000D01*
X169338318Y-129935000D01*
X170001952Y-129802994D01*
X170627082Y-129544057D01*
X171189685Y-129168138D01*
X171668138Y-128689685D01*
X172044057Y-128127082D01*
X172302994Y-127501952D01*
X172435000Y-126838318D01*
X172435000Y-126161682D01*
X172302994Y-125498048D01*
X172044057Y-124872918D01*
X171668138Y-124310315D01*
X171189685Y-123831862D01*
X170627082Y-123455943D01*
X170001952Y-123197006D01*
X169338318Y-123065000D01*
X168661682Y-123065000D01*
X167998048Y-123197006D01*
X167372918Y-123455943D01*
X166810315Y-123831862D01*
X166331862Y-124310315D01*
X165955943Y-124872918D01*
X165697006Y-125498048D01*
X165565000Y-126161682D01*
X161936484Y-126161682D01*
X146263804Y-110489003D01*
X146240001Y-110459999D01*
X146124276Y-110365026D01*
X145992247Y-110294454D01*
X145848986Y-110250997D01*
X145737333Y-110240000D01*
X145737322Y-110240000D01*
X145700000Y-110236324D01*
X145662678Y-110240000D01*
X100637323Y-110240000D01*
X100600000Y-110236324D01*
X100562677Y-110240000D01*
X100562667Y-110240000D01*
X100451014Y-110250997D01*
X100307753Y-110294454D01*
X100175724Y-110365026D01*
X100059999Y-110459999D01*
X100036201Y-110488997D01*
X95853997Y-114671202D01*
X95824999Y-114695000D01*
X95801201Y-114723998D01*
X95801200Y-114723999D01*
X95730025Y-114810725D01*
X95659453Y-114942755D01*
X95653821Y-114961323D01*
X95619119Y-115075725D01*
X95615997Y-115086016D01*
X95601323Y-115235001D01*
X95605000Y-115272333D01*
X95605000Y-115603247D01*
X95433158Y-115532068D01*
X95146260Y-115475000D01*
X94853740Y-115475000D01*
X94566842Y-115532068D01*
X94296589Y-115644010D01*
X94053368Y-115806525D01*
X93846525Y-116013368D01*
X93684010Y-116256589D01*
X93572068Y-116526842D01*
X93515000Y-116813740D01*
X93515000Y-117106260D01*
X93558791Y-117326408D01*
X93313997Y-117571202D01*
X93284999Y-117595000D01*
X93261201Y-117623998D01*
X93261200Y-117623999D01*
X93190025Y-117710725D01*
X93119453Y-117842755D01*
X93101869Y-117900724D01*
X93075997Y-117986015D01*
X93066347Y-118083988D01*
X93061323Y-118135001D01*
X50660000Y-118135001D01*
X50660000Y-89661682D01*
X146065000Y-89661682D01*
X146065000Y-90338318D01*
X146197006Y-91001952D01*
X146455943Y-91627082D01*
X146831862Y-92189685D01*
X147310315Y-92668138D01*
X147872918Y-93044057D01*
X148498048Y-93302994D01*
X149161682Y-93435000D01*
X149838318Y-93435000D01*
X150501952Y-93302994D01*
X151127082Y-93044057D01*
X151689685Y-92668138D01*
X152168138Y-92189685D01*
X152544057Y-91627082D01*
X152802994Y-91001952D01*
X152935000Y-90338318D01*
X152935000Y-89661682D01*
X152802994Y-88998048D01*
X152544057Y-88372918D01*
X152168138Y-87810315D01*
X151689685Y-87331862D01*
X151127082Y-86955943D01*
X150501952Y-86697006D01*
X149838318Y-86565000D01*
X149161682Y-86565000D01*
X148498048Y-86697006D01*
X147872918Y-86955943D01*
X147310315Y-87331862D01*
X146831862Y-87810315D01*
X146455943Y-88372918D01*
X146197006Y-88998048D01*
X146065000Y-89661682D01*
X50660000Y-89661682D01*
X50660000Y-78621132D01*
X71865000Y-78621132D01*
X71865000Y-79878868D01*
X72110372Y-81112436D01*
X72591687Y-82274431D01*
X73290447Y-83320200D01*
X74179800Y-84209553D01*
X75225569Y-84908313D01*
X76387564Y-85389628D01*
X77621132Y-85635000D01*
X78878868Y-85635000D01*
X80112436Y-85389628D01*
X81274431Y-84908313D01*
X82320200Y-84209553D01*
X83209553Y-83320200D01*
X83908313Y-82274431D01*
X84389628Y-81112436D01*
X84635000Y-79878868D01*
X84635000Y-78621132D01*
X161365000Y-78621132D01*
X161365000Y-79878868D01*
X161610372Y-81112436D01*
X162091687Y-82274431D01*
X162790447Y-83320200D01*
X163679800Y-84209553D01*
X164725569Y-84908313D01*
X165887564Y-85389628D01*
X167121132Y-85635000D01*
X168378868Y-85635000D01*
X169612436Y-85389628D01*
X170774431Y-84908313D01*
X171820200Y-84209553D01*
X172709553Y-83320200D01*
X173408313Y-82274431D01*
X173889628Y-81112436D01*
X174135000Y-79878868D01*
X174135000Y-78621132D01*
X173889628Y-77387564D01*
X173408313Y-76225569D01*
X172709553Y-75179800D01*
X171820200Y-74290447D01*
X170774431Y-73591687D01*
X169612436Y-73110372D01*
X168378868Y-72865000D01*
X167121132Y-72865000D01*
X165887564Y-73110372D01*
X164725569Y-73591687D01*
X163679800Y-74290447D01*
X162790447Y-75179800D01*
X162091687Y-76225569D01*
X161610372Y-77387564D01*
X161365000Y-78621132D01*
X84635000Y-78621132D01*
X84389628Y-77387564D01*
X83908313Y-76225569D01*
X83209553Y-75179800D01*
X82320200Y-74290447D01*
X81274431Y-73591687D01*
X80112436Y-73110372D01*
X78878868Y-72865000D01*
X77621132Y-72865000D01*
X76387564Y-73110372D01*
X75225569Y-73591687D01*
X74179800Y-74290447D01*
X73290447Y-75179800D01*
X72591687Y-76225569D01*
X72110372Y-77387564D01*
X71865000Y-78621132D01*
X50660000Y-78621132D01*
X50660000Y-65621132D01*
X71865000Y-65621132D01*
X71865000Y-66878868D01*
X72110372Y-68112436D01*
X72591687Y-69274431D01*
X73290447Y-70320200D01*
X74179800Y-71209553D01*
X75225569Y-71908313D01*
X76387564Y-72389628D01*
X77621132Y-72635000D01*
X78878868Y-72635000D01*
X80112436Y-72389628D01*
X81274431Y-71908313D01*
X82320200Y-71209553D01*
X83209553Y-70320200D01*
X83908313Y-69274431D01*
X84389628Y-68112436D01*
X84635000Y-66878868D01*
X84635000Y-65621132D01*
X161365000Y-65621132D01*
X161365000Y-66878868D01*
X161610372Y-68112436D01*
X162091687Y-69274431D01*
X162790447Y-70320200D01*
X163679800Y-71209553D01*
X164725569Y-71908313D01*
X165887564Y-72389628D01*
X167121132Y-72635000D01*
X168378868Y-72635000D01*
X169612436Y-72389628D01*
X170774431Y-71908313D01*
X171820200Y-71209553D01*
X172709553Y-70320200D01*
X173408313Y-69274431D01*
X173889628Y-68112436D01*
X174135000Y-66878868D01*
X174135000Y-65621132D01*
X173889628Y-64387564D01*
X173408313Y-63225569D01*
X172709553Y-62179800D01*
X171820200Y-61290447D01*
X170774431Y-60591687D01*
X170639466Y-60535782D01*
X171189685Y-60168138D01*
X171668138Y-59689685D01*
X172044057Y-59127082D01*
X172302994Y-58501952D01*
X172435000Y-57838318D01*
X172435000Y-57161682D01*
X172302994Y-56498048D01*
X172044057Y-55872918D01*
X171668138Y-55310315D01*
X171189685Y-54831862D01*
X170627082Y-54455943D01*
X170001952Y-54197006D01*
X169338318Y-54065000D01*
X168661682Y-54065000D01*
X167998048Y-54197006D01*
X167372918Y-54455943D01*
X166810315Y-54831862D01*
X166331862Y-55310315D01*
X165955943Y-55872918D01*
X165697006Y-56498048D01*
X165565000Y-57161682D01*
X165565000Y-57838318D01*
X165697006Y-58501952D01*
X165955943Y-59127082D01*
X166331862Y-59689685D01*
X166609039Y-59966862D01*
X165887564Y-60110372D01*
X164725569Y-60591687D01*
X163679800Y-61290447D01*
X162790447Y-62179800D01*
X162091687Y-63225569D01*
X161610372Y-64387564D01*
X161365000Y-65621132D01*
X84635000Y-65621132D01*
X84389628Y-64387564D01*
X83908313Y-63225569D01*
X83209553Y-62179800D01*
X82320200Y-61290447D01*
X81274431Y-60591687D01*
X80112436Y-60110372D01*
X79390961Y-59966862D01*
X79668138Y-59689685D01*
X80044057Y-59127082D01*
X80302994Y-58501952D01*
X80435000Y-57838318D01*
X80435000Y-57161682D01*
X80302994Y-56498048D01*
X80044057Y-55872918D01*
X79668138Y-55310315D01*
X79189685Y-54831862D01*
X78627082Y-54455943D01*
X78001952Y-54197006D01*
X77338318Y-54065000D01*
X76661682Y-54065000D01*
X75998048Y-54197006D01*
X75372918Y-54455943D01*
X74810315Y-54831862D01*
X74331862Y-55310315D01*
X73955943Y-55872918D01*
X73697006Y-56498048D01*
X73565000Y-57161682D01*
X73565000Y-57838318D01*
X73697006Y-58501952D01*
X73955943Y-59127082D01*
X74331862Y-59689685D01*
X74810315Y-60168138D01*
X75360534Y-60535782D01*
X75225569Y-60591687D01*
X74179800Y-61290447D01*
X73290447Y-62179800D01*
X72591687Y-63225569D01*
X72110372Y-64387564D01*
X71865000Y-65621132D01*
X50660000Y-65621132D01*
X50660000Y-50660000D01*
X209340000Y-50660000D01*
X209340001Y-88067526D01*
%TA.AperFunction,Conductor*%
D16*
G36*
X209340001Y-88067526D02*
G01*
X209168138Y-87810315D01*
X208689685Y-87331862D01*
X208127082Y-86955943D01*
X207501952Y-86697006D01*
X206838318Y-86565000D01*
X206161682Y-86565000D01*
X205498048Y-86697006D01*
X204872918Y-86955943D01*
X204310315Y-87331862D01*
X203831862Y-87810315D01*
X203455943Y-88372918D01*
X203197006Y-88998048D01*
X203065000Y-89661682D01*
X203065000Y-90338318D01*
X203197006Y-91001952D01*
X203455943Y-91627082D01*
X203831862Y-92189685D01*
X204310315Y-92668138D01*
X204872918Y-93044057D01*
X205498048Y-93302994D01*
X206161682Y-93435000D01*
X206838318Y-93435000D01*
X207501952Y-93302994D01*
X208127082Y-93044057D01*
X208689685Y-92668138D01*
X209168138Y-92189685D01*
X209340001Y-91932474D01*
X209340001Y-103340000D01*
X192967581Y-103340000D01*
X192939326Y-103342783D01*
X192933199Y-103342740D01*
X192924028Y-103343640D01*
X192729931Y-103364041D01*
X192671348Y-103376066D01*
X192612577Y-103387277D01*
X192603755Y-103389941D01*
X192417317Y-103447653D01*
X192362162Y-103470838D01*
X192306709Y-103493242D01*
X192298573Y-103497568D01*
X192126896Y-103590393D01*
X192077278Y-103623861D01*
X192027247Y-103656600D01*
X192020106Y-103662424D01*
X191869728Y-103786828D01*
X191827589Y-103829263D01*
X191784839Y-103871126D01*
X191778966Y-103878227D01*
X191655616Y-104029469D01*
X191622534Y-104079262D01*
X191588716Y-104128651D01*
X191584333Y-104136757D01*
X191492708Y-104309079D01*
X191469909Y-104364394D01*
X191446348Y-104419366D01*
X191443623Y-104428169D01*
X191387214Y-104615005D01*
X191375594Y-104673693D01*
X191363158Y-104732196D01*
X191362195Y-104741361D01*
X191343150Y-104935595D01*
X191340000Y-104967582D01*
X191340001Y-118032419D01*
X191342783Y-118060664D01*
X191342740Y-118066801D01*
X191343640Y-118075972D01*
X191364041Y-118270069D01*
X191376068Y-118328658D01*
X191387277Y-118387423D01*
X191389941Y-118396245D01*
X191447653Y-118582683D01*
X191470838Y-118637838D01*
X191493242Y-118693291D01*
X191497568Y-118701427D01*
X191590393Y-118873104D01*
X191623846Y-118922699D01*
X191656600Y-118972753D01*
X191662424Y-118979894D01*
X191786828Y-119130272D01*
X191829263Y-119172411D01*
X191871126Y-119215161D01*
X191878227Y-119221034D01*
X192029469Y-119344384D01*
X192079277Y-119377477D01*
X192128651Y-119411284D01*
X192136757Y-119415667D01*
X192309080Y-119507292D01*
X192364392Y-119530090D01*
X192419366Y-119553652D01*
X192428169Y-119556377D01*
X192615006Y-119612786D01*
X192673686Y-119624405D01*
X192732196Y-119636842D01*
X192741361Y-119637805D01*
X192935594Y-119656850D01*
X192935598Y-119656850D01*
X192967581Y-119660000D01*
X209340000Y-119660000D01*
X209340001Y-137067526D01*
X209168138Y-136810315D01*
X208689685Y-136331862D01*
X208127082Y-135955943D01*
X207501952Y-135697006D01*
X206838318Y-135565000D01*
X206161682Y-135565000D01*
X205498048Y-135697006D01*
X204872918Y-135955943D01*
X204310315Y-136331862D01*
X203831862Y-136810315D01*
X203455943Y-137372918D01*
X203197006Y-137998048D01*
X203065000Y-138661682D01*
X203065000Y-139338318D01*
X203197006Y-140001952D01*
X203455943Y-140627082D01*
X203831862Y-141189685D01*
X204310315Y-141668138D01*
X204872918Y-142044057D01*
X205498048Y-142302994D01*
X206161682Y-142435000D01*
X206838318Y-142435000D01*
X207501952Y-142302994D01*
X208127082Y-142044057D01*
X208689685Y-141668138D01*
X209168138Y-141189685D01*
X209340001Y-140932474D01*
X209340001Y-149340000D01*
X154660000Y-149340000D01*
X154660000Y-144967581D01*
X154657217Y-144939326D01*
X154657260Y-144933199D01*
X154656360Y-144924028D01*
X154635959Y-144729931D01*
X154623934Y-144671348D01*
X154612723Y-144612577D01*
X154610059Y-144603755D01*
X154552347Y-144417317D01*
X154529162Y-144362162D01*
X154506758Y-144306709D01*
X154502432Y-144298573D01*
X154409607Y-144126896D01*
X154376139Y-144077278D01*
X154343400Y-144027247D01*
X154337576Y-144020106D01*
X154213172Y-143869728D01*
X154170737Y-143827589D01*
X154128874Y-143784839D01*
X154121773Y-143778966D01*
X153970531Y-143655616D01*
X153920738Y-143622534D01*
X153871349Y-143588716D01*
X153863243Y-143584333D01*
X153690921Y-143492708D01*
X153635606Y-143469909D01*
X153580634Y-143446348D01*
X153571831Y-143443623D01*
X153384995Y-143387214D01*
X153326307Y-143375594D01*
X153267804Y-143363158D01*
X153258639Y-143362195D01*
X153064405Y-143343150D01*
X153064402Y-143343150D01*
X153032419Y-143340000D01*
X137967581Y-143340000D01*
X137939326Y-143342783D01*
X137933199Y-143342740D01*
X137924028Y-143343640D01*
X137729931Y-143364041D01*
X137671348Y-143376066D01*
X137612577Y-143387277D01*
X137603755Y-143389941D01*
X137417317Y-143447653D01*
X137362162Y-143470838D01*
X137306709Y-143493242D01*
X137298573Y-143497568D01*
X137126896Y-143590393D01*
X137077278Y-143623861D01*
X137027247Y-143656600D01*
X137020106Y-143662424D01*
X136869728Y-143786828D01*
X136827589Y-143829263D01*
X136784839Y-143871126D01*
X136778966Y-143878227D01*
X136655616Y-144029469D01*
X136622534Y-144079262D01*
X136588716Y-144128651D01*
X136584333Y-144136757D01*
X136492708Y-144309079D01*
X136469909Y-144364394D01*
X136446348Y-144419366D01*
X136443623Y-144428169D01*
X136387214Y-144615005D01*
X136375594Y-144673693D01*
X136363158Y-144732196D01*
X136362195Y-144741361D01*
X136343150Y-144935595D01*
X136340000Y-144967582D01*
X136340001Y-149340000D01*
X50660000Y-149340000D01*
X50660000Y-142275000D01*
X116086928Y-142275000D01*
X116099188Y-142399482D01*
X116135498Y-142519180D01*
X116194463Y-142629494D01*
X116273815Y-142726185D01*
X116370506Y-142805537D01*
X116480820Y-142864502D01*
X116600518Y-142900812D01*
X116725000Y-142913072D01*
X117714250Y-142910000D01*
X117873000Y-142751250D01*
X117873000Y-141127000D01*
X118127000Y-141127000D01*
X118127000Y-142751250D01*
X118285750Y-142910000D01*
X119275000Y-142913072D01*
X119399482Y-142900812D01*
X119519180Y-142864502D01*
X119629494Y-142805537D01*
X119726185Y-142726185D01*
X119805537Y-142629494D01*
X119864502Y-142519180D01*
X119900812Y-142399482D01*
X119913072Y-142275000D01*
X119910000Y-141285750D01*
X119751250Y-141127000D01*
X118127000Y-141127000D01*
X117873000Y-141127000D01*
X116248750Y-141127000D01*
X116090000Y-141285750D01*
X116086928Y-142275000D01*
X50660000Y-142275000D01*
X50660000Y-139725000D01*
X116086928Y-139725000D01*
X116090000Y-140714250D01*
X116248750Y-140873000D01*
X117873000Y-140873000D01*
X117873000Y-139248750D01*
X118127000Y-139248750D01*
X118127000Y-140873000D01*
X119751250Y-140873000D01*
X119910000Y-140714250D01*
X119913072Y-139725000D01*
X119900812Y-139600518D01*
X119864502Y-139480820D01*
X119805537Y-139370506D01*
X119726185Y-139273815D01*
X119629494Y-139194463D01*
X119519180Y-139135498D01*
X119399482Y-139099188D01*
X119275000Y-139086928D01*
X118285750Y-139090000D01*
X118127000Y-139248750D01*
X117873000Y-139248750D01*
X117714250Y-139090000D01*
X116725000Y-139086928D01*
X116600518Y-139099188D01*
X116480820Y-139135498D01*
X116370506Y-139194463D01*
X116273815Y-139273815D01*
X116194463Y-139370506D01*
X116135498Y-139480820D01*
X116099188Y-139600518D01*
X116086928Y-139725000D01*
X50660000Y-139725000D01*
X50660000Y-138661682D01*
X146065000Y-138661682D01*
X146065000Y-139338318D01*
X146197006Y-140001952D01*
X146455943Y-140627082D01*
X146831862Y-141189685D01*
X147310315Y-141668138D01*
X147872918Y-142044057D01*
X148498048Y-142302994D01*
X149161682Y-142435000D01*
X149838318Y-142435000D01*
X150501952Y-142302994D01*
X151127082Y-142044057D01*
X151689685Y-141668138D01*
X152168138Y-141189685D01*
X152544057Y-140627082D01*
X152802994Y-140001952D01*
X152935000Y-139338318D01*
X152935000Y-138661682D01*
X152802994Y-137998048D01*
X152544057Y-137372918D01*
X152168138Y-136810315D01*
X151689685Y-136331862D01*
X151127082Y-135955943D01*
X150501952Y-135697006D01*
X149838318Y-135565000D01*
X149161682Y-135565000D01*
X148498048Y-135697006D01*
X147872918Y-135955943D01*
X147310315Y-136331862D01*
X146831862Y-136810315D01*
X146455943Y-137372918D01*
X146197006Y-137998048D01*
X146065000Y-138661682D01*
X50660000Y-138661682D01*
X50660000Y-126161682D01*
X73565000Y-126161682D01*
X73565000Y-126838318D01*
X73697006Y-127501952D01*
X73955943Y-128127082D01*
X74331862Y-128689685D01*
X74810315Y-129168138D01*
X75372918Y-129544057D01*
X75998048Y-129802994D01*
X76661682Y-129935000D01*
X77338318Y-129935000D01*
X78001952Y-129802994D01*
X78627082Y-129544057D01*
X79189685Y-129168138D01*
X79668138Y-128689685D01*
X80044057Y-128127082D01*
X80302994Y-127501952D01*
X80435000Y-126838318D01*
X80435000Y-126161682D01*
X80302994Y-125498048D01*
X80044057Y-124872918D01*
X79668138Y-124310315D01*
X79189685Y-123831862D01*
X78627082Y-123455943D01*
X78001952Y-123197006D01*
X77338318Y-123065000D01*
X76661682Y-123065000D01*
X75998048Y-123197006D01*
X75372918Y-123455943D01*
X74810315Y-123831862D01*
X74331862Y-124310315D01*
X73955943Y-124872918D01*
X73697006Y-125498048D01*
X73565000Y-126161682D01*
X50660000Y-126161682D01*
X50660000Y-118135001D01*
X93061323Y-118135001D01*
X93065000Y-118172333D01*
X93064999Y-122512676D01*
X93061323Y-122549999D01*
X93064999Y-122587321D01*
X93064999Y-122587331D01*
X93075996Y-122698984D01*
X93119453Y-122842245D01*
X93190025Y-122974275D01*
X93218510Y-123008984D01*
X93284998Y-123090000D01*
X93314002Y-123113803D01*
X96411250Y-126211052D01*
X96435049Y-126240051D01*
X96550774Y-126335024D01*
X96682803Y-126405596D01*
X96826064Y-126449053D01*
X96937717Y-126460050D01*
X96937727Y-126460050D01*
X96975050Y-126463726D01*
X97012373Y-126460050D01*
X142866791Y-126460050D01*
X160132818Y-143726078D01*
X160156616Y-143755076D01*
X160185614Y-143778874D01*
X160272340Y-143850049D01*
X160345414Y-143889108D01*
X160404370Y-143920621D01*
X160547631Y-143964078D01*
X160659284Y-143975075D01*
X160659294Y-143975075D01*
X160696617Y-143978751D01*
X160733940Y-143975075D01*
X182837603Y-143975075D01*
X182874925Y-143978751D01*
X182912247Y-143975075D01*
X182912258Y-143975075D01*
X183023911Y-143964078D01*
X183167172Y-143920621D01*
X183299201Y-143850049D01*
X183414926Y-143755076D01*
X183438729Y-143726072D01*
X187283592Y-139881210D01*
X187503740Y-139925000D01*
X187796260Y-139925000D01*
X188083158Y-139867932D01*
X188353411Y-139755990D01*
X188596632Y-139593475D01*
X188803475Y-139386632D01*
X188965990Y-139143411D01*
X189077932Y-138873158D01*
X189135000Y-138586260D01*
X189135000Y-138293740D01*
X189077932Y-138006842D01*
X188965990Y-137736589D01*
X188803475Y-137493368D01*
X188671620Y-137361513D01*
X188744180Y-137339502D01*
X188854494Y-137280537D01*
X188951185Y-137201185D01*
X189030537Y-137104494D01*
X189089502Y-136994180D01*
X189125812Y-136874482D01*
X189138072Y-136750000D01*
X189138072Y-135050000D01*
X189125812Y-134925518D01*
X189089502Y-134805820D01*
X189030537Y-134695506D01*
X188951185Y-134598815D01*
X188854494Y-134519463D01*
X188744180Y-134460498D01*
X188624482Y-134424188D01*
X188500000Y-134411928D01*
X187145708Y-134411928D01*
X183243293Y-130509514D01*
X183219490Y-130480510D01*
X183103765Y-130385537D01*
X182971736Y-130314965D01*
X182828475Y-130271508D01*
X182716822Y-130260511D01*
X182716811Y-130260511D01*
X182679489Y-130256835D01*
X182642167Y-130260511D01*
X166035313Y-130260511D01*
X161936484Y-126161682D01*
X165565000Y-126161682D01*
X165565000Y-126838318D01*
X165697006Y-127501952D01*
X165955943Y-128127082D01*
X166331862Y-128689685D01*
X166810315Y-129168138D01*
X167372918Y-129544057D01*
X167998048Y-129802994D01*
X168661682Y-129935000D01*
X169338318Y-129935000D01*
X170001952Y-129802994D01*
X170627082Y-129544057D01*
X171189685Y-129168138D01*
X171668138Y-128689685D01*
X172044057Y-128127082D01*
X172302994Y-127501952D01*
X172435000Y-126838318D01*
X172435000Y-126161682D01*
X172302994Y-125498048D01*
X172044057Y-124872918D01*
X171668138Y-124310315D01*
X171189685Y-123831862D01*
X170627082Y-123455943D01*
X170001952Y-123197006D01*
X169338318Y-123065000D01*
X168661682Y-123065000D01*
X167998048Y-123197006D01*
X167372918Y-123455943D01*
X166810315Y-123831862D01*
X166331862Y-124310315D01*
X165955943Y-124872918D01*
X165697006Y-125498048D01*
X165565000Y-126161682D01*
X161936484Y-126161682D01*
X146263804Y-110489003D01*
X146240001Y-110459999D01*
X146124276Y-110365026D01*
X145992247Y-110294454D01*
X145848986Y-110250997D01*
X145737333Y-110240000D01*
X145737322Y-110240000D01*
X145700000Y-110236324D01*
X145662678Y-110240000D01*
X100637323Y-110240000D01*
X100600000Y-110236324D01*
X100562677Y-110240000D01*
X100562667Y-110240000D01*
X100451014Y-110250997D01*
X100307753Y-110294454D01*
X100175724Y-110365026D01*
X100059999Y-110459999D01*
X100036201Y-110488997D01*
X95853997Y-114671202D01*
X95824999Y-114695000D01*
X95801201Y-114723998D01*
X95801200Y-114723999D01*
X95730025Y-114810725D01*
X95659453Y-114942755D01*
X95653821Y-114961323D01*
X95619119Y-115075725D01*
X95615997Y-115086016D01*
X95601323Y-115235001D01*
X95605000Y-115272333D01*
X95605000Y-115603247D01*
X95433158Y-115532068D01*
X95146260Y-115475000D01*
X94853740Y-115475000D01*
X94566842Y-115532068D01*
X94296589Y-115644010D01*
X94053368Y-115806525D01*
X93846525Y-116013368D01*
X93684010Y-116256589D01*
X93572068Y-116526842D01*
X93515000Y-116813740D01*
X93515000Y-117106260D01*
X93558791Y-117326408D01*
X93313997Y-117571202D01*
X93284999Y-117595000D01*
X93261201Y-117623998D01*
X93261200Y-117623999D01*
X93190025Y-117710725D01*
X93119453Y-117842755D01*
X93101869Y-117900724D01*
X93075997Y-117986015D01*
X93066347Y-118083988D01*
X93061323Y-118135001D01*
X50660000Y-118135001D01*
X50660000Y-89661682D01*
X146065000Y-89661682D01*
X146065000Y-90338318D01*
X146197006Y-91001952D01*
X146455943Y-91627082D01*
X146831862Y-92189685D01*
X147310315Y-92668138D01*
X147872918Y-93044057D01*
X148498048Y-93302994D01*
X149161682Y-93435000D01*
X149838318Y-93435000D01*
X150501952Y-93302994D01*
X151127082Y-93044057D01*
X151689685Y-92668138D01*
X152168138Y-92189685D01*
X152544057Y-91627082D01*
X152802994Y-91001952D01*
X152935000Y-90338318D01*
X152935000Y-89661682D01*
X152802994Y-88998048D01*
X152544057Y-88372918D01*
X152168138Y-87810315D01*
X151689685Y-87331862D01*
X151127082Y-86955943D01*
X150501952Y-86697006D01*
X149838318Y-86565000D01*
X149161682Y-86565000D01*
X148498048Y-86697006D01*
X147872918Y-86955943D01*
X147310315Y-87331862D01*
X146831862Y-87810315D01*
X146455943Y-88372918D01*
X146197006Y-88998048D01*
X146065000Y-89661682D01*
X50660000Y-89661682D01*
X50660000Y-78621132D01*
X71865000Y-78621132D01*
X71865000Y-79878868D01*
X72110372Y-81112436D01*
X72591687Y-82274431D01*
X73290447Y-83320200D01*
X74179800Y-84209553D01*
X75225569Y-84908313D01*
X76387564Y-85389628D01*
X77621132Y-85635000D01*
X78878868Y-85635000D01*
X80112436Y-85389628D01*
X81274431Y-84908313D01*
X82320200Y-84209553D01*
X83209553Y-83320200D01*
X83908313Y-82274431D01*
X84389628Y-81112436D01*
X84635000Y-79878868D01*
X84635000Y-78621132D01*
X161365000Y-78621132D01*
X161365000Y-79878868D01*
X161610372Y-81112436D01*
X162091687Y-82274431D01*
X162790447Y-83320200D01*
X163679800Y-84209553D01*
X164725569Y-84908313D01*
X165887564Y-85389628D01*
X167121132Y-85635000D01*
X168378868Y-85635000D01*
X169612436Y-85389628D01*
X170774431Y-84908313D01*
X171820200Y-84209553D01*
X172709553Y-83320200D01*
X173408313Y-82274431D01*
X173889628Y-81112436D01*
X174135000Y-79878868D01*
X174135000Y-78621132D01*
X173889628Y-77387564D01*
X173408313Y-76225569D01*
X172709553Y-75179800D01*
X171820200Y-74290447D01*
X170774431Y-73591687D01*
X169612436Y-73110372D01*
X168378868Y-72865000D01*
X167121132Y-72865000D01*
X165887564Y-73110372D01*
X164725569Y-73591687D01*
X163679800Y-74290447D01*
X162790447Y-75179800D01*
X162091687Y-76225569D01*
X161610372Y-77387564D01*
X161365000Y-78621132D01*
X84635000Y-78621132D01*
X84389628Y-77387564D01*
X83908313Y-76225569D01*
X83209553Y-75179800D01*
X82320200Y-74290447D01*
X81274431Y-73591687D01*
X80112436Y-73110372D01*
X78878868Y-72865000D01*
X77621132Y-72865000D01*
X76387564Y-73110372D01*
X75225569Y-73591687D01*
X74179800Y-74290447D01*
X73290447Y-75179800D01*
X72591687Y-76225569D01*
X72110372Y-77387564D01*
X71865000Y-78621132D01*
X50660000Y-78621132D01*
X50660000Y-65621132D01*
X71865000Y-65621132D01*
X71865000Y-66878868D01*
X72110372Y-68112436D01*
X72591687Y-69274431D01*
X73290447Y-70320200D01*
X74179800Y-71209553D01*
X75225569Y-71908313D01*
X76387564Y-72389628D01*
X77621132Y-72635000D01*
X78878868Y-72635000D01*
X80112436Y-72389628D01*
X81274431Y-71908313D01*
X82320200Y-71209553D01*
X83209553Y-70320200D01*
X83908313Y-69274431D01*
X84389628Y-68112436D01*
X84635000Y-66878868D01*
X84635000Y-65621132D01*
X161365000Y-65621132D01*
X161365000Y-66878868D01*
X161610372Y-68112436D01*
X162091687Y-69274431D01*
X162790447Y-70320200D01*
X163679800Y-71209553D01*
X164725569Y-71908313D01*
X165887564Y-72389628D01*
X167121132Y-72635000D01*
X168378868Y-72635000D01*
X169612436Y-72389628D01*
X170774431Y-71908313D01*
X171820200Y-71209553D01*
X172709553Y-70320200D01*
X173408313Y-69274431D01*
X173889628Y-68112436D01*
X174135000Y-66878868D01*
X174135000Y-65621132D01*
X173889628Y-64387564D01*
X173408313Y-63225569D01*
X172709553Y-62179800D01*
X171820200Y-61290447D01*
X170774431Y-60591687D01*
X170639466Y-60535782D01*
X171189685Y-60168138D01*
X171668138Y-59689685D01*
X172044057Y-59127082D01*
X172302994Y-58501952D01*
X172435000Y-57838318D01*
X172435000Y-57161682D01*
X172302994Y-56498048D01*
X172044057Y-55872918D01*
X171668138Y-55310315D01*
X171189685Y-54831862D01*
X170627082Y-54455943D01*
X170001952Y-54197006D01*
X169338318Y-54065000D01*
X168661682Y-54065000D01*
X167998048Y-54197006D01*
X167372918Y-54455943D01*
X166810315Y-54831862D01*
X166331862Y-55310315D01*
X165955943Y-55872918D01*
X165697006Y-56498048D01*
X165565000Y-57161682D01*
X165565000Y-57838318D01*
X165697006Y-58501952D01*
X165955943Y-59127082D01*
X166331862Y-59689685D01*
X166609039Y-59966862D01*
X165887564Y-60110372D01*
X164725569Y-60591687D01*
X163679800Y-61290447D01*
X162790447Y-62179800D01*
X162091687Y-63225569D01*
X161610372Y-64387564D01*
X161365000Y-65621132D01*
X84635000Y-65621132D01*
X84389628Y-64387564D01*
X83908313Y-63225569D01*
X83209553Y-62179800D01*
X82320200Y-61290447D01*
X81274431Y-60591687D01*
X80112436Y-60110372D01*
X79390961Y-59966862D01*
X79668138Y-59689685D01*
X80044057Y-59127082D01*
X80302994Y-58501952D01*
X80435000Y-57838318D01*
X80435000Y-57161682D01*
X80302994Y-56498048D01*
X80044057Y-55872918D01*
X79668138Y-55310315D01*
X79189685Y-54831862D01*
X78627082Y-54455943D01*
X78001952Y-54197006D01*
X77338318Y-54065000D01*
X76661682Y-54065000D01*
X75998048Y-54197006D01*
X75372918Y-54455943D01*
X74810315Y-54831862D01*
X74331862Y-55310315D01*
X73955943Y-55872918D01*
X73697006Y-56498048D01*
X73565000Y-57161682D01*
X73565000Y-57838318D01*
X73697006Y-58501952D01*
X73955943Y-59127082D01*
X74331862Y-59689685D01*
X74810315Y-60168138D01*
X75360534Y-60535782D01*
X75225569Y-60591687D01*
X74179800Y-61290447D01*
X73290447Y-62179800D01*
X72591687Y-63225569D01*
X72110372Y-64387564D01*
X71865000Y-65621132D01*
X50660000Y-65621132D01*
X50660000Y-50660000D01*
X209340000Y-50660000D01*
X209340001Y-88067526D01*
G37*
%TD.AperFunction*%
%TD*%
M02*
