M48
; DRILL file {KiCad (5.1.9)-1} date 09/07/21 11:59:25
; FORMAT={-:-/ absolute / metric / decimal}
; #@! TF.CreationDate,2021-09-07T11:59:25+02:00
; #@! TF.GenerationSoftware,Kicad,Pcbnew,(5.1.9)-1
; #@! TF.FileFunction,Plated,1,2,PTH
FMAT,2
METRIC
T1C1.000
T2C1.550
T3C3.200
T4C11.500
%
G90
G05
T1
X95.0Y-116.96
X95.0Y-119.5
X97.54Y-116.96
X97.54Y-119.5
X100.08Y-116.96
X100.08Y-119.5
X102.62Y-116.96
X102.62Y-119.5
X105.16Y-116.96
X105.16Y-119.5
X107.7Y-116.96
X107.7Y-119.5
X110.24Y-116.96
X110.24Y-119.5
X112.78Y-116.96
X112.78Y-119.5
X115.32Y-116.96
X115.32Y-119.5
X117.86Y-116.96
X117.86Y-119.5
X164.79Y-135.9
X164.79Y-138.44
X167.33Y-135.9
X167.33Y-138.44
X169.87Y-135.9
X169.87Y-138.44
X172.41Y-135.9
X172.41Y-138.44
X174.95Y-135.9
X174.95Y-138.44
X177.49Y-135.9
X177.49Y-138.44
X180.03Y-135.9
X180.03Y-138.44
X182.57Y-135.9
X182.57Y-138.44
X185.11Y-135.9
X185.11Y-138.44
X187.65Y-135.9
X187.65Y-138.44
T2
X118.0Y-141.0
T3
X77.0Y-57.5
X77.0Y-126.5
X149.5Y-90.0
X149.5Y-139.0
X169.0Y-57.5
X169.0Y-126.5
X206.5Y-90.0
X206.5Y-139.0
T4
X78.25Y-66.25
X78.25Y-79.25
X167.75Y-66.25
X167.75Y-79.25
T0
M30
